<svg id="item_details" xmlns="http://www.w3.org/2000/svg" viewBox="0 0 465.2 545.49">
  <defs>
    <style>
      .cls-1 {
        fill: #fff;
        opacity: 0.45;
      }
    </style>
  </defs>
  <title>shop_img_17_over</title>
  <g>
    <rect class="cls-1" x="0.2" width="465" height="545"/>
    <g>
      <path d="M4733.16,4725.88l-7-29.16h-0.12l-6.85,29.16h-9.16L4699.17,4683h9l6.51,29.16h0.12L4722,4683h8.47l7,29.52h0.12l6.74-29.52h8.87l-11.06,42.84h-9Z" transform="translate(-4698.8 -4632.84)"/>
      <path d="M4749.05,4704.4a10.2,10.2,0,0,1,1.44-5,10,10,0,0,1,3.23-3.18,13.72,13.72,0,0,1,4.41-1.71,24.15,24.15,0,0,1,4.92-.51,32.09,32.09,0,0,1,4.55.33,13.52,13.52,0,0,1,4.21,1.29,8.37,8.37,0,0,1,3.11,2.67,7.69,7.69,0,0,1,1.21,4.53V4719a33.58,33.58,0,0,0,.23,4,7.44,7.44,0,0,0,.81,2.88h-8.29a12.36,12.36,0,0,1-.37-1.47,13.26,13.26,0,0,1-.2-1.53,10.58,10.58,0,0,1-4.61,2.94,17.83,17.83,0,0,1-5.41.84,14.06,14.06,0,0,1-4-.54,9,9,0,0,1-3.23-1.68,7.8,7.8,0,0,1-2.16-2.88,10.1,10.1,0,0,1-.78-4.14,9.36,9.36,0,0,1,.89-4.35,7.68,7.68,0,0,1,2.3-2.73,10.13,10.13,0,0,1,3.23-1.53,33.58,33.58,0,0,1,3.66-.81q1.84-.3,3.63-0.48a21,21,0,0,0,3.17-.54,5.44,5.44,0,0,0,2.19-1,2.36,2.36,0,0,0,.75-2,4.68,4.68,0,0,0-.43-2.19,3.25,3.25,0,0,0-1.15-1.26,4.43,4.43,0,0,0-1.67-.6,13.2,13.2,0,0,0-2-.15,6,6,0,0,0-3.8,1.08,4.9,4.9,0,0,0-1.61,3.6h-8.18Zm18.89,6.3a3.63,3.63,0,0,1-1.29.75,13,13,0,0,1-1.67.45q-0.9.18-1.87,0.3c-0.65.08-1.31,0.18-2,.3a14.31,14.31,0,0,0-1.81.48,5.3,5.3,0,0,0-1.55.81,3.83,3.83,0,0,0-1.07,1.29,4.3,4.3,0,0,0-.4,2,4.15,4.15,0,0,0,.4,1.92,3.16,3.16,0,0,0,1.09,1.23,4.5,4.5,0,0,0,1.61.63,10,10,0,0,0,1.9.18,7,7,0,0,0,3.74-.84,5.51,5.51,0,0,0,2-2,6.62,6.62,0,0,0,.78-2.37,17.24,17.24,0,0,0,.14-1.92v-3.18Z" transform="translate(-4698.8 -4632.84)"/>
      <path d="M4784.39,4718.17a4.91,4.91,0,0,0,1.41,1.62,5.94,5.94,0,0,0,2,.93,9,9,0,0,0,2.33.3,8.37,8.37,0,0,0,1.81-.21,6,6,0,0,0,1.73-.66,4,4,0,0,0,1.3-1.2,3.25,3.25,0,0,0,.52-1.89q0-1.92-2.45-2.88a47.43,47.43,0,0,0-6.83-1.92q-1.79-.42-3.49-1a11.69,11.69,0,0,1-3-1.5,7.16,7.16,0,0,1-2.13-2.34,6.83,6.83,0,0,1-.81-3.45,9.64,9.64,0,0,1,1.12-4.92,8.43,8.43,0,0,1,3-3,12.68,12.68,0,0,1,4.15-1.56,24.6,24.6,0,0,1,4.72-.45,22.74,22.74,0,0,1,4.69.48,12.18,12.18,0,0,1,4.06,1.62,9.53,9.53,0,0,1,3,3,10.5,10.5,0,0,1,1.41,4.77h-7.78a3.76,3.76,0,0,0-1.79-3.33,7.9,7.9,0,0,0-3.8-.87,13.41,13.41,0,0,0-1.5.09,4.83,4.83,0,0,0-1.47.39,3.05,3.05,0,0,0-1.12.87,2.64,2.64,0,0,0,.35,3.39,6.13,6.13,0,0,0,2.1,1.17,25.21,25.21,0,0,0,3,.81q1.67,0.36,3.4.78a33.75,33.75,0,0,1,3.48,1,11.32,11.32,0,0,1,3,1.59,7.61,7.61,0,0,1,2.13,2.46,7.47,7.47,0,0,1,.81,3.63,10.23,10.23,0,0,1-1.18,5.13,9.68,9.68,0,0,1-3.08,3.33,12.31,12.31,0,0,1-4.35,1.77,24.44,24.44,0,0,1-5,.51,23.7,23.7,0,0,1-5.07-.54,13.06,13.06,0,0,1-4.41-1.8,10.09,10.09,0,0,1-3.17-3.33,10.75,10.75,0,0,1-1.35-5.19h7.78A4.83,4.83,0,0,0,4784.39,4718.17Z" transform="translate(-4698.8 -4632.84)"/>
      <path d="M4811.66,4683v16.14h0.17a9.64,9.64,0,0,1,4-3.93,10.38,10.38,0,0,1,4.72-1.23,13.41,13.41,0,0,1,5.38.93,8,8,0,0,1,3.31,2.58,10.19,10.19,0,0,1,1.7,4,26,26,0,0,1,.49,5.25v19.08h-8.18v-17.52a11.25,11.25,0,0,0-1.15-5.73q-1.15-1.89-4.09-1.89-3.34,0-4.84,2.07t-1.5,6.81v16.26h-8.18V4683h8.18Z" transform="translate(-4698.8 -4632.84)"/>
      <path d="M4841.44,4718.44a8.11,8.11,0,0,0,9.56.57,5.32,5.32,0,0,0,2.19-2.73h7.2q-1.73,5.58-5.3,8a15.13,15.13,0,0,1-8.64,2.4,16.39,16.39,0,0,1-6.34-1.17,13.14,13.14,0,0,1-4.78-3.33,15.07,15.07,0,0,1-3-5.16,19.58,19.58,0,0,1-1.07-6.6,18.77,18.77,0,0,1,1.09-6.48,15.31,15.31,0,0,1,3.11-5.19,14.63,14.63,0,0,1,4.81-3.45,14.9,14.9,0,0,1,6.19-1.26,13.68,13.68,0,0,1,6.62,1.53,13.39,13.39,0,0,1,4.64,4.11,17.23,17.23,0,0,1,2.62,5.88,22.84,22.84,0,0,1,.58,6.9h-21.48Q4839.6,4716.58,4841.44,4718.44Zm9.24-16.32a5.62,5.62,0,0,0-4.46-1.68,6.89,6.89,0,0,0-3.25.69,6.25,6.25,0,0,0-2.07,1.71,6.32,6.32,0,0,0-1.09,2.16,10,10,0,0,0-.37,2h13.3A10,10,0,0,0,4850.69,4702.12Z" transform="translate(-4698.8 -4632.84)"/>
      <path d="M4881.94,4721.92a8.58,8.58,0,0,1-3.77,3.63,12.12,12.12,0,0,1-5.27,1.11,12.32,12.32,0,0,1-5.88-1.35,11.93,11.93,0,0,1-4.18-3.66,16.88,16.88,0,0,1-2.48-5.31,23.16,23.16,0,0,1-.83-6.24,21.76,21.76,0,0,1,.83-6,15.93,15.93,0,0,1,2.48-5.13,12.49,12.49,0,0,1,4.12-3.57,11.85,11.85,0,0,1,5.76-1.35,11.33,11.33,0,0,1,5,1.17,8.91,8.91,0,0,1,3.77,3.45h0.12V4683h8.18v42.84h-7.78v-4h-0.12Zm-0.35-15.33a9.24,9.24,0,0,0-1.18-3.12,6.78,6.78,0,0,0-2.16-2.19,6.13,6.13,0,0,0-3.34-.84,6.44,6.44,0,0,0-3.4.84,6.5,6.5,0,0,0-2.22,2.22,10.05,10.05,0,0,0-1.21,3.15,17.77,17.77,0,0,0-.37,3.69,16.38,16.38,0,0,0,.4,3.6,10,10,0,0,0,1.3,3.21,7.32,7.32,0,0,0,2.25,2.28,5.89,5.89,0,0,0,3.25.87,6,6,0,0,0,5.53-3.09,10.35,10.35,0,0,0,1.15-3.21,19.66,19.66,0,0,0,.35-3.72A19.21,19.21,0,0,0,4881.59,4706.59Z" transform="translate(-4698.8 -4632.84)"/>
      <path d="M4909.87,4715.32a6.72,6.72,0,0,0,2,2.43,8.42,8.42,0,0,0,2.91,1.38,13.19,13.19,0,0,0,3.46.45,17.22,17.22,0,0,0,2.59-.21,8.72,8.72,0,0,0,2.59-.81,5.69,5.69,0,0,0,2-1.65,4.26,4.26,0,0,0,.81-2.67,3.85,3.85,0,0,0-1.06-2.82,8.42,8.42,0,0,0-2.79-1.8,27.2,27.2,0,0,0-3.92-1.26q-2.19-.54-4.44-1.2a38.09,38.09,0,0,1-4.49-1.47,15.19,15.19,0,0,1-3.92-2.25,10.52,10.52,0,0,1-2.79-3.45,10.83,10.83,0,0,1-1.07-5,11.59,11.59,0,0,1,1.35-5.73,12.59,12.59,0,0,1,3.54-4,15.16,15.16,0,0,1,5-2.4,20.3,20.3,0,0,1,5.53-.78,25.17,25.17,0,0,1,6.19.75,15.16,15.16,0,0,1,5.27,2.43,12.15,12.15,0,0,1,3.66,4.29,13.61,13.61,0,0,1,1.35,6.33h-8.75a7.85,7.85,0,0,0-.78-3.18,5.24,5.24,0,0,0-1.76-2,7.28,7.28,0,0,0-2.51-1,14.83,14.83,0,0,0-3.08-.3,10.24,10.24,0,0,0-2.19.24,5.75,5.75,0,0,0-2,.84,5.08,5.08,0,0,0-1.47,1.5,4.15,4.15,0,0,0-.58,2.28,4,4,0,0,0,.46,2,4.13,4.13,0,0,0,1.81,1.44,22.47,22.47,0,0,0,3.74,1.32q2.39,0.66,6.25,1.68,1.15,0.24,3.2.87a15.1,15.1,0,0,1,4.06,2,12.57,12.57,0,0,1,3.48,3.69,10.85,10.85,0,0,1,1.47,5.91,13.57,13.57,0,0,1-1.09,5.46,11.81,11.81,0,0,1-3.25,4.35,15.42,15.42,0,0,1-5.36,2.85,24.4,24.4,0,0,1-7.4,1,25,25,0,0,1-6.6-.87,16.3,16.3,0,0,1-5.64-2.73,13.33,13.33,0,0,1-3.89-4.74,14.64,14.64,0,0,1-1.38-6.84h8.75A8.12,8.12,0,0,0,4909.87,4715.32Z" transform="translate(-4698.8 -4632.84)"/>
      <path d="M4950.88,4694.86v5.7h-6v15.36a4.3,4.3,0,0,0,.69,2.88,3.89,3.89,0,0,0,2.77.72q0.69,0,1.32-.06a10.57,10.57,0,0,0,1.21-.18v6.6a18.68,18.68,0,0,1-2.3.24q-1.27.06-2.48,0.06a22.87,22.87,0,0,1-3.6-.27,8.24,8.24,0,0,1-3-1,5.45,5.45,0,0,1-2-2.22,8.19,8.19,0,0,1-.75-3.78v-18.3h-5v-5.7h5v-9.3h8.18v9.3h6Z" transform="translate(-4698.8 -4632.84)"/>
      <path d="M4957.62,4694.86v5.76h0.12a10.55,10.55,0,0,1,1.56-2.67,10.35,10.35,0,0,1,2.25-2.1,10.8,10.8,0,0,1,2.71-1.35,9.42,9.42,0,0,1,3-.48,6.17,6.17,0,0,1,1.79.3v7.92q-0.58-.12-1.38-0.21a14.16,14.16,0,0,0-1.56-.09,8.42,8.42,0,0,0-3.8.78,6.66,6.66,0,0,0-2.51,2.13,8.72,8.72,0,0,0-1.35,3.15,17.86,17.86,0,0,0-.4,3.9v14h-8.18v-31h7.78Z" transform="translate(-4698.8 -4632.84)"/>
      <path d="M4967.53,4690.06v-7h8.18v7h-8.18Zm8.18,4.8v31h-8.18v-31h8.18Z" transform="translate(-4698.8 -4632.84)"/>
      <path d="M4985,4694.86v4h0.12a9.15,9.15,0,0,1,3.8-3.66A11.28,11.28,0,0,1,4994,4694a12.48,12.48,0,0,1,6,1.38,12.65,12.65,0,0,1,4.21,3.66,15.75,15.75,0,0,1,2.48,5.31,24.54,24.54,0,0,1,.81,6.33,22.17,22.17,0,0,1-.81,6,15.53,15.53,0,0,1-2.45,5.1,12.25,12.25,0,0,1-4.09,3.54,11.91,11.91,0,0,1-5.73,1.32,11.2,11.2,0,0,1-5.1-1.17,9.77,9.77,0,0,1-3.83-3.45h-0.12v14.7h-8.18v-41.88H4985Zm10.63,24.6a6.68,6.68,0,0,0,2.19-2.19,9.25,9.25,0,0,0,1.18-3.15,19.35,19.35,0,0,0,.35-3.66,18,18,0,0,0-.37-3.66,10,10,0,0,0-1.24-3.21,7.06,7.06,0,0,0-2.22-2.28,6,6,0,0,0-3.31-.87,6.12,6.12,0,0,0-3.37.87,6.85,6.85,0,0,0-2.19,2.25,9.56,9.56,0,0,0-1.18,3.18,19.69,19.69,0,0,0-.35,3.72,17.89,17.89,0,0,0,.38,3.66,9.7,9.7,0,0,0,1.21,3.15,6.58,6.58,0,0,0,2.22,2.19A7.11,7.11,0,0,0,4995.61,4719.46Z" transform="translate(-4698.8 -4632.84)"/>
      <path d="M5016.2,4718.44a8.11,8.11,0,0,0,9.56.57,5.32,5.32,0,0,0,2.19-2.73h7.2q-1.73,5.58-5.3,8a15.14,15.14,0,0,1-8.64,2.4,16.4,16.4,0,0,1-6.34-1.17,13.15,13.15,0,0,1-4.78-3.33,15.12,15.12,0,0,1-3-5.16,19.58,19.58,0,0,1-1.07-6.6,18.75,18.75,0,0,1,1.09-6.48,15.31,15.31,0,0,1,3.11-5.19,14.63,14.63,0,0,1,4.81-3.45,14.89,14.89,0,0,1,6.19-1.26,13.69,13.69,0,0,1,6.63,1.53,13.4,13.4,0,0,1,4.64,4.11,17.25,17.25,0,0,1,2.62,5.88,22.78,22.78,0,0,1,.58,6.9h-21.49Q5014.35,4716.58,5016.2,4718.44Zm9.25-16.32a5.62,5.62,0,0,0-4.46-1.68,6.88,6.88,0,0,0-3.25.69,6.27,6.27,0,0,0-2.07,1.71,6.37,6.37,0,0,0-1.09,2.16,10.16,10.16,0,0,0-.37,2h13.31A10.07,10.07,0,0,0,5025.44,4702.12Z" transform="translate(-4698.8 -4632.84)"/>
      <path d="M5056.69,4721.92a8.58,8.58,0,0,1-3.77,3.63,12.13,12.13,0,0,1-5.27,1.11,12.32,12.32,0,0,1-5.87-1.35,11.93,11.93,0,0,1-4.18-3.66,16.88,16.88,0,0,1-2.48-5.31,23.13,23.13,0,0,1-.84-6.24,21.72,21.72,0,0,1,.84-6,15.93,15.93,0,0,1,2.48-5.13,12.48,12.48,0,0,1,4.12-3.57,11.86,11.86,0,0,1,5.76-1.35,11.32,11.32,0,0,1,5,1.17,8.91,8.91,0,0,1,3.77,3.45h0.12V4683h8.18v42.84h-7.78v-4h-0.12Zm-0.35-15.33a9.24,9.24,0,0,0-1.18-3.12,6.8,6.8,0,0,0-2.16-2.19,6.14,6.14,0,0,0-3.34-.84,6.43,6.43,0,0,0-3.4.84,6.51,6.51,0,0,0-2.22,2.22,10,10,0,0,0-1.21,3.15,17.7,17.7,0,0,0-.37,3.69,16.44,16.44,0,0,0,.4,3.6,10,10,0,0,0,1.3,3.21,7.32,7.32,0,0,0,2.25,2.28,5.89,5.89,0,0,0,3.25.87,6,6,0,0,0,5.53-3.09,10.33,10.33,0,0,0,1.15-3.21,19.66,19.66,0,0,0,.35-3.72A19.21,19.21,0,0,0,5056.34,4706.59Z" transform="translate(-4698.8 -4632.84)"/>
      <path d="M4709.89,4771.32a6.72,6.72,0,0,0,2,2.43,8.41,8.41,0,0,0,2.91,1.38,13.19,13.19,0,0,0,3.46.45,17.24,17.24,0,0,0,2.59-.21,8.73,8.73,0,0,0,2.59-.81,5.7,5.7,0,0,0,2-1.65,4.26,4.26,0,0,0,.81-2.67,3.84,3.84,0,0,0-1.07-2.82,8.41,8.41,0,0,0-2.79-1.8,27.22,27.22,0,0,0-3.92-1.26q-2.19-.54-4.43-1.2a38.1,38.1,0,0,1-4.49-1.47,15.2,15.2,0,0,1-3.92-2.25,10.49,10.49,0,0,1-2.79-3.45,10.83,10.83,0,0,1-1.07-5,11.59,11.59,0,0,1,1.35-5.73,12.58,12.58,0,0,1,3.54-4,15.15,15.15,0,0,1,5-2.4,20.29,20.29,0,0,1,5.53-.78,25.16,25.16,0,0,1,6.19.75,15.17,15.17,0,0,1,5.27,2.43,12.16,12.16,0,0,1,3.66,4.29,13.63,13.63,0,0,1,1.35,6.33h-8.75a7.87,7.87,0,0,0-.78-3.18,5.24,5.24,0,0,0-1.76-2,7.26,7.26,0,0,0-2.51-1,14.82,14.82,0,0,0-3.08-.3,10.23,10.23,0,0,0-2.19.24,5.73,5.73,0,0,0-2,.84,5.08,5.08,0,0,0-1.47,1.5,4.15,4.15,0,0,0-.58,2.28,4,4,0,0,0,.46,2,4.13,4.13,0,0,0,1.81,1.44,22.42,22.42,0,0,0,3.74,1.32q2.39,0.66,6.25,1.68,1.15,0.24,3.2.87a15.08,15.08,0,0,1,4.06,2,12.56,12.56,0,0,1,3.48,3.69,10.84,10.84,0,0,1,1.47,5.91,13.57,13.57,0,0,1-1.09,5.46,11.82,11.82,0,0,1-3.25,4.35,15.43,15.43,0,0,1-5.36,2.85,24.39,24.39,0,0,1-7.4,1,25,25,0,0,1-6.59-.87,16.29,16.29,0,0,1-5.64-2.73,13.32,13.32,0,0,1-3.89-4.74,14.62,14.62,0,0,1-1.38-6.84h8.76A8.12,8.12,0,0,0,4709.89,4771.32Z" transform="translate(-4698.8 -4632.84)"/>
      <path d="M4742.72,4739v16.14h0.17a9.65,9.65,0,0,1,4-3.93,10.39,10.39,0,0,1,4.72-1.23,13.41,13.41,0,0,1,5.39.93,8,8,0,0,1,3.31,2.58,10.21,10.21,0,0,1,1.7,4,26,26,0,0,1,.49,5.25v19.08h-8.18v-17.52a11.26,11.26,0,0,0-1.15-5.73q-1.15-1.89-4.09-1.89-3.34,0-4.84,2.07t-1.5,6.81v16.26h-8.18V4739h8.18Z" transform="translate(-4698.8 -4632.84)"/>
      <path d="M4763.91,4759.65a14.61,14.61,0,0,1,3.11-5.16,13.91,13.91,0,0,1,4.84-3.3,16.39,16.39,0,0,1,6.34-1.17,16.61,16.61,0,0,1,6.36,1.17,13.86,13.86,0,0,1,4.87,3.3,14.64,14.64,0,0,1,3.11,5.16,19.79,19.79,0,0,1,1.09,6.75,19.52,19.52,0,0,1-1.09,6.72,14.65,14.65,0,0,1-3.11,5.13,13.5,13.5,0,0,1-4.87,3.27,17,17,0,0,1-6.36,1.14,16.78,16.78,0,0,1-6.34-1.14,13.54,13.54,0,0,1-4.84-3.27,14.63,14.63,0,0,1-3.11-5.13,19.47,19.47,0,0,1-1.09-6.72A19.74,19.74,0,0,1,4763.91,4759.65Zm7.43,10.38a9.91,9.91,0,0,0,1.18,3.18,6.41,6.41,0,0,0,2.22,2.25,6.55,6.55,0,0,0,3.46.84,6.7,6.7,0,0,0,3.48-.84,6.33,6.33,0,0,0,2.25-2.25,9.91,9.91,0,0,0,1.18-3.18,18.89,18.89,0,0,0,.35-3.63,19.37,19.37,0,0,0-.35-3.66,9.58,9.58,0,0,0-1.18-3.18,6.68,6.68,0,0,0-2.25-2.25,6.53,6.53,0,0,0-3.48-.87,6.39,6.39,0,0,0-3.46.87,6.77,6.77,0,0,0-2.22,2.25,9.58,9.58,0,0,0-1.18,3.18,19.45,19.45,0,0,0-.34,3.66A19,19,0,0,0,4771.34,4770Z" transform="translate(-4698.8 -4632.84)"/>
      <path d="M4801.76,4750.86v5.76h0.12a10.53,10.53,0,0,1,1.56-2.67,10.33,10.33,0,0,1,2.25-2.1,10.82,10.82,0,0,1,2.71-1.35,9.43,9.43,0,0,1,3-.48,6.18,6.18,0,0,1,1.79.3v7.92q-0.58-.12-1.38-0.21a14.15,14.15,0,0,0-1.55-.09,8.43,8.43,0,0,0-3.8.78,6.65,6.65,0,0,0-2.5,2.13,8.71,8.71,0,0,0-1.35,3.15,17.85,17.85,0,0,0-.4,3.9v14H4794v-31h7.78Z" transform="translate(-4698.8 -4632.84)"/>
      <path d="M4827.79,4750.86v5.7h-6v15.36a4.3,4.3,0,0,0,.69,2.88,3.89,3.89,0,0,0,2.77.72q0.69,0,1.32-.06a10.57,10.57,0,0,0,1.21-.18v6.6a18.68,18.68,0,0,1-2.3.24q-1.27.06-2.48,0.06a22.87,22.87,0,0,1-3.6-.27,8.24,8.24,0,0,1-3-1,5.45,5.45,0,0,1-2-2.22,8.19,8.19,0,0,1-.75-3.78v-18.3h-5v-5.7h5v-9.3h8.18v9.3h6Z" transform="translate(-4698.8 -4632.84)"/>
      <path d="M4845.59,4771.32a6.72,6.72,0,0,0,2,2.43,8.42,8.42,0,0,0,2.91,1.38,13.19,13.19,0,0,0,3.46.45,17.22,17.22,0,0,0,2.59-.21,8.72,8.72,0,0,0,2.59-.81,5.69,5.69,0,0,0,2-1.65,4.26,4.26,0,0,0,.81-2.67,3.85,3.85,0,0,0-1.06-2.82,8.42,8.42,0,0,0-2.79-1.8,27.2,27.2,0,0,0-3.92-1.26q-2.19-.54-4.44-1.2a38.09,38.09,0,0,1-4.49-1.47,15.19,15.19,0,0,1-3.92-2.25,10.52,10.52,0,0,1-2.79-3.45,10.83,10.83,0,0,1-1.07-5,11.59,11.59,0,0,1,1.35-5.73,12.59,12.59,0,0,1,3.54-4,15.16,15.16,0,0,1,5-2.4,20.3,20.3,0,0,1,5.53-.78,25.17,25.17,0,0,1,6.19.75,15.16,15.16,0,0,1,5.27,2.43,12.15,12.15,0,0,1,3.66,4.29,13.61,13.61,0,0,1,1.35,6.33h-8.75a7.85,7.85,0,0,0-.78-3.18,5.24,5.24,0,0,0-1.76-2,7.28,7.28,0,0,0-2.51-1,14.83,14.83,0,0,0-3.08-.3,10.24,10.24,0,0,0-2.19.24,5.75,5.75,0,0,0-2,.84,5.08,5.08,0,0,0-1.47,1.5,4.15,4.15,0,0,0-.58,2.28,4,4,0,0,0,.46,2,4.13,4.13,0,0,0,1.81,1.44,22.47,22.47,0,0,0,3.74,1.32q2.39,0.66,6.25,1.68,1.15,0.24,3.2.87a15.1,15.1,0,0,1,4.06,2,12.57,12.57,0,0,1,3.48,3.69,10.85,10.85,0,0,1,1.47,5.91,13.57,13.57,0,0,1-1.09,5.46,11.81,11.81,0,0,1-3.25,4.35,15.42,15.42,0,0,1-5.36,2.85,24.4,24.4,0,0,1-7.4,1,25,25,0,0,1-6.6-.87,16.3,16.3,0,0,1-5.64-2.73,13.33,13.33,0,0,1-3.89-4.74,14.64,14.64,0,0,1-1.38-6.84h8.75A8.12,8.12,0,0,0,4845.59,4771.32Z" transform="translate(-4698.8 -4632.84)"/>
      <path d="M4878.65,4739v42.84h-8.18V4739h8.18Z" transform="translate(-4698.8 -4632.84)"/>
      <path d="M4888.9,4774.44a8.11,8.11,0,0,0,9.56.57,5.32,5.32,0,0,0,2.19-2.73h7.2q-1.73,5.58-5.3,8a15.13,15.13,0,0,1-8.64,2.4,16.4,16.4,0,0,1-6.34-1.17,13.15,13.15,0,0,1-4.78-3.33,15.1,15.1,0,0,1-3-5.16,19.58,19.58,0,0,1-1.06-6.6,18.75,18.75,0,0,1,1.09-6.48,15.3,15.3,0,0,1,3.11-5.19,14.63,14.63,0,0,1,4.81-3.45,14.89,14.89,0,0,1,6.19-1.26,13.69,13.69,0,0,1,6.62,1.53,13.39,13.39,0,0,1,4.64,4.11,17.27,17.27,0,0,1,2.62,5.88,22.84,22.84,0,0,1,.58,6.9h-21.49Q4887.06,4772.58,4888.9,4774.44Zm9.24-16.32a5.62,5.62,0,0,0-4.46-1.68,6.89,6.89,0,0,0-3.25.69,6.27,6.27,0,0,0-2.07,1.71,6.35,6.35,0,0,0-1.09,2.16,10.15,10.15,0,0,0-.37,2h13.31A10.06,10.06,0,0,0,4898.15,4758.12Z" transform="translate(-4698.8 -4632.84)"/>
      <path d="M4917,4774.44a8.11,8.11,0,0,0,9.56.57,5.32,5.32,0,0,0,2.19-2.73h7.2q-1.73,5.58-5.3,8a15.13,15.13,0,0,1-8.64,2.4,16.4,16.4,0,0,1-6.34-1.17,13.14,13.14,0,0,1-4.78-3.33,15.09,15.09,0,0,1-3-5.16,19.58,19.58,0,0,1-1.07-6.6,18.77,18.77,0,0,1,1.09-6.48,15.33,15.33,0,0,1,3.11-5.19,14.64,14.64,0,0,1,4.81-3.45A14.89,14.89,0,0,1,4922,4750a13.69,13.69,0,0,1,6.62,1.53,13.4,13.4,0,0,1,4.64,4.11,17.21,17.21,0,0,1,2.62,5.88,22.78,22.78,0,0,1,.58,6.9H4915Q4915.17,4772.58,4917,4774.44Zm9.25-16.32a5.62,5.62,0,0,0-4.46-1.68,6.88,6.88,0,0,0-3.25.69,6.25,6.25,0,0,0-2.07,1.71,6.33,6.33,0,0,0-1.09,2.16,10,10,0,0,0-.37,2h13.31A10,10,0,0,0,4926.26,4758.12Z" transform="translate(-4698.8 -4632.84)"/>
      <path d="M4943.74,4781.88l-10.2-31h8.58l6.28,21.18h0.12l6.28-21.18h8.12l-10.08,31h-9.1Z" transform="translate(-4698.8 -4632.84)"/>
      <path d="M4970.12,4774.44a8.11,8.11,0,0,0,9.56.57,5.32,5.32,0,0,0,2.19-2.73h7.2q-1.73,5.58-5.3,8a15.14,15.14,0,0,1-8.64,2.4,16.4,16.4,0,0,1-6.34-1.17,13.15,13.15,0,0,1-4.78-3.33,15.12,15.12,0,0,1-3-5.16,19.58,19.58,0,0,1-1.07-6.6,18.75,18.75,0,0,1,1.09-6.48,15.31,15.31,0,0,1,3.11-5.19,14.63,14.63,0,0,1,4.81-3.45,14.89,14.89,0,0,1,6.19-1.26,13.69,13.69,0,0,1,6.63,1.53,13.4,13.4,0,0,1,4.64,4.11,17.25,17.25,0,0,1,2.62,5.88,22.78,22.78,0,0,1,.58,6.9H4968.1Q4968.27,4772.58,4970.12,4774.44Zm9.25-16.32a5.62,5.62,0,0,0-4.46-1.68,6.88,6.88,0,0,0-3.25.69,6.27,6.27,0,0,0-2.07,1.71,6.37,6.37,0,0,0-1.09,2.16,10.16,10.16,0,0,0-.37,2h13.31A10.07,10.07,0,0,0,4979.36,4758.12Z" transform="translate(-4698.8 -4632.84)"/>
      <path d="M4998.17,4747V4739h33.7V4747h-12.33v34.92h-9V4747h-12.33Z" transform="translate(-4698.8 -4632.84)"/>
      <path d="M5040.62,4761.84v7.32h-17.34v-7.32h17.34Z" transform="translate(-4698.8 -4632.84)"/>
      <path d="M5048.71,4774.17a4.91,4.91,0,0,0,1.41,1.62,5.94,5.94,0,0,0,2,.93,9,9,0,0,0,2.33.3,8.37,8.37,0,0,0,1.81-.21,6,6,0,0,0,1.73-.66,4,4,0,0,0,1.3-1.2,3.25,3.25,0,0,0,.52-1.89q0-1.92-2.45-2.88a47.43,47.43,0,0,0-6.83-1.92q-1.79-.42-3.49-1a11.69,11.69,0,0,1-3-1.5,7.16,7.16,0,0,1-2.13-2.34,6.83,6.83,0,0,1-.81-3.45,9.64,9.64,0,0,1,1.12-4.92,8.43,8.43,0,0,1,3-3,12.68,12.68,0,0,1,4.15-1.56,24.6,24.6,0,0,1,4.72-.45,22.74,22.74,0,0,1,4.69.48,12.18,12.18,0,0,1,4.06,1.62,9.53,9.53,0,0,1,3,3,10.5,10.5,0,0,1,1.41,4.77h-7.78a3.76,3.76,0,0,0-1.79-3.33,7.9,7.9,0,0,0-3.8-.87,13.41,13.41,0,0,0-1.5.09,4.83,4.83,0,0,0-1.47.39,3.05,3.05,0,0,0-1.12.87,2.64,2.64,0,0,0,.35,3.39,6.13,6.13,0,0,0,2.1,1.17,25.21,25.21,0,0,0,3,.81q1.67,0.36,3.4.78a33.75,33.75,0,0,1,3.48,1,11.32,11.32,0,0,1,3,1.59,7.61,7.61,0,0,1,2.13,2.46,7.47,7.47,0,0,1,.81,3.63,10.23,10.23,0,0,1-1.18,5.13,9.68,9.68,0,0,1-3.08,3.33,12.31,12.31,0,0,1-4.35,1.77,24.44,24.44,0,0,1-5,.51,23.7,23.7,0,0,1-5.07-.54,13.06,13.06,0,0,1-4.41-1.8,10.09,10.09,0,0,1-3.17-3.33,10.75,10.75,0,0,1-1.35-5.19h7.78A4.83,4.83,0,0,0,5048.71,4774.17Z" transform="translate(-4698.8 -4632.84)"/>
      <path d="M5076,4739v16.14h0.17a9.64,9.64,0,0,1,4-3.93,10.38,10.38,0,0,1,4.72-1.23,13.41,13.41,0,0,1,5.38.93,8,8,0,0,1,3.31,2.58,10.19,10.19,0,0,1,1.7,4,26,26,0,0,1,.49,5.25v19.08h-8.18v-17.52a11.25,11.25,0,0,0-1.15-5.73q-1.15-1.89-4.09-1.89-3.34,0-4.84,2.07t-1.5,6.81v16.26h-8.18V4739H5076Z" transform="translate(-4698.8 -4632.84)"/>
      <path d="M5097.24,4746.06v-7h8.18v7h-8.18Zm8.18,4.8v31h-8.18v-31h8.18Z" transform="translate(-4698.8 -4632.84)"/>
      <path d="M5114.69,4750.86v5.76h0.12a10.52,10.52,0,0,1,1.55-2.67,10.35,10.35,0,0,1,2.25-2.1,10.85,10.85,0,0,1,2.71-1.35,9.43,9.43,0,0,1,3-.48,6.17,6.17,0,0,1,1.79.3v7.92c-0.38-.08-0.84-0.15-1.38-0.21a14.13,14.13,0,0,0-1.55-.09,8.42,8.42,0,0,0-3.8.78,6.65,6.65,0,0,0-2.5,2.13,8.67,8.67,0,0,0-1.35,3.15,17.79,17.79,0,0,0-.4,3.9v14h-8.18v-31h7.78Z" transform="translate(-4698.8 -4632.84)"/>
      <path d="M5140.73,4750.86v5.7h-6v15.36a4.3,4.3,0,0,0,.69,2.88,3.89,3.89,0,0,0,2.76.72q0.69,0,1.33-.06a10.62,10.62,0,0,0,1.21-.18v6.6a18.73,18.73,0,0,1-2.3.24q-1.27.06-2.48,0.06a22.84,22.84,0,0,1-3.6-.27,8.26,8.26,0,0,1-3-1,5.47,5.47,0,0,1-2-2.22,8.21,8.21,0,0,1-.75-3.78v-18.3h-5v-5.7h5v-9.3h8.18v9.3h6Z" transform="translate(-4698.8 -4632.84)"/>
      <path d="M5149.08,4772.64v9.24h-9v-9.24h9Z" transform="translate(-4698.8 -4632.84)"/>
      <path d="M4708.85,4829.36a8,8,0,0,0,4.44,2.52v-12.54q-0.29-.12-0.78-0.27t-1.07-.27q-2.13-.6-4.2-1.41a13.63,13.63,0,0,1-3.72-2.16,9.89,9.89,0,0,1-2.62-3.36,11.39,11.39,0,0,1-1-5,12.35,12.35,0,0,1,1.12-5.4,11.94,11.94,0,0,1,3-3.93,13.41,13.41,0,0,1,4.26-2.46,18.57,18.57,0,0,1,5-1v-4.62h3.4V4794a20.07,20.07,0,0,1,4.87,1.17,13,13,0,0,1,4,2.4,11.9,11.9,0,0,1,2.82,3.81,14.24,14.24,0,0,1,1.27,5.4h-8.18a6.47,6.47,0,0,0-1.44-4.08,4.19,4.19,0,0,0-3.34-1.68v10.62l1.41,0.36q0.72,0.18,1.53.42a19.56,19.56,0,0,1,6.57,3,12.78,12.78,0,0,1,3.4,3.69,9.85,9.85,0,0,1,1.3,3.84,33.59,33.59,0,0,1,.2,3.42,11.56,11.56,0,0,1-.63,3.33,11.32,11.32,0,0,1-2.28,3.93,15.3,15.3,0,0,1-4.41,3.42,17.38,17.38,0,0,1-7.08,1.8v5.1h-3.4v-5.1q-6.45-.48-10.08-4.14T4699,4824h8.12A7.57,7.57,0,0,0,4708.85,4829.36Zm2.54-28a5,5,0,0,0-1.67.93,4.48,4.48,0,0,0-1.18,1.56,5.16,5.16,0,0,0-.43,2.19,3.89,3.89,0,0,0,1.21,3.06,9.25,9.25,0,0,0,4,1.74V4801A6.09,6.09,0,0,0,4711.38,4801.34Zm7.46,30a6.68,6.68,0,0,0,2-1.11,5.87,5.87,0,0,0,1.47-1.77,5.1,5.1,0,0,0,.58-2.49,4.3,4.3,0,0,0-1.41-3.51,13.65,13.65,0,0,0-4.81-2.13v11.52A10.06,10.06,0,0,0,4718.84,4831.37Z" transform="translate(-4698.8 -4632.84)"/>
      <path d="M4740.47,4837.88v-27.24h-10.14v-6.42a18.56,18.56,0,0,0,4.12-.33,10.48,10.48,0,0,0,3.57-1.38,8.93,8.93,0,0,0,2.68-2.61,9.53,9.53,0,0,0,1.44-4h6.51v42h-8.18Z" transform="translate(-4698.8 -4632.84)"/>
      <path d="M4765.3,4802.9l-1.61,9.54,0.12,0.12a10.15,10.15,0,0,1,3.57-2.49,11.89,11.89,0,0,1,13.51,3.45,13.52,13.52,0,0,1,2.42,4.53,18.13,18.13,0,0,1,.83,5.55,15,15,0,0,1-1.21,6,15.42,15.42,0,0,1-3.25,4.83,14.36,14.36,0,0,1-10.51,4.2,19.3,19.3,0,0,1-5.62-.81,13.82,13.82,0,0,1-4.75-2.49,12.37,12.37,0,0,1-3.31-4.17,13.35,13.35,0,0,1-1.3-5.79h8.18a7.09,7.09,0,0,0,2.07,4.59,6.31,6.31,0,0,0,4.55,1.71,6.1,6.1,0,0,0,2.91-.69,7,7,0,0,0,2.19-1.8,8.2,8.2,0,0,0,1.38-2.58,9.53,9.53,0,0,0,.49-3,10,10,0,0,0-.46-3.06,7.25,7.25,0,0,0-1.38-2.52,6.54,6.54,0,0,0-2.19-1.68,6.8,6.8,0,0,0-2.94-.6,7,7,0,0,0-3.57.81,8.48,8.48,0,0,0-2.59,2.55h-7.37l4-23.22h22.52v7H4765.3Z" transform="translate(-4698.8 -4632.84)"/>
      <path d="M4792.71,4828.64v9.24h-9v-9.24h9Z" transform="translate(-4698.8 -4632.84)"/>
      <path d="M4793.67,4806.41a18.79,18.79,0,0,1,3.2-6.69,11.5,11.5,0,0,1,4.69-3.6,15,15,0,0,1,5.67-1.08,15.19,15.19,0,0,1,5.73,1.08,11.72,11.72,0,0,1,4.72,3.6,18.56,18.56,0,0,1,3.22,6.69,38.33,38.33,0,0,1,1.18,10.29,39.83,39.83,0,0,1-1.18,10.53,18.55,18.55,0,0,1-3.22,6.75,11.72,11.72,0,0,1-4.72,3.6,15.17,15.17,0,0,1-5.73,1.08,15,15,0,0,1-5.67-1.08,11.5,11.5,0,0,1-4.69-3.6,18.78,18.78,0,0,1-3.2-6.75,39.83,39.83,0,0,1-1.18-10.53A38.33,38.33,0,0,1,4793.67,4806.41Zm7.11,14.64a24.15,24.15,0,0,0,.72,4.92,10.69,10.69,0,0,0,1.93,4,4.55,4.55,0,0,0,3.8,1.68,4.71,4.71,0,0,0,3.89-1.68,10.5,10.5,0,0,0,2-4,24.29,24.29,0,0,0,.72-4.92q0.11-2.55.12-4.35,0-1.08,0-2.61a30.09,30.09,0,0,0-.23-3.15,30.6,30.6,0,0,0-.58-3.21,10.11,10.11,0,0,0-1.12-2.85,6.32,6.32,0,0,0-1.9-2,4.92,4.92,0,0,0-2.82-.78,4.78,4.78,0,0,0-2.79.78,6.15,6.15,0,0,0-1.84,2,11.29,11.29,0,0,0-1.12,2.85,22.85,22.85,0,0,0-.58,3.21q-0.17,1.62-.2,3.15t0,2.61Q4800.66,4818.5,4800.78,4821.05Z" transform="translate(-4698.8 -4632.84)"/>
      <path d="M4820.74,4806.41a18.79,18.79,0,0,1,3.2-6.69,11.5,11.5,0,0,1,4.69-3.6,15,15,0,0,1,5.67-1.08,15.19,15.19,0,0,1,5.73,1.08,11.72,11.72,0,0,1,4.72,3.6,18.56,18.56,0,0,1,3.22,6.69,38.33,38.33,0,0,1,1.18,10.29,39.83,39.83,0,0,1-1.18,10.53,18.55,18.55,0,0,1-3.22,6.75,11.72,11.72,0,0,1-4.72,3.6,15.17,15.17,0,0,1-5.73,1.08,15,15,0,0,1-5.67-1.08,11.5,11.5,0,0,1-4.69-3.6,18.78,18.78,0,0,1-3.2-6.75,39.83,39.83,0,0,1-1.18-10.53A38.33,38.33,0,0,1,4820.74,4806.41Zm7.11,14.64a24.15,24.15,0,0,0,.72,4.92,10.69,10.69,0,0,0,1.93,4,4.55,4.55,0,0,0,3.8,1.68,4.71,4.71,0,0,0,3.89-1.68,10.5,10.5,0,0,0,2-4,24.29,24.29,0,0,0,.72-4.92q0.11-2.55.12-4.35,0-1.08,0-2.61a30.09,30.09,0,0,0-.23-3.15,30.6,30.6,0,0,0-.58-3.21,10.11,10.11,0,0,0-1.12-2.85,6.32,6.32,0,0,0-1.9-2,4.92,4.92,0,0,0-2.82-.78,4.78,4.78,0,0,0-2.79.78,6.15,6.15,0,0,0-1.84,2,11.29,11.29,0,0,0-1.12,2.85,22.85,22.85,0,0,0-.58,3.21q-0.17,1.62-.2,3.15t0,2.61Q4827.74,4818.5,4827.85,4821.05Z" transform="translate(-4698.8 -4632.84)"/>
      <path d="M4857.92,4828.64v9.24h-9v-9.24h9Z" transform="translate(-4698.8 -4632.84)"/>
      <path d="M4716.2,4888.08a5.33,5.33,0,0,0-1.14-1.34,5.23,5.23,0,0,0-1.55-.9,5.15,5.15,0,0,0-1.81-.32,5.78,5.78,0,0,0-2.94.7,5.65,5.65,0,0,0-2,1.87,8.39,8.39,0,0,0-1.09,2.67,13.82,13.82,0,0,0-.34,3.09,12.84,12.84,0,0,0,.34,3,8.22,8.22,0,0,0,1.09,2.6,5.7,5.7,0,0,0,2,1.85,5.78,5.78,0,0,0,2.94.7,4.65,4.65,0,0,0,3.67-1.5,7.07,7.07,0,0,0,1.62-3.94h5a12.74,12.74,0,0,1-1,4.11,9.86,9.86,0,0,1-2.15,3.13,9.09,9.09,0,0,1-3.13,2,11.07,11.07,0,0,1-3.95.68,11.53,11.53,0,0,1-4.81-1,10.32,10.32,0,0,1-3.61-2.67,11.94,11.94,0,0,1-2.25-4,15.23,15.23,0,0,1-.78-4.95,15.76,15.76,0,0,1,.78-5,12.28,12.28,0,0,1,2.25-4.06,10.32,10.32,0,0,1,3.61-2.72,12,12,0,0,1,8.45-.41,9.74,9.74,0,0,1,3.07,1.68,9,9,0,0,1,2.24,2.74,10.07,10.07,0,0,1,1.11,3.74h-5A4.47,4.47,0,0,0,4716.2,4888.08Z" transform="translate(-4698.8 -4632.84)"/>
      <path d="M4726.91,4881.6v24.28h-4.63V4881.6h4.63Z" transform="translate(-4698.8 -4632.84)"/>
      <path d="M4727.56,4893.71a5.76,5.76,0,0,1,.82-2.82,5.67,5.67,0,0,1,1.83-1.8,7.78,7.78,0,0,1,2.5-1,13.67,13.67,0,0,1,2.79-.29,18.13,18.13,0,0,1,2.58.19,7.65,7.65,0,0,1,2.38.73,4.75,4.75,0,0,1,1.76,1.51,4.36,4.36,0,0,1,.69,2.57V4902a19.14,19.14,0,0,0,.13,2.28,4.26,4.26,0,0,0,.46,1.63h-4.7a7,7,0,0,1-.21-0.83,7.41,7.41,0,0,1-.11-0.87,6,6,0,0,1-2.61,1.67,10.13,10.13,0,0,1-3.07.48,8,8,0,0,1-2.25-.31,5.07,5.07,0,0,1-1.83-1,4.41,4.41,0,0,1-1.22-1.63,5.73,5.73,0,0,1-.44-2.35,5.31,5.31,0,0,1,.51-2.47,4.36,4.36,0,0,1,1.31-1.55,5.77,5.77,0,0,1,1.83-.87,19.12,19.12,0,0,1,2.07-.46c0.7-.11,1.38-0.2,2.06-0.27a12,12,0,0,0,1.79-.31,3.08,3.08,0,0,0,1.24-.6,1.33,1.33,0,0,0,.42-1.14,2.65,2.65,0,0,0-.24-1.24,1.85,1.85,0,0,0-.65-0.71,2.51,2.51,0,0,0-.95-0.34,7.45,7.45,0,0,0-1.16-.08,3.42,3.42,0,0,0-2.15.61,2.77,2.77,0,0,0-.91,2h-4.63Zm10.71,3.57a2,2,0,0,1-.73.42,7.08,7.08,0,0,1-.95.25q-0.51.1-1.06,0.17c-0.37,0-.74.1-1.11,0.17a8.16,8.16,0,0,0-1,.27,3,3,0,0,0-.88.46,2.15,2.15,0,0,0-.6.73,2.43,2.43,0,0,0-.23,1.12,2.35,2.35,0,0,0,.23,1.09,1.8,1.8,0,0,0,.62.7,2.57,2.57,0,0,0,.91.36,5.57,5.57,0,0,0,1.08.1,4,4,0,0,0,2.12-.48,3.14,3.14,0,0,0,1.11-1.14,3.75,3.75,0,0,0,.44-1.34,9.73,9.73,0,0,0,.08-1.09v-1.8Z" transform="translate(-4698.8 -4632.84)"/>
      <path d="M4747.58,4901.51a2.78,2.78,0,0,0,.8.92,3.37,3.37,0,0,0,1.13.53,5.07,5.07,0,0,0,1.32.17,4.72,4.72,0,0,0,1-.12,3.39,3.39,0,0,0,1-.37,2.26,2.26,0,0,0,.73-0.68,1.84,1.84,0,0,0,.29-1.07,1.79,1.79,0,0,0-1.39-1.63,27,27,0,0,0-3.87-1.09q-1-.24-2-0.56a6.66,6.66,0,0,1-1.71-.85,4.07,4.07,0,0,1-1.21-1.33,3.88,3.88,0,0,1-.46-2,5.46,5.46,0,0,1,.64-2.79,4.78,4.78,0,0,1,1.68-1.72,7.17,7.17,0,0,1,2.35-.88,13.92,13.92,0,0,1,2.68-.25,12.83,12.83,0,0,1,2.66.27,6.87,6.87,0,0,1,2.3.92,5.39,5.39,0,0,1,1.68,1.72,5.93,5.93,0,0,1,.8,2.7h-4.41a2.13,2.13,0,0,0-1-1.89,4.47,4.47,0,0,0-2.15-.49,7.61,7.61,0,0,0-.85.05,2.74,2.74,0,0,0-.83.22,1.73,1.73,0,0,0-.64.49,1.49,1.49,0,0,0,.2,1.92,3.47,3.47,0,0,0,1.19.66,14.31,14.31,0,0,0,1.68.46l1.93,0.44a18.84,18.84,0,0,1,2,.58,6.41,6.41,0,0,1,1.71.9,4.3,4.3,0,0,1,1.21,1.39,4.23,4.23,0,0,1,.46,2.06,5.8,5.8,0,0,1-.67,2.91,5.49,5.49,0,0,1-1.75,1.89,7,7,0,0,1-2.46,1,13.84,13.84,0,0,1-2.82.29,13.42,13.42,0,0,1-2.87-.31,7.4,7.4,0,0,1-2.5-1,5.72,5.72,0,0,1-1.79-1.89,6.09,6.09,0,0,1-.77-2.94h4.41A2.73,2.73,0,0,0,4747.58,4901.51Z" transform="translate(-4698.8 -4632.84)"/>
      <path d="M4762.3,4901.51a2.78,2.78,0,0,0,.8.92,3.38,3.38,0,0,0,1.13.53,5.06,5.06,0,0,0,1.32.17,4.71,4.71,0,0,0,1-.12,3.38,3.38,0,0,0,1-.37,2.25,2.25,0,0,0,.73-0.68,1.84,1.84,0,0,0,.29-1.07,1.79,1.79,0,0,0-1.39-1.63,27,27,0,0,0-3.87-1.09q-1-.24-2-0.56a6.64,6.64,0,0,1-1.71-.85,4,4,0,0,1-1.21-1.33,3.87,3.87,0,0,1-.46-2,5.46,5.46,0,0,1,.64-2.79,4.79,4.79,0,0,1,1.68-1.72,7.18,7.18,0,0,1,2.35-.88,13.94,13.94,0,0,1,2.68-.25,12.84,12.84,0,0,1,2.66.27,6.88,6.88,0,0,1,2.3.92,5.41,5.41,0,0,1,1.68,1.72,6,6,0,0,1,.8,2.7h-4.41a2.13,2.13,0,0,0-1-1.89,4.47,4.47,0,0,0-2.15-.49,7.62,7.62,0,0,0-.85.05,2.74,2.74,0,0,0-.83.22,1.73,1.73,0,0,0-.64.49,1.5,1.5,0,0,0,.2,1.92,3.46,3.46,0,0,0,1.19.66,14.29,14.29,0,0,0,1.68.46l1.93,0.44a18.84,18.84,0,0,1,2,.58,6.42,6.42,0,0,1,1.71.9,4.3,4.3,0,0,1,1.21,1.39,4.23,4.23,0,0,1,.46,2.06,5.79,5.79,0,0,1-.67,2.91,5.47,5.47,0,0,1-1.75,1.89,7,7,0,0,1-2.46,1,13.84,13.84,0,0,1-2.82.29,13.43,13.43,0,0,1-2.87-.31,7.39,7.39,0,0,1-2.5-1,5.7,5.7,0,0,1-1.79-1.89,6.08,6.08,0,0,1-.77-2.94H4762A2.73,2.73,0,0,0,4762.3,4901.51Z" transform="translate(-4698.8 -4632.84)"/>
      <path d="M4773.25,4885.58v-4h4.63v4h-4.63Zm4.63,2.72v17.58h-4.63V4888.3h4.63Z" transform="translate(-4698.8 -4632.84)"/>
      <path d="M4786.8,4891.46a3.16,3.16,0,0,0-1.86.53,4.11,4.11,0,0,0-1.22,1.36,6,6,0,0,0-.67,1.84,10.34,10.34,0,0,0-.2,2,9.9,9.9,0,0,0,.2,1.94,6.14,6.14,0,0,0,.64,1.79,3.74,3.74,0,0,0,1.19,1.31,3.18,3.18,0,0,0,1.83.51,3.32,3.32,0,0,0,2.56-1,4.67,4.67,0,0,0,1.13-2.6h4.47a8.08,8.08,0,0,1-2.61,5.34,8.21,8.21,0,0,1-5.52,1.84,8.9,8.9,0,0,1-3.48-.66,7.67,7.67,0,0,1-2.69-1.85,8.5,8.5,0,0,1-1.73-2.84,10.22,10.22,0,0,1-.62-3.62,12.15,12.15,0,0,1,.57-3.79,8.62,8.62,0,0,1,1.68-3,7.71,7.71,0,0,1,2.71-2,8.89,8.89,0,0,1,3.66-.71,10.18,10.18,0,0,1,2.89.41,7.61,7.61,0,0,1,2.48,1.24,6.56,6.56,0,0,1,1.78,2.07,6.82,6.82,0,0,1,.78,2.94h-4.54A3.15,3.15,0,0,0,4786.8,4891.46Z" transform="translate(-4698.8 -4632.84)"/>
      <path d="M4804.83,4901.51a2.78,2.78,0,0,0,.8.92,3.38,3.38,0,0,0,1.13.53,5.06,5.06,0,0,0,1.32.17,4.71,4.71,0,0,0,1-.12,3.38,3.38,0,0,0,1-.37,2.25,2.25,0,0,0,.73-0.68,1.84,1.84,0,0,0,.29-1.07,1.79,1.79,0,0,0-1.39-1.63,27,27,0,0,0-3.87-1.09q-1-.24-2-0.56a6.64,6.64,0,0,1-1.71-.85,4,4,0,0,1-1.21-1.33,3.87,3.87,0,0,1-.46-2,5.46,5.46,0,0,1,.64-2.79,4.79,4.79,0,0,1,1.68-1.72,7.18,7.18,0,0,1,2.35-.88,13.94,13.94,0,0,1,2.68-.25,12.84,12.84,0,0,1,2.66.27,6.88,6.88,0,0,1,2.3.92,5.41,5.41,0,0,1,1.68,1.72,6,6,0,0,1,.8,2.7h-4.41a2.13,2.13,0,0,0-1-1.89,4.47,4.47,0,0,0-2.15-.49,7.62,7.62,0,0,0-.85.05,2.74,2.74,0,0,0-.83.22,1.73,1.73,0,0,0-.64.49,1.5,1.5,0,0,0,.2,1.92,3.46,3.46,0,0,0,1.19.66,14.29,14.29,0,0,0,1.68.46l1.93,0.44a18.84,18.84,0,0,1,2,.58,6.42,6.42,0,0,1,1.71.9,4.3,4.3,0,0,1,1.21,1.39,4.23,4.23,0,0,1,.46,2.06,5.79,5.79,0,0,1-.67,2.91,5.47,5.47,0,0,1-1.75,1.89,7,7,0,0,1-2.46,1,13.84,13.84,0,0,1-2.82.29,13.43,13.43,0,0,1-2.87-.31,7.39,7.39,0,0,1-2.5-1,5.7,5.7,0,0,1-1.79-1.89,6.08,6.08,0,0,1-.77-2.94h4.41A2.73,2.73,0,0,0,4804.83,4901.51Z" transform="translate(-4698.8 -4632.84)"/>
      <path d="M4824.92,4888.3v3.23h-3.39v8.7a2.44,2.44,0,0,0,.39,1.63,2.2,2.2,0,0,0,1.57.41c0.26,0,.51,0,0.75,0a6.15,6.15,0,0,0,.69-0.1v3.74a10.72,10.72,0,0,1-1.31.14q-0.72,0-1.4,0a13.06,13.06,0,0,1-2-.15,4.69,4.69,0,0,1-1.7-.59,3.1,3.1,0,0,1-1.16-1.26,4.64,4.64,0,0,1-.42-2.14v-10.37h-2.81v-3.23h2.81V4883h4.63v5.27h3.39Z" transform="translate(-4698.8 -4632.84)"/>
      <path d="M4828.74,4888.3v3.26h0.06a6,6,0,0,1,.88-1.51,5.88,5.88,0,0,1,1.27-1.19,6.14,6.14,0,0,1,1.53-.76,5.33,5.33,0,0,1,1.7-.27,3.5,3.5,0,0,1,1,.17v4.49c-0.22,0-.48-0.08-0.78-0.12a7.91,7.91,0,0,0-.88-0.05,4.76,4.76,0,0,0-2.15.44A3.76,3.76,0,0,0,4830,4894a4.91,4.91,0,0,0-.77,1.78,10.11,10.11,0,0,0-.23,2.21v7.92h-4.63V4888.3h4.41Z" transform="translate(-4698.8 -4632.84)"/>
      <path d="M4834.36,4885.58v-4H4839v4h-4.63Zm4.63,2.72v17.58h-4.63V4888.3H4839Z" transform="translate(-4698.8 -4632.84)"/>
      <path d="M4844.25,4888.3v2.24h0.06a5.19,5.19,0,0,1,2.15-2.07,6.39,6.39,0,0,1,2.87-.65,7.07,7.07,0,0,1,3.43.78,7.16,7.16,0,0,1,2.38,2.07,8.92,8.92,0,0,1,1.4,3,13.89,13.89,0,0,1,.46,3.59,12.55,12.55,0,0,1-.46,3.4,8.81,8.81,0,0,1-1.39,2.89,6.94,6.94,0,0,1-2.32,2,6.75,6.75,0,0,1-3.25.75,6.35,6.35,0,0,1-2.89-.66,5.53,5.53,0,0,1-2.17-2h-0.06V4912h-4.63V4888.3h4.41Zm6,13.94a3.78,3.78,0,0,0,1.24-1.24,5.24,5.24,0,0,0,.67-1.78,11,11,0,0,0,.2-2.07,10.08,10.08,0,0,0-.21-2.07,5.65,5.65,0,0,0-.7-1.82,4,4,0,0,0-1.26-1.29,3.41,3.41,0,0,0-1.88-.49,3.47,3.47,0,0,0-1.91.49,3.89,3.89,0,0,0-1.24,1.28,5.41,5.41,0,0,0-.67,1.8,11.13,11.13,0,0,0-.2,2.11,10.09,10.09,0,0,0,.21,2.07,5.45,5.45,0,0,0,.69,1.78,3.72,3.72,0,0,0,1.26,1.24A4,4,0,0,0,4850.27,4902.24Z" transform="translate(-4698.8 -4632.84)"/>
      <path d="M4861.94,4901.66a4.6,4.6,0,0,0,5.42.32,3,3,0,0,0,1.24-1.55h4.08a8.07,8.07,0,0,1-3,4.52,8.57,8.57,0,0,1-4.9,1.36,9.29,9.29,0,0,1-3.59-.66,7.44,7.44,0,0,1-2.71-1.89,8.55,8.55,0,0,1-1.71-2.92,11.09,11.09,0,0,1-.6-3.74,10.62,10.62,0,0,1,.62-3.67,8.68,8.68,0,0,1,1.76-2.94,8.3,8.3,0,0,1,2.73-2,8.44,8.44,0,0,1,3.51-.71,7.76,7.76,0,0,1,3.75.87,7.59,7.59,0,0,1,2.63,2.33,9.78,9.78,0,0,1,1.49,3.33,12.94,12.94,0,0,1,.33,3.91h-12.17A5,5,0,0,0,4861.94,4901.66Zm5.24-9.25a3.19,3.19,0,0,0-2.53-1,3.9,3.9,0,0,0-1.84.39,3.55,3.55,0,0,0-1.17,1,3.6,3.6,0,0,0-.62,1.22,5.78,5.78,0,0,0-.21,1.16h7.54A5.7,5.7,0,0,0,4867.17,4892.42Z" transform="translate(-4698.8 -4632.84)"/>
      <path d="M4884.88,4903.64a4.85,4.85,0,0,1-2.14,2.06,6.87,6.87,0,0,1-3,.63,7,7,0,0,1-3.33-.76,6.76,6.76,0,0,1-2.37-2.07,9.55,9.55,0,0,1-1.4-3,13.09,13.09,0,0,1-.47-3.54,12.29,12.29,0,0,1,.47-3.42,9,9,0,0,1,1.4-2.91,7.09,7.09,0,0,1,2.33-2,6.72,6.72,0,0,1,3.26-.76,6.43,6.43,0,0,1,2.86.66,5.05,5.05,0,0,1,2.14,2h0.07v-8.84h4.63v24.28h-4.41v-2.24h-0.07Zm-0.2-8.69a5.25,5.25,0,0,0-.67-1.77,3.84,3.84,0,0,0-1.22-1.24,3.48,3.48,0,0,0-1.89-.48,3.51,3.51,0,0,0-3.18,1.73,5.71,5.71,0,0,0-.69,1.79,10.07,10.07,0,0,0-.21,2.09,9.3,9.3,0,0,0,.23,2,5.71,5.71,0,0,0,.73,1.82,4.15,4.15,0,0,0,1.27,1.29,3.35,3.35,0,0,0,1.84.49A3.38,3.38,0,0,0,4884,4901a5.88,5.88,0,0,0,.65-1.82,11.12,11.12,0,0,0,.2-2.11A10.87,10.87,0,0,0,4884.69,4894.95Z" transform="translate(-4698.8 -4632.84)"/>
      <path d="M4895,4886.09v-4.49h19.09v4.49h-7v19.79H4902v-19.79h-7Z" transform="translate(-4698.8 -4632.84)"/>
      <path d="M4919,4894.52v4.15h-9.83v-4.15H4919Z" transform="translate(-4698.8 -4632.84)"/>
      <path d="M4923.61,4901.51a2.78,2.78,0,0,0,.8.92,3.37,3.37,0,0,0,1.13.53,5.06,5.06,0,0,0,1.32.17,4.73,4.73,0,0,0,1-.12,3.37,3.37,0,0,0,1-.37,2.24,2.24,0,0,0,.73-0.68,1.84,1.84,0,0,0,.29-1.07,1.79,1.79,0,0,0-1.39-1.63,27,27,0,0,0-3.87-1.09q-1-.24-2-0.56a6.64,6.64,0,0,1-1.71-.85,4.06,4.06,0,0,1-1.21-1.33,3.88,3.88,0,0,1-.46-2,5.47,5.47,0,0,1,.64-2.79,4.77,4.77,0,0,1,1.68-1.72,7.15,7.15,0,0,1,2.35-.88,13.93,13.93,0,0,1,2.68-.25,12.83,12.83,0,0,1,2.66.27,6.88,6.88,0,0,1,2.3.92,5.38,5.38,0,0,1,1.68,1.72,6,6,0,0,1,.8,2.7h-4.41a2.13,2.13,0,0,0-1-1.89,4.47,4.47,0,0,0-2.15-.49,7.64,7.64,0,0,0-.85.05,2.74,2.74,0,0,0-.83.22,1.73,1.73,0,0,0-.64.49,1.49,1.49,0,0,0,.2,1.92,3.48,3.48,0,0,0,1.19.66,14.39,14.39,0,0,0,1.68.46l1.93,0.44a19,19,0,0,1,2,.58,6.4,6.4,0,0,1,1.71.9,4.3,4.3,0,0,1,1.21,1.39,4.23,4.23,0,0,1,.46,2.06,5.8,5.8,0,0,1-.67,2.91,5.48,5.48,0,0,1-1.75,1.89,7,7,0,0,1-2.46,1,13.82,13.82,0,0,1-2.82.29,13.43,13.43,0,0,1-2.87-.31,7.4,7.4,0,0,1-2.5-1,5.72,5.72,0,0,1-1.8-1.89,6.11,6.11,0,0,1-.77-2.94h4.41A2.73,2.73,0,0,0,4923.61,4901.51Z" transform="translate(-4698.8 -4632.84)"/>
      <path d="M4939.06,4881.6v9.15h0.1a5.47,5.47,0,0,1,2.25-2.23,5.89,5.89,0,0,1,2.68-.7,7.59,7.59,0,0,1,3.05.53,4.55,4.55,0,0,1,1.88,1.46,5.77,5.77,0,0,1,1,2.28,14.69,14.69,0,0,1,.28,3v10.81h-4.63V4896a6.37,6.37,0,0,0-.65-3.25,2.49,2.49,0,0,0-2.32-1.07,3.15,3.15,0,0,0-2.74,1.17,6.73,6.73,0,0,0-.85,3.86v9.21h-4.63V4881.6h4.63Z" transform="translate(-4698.8 -4632.84)"/>
      <path d="M4951.11,4885.58v-4h4.63v4h-4.63Zm4.63,2.72v17.58h-4.63V4888.3h4.63Z" transform="translate(-4698.8 -4632.84)"/>
      <path d="M4961,4888.3v3.26h0.07a5.93,5.93,0,0,1,.88-1.51,5.84,5.84,0,0,1,1.27-1.19,6.12,6.12,0,0,1,1.53-.76,5.32,5.32,0,0,1,1.7-.27,3.48,3.48,0,0,1,1,.17v4.49c-0.22,0-.48-0.08-0.78-0.12a7.91,7.91,0,0,0-.88-0.05,4.76,4.76,0,0,0-2.15.44,3.76,3.76,0,0,0-1.42,1.21,4.93,4.93,0,0,0-.77,1.78,10.11,10.11,0,0,0-.23,2.21v7.92h-4.63V4888.3H4961Z" transform="translate(-4698.8 -4632.84)"/>
      <path d="M4975.75,4888.3v3.23h-3.39v8.7a2.44,2.44,0,0,0,.39,1.63,2.2,2.2,0,0,0,1.57.41c0.26,0,.51,0,0.75,0a6.15,6.15,0,0,0,.69-0.1v3.74a10.72,10.72,0,0,1-1.31.14q-0.72,0-1.4,0a13.06,13.06,0,0,1-2-.15,4.69,4.69,0,0,1-1.7-.59,3.1,3.1,0,0,1-1.16-1.26,4.64,4.64,0,0,1-.42-2.14v-10.37h-2.81v-3.23h2.81V4883h4.63v5.27h3.39Z" transform="translate(-4698.8 -4632.84)"/>
      <path d="M4980.48,4900.64v5.24h-5.12v-5.24h5.13Z" transform="translate(-4698.8 -4632.84)"/>
      <path d="M4711.76,4915.6a9.36,9.36,0,0,1,3.72.66,7,7,0,0,1,2.5,1.75,6.82,6.82,0,0,1,1.4,2.48,9.67,9.67,0,0,1,0,5.76,6.8,6.8,0,0,1-1.4,2.5,7,7,0,0,1-2.5,1.75,9.38,9.38,0,0,1-3.72.66h-5.39v8.7h-5.12V4915.6h10.51Zm-1.4,11.42a10.3,10.3,0,0,0,1.7-.14,3.85,3.85,0,0,0,1.44-.53,2.82,2.82,0,0,0,1-1.1,4.85,4.85,0,0,0,0-3.74,2.83,2.83,0,0,0-1-1.11,3.87,3.87,0,0,0-1.44-.53,10.3,10.3,0,0,0-1.7-.14h-4V4927h4Z" transform="translate(-4698.8 -4632.84)"/>
      <path d="M4724.13,4922.3v3.26h0.07a6,6,0,0,1,.88-1.51,5.83,5.83,0,0,1,1.27-1.19,6.11,6.11,0,0,1,1.53-.76,5.32,5.32,0,0,1,1.7-.27,3.49,3.49,0,0,1,1,.17v4.49q-0.33-.07-0.78-0.12a7.92,7.92,0,0,0-.88-0.05,4.76,4.76,0,0,0-2.15.44,3.76,3.76,0,0,0-1.42,1.21,4.93,4.93,0,0,0-.77,1.78,10.11,10.11,0,0,0-.23,2.21v7.92h-4.63V4922.3h4.41Z" transform="translate(-4698.8 -4632.84)"/>
      <path d="M4734,4935.66a4.59,4.59,0,0,0,5.42.32,3,3,0,0,0,1.24-1.55h4.08a8.07,8.07,0,0,1-3,4.52,8.57,8.57,0,0,1-4.9,1.36,9.28,9.28,0,0,1-3.59-.66,7.43,7.43,0,0,1-2.71-1.89,8.55,8.55,0,0,1-1.71-2.92,11.11,11.11,0,0,1-.6-3.74,10.62,10.62,0,0,1,.62-3.67,8.67,8.67,0,0,1,1.76-2.94,8.31,8.31,0,0,1,2.73-2,8.44,8.44,0,0,1,3.51-.71,7.76,7.76,0,0,1,3.75.87,7.59,7.59,0,0,1,2.63,2.33,9.76,9.76,0,0,1,1.49,3.33,12.94,12.94,0,0,1,.33,3.91h-12.18A5,5,0,0,0,4734,4935.66Zm5.24-9.25a3.19,3.19,0,0,0-2.53-1,3.89,3.89,0,0,0-1.84.39,3.55,3.55,0,0,0-1.18,1,3.61,3.61,0,0,0-.62,1.22,5.72,5.72,0,0,0-.21,1.16h7.54A5.7,5.7,0,0,0,4739.23,4926.42Z" transform="translate(-4698.8 -4632.84)"/>
      <path d="M4754.75,4928.52v4.15h-9.83v-4.15h9.83Z" transform="translate(-4698.8 -4632.84)"/>
      <path d="M4770,4939.88l-3-11.8h-0.07l-2.87,11.8h-4.8l-5.35-17.58h4.9l3.1,11.93h0.06l2.81-11.93h4.5l2.87,11.9h0.07l3.1-11.9H4780l-5.32,17.58H4770Z" transform="translate(-4698.8 -4632.84)"/>
      <path d="M4779,4927.71a5.78,5.78,0,0,1,.82-2.82,5.66,5.66,0,0,1,1.83-1.8,7.78,7.78,0,0,1,2.5-1,13.68,13.68,0,0,1,2.79-.29,18.11,18.11,0,0,1,2.58.19,7.64,7.64,0,0,1,2.38.73,4.75,4.75,0,0,1,1.76,1.51,4.36,4.36,0,0,1,.69,2.57V4936a19.14,19.14,0,0,0,.13,2.28,4.23,4.23,0,0,0,.46,1.63h-4.7a7,7,0,0,1-.21-0.83,7.62,7.62,0,0,1-.11-0.87,6,6,0,0,1-2.61,1.67,10.13,10.13,0,0,1-3.07.48,8,8,0,0,1-2.25-.31,5.08,5.08,0,0,1-1.83-1,4.42,4.42,0,0,1-1.22-1.63,5.71,5.71,0,0,1-.44-2.35,5.3,5.3,0,0,1,.51-2.47,4.36,4.36,0,0,1,1.3-1.55,5.77,5.77,0,0,1,1.83-.87,19.17,19.17,0,0,1,2.07-.46c0.7-.11,1.38-0.2,2.06-0.27a12,12,0,0,0,1.79-.31,3.08,3.08,0,0,0,1.24-.6,1.33,1.33,0,0,0,.42-1.14,2.64,2.64,0,0,0-.25-1.24,1.84,1.84,0,0,0-.65-0.71,2.51,2.51,0,0,0-.95-0.34,7.46,7.46,0,0,0-1.16-.08,3.42,3.42,0,0,0-2.15.61,2.78,2.78,0,0,0-.91,2H4779Zm10.71,3.57a2,2,0,0,1-.73.42,7.1,7.1,0,0,1-.95.25q-0.51.1-1.06,0.17c-0.37,0-.74.1-1.11,0.17a8.18,8.18,0,0,0-1,.27,3,3,0,0,0-.88.46,2.16,2.16,0,0,0-.6.73,2.43,2.43,0,0,0-.23,1.12,2.35,2.35,0,0,0,.23,1.09,1.8,1.8,0,0,0,.62.7,2.57,2.57,0,0,0,.91.36,5.58,5.58,0,0,0,1.08.1,4,4,0,0,0,2.12-.48,3.13,3.13,0,0,0,1.11-1.14,3.74,3.74,0,0,0,.44-1.34,9.73,9.73,0,0,0,.08-1.09v-1.8Z" transform="translate(-4698.8 -4632.84)"/>
      <path d="M4799,4935.51a2.78,2.78,0,0,0,.8.92,3.37,3.37,0,0,0,1.13.53,5.05,5.05,0,0,0,1.32.17,4.72,4.72,0,0,0,1-.12,3.36,3.36,0,0,0,1-.37,2.23,2.23,0,0,0,.73-0.68,1.84,1.84,0,0,0,.29-1.07,1.79,1.79,0,0,0-1.39-1.63,27,27,0,0,0-3.87-1.09q-1-.24-2-0.56a6.62,6.62,0,0,1-1.71-.85,4,4,0,0,1-1.21-1.33,3.87,3.87,0,0,1-.46-2,5.47,5.47,0,0,1,.64-2.79A4.78,4.78,0,0,1,4797,4923a7.17,7.17,0,0,1,2.35-.88,14,14,0,0,1,2.68-.25,12.84,12.84,0,0,1,2.66.27,6.89,6.89,0,0,1,2.3.92,5.4,5.4,0,0,1,1.68,1.72,6,6,0,0,1,.8,2.7h-4.41a2.13,2.13,0,0,0-1-1.89,4.47,4.47,0,0,0-2.15-.49,7.65,7.65,0,0,0-.85.05,2.74,2.74,0,0,0-.83.22,1.74,1.74,0,0,0-.64.49,1.5,1.5,0,0,0,.2,1.92,3.47,3.47,0,0,0,1.19.66,14.37,14.37,0,0,0,1.68.46l1.93,0.44a19,19,0,0,1,2,.58,6.41,6.41,0,0,1,1.71.9,4.3,4.3,0,0,1,1.21,1.39,4.23,4.23,0,0,1,.46,2.06,5.79,5.79,0,0,1-.67,2.91,5.46,5.46,0,0,1-1.75,1.89,7,7,0,0,1-2.46,1,13.83,13.83,0,0,1-2.82.29,13.44,13.44,0,0,1-2.87-.31,7.39,7.39,0,0,1-2.5-1,5.7,5.7,0,0,1-1.8-1.89,6.09,6.09,0,0,1-.77-2.94h4.41A2.73,2.73,0,0,0,4799,4935.51Z" transform="translate(-4698.8 -4632.84)"/>
      <path d="M4814.48,4915.6v9.15h0.1a5.47,5.47,0,0,1,2.25-2.23,5.89,5.89,0,0,1,2.68-.7,7.59,7.59,0,0,1,3.05.53,4.56,4.56,0,0,1,1.88,1.46,5.77,5.77,0,0,1,1,2.28,14.76,14.76,0,0,1,.28,3v10.81H4821V4930a6.37,6.37,0,0,0-.65-3.25,2.49,2.49,0,0,0-2.32-1.07,3.15,3.15,0,0,0-2.74,1.17,6.73,6.73,0,0,0-.85,3.86v9.21h-4.63V4915.6h4.63Z" transform="translate(-4698.8 -4632.84)"/>
      <path d="M4831.35,4935.66a4.59,4.59,0,0,0,5.42.32,3,3,0,0,0,1.24-1.55h4.08a8.07,8.07,0,0,1-3,4.52,8.57,8.57,0,0,1-4.9,1.36,9.28,9.28,0,0,1-3.59-.66,7.43,7.43,0,0,1-2.71-1.89,8.55,8.55,0,0,1-1.71-2.92,11.11,11.11,0,0,1-.6-3.74,10.62,10.62,0,0,1,.62-3.67,8.67,8.67,0,0,1,1.76-2.94,8.31,8.31,0,0,1,2.73-2,8.44,8.44,0,0,1,3.51-.71,7.76,7.76,0,0,1,3.75.87,7.59,7.59,0,0,1,2.63,2.33,9.76,9.76,0,0,1,1.49,3.33,12.94,12.94,0,0,1,.33,3.91h-12.18A5,5,0,0,0,4831.35,4935.66Zm5.24-9.25a3.19,3.19,0,0,0-2.53-1,3.89,3.89,0,0,0-1.84.39,3.55,3.55,0,0,0-1.18,1,3.61,3.61,0,0,0-.62,1.22,5.72,5.72,0,0,0-.21,1.16h7.54A5.7,5.7,0,0,0,4836.59,4926.42Z" transform="translate(-4698.8 -4632.84)"/>
      <path d="M4854.3,4937.64a4.85,4.85,0,0,1-2.14,2.06,6.87,6.87,0,0,1-3,.63,7,7,0,0,1-3.33-.76,6.76,6.76,0,0,1-2.37-2.07,9.55,9.55,0,0,1-1.4-3,13.09,13.09,0,0,1-.47-3.54,12.29,12.29,0,0,1,.47-3.42,9,9,0,0,1,1.4-2.91,7.09,7.09,0,0,1,2.33-2,6.72,6.72,0,0,1,3.26-.76,6.43,6.43,0,0,1,2.86.66,5.05,5.05,0,0,1,2.14,2h0.07v-8.84h4.63v24.28h-4.41v-2.24h-0.07Zm-0.2-8.69a5.25,5.25,0,0,0-.67-1.77,3.84,3.84,0,0,0-1.22-1.24,3.48,3.48,0,0,0-1.89-.48,3.51,3.51,0,0,0-3.18,1.73,5.71,5.71,0,0,0-.69,1.79,10.07,10.07,0,0,0-.21,2.09,9.3,9.3,0,0,0,.23,2,5.71,5.71,0,0,0,.73,1.82,4.15,4.15,0,0,0,1.27,1.29,3.35,3.35,0,0,0,1.84.49,3.38,3.38,0,0,0,3.13-1.75,5.88,5.88,0,0,0,.65-1.82,11.12,11.12,0,0,0,.2-2.11A10.87,10.87,0,0,0,4854.1,4928.95Z" transform="translate(-4698.8 -4632.84)"/>
      <path d="M4864,4925.53v-3.23h2.77v-1.36a5.39,5.39,0,0,1,1.4-3.84,5.55,5.55,0,0,1,4.24-1.5q0.62,0,1.24.05l1.21,0.08v3.6a13.63,13.63,0,0,0-1.7-.1,1.74,1.74,0,0,0-1.36.46,2.33,2.33,0,0,0-.41,1.55v1.05h3.2v3.23h-3.2v14.35h-4.63v-14.35H4864Z" transform="translate(-4698.8 -4632.84)"/>
      <path d="M4873.88,4927.28a8.28,8.28,0,0,1,1.76-2.92,7.87,7.87,0,0,1,2.74-1.87,9.31,9.31,0,0,1,3.59-.66,9.43,9.43,0,0,1,3.61.66,7.84,7.84,0,0,1,2.76,1.87,8.3,8.3,0,0,1,1.76,2.92,11.23,11.23,0,0,1,.62,3.83,11.08,11.08,0,0,1-.62,3.81,8.32,8.32,0,0,1-1.76,2.91,7.65,7.65,0,0,1-2.76,1.85,9.65,9.65,0,0,1-3.61.65,9.53,9.53,0,0,1-3.59-.65,7.68,7.68,0,0,1-2.74-1.85,8.3,8.3,0,0,1-1.76-2.91,11,11,0,0,1-.62-3.81A11.19,11.19,0,0,1,4873.88,4927.28Zm4.21,5.88a5.63,5.63,0,0,0,.67,1.8,3.64,3.64,0,0,0,1.26,1.27,3.71,3.71,0,0,0,2,.48,3.8,3.8,0,0,0,2-.48,3.58,3.58,0,0,0,1.27-1.27,5.61,5.61,0,0,0,.67-1.8,10.67,10.67,0,0,0,.2-2.06,11,11,0,0,0-.2-2.07,5.41,5.41,0,0,0-.67-1.8A3.78,3.78,0,0,0,4884,4926a3.7,3.7,0,0,0-2-.49,3.61,3.61,0,0,0-2,.49,3.84,3.84,0,0,0-1.26,1.28,5.44,5.44,0,0,0-.67,1.8,11,11,0,0,0-.2,2.07A10.67,10.67,0,0,0,4878.09,4933.16Z" transform="translate(-4698.8 -4632.84)"/>
      <path d="M4895.33,4922.3v3.26h0.07a6,6,0,0,1,.88-1.51,5.88,5.88,0,0,1,1.27-1.19,6.15,6.15,0,0,1,1.53-.76,5.33,5.33,0,0,1,1.7-.27,3.49,3.49,0,0,1,1,.17v4.49q-0.33-.07-0.78-0.12a7.89,7.89,0,0,0-.88-0.05,4.77,4.77,0,0,0-2.15.44,3.76,3.76,0,0,0-1.42,1.21,4.91,4.91,0,0,0-.77,1.78,10.11,10.11,0,0,0-.23,2.21v7.92h-4.63V4922.3h4.41Z" transform="translate(-4698.8 -4632.84)"/>
      <path d="M4906.88,4927.71a5.78,5.78,0,0,1,.82-2.82,5.66,5.66,0,0,1,1.83-1.8,7.79,7.79,0,0,1,2.5-1,13.66,13.66,0,0,1,2.79-.29,18.12,18.12,0,0,1,2.58.19,7.65,7.65,0,0,1,2.38.73,4.76,4.76,0,0,1,1.76,1.51,4.36,4.36,0,0,1,.69,2.57V4936a18.93,18.93,0,0,0,.13,2.28,4.2,4.2,0,0,0,.46,1.63h-4.7a7,7,0,0,1-.21-0.83,7.62,7.62,0,0,1-.11-0.87,6,6,0,0,1-2.61,1.67,10.12,10.12,0,0,1-3.07.48,8,8,0,0,1-2.25-.31,5.09,5.09,0,0,1-1.83-1,4.41,4.41,0,0,1-1.22-1.63,5.7,5.7,0,0,1-.44-2.35,5.3,5.3,0,0,1,.51-2.47,4.37,4.37,0,0,1,1.31-1.55,5.77,5.77,0,0,1,1.83-.87,19.07,19.07,0,0,1,2.07-.46c0.7-.11,1.38-0.2,2.06-0.27a12,12,0,0,0,1.79-.31,3.08,3.08,0,0,0,1.24-.6,1.33,1.33,0,0,0,.42-1.14,2.65,2.65,0,0,0-.25-1.24,1.84,1.84,0,0,0-.65-0.71,2.5,2.5,0,0,0-.95-0.34,7.46,7.46,0,0,0-1.16-.08,3.42,3.42,0,0,0-2.15.61,2.78,2.78,0,0,0-.91,2h-4.63Zm10.71,3.57a2.06,2.06,0,0,1-.73.42,7.07,7.07,0,0,1-.95.25q-0.51.1-1.06,0.17t-1.11.17a8.13,8.13,0,0,0-1,.27,3,3,0,0,0-.88.46,2.16,2.16,0,0,0-.6.73,2.43,2.43,0,0,0-.23,1.12,2.35,2.35,0,0,0,.23,1.09,1.8,1.8,0,0,0,.62.7,2.56,2.56,0,0,0,.91.36,5.57,5.57,0,0,0,1.08.1,4,4,0,0,0,2.12-.48,3.12,3.12,0,0,0,1.11-1.14,3.75,3.75,0,0,0,.44-1.34,9.54,9.54,0,0,0,.08-1.09v-1.8Z" transform="translate(-4698.8 -4632.84)"/>
      <path d="M4933.17,4935.51a2.78,2.78,0,0,0,.8.92,3.37,3.37,0,0,0,1.13.53,5.06,5.06,0,0,0,1.32.17,4.73,4.73,0,0,0,1-.12,3.37,3.37,0,0,0,1-.37,2.24,2.24,0,0,0,.73-0.68,1.84,1.84,0,0,0,.29-1.07,1.79,1.79,0,0,0-1.39-1.63,27,27,0,0,0-3.87-1.09q-1-.24-2-0.56a6.64,6.64,0,0,1-1.71-.85,4.06,4.06,0,0,1-1.21-1.33,3.88,3.88,0,0,1-.46-2,5.47,5.47,0,0,1,.64-2.79,4.77,4.77,0,0,1,1.68-1.72,7.15,7.15,0,0,1,2.35-.88,13.93,13.93,0,0,1,2.68-.25,12.83,12.83,0,0,1,2.66.27,6.88,6.88,0,0,1,2.3.92,5.38,5.38,0,0,1,1.68,1.72,6,6,0,0,1,.8,2.7h-4.41a2.13,2.13,0,0,0-1-1.89,4.47,4.47,0,0,0-2.15-.49,7.64,7.64,0,0,0-.85.05,2.74,2.74,0,0,0-.83.22,1.73,1.73,0,0,0-.64.49,1.49,1.49,0,0,0,.2,1.92,3.48,3.48,0,0,0,1.19.66,14.39,14.39,0,0,0,1.68.46l1.93,0.44a19,19,0,0,1,2,.58,6.4,6.4,0,0,1,1.71.9,4.3,4.3,0,0,1,1.21,1.39,4.23,4.23,0,0,1,.46,2.06,5.8,5.8,0,0,1-.67,2.91,5.48,5.48,0,0,1-1.75,1.89,7,7,0,0,1-2.46,1,13.82,13.82,0,0,1-2.82.29,13.43,13.43,0,0,1-2.87-.31,7.4,7.4,0,0,1-2.5-1,5.72,5.72,0,0,1-1.8-1.89,6.11,6.11,0,0,1-.77-2.94h4.41A2.73,2.73,0,0,0,4933.17,4935.51Z" transform="translate(-4698.8 -4632.84)"/>
      <path d="M4944.09,4927.28a8.3,8.3,0,0,1,1.76-2.92,7.87,7.87,0,0,1,2.74-1.87,9.3,9.3,0,0,1,3.59-.66,9.43,9.43,0,0,1,3.61.66,7.85,7.85,0,0,1,2.76,1.87,8.29,8.29,0,0,1,1.76,2.92,11.21,11.21,0,0,1,.62,3.83,11.06,11.06,0,0,1-.62,3.81,8.32,8.32,0,0,1-1.76,2.91,7.66,7.66,0,0,1-2.76,1.85,9.66,9.66,0,0,1-3.61.65,9.53,9.53,0,0,1-3.59-.65,7.68,7.68,0,0,1-2.74-1.85,8.32,8.32,0,0,1-1.76-2.91,11.06,11.06,0,0,1-.62-3.81A11.21,11.21,0,0,1,4944.09,4927.28Zm4.21,5.88a5.61,5.61,0,0,0,.67,1.8,3.63,3.63,0,0,0,1.26,1.27,3.72,3.72,0,0,0,2,.48,3.8,3.8,0,0,0,2-.48,3.59,3.59,0,0,0,1.27-1.27,5.63,5.63,0,0,0,.67-1.8,10.67,10.67,0,0,0,.2-2.06,11,11,0,0,0-.2-2.07,5.44,5.44,0,0,0-.67-1.8,3.78,3.78,0,0,0-1.27-1.28,3.7,3.7,0,0,0-2-.49,3.62,3.62,0,0,0-2,.49,3.83,3.83,0,0,0-1.26,1.28,5.41,5.41,0,0,0-.67,1.8,11,11,0,0,0-.2,2.07A10.67,10.67,0,0,0,4948.3,4933.16Z" transform="translate(-4698.8 -4632.84)"/>
      <path d="M4959.37,4925.53v-3.23h2.78v-1.36a5.39,5.39,0,0,1,1.4-3.84,5.55,5.55,0,0,1,4.24-1.5q0.62,0,1.24.05l1.21,0.08v3.6a13.6,13.6,0,0,0-1.7-.1,1.73,1.73,0,0,0-1.35.46,2.31,2.31,0,0,0-.41,1.55v1.05h3.2v3.23h-3.2v14.35h-4.63v-14.35h-2.78Z" transform="translate(-4698.8 -4632.84)"/>
      <path d="M4978.46,4922.3v3.23h-3.39v8.7a2.43,2.43,0,0,0,.39,1.63,2.2,2.2,0,0,0,1.57.41c0.26,0,.51,0,0.75,0a6,6,0,0,0,.69-0.1v3.74a10.64,10.64,0,0,1-1.3.14q-0.72,0-1.4,0a13,13,0,0,1-2-.15,4.68,4.68,0,0,1-1.7-.59,3.09,3.09,0,0,1-1.16-1.26,4.64,4.64,0,0,1-.42-2.14v-10.37h-2.81v-3.23h2.81V4917h4.63v5.27h3.39Z" transform="translate(-4698.8 -4632.84)"/>
      <path d="M4983.22,4934.64v5.24a5.41,5.41,0,0,1-.41,2.13,5.47,5.47,0,0,1-1.09,1.68,5.73,5.73,0,0,1-1.62,1.17,7,7,0,0,1-2,.63V4943a2.51,2.51,0,0,0,.93-0.41,3.41,3.41,0,0,0,.77-0.73,3.05,3.05,0,0,0,.62-2h-2.35v-5.24h5.12Z" transform="translate(-4698.8 -4632.84)"/>
      <path d="M4994.81,4922.3v2.45h0.1a5.41,5.41,0,0,1,2.29-2.23,6.39,6.39,0,0,1,2.87-.7,7.59,7.59,0,0,1,3.05.53,4.55,4.55,0,0,1,1.88,1.46,5.79,5.79,0,0,1,1,2.28,14.84,14.84,0,0,1,.28,3v10.81h-4.63V4930a6.38,6.38,0,0,0-.65-3.25,2.49,2.49,0,0,0-2.32-1.07,3.15,3.15,0,0,0-2.74,1.17,6.74,6.74,0,0,0-.85,3.86v9.21h-4.63V4922.3h4.41Z" transform="translate(-4698.8 -4632.84)"/>
      <path d="M5006.76,4927.71a5.76,5.76,0,0,1,.82-2.82,5.67,5.67,0,0,1,1.83-1.8,7.78,7.78,0,0,1,2.5-1,13.67,13.67,0,0,1,2.79-.29,18.13,18.13,0,0,1,2.58.19,7.65,7.65,0,0,1,2.38.73,4.75,4.75,0,0,1,1.76,1.51,4.36,4.36,0,0,1,.69,2.57V4936a19.14,19.14,0,0,0,.13,2.28,4.26,4.26,0,0,0,.46,1.63H5018a7,7,0,0,1-.21-0.83,7.41,7.41,0,0,1-.11-0.87,6,6,0,0,1-2.61,1.67,10.13,10.13,0,0,1-3.07.48,8,8,0,0,1-2.25-.31,5.07,5.07,0,0,1-1.83-1,4.41,4.41,0,0,1-1.22-1.63,5.73,5.73,0,0,1-.44-2.35,5.31,5.31,0,0,1,.51-2.47,4.36,4.36,0,0,1,1.31-1.55,5.77,5.77,0,0,1,1.83-.87,19.12,19.12,0,0,1,2.07-.46c0.7-.11,1.38-0.2,2.06-0.27a12,12,0,0,0,1.79-.31,3.08,3.08,0,0,0,1.24-.6,1.33,1.33,0,0,0,.42-1.14,2.65,2.65,0,0,0-.24-1.24,1.85,1.85,0,0,0-.65-0.71,2.51,2.51,0,0,0-.95-0.34,7.45,7.45,0,0,0-1.16-.08,3.42,3.42,0,0,0-2.15.61,2.77,2.77,0,0,0-.91,2h-4.63Zm10.71,3.57a2,2,0,0,1-.73.42,7.08,7.08,0,0,1-.95.25q-0.51.1-1.06,0.17c-0.37,0-.74.1-1.11,0.17a8.16,8.16,0,0,0-1,.27,3,3,0,0,0-.88.46,2.15,2.15,0,0,0-.6.73,2.43,2.43,0,0,0-.23,1.12,2.35,2.35,0,0,0,.23,1.09,1.8,1.8,0,0,0,.62.7,2.57,2.57,0,0,0,.91.36,5.57,5.57,0,0,0,1.08.1,4,4,0,0,0,2.12-.48,3.14,3.14,0,0,0,1.11-1.14,3.75,3.75,0,0,0,.44-1.34,9.73,9.73,0,0,0,.08-1.09v-1.8Z" transform="translate(-4698.8 -4632.84)"/>
      <path d="M5032.15,4922.3v3.23h-3.39v8.7a2.44,2.44,0,0,0,.39,1.63,2.2,2.2,0,0,0,1.57.41c0.26,0,.51,0,0.75,0a6.08,6.08,0,0,0,.69-0.1v3.74a10.68,10.68,0,0,1-1.31.14q-0.72,0-1.4,0a13.05,13.05,0,0,1-2-.15,4.69,4.69,0,0,1-1.7-.59,3.09,3.09,0,0,1-1.16-1.26,4.64,4.64,0,0,1-.42-2.14v-10.37h-2.81v-3.23h2.81V4917h4.63v5.27h3.39Z" transform="translate(-4698.8 -4632.84)"/>
      <path d="M5043,4939.88v-2.45h-0.1a5.31,5.31,0,0,1-2.29,2.21,6.52,6.52,0,0,1-2.87.68,7.82,7.82,0,0,1-3.05-.51,4.41,4.41,0,0,1-1.88-1.45,5.76,5.76,0,0,1-1-2.28,14.76,14.76,0,0,1-.28-3V4922.3h4.63v9.93a6.37,6.37,0,0,0,.65,3.25,2.49,2.49,0,0,0,2.32,1.07,3.15,3.15,0,0,0,2.74-1.17,6.73,6.73,0,0,0,.85-3.86v-9.21h4.63v17.58H5043Z" transform="translate(-4698.8 -4632.84)"/>
      <path d="M5052.52,4922.3v3.26h0.07a5.93,5.93,0,0,1,.88-1.51,5.84,5.84,0,0,1,1.27-1.19,6.12,6.12,0,0,1,1.53-.76,5.32,5.32,0,0,1,1.7-.27,3.48,3.48,0,0,1,1,.17v4.49c-0.22,0-.48-0.08-0.78-0.12a7.91,7.91,0,0,0-.88-0.05,4.76,4.76,0,0,0-2.15.44,3.76,3.76,0,0,0-1.42,1.21,4.93,4.93,0,0,0-.77,1.78,10.11,10.11,0,0,0-.23,2.21v7.92h-4.63V4922.3h4.41Z" transform="translate(-4698.8 -4632.84)"/>
      <path d="M5057.81,4927.71a5.78,5.78,0,0,1,.82-2.82,5.66,5.66,0,0,1,1.83-1.8,7.79,7.79,0,0,1,2.5-1,13.66,13.66,0,0,1,2.79-.29,18.12,18.12,0,0,1,2.58.19,7.65,7.65,0,0,1,2.38.73,4.76,4.76,0,0,1,1.76,1.51,4.36,4.36,0,0,1,.69,2.57V4936a18.93,18.93,0,0,0,.13,2.28,4.2,4.2,0,0,0,.46,1.63H5069a7,7,0,0,1-.21-0.83,7.62,7.62,0,0,1-.11-0.87,6,6,0,0,1-2.61,1.67,10.12,10.12,0,0,1-3.07.48,8,8,0,0,1-2.25-.31,5.09,5.09,0,0,1-1.83-1,4.41,4.41,0,0,1-1.22-1.63,5.7,5.7,0,0,1-.44-2.35,5.3,5.3,0,0,1,.51-2.47,4.37,4.37,0,0,1,1.31-1.55,5.77,5.77,0,0,1,1.83-.87,19.07,19.07,0,0,1,2.07-.46c0.7-.11,1.38-0.2,2.06-0.27a12,12,0,0,0,1.79-.31,3.08,3.08,0,0,0,1.24-.6,1.33,1.33,0,0,0,.42-1.14,2.65,2.65,0,0,0-.25-1.24,1.84,1.84,0,0,0-.65-0.71,2.5,2.5,0,0,0-.95-0.34,7.46,7.46,0,0,0-1.16-.08,3.42,3.42,0,0,0-2.15.61,2.78,2.78,0,0,0-.91,2h-4.63Zm10.71,3.57a2.06,2.06,0,0,1-.73.42,7.07,7.07,0,0,1-.95.25q-0.51.1-1.06,0.17t-1.11.17a8.13,8.13,0,0,0-1,.27,3,3,0,0,0-.88.46,2.16,2.16,0,0,0-.6.73,2.43,2.43,0,0,0-.23,1.12,2.35,2.35,0,0,0,.23,1.09,1.8,1.8,0,0,0,.62.7,2.56,2.56,0,0,0,.91.36,5.57,5.57,0,0,0,1.08.1,4,4,0,0,0,2.12-.48,3.12,3.12,0,0,0,1.11-1.14,3.75,3.75,0,0,0,.44-1.34,9.54,9.54,0,0,0,.08-1.09v-1.8Z" transform="translate(-4698.8 -4632.84)"/>
      <path d="M5078.69,4915.6v24.28h-4.63V4915.6h4.63Z" transform="translate(-4698.8 -4632.84)"/>
      <path d="M4710,4956.3v3.23h-3.39v8.7a2.44,2.44,0,0,0,.39,1.63,2.2,2.2,0,0,0,1.57.41c0.26,0,.51,0,0.75,0a6.15,6.15,0,0,0,.69-0.1v3.74a10.72,10.72,0,0,1-1.31.14q-0.72,0-1.4,0a13.06,13.06,0,0,1-2-.15,4.69,4.69,0,0,1-1.7-.59,3.1,3.1,0,0,1-1.16-1.26,4.64,4.64,0,0,1-.42-2.14v-10.37h-2.81v-3.23H4702V4951h4.63v5.27H4710Z" transform="translate(-4698.8 -4632.84)"/>
      <path d="M4714.41,4969.66a4.59,4.59,0,0,0,5.42.32,3,3,0,0,0,1.24-1.55h4.08a8.07,8.07,0,0,1-3,4.52,8.57,8.57,0,0,1-4.9,1.36,9.28,9.28,0,0,1-3.59-.66,7.43,7.43,0,0,1-2.71-1.89,8.55,8.55,0,0,1-1.71-2.92,11.11,11.11,0,0,1-.6-3.74,10.62,10.62,0,0,1,.62-3.67,8.67,8.67,0,0,1,1.76-2.94,8.31,8.31,0,0,1,2.73-2,8.44,8.44,0,0,1,3.51-.71,7.76,7.76,0,0,1,3.75.87,7.59,7.59,0,0,1,2.63,2.33,9.76,9.76,0,0,1,1.49,3.33,12.94,12.94,0,0,1,.33,3.91h-12.18A5,5,0,0,0,4714.41,4969.66Zm5.24-9.25a3.19,3.19,0,0,0-2.53-1,3.89,3.89,0,0,0-1.84.39,3.55,3.55,0,0,0-1.18,1,3.61,3.61,0,0,0-.62,1.22,5.72,5.72,0,0,0-.21,1.16h7.54A5.7,5.7,0,0,0,4719.64,4960.42Z" transform="translate(-4698.8 -4632.84)"/>
      <path d="M4724.13,4956.3h5.29l3,4.59,2.94-4.59h5.13l-5.55,8.23,6.23,9.35h-5.29l-3.53-5.54-3.52,5.54h-5.19l6.07-9.25Z" transform="translate(-4698.8 -4632.84)"/>
      <path d="M4749.36,4956.3v3.23H4746v8.7a2.44,2.44,0,0,0,.39,1.63,2.2,2.2,0,0,0,1.57.41c0.26,0,.51,0,0.75,0a6.15,6.15,0,0,0,.69-0.1v3.74a10.72,10.72,0,0,1-1.31.14q-0.72,0-1.4,0a13.06,13.06,0,0,1-2-.15,4.69,4.69,0,0,1-1.7-.59,3.1,3.1,0,0,1-1.16-1.26,4.64,4.64,0,0,1-.42-2.14v-10.37h-2.81v-3.23h2.81V4951H4746v5.27h3.39Z" transform="translate(-4698.8 -4632.84)"/>
      <path d="M4760.2,4973.88v-2.45h-0.1a5.31,5.31,0,0,1-2.29,2.21,6.52,6.52,0,0,1-2.87.68,7.82,7.82,0,0,1-3.05-.51,4.41,4.41,0,0,1-1.88-1.45,5.76,5.76,0,0,1-1-2.28,14.69,14.69,0,0,1-.28-3V4956.3h4.63v9.93a6.37,6.37,0,0,0,.65,3.25,2.49,2.49,0,0,0,2.32,1.07,3.15,3.15,0,0,0,2.74-1.17,6.73,6.73,0,0,0,.85-3.86v-9.21h4.63v17.58h-4.41Z" transform="translate(-4698.8 -4632.84)"/>
      <path d="M4769.73,4956.3v3.26h0.07a6,6,0,0,1,.88-1.51,5.88,5.88,0,0,1,1.27-1.19,6.15,6.15,0,0,1,1.53-.76,5.33,5.33,0,0,1,1.7-.27,3.49,3.49,0,0,1,1,.17v4.49q-0.33-.07-0.78-0.12a7.89,7.89,0,0,0-.88-0.05,4.77,4.77,0,0,0-2.15.44A3.76,3.76,0,0,0,4771,4962a4.91,4.91,0,0,0-.77,1.78,10.11,10.11,0,0,0-.23,2.21v7.92h-4.63V4956.3h4.41Z" transform="translate(-4698.8 -4632.84)"/>
      <path d="M4779.59,4969.66a4.6,4.6,0,0,0,5.42.32,3,3,0,0,0,1.24-1.55h4.08a8.07,8.07,0,0,1-3,4.52,8.57,8.57,0,0,1-4.9,1.36,9.29,9.29,0,0,1-3.59-.66,7.44,7.44,0,0,1-2.71-1.89,8.55,8.55,0,0,1-1.71-2.92,11.09,11.09,0,0,1-.6-3.74,10.64,10.64,0,0,1,.62-3.67,8.7,8.7,0,0,1,1.76-2.94,8.31,8.31,0,0,1,2.73-2,8.44,8.44,0,0,1,3.51-.71,7.75,7.75,0,0,1,3.75.87,7.59,7.59,0,0,1,2.63,2.33,9.78,9.78,0,0,1,1.48,3.33,12.91,12.91,0,0,1,.33,3.91h-12.17A5,5,0,0,0,4779.59,4969.66Zm5.24-9.25a3.19,3.19,0,0,0-2.53-1,3.9,3.9,0,0,0-1.84.39,3.54,3.54,0,0,0-1.17,1,3.62,3.62,0,0,0-.62,1.22,5.77,5.77,0,0,0-.21,1.16H4786A5.7,5.7,0,0,0,4784.83,4960.42Z" transform="translate(-4698.8 -4632.84)"/>
      <path d="M4795.87,4968.64v5.24h-5.12v-5.24h5.12Z" transform="translate(-4698.8 -4632.84)"/>
      <path d="M4707.16,5007.88v-15.44h-5.74v-3.64a10.55,10.55,0,0,0,2.33-.19,5.93,5.93,0,0,0,2-.78,5.05,5.05,0,0,0,1.52-1.48,5.4,5.4,0,0,0,.82-2.28h3.69v23.8h-4.63Z" transform="translate(-4698.8 -4632.84)"/>
      <path d="M4715.7,4990a10.66,10.66,0,0,1,1.81-3.79,6.52,6.52,0,0,1,2.66-2,8.53,8.53,0,0,1,3.21-.61,8.62,8.62,0,0,1,3.25.61,6.64,6.64,0,0,1,2.68,2,10.49,10.49,0,0,1,1.83,3.79,21.74,21.74,0,0,1,.67,5.83,22.61,22.61,0,0,1-.67,6,10.51,10.51,0,0,1-1.83,3.83,6.63,6.63,0,0,1-2.68,2,8.6,8.6,0,0,1-3.25.61,8.51,8.51,0,0,1-3.21-.61,6.52,6.52,0,0,1-2.66-2,10.68,10.68,0,0,1-1.81-3.83,22.61,22.61,0,0,1-.67-6A21.75,21.75,0,0,1,4715.7,4990Zm4,8.3a13.72,13.72,0,0,0,.41,2.79,6.08,6.08,0,0,0,1.09,2.29,2.58,2.58,0,0,0,2.15,1,2.66,2.66,0,0,0,2.2-1,6,6,0,0,0,1.11-2.29,13.79,13.79,0,0,0,.41-2.79q0.06-1.45.07-2.47,0-.61,0-1.48a17.44,17.44,0,0,0-.46-3.6,5.69,5.69,0,0,0-.64-1.62A3.59,3.59,0,0,0,4725,4988a2.79,2.79,0,0,0-1.6-.44,2.72,2.72,0,0,0-1.58.44,3.5,3.5,0,0,0-1,1.16,6.36,6.36,0,0,0-.64,1.62,13,13,0,0,0-.33,1.82q-0.1.92-.11,1.79c0,0.58,0,1.07,0,1.48Q4719.66,4996.9,4719.73,4998.34Z" transform="translate(-4698.8 -4632.84)"/>
      <path d="M4731,4990a10.65,10.65,0,0,1,1.81-3.79,6.52,6.52,0,0,1,2.66-2,8.85,8.85,0,0,1,6.46,0,6.64,6.64,0,0,1,2.68,2,10.49,10.49,0,0,1,1.83,3.79,21.7,21.7,0,0,1,.67,5.83,22.57,22.57,0,0,1-.67,6,10.51,10.51,0,0,1-1.83,3.83,6.64,6.64,0,0,1-2.68,2,8.83,8.83,0,0,1-6.46,0,6.52,6.52,0,0,1-2.66-2,10.66,10.66,0,0,1-1.81-3.83,22.52,22.52,0,0,1-.67-6A21.66,21.66,0,0,1,4731,4990Zm4,8.3a13.72,13.72,0,0,0,.41,2.79,6.08,6.08,0,0,0,1.09,2.29,2.58,2.58,0,0,0,2.15,1,2.66,2.66,0,0,0,2.2-1,5.94,5.94,0,0,0,1.11-2.29,13.79,13.79,0,0,0,.41-2.79q0.07-1.45.07-2.47,0-.61,0-1.48a17,17,0,0,0-.13-1.79,17.38,17.38,0,0,0-.33-1.82,5.71,5.71,0,0,0-.64-1.62,3.58,3.58,0,0,0-1.08-1.16,2.79,2.79,0,0,0-1.6-.44,2.71,2.71,0,0,0-1.58.44,3.48,3.48,0,0,0-1,1.16,6.44,6.44,0,0,0-.64,1.62,13,13,0,0,0-.33,1.82q-0.1.92-.11,1.79t0,1.48Q4735,4996.9,4735.07,4998.34Z" transform="translate(-4698.8 -4632.84)"/>
      <path d="M4747.8,4987.72a6.22,6.22,0,0,1,1-2.14,4.85,4.85,0,0,1,1.73-1.44,5.44,5.44,0,0,1,2.48-.53,5.34,5.34,0,0,1,2.55.54,4.59,4.59,0,0,1,1.65,1.48,6,6,0,0,1,.9,2.19,13,13,0,0,1,.26,2.65,9.58,9.58,0,0,1-.33,2.57,5.73,5.73,0,0,1-1,2,4.54,4.54,0,0,1-1.71,1.33,6,6,0,0,1-2.48.48,5.81,5.81,0,0,1-2.53-.49,4.36,4.36,0,0,1-1.67-1.36,5.59,5.59,0,0,1-.91-2.07,11.61,11.61,0,0,1-.28-2.6A10.16,10.16,0,0,1,4747.8,4987.72Zm3,3.91a4.77,4.77,0,0,0,.23,1.28,2.4,2.4,0,0,0,.62,1,2,2,0,0,0,2.4,0,2.46,2.46,0,0,0,.65-1,4.75,4.75,0,0,0,.26-1.26c0-.44,0-0.84,0-1.21s0-.75,0-1.24a6.67,6.67,0,0,0-.24-1.41,3.06,3.06,0,0,0-.6-1.16,1.41,1.41,0,0,0-1.13-.48,1.65,1.65,0,0,0-1.22.44,2.87,2.87,0,0,0-.67,1.09,5.16,5.16,0,0,0-.28,1.39q0,0.75,0,1.33C4750.8,4990.77,4750.81,4991.17,4750.83,4991.63Zm18.77-8.3-13.45,25.26h-2.84l13.51-25.26h2.78Zm-5,15.74a5.89,5.89,0,0,1,1-2.07,4.84,4.84,0,0,1,1.73-1.39,5.61,5.61,0,0,1,2.48-.51,5.49,5.49,0,0,1,2.55.53,4.59,4.59,0,0,1,1.65,1.43,5.7,5.7,0,0,1,.9,2.13,12.48,12.48,0,0,1,.26,2.62,9.77,9.77,0,0,1-.33,2.58,6,6,0,0,1-1,2.07,4.53,4.53,0,0,1-1.71,1.38,5.78,5.78,0,0,1-2.48.49,5.65,5.65,0,0,1-2.53-.51,4.39,4.39,0,0,1-1.67-1.41,5.9,5.9,0,0,1-.91-2.12,11.79,11.79,0,0,1-.28-2.62A9.74,9.74,0,0,1,4764.64,4999.07Zm3,3.88a5.24,5.24,0,0,0,.23,1.34,2.64,2.64,0,0,0,.62,1.07,1.85,1.85,0,0,0,2.4,0,2.73,2.73,0,0,0,.65-1.07,5.3,5.3,0,0,0,.26-1.33q0-.7,0-1.24t0-1.21a5.78,5.78,0,0,0-.25-1.33,2.93,2.93,0,0,0-.6-1.09,1.43,1.43,0,0,0-1.13-.46,1.73,1.73,0,0,0-1.22.41,2.59,2.59,0,0,0-.67,1,4.71,4.71,0,0,0-.28,1.33c0,0.48,0,.91,0,1.29S4767.65,5002.47,4767.68,5002.95Z" transform="translate(-4698.8 -4632.84)"/>
      <path d="M4798.32,4990.08a5.31,5.31,0,0,0-1.14-1.34,5.25,5.25,0,0,0-1.55-.9,5.15,5.15,0,0,0-1.81-.32,5.78,5.78,0,0,0-2.94.7,5.63,5.63,0,0,0-2,1.87,8.37,8.37,0,0,0-1.09,2.67,13.82,13.82,0,0,0-.34,3.09,12.84,12.84,0,0,0,.34,3,8.2,8.2,0,0,0,1.09,2.6,5.68,5.68,0,0,0,2,1.85,5.78,5.78,0,0,0,2.94.7,4.65,4.65,0,0,0,3.67-1.5,7.07,7.07,0,0,0,1.62-3.94h5a12.79,12.79,0,0,1-1,4.11,9.85,9.85,0,0,1-2.15,3.13,9.11,9.11,0,0,1-3.13,2,11.08,11.08,0,0,1-4,.68,11.53,11.53,0,0,1-4.81-1,10.32,10.32,0,0,1-3.61-2.67,11.92,11.92,0,0,1-2.25-4,15.2,15.2,0,0,1-.78-4.95,15.74,15.74,0,0,1,.78-5,12.26,12.26,0,0,1,2.25-4.06A10.32,10.32,0,0,1,4789,4984a12,12,0,0,1,8.45-.41,9.74,9.74,0,0,1,3.07,1.68,9,9,0,0,1,2.24,2.74,10.07,10.07,0,0,1,1.11,3.74h-5A4.47,4.47,0,0,0,4798.32,4990.08Z" transform="translate(-4698.8 -4632.84)"/>
      <path d="M4804.36,4995.28a8.28,8.28,0,0,1,1.76-2.92,7.88,7.88,0,0,1,2.74-1.87,9.3,9.3,0,0,1,3.59-.66,9.44,9.44,0,0,1,3.61.66,7.86,7.86,0,0,1,2.76,1.87,8.28,8.28,0,0,1,1.76,2.92,11.19,11.19,0,0,1,.62,3.83,11,11,0,0,1-.62,3.81,8.3,8.3,0,0,1-1.76,2.91,7.67,7.67,0,0,1-2.76,1.85,9.67,9.67,0,0,1-3.61.65,9.52,9.52,0,0,1-3.59-.65,7.69,7.69,0,0,1-2.74-1.85,8.3,8.3,0,0,1-1.76-2.91,11.06,11.06,0,0,1-.62-3.81A11.21,11.21,0,0,1,4804.36,4995.28Zm4.21,5.88a5.61,5.61,0,0,0,.67,1.8,3.63,3.63,0,0,0,1.26,1.27,3.72,3.72,0,0,0,2,.48,3.8,3.8,0,0,0,2-.48,3.6,3.6,0,0,0,1.27-1.27,5.66,5.66,0,0,0,.67-1.8,10.75,10.75,0,0,0,.2-2.06,11,11,0,0,0-.2-2.07,5.46,5.46,0,0,0-.67-1.8,3.8,3.8,0,0,0-1.27-1.28,3.7,3.7,0,0,0-2-.49,3.62,3.62,0,0,0-2,.49,3.83,3.83,0,0,0-1.26,1.28,5.41,5.41,0,0,0-.67,1.8,11,11,0,0,0-.2,2.07A10.75,10.75,0,0,0,4808.57,5001.16Z" transform="translate(-4698.8 -4632.84)"/>
      <path d="M4830.67,4990.3v3.23h-3.39v8.7a2.44,2.44,0,0,0,.39,1.63,2.2,2.2,0,0,0,1.57.41c0.26,0,.51,0,0.75,0a6.08,6.08,0,0,0,.69-0.1v3.74a10.68,10.68,0,0,1-1.31.14q-0.72,0-1.4,0a13,13,0,0,1-2-.15,4.69,4.69,0,0,1-1.7-.59,3.1,3.1,0,0,1-1.16-1.26,4.64,4.64,0,0,1-.42-2.14v-10.37h-2.81v-3.23h2.81V4985h4.63v5.27h3.39Z" transform="translate(-4698.8 -4632.84)"/>
      <path d="M4839.35,4990.3v3.23H4836v8.7a2.44,2.44,0,0,0,.39,1.63,2.2,2.2,0,0,0,1.57.41c0.26,0,.51,0,0.75,0a6.08,6.08,0,0,0,.69-0.1v3.74a10.68,10.68,0,0,1-1.31.14q-0.72,0-1.4,0a13,13,0,0,1-2-.15,4.69,4.69,0,0,1-1.7-.59,3.1,3.1,0,0,1-1.16-1.26,4.64,4.64,0,0,1-.42-2.14v-10.37h-2.81v-3.23h2.81V4985H4836v5.27h3.39Z" transform="translate(-4698.8 -4632.84)"/>
      <path d="M4838.86,4995.28a8.3,8.3,0,0,1,1.76-2.92,7.87,7.87,0,0,1,2.74-1.87,9.3,9.3,0,0,1,3.59-.66,9.43,9.43,0,0,1,3.61.66,7.85,7.85,0,0,1,2.76,1.87,8.29,8.29,0,0,1,1.76,2.92,11.21,11.21,0,0,1,.62,3.83,11.06,11.06,0,0,1-.62,3.81,8.32,8.32,0,0,1-1.76,2.91,7.66,7.66,0,0,1-2.76,1.85,9.66,9.66,0,0,1-3.61.65,9.53,9.53,0,0,1-3.59-.65,7.68,7.68,0,0,1-2.74-1.85,8.32,8.32,0,0,1-1.76-2.91,11.06,11.06,0,0,1-.62-3.81A11.21,11.21,0,0,1,4838.86,4995.28Zm4.21,5.88a5.61,5.61,0,0,0,.67,1.8,3.63,3.63,0,0,0,1.26,1.27,3.72,3.72,0,0,0,2,.48,3.8,3.8,0,0,0,2-.48,3.59,3.59,0,0,0,1.27-1.27,5.63,5.63,0,0,0,.67-1.8,10.67,10.67,0,0,0,.2-2.06,11,11,0,0,0-.2-2.07,5.44,5.44,0,0,0-.67-1.8,3.78,3.78,0,0,0-1.27-1.28,3.7,3.7,0,0,0-2-.49,3.62,3.62,0,0,0-2,.49,3.83,3.83,0,0,0-1.26,1.28,5.41,5.41,0,0,0-.67,1.8,11,11,0,0,0-.2,2.07A10.67,10.67,0,0,0,4843.07,5001.16Z" transform="translate(-4698.8 -4632.84)"/>
      <path d="M4860.31,4990.3v2.45h0.1a5.41,5.41,0,0,1,2.29-2.23,6.39,6.39,0,0,1,2.87-.7,7.59,7.59,0,0,1,3.05.53,4.55,4.55,0,0,1,1.88,1.46,5.79,5.79,0,0,1,1,2.28,14.84,14.84,0,0,1,.28,3v10.81h-4.63V4998a6.38,6.38,0,0,0-.65-3.25,2.49,2.49,0,0,0-2.32-1.07,3.15,3.15,0,0,0-2.74,1.17,6.74,6.74,0,0,0-.85,3.86v9.21h-4.63V4990.3h4.41Z" transform="translate(-4698.8 -4632.84)"/>
      <path d="M4877.77,5002.64v5.24h-5.12v-5.24h5.12Z" transform="translate(-4698.8 -4632.84)"/>
      <path d="M4716.2,5058.08a5.33,5.33,0,0,0-1.14-1.34,5.23,5.23,0,0,0-1.55-.9,5.15,5.15,0,0,0-1.81-.32,5.78,5.78,0,0,0-2.94.7,5.65,5.65,0,0,0-2,1.87,8.39,8.39,0,0,0-1.09,2.67,13.82,13.82,0,0,0-.34,3.09,12.84,12.84,0,0,0,.34,3,8.22,8.22,0,0,0,1.09,2.6,5.7,5.7,0,0,0,2,1.85,5.78,5.78,0,0,0,2.94.7,4.65,4.65,0,0,0,3.67-1.5,7.07,7.07,0,0,0,1.62-3.94h5a12.74,12.74,0,0,1-1,4.11,9.86,9.86,0,0,1-2.15,3.13,9.09,9.09,0,0,1-3.13,2,11.07,11.07,0,0,1-3.95.68,11.53,11.53,0,0,1-4.81-1,10.32,10.32,0,0,1-3.61-2.67,11.94,11.94,0,0,1-2.25-4,15.23,15.23,0,0,1-.78-4.95,15.76,15.76,0,0,1,.78-5,12.28,12.28,0,0,1,2.25-4.06,10.32,10.32,0,0,1,3.61-2.72,12,12,0,0,1,8.45-.41,9.74,9.74,0,0,1,3.07,1.68,9,9,0,0,1,2.24,2.74,10.07,10.07,0,0,1,1.11,3.74h-5A4.47,4.47,0,0,0,4716.2,5058.08Z" transform="translate(-4698.8 -4632.84)"/>
      <path d="M4726.78,5051.6v9.15h0.1a5.47,5.47,0,0,1,2.25-2.23,5.89,5.89,0,0,1,2.68-.7,7.59,7.59,0,0,1,3.05.53,4.55,4.55,0,0,1,1.88,1.46,5.79,5.79,0,0,1,1,2.28,14.84,14.84,0,0,1,.28,3v10.81h-4.63V5066a6.38,6.38,0,0,0-.65-3.25,2.49,2.49,0,0,0-2.32-1.07,3.15,3.15,0,0,0-2.74,1.17,6.74,6.74,0,0,0-.85,3.86v9.21h-4.63V5051.6h4.63Z" transform="translate(-4698.8 -4632.84)"/>
      <path d="M4738.79,5063.28a8.28,8.28,0,0,1,1.76-2.92,7.88,7.88,0,0,1,2.74-1.87,9.3,9.3,0,0,1,3.59-.66,9.44,9.44,0,0,1,3.61.66,7.86,7.86,0,0,1,2.76,1.87,8.28,8.28,0,0,1,1.76,2.92,11.19,11.19,0,0,1,.62,3.83,11,11,0,0,1-.62,3.81,8.3,8.3,0,0,1-1.76,2.91,7.67,7.67,0,0,1-2.76,1.85,9.67,9.67,0,0,1-3.61.65,9.52,9.52,0,0,1-3.59-.65,7.69,7.69,0,0,1-2.74-1.85,8.3,8.3,0,0,1-1.76-2.91,11.06,11.06,0,0,1-.62-3.81A11.21,11.21,0,0,1,4738.79,5063.28Zm4.21,5.88a5.61,5.61,0,0,0,.67,1.8,3.63,3.63,0,0,0,1.26,1.27,3.72,3.72,0,0,0,2,.48,3.8,3.8,0,0,0,2-.48,3.6,3.6,0,0,0,1.27-1.27,5.66,5.66,0,0,0,.67-1.8,10.75,10.75,0,0,0,.2-2.06,11,11,0,0,0-.2-2.07,5.46,5.46,0,0,0-.67-1.8,3.8,3.8,0,0,0-1.27-1.28,3.7,3.7,0,0,0-2-.49,3.62,3.62,0,0,0-2,.49,3.83,3.83,0,0,0-1.26,1.28,5.41,5.41,0,0,0-.67,1.8,11,11,0,0,0-.2,2.07A10.75,10.75,0,0,0,4743,5069.16Z" transform="translate(-4698.8 -4632.84)"/>
      <path d="M4755.92,5063.28a8.28,8.28,0,0,1,1.76-2.92,7.87,7.87,0,0,1,2.74-1.87,9.31,9.31,0,0,1,3.59-.66,9.43,9.43,0,0,1,3.61.66,7.84,7.84,0,0,1,2.76,1.87,8.3,8.3,0,0,1,1.76,2.92,11.23,11.23,0,0,1,.62,3.83,11.08,11.08,0,0,1-.62,3.81,8.32,8.32,0,0,1-1.76,2.91,7.65,7.65,0,0,1-2.76,1.85,9.65,9.65,0,0,1-3.61.65,9.53,9.53,0,0,1-3.59-.65,7.68,7.68,0,0,1-2.74-1.85,8.3,8.3,0,0,1-1.76-2.91,11,11,0,0,1-.62-3.81A11.19,11.19,0,0,1,4755.92,5063.28Zm4.21,5.88a5.63,5.63,0,0,0,.67,1.8,3.64,3.64,0,0,0,1.26,1.27,3.71,3.71,0,0,0,2,.48,3.8,3.8,0,0,0,2-.48,3.58,3.58,0,0,0,1.27-1.27,5.61,5.61,0,0,0,.67-1.8,10.67,10.67,0,0,0,.2-2.06,11,11,0,0,0-.2-2.07,5.41,5.41,0,0,0-.67-1.8A3.78,3.78,0,0,0,4766,5062a3.7,3.7,0,0,0-2-.49,3.61,3.61,0,0,0-2,.49,3.84,3.84,0,0,0-1.26,1.28,5.44,5.44,0,0,0-.67,1.8,11,11,0,0,0-.2,2.07A10.67,10.67,0,0,0,4760.13,5069.16Z" transform="translate(-4698.8 -4632.84)"/>
      <path d="M4776.86,5071.51a2.78,2.78,0,0,0,.8.92,3.37,3.37,0,0,0,1.13.53,5.06,5.06,0,0,0,1.32.17,4.73,4.73,0,0,0,1-.12,3.37,3.37,0,0,0,1-.37,2.24,2.24,0,0,0,.73-0.68,1.84,1.84,0,0,0,.29-1.07,1.79,1.79,0,0,0-1.39-1.63,27,27,0,0,0-3.87-1.09q-1-.24-2-0.56a6.64,6.64,0,0,1-1.71-.85,4.06,4.06,0,0,1-1.21-1.33,3.88,3.88,0,0,1-.46-2,5.47,5.47,0,0,1,.64-2.79,4.77,4.77,0,0,1,1.68-1.72,7.15,7.15,0,0,1,2.35-.88,13.93,13.93,0,0,1,2.68-.25,12.83,12.83,0,0,1,2.66.27,6.88,6.88,0,0,1,2.3.92,5.38,5.38,0,0,1,1.68,1.72,6,6,0,0,1,.8,2.7h-4.41a2.13,2.13,0,0,0-1-1.89,4.47,4.47,0,0,0-2.15-.49,7.64,7.64,0,0,0-.85.05,2.74,2.74,0,0,0-.83.22,1.73,1.73,0,0,0-.64.49,1.49,1.49,0,0,0,.2,1.92,3.48,3.48,0,0,0,1.19.66,14.39,14.39,0,0,0,1.68.46l1.93,0.44a19,19,0,0,1,2,.58,6.4,6.4,0,0,1,1.71.9,4.3,4.3,0,0,1,1.21,1.39,4.23,4.23,0,0,1,.46,2.06,5.8,5.8,0,0,1-.67,2.91,5.48,5.48,0,0,1-1.75,1.89,7,7,0,0,1-2.46,1,13.82,13.82,0,0,1-2.82.29,13.43,13.43,0,0,1-2.87-.31,7.4,7.4,0,0,1-2.5-1,5.72,5.72,0,0,1-1.8-1.89,6.11,6.11,0,0,1-.77-2.94h4.41A2.73,2.73,0,0,0,4776.86,5071.51Z" transform="translate(-4698.8 -4632.84)"/>
      <path d="M4792.64,5071.66a4.6,4.6,0,0,0,5.42.32,3,3,0,0,0,1.24-1.55h4.08a8.07,8.07,0,0,1-3,4.52,8.57,8.57,0,0,1-4.9,1.36,9.29,9.29,0,0,1-3.59-.66,7.44,7.44,0,0,1-2.71-1.89,8.55,8.55,0,0,1-1.71-2.92,11.09,11.09,0,0,1-.6-3.74,10.62,10.62,0,0,1,.62-3.67,8.68,8.68,0,0,1,1.76-2.94,8.3,8.3,0,0,1,2.73-2,8.44,8.44,0,0,1,3.51-.71,7.76,7.76,0,0,1,3.75.87,7.59,7.59,0,0,1,2.63,2.33,9.78,9.78,0,0,1,1.49,3.33,12.94,12.94,0,0,1,.33,3.91H4791.5A5,5,0,0,0,4792.64,5071.66Zm5.24-9.25a3.19,3.19,0,0,0-2.53-1,3.9,3.9,0,0,0-1.84.39,3.55,3.55,0,0,0-1.17,1,3.6,3.6,0,0,0-.62,1.22,5.78,5.78,0,0,0-.21,1.16H4799A5.7,5.7,0,0,0,4797.88,5062.42Z" transform="translate(-4698.8 -4632.84)"/>
      <path d="M4816.11,5081.12a6.51,6.51,0,0,1-3.72.92q-0.72,0-1.42-.05l-1.42-.12v-4l1.34,0.14a9.32,9.32,0,0,0,1.37,0,1.79,1.79,0,0,0,1.35-.75,2.48,2.48,0,0,0,.44-1.43,3,3,0,0,0-.2-1.09L4808,5058.3h4.93l3.82,12h0.06l3.69-12h4.8l-7,19.75A5.94,5.94,0,0,1,4816.11,5081.12Z" transform="translate(-4698.8 -4632.84)"/>
      <path d="M4824.11,5063.28a8.28,8.28,0,0,1,1.76-2.92,7.87,7.87,0,0,1,2.74-1.87,9.31,9.31,0,0,1,3.59-.66,9.43,9.43,0,0,1,3.61.66,7.84,7.84,0,0,1,2.76,1.87,8.3,8.3,0,0,1,1.76,2.92,11.23,11.23,0,0,1,.62,3.83,11.08,11.08,0,0,1-.62,3.81,8.32,8.32,0,0,1-1.76,2.91,7.65,7.65,0,0,1-2.76,1.85,9.65,9.65,0,0,1-3.61.65,9.53,9.53,0,0,1-3.59-.65,7.68,7.68,0,0,1-2.74-1.85,8.3,8.3,0,0,1-1.76-2.91,11,11,0,0,1-.62-3.81A11.19,11.19,0,0,1,4824.11,5063.28Zm4.21,5.88a5.63,5.63,0,0,0,.67,1.8,3.64,3.64,0,0,0,1.26,1.27,3.71,3.71,0,0,0,2,.48,3.8,3.8,0,0,0,2-.48,3.58,3.58,0,0,0,1.27-1.27,5.61,5.61,0,0,0,.67-1.8,10.67,10.67,0,0,0,.2-2.06,11,11,0,0,0-.2-2.07,5.41,5.41,0,0,0-.67-1.8,3.78,3.78,0,0,0-1.27-1.28,3.7,3.7,0,0,0-2-.49,3.61,3.61,0,0,0-2,.49,3.84,3.84,0,0,0-1.26,1.28,5.44,5.44,0,0,0-.67,1.8,11,11,0,0,0-.2,2.07A10.67,10.67,0,0,0,4828.32,5069.16Z" transform="translate(-4698.8 -4632.84)"/>
      <path d="M4852.57,5075.88v-2.45h-0.1a5.31,5.31,0,0,1-2.29,2.21,6.52,6.52,0,0,1-2.87.68,7.82,7.82,0,0,1-3.05-.51,4.41,4.41,0,0,1-1.88-1.45,5.76,5.76,0,0,1-1-2.28,14.76,14.76,0,0,1-.28-3V5058.3h4.63v9.93a6.37,6.37,0,0,0,.65,3.25,2.49,2.49,0,0,0,2.32,1.07,3.15,3.15,0,0,0,2.74-1.17,6.73,6.73,0,0,0,.85-3.86v-9.21H4857v17.58h-4.41Z" transform="translate(-4698.8 -4632.84)"/>
      <path d="M4862.1,5058.3v3.26h0.07a5.93,5.93,0,0,1,.88-1.51,5.84,5.84,0,0,1,1.27-1.19,6.12,6.12,0,0,1,1.53-.76,5.32,5.32,0,0,1,1.7-.27,3.48,3.48,0,0,1,1,.17v4.49c-0.22,0-.48-0.08-0.78-0.12a7.91,7.91,0,0,0-.88-0.05,4.76,4.76,0,0,0-2.15.44,3.76,3.76,0,0,0-1.42,1.21,4.93,4.93,0,0,0-.77,1.78,10.11,10.11,0,0,0-.23,2.21v7.92h-4.63V5058.3h4.41Z" transform="translate(-4698.8 -4632.84)"/>
      <path d="M4877.75,5071.51a2.78,2.78,0,0,0,.8.92,3.37,3.37,0,0,0,1.13.53,5.06,5.06,0,0,0,1.32.17,4.73,4.73,0,0,0,1-.12,3.37,3.37,0,0,0,1-.37,2.24,2.24,0,0,0,.73-0.68,1.84,1.84,0,0,0,.29-1.07,1.79,1.79,0,0,0-1.39-1.63,27,27,0,0,0-3.87-1.09q-1-.24-2-0.56a6.64,6.64,0,0,1-1.71-.85,4.06,4.06,0,0,1-1.21-1.33,3.88,3.88,0,0,1-.46-2,5.47,5.47,0,0,1,.64-2.79,4.77,4.77,0,0,1,1.68-1.72,7.15,7.15,0,0,1,2.35-.88,13.93,13.93,0,0,1,2.68-.25,12.83,12.83,0,0,1,2.66.27,6.88,6.88,0,0,1,2.3.92,5.38,5.38,0,0,1,1.68,1.72,6,6,0,0,1,.8,2.7h-4.41a2.13,2.13,0,0,0-1-1.89,4.47,4.47,0,0,0-2.15-.49,7.64,7.64,0,0,0-.85.05,2.74,2.74,0,0,0-.83.22,1.73,1.73,0,0,0-.64.49,1.49,1.49,0,0,0,.2,1.92,3.48,3.48,0,0,0,1.19.66,14.39,14.39,0,0,0,1.68.46l1.93,0.44a19,19,0,0,1,2,.58,6.4,6.4,0,0,1,1.71.9,4.3,4.3,0,0,1,1.21,1.39,4.23,4.23,0,0,1,.46,2.06,5.8,5.8,0,0,1-.67,2.91,5.48,5.48,0,0,1-1.75,1.89,7,7,0,0,1-2.46,1,13.82,13.82,0,0,1-2.82.29,13.43,13.43,0,0,1-2.87-.31,7.4,7.4,0,0,1-2.5-1,5.72,5.72,0,0,1-1.8-1.89,6.11,6.11,0,0,1-.77-2.94h4.41A2.73,2.73,0,0,0,4877.75,5071.51Z" transform="translate(-4698.8 -4632.84)"/>
      <path d="M4888.7,5055.58v-4h4.63v4h-4.63Zm4.63,2.72v17.58h-4.63V5058.3h4.63Z" transform="translate(-4698.8 -4632.84)"/>
      <path d="M4901.92,5061.94h-8.13v-3.64H4908v3.64l-8.78,10.3h9.4v3.64h-15.5v-3.64Z" transform="translate(-4698.8 -4632.84)"/>
      <path d="M4913.28,5071.66a4.6,4.6,0,0,0,5.42.32,3,3,0,0,0,1.24-1.55H4924a8.07,8.07,0,0,1-3,4.52,8.57,8.57,0,0,1-4.9,1.36,9.29,9.29,0,0,1-3.59-.66,7.44,7.44,0,0,1-2.71-1.89,8.55,8.55,0,0,1-1.71-2.92,11.09,11.09,0,0,1-.6-3.74,10.64,10.64,0,0,1,.62-3.67,8.7,8.7,0,0,1,1.76-2.94,8.31,8.31,0,0,1,2.73-2,8.44,8.44,0,0,1,3.51-.71,7.75,7.75,0,0,1,3.75.87,7.59,7.59,0,0,1,2.63,2.33,9.78,9.78,0,0,1,1.48,3.33,12.91,12.91,0,0,1,.33,3.91h-12.17A5,5,0,0,0,4913.28,5071.66Zm5.24-9.25a3.19,3.19,0,0,0-2.53-1,3.9,3.9,0,0,0-1.84.39,3.54,3.54,0,0,0-1.17,1,3.62,3.62,0,0,0-.62,1.22,5.77,5.77,0,0,0-.21,1.16h7.54A5.7,5.7,0,0,0,4918.52,5062.42Z" transform="translate(-4698.8 -4632.84)"/>
      <path d="M4924.47,5063.84v-5.24h5.12v5.24h-5.12Zm5.12,6.8v5.24h-5.12v-5.24h5.12Z" transform="translate(-4698.8 -4632.84)"/>
      <path d="M4699.52,5092.3h5.29l3,4.59,2.94-4.59h5.12l-5.55,8.23,6.23,9.35h-5.29l-3.53-5.54-3.52,5.54H4699l6.07-9.25Z" transform="translate(-4698.8 -4632.84)"/>
      <path d="M4719.38,5105.51a2.78,2.78,0,0,0,.8.92,3.37,3.37,0,0,0,1.13.53,5.06,5.06,0,0,0,1.32.17,4.73,4.73,0,0,0,1-.12,3.37,3.37,0,0,0,1-.37,2.24,2.24,0,0,0,.73-0.68,1.84,1.84,0,0,0,.29-1.07,1.79,1.79,0,0,0-1.39-1.63,27,27,0,0,0-3.87-1.09q-1-.24-2-0.56a6.64,6.64,0,0,1-1.71-.85,4.06,4.06,0,0,1-1.21-1.33,3.88,3.88,0,0,1-.46-2,5.47,5.47,0,0,1,.64-2.79,4.77,4.77,0,0,1,1.68-1.72,7.15,7.15,0,0,1,2.35-.88,13.93,13.93,0,0,1,2.68-.25,12.83,12.83,0,0,1,2.66.27,6.88,6.88,0,0,1,2.3.92,5.38,5.38,0,0,1,1.68,1.72,6,6,0,0,1,.8,2.7h-4.41a2.13,2.13,0,0,0-1-1.89,4.47,4.47,0,0,0-2.15-.49,7.64,7.64,0,0,0-.85.05,2.74,2.74,0,0,0-.83.22,1.73,1.73,0,0,0-.64.49,1.49,1.49,0,0,0,.2,1.92,3.48,3.48,0,0,0,1.19.66,14.39,14.39,0,0,0,1.68.46l1.93,0.44a19,19,0,0,1,2,.58,6.4,6.4,0,0,1,1.71.9,4.3,4.3,0,0,1,1.21,1.39,4.23,4.23,0,0,1,.46,2.06,5.8,5.8,0,0,1-.67,2.91,5.48,5.48,0,0,1-1.75,1.89,7,7,0,0,1-2.46,1,13.82,13.82,0,0,1-2.82.29,13.43,13.43,0,0,1-2.87-.31,7.4,7.4,0,0,1-2.5-1,5.72,5.72,0,0,1-1.8-1.89,6.11,6.11,0,0,1-.77-2.94h4.41A2.73,2.73,0,0,0,4719.38,5105.51Z" transform="translate(-4698.8 -4632.84)"/>
      <path d="M4735.52,5104.64v5.24h-5.12v-5.24h5.12Z" transform="translate(-4698.8 -4632.84)"/>
      <path d="M4752.9,5105.51a2.78,2.78,0,0,0,.8.92,3.37,3.37,0,0,0,1.13.53,5.07,5.07,0,0,0,1.32.17,4.72,4.72,0,0,0,1-.12,3.39,3.39,0,0,0,1-.37,2.26,2.26,0,0,0,.73-0.68,1.84,1.84,0,0,0,.29-1.07,1.79,1.79,0,0,0-1.39-1.63,27,27,0,0,0-3.87-1.09q-1-.24-2-0.56a6.66,6.66,0,0,1-1.71-.85,4.07,4.07,0,0,1-1.21-1.33,3.88,3.88,0,0,1-.46-2,5.46,5.46,0,0,1,.64-2.79,4.78,4.78,0,0,1,1.68-1.72,7.17,7.17,0,0,1,2.35-.88,13.92,13.92,0,0,1,2.68-.25,12.83,12.83,0,0,1,2.66.27,6.87,6.87,0,0,1,2.3.92,5.39,5.39,0,0,1,1.68,1.72,5.93,5.93,0,0,1,.8,2.7H4759a2.13,2.13,0,0,0-1-1.89,4.47,4.47,0,0,0-2.15-.49,7.61,7.61,0,0,0-.85.05,2.74,2.74,0,0,0-.83.22,1.73,1.73,0,0,0-.64.49,1.49,1.49,0,0,0,.2,1.92,3.47,3.47,0,0,0,1.19.66,14.31,14.31,0,0,0,1.68.46l1.93,0.44a18.84,18.84,0,0,1,2,.58,6.41,6.41,0,0,1,1.71.9,4.3,4.3,0,0,1,1.21,1.39,4.23,4.23,0,0,1,.46,2.06,5.8,5.8,0,0,1-.67,2.91,5.49,5.49,0,0,1-1.75,1.89,7,7,0,0,1-2.46,1,13.84,13.84,0,0,1-2.82.29,13.42,13.42,0,0,1-2.87-.31,7.4,7.4,0,0,1-2.5-1,5.72,5.72,0,0,1-1.79-1.89,6.09,6.09,0,0,1-.77-2.94h4.41A2.73,2.73,0,0,0,4752.9,5105.51Z" transform="translate(-4698.8 -4632.84)"/>
      <path d="M4769,5104.64v5.24h-5.12v-5.24H4769Z" transform="translate(-4698.8 -4632.84)"/>
      <path d="M4787,5092.3v2.38h0.06a6.72,6.72,0,0,1,2.2-2.11,5.79,5.79,0,0,1,3-.75,6.57,6.57,0,0,1,2.92.65,4.21,4.21,0,0,1,2,2.28,7.35,7.35,0,0,1,2-2,5.27,5.27,0,0,1,3.05-.88,8.7,8.7,0,0,1,2.48.34,4.94,4.94,0,0,1,2,1.09,5,5,0,0,1,1.27,2,8.23,8.23,0,0,1,.46,2.91v11.76h-4.63v-10q0-.88-0.07-1.67a3.63,3.63,0,0,0-.36-1.36,2.22,2.22,0,0,0-.87-0.92,3,3,0,0,0-1.55-.34,2.87,2.87,0,0,0-1.58.39,2.78,2.78,0,0,0-.95,1,4.2,4.2,0,0,0-.46,1.43,11.24,11.24,0,0,0-.12,1.62v9.79h-4.63V5100c0-.52,0-1,0-1.55a4.5,4.5,0,0,0-.28-1.41,2.15,2.15,0,0,0-.82-1,3,3,0,0,0-1.68-.39,3.36,3.36,0,0,0-.87.15,2.85,2.85,0,0,0-1,.58,3.38,3.38,0,0,0-.86,1.22,5.16,5.16,0,0,0-.36,2.09v10.2h-4.63V5092.3H4787Z" transform="translate(-4698.8 -4632.84)"/>
      <path d="M4814.61,5104.64v5.24h-5.12v-5.24h5.12Z" transform="translate(-4698.8 -4632.84)"/>
      <path d="M4832.86,5085.6v24.28h-4.63V5085.6h4.63Z" transform="translate(-4698.8 -4632.84)"/>
      <path d="M4839,5104.64v5.24h-5.12v-5.24H4839Z" transform="translate(-4698.8 -4632.84)"/>
      <path d="M4712.87,5153.6l8.71,24.28h-5.32l-1.76-5.41h-8.71l-1.83,5.41h-5.16l8.81-24.28h5.26Zm0.29,14.89-2.94-8.91h-0.06l-3,8.91h6Z" transform="translate(-4698.8 -4632.84)"/>
      <path d="M4732.29,5175.64a4.85,4.85,0,0,1-2.14,2.06,6.87,6.87,0,0,1-3,.63,7,7,0,0,1-3.33-.76,6.76,6.76,0,0,1-2.37-2.07,9.59,9.59,0,0,1-1.4-3,13.13,13.13,0,0,1-.47-3.54,12.33,12.33,0,0,1,.47-3.42,9,9,0,0,1,1.4-2.91,7.1,7.1,0,0,1,2.33-2,6.71,6.71,0,0,1,3.26-.76,6.43,6.43,0,0,1,2.86.66,5,5,0,0,1,2.14,2h0.07v-8.84h4.63v24.28h-4.41v-2.24h-0.07Zm-0.2-8.69a5.23,5.23,0,0,0-.67-1.77,3.83,3.83,0,0,0-1.22-1.24,3.48,3.48,0,0,0-1.89-.48,3.5,3.5,0,0,0-3.18,1.73,5.66,5.66,0,0,0-.69,1.79,10,10,0,0,0-.21,2.09,9.3,9.3,0,0,0,.23,2,5.71,5.71,0,0,0,.73,1.82,4.16,4.16,0,0,0,1.27,1.29,3.35,3.35,0,0,0,1.84.49,3.37,3.37,0,0,0,3.13-1.75,5.88,5.88,0,0,0,.65-1.82,11.12,11.12,0,0,0,.2-2.11A10.87,10.87,0,0,0,4732.1,5166.95Z" transform="translate(-4698.8 -4632.84)"/>
      <path d="M4749.43,5175.64a4.86,4.86,0,0,1-2.14,2.06,6.87,6.87,0,0,1-3,.63,7,7,0,0,1-3.33-.76,6.75,6.75,0,0,1-2.37-2.07,9.55,9.55,0,0,1-1.4-3,13.13,13.13,0,0,1-.47-3.54,12.33,12.33,0,0,1,.47-3.42,9,9,0,0,1,1.4-2.91,7.08,7.08,0,0,1,2.33-2,6.72,6.72,0,0,1,3.26-.76,6.42,6.42,0,0,1,2.86.66,5.06,5.06,0,0,1,2.14,2h0.06v-8.84h4.63v24.28h-4.41v-2.24h-0.07Zm-0.2-8.69a5.24,5.24,0,0,0-.67-1.77,3.85,3.85,0,0,0-1.22-1.24,3.47,3.47,0,0,0-1.89-.48,3.64,3.64,0,0,0-1.93.48,3.68,3.68,0,0,0-1.26,1.26,5.71,5.71,0,0,0-.69,1.79,10.07,10.07,0,0,0-.21,2.09,9.3,9.3,0,0,0,.23,2,5.69,5.69,0,0,0,.73,1.82,4.15,4.15,0,0,0,1.27,1.29,3.34,3.34,0,0,0,1.84.49,3.37,3.37,0,0,0,3.13-1.75,5.85,5.85,0,0,0,.65-1.82,11.12,11.12,0,0,0,.2-2.11A10.87,10.87,0,0,0,4749.23,5166.95Z" transform="translate(-4698.8 -4632.84)"/>
      <path d="M4770.12,5160.3v3.23h-3.39v8.7a2.44,2.44,0,0,0,.39,1.63,2.2,2.2,0,0,0,1.57.41c0.26,0,.51,0,0.75,0a6.15,6.15,0,0,0,.69-0.1v3.74a10.72,10.72,0,0,1-1.31.14q-0.72,0-1.4,0a13.06,13.06,0,0,1-2-.15,4.69,4.69,0,0,1-1.7-.59,3.1,3.1,0,0,1-1.16-1.26,4.64,4.64,0,0,1-.42-2.14v-10.37h-2.81v-3.23h2.81V5155h4.63v5.27h3.39Z" transform="translate(-4698.8 -4632.84)"/>
      <path d="M4769.63,5165.28a8.26,8.26,0,0,1,1.76-2.92,7.88,7.88,0,0,1,2.74-1.87,9.31,9.31,0,0,1,3.59-.66,9.43,9.43,0,0,1,3.61.66,7.85,7.85,0,0,1,2.76,1.87,8.28,8.28,0,0,1,1.76,2.92,11.21,11.21,0,0,1,.62,3.83,11.06,11.06,0,0,1-.62,3.81,8.3,8.3,0,0,1-1.76,2.91,7.66,7.66,0,0,1-2.76,1.85,9.66,9.66,0,0,1-3.61.65,9.53,9.53,0,0,1-3.59-.65,7.69,7.69,0,0,1-2.74-1.85,8.29,8.29,0,0,1-1.76-2.91,11,11,0,0,1-.62-3.81A11.19,11.19,0,0,1,4769.63,5165.28Zm4.21,5.88a5.63,5.63,0,0,0,.67,1.8,3.64,3.64,0,0,0,1.26,1.27,3.71,3.71,0,0,0,2,.48,3.8,3.8,0,0,0,2-.48A3.59,3.59,0,0,0,4781,5173a5.63,5.63,0,0,0,.67-1.8,10.75,10.75,0,0,0,.2-2.06,11,11,0,0,0-.2-2.07,5.44,5.44,0,0,0-.67-1.8,3.79,3.79,0,0,0-1.27-1.28,3.7,3.7,0,0,0-2-.49,3.62,3.62,0,0,0-2,.49,3.84,3.84,0,0,0-1.26,1.28,5.44,5.44,0,0,0-.67,1.8,11,11,0,0,0-.2,2.07A10.75,10.75,0,0,0,4773.84,5171.16Z" transform="translate(-4698.8 -4632.84)"/>
      <path d="M4801,5163.46a3.16,3.16,0,0,0-1.86.53,4.13,4.13,0,0,0-1.22,1.36,6,6,0,0,0-.67,1.84,10.34,10.34,0,0,0-.2,2,9.9,9.9,0,0,0,.2,1.94,6.12,6.12,0,0,0,.64,1.79,3.72,3.72,0,0,0,1.19,1.31,3.17,3.17,0,0,0,1.83.51,3.32,3.32,0,0,0,2.56-1,4.67,4.67,0,0,0,1.13-2.6h4.47a8.08,8.08,0,0,1-2.61,5.34,8.21,8.21,0,0,1-5.52,1.84,8.9,8.9,0,0,1-3.48-.66,7.67,7.67,0,0,1-2.69-1.85A8.48,8.48,0,0,1,4793,5173a10.2,10.2,0,0,1-.62-3.62,12.15,12.15,0,0,1,.57-3.79,8.62,8.62,0,0,1,1.68-3,7.7,7.7,0,0,1,2.71-2,8.88,8.88,0,0,1,3.66-.71,10.17,10.17,0,0,1,2.89.41,7.59,7.59,0,0,1,2.48,1.24,6.55,6.55,0,0,1,1.78,2.07,6.81,6.81,0,0,1,.78,2.94h-4.54A3.15,3.15,0,0,0,4801,5163.46Z" transform="translate(-4698.8 -4632.84)"/>
      <path d="M4808.67,5165.71a5.76,5.76,0,0,1,.82-2.82,5.67,5.67,0,0,1,1.83-1.8,7.79,7.79,0,0,1,2.5-1,13.66,13.66,0,0,1,2.79-.29,18.14,18.14,0,0,1,2.58.19,7.66,7.66,0,0,1,2.38.73,4.75,4.75,0,0,1,1.76,1.51,4.36,4.36,0,0,1,.69,2.57V5174a18.93,18.93,0,0,0,.13,2.28,4.23,4.23,0,0,0,.46,1.63h-4.7a7,7,0,0,1-.21-0.83,7.41,7.41,0,0,1-.12-0.87,6,6,0,0,1-2.61,1.67,10.13,10.13,0,0,1-3.07.48,8,8,0,0,1-2.25-.31,5.09,5.09,0,0,1-1.83-1,4.4,4.4,0,0,1-1.22-1.63,5.71,5.71,0,0,1-.44-2.35,5.31,5.31,0,0,1,.51-2.47,4.37,4.37,0,0,1,1.31-1.55,5.77,5.77,0,0,1,1.83-.87,19,19,0,0,1,2.07-.46c0.7-.11,1.38-0.2,2.06-0.27a12,12,0,0,0,1.79-.31,3.09,3.09,0,0,0,1.24-.6,1.33,1.33,0,0,0,.42-1.14,2.67,2.67,0,0,0-.24-1.24,1.85,1.85,0,0,0-.65-0.71,2.5,2.5,0,0,0-.95-0.34,7.46,7.46,0,0,0-1.16-.08,3.42,3.42,0,0,0-2.15.61,2.77,2.77,0,0,0-.91,2h-4.63Zm10.71,3.57a2,2,0,0,1-.73.42,7.06,7.06,0,0,1-.95.25q-0.51.1-1.06,0.17t-1.11.17a8.12,8.12,0,0,0-1,.27,3,3,0,0,0-.88.46,2.15,2.15,0,0,0-.6.73,2.43,2.43,0,0,0-.23,1.12,2.35,2.35,0,0,0,.23,1.09,1.79,1.79,0,0,0,.62.7,2.56,2.56,0,0,0,.91.36,5.57,5.57,0,0,0,1.08.1,4,4,0,0,0,2.12-.48,3.13,3.13,0,0,0,1.11-1.14,3.77,3.77,0,0,0,.44-1.34,9.54,9.54,0,0,0,.08-1.09v-1.8Z" transform="translate(-4698.8 -4632.84)"/>
      <path d="M4829.2,5160.3v3.26h0.07a5.93,5.93,0,0,1,.88-1.51,5.84,5.84,0,0,1,1.27-1.19,6.12,6.12,0,0,1,1.53-.76,5.32,5.32,0,0,1,1.7-.27,3.48,3.48,0,0,1,1,.17v4.49c-0.22,0-.48-0.08-0.78-0.12a7.91,7.91,0,0,0-.88-0.05,4.76,4.76,0,0,0-2.15.44,3.76,3.76,0,0,0-1.42,1.21,4.93,4.93,0,0,0-.77,1.78,10.11,10.11,0,0,0-.23,2.21v7.92h-4.63V5160.3h4.41Z" transform="translate(-4698.8 -4632.84)"/>
      <path d="M4844,5160.3v3.23h-3.39v8.7a2.44,2.44,0,0,0,.39,1.63,2.2,2.2,0,0,0,1.57.41c0.26,0,.51,0,0.75,0a6.15,6.15,0,0,0,.69-0.1v3.74a10.72,10.72,0,0,1-1.31.14q-0.72,0-1.4,0a13.06,13.06,0,0,1-2-.15,4.69,4.69,0,0,1-1.7-.59,3.1,3.1,0,0,1-1.16-1.26,4.64,4.64,0,0,1-.42-2.14v-10.37h-2.81v-3.23h2.81V5155h4.63v5.27H4844Z" transform="translate(-4698.8 -4632.84)"/>
      <path d="M4848.69,5172.64v5.24h-5.12v-5.24h5.13Z" transform="translate(-4698.8 -4632.84)"/>
    </g>
  </g>
</svg>
