<svg id="Layer_1" data-name="Layer 1" xmlns="http://www.w3.org/2000/svg" xmlns:xlink="http://www.w3.org/1999/xlink" viewBox="0 0 1425 109">
  <defs>
    <style>
      .cls-1 {
        fill: none;
      }

      .cls-2 {
        clip-path: url(#clip-path);
      }

      .cls-3 {
        clip-path: url(#clip-path-2);
      }

      .cls-4 {
        clip-path: url(#clip-path-3);
      }

      .cls-5 {
        fill: #fff;
      }
    </style>
    <clipPath id="clip-path">
      <rect class="cls-1" x="1633" y="278" width="606" height="1042"/>
    </clipPath>
    <clipPath id="clip-path-2">
      <rect class="cls-1" y="279" width="604" height="1042"/>
    </clipPath>
    <clipPath id="clip-path-3">
      <rect class="cls-1" x="841" y="279" width="598" height="1042"/>
    </clipPath>
    <image id="image" width="1035" height="1380" xlink:href="../../Documents/Adva/4th year/semester b/finale/stripes types/rsa0419_naturalblacklydiastripe.jpeg"/>
  </defs>
  <title>menu01</title>
  <g class="cls-2">
    <use transform="translate(1203.93 -59.69)" xlink:href="#image"/>
  </g>
  <g class="cls-3">
    <use transform="translate(-431.07 -58.72)" xlink:href="#image"/>
  </g>
  <g class="cls-4">
    <image width="1035" height="1380" transform="translate(840.71 -58.72)" xlink:href="../../Documents/Adva/4th year/semester b/finale/stripes types/rsa0419_navynaturalstripe.jpeg"/>
  </g>
  <rect class="cls-5" y="1.16" width="1425" height="24.33"/>
  <g>
    <path d="M4.17,19.17a3.82,3.82,0,0,0,1.13,1.38,4.78,4.78,0,0,0,1.65.78,7.49,7.49,0,0,0,2,.25,9.76,9.76,0,0,0,1.47-.12A5,5,0,0,0,11.84,21,3.23,3.23,0,0,0,13,20.07a2.41,2.41,0,0,0,.46-1.51,2.18,2.18,0,0,0-.6-1.6,4.77,4.77,0,0,0-1.58-1A15.35,15.35,0,0,0,9,15.22q-1.24-.31-2.51-0.68A21.55,21.55,0,0,1,4,13.71a8.62,8.62,0,0,1-2.22-1.28,6,6,0,0,1-1.58-2,6.14,6.14,0,0,1-.6-2.84A6.57,6.57,0,0,1,.33,4.39a7.13,7.13,0,0,1,2-2.29A8.6,8.6,0,0,1,5.15.74,11.51,11.51,0,0,1,8.28.3a14.27,14.27,0,0,1,3.51.43,8.6,8.6,0,0,1,3,1.38,6.89,6.89,0,0,1,2.07,2.43,7.72,7.72,0,0,1,.77,3.59h-5a4.45,4.45,0,0,0-.44-1.8,3,3,0,0,0-1-1.12A4.12,4.12,0,0,0,9.8,4.61a8.42,8.42,0,0,0-1.75-.17,5.79,5.79,0,0,0-1.24.14,3.25,3.25,0,0,0-1.13.48,2.89,2.89,0,0,0-.83.85A2.35,2.35,0,0,0,4.53,7.2a2.25,2.25,0,0,0,.26,1.16,2.34,2.34,0,0,0,1,.82,12.71,12.71,0,0,0,2.12.75l3.54,1q0.65,0.14,1.81.49a8.55,8.55,0,0,1,2.3,1.14,7.12,7.12,0,0,1,2,2.09,6.14,6.14,0,0,1,.83,3.35A7.69,7.69,0,0,1,17.78,21a6.69,6.69,0,0,1-1.84,2.46,8.74,8.74,0,0,1-3,1.62,13.82,13.82,0,0,1-4.19.58A14.18,14.18,0,0,1,5,25.2a9.22,9.22,0,0,1-3.2-1.55A7.55,7.55,0,0,1-.43,21a8.3,8.3,0,0,1-.78-3.88h5A4.6,4.6,0,0,0,4.17,19.17Z"/>
    <path d="M27.41,7.57V10.8H24v8.7a2.44,2.44,0,0,0,.39,1.63,2.2,2.2,0,0,0,1.57.41q0.39,0,.75,0a6.1,6.1,0,0,0,.69-0.1v3.74a10.65,10.65,0,0,1-1.31.14q-0.72,0-1.4,0a13,13,0,0,1-2-.15,4.68,4.68,0,0,1-1.7-.6,3.09,3.09,0,0,1-1.16-1.26,4.65,4.65,0,0,1-.42-2.14V10.8H16.57V7.57h2.81V2.3H24V7.57h3.39Z"/>
    <path d="M31.23,7.57v3.26h0.07a6,6,0,0,1,.88-1.51,5.87,5.87,0,0,1,1.27-1.19A6.13,6.13,0,0,1,35,7.37a5.33,5.33,0,0,1,1.7-.27,3.49,3.49,0,0,1,1,.17v4.49q-0.33-.07-0.78-0.12A8,8,0,0,0,36,11.58a4.77,4.77,0,0,0-2.15.44,3.77,3.77,0,0,0-1.42,1.21A4.93,4.93,0,0,0,31.68,15a10.09,10.09,0,0,0-.23,2.21v7.92H26.82V7.57h4.41Z"/>
    <path d="M36.84,4.85v-4h4.63v4H36.84Zm4.63,2.72V25.15H36.84V7.57h4.63Z"/>
    <path d="M46.73,7.57V9.82h0.07a5.18,5.18,0,0,1,2.15-2.07,6.39,6.39,0,0,1,2.87-.65,7.07,7.07,0,0,1,3.43.78A7.16,7.16,0,0,1,57.63,10,8.93,8.93,0,0,1,59,13a13.9,13.9,0,0,1,.46,3.59,12.56,12.56,0,0,1-.46,3.4,8.8,8.8,0,0,1-1.39,2.89,6.94,6.94,0,0,1-2.32,2,6.75,6.75,0,0,1-3.25.75,6.35,6.35,0,0,1-2.89-.66A5.53,5.53,0,0,1,47,23H47V31.3H42.32V7.57h4.41Zm6,13.94A3.79,3.79,0,0,0,54,20.27a5.24,5.24,0,0,0,.67-1.79,11,11,0,0,0,.2-2.07,10.17,10.17,0,0,0-.21-2.07,5.67,5.67,0,0,0-.7-1.82,4,4,0,0,0-1.26-1.29,3.4,3.4,0,0,0-1.88-.49,3.47,3.47,0,0,0-1.91.49,3.89,3.89,0,0,0-1.24,1.28A5.43,5.43,0,0,0,47,14.3a11.16,11.16,0,0,0-.2,2.11A10.13,10.13,0,0,0,47,18.49a5.48,5.48,0,0,0,.69,1.79,3.73,3.73,0,0,0,1.26,1.24A4,4,0,0,0,52.75,21.51Z"/>
    <path d="M64.42,20.93a4.6,4.6,0,0,0,5.42.32,3,3,0,0,0,1.24-1.55h4.08a8.07,8.07,0,0,1-3,4.52,8.57,8.57,0,0,1-4.9,1.36,9.29,9.29,0,0,1-3.59-.66A7.45,7.45,0,0,1,61,23a8.55,8.55,0,0,1-1.71-2.92,11.09,11.09,0,0,1-.6-3.74,10.63,10.63,0,0,1,.62-3.67A8.67,8.67,0,0,1,61,9.77a8.29,8.29,0,0,1,2.73-2,8.44,8.44,0,0,1,3.51-.71A7.76,7.76,0,0,1,71,8a7.59,7.59,0,0,1,2.63,2.33,9.77,9.77,0,0,1,1.49,3.33,12.92,12.92,0,0,1,.33,3.91H63.28A5,5,0,0,0,64.42,20.93Zm5.24-9.25a3.18,3.18,0,0,0-2.53-1,3.9,3.9,0,0,0-1.84.39,3.54,3.54,0,0,0-1.17,1,3.6,3.6,0,0,0-.62,1.22,5.72,5.72,0,0,0-.21,1.16h7.54A5.7,5.7,0,0,0,69.66,11.69Z"/>
    <path d="M79.29,20.78a2.78,2.78,0,0,0,.8.92,3.36,3.36,0,0,0,1.13.53,5.09,5.09,0,0,0,1.32.17,4.75,4.75,0,0,0,1-.12,3.41,3.41,0,0,0,1-.37,2.26,2.26,0,0,0,.73-0.68,1.84,1.84,0,0,0,.29-1.07,1.79,1.79,0,0,0-1.39-1.63,26.93,26.93,0,0,0-3.87-1.09q-1-.24-2-0.56A6.61,6.61,0,0,1,76.63,16a4.06,4.06,0,0,1-1.21-1.33,3.88,3.88,0,0,1-.46-2A5.47,5.47,0,0,1,75.6,10a4.79,4.79,0,0,1,1.68-1.72,7.18,7.18,0,0,1,2.35-.88,13.93,13.93,0,0,1,2.68-.25A12.87,12.87,0,0,1,85,7.37a6.89,6.89,0,0,1,2.3.92A5.4,5.4,0,0,1,88.95,10a5.94,5.94,0,0,1,.8,2.7H85.34a2.13,2.13,0,0,0-1-1.89,4.48,4.48,0,0,0-2.15-.49,7.68,7.68,0,0,0-.85.05,2.74,2.74,0,0,0-.83.22,1.72,1.72,0,0,0-.64.49,1.5,1.5,0,0,0,.2,1.92,3.48,3.48,0,0,0,1.19.66,14.4,14.4,0,0,0,1.68.46l1.93,0.44a19.14,19.14,0,0,1,2,.58,6.42,6.42,0,0,1,1.71.9,4.31,4.31,0,0,1,1.21,1.39,4.23,4.23,0,0,1,.46,2.06,5.8,5.8,0,0,1-.67,2.91,5.49,5.49,0,0,1-1.75,1.89,7,7,0,0,1-2.46,1,13.83,13.83,0,0,1-2.82.29,13.44,13.44,0,0,1-2.87-.31,7.4,7.4,0,0,1-2.5-1,5.72,5.72,0,0,1-1.8-1.89,6.09,6.09,0,0,1-.77-2.94H79A2.73,2.73,0,0,0,79.29,20.78Z"/>
    <path d="M95.43,19.91v5.24H90.3V19.91h5.12Z"/>
  </g>
  <g>
    <path d="M915.17,20.78a2.77,2.77,0,0,0,.8.92,3.35,3.35,0,0,0,1.13.53,5.08,5.08,0,0,0,1.32.17,4.74,4.74,0,0,0,1-.12,3.41,3.41,0,0,0,1-.37,2.26,2.26,0,0,0,.73-0.68,1.84,1.84,0,0,0,.29-1.07,1.79,1.79,0,0,0-1.39-1.63,26.91,26.91,0,0,0-3.87-1.09q-1-.24-2-0.56a6.61,6.61,0,0,1-1.71-.85,4.06,4.06,0,0,1-1.21-1.33,3.88,3.88,0,0,1-.46-2,5.46,5.46,0,0,1,.64-2.79,4.79,4.79,0,0,1,1.68-1.72,7.18,7.18,0,0,1,2.35-.88,13.93,13.93,0,0,1,2.68-.26,12.86,12.86,0,0,1,2.66.27,6.89,6.89,0,0,1,2.3.92A5.4,5.4,0,0,1,924.83,10a6,6,0,0,1,.8,2.7h-4.41a2.13,2.13,0,0,0-1-1.89,4.48,4.48,0,0,0-2.15-.49,7.66,7.66,0,0,0-.85.05,2.74,2.74,0,0,0-.83.22,1.72,1.72,0,0,0-.64.49,1.49,1.49,0,0,0,.2,1.92,3.49,3.49,0,0,0,1.19.66,14.4,14.4,0,0,0,1.68.46l1.93,0.44a19.05,19.05,0,0,1,2,.58,6.42,6.42,0,0,1,1.71.9,4.3,4.3,0,0,1,1.21,1.39,4.23,4.23,0,0,1,.46,2.06,5.8,5.8,0,0,1-.67,2.91,5.48,5.48,0,0,1-1.75,1.89,7,7,0,0,1-2.46,1,13.83,13.83,0,0,1-2.82.29,13.43,13.43,0,0,1-2.87-.31,7.4,7.4,0,0,1-2.5-1,5.72,5.72,0,0,1-1.8-1.89,6.1,6.1,0,0,1-.77-2.94h4.41A2.73,2.73,0,0,0,915.17,20.78Z"/>
    <path d="M930.62,0.87V10h0.1A5.47,5.47,0,0,1,933,7.79a5.89,5.89,0,0,1,2.68-.7,7.6,7.6,0,0,1,3.05.53,4.55,4.55,0,0,1,1.88,1.46,5.78,5.78,0,0,1,1,2.28,14.77,14.77,0,0,1,.28,3V25.15h-4.63V15.22a6.38,6.38,0,0,0-.65-3.25,2.49,2.49,0,0,0-2.32-1.07,3.15,3.15,0,0,0-2.74,1.17,6.74,6.74,0,0,0-.85,3.86v9.21H926V0.87h4.63Z"/>
    <path d="M942.63,12.55a8.28,8.28,0,0,1,1.76-2.92,7.88,7.88,0,0,1,2.74-1.87,9.29,9.29,0,0,1,3.59-.66,9.42,9.42,0,0,1,3.61.66,7.85,7.85,0,0,1,2.76,1.87,8.29,8.29,0,0,1,1.76,2.92,11.21,11.21,0,0,1,.62,3.83,11.06,11.06,0,0,1-.62,3.81,8.31,8.31,0,0,1-1.76,2.91,7.65,7.65,0,0,1-2.76,1.85,9.65,9.65,0,0,1-3.61.65,9.52,9.52,0,0,1-3.59-.65,7.68,7.68,0,0,1-2.74-1.85,8.3,8.3,0,0,1-1.76-2.91,11,11,0,0,1-.62-3.81A11.19,11.19,0,0,1,942.63,12.55Zm4.21,5.88a5.61,5.61,0,0,0,.67,1.8,3.63,3.63,0,0,0,1.26,1.28,3.71,3.71,0,0,0,2,.48,3.8,3.8,0,0,0,2-.48A3.59,3.59,0,0,0,954,20.24a5.62,5.62,0,0,0,.67-1.8,10.72,10.72,0,0,0,.2-2.06,11,11,0,0,0-.2-2.07,5.44,5.44,0,0,0-.67-1.8,3.79,3.79,0,0,0-1.27-1.27,3.7,3.7,0,0,0-2-.49,3.62,3.62,0,0,0-2,.49,3.83,3.83,0,0,0-1.26,1.27,5.43,5.43,0,0,0-.67,1.8,11,11,0,0,0-.2,2.07A10.72,10.72,0,0,0,946.85,18.44Z"/>
    <path d="M964.08,7.57V9.82h0.07a5.18,5.18,0,0,1,2.15-2.07,6.39,6.39,0,0,1,2.87-.65,7.07,7.07,0,0,1,3.43.78A7.16,7.16,0,0,1,975,10a8.92,8.92,0,0,1,1.4,3,13.89,13.89,0,0,1,.46,3.59,12.55,12.55,0,0,1-.46,3.4A8.8,8.8,0,0,1,975,22.84a6.94,6.94,0,0,1-2.32,2,6.75,6.75,0,0,1-3.25.75,6.35,6.35,0,0,1-2.89-.66,5.53,5.53,0,0,1-2.17-2h-0.07V31.3h-4.63V7.57h4.41Zm6,13.94a3.79,3.79,0,0,0,1.24-1.24,5.25,5.25,0,0,0,.67-1.78,11,11,0,0,0,.2-2.07,10.15,10.15,0,0,0-.21-2.07,5.65,5.65,0,0,0-.7-1.82A4,4,0,0,0,970,11.23a3.41,3.41,0,0,0-1.88-.49,3.47,3.47,0,0,0-1.91.49A3.89,3.89,0,0,0,965,12.5a5.42,5.42,0,0,0-.67,1.8,11.13,11.13,0,0,0-.2,2.11,10.14,10.14,0,0,0,.21,2.07,5.48,5.48,0,0,0,.69,1.78,3.73,3.73,0,0,0,1.26,1.24A4,4,0,0,0,970.1,21.51Z"/>
    <path d="M982.13,19.91v5.24H977V19.91h5.12Z"/>
    <path d="M1003.87,25.15l-3-11.8h-0.07l-2.87,11.8h-4.8L987.78,7.57h4.9l3.1,11.93h0.06l2.81-11.93h4.5l2.87,11.9h0.07l3.1-11.9H1014l-5.32,17.58h-4.77Z"/>
    <path d="M1012.91,13a5.77,5.77,0,0,1,.82-2.82,5.66,5.66,0,0,1,1.83-1.8,7.77,7.77,0,0,1,2.5-1,13.67,13.67,0,0,1,2.79-.29,18.22,18.22,0,0,1,2.58.19,7.67,7.67,0,0,1,2.38.73,4.74,4.74,0,0,1,1.76,1.51,4.36,4.36,0,0,1,.69,2.57v9.15a19,19,0,0,0,.13,2.28,4.23,4.23,0,0,0,.46,1.63h-4.7a7,7,0,0,1-.21-0.83,7.51,7.51,0,0,1-.11-0.87,6,6,0,0,1-2.61,1.67,10.1,10.1,0,0,1-3.07.48,8,8,0,0,1-2.25-.31,5.08,5.08,0,0,1-1.83-1,4.4,4.4,0,0,1-1.22-1.63,5.71,5.71,0,0,1-.44-2.35,5.3,5.3,0,0,1,.51-2.46,4.36,4.36,0,0,1,1.31-1.55,5.75,5.75,0,0,1,1.83-.87,19,19,0,0,1,2.07-.46q1-.17,2.06-0.27a11.91,11.91,0,0,0,1.79-.31,3.07,3.07,0,0,0,1.24-.59,1.33,1.33,0,0,0,.42-1.14,2.65,2.65,0,0,0-.24-1.24,1.84,1.84,0,0,0-.65-0.71,2.51,2.51,0,0,0-.95-0.34,7.5,7.5,0,0,0-1.16-.08,3.41,3.41,0,0,0-2.15.61,2.77,2.77,0,0,0-.91,2h-4.63Zm10.71,3.57a2.05,2.05,0,0,1-.73.42,7.26,7.26,0,0,1-.95.26q-0.51.1-1.06,0.17t-1.11.17a8.11,8.11,0,0,0-1,.27,3,3,0,0,0-.88.46,2.16,2.16,0,0,0-.6.73,2.43,2.43,0,0,0-.23,1.12,2.35,2.35,0,0,0,.23,1.09,1.8,1.8,0,0,0,.62.7,2.56,2.56,0,0,0,.91.36,5.6,5.6,0,0,0,1.08.1,4,4,0,0,0,2.12-.48,3.12,3.12,0,0,0,1.11-1.14,3.75,3.75,0,0,0,.44-1.34,9.65,9.65,0,0,0,.08-1.09v-1.8Z"/>
    <path d="M1038.3,7.57V10.8h-3.39v8.7a2.44,2.44,0,0,0,.39,1.63,2.2,2.2,0,0,0,1.57.41q0.39,0,.75,0a6.11,6.11,0,0,0,.69-0.1v3.74a10.64,10.64,0,0,1-1.31.14q-0.72,0-1.4,0a13,13,0,0,1-2-.15,4.68,4.68,0,0,1-1.7-.6,3.09,3.09,0,0,1-1.16-1.26,4.65,4.65,0,0,1-.42-2.14V10.8h-2.81V7.57h2.81V2.3h4.63V7.57h3.39Z"/>
    <path d="M1045.78,10.73a3.16,3.16,0,0,0-1.86.53,4.12,4.12,0,0,0-1.22,1.36,6,6,0,0,0-.67,1.84,10.38,10.38,0,0,0-.2,2,9.94,9.94,0,0,0,.2,1.94,6.15,6.15,0,0,0,.64,1.78,3.74,3.74,0,0,0,1.19,1.31,3.18,3.18,0,0,0,1.83.51,3.32,3.32,0,0,0,2.56-1,4.67,4.67,0,0,0,1.13-2.6h4.47a8.08,8.08,0,0,1-2.61,5.34,8.21,8.21,0,0,1-5.52,1.84,8.91,8.91,0,0,1-3.48-.66,7.68,7.68,0,0,1-2.69-1.85,8.48,8.48,0,0,1-1.73-2.84,10.21,10.21,0,0,1-.62-3.62,12.16,12.16,0,0,1,.57-3.79,8.61,8.61,0,0,1,1.68-3,7.7,7.7,0,0,1,2.71-2,8.88,8.88,0,0,1,3.66-.71,10.19,10.19,0,0,1,2.89.41,7.6,7.6,0,0,1,2.48,1.24,6.57,6.57,0,0,1,1.78,2.07,6.82,6.82,0,0,1,.78,2.94h-4.54A3.15,3.15,0,0,0,1045.78,10.73Z"/>
    <path d="M1058.28,0.87V10h0.1a5.47,5.47,0,0,1,2.25-2.23,5.89,5.89,0,0,1,2.68-.7,7.6,7.6,0,0,1,3.05.53,4.55,4.55,0,0,1,1.88,1.46,5.78,5.78,0,0,1,1,2.28,14.77,14.77,0,0,1,.28,3V25.15h-4.63V15.22a6.38,6.38,0,0,0-.65-3.25,2.49,2.49,0,0,0-2.32-1.07,3.15,3.15,0,0,0-2.74,1.17,6.74,6.74,0,0,0-.85,3.86v9.21h-4.63V0.87h4.63Z"/>
    <path d="M1075.51,19.91v5.24h-5.12V19.91h5.12Z"/>
    <path d="M1081,10.8V7.57h2.77V6.21a5.39,5.39,0,0,1,1.4-3.84,5.55,5.55,0,0,1,4.24-1.5q0.62,0,1.24.05L1091.83,1v3.6a13.69,13.69,0,0,0-1.7-.1,1.73,1.73,0,0,0-1.35.46,2.32,2.32,0,0,0-.41,1.55V7.57h3.2V10.8h-3.2V25.15h-4.63V10.8H1081Z"/>
    <path d="M1090.88,12.55a8.28,8.28,0,0,1,1.76-2.92,7.88,7.88,0,0,1,2.74-1.87A9.29,9.29,0,0,1,1099,7.1a9.42,9.42,0,0,1,3.61.66,7.85,7.85,0,0,1,2.76,1.87,8.29,8.29,0,0,1,1.76,2.92,11.21,11.21,0,0,1,.62,3.83,11.06,11.06,0,0,1-.62,3.81,8.31,8.31,0,0,1-1.76,2.91,7.65,7.65,0,0,1-2.76,1.85,9.65,9.65,0,0,1-3.61.65,9.52,9.52,0,0,1-3.59-.65,7.68,7.68,0,0,1-2.74-1.85,8.3,8.3,0,0,1-1.76-2.91,11,11,0,0,1-.62-3.81A11.19,11.19,0,0,1,1090.88,12.55Zm4.21,5.88a5.61,5.61,0,0,0,.67,1.8,3.63,3.63,0,0,0,1.26,1.28,3.71,3.71,0,0,0,2,.48,3.8,3.8,0,0,0,2-.48,3.59,3.59,0,0,0,1.27-1.28,5.62,5.62,0,0,0,.67-1.8,10.72,10.72,0,0,0,.2-2.06,11,11,0,0,0-.2-2.07,5.44,5.44,0,0,0-.67-1.8,3.79,3.79,0,0,0-1.27-1.27,3.7,3.7,0,0,0-2-.49,3.62,3.62,0,0,0-2,.49,3.83,3.83,0,0,0-1.26,1.27,5.43,5.43,0,0,0-.67,1.8,11,11,0,0,0-.2,2.07A10.72,10.72,0,0,0,1095.09,18.44Z"/>
    <path d="M1112.69,0.87V25.15h-4.63V0.87h4.63Z"/>
    <path d="M1118.3,0.87V25.15h-4.63V0.87h4.63Z"/>
    <path d="M1119.25,12.55A8.28,8.28,0,0,1,1121,9.63a7.88,7.88,0,0,1,2.74-1.87,9.29,9.29,0,0,1,3.59-.66,9.42,9.42,0,0,1,3.61.66,7.85,7.85,0,0,1,2.76,1.87,8.29,8.29,0,0,1,1.76,2.92,11.21,11.21,0,0,1,.62,3.83,11.06,11.06,0,0,1-.62,3.81,8.31,8.31,0,0,1-1.76,2.91,7.65,7.65,0,0,1-2.76,1.85,9.65,9.65,0,0,1-3.61.65,9.52,9.52,0,0,1-3.59-.65,7.68,7.68,0,0,1-2.74-1.85,8.3,8.3,0,0,1-1.76-2.91,11,11,0,0,1-.62-3.81A11.19,11.19,0,0,1,1119.25,12.55Zm4.21,5.88a5.61,5.61,0,0,0,.67,1.8,3.63,3.63,0,0,0,1.26,1.28,3.71,3.71,0,0,0,2,.48,3.8,3.8,0,0,0,2-.48,3.59,3.59,0,0,0,1.27-1.28,5.62,5.62,0,0,0,.67-1.8,10.72,10.72,0,0,0,.2-2.06,11,11,0,0,0-.2-2.07,5.44,5.44,0,0,0-.67-1.8,3.79,3.79,0,0,0-1.27-1.27,3.7,3.7,0,0,0-2-.49,3.62,3.62,0,0,0-2,.49,3.83,3.83,0,0,0-1.26,1.27,5.43,5.43,0,0,0-.67,1.8,11,11,0,0,0-.2,2.07A10.72,10.72,0,0,0,1123.46,18.44Z"/>
    <path d="M1150.81,25.15l-3-11.8h-0.07l-2.87,11.8h-4.8l-5.35-17.58h4.9l3.1,11.93h0.06l2.81-11.93h4.5l2.87,11.9H1153l3.1-11.9h4.77l-5.32,17.58h-4.77Z"/>
    <path d="M1163.57,19.91v5.24h-5.12V19.91h5.12Z"/>
    <path d="M1178.85,10.73a3.16,3.16,0,0,0-1.86.53,4.12,4.12,0,0,0-1.22,1.36,6,6,0,0,0-.67,1.84,10.38,10.38,0,0,0-.2,2,9.94,9.94,0,0,0,.2,1.94,6.15,6.15,0,0,0,.64,1.78,3.74,3.74,0,0,0,1.19,1.31,3.18,3.18,0,0,0,1.83.51,3.32,3.32,0,0,0,2.56-1,4.67,4.67,0,0,0,1.13-2.6h4.47a8.08,8.08,0,0,1-2.61,5.34,8.21,8.21,0,0,1-5.52,1.84,8.91,8.91,0,0,1-3.48-.66,7.68,7.68,0,0,1-2.69-1.85,8.48,8.48,0,0,1-1.73-2.84,10.21,10.21,0,0,1-.62-3.62,12.16,12.16,0,0,1,.57-3.79,8.61,8.61,0,0,1,1.68-3,7.7,7.7,0,0,1,2.71-2,8.88,8.88,0,0,1,3.66-.71,10.19,10.19,0,0,1,2.89.41,7.6,7.6,0,0,1,2.48,1.24,6.57,6.57,0,0,1,1.78,2.07,6.82,6.82,0,0,1,.78,2.94h-4.54A3.15,3.15,0,0,0,1178.85,10.73Z"/>
    <path d="M1186.81,12.55a8.28,8.28,0,0,1,1.76-2.92,7.88,7.88,0,0,1,2.74-1.87,9.29,9.29,0,0,1,3.59-.66,9.42,9.42,0,0,1,3.61.66,7.85,7.85,0,0,1,2.76,1.87,8.29,8.29,0,0,1,1.76,2.92,11.21,11.21,0,0,1,.62,3.83,11.06,11.06,0,0,1-.62,3.81,8.31,8.31,0,0,1-1.76,2.91,7.65,7.65,0,0,1-2.76,1.85,9.65,9.65,0,0,1-3.61.65,9.52,9.52,0,0,1-3.59-.65,7.68,7.68,0,0,1-2.74-1.85,8.3,8.3,0,0,1-1.76-2.91,11,11,0,0,1-.62-3.81A11.19,11.19,0,0,1,1186.81,12.55Zm4.21,5.88a5.61,5.61,0,0,0,.67,1.8,3.63,3.63,0,0,0,1.26,1.28,3.71,3.71,0,0,0,2,.48,3.8,3.8,0,0,0,2-.48,3.59,3.59,0,0,0,1.27-1.28,5.62,5.62,0,0,0,.67-1.8,10.72,10.72,0,0,0,.2-2.06,11,11,0,0,0-.2-2.07,5.44,5.44,0,0,0-.67-1.8,3.79,3.79,0,0,0-1.27-1.27,3.7,3.7,0,0,0-2-.49,3.62,3.62,0,0,0-2,.49,3.83,3.83,0,0,0-1.26,1.27,5.43,5.43,0,0,0-.67,1.8,11,11,0,0,0-.2,2.07A10.72,10.72,0,0,0,1191,18.44Z"/>
    <path d="M1208.26,7.57V10h0.1a5.41,5.41,0,0,1,2.28-2.23,6.39,6.39,0,0,1,2.87-.7,7.6,7.6,0,0,1,3.05.53,4.55,4.55,0,0,1,1.88,1.46,5.78,5.78,0,0,1,1,2.28,14.77,14.77,0,0,1,.28,3V25.15H1215V15.22a6.38,6.38,0,0,0-.65-3.25,2.49,2.49,0,0,0-2.32-1.07,3.15,3.15,0,0,0-2.74,1.17,6.74,6.74,0,0,0-.85,3.86v9.21h-4.63V7.57h4.41Z"/>
    <path d="M1229.67,7.57V10.8h-3.39v8.7a2.44,2.44,0,0,0,.39,1.63,2.2,2.2,0,0,0,1.57.41q0.39,0,.75,0a6.11,6.11,0,0,0,.69-0.1v3.74a10.64,10.64,0,0,1-1.31.14q-0.72,0-1.4,0a13,13,0,0,1-2-.15,4.68,4.68,0,0,1-1.7-.6,3.09,3.09,0,0,1-1.16-1.26,4.65,4.65,0,0,1-.42-2.14V10.8h-2.81V7.57h2.81V2.3h4.63V7.57h3.39Z"/>
    <path d="M1228.88,13a5.77,5.77,0,0,1,.82-2.82,5.66,5.66,0,0,1,1.83-1.8,7.77,7.77,0,0,1,2.5-1,13.67,13.67,0,0,1,2.79-.29,18.22,18.22,0,0,1,2.58.19,7.67,7.67,0,0,1,2.38.73,4.74,4.74,0,0,1,1.76,1.51,4.36,4.36,0,0,1,.69,2.57v9.15a19,19,0,0,0,.13,2.28,4.23,4.23,0,0,0,.46,1.63h-4.7a7,7,0,0,1-.21-0.83,7.51,7.51,0,0,1-.11-0.87,6,6,0,0,1-2.61,1.67,10.1,10.1,0,0,1-3.07.48,8,8,0,0,1-2.25-.31,5.08,5.08,0,0,1-1.83-1,4.4,4.4,0,0,1-1.22-1.63,5.71,5.71,0,0,1-.44-2.35,5.3,5.3,0,0,1,.51-2.46,4.36,4.36,0,0,1,1.31-1.55,5.75,5.75,0,0,1,1.83-.87,19,19,0,0,1,2.07-.46q1-.17,2.06-0.27a11.91,11.91,0,0,0,1.79-.31,3.07,3.07,0,0,0,1.24-.59,1.33,1.33,0,0,0,.42-1.14,2.65,2.65,0,0,0-.24-1.24,1.84,1.84,0,0,0-.65-0.71,2.51,2.51,0,0,0-.95-0.34,7.5,7.5,0,0,0-1.16-.08,3.41,3.41,0,0,0-2.15.61,2.77,2.77,0,0,0-.91,2h-4.63Zm10.71,3.57a2.05,2.05,0,0,1-.73.42,7.26,7.26,0,0,1-.95.26q-0.51.1-1.06,0.17t-1.11.17a8.11,8.11,0,0,0-1,.27,3,3,0,0,0-.88.46,2.16,2.16,0,0,0-.6.73,2.43,2.43,0,0,0-.23,1.12,2.35,2.35,0,0,0,.23,1.09,1.8,1.8,0,0,0,.62.7,2.56,2.56,0,0,0,.91.36,5.6,5.6,0,0,0,1.08.1,4,4,0,0,0,2.12-.48,3.12,3.12,0,0,0,1.11-1.14,3.75,3.75,0,0,0,.44-1.34,9.65,9.65,0,0,0,.08-1.09v-1.8Z"/>
    <path d="M1253.07,10.73a3.16,3.16,0,0,0-1.86.53,4.12,4.12,0,0,0-1.22,1.36,6,6,0,0,0-.67,1.84,10.38,10.38,0,0,0-.2,2,9.94,9.94,0,0,0,.2,1.94,6.15,6.15,0,0,0,.64,1.78,3.74,3.74,0,0,0,1.19,1.31A3.18,3.18,0,0,0,1253,22a3.32,3.32,0,0,0,2.56-1,4.67,4.67,0,0,0,1.13-2.6h4.47a8.08,8.08,0,0,1-2.61,5.34,8.21,8.21,0,0,1-5.52,1.84,8.91,8.91,0,0,1-3.48-.66,7.68,7.68,0,0,1-2.69-1.85,8.48,8.48,0,0,1-1.73-2.84,10.21,10.21,0,0,1-.62-3.62,12.16,12.16,0,0,1,.57-3.79,8.61,8.61,0,0,1,1.68-3,7.7,7.7,0,0,1,2.71-2,8.88,8.88,0,0,1,3.66-.71,10.19,10.19,0,0,1,2.89.41,7.6,7.6,0,0,1,2.48,1.24,6.57,6.57,0,0,1,1.78,2.07,6.82,6.82,0,0,1,.78,2.94h-4.54A3.15,3.15,0,0,0,1253.07,10.73Z"/>
    <path d="M1270.2,7.57V10.8h-3.39v8.7a2.44,2.44,0,0,0,.39,1.63,2.2,2.2,0,0,0,1.57.41q0.39,0,.75,0a6.11,6.11,0,0,0,.69-0.1v3.74a10.64,10.64,0,0,1-1.31.14q-0.72,0-1.4,0a13,13,0,0,1-2-.15,4.68,4.68,0,0,1-1.7-.6,3.09,3.09,0,0,1-1.16-1.26,4.65,4.65,0,0,1-.42-2.14V10.8h-2.81V7.57h2.81V2.3h4.63V7.57h3.39Z"/>
    <path d="M1274.94,19.91v5.24h-5.12V19.91h5.12Z"/>
    <path d="M1282,13a5.77,5.77,0,0,1,.82-2.82,5.66,5.66,0,0,1,1.83-1.8,7.77,7.77,0,0,1,2.5-1,13.67,13.67,0,0,1,2.79-.29,18.22,18.22,0,0,1,2.58.19,7.67,7.67,0,0,1,2.38.73,4.74,4.74,0,0,1,1.76,1.51,4.36,4.36,0,0,1,.69,2.57v9.15a19,19,0,0,0,.13,2.28,4.23,4.23,0,0,0,.46,1.63h-4.7a7,7,0,0,1-.21-0.83,7.51,7.51,0,0,1-.11-0.87,6,6,0,0,1-2.61,1.67,10.1,10.1,0,0,1-3.07.48,8,8,0,0,1-2.25-.31,5.08,5.08,0,0,1-1.83-1,4.4,4.4,0,0,1-1.22-1.63,5.71,5.71,0,0,1-.44-2.35,5.3,5.3,0,0,1,.51-2.46,4.36,4.36,0,0,1,1.31-1.55,5.75,5.75,0,0,1,1.83-.87,19,19,0,0,1,2.07-.46q1-.17,2.06-0.27a11.91,11.91,0,0,0,1.79-.31,3.07,3.07,0,0,0,1.24-.59,1.33,1.33,0,0,0,.42-1.14,2.65,2.65,0,0,0-.24-1.24,1.84,1.84,0,0,0-.65-0.71,2.51,2.51,0,0,0-.95-0.34,7.5,7.5,0,0,0-1.16-.08,3.41,3.41,0,0,0-2.15.61,2.77,2.77,0,0,0-.91,2H1282Zm10.71,3.57a2.05,2.05,0,0,1-.73.42,7.26,7.26,0,0,1-.95.26q-0.51.1-1.06,0.17t-1.11.17a8.11,8.11,0,0,0-1,.27,3,3,0,0,0-.88.46,2.16,2.16,0,0,0-.6.73,2.43,2.43,0,0,0-.23,1.12,2.35,2.35,0,0,0,.23,1.09,1.8,1.8,0,0,0,.62.7,2.56,2.56,0,0,0,.91.36,5.6,5.6,0,0,0,1.08.1,4,4,0,0,0,2.12-.48,3.12,3.12,0,0,0,1.11-1.14,3.75,3.75,0,0,0,.44-1.34,9.65,9.65,0,0,0,.08-1.09v-1.8Z"/>
    <path d="M1302.71,0.87V9.71h0.07a5,5,0,0,1,2.3-2,7.53,7.53,0,0,1,3-.63,6.21,6.21,0,0,1,2.51.54,6.46,6.46,0,0,1,2.24,1.67,8.61,8.61,0,0,1,1.62,2.87,12.51,12.51,0,0,1,.62,4.16,12.51,12.51,0,0,1-.62,4.17,8.6,8.6,0,0,1-1.62,2.87,6.45,6.45,0,0,1-2.24,1.67,6.21,6.21,0,0,1-2.51.54,8.59,8.59,0,0,1-3.33-.61,4.29,4.29,0,0,1-2.22-2.07h-0.07v2.24h-4.41V0.87h4.63Zm7.51,13.36a5.73,5.73,0,0,0-.72-1.8,3.84,3.84,0,0,0-1.22-1.24,3.65,3.65,0,0,0-3.54,0,3.78,3.78,0,0,0-1.24,1.24,5.72,5.72,0,0,0-.72,1.8,9.74,9.74,0,0,0-.23,2.14,9.58,9.58,0,0,0,.23,2.11,5.72,5.72,0,0,0,.72,1.8,3.78,3.78,0,0,0,1.24,1.24,3.65,3.65,0,0,0,3.54,0,3.83,3.83,0,0,0,1.22-1.24,5.73,5.73,0,0,0,.72-1.8,9.64,9.64,0,0,0,.23-2.11A9.8,9.8,0,0,0,1310.22,14.24Z"/>
    <path d="M1315.31,12.55a8.28,8.28,0,0,1,1.76-2.92,7.88,7.88,0,0,1,2.74-1.87,9.29,9.29,0,0,1,3.59-.66,9.42,9.42,0,0,1,3.61.66,7.85,7.85,0,0,1,2.76,1.87,8.29,8.29,0,0,1,1.76,2.92,11.21,11.21,0,0,1,.62,3.83,11.06,11.06,0,0,1-.62,3.81,8.31,8.31,0,0,1-1.76,2.91,7.65,7.65,0,0,1-2.76,1.85,9.65,9.65,0,0,1-3.61.65,9.52,9.52,0,0,1-3.59-.65,7.68,7.68,0,0,1-2.74-1.85,8.3,8.3,0,0,1-1.76-2.91,11,11,0,0,1-.62-3.81A11.19,11.19,0,0,1,1315.31,12.55Zm4.21,5.88a5.61,5.61,0,0,0,.67,1.8,3.63,3.63,0,0,0,1.26,1.28,3.71,3.71,0,0,0,2,.48,3.8,3.8,0,0,0,2-.48,3.59,3.59,0,0,0,1.27-1.28,5.62,5.62,0,0,0,.67-1.8,10.72,10.72,0,0,0,.2-2.06,11,11,0,0,0-.2-2.07,5.44,5.44,0,0,0-.67-1.8,3.79,3.79,0,0,0-1.27-1.27,3.7,3.7,0,0,0-2-.49,3.62,3.62,0,0,0-2,.49,3.83,3.83,0,0,0-1.26,1.27,5.43,5.43,0,0,0-.67,1.8,11,11,0,0,0-.2,2.07A10.72,10.72,0,0,0,1319.52,18.44Z"/>
    <path d="M1343.77,25.15V22.7h-0.1a5.31,5.31,0,0,1-2.29,2.21,6.52,6.52,0,0,1-2.87.68,7.81,7.81,0,0,1-3.05-.51,4.42,4.42,0,0,1-1.88-1.45,5.77,5.77,0,0,1-1-2.28,14.73,14.73,0,0,1-.28-3V7.57H1337V17.5a6.37,6.37,0,0,0,.65,3.25,2.49,2.49,0,0,0,2.32,1.07,3.15,3.15,0,0,0,2.74-1.17,6.74,6.74,0,0,0,.85-3.86V7.57h4.63V25.15h-4.41Z"/>
    <path d="M1358.17,7.57V10.8h-3.39v8.7a2.44,2.44,0,0,0,.39,1.63,2.2,2.2,0,0,0,1.57.41q0.39,0,.75,0a6.11,6.11,0,0,0,.69-0.1v3.74a10.64,10.64,0,0,1-1.31.14q-0.72,0-1.4,0a13,13,0,0,1-2-.15,4.68,4.68,0,0,1-1.7-.6,3.09,3.09,0,0,1-1.16-1.26,4.65,4.65,0,0,1-.42-2.14V10.8h-2.81V7.57h2.81V2.3h4.63V7.57h3.39Z"/>
    <path d="M1362.9,19.91v5.24h-5.12V19.91h5.12Z"/>
    <path d="M1378.18,10.73a3.16,3.16,0,0,0-1.86.53,4.12,4.12,0,0,0-1.22,1.36,6,6,0,0,0-.67,1.84,10.38,10.38,0,0,0-.2,2,9.94,9.94,0,0,0,.2,1.94,6.15,6.15,0,0,0,.64,1.78,3.74,3.74,0,0,0,1.19,1.31,3.18,3.18,0,0,0,1.83.51,3.32,3.32,0,0,0,2.56-1,4.67,4.67,0,0,0,1.13-2.6h4.47a8.08,8.08,0,0,1-2.61,5.34,8.21,8.21,0,0,1-5.52,1.84,8.91,8.91,0,0,1-3.48-.66,7.68,7.68,0,0,1-2.69-1.85,8.48,8.48,0,0,1-1.73-2.84,10.21,10.21,0,0,1-.62-3.62,12.16,12.16,0,0,1,.57-3.79,8.61,8.61,0,0,1,1.68-3,7.7,7.7,0,0,1,2.71-2,8.88,8.88,0,0,1,3.66-.71,10.19,10.19,0,0,1,2.89.41,7.6,7.6,0,0,1,2.48,1.24,6.57,6.57,0,0,1,1.78,2.07,6.82,6.82,0,0,1,.78,2.94h-4.54A3.15,3.15,0,0,0,1378.18,10.73Z"/>
    <path d="M1385.85,13a5.77,5.77,0,0,1,.82-2.82,5.66,5.66,0,0,1,1.83-1.8,7.77,7.77,0,0,1,2.5-1,13.67,13.67,0,0,1,2.79-.29,18.22,18.22,0,0,1,2.58.19,7.67,7.67,0,0,1,2.38.73,4.74,4.74,0,0,1,1.76,1.51,4.36,4.36,0,0,1,.69,2.57v9.15a19,19,0,0,0,.13,2.28,4.23,4.23,0,0,0,.46,1.63h-4.7a7,7,0,0,1-.21-0.83,7.51,7.51,0,0,1-.11-0.87,6,6,0,0,1-2.61,1.67,10.1,10.1,0,0,1-3.07.48,8,8,0,0,1-2.25-.31,5.08,5.08,0,0,1-1.83-1,4.4,4.4,0,0,1-1.22-1.63,5.71,5.71,0,0,1-.44-2.35,5.3,5.3,0,0,1,.51-2.46,4.36,4.36,0,0,1,1.31-1.55,5.75,5.75,0,0,1,1.83-.87A19,19,0,0,1,1391,15q1-.17,2.06-0.27a11.91,11.91,0,0,0,1.79-.31,3.07,3.07,0,0,0,1.24-.59,1.33,1.33,0,0,0,.42-1.14,2.65,2.65,0,0,0-.24-1.24,1.84,1.84,0,0,0-.65-0.71,2.51,2.51,0,0,0-.95-0.34,7.5,7.5,0,0,0-1.16-.08,3.41,3.41,0,0,0-2.15.61,2.77,2.77,0,0,0-.91,2h-4.63Zm10.71,3.57a2.05,2.05,0,0,1-.73.42,7.26,7.26,0,0,1-.95.26q-0.51.1-1.06,0.17t-1.11.17a8.11,8.11,0,0,0-1,.27,3,3,0,0,0-.88.46,2.16,2.16,0,0,0-.6.73,2.43,2.43,0,0,0-.23,1.12,2.35,2.35,0,0,0,.23,1.09,1.8,1.8,0,0,0,.62.7,2.56,2.56,0,0,0,.91.36,5.6,5.6,0,0,0,1.08.1,4,4,0,0,0,2.12-.48,3.12,3.12,0,0,0,1.11-1.14,3.75,3.75,0,0,0,.44-1.34,9.65,9.65,0,0,0,.08-1.09v-1.8Z"/>
    <path d="M1406.38,7.57v3.26h0.07a6,6,0,0,1,.88-1.51,5.86,5.86,0,0,1,1.27-1.19,6.12,6.12,0,0,1,1.53-.76,5.34,5.34,0,0,1,1.7-.27,3.49,3.49,0,0,1,1,.17v4.49q-0.33-.07-0.78-0.12a8,8,0,0,0-.88-0.05A4.77,4.77,0,0,0,1409,12a3.77,3.77,0,0,0-1.42,1.21,4.93,4.93,0,0,0-.77,1.78,10.1,10.1,0,0,0-.23,2.21v7.92H1402V7.57h4.41Z"/>
    <path d="M1421.13,7.57V10.8h-3.39v8.7a2.44,2.44,0,0,0,.39,1.63,2.2,2.2,0,0,0,1.57.41q0.39,0,.75,0a6.11,6.11,0,0,0,.69-0.1v3.74a10.64,10.64,0,0,1-1.31.14q-0.72,0-1.4,0a13,13,0,0,1-2-.15,4.68,4.68,0,0,1-1.7-.6,3.09,3.09,0,0,1-1.16-1.26,4.65,4.65,0,0,1-.42-2.14V10.8h-2.81V7.57h2.81V2.3h4.63V7.57h3.39Z"/>
    <path d="M1425.86,19.91v5.24h-5.12V19.91h5.12Z"/>
  </g>
</svg>
