<svg xmlns="http://www.w3.org/2000/svg" viewBox="0 0 1425 683.63"><defs><style>.a{fill:#fff;}</style></defs><title>thebookofstripes.com_04</title><rect width="1425" height="683.63"/><path class="a" d="M81,90V82.47h32V90H101.26v33.17H92.67V90H81Z"/><path class="a" d="M119.94,82.47V97.8h0.16a9.16,9.16,0,0,1,3.78-3.73,9.87,9.87,0,0,1,4.49-1.17,12.73,12.73,0,0,1,5.12.88,7.64,7.64,0,0,1,3.15,2.45,9.7,9.7,0,0,1,1.61,3.82,24.75,24.75,0,0,1,.46,5v18.13h-7.77V106.52a10.7,10.7,0,0,0-1.09-5.44,4.18,4.18,0,0,0-3.89-1.8,5.29,5.29,0,0,0-4.6,2q-1.42,2-1.42,6.47v15.45h-7.77V82.47h7.77Z"/><path class="a" d="M142.1,102.76A9.68,9.68,0,0,1,143.47,98a9.5,9.5,0,0,1,3.06-3,13,13,0,0,1,4.19-1.62,22.92,22.92,0,0,1,4.68-.48,30.54,30.54,0,0,1,4.32.31,12.86,12.86,0,0,1,4,1.23,8,8,0,0,1,3,2.54,7.31,7.31,0,0,1,1.15,4.3v15.33a32.14,32.14,0,0,0,.22,3.82,7.09,7.09,0,0,0,.77,2.74h-7.88a11.79,11.79,0,0,1-.36-1.4,12.21,12.21,0,0,1-.19-1.45,10.07,10.07,0,0,1-4.38,2.79,16.93,16.93,0,0,1-5.14.8,13.37,13.37,0,0,1-3.78-.51,8.51,8.51,0,0,1-3.06-1.6,7.37,7.37,0,0,1-2.05-2.74,9.57,9.57,0,0,1-.74-3.93,8.88,8.88,0,0,1,.85-4.13,7.29,7.29,0,0,1,2.19-2.59,9.64,9.64,0,0,1,3.06-1.45,31.78,31.78,0,0,1,3.47-.77q1.75-.28,3.45-0.46a20,20,0,0,0,3-.51,5.16,5.16,0,0,0,2.08-1,2.24,2.24,0,0,0,.71-1.91,4.45,4.45,0,0,0-.41-2.08,3.1,3.1,0,0,0-1.09-1.2,4.2,4.2,0,0,0-1.59-.57,12.55,12.55,0,0,0-1.94-.14,5.73,5.73,0,0,0-3.61,1,4.66,4.66,0,0,0-1.53,3.42H142.1Zm17.95,6a3.45,3.45,0,0,1-1.23.71,12.2,12.2,0,0,1-1.59.43q-0.85.17-1.78,0.29t-1.86.28a13.57,13.57,0,0,0-1.72.46,5,5,0,0,0-1.48.77,3.62,3.62,0,0,0-1,1.23,4.08,4.08,0,0,0-.38,1.88,3.93,3.93,0,0,0,.38,1.82,3,3,0,0,0,1,1.17,4.28,4.28,0,0,0,1.53.6,9.39,9.39,0,0,0,1.81.17,6.64,6.64,0,0,0,3.56-.8,5.24,5.24,0,0,0,1.86-1.91,6.27,6.27,0,0,0,.74-2.25,16.22,16.22,0,0,0,.14-1.82v-3Z"/><path class="a" d="M187.19,93.7v5.42H181.5V113.7a4.08,4.08,0,0,0,.66,2.74,3.69,3.69,0,0,0,2.63.68q0.66,0,1.26-.06a10.2,10.2,0,0,0,1.15-.17v6.27a17.84,17.84,0,0,1-2.19.23q-1.2.06-2.35,0.06a21.8,21.8,0,0,1-3.42-.26,7.84,7.84,0,0,1-2.84-1,5.19,5.19,0,0,1-1.94-2.11,7.8,7.8,0,0,1-.71-3.59V99.11H169V93.7h4.71V84.86h7.77V93.7h5.69Z"/><path class="a" d="M226.09,123.17l-5-19.78H221l-4.81,19.78h-8l-9-29.47h8.21l5.2,20h0.11l4.71-20h7.55l4.82,19.95h0.11L235,93.7h8l-8.92,29.47h-8Z"/><path class="a" d="M243.77,102.76A9.68,9.68,0,0,1,245.14,98a9.5,9.5,0,0,1,3.06-3,13,13,0,0,1,4.19-1.62,22.92,22.92,0,0,1,4.68-.48,30.54,30.54,0,0,1,4.32.31,12.86,12.86,0,0,1,4,1.23,8,8,0,0,1,3,2.54,7.31,7.31,0,0,1,1.15,4.3v15.33a32.14,32.14,0,0,0,.22,3.82,7.09,7.09,0,0,0,.77,2.74h-7.88a11.79,11.79,0,0,1-.36-1.4,12.21,12.21,0,0,1-.19-1.45,10.07,10.07,0,0,1-4.38,2.79,16.93,16.93,0,0,1-5.14.8,13.37,13.37,0,0,1-3.78-.51,8.51,8.51,0,0,1-3.06-1.6,7.37,7.37,0,0,1-2.05-2.74,9.57,9.57,0,0,1-.74-3.93,8.88,8.88,0,0,1,.85-4.13,7.29,7.29,0,0,1,2.19-2.59,9.64,9.64,0,0,1,3.06-1.45,31.78,31.78,0,0,1,3.47-.77q1.75-.28,3.45-0.46a20,20,0,0,0,3-.51,5.16,5.16,0,0,0,2.08-1,2.24,2.24,0,0,0,.71-1.91,4.45,4.45,0,0,0-.41-2.08,3.1,3.1,0,0,0-1.09-1.2,4.2,4.2,0,0,0-1.59-.57,12.55,12.55,0,0,0-1.94-.14,5.73,5.73,0,0,0-3.61,1,4.66,4.66,0,0,0-1.53,3.42h-7.77Zm17.95,6a3.45,3.45,0,0,1-1.23.71,12.2,12.2,0,0,1-1.59.43q-0.85.17-1.78,0.29t-1.86.28a13.57,13.57,0,0,0-1.72.46,5,5,0,0,0-1.48.77,3.62,3.62,0,0,0-1,1.23,4.08,4.08,0,0,0-.38,1.88,3.93,3.93,0,0,0,.38,1.82,3,3,0,0,0,1,1.17,4.28,4.28,0,0,0,1.53.6,9.39,9.39,0,0,0,1.81.17,6.64,6.64,0,0,0,3.56-.8,5.24,5.24,0,0,0,1.86-1.91,6.27,6.27,0,0,0,.74-2.25,16.22,16.22,0,0,0,.14-1.82v-3Z"/><path class="a" d="M279.86,115.84a4.65,4.65,0,0,0,1.34,1.54,5.62,5.62,0,0,0,1.89.88,8.53,8.53,0,0,0,2.22.29,8,8,0,0,0,1.72-.2,5.71,5.71,0,0,0,1.64-.63,3.78,3.78,0,0,0,1.23-1.14,3.09,3.09,0,0,0,.49-1.8q0-1.82-2.33-2.74a45.15,45.15,0,0,0-6.48-1.82q-1.7-.4-3.31-0.94a11.1,11.1,0,0,1-2.87-1.42,6.8,6.8,0,0,1-2-2.22,6.5,6.5,0,0,1-.77-3.28,9.17,9.17,0,0,1,1.07-4.67,8,8,0,0,1,2.82-2.88,12,12,0,0,1,3.94-1.48,23.35,23.35,0,0,1,4.49-.43,21.58,21.58,0,0,1,4.46.46,11.55,11.55,0,0,1,3.86,1.54,9.06,9.06,0,0,1,2.82,2.88,10,10,0,0,1,1.34,4.53H290a3.57,3.57,0,0,0-1.7-3.16,7.51,7.51,0,0,0-3.61-.83,12.87,12.87,0,0,0-1.42.09,4.59,4.59,0,0,0-1.4.37,2.89,2.89,0,0,0-1.07.83,2.51,2.51,0,0,0,.33,3.22,5.82,5.82,0,0,0,2,1.11,24.14,24.14,0,0,0,2.82.77q1.59,0.34,3.23.74a32,32,0,0,1,3.31,1,10.76,10.76,0,0,1,2.87,1.51,7.22,7.22,0,0,1,2,2.34,7.09,7.09,0,0,1,.77,3.45,9.72,9.72,0,0,1-1.12,4.87,9.19,9.19,0,0,1-2.93,3.16,11.71,11.71,0,0,1-4.13,1.68,23.2,23.2,0,0,1-4.73.48,22.54,22.54,0,0,1-4.82-.51,12.41,12.41,0,0,1-4.19-1.71,9.59,9.59,0,0,1-3-3.16,10.21,10.21,0,0,1-1.29-4.93h7.39A4.57,4.57,0,0,0,279.86,115.84Z"/><path class="a" d="M311.24,126.81a4.4,4.4,0,0,0,2.11-.48,2.21,2.21,0,0,0,.9-2.14V93.7H322v30.89a14.66,14.66,0,0,1-.46,3.93,6.17,6.17,0,0,1-1.59,2.76,6.89,6.89,0,0,1-3,1.65,18.3,18.3,0,0,1-4.87.54,12.18,12.18,0,0,1-2.46-.23v-6.67A4.79,4.79,0,0,0,311.24,126.81Zm3-37.68V82.47H322v6.67h-7.77Z"/><path class="a" d="M345.71,123.17v-4.1h-0.16a8.89,8.89,0,0,1-3.83,3.7,10.94,10.94,0,0,1-4.82,1.14,13.1,13.1,0,0,1-5.12-.85,7.41,7.41,0,0,1-3.15-2.42,9.68,9.68,0,0,1-1.61-3.82,24.67,24.67,0,0,1-.46-5V93.7h7.77v16.64a10.67,10.67,0,0,0,1.09,5.44,4.18,4.18,0,0,0,3.89,1.8,5.29,5.29,0,0,0,4.6-2q1.42-2,1.42-6.47V93.7h7.77v29.47h-7.39Z"/><path class="a" d="M363.36,115.84a4.65,4.65,0,0,0,1.34,1.54,5.62,5.62,0,0,0,1.89.88,8.53,8.53,0,0,0,2.22.29,8,8,0,0,0,1.72-.2,5.71,5.71,0,0,0,1.64-.63,3.78,3.78,0,0,0,1.23-1.14,3.09,3.09,0,0,0,.49-1.8q0-1.82-2.33-2.74a45.15,45.15,0,0,0-6.48-1.82q-1.7-.4-3.31-0.94a11.1,11.1,0,0,1-2.87-1.42,6.8,6.8,0,0,1-2-2.22,6.5,6.5,0,0,1-.77-3.28,9.17,9.17,0,0,1,1.07-4.67A8,8,0,0,1,360,94.81a12,12,0,0,1,3.94-1.48,23.35,23.35,0,0,1,4.49-.43,21.58,21.58,0,0,1,4.46.46,11.55,11.55,0,0,1,3.86,1.54,9.06,9.06,0,0,1,2.82,2.88,10,10,0,0,1,1.34,4.53h-7.39a3.57,3.57,0,0,0-1.7-3.16,7.51,7.51,0,0,0-3.61-.83,12.87,12.87,0,0,0-1.42.09,4.59,4.59,0,0,0-1.4.37,2.89,2.89,0,0,0-1.07.83,2.51,2.51,0,0,0,.33,3.22,5.82,5.82,0,0,0,2,1.11,24.14,24.14,0,0,0,2.82.77q1.59,0.34,3.23.74a32,32,0,0,1,3.31,1,10.76,10.76,0,0,1,2.87,1.51,7.22,7.22,0,0,1,2,2.34,7.09,7.09,0,0,1,.77,3.45,9.72,9.72,0,0,1-1.12,4.87,9.19,9.19,0,0,1-2.93,3.16,11.71,11.71,0,0,1-4.13,1.68,23.2,23.2,0,0,1-4.73.48,22.54,22.54,0,0,1-4.82-.51,12.41,12.41,0,0,1-4.19-1.71,9.59,9.59,0,0,1-3-3.16,10.21,10.21,0,0,1-1.29-4.93h7.39A4.57,4.57,0,0,0,363.36,115.84Z"/><path class="a" d="M399.55,93.7v5.42h-5.69V113.7a4.08,4.08,0,0,0,.66,2.74,3.69,3.69,0,0,0,2.63.68q0.66,0,1.26-.06a10.2,10.2,0,0,0,1.15-.17v6.27a17.84,17.84,0,0,1-2.19.23q-1.2.06-2.35,0.06a21.8,21.8,0,0,1-3.42-.26,7.84,7.84,0,0,1-2.84-1,5.19,5.19,0,0,1-1.94-2.11,7.8,7.8,0,0,1-.71-3.59V99.11h-4.71V93.7h4.71V84.86h7.77V93.7h5.69Z"/><path class="a" d="M413.78,102.76A9.68,9.68,0,0,1,415.15,98a9.5,9.5,0,0,1,3.06-3,13,13,0,0,1,4.19-1.62,22.92,22.92,0,0,1,4.68-.48,30.54,30.54,0,0,1,4.32.31,12.86,12.86,0,0,1,4,1.23,8,8,0,0,1,3,2.54,7.31,7.31,0,0,1,1.15,4.3v15.33a32.14,32.14,0,0,0,.22,3.82,7.09,7.09,0,0,0,.77,2.74H432.6a11.79,11.79,0,0,1-.36-1.4,12.21,12.21,0,0,1-.19-1.45,10.07,10.07,0,0,1-4.38,2.79,16.93,16.93,0,0,1-5.14.8,13.37,13.37,0,0,1-3.78-.51,8.51,8.51,0,0,1-3.06-1.6,7.37,7.37,0,0,1-2.05-2.74,9.57,9.57,0,0,1-.74-3.93,8.88,8.88,0,0,1,.85-4.13,7.29,7.29,0,0,1,2.19-2.59,9.64,9.64,0,0,1,3.06-1.45,31.78,31.78,0,0,1,3.47-.77q1.75-.28,3.45-0.46a20,20,0,0,0,3-.51,5.16,5.16,0,0,0,2.08-1,2.24,2.24,0,0,0,.71-1.91,4.45,4.45,0,0,0-.41-2.08,3.1,3.1,0,0,0-1.09-1.2,4.2,4.2,0,0,0-1.59-.57,12.55,12.55,0,0,0-1.94-.14,5.73,5.73,0,0,0-3.61,1,4.66,4.66,0,0,0-1.53,3.42h-7.77Zm17.95,6a3.45,3.45,0,0,1-1.23.71,12.2,12.2,0,0,1-1.59.43q-0.85.17-1.78,0.29t-1.86.28a13.57,13.57,0,0,0-1.72.46,5,5,0,0,0-1.48.77,3.62,3.62,0,0,0-1,1.23,4.08,4.08,0,0,0-.38,1.88,3.93,3.93,0,0,0,.38,1.82,3,3,0,0,0,1,1.17,4.28,4.28,0,0,0,1.53.6,9.39,9.39,0,0,0,1.81.17,6.64,6.64,0,0,0,3.56-.8,5.24,5.24,0,0,0,1.86-1.91,6.27,6.27,0,0,0,.74-2.25,16.22,16.22,0,0,0,.14-1.82v-3Z"/><path class="a" d="M462.89,115.84a4.65,4.65,0,0,0,1.34,1.54,5.62,5.62,0,0,0,1.89.88,8.53,8.53,0,0,0,2.22.29,8,8,0,0,0,1.72-.2,5.71,5.71,0,0,0,1.64-.63,3.78,3.78,0,0,0,1.23-1.14,3.09,3.09,0,0,0,.49-1.8q0-1.82-2.33-2.74a45.15,45.15,0,0,0-6.48-1.82q-1.7-.4-3.31-0.94a11.1,11.1,0,0,1-2.87-1.42,6.8,6.8,0,0,1-2-2.22,6.5,6.5,0,0,1-.77-3.28,9.17,9.17,0,0,1,1.07-4.67,8,8,0,0,1,2.82-2.88,12,12,0,0,1,3.94-1.48A23.35,23.35,0,0,1,468,92.9a21.58,21.58,0,0,1,4.46.46,11.55,11.55,0,0,1,3.86,1.54,9.06,9.06,0,0,1,2.82,2.88,10,10,0,0,1,1.34,4.53H473a3.57,3.57,0,0,0-1.7-3.16,7.51,7.51,0,0,0-3.61-.83,12.87,12.87,0,0,0-1.42.09,4.59,4.59,0,0,0-1.4.37,2.89,2.89,0,0,0-1.07.83,2.51,2.51,0,0,0,.33,3.22,5.82,5.82,0,0,0,2,1.11,24.14,24.14,0,0,0,2.82.77q1.59,0.34,3.23.74a32,32,0,0,1,3.31,1,10.76,10.76,0,0,1,2.87,1.51,7.22,7.22,0,0,1,2,2.34,7.09,7.09,0,0,1,.77,3.45,9.72,9.72,0,0,1-1.12,4.87,9.19,9.19,0,0,1-2.93,3.16,11.71,11.71,0,0,1-4.13,1.68,23.2,23.2,0,0,1-4.73.48,22.54,22.54,0,0,1-4.82-.51,12.41,12.41,0,0,1-4.19-1.71,9.59,9.59,0,0,1-3-3.16,10.21,10.21,0,0,1-1.29-4.93h7.39A4.57,4.57,0,0,0,462.89,115.84Z"/><path class="a" d="M491.1,93.7v4h0.11a11.25,11.25,0,0,1,3.69-3.53,9.69,9.69,0,0,1,5-1.25,11,11,0,0,1,4.9,1.08,7.06,7.06,0,0,1,3.37,3.82,12.29,12.29,0,0,1,3.42-3.42,8.83,8.83,0,0,1,5.12-1.48,14.55,14.55,0,0,1,4.16.57,8.28,8.28,0,0,1,3.28,1.82,8.39,8.39,0,0,1,2.13,3.28,13.82,13.82,0,0,1,.77,4.87v19.72h-7.77v-16.7q0-1.48-.11-2.79a6.13,6.13,0,0,0-.6-2.28,3.74,3.74,0,0,0-1.45-1.54,5.08,5.08,0,0,0-2.6-.57,4.82,4.82,0,0,0-2.65.66,4.66,4.66,0,0,0-1.59,1.71,7,7,0,0,0-.77,2.39,18.93,18.93,0,0,0-.19,2.71v16.42H501.5V106.64q0-1.31-.05-2.59a7.54,7.54,0,0,0-.47-2.37,3.62,3.62,0,0,0-1.37-1.74,5,5,0,0,0-2.82-.66,5.61,5.61,0,0,0-1.45.26,4.76,4.76,0,0,0-1.75,1,5.65,5.65,0,0,0-1.45,2.05,8.64,8.64,0,0,0-.6,3.51v17.1h-7.77V93.7h7.33Z"/><path class="a" d="M530.61,102.76A9.68,9.68,0,0,1,532,98,9.5,9.5,0,0,1,535,95a13,13,0,0,1,4.19-1.62,22.92,22.92,0,0,1,4.68-.48,30.54,30.54,0,0,1,4.32.31,12.86,12.86,0,0,1,4,1.23,8,8,0,0,1,3,2.54,7.31,7.31,0,0,1,1.15,4.3v15.33a32.14,32.14,0,0,0,.22,3.82,7.09,7.09,0,0,0,.77,2.74h-7.88a11.79,11.79,0,0,1-.36-1.4,12.21,12.21,0,0,1-.19-1.45,10.07,10.07,0,0,1-4.38,2.79,16.93,16.93,0,0,1-5.14.8,13.37,13.37,0,0,1-3.78-.51,8.51,8.51,0,0,1-3.06-1.6,7.37,7.37,0,0,1-2.05-2.74,9.57,9.57,0,0,1-.74-3.93,8.88,8.88,0,0,1,.85-4.13,7.29,7.29,0,0,1,2.19-2.59,9.64,9.64,0,0,1,3.06-1.45,31.78,31.78,0,0,1,3.47-.77q1.75-.28,3.45-0.46a20,20,0,0,0,3-.51,5.16,5.16,0,0,0,2.08-1,2.24,2.24,0,0,0,.71-1.91,4.45,4.45,0,0,0-.41-2.08A3.1,3.1,0,0,0,547,99a4.2,4.2,0,0,0-1.59-.57,12.55,12.55,0,0,0-1.94-.14,5.73,5.73,0,0,0-3.61,1,4.66,4.66,0,0,0-1.53,3.42h-7.77Zm17.95,6a3.45,3.45,0,0,1-1.23.71,12.2,12.2,0,0,1-1.59.43q-0.85.17-1.78,0.29t-1.86.28a13.57,13.57,0,0,0-1.72.46,5,5,0,0,0-1.48.77,3.62,3.62,0,0,0-1,1.23,4.08,4.08,0,0,0-.38,1.88,3.93,3.93,0,0,0,.38,1.82,3,3,0,0,0,1,1.17,4.28,4.28,0,0,0,1.53.6,9.39,9.39,0,0,0,1.81.17,6.64,6.64,0,0,0,3.56-.8,5.24,5.24,0,0,0,1.86-1.91,6.27,6.27,0,0,0,.74-2.25,16.22,16.22,0,0,0,.14-1.82v-3Z"/><path class="a" d="M568.14,82.47v40.7h-7.77V82.47h7.77Z"/><path class="a" d="M580.07,82.47v40.7H572.3V82.47h7.77Z"/><path class="a" d="M612.58,93.7v5.42h-5.69V113.7a4.08,4.08,0,0,0,.66,2.74,3.69,3.69,0,0,0,2.63.68q0.66,0,1.26-.06a10.2,10.2,0,0,0,1.15-.17v6.27a17.84,17.84,0,0,1-2.19.23q-1.2.06-2.35,0.06a21.8,21.8,0,0,1-3.42-.26,7.84,7.84,0,0,1-2.84-1,5.19,5.19,0,0,1-1.94-2.11,7.8,7.8,0,0,1-.71-3.59V99.11h-4.71V93.7h4.71V84.86h7.77V93.7h5.69Z"/><path class="a" d="M613.78,102.76A9.68,9.68,0,0,1,615.15,98a9.5,9.5,0,0,1,3.06-3,13,13,0,0,1,4.19-1.62,22.92,22.92,0,0,1,4.68-.48,30.54,30.54,0,0,1,4.32.31,12.86,12.86,0,0,1,4,1.23,8,8,0,0,1,3,2.54,7.31,7.31,0,0,1,1.15,4.3v15.33a32.14,32.14,0,0,0,.22,3.82,7.09,7.09,0,0,0,.77,2.74H632.6a11.79,11.79,0,0,1-.36-1.4,12.21,12.21,0,0,1-.19-1.45,10.07,10.07,0,0,1-4.38,2.79,16.93,16.93,0,0,1-5.14.8,13.37,13.37,0,0,1-3.78-.51,8.51,8.51,0,0,1-3.06-1.6,7.37,7.37,0,0,1-2.05-2.74,9.57,9.57,0,0,1-.74-3.93,8.88,8.88,0,0,1,.85-4.13,7.29,7.29,0,0,1,2.19-2.59,9.64,9.64,0,0,1,3.06-1.45,31.78,31.78,0,0,1,3.47-.77q1.75-.28,3.45-0.46a20,20,0,0,0,3-.51,5.16,5.16,0,0,0,2.08-1,2.24,2.24,0,0,0,.71-1.91,4.45,4.45,0,0,0-.41-2.08,3.1,3.1,0,0,0-1.09-1.2,4.2,4.2,0,0,0-1.59-.57,12.55,12.55,0,0,0-1.94-.14,5.73,5.73,0,0,0-3.61,1,4.66,4.66,0,0,0-1.53,3.42h-7.77Zm17.95,6a3.45,3.45,0,0,1-1.23.71,12.2,12.2,0,0,1-1.59.43q-0.85.17-1.78,0.29t-1.86.28a13.57,13.57,0,0,0-1.72.46,5,5,0,0,0-1.48.77,3.62,3.62,0,0,0-1,1.23,4.08,4.08,0,0,0-.38,1.88,3.93,3.93,0,0,0,.38,1.82,3,3,0,0,0,1,1.17,4.28,4.28,0,0,0,1.53.6,9.39,9.39,0,0,0,1.81.17,6.64,6.64,0,0,0,3.56-.8,5.24,5.24,0,0,0,1.86-1.91,6.27,6.27,0,0,0,.74-2.25,16.22,16.22,0,0,0,.14-1.82v-3Z"/><path class="a" d="M649.87,115.84a4.65,4.65,0,0,0,1.34,1.54,5.62,5.62,0,0,0,1.89.88,8.53,8.53,0,0,0,2.22.29,8,8,0,0,0,1.72-.2,5.71,5.71,0,0,0,1.64-.63,3.78,3.78,0,0,0,1.23-1.14,3.09,3.09,0,0,0,.49-1.8q0-1.82-2.33-2.74a45.15,45.15,0,0,0-6.48-1.82q-1.7-.4-3.31-0.94a11.1,11.1,0,0,1-2.87-1.42,6.8,6.8,0,0,1-2-2.22,6.5,6.5,0,0,1-.77-3.28,9.17,9.17,0,0,1,1.07-4.67,8,8,0,0,1,2.82-2.88,12,12,0,0,1,3.94-1.48,23.35,23.35,0,0,1,4.49-.43,21.58,21.58,0,0,1,4.46.46,11.55,11.55,0,0,1,3.86,1.54,9.06,9.06,0,0,1,2.82,2.88,10,10,0,0,1,1.34,4.53H660a3.57,3.57,0,0,0-1.7-3.16,7.51,7.51,0,0,0-3.61-.83,12.87,12.87,0,0,0-1.42.09,4.59,4.59,0,0,0-1.4.37,2.89,2.89,0,0,0-1.07.83,2.51,2.51,0,0,0,.33,3.22,5.82,5.82,0,0,0,2,1.11,24.14,24.14,0,0,0,2.82.77q1.59,0.34,3.23.74a32,32,0,0,1,3.31,1,10.76,10.76,0,0,1,2.87,1.51,7.22,7.22,0,0,1,2,2.34,7.09,7.09,0,0,1,.77,3.45,9.72,9.72,0,0,1-1.12,4.87,9.19,9.19,0,0,1-2.93,3.16,11.71,11.71,0,0,1-4.13,1.68,23.2,23.2,0,0,1-4.73.48,22.54,22.54,0,0,1-4.82-.51,12.41,12.41,0,0,1-4.19-1.71,9.59,9.59,0,0,1-3-3.16,10.21,10.21,0,0,1-1.29-4.93h7.39A4.57,4.57,0,0,0,649.87,115.84Z"/><path class="a" d="M686.06,93.7v5.42h-5.69V113.7a4.08,4.08,0,0,0,.66,2.74,3.69,3.69,0,0,0,2.63.68q0.66,0,1.26-.06a10.2,10.2,0,0,0,1.15-.17v6.27a17.84,17.84,0,0,1-2.19.23q-1.2.06-2.35,0.06a21.8,21.8,0,0,1-3.42-.26,7.84,7.84,0,0,1-2.84-1,5.19,5.19,0,0,1-1.94-2.11,7.8,7.8,0,0,1-.71-3.59V99.11H667.9V93.7h4.71V84.86h7.77V93.7h5.69Z"/><path class="a" d="M695.91,116.1a7.71,7.71,0,0,0,9.08.54,5.05,5.05,0,0,0,2.08-2.59h6.84q-1.64,5.3-5,7.58a14.38,14.38,0,0,1-8.21,2.28,15.58,15.58,0,0,1-6-1.11,12.49,12.49,0,0,1-4.54-3.16,14.33,14.33,0,0,1-2.87-4.9,18.59,18.59,0,0,1-1-6.27,17.83,17.83,0,0,1,1-6.16,14.53,14.53,0,0,1,3-4.93,13.92,13.92,0,0,1,4.57-3.28,14.14,14.14,0,0,1,5.88-1.2A13,13,0,0,1,707,94.35a12.72,12.72,0,0,1,4.4,3.9,16.38,16.38,0,0,1,2.49,5.59,21.69,21.69,0,0,1,.55,6.56H694Q694.16,114.33,695.91,116.1Zm8.78-15.5a5.34,5.34,0,0,0-4.24-1.6,6.54,6.54,0,0,0-3.09.66,5.93,5.93,0,0,0-2,1.62,6,6,0,0,0-1,2.05,9.51,9.51,0,0,0-.36,1.94h12.64A9.54,9.54,0,0,0,704.69,100.59Z"/><path class="a" d="M730,102a13.88,13.88,0,0,1,3-4.9,13.21,13.21,0,0,1,4.6-3.14,15.58,15.58,0,0,1,6-1.11,15.8,15.8,0,0,1,6,1.11,13.16,13.16,0,0,1,4.62,3.14,13.91,13.91,0,0,1,3,4.9,18.77,18.77,0,0,1,1,6.41,18.52,18.52,0,0,1-1,6.38,13.93,13.93,0,0,1-3,4.87,12.83,12.83,0,0,1-4.62,3.11,16.17,16.17,0,0,1-6,1.08,16,16,0,0,1-6-1.08,12.87,12.87,0,0,1-4.6-3.11,13.91,13.91,0,0,1-3-4.87,18.52,18.52,0,0,1-1-6.38A18.77,18.77,0,0,1,730,102Zm7.06,9.86a9.4,9.4,0,0,0,1.12,3,6.09,6.09,0,0,0,2.11,2.14,6.22,6.22,0,0,0,3.28.8,6.37,6.37,0,0,0,3.31-.8,6,6,0,0,0,2.13-2.14,9.4,9.4,0,0,0,1.12-3,18,18,0,0,0,.33-3.45,18.41,18.41,0,0,0-.33-3.48,9.09,9.09,0,0,0-1.12-3,6.34,6.34,0,0,0-2.13-2.14,6.21,6.21,0,0,0-3.31-.83,6.06,6.06,0,0,0-3.28.83,6.43,6.43,0,0,0-2.11,2.14,9.09,9.09,0,0,0-1.12,3,18.41,18.41,0,0,0-.33,3.48A18,18,0,0,0,737.06,111.91Z"/><path class="a" d="M758.13,99.11V93.7h4.65V91.42A9,9,0,0,1,765.13,85q2.35-2.51,7.11-2.51,1,0,2.08.09l2,0.14v6a22.93,22.93,0,0,0-2.85-.17,2.91,2.91,0,0,0-2.27.77,3.89,3.89,0,0,0-.68,2.59V93.7h5.36v5.42h-5.36v24.05h-7.77V99.11h-4.65Z"/><path class="a" d="M787.89,90V82.47h32V90H808.2v33.17h-8.59V90H787.89Z"/><path class="a" d="M829.15,82.47V97.8h0.16a9.16,9.16,0,0,1,3.78-3.73,9.87,9.87,0,0,1,4.49-1.17,12.73,12.73,0,0,1,5.12.88,7.64,7.64,0,0,1,3.15,2.45,9.7,9.7,0,0,1,1.61,3.82,24.75,24.75,0,0,1,.46,5v18.13h-7.77V106.52a10.7,10.7,0,0,0-1.09-5.44,4.18,4.18,0,0,0-3.89-1.8,5.29,5.29,0,0,0-4.6,2q-1.42,2-1.42,6.47v15.45h-7.77V82.47h7.77Z"/><path class="a" d="M860,116.1a7.71,7.71,0,0,0,9.08.54,5.05,5.05,0,0,0,2.08-2.59H878q-1.64,5.3-5,7.58a14.38,14.38,0,0,1-8.21,2.28,15.58,15.58,0,0,1-6-1.11,12.49,12.49,0,0,1-4.54-3.16,14.33,14.33,0,0,1-2.87-4.9,18.59,18.59,0,0,1-1-6.27,17.83,17.83,0,0,1,1-6.16,14.53,14.53,0,0,1,3-4.93,13.92,13.92,0,0,1,4.57-3.28,14.14,14.14,0,0,1,5.88-1.2A13,13,0,0,1,871,94.35a12.72,12.72,0,0,1,4.4,3.9,16.38,16.38,0,0,1,2.49,5.59,21.69,21.69,0,0,1,.55,6.56H858Q858.21,114.33,860,116.1Zm8.78-15.5A5.34,5.34,0,0,0,864.5,99a6.54,6.54,0,0,0-3.09.66,5.93,5.93,0,0,0-2,1.62,6,6,0,0,0-1,2.05,9.51,9.51,0,0,0-.36,1.94h12.64A9.54,9.54,0,0,0,868.74,100.59Z"/><path class="a" d="M913.09,82.47a23.4,23.4,0,0,1,5.09.51,10.76,10.76,0,0,1,3.94,1.68,7.75,7.75,0,0,1,2.54,3.11,11.32,11.32,0,0,1,.9,4.79,9.19,9.19,0,0,1-1.34,5.13,9.84,9.84,0,0,1-4,3.36,9.4,9.4,0,0,1,5.39,3.79,12.89,12.89,0,0,1,.63,11.86,10.26,10.26,0,0,1-3.09,3.68,13.44,13.44,0,0,1-4.43,2.11,19.23,19.23,0,0,1-5.12.68H894.71V82.47h18.39ZM912,98.94a6,6,0,0,0,3.78-1.14,4.39,4.39,0,0,0,1.48-3.7,4.9,4.9,0,0,0-.49-2.34,3.74,3.74,0,0,0-1.31-1.43,5.41,5.41,0,0,0-1.89-.71,12.07,12.07,0,0,0-2.22-.2h-8v9.52H912Zm0.49,17.27a11,11,0,0,0,2.41-.26,5.78,5.78,0,0,0,2-.86,4.26,4.26,0,0,0,1.4-1.62,5.8,5.8,0,0,0,.52-2.62q0-3.13-1.7-4.47a7,7,0,0,0-4.49-1.34H903.3v11.17h9.19Z"/><path class="a" d="M930.38,102a13.88,13.88,0,0,1,3-4.9,13.21,13.21,0,0,1,4.6-3.14,15.58,15.58,0,0,1,6-1.11A15.8,15.8,0,0,1,950,94a13.16,13.16,0,0,1,4.62,3.14,13.91,13.91,0,0,1,3,4.9,18.77,18.77,0,0,1,1,6.41,18.52,18.52,0,0,1-1,6.38,13.93,13.93,0,0,1-3,4.87,12.83,12.83,0,0,1-4.62,3.11,16.17,16.17,0,0,1-6,1.08,16,16,0,0,1-6-1.08,12.87,12.87,0,0,1-4.6-3.11,13.91,13.91,0,0,1-3-4.87,18.52,18.52,0,0,1-1-6.38A18.77,18.77,0,0,1,930.38,102Zm7.06,9.86a9.4,9.4,0,0,0,1.12,3,6.09,6.09,0,0,0,2.11,2.14,6.22,6.22,0,0,0,3.28.8,6.37,6.37,0,0,0,3.31-.8,6,6,0,0,0,2.13-2.14,9.4,9.4,0,0,0,1.12-3,18,18,0,0,0,.33-3.45,18.41,18.41,0,0,0-.33-3.48,9.09,9.09,0,0,0-1.12-3,6.34,6.34,0,0,0-2.13-2.14A6.21,6.21,0,0,0,944,99a6.06,6.06,0,0,0-3.28.83,6.43,6.43,0,0,0-2.11,2.14,9.09,9.09,0,0,0-1.12,3,18.41,18.41,0,0,0-.33,3.48A18,18,0,0,0,937.44,111.91Z"/><path class="a" d="M961.63,102a13.88,13.88,0,0,1,3-4.9,13.21,13.21,0,0,1,4.6-3.14,15.58,15.58,0,0,1,6-1.11,15.8,15.8,0,0,1,6,1.11,13.16,13.16,0,0,1,4.62,3.14,13.91,13.91,0,0,1,3,4.9,18.77,18.77,0,0,1,1,6.41,18.52,18.52,0,0,1-1,6.38,13.93,13.93,0,0,1-3,4.87,12.83,12.83,0,0,1-4.62,3.11,16.17,16.17,0,0,1-6,1.08,16,16,0,0,1-6-1.08,12.87,12.87,0,0,1-4.6-3.11,13.91,13.91,0,0,1-3-4.87,18.52,18.52,0,0,1-1-6.38A18.77,18.77,0,0,1,961.63,102Zm7.06,9.86a9.4,9.4,0,0,0,1.12,3,6.09,6.09,0,0,0,2.11,2.14,6.22,6.22,0,0,0,3.28.8,6.37,6.37,0,0,0,3.31-.8,6,6,0,0,0,2.13-2.14,9.4,9.4,0,0,0,1.12-3,18,18,0,0,0,.33-3.45,18.41,18.41,0,0,0-.33-3.48,9.09,9.09,0,0,0-1.12-3,6.34,6.34,0,0,0-2.13-2.14A6.21,6.21,0,0,0,975.2,99a6.06,6.06,0,0,0-3.28.83,6.43,6.43,0,0,0-2.11,2.14,9.09,9.09,0,0,0-1.12,3,18.41,18.41,0,0,0-.33,3.48A18,18,0,0,0,968.69,111.91Z"/><path class="a" d="M1001.19,82.47V104.3L1011,93.7h9.19l-10.67,10.83,11.87,18.64H1012L1004.2,110l-3,3v10.15h-7.77V82.47h7.77Z"/><path class="a" d="M1035.12,102a13.88,13.88,0,0,1,3-4.9,13.21,13.21,0,0,1,4.6-3.14,15.58,15.58,0,0,1,6-1.11,15.8,15.8,0,0,1,6,1.11,13.16,13.16,0,0,1,4.62,3.14,13.91,13.91,0,0,1,3,4.9,18.77,18.77,0,0,1,1,6.41,18.52,18.52,0,0,1-1,6.38,13.93,13.93,0,0,1-3,4.87,12.83,12.83,0,0,1-4.62,3.11,16.17,16.17,0,0,1-6,1.08,16,16,0,0,1-6-1.08,12.87,12.87,0,0,1-4.6-3.11,13.91,13.91,0,0,1-3-4.87,18.52,18.52,0,0,1-1-6.38A18.77,18.77,0,0,1,1035.12,102Zm7.06,9.86a9.4,9.4,0,0,0,1.12,3,6.09,6.09,0,0,0,2.11,2.14,6.22,6.22,0,0,0,3.28.8,6.37,6.37,0,0,0,3.31-.8,6,6,0,0,0,2.13-2.14,9.4,9.4,0,0,0,1.12-3,18,18,0,0,0,.33-3.45,18.41,18.41,0,0,0-.33-3.48,9.09,9.09,0,0,0-1.12-3,6.34,6.34,0,0,0-2.13-2.14,6.21,6.21,0,0,0-3.31-.83,6.06,6.06,0,0,0-3.28.83,6.43,6.43,0,0,0-2.11,2.14,9.09,9.09,0,0,0-1.12,3,18.41,18.41,0,0,0-.33,3.48A18,18,0,0,0,1042.18,111.91Z"/><path class="a" d="M1063.24,99.11V93.7h4.65V91.42a9,9,0,0,1,2.35-6.44q2.35-2.51,7.11-2.51,1,0,2.08.09l2,0.14v6a22.93,22.93,0,0,0-2.85-.17,2.91,2.91,0,0,0-2.27.77,3.89,3.89,0,0,0-.68,2.59V93.7H1081v5.42h-5.36v24.05h-7.77V99.11h-4.65Z"/><path class="a" d="M1102.64,113.13a6.4,6.4,0,0,0,1.89,2.31,8,8,0,0,0,2.76,1.31,12.56,12.56,0,0,0,3.28.43,16.38,16.38,0,0,0,2.46-.2,8.3,8.3,0,0,0,2.46-.77,5.4,5.4,0,0,0,1.92-1.57,4,4,0,0,0,.77-2.54,3.65,3.65,0,0,0-1-2.68,8,8,0,0,0-2.65-1.71,25.77,25.77,0,0,0-3.72-1.2q-2.08-.51-4.21-1.14a36.08,36.08,0,0,1-4.27-1.4,14.45,14.45,0,0,1-3.72-2.14,10,10,0,0,1-2.65-3.28,10.3,10.3,0,0,1-1-4.76,11,11,0,0,1,1.29-5.44,12,12,0,0,1,3.37-3.85,14.42,14.42,0,0,1,4.71-2.28,19.29,19.29,0,0,1,5.25-.74,23.93,23.93,0,0,1,5.88.71,14.41,14.41,0,0,1,5,2.31,11.54,11.54,0,0,1,3.47,4.08,12.94,12.94,0,0,1,1.29,6h-8.32a7.45,7.45,0,0,0-.74-3,5,5,0,0,0-1.67-1.88,6.9,6.9,0,0,0-2.38-1,14.12,14.12,0,0,0-2.93-.29,9.71,9.71,0,0,0-2.08.23,5.45,5.45,0,0,0-1.89.8,4.84,4.84,0,0,0-1.4,1.43,3.94,3.94,0,0,0-.55,2.17,3.77,3.77,0,0,0,.44,1.94,3.93,3.93,0,0,0,1.72,1.37,21.33,21.33,0,0,0,3.56,1.25q2.27,0.63,5.94,1.6,1.09,0.23,3,.83a14.33,14.33,0,0,1,3.86,1.91,12,12,0,0,1,3.31,3.51,10.29,10.29,0,0,1,1.4,5.61,12.89,12.89,0,0,1-1,5.19,11.22,11.22,0,0,1-3.09,4.13,14.65,14.65,0,0,1-5.09,2.71,23.17,23.17,0,0,1-7,1,23.77,23.77,0,0,1-6.27-.83,15.46,15.46,0,0,1-5.36-2.59,12.67,12.67,0,0,1-3.69-4.5,13.89,13.89,0,0,1-1.31-6.5h8.32A7.72,7.72,0,0,0,1102.64,113.13Z"/><path class="a" d="M1144.12,93.7v5.42h-5.69V113.7a4.08,4.08,0,0,0,.66,2.74,3.69,3.69,0,0,0,2.63.68q0.66,0,1.26-.06a10.21,10.21,0,0,0,1.15-.17v6.27a17.84,17.84,0,0,1-2.19.23q-1.2.06-2.35,0.06a21.8,21.8,0,0,1-3.42-.26,7.84,7.84,0,0,1-2.84-1,5.19,5.19,0,0,1-1.94-2.11,7.8,7.8,0,0,1-.71-3.59V99.11H1126V93.7h4.71V84.86h7.77V93.7h5.69Z"/><path class="a" d="M1153,93.7v5.47h0.11a10,10,0,0,1,1.48-2.54,9.82,9.82,0,0,1,2.13-2,10.28,10.28,0,0,1,2.57-1.28,8.94,8.94,0,0,1,2.85-.46,5.85,5.85,0,0,1,1.7.28v7.52q-0.55-.11-1.31-0.2a13.34,13.34,0,0,0-1.48-.09,8,8,0,0,0-3.61.74,6.31,6.31,0,0,0-2.38,2,8.26,8.26,0,0,0-1.29,3,16.91,16.91,0,0,0-.38,3.7v13.28h-7.77V93.7H1153Z"/><path class="a" d="M1165,89.14V82.47h7.77v6.67H1165Zm7.77,4.56v29.47H1165V93.7h7.77Z"/><path class="a" d="M1184.06,93.7v3.76h0.11a8.69,8.69,0,0,1,3.61-3.48,10.71,10.71,0,0,1,4.81-1.08,11.85,11.85,0,0,1,5.75,1.31,12,12,0,0,1,4,3.48,15,15,0,0,1,2.35,5,23.29,23.29,0,0,1,.77,6,21,21,0,0,1-.77,5.7,14.76,14.76,0,0,1-2.33,4.84,11.63,11.63,0,0,1-3.88,3.36,11.31,11.31,0,0,1-5.44,1.25,10.65,10.65,0,0,1-4.84-1.11,9.28,9.28,0,0,1-3.64-3.28h-0.11v14h-7.77V93.7h7.39Zm10.1,23.37a6.35,6.35,0,0,0,2.08-2.08,8.79,8.79,0,0,0,1.12-3,18.33,18.33,0,0,0,.33-3.48,17,17,0,0,0-.36-3.48,9.49,9.49,0,0,0-1.18-3,6.71,6.71,0,0,0-2.11-2.17,5.71,5.71,0,0,0-3.15-.83,5.81,5.81,0,0,0-3.2.83,6.51,6.51,0,0,0-2.08,2.14,9.09,9.09,0,0,0-1.12,3,18.64,18.64,0,0,0-.33,3.53,17,17,0,0,0,.36,3.48,9.18,9.18,0,0,0,1.15,3,6.25,6.25,0,0,0,2.11,2.08A6.76,6.76,0,0,0,1194.16,117.07Z"/><path class="a" d="M1216.24,116.1a7.71,7.71,0,0,0,9.08.54,5.05,5.05,0,0,0,2.08-2.59h6.84q-1.64,5.3-5,7.58a14.38,14.38,0,0,1-8.21,2.28,15.58,15.58,0,0,1-6-1.11,12.49,12.49,0,0,1-4.54-3.16,14.33,14.33,0,0,1-2.87-4.9,18.59,18.59,0,0,1-1-6.27,17.83,17.83,0,0,1,1-6.16,14.53,14.53,0,0,1,3-4.93,13.92,13.92,0,0,1,4.57-3.28,14.14,14.14,0,0,1,5.88-1.2,13,13,0,0,1,6.29,1.45,12.72,12.72,0,0,1,4.4,3.9,16.38,16.38,0,0,1,2.49,5.59,21.69,21.69,0,0,1,.55,6.56h-20.41Q1214.49,114.33,1216.24,116.1Zm8.78-15.5a5.34,5.34,0,0,0-4.24-1.6,6.54,6.54,0,0,0-3.09.66,5.93,5.93,0,0,0-2,1.62,6,6,0,0,0-1,2.05,9.51,9.51,0,0,0-.36,1.94H1227A9.54,9.54,0,0,0,1225,100.59Z"/><path class="a" d="M1243.68,115.84a4.65,4.65,0,0,0,1.34,1.54,5.62,5.62,0,0,0,1.89.88,8.53,8.53,0,0,0,2.22.29,8,8,0,0,0,1.72-.2,5.71,5.71,0,0,0,1.64-.63,3.78,3.78,0,0,0,1.23-1.14,3.09,3.09,0,0,0,.49-1.8q0-1.82-2.33-2.74a45.15,45.15,0,0,0-6.48-1.82q-1.7-.4-3.31-0.94a11.1,11.1,0,0,1-2.87-1.42,6.8,6.8,0,0,1-2-2.22,6.5,6.5,0,0,1-.77-3.28,9.17,9.17,0,0,1,1.07-4.67,8,8,0,0,1,2.82-2.88,12,12,0,0,1,3.94-1.48,23.35,23.35,0,0,1,4.49-.43,21.58,21.58,0,0,1,4.46.46,11.55,11.55,0,0,1,3.86,1.54,9.06,9.06,0,0,1,2.82,2.88,10,10,0,0,1,1.34,4.53h-7.39a3.57,3.57,0,0,0-1.7-3.16,7.51,7.51,0,0,0-3.61-.83,12.87,12.87,0,0,0-1.42.09,4.59,4.59,0,0,0-1.4.37,2.89,2.89,0,0,0-1.07.83,2.51,2.51,0,0,0,.33,3.22,5.82,5.82,0,0,0,2,1.11,24.14,24.14,0,0,0,2.82.77q1.59,0.34,3.23.74a32,32,0,0,1,3.31,1,10.76,10.76,0,0,1,2.87,1.51,7.22,7.22,0,0,1,2,2.34,7.09,7.09,0,0,1,.77,3.45,9.72,9.72,0,0,1-1.12,4.87,9.19,9.19,0,0,1-2.93,3.16,11.71,11.71,0,0,1-4.13,1.68,23.2,23.2,0,0,1-4.73.48,22.54,22.54,0,0,1-4.82-.51,12.41,12.41,0,0,1-4.19-1.71,9.59,9.59,0,0,1-3-3.16,10.21,10.21,0,0,1-1.29-4.93h7.39A4.57,4.57,0,0,0,1243.68,115.84Z"/><path class="a" d="M1280.75,104.13v7h-16.47v-7h16.47Z"/><path class="a" d="M98.75,153.55V159H93.05v14.59a4.08,4.08,0,0,0,.66,2.74,3.69,3.69,0,0,0,2.63.68q0.66,0,1.26-.06a10.2,10.2,0,0,0,1.15-.17V183a17.84,17.84,0,0,1-2.19.23q-1.2.06-2.35,0.06a21.8,21.8,0,0,1-3.42-.26,7.84,7.84,0,0,1-2.84-1A5.19,5.19,0,0,1,86,179.94a7.8,7.8,0,0,1-.71-3.59V159H80.58v-5.42h4.71v-8.83h7.77v8.83h5.69Z"/><path class="a" d="M108,142.32v15.33h0.16a9.16,9.16,0,0,1,3.78-3.73,9.87,9.87,0,0,1,4.49-1.17,12.73,12.73,0,0,1,5.12.88,7.64,7.64,0,0,1,3.15,2.45,9.7,9.7,0,0,1,1.61,3.82,24.75,24.75,0,0,1,.46,5V183H119V166.37a10.7,10.7,0,0,0-1.09-5.44,4.18,4.18,0,0,0-3.89-1.8,5.29,5.29,0,0,0-4.6,2q-1.42,2-1.42,6.47V183h-7.77v-40.7H108Z"/><path class="a" d="M138.85,175.95a7.71,7.71,0,0,0,9.08.54A5.05,5.05,0,0,0,150,173.9h6.84q-1.64,5.3-5,7.58a14.38,14.38,0,0,1-8.21,2.28,15.58,15.58,0,0,1-6-1.11,12.49,12.49,0,0,1-4.54-3.16,14.33,14.33,0,0,1-2.87-4.9,18.59,18.59,0,0,1-1-6.27,17.83,17.83,0,0,1,1-6.16,14.53,14.53,0,0,1,3-4.93,13.92,13.92,0,0,1,4.57-3.28,14.14,14.14,0,0,1,5.88-1.2,13,13,0,0,1,6.29,1.45,12.72,12.72,0,0,1,4.4,3.9,16.38,16.38,0,0,1,2.49,5.59,21.69,21.69,0,0,1,.55,6.56H136.94Q137.1,174.18,138.85,175.95Zm8.78-15.5a5.34,5.34,0,0,0-4.24-1.6,6.54,6.54,0,0,0-3.09.66,5.93,5.93,0,0,0-2,1.62,6,6,0,0,0-1,2.05,9.51,9.51,0,0,0-.36,1.94h12.64A9.54,9.54,0,0,0,147.64,160.44Z"/><path class="a" d="M180.17,153.55v3.76h0.11a8.69,8.69,0,0,1,3.61-3.48,10.71,10.71,0,0,1,4.81-1.08,11.85,11.85,0,0,1,5.75,1.31,12,12,0,0,1,4,3.48,15,15,0,0,1,2.35,5,23.29,23.29,0,0,1,.77,6,21,21,0,0,1-.77,5.7,14.76,14.76,0,0,1-2.33,4.84,11.63,11.63,0,0,1-3.88,3.36,11.31,11.31,0,0,1-5.44,1.25,10.65,10.65,0,0,1-4.84-1.11,9.28,9.28,0,0,1-3.64-3.28h-0.11v14h-7.77V153.55h7.39Zm10.1,23.37a6.35,6.35,0,0,0,2.08-2.08,8.79,8.79,0,0,0,1.12-3,18.33,18.33,0,0,0,.33-3.48,17,17,0,0,0-.36-3.48,9.49,9.49,0,0,0-1.18-3,6.71,6.71,0,0,0-2.11-2.17,5.71,5.71,0,0,0-3.15-.83,5.81,5.81,0,0,0-3.2.83,6.51,6.51,0,0,0-2.08,2.14,9.09,9.09,0,0,0-1.12,3,18.64,18.64,0,0,0-.33,3.53,17,17,0,0,0,.36,3.48,9.18,9.18,0,0,0,1.15,3,6.25,6.25,0,0,0,2.11,2.08A6.76,6.76,0,0,0,190.26,176.92Z"/><path class="a" d="M211.41,153.55V159h0.11a10,10,0,0,1,1.48-2.54,9.82,9.82,0,0,1,2.13-2,10.28,10.28,0,0,1,2.57-1.28,8.94,8.94,0,0,1,2.85-.46,5.85,5.85,0,0,1,1.7.28v7.52q-0.55-.11-1.31-0.2a13.34,13.34,0,0,0-1.48-.09,8,8,0,0,0-3.61.74,6.31,6.31,0,0,0-2.38,2,8.26,8.26,0,0,0-1.29,3,16.91,16.91,0,0,0-.38,3.7V183H204V153.55h7.39Z"/><path class="a" d="M223.34,149v-6.67h7.77V149h-7.77Zm7.77,4.56V183h-7.77V153.55h7.77Z"/><path class="a" d="M242.44,153.55v4.1h0.16a9.07,9.07,0,0,1,3.83-3.73,10.72,10.72,0,0,1,4.82-1.17,12.73,12.73,0,0,1,5.12.88,7.64,7.64,0,0,1,3.15,2.45,9.7,9.7,0,0,1,1.61,3.82,24.75,24.75,0,0,1,.46,5V183h-7.77V166.37a10.7,10.7,0,0,0-1.09-5.44,4.18,4.18,0,0,0-3.89-1.8,5.29,5.29,0,0,0-4.6,2q-1.42,2-1.42,6.47V183H235V153.55h7.39Z"/><path class="a" d="M280.85,153.55V159h-5.69v14.59a4.08,4.08,0,0,0,.66,2.74,3.69,3.69,0,0,0,2.63.68q0.66,0,1.26-.06a10.2,10.2,0,0,0,1.15-.17V183a17.84,17.84,0,0,1-2.19.23q-1.2.06-2.35,0.06a21.8,21.8,0,0,1-3.42-.26,7.84,7.84,0,0,1-2.84-1,5.19,5.19,0,0,1-1.94-2.11,7.8,7.8,0,0,1-.71-3.59V159h-4.71v-5.42h4.71v-8.83h7.77v8.83h5.69Z"/><path class="a" d="M290.7,175.95a7.71,7.71,0,0,0,9.08.54,5.05,5.05,0,0,0,2.08-2.59h6.84q-1.64,5.3-5,7.58a14.38,14.38,0,0,1-8.21,2.28,15.58,15.58,0,0,1-6-1.11,12.49,12.49,0,0,1-4.54-3.16,14.33,14.33,0,0,1-2.87-4.9,18.59,18.59,0,0,1-1-6.27,17.83,17.83,0,0,1,1-6.16,14.53,14.53,0,0,1,3-4.93,13.92,13.92,0,0,1,4.57-3.28,14.14,14.14,0,0,1,5.88-1.2,13,13,0,0,1,6.29,1.45,12.72,12.72,0,0,1,4.4,3.9,16.38,16.38,0,0,1,2.49,5.59,21.69,21.69,0,0,1,.55,6.56H288.78Q288.95,174.18,290.7,175.95Zm8.78-15.5a5.34,5.34,0,0,0-4.24-1.6,6.54,6.54,0,0,0-3.09.66,5.93,5.93,0,0,0-2,1.62,6,6,0,0,0-1,2.05,9.51,9.51,0,0,0-.36,1.94h12.64A9.54,9.54,0,0,0,299.48,160.44Z"/><path class="a" d="M331.68,179.25a8.15,8.15,0,0,1-3.58,3.45,11.52,11.52,0,0,1-5,1.05,11.7,11.7,0,0,1-5.58-1.28,11.33,11.33,0,0,1-4-3.48,16,16,0,0,1-2.35-5,22,22,0,0,1-.79-5.93,20.66,20.66,0,0,1,.79-5.73,15.12,15.12,0,0,1,2.35-4.87,11.87,11.87,0,0,1,3.91-3.39,11.26,11.26,0,0,1,5.47-1.28,10.76,10.76,0,0,1,4.79,1.11,8.47,8.47,0,0,1,3.58,3.28h0.11V142.32h7.77V183h-7.39v-3.76h-0.11Zm-0.33-14.56a8.79,8.79,0,0,0-1.12-3,6.45,6.45,0,0,0-2.05-2.08,5.83,5.83,0,0,0-3.17-.8,5.87,5.87,0,0,0-5.33,2.91,9.56,9.56,0,0,0-1.15,3,16.89,16.89,0,0,0-.36,3.51,15.57,15.57,0,0,0,.38,3.42,9.51,9.51,0,0,0,1.23,3,6.94,6.94,0,0,0,2.13,2.17,5.59,5.59,0,0,0,3.09.83,5.65,5.65,0,0,0,5.25-2.94,9.82,9.82,0,0,0,1.09-3,18.71,18.71,0,0,0,.33-3.53A18.27,18.27,0,0,0,331.36,164.69Z"/><path class="a" d="M364.19,175.95a7.71,7.71,0,0,0,9.08.54,5.05,5.05,0,0,0,2.08-2.59h6.84q-1.64,5.3-5,7.58a14.38,14.38,0,0,1-8.21,2.28,15.58,15.58,0,0,1-6-1.11,12.49,12.49,0,0,1-4.54-3.16,14.33,14.33,0,0,1-2.87-4.9,18.59,18.59,0,0,1-1-6.27,17.83,17.83,0,0,1,1-6.16,14.53,14.53,0,0,1,3-4.93,13.92,13.92,0,0,1,4.57-3.28,14.14,14.14,0,0,1,5.88-1.2,13,13,0,0,1,6.29,1.45,12.72,12.72,0,0,1,4.4,3.9,16.38,16.38,0,0,1,2.49,5.59,21.69,21.69,0,0,1,.55,6.56H362.27Q362.44,174.18,364.19,175.95Zm8.78-15.5a5.34,5.34,0,0,0-4.24-1.6,6.54,6.54,0,0,0-3.09.66,5.93,5.93,0,0,0-2,1.62,6,6,0,0,0-1,2.05,9.51,9.51,0,0,0-.36,1.94h12.64A9.54,9.54,0,0,0,373,160.44Z"/><path class="a" d="M405.17,179.25a8.15,8.15,0,0,1-3.58,3.45,11.52,11.52,0,0,1-5,1.05,11.7,11.7,0,0,1-5.58-1.28,11.33,11.33,0,0,1-4-3.48,16,16,0,0,1-2.35-5,22,22,0,0,1-.79-5.93,20.66,20.66,0,0,1,.79-5.73,15.12,15.12,0,0,1,2.35-4.87,11.87,11.87,0,0,1,3.91-3.39,11.26,11.26,0,0,1,5.47-1.28,10.76,10.76,0,0,1,4.79,1.11,8.47,8.47,0,0,1,3.58,3.28h0.11V142.32h7.77V183h-7.39v-3.76h-0.11Zm-0.33-14.56a8.79,8.79,0,0,0-1.12-3,6.45,6.45,0,0,0-2.05-2.08,5.83,5.83,0,0,0-3.17-.8,5.87,5.87,0,0,0-5.33,2.91,9.56,9.56,0,0,0-1.15,3,16.89,16.89,0,0,0-.36,3.51,15.57,15.57,0,0,0,.38,3.42,9.51,9.51,0,0,0,1.23,3,6.94,6.94,0,0,0,2.13,2.17,5.59,5.59,0,0,0,3.09.83,5.65,5.65,0,0,0,5.25-2.94,9.82,9.82,0,0,0,1.09-3,18.71,18.71,0,0,0,.33-3.53A18.27,18.27,0,0,0,404.84,164.69Z"/><path class="a" d="M416.55,149v-6.67h7.77V149h-7.77Zm7.77,4.56V183h-7.77V153.55h7.77Z"/><path class="a" d="M443.8,153.55V159h-5.69v14.59a4.08,4.08,0,0,0,.66,2.74,3.69,3.69,0,0,0,2.63.68q0.66,0,1.26-.06a10.2,10.2,0,0,0,1.15-.17V183a17.84,17.84,0,0,1-2.19.23q-1.2.06-2.35,0.06a21.8,21.8,0,0,1-3.42-.26,7.84,7.84,0,0,1-2.84-1,5.19,5.19,0,0,1-1.94-2.11,7.8,7.8,0,0,1-.71-3.59V159h-4.71v-5.42h4.71v-8.83h7.77v8.83h5.69Z"/><path class="a" d="M445.55,149v-6.67h7.77V149h-7.77Zm7.77,4.56V183h-7.77V153.55h7.77Z"/><path class="a" d="M457.43,161.9a13.88,13.88,0,0,1,3-4.9,13.21,13.21,0,0,1,4.6-3.14,15.58,15.58,0,0,1,6-1.11,15.8,15.8,0,0,1,6,1.11,13.16,13.16,0,0,1,4.62,3.14,13.91,13.91,0,0,1,3,4.9,18.77,18.77,0,0,1,1,6.41,18.52,18.52,0,0,1-1,6.38,13.93,13.93,0,0,1-3,4.87,12.83,12.83,0,0,1-4.62,3.11,16.17,16.17,0,0,1-6,1.08,16,16,0,0,1-6-1.08,12.87,12.87,0,0,1-4.6-3.11,13.91,13.91,0,0,1-3-4.87,18.52,18.52,0,0,1-1-6.38A18.77,18.77,0,0,1,457.43,161.9Zm7.06,9.86a9.4,9.4,0,0,0,1.12,3,6.09,6.09,0,0,0,2.11,2.14,6.22,6.22,0,0,0,3.28.8,6.37,6.37,0,0,0,3.31-.8,6,6,0,0,0,2.13-2.14,9.4,9.4,0,0,0,1.12-3,18,18,0,0,0,.33-3.45,18.41,18.41,0,0,0-.33-3.48,9.09,9.09,0,0,0-1.12-3,6.34,6.34,0,0,0-2.13-2.14,6.21,6.21,0,0,0-3.31-.83,6.06,6.06,0,0,0-3.28.83,6.43,6.43,0,0,0-2.11,2.14,9.09,9.09,0,0,0-1.12,3,18.41,18.41,0,0,0-.33,3.48A18,18,0,0,0,464.49,171.76Z"/><path class="a" d="M495.9,153.55v4.1h0.16a9.07,9.07,0,0,1,3.83-3.73,10.72,10.72,0,0,1,4.82-1.17,12.73,12.73,0,0,1,5.12.88,7.64,7.64,0,0,1,3.15,2.45,9.7,9.7,0,0,1,1.61,3.82,24.75,24.75,0,0,1,.46,5V183h-7.77V166.37a10.7,10.7,0,0,0-1.09-5.44,4.18,4.18,0,0,0-3.89-1.8,5.29,5.29,0,0,0-4.6,2q-1.42,2-1.42,6.47V183h-7.77V153.55h7.39Z"/><path class="a" d="M527.74,174.24V183a9.1,9.1,0,0,1-2.52,6.38,9.62,9.62,0,0,1-2.71,2,11.7,11.7,0,0,1-3.31,1.05v-4.1a4.23,4.23,0,0,0,1.56-.68,5.76,5.76,0,0,0,1.29-1.23,5.07,5.07,0,0,0,.82-1.6,5,5,0,0,0,.22-1.8h-3.94v-8.78h8.59Z"/><path class="a" d="M569.17,183l-5-19.78H564L559.21,183h-8l-9-29.47h8.21l5.2,20h0.11l4.71-20H568l4.82,19.95h0.11l5.2-19.95h8L577.15,183h-8Z"/><path class="a" d="M594.94,142.32v15.33h0.16a9.16,9.16,0,0,1,3.78-3.73,9.87,9.87,0,0,1,4.49-1.17,12.73,12.73,0,0,1,5.12.88,7.64,7.64,0,0,1,3.15,2.45,9.7,9.7,0,0,1,1.61,3.82,24.75,24.75,0,0,1,.46,5V183h-7.77V166.37a10.7,10.7,0,0,0-1.09-5.44,4.18,4.18,0,0,0-3.89-1.8,5.29,5.29,0,0,0-4.6,2q-1.42,2-1.42,6.47V183h-7.77v-40.7h7.77Z"/><path class="a" d="M617.65,149v-6.67h7.77V149h-7.77Zm7.77,4.56V183h-7.77V153.55h7.77Z"/><path class="a" d="M642.87,158.85a5.3,5.3,0,0,0-3.12.88A6.91,6.91,0,0,0,637.7,162a10.1,10.1,0,0,0-1.12,3.08,17.38,17.38,0,0,0-.33,3.33,16.66,16.66,0,0,0,.33,3.25,10.31,10.31,0,0,0,1.07,3,6.27,6.27,0,0,0,2,2.19,5.32,5.32,0,0,0,3.06.85,5.57,5.57,0,0,0,4.3-1.62,7.84,7.84,0,0,0,1.89-4.36h7.5q-0.77,5.87-4.38,8.95a13.76,13.76,0,0,1-9.25,3.08,14.94,14.94,0,0,1-5.83-1.11,12.87,12.87,0,0,1-4.51-3.11,14.2,14.2,0,0,1-2.9-4.76,17.11,17.11,0,0,1-1-6.07,20.38,20.38,0,0,1,1-6.36,14.43,14.43,0,0,1,2.82-5.07,12.91,12.91,0,0,1,4.54-3.33,14.89,14.89,0,0,1,6.13-1.2,17.08,17.08,0,0,1,4.84.68,12.73,12.73,0,0,1,4.16,2.08,11,11,0,0,1,3,3.48,11.43,11.43,0,0,1,1.31,4.93h-7.61Q647.85,158.85,642.87,158.85Z"/><path class="a" d="M666.35,142.32v15.33h0.16a9.16,9.16,0,0,1,3.78-3.73,9.87,9.87,0,0,1,4.49-1.17,12.73,12.73,0,0,1,5.12.88,7.64,7.64,0,0,1,3.15,2.45,9.7,9.7,0,0,1,1.61,3.82,24.75,24.75,0,0,1,.46,5V183h-7.77V166.37a10.7,10.7,0,0,0-1.09-5.44,4.18,4.18,0,0,0-3.89-1.8,5.29,5.29,0,0,0-4.6,2q-1.42,2-1.42,6.47V183h-7.77v-40.7h7.77Z"/><path class="a" d="M712.31,191.79a10.92,10.92,0,0,1-6.24,1.54q-1.2,0-2.38-.09l-2.38-.2v-6.67l2.24,0.23a15.57,15.57,0,0,0,2.3.06,3,3,0,0,0,2.27-1.25,4.16,4.16,0,0,0,.74-2.39,5,5,0,0,0-.33-1.82l-9.9-27.65h8.26l6.4,20.18h0.11l6.18-20.18h8l-11.82,33.12A10,10,0,0,1,712.31,191.79Z"/><path class="a" d="M728.23,161.9a13.88,13.88,0,0,1,3-4.9,13.21,13.21,0,0,1,4.6-3.14,15.58,15.58,0,0,1,6-1.11,15.8,15.8,0,0,1,6,1.11,13.16,13.16,0,0,1,4.62,3.14,13.91,13.91,0,0,1,3,4.9,18.77,18.77,0,0,1,1,6.41,18.52,18.52,0,0,1-1,6.38,13.93,13.93,0,0,1-3,4.87,12.83,12.83,0,0,1-4.62,3.11,16.17,16.17,0,0,1-6,1.08,16,16,0,0,1-6-1.08,12.87,12.87,0,0,1-4.6-3.11,13.91,13.91,0,0,1-3-4.87,18.52,18.52,0,0,1-1-6.38A18.77,18.77,0,0,1,728.23,161.9Zm7.06,9.86a9.4,9.4,0,0,0,1.12,3,6.09,6.09,0,0,0,2.11,2.14,6.22,6.22,0,0,0,3.28.8,6.37,6.37,0,0,0,3.31-.8,6,6,0,0,0,2.13-2.14,9.4,9.4,0,0,0,1.12-3,18,18,0,0,0,.33-3.45,18.41,18.41,0,0,0-.33-3.48,9.09,9.09,0,0,0-1.12-3,6.34,6.34,0,0,0-2.13-2.14,6.21,6.21,0,0,0-3.31-.83,6.06,6.06,0,0,0-3.28.83,6.43,6.43,0,0,0-2.11,2.14,9.09,9.09,0,0,0-1.12,3,18.41,18.41,0,0,0-.33,3.48A18,18,0,0,0,735.29,171.76Z"/><path class="a" d="M778.47,183v-4.1H778.3a8.89,8.89,0,0,1-3.83,3.7,10.94,10.94,0,0,1-4.82,1.14,13.1,13.1,0,0,1-5.12-.85,7.41,7.41,0,0,1-3.15-2.42,9.68,9.68,0,0,1-1.61-3.82,24.67,24.67,0,0,1-.46-5V153.55h7.77v16.64a10.67,10.67,0,0,0,1.09,5.44,4.18,4.18,0,0,0,3.89,1.8,5.29,5.29,0,0,0,4.6-2q1.42-2,1.42-6.47V153.55h7.77V183h-7.39Z"/><path class="a" d="M816.11,158.85a5.3,5.3,0,0,0-3.12.88,6.91,6.91,0,0,0-2.05,2.28,10.1,10.1,0,0,0-1.12,3.08,17.38,17.38,0,0,0-.33,3.33,16.66,16.66,0,0,0,.33,3.25,10.31,10.31,0,0,0,1.07,3,6.27,6.27,0,0,0,2,2.19,5.32,5.32,0,0,0,3.06.85,5.57,5.57,0,0,0,4.3-1.62,7.84,7.84,0,0,0,1.89-4.36h7.5q-0.77,5.87-4.38,8.95a13.76,13.76,0,0,1-9.25,3.08,14.94,14.94,0,0,1-5.83-1.11,12.87,12.87,0,0,1-4.51-3.11,14.2,14.2,0,0,1-2.9-4.76,17.11,17.11,0,0,1-1-6.07,20.38,20.38,0,0,1,1-6.36,14.43,14.43,0,0,1,2.82-5.07,12.91,12.91,0,0,1,4.54-3.33,14.89,14.89,0,0,1,6.13-1.2,17.08,17.08,0,0,1,4.84.68,12.73,12.73,0,0,1,4.16,2.08,11,11,0,0,1,3,3.48,11.43,11.43,0,0,1,1.31,4.93h-7.61Q821.09,158.85,816.11,158.85Z"/><path class="a" d="M831.49,162.61a9.68,9.68,0,0,1,1.37-4.73,9.5,9.5,0,0,1,3.06-3,13,13,0,0,1,4.19-1.62,22.92,22.92,0,0,1,4.68-.48,30.54,30.54,0,0,1,4.32.31,12.86,12.86,0,0,1,4,1.23,8,8,0,0,1,3,2.54,7.31,7.31,0,0,1,1.15,4.3v15.33a32.14,32.14,0,0,0,.22,3.82,7.09,7.09,0,0,0,.77,2.74h-7.88a11.79,11.79,0,0,1-.36-1.4,12.21,12.21,0,0,1-.19-1.45,10.07,10.07,0,0,1-4.38,2.79,16.93,16.93,0,0,1-5.14.8,13.37,13.37,0,0,1-3.78-.51,8.51,8.51,0,0,1-3.06-1.6,7.37,7.37,0,0,1-2.05-2.74,9.57,9.57,0,0,1-.74-3.93,8.88,8.88,0,0,1,.85-4.13,7.29,7.29,0,0,1,2.19-2.59,9.64,9.64,0,0,1,3.06-1.45,31.78,31.78,0,0,1,3.47-.77q1.75-.28,3.45-0.46a20,20,0,0,0,3-.51,5.16,5.16,0,0,0,2.08-1,2.24,2.24,0,0,0,.71-1.91,4.45,4.45,0,0,0-.41-2.08,3.1,3.1,0,0,0-1.09-1.2,4.2,4.2,0,0,0-1.59-.57,12.55,12.55,0,0,0-1.94-.14,5.73,5.73,0,0,0-3.61,1,4.66,4.66,0,0,0-1.53,3.42h-7.77Zm17.95,6a3.45,3.45,0,0,1-1.23.71,12.2,12.2,0,0,1-1.59.43q-0.85.17-1.78,0.29t-1.86.28a13.57,13.57,0,0,0-1.72.46,5,5,0,0,0-1.48.77,3.62,3.62,0,0,0-1,1.23,4.08,4.08,0,0,0-.38,1.88,3.93,3.93,0,0,0,.38,1.82,3,3,0,0,0,1,1.17,4.28,4.28,0,0,0,1.53.6,9.39,9.39,0,0,0,1.81.17,6.64,6.64,0,0,0,3.56-.8,5.24,5.24,0,0,0,1.86-1.91,6.27,6.27,0,0,0,.74-2.25,16.22,16.22,0,0,0,.14-1.82v-3Z"/><path class="a" d="M868.42,153.55v4.1h0.16a9.07,9.07,0,0,1,3.83-3.73,10.72,10.72,0,0,1,4.82-1.17,12.73,12.73,0,0,1,5.12.88,7.64,7.64,0,0,1,3.15,2.45,9.7,9.7,0,0,1,1.61,3.82,24.75,24.75,0,0,1,.46,5V183h-7.77V166.37a10.7,10.7,0,0,0-1.09-5.44,4.18,4.18,0,0,0-3.89-1.8,5.29,5.29,0,0,0-4.6,2q-1.42,2-1.42,6.47V183H861V153.55h7.39Z"/><path class="a" d="M901.36,159v-5.42H906v-2.28a9,9,0,0,1,2.35-6.44q2.35-2.51,7.11-2.51,1,0,2.08.09l2,0.14v6a22.93,22.93,0,0,0-2.85-.17,2.91,2.91,0,0,0-2.27.77,3.89,3.89,0,0,0-.68,2.59v1.77h5.36V159h-5.36V183H906V159h-4.65Z"/><path class="a" d="M920.57,149v-6.67h7.77V149h-7.77Zm7.77,4.56V183h-7.77V153.55h7.77Z"/><path class="a" d="M939.67,153.55v4.1h0.16a9.07,9.07,0,0,1,3.83-3.73,10.72,10.72,0,0,1,4.82-1.17,12.73,12.73,0,0,1,5.12.88,7.64,7.64,0,0,1,3.15,2.45,9.7,9.7,0,0,1,1.61,3.82,24.75,24.75,0,0,1,.46,5V183H951V166.37a10.7,10.7,0,0,0-1.09-5.44,4.18,4.18,0,0,0-3.89-1.8,5.29,5.29,0,0,0-4.6,2q-1.42,2-1.42,6.47V183h-7.77V153.55h7.39Z"/><path class="a" d="M982.62,179.25A8.15,8.15,0,0,1,979,182.7a11.52,11.52,0,0,1-5,1.05,11.7,11.7,0,0,1-5.58-1.28,11.33,11.33,0,0,1-4-3.48,16,16,0,0,1-2.35-5,22,22,0,0,1-.79-5.93,20.66,20.66,0,0,1,.79-5.73,15.12,15.12,0,0,1,2.35-4.87,11.87,11.87,0,0,1,3.91-3.39,11.26,11.26,0,0,1,5.47-1.28,10.76,10.76,0,0,1,4.79,1.11,8.47,8.47,0,0,1,3.58,3.28h0.11V142.32h7.77V183h-7.39v-3.76h-0.11Zm-0.33-14.56a8.79,8.79,0,0,0-1.12-3,6.45,6.45,0,0,0-2.05-2.08,5.83,5.83,0,0,0-3.17-.8,5.87,5.87,0,0,0-5.33,2.91,9.56,9.56,0,0,0-1.15,3,16.89,16.89,0,0,0-.36,3.51,15.57,15.57,0,0,0,.38,3.42,9.51,9.51,0,0,0,1.23,3,6.94,6.94,0,0,0,2.13,2.17,5.59,5.59,0,0,0,3.09.83,5.65,5.65,0,0,0,5.25-2.94,9.82,9.82,0,0,0,1.09-3,18.71,18.71,0,0,0,.33-3.53A18.27,18.27,0,0,0,982.29,164.69Z"/><path class="a" d="M1007,149v-6.67h7.77V149H1007Zm7.77,4.56V183H1007V153.55h7.77Z"/><path class="a" d="M1026.12,153.55v4.1h0.16a9.07,9.07,0,0,1,3.83-3.73,10.72,10.72,0,0,1,4.82-1.17,12.73,12.73,0,0,1,5.12.88,7.64,7.64,0,0,1,3.15,2.45,9.7,9.7,0,0,1,1.61,3.82,24.75,24.75,0,0,1,.46,5V183h-7.77V166.37a10.7,10.7,0,0,0-1.09-5.44,4.18,4.18,0,0,0-3.89-1.8,5.29,5.29,0,0,0-4.6,2q-1.42,2-1.42,6.47V183h-7.77V153.55h7.39Z"/><path class="a" d="M1062.18,161.9a13.88,13.88,0,0,1,3-4.9,13.21,13.21,0,0,1,4.6-3.14,15.58,15.58,0,0,1,6-1.11,15.8,15.8,0,0,1,6,1.11,13.16,13.16,0,0,1,4.62,3.14,13.91,13.91,0,0,1,3,4.9,18.77,18.77,0,0,1,1,6.41,18.52,18.52,0,0,1-1,6.38,13.93,13.93,0,0,1-3,4.87,12.83,12.83,0,0,1-4.62,3.11,16.17,16.17,0,0,1-6,1.08,16,16,0,0,1-6-1.08,12.87,12.87,0,0,1-4.6-3.11,13.91,13.91,0,0,1-3-4.87,18.52,18.52,0,0,1-1-6.38A18.77,18.77,0,0,1,1062.18,161.9Zm7.06,9.86a9.4,9.4,0,0,0,1.12,3,6.09,6.09,0,0,0,2.11,2.14,6.22,6.22,0,0,0,3.28.8,6.37,6.37,0,0,0,3.31-.8,6,6,0,0,0,2.13-2.14,9.4,9.4,0,0,0,1.12-3,18,18,0,0,0,.33-3.45,18.41,18.41,0,0,0-.33-3.48,9.09,9.09,0,0,0-1.12-3,6.34,6.34,0,0,0-2.13-2.14,6.21,6.21,0,0,0-3.31-.83,6.06,6.06,0,0,0-3.28.83,6.43,6.43,0,0,0-2.11,2.14,9.09,9.09,0,0,0-1.12,3,18.41,18.41,0,0,0-.33,3.48A18,18,0,0,0,1069.24,171.76Z"/><path class="a" d="M1112.42,183v-4.1h-0.16a8.89,8.89,0,0,1-3.83,3.7,10.94,10.94,0,0,1-4.82,1.14,13.1,13.1,0,0,1-5.12-.85,7.41,7.41,0,0,1-3.15-2.42,9.68,9.68,0,0,1-1.61-3.82,24.67,24.67,0,0,1-.46-5V153.55H1101v16.64a10.67,10.67,0,0,0,1.09,5.44,4.18,4.18,0,0,0,3.89,1.8,5.29,5.29,0,0,0,4.6-2q1.42-2,1.42-6.47V153.55h7.77V183h-7.39Z"/><path class="a" d="M1130.91,153.55V159H1131a10,10,0,0,1,1.48-2.54,9.82,9.82,0,0,1,2.13-2,10.28,10.28,0,0,1,2.57-1.28,8.94,8.94,0,0,1,2.85-.46,5.85,5.85,0,0,1,1.7.28v7.52q-0.55-.11-1.31-0.2a13.34,13.34,0,0,0-1.48-.09,8,8,0,0,0-3.61.74,6.31,6.31,0,0,0-2.38,2,8.26,8.26,0,0,0-1.29,3,16.91,16.91,0,0,0-.38,3.7V183h-7.77V153.55h7.39Z"/><path class="a" d="M1162.18,175.69a4.65,4.65,0,0,0,1.34,1.54,5.62,5.62,0,0,0,1.89.88,8.53,8.53,0,0,0,2.22.29,8,8,0,0,0,1.72-.2,5.71,5.71,0,0,0,1.64-.63,3.78,3.78,0,0,0,1.23-1.14,3.09,3.09,0,0,0,.49-1.8q0-1.82-2.33-2.74a45.15,45.15,0,0,0-6.48-1.82q-1.7-.4-3.31-0.94a11.1,11.1,0,0,1-2.87-1.42,6.8,6.8,0,0,1-2-2.22,6.5,6.5,0,0,1-.77-3.28,9.17,9.17,0,0,1,1.07-4.67,8,8,0,0,1,2.82-2.88,12,12,0,0,1,3.94-1.48,23.35,23.35,0,0,1,4.49-.43,21.58,21.58,0,0,1,4.46.46,11.55,11.55,0,0,1,3.86,1.54,9.06,9.06,0,0,1,2.82,2.88,10,10,0,0,1,1.34,4.53h-7.39a3.57,3.57,0,0,0-1.7-3.16,7.51,7.51,0,0,0-3.61-.83,12.87,12.87,0,0,0-1.42.09,4.59,4.59,0,0,0-1.4.37,2.89,2.89,0,0,0-1.07.83,2.51,2.51,0,0,0,.33,3.22,5.82,5.82,0,0,0,2,1.11,24.14,24.14,0,0,0,2.82.77q1.59,0.34,3.23.74a32,32,0,0,1,3.31,1,10.76,10.76,0,0,1,2.87,1.51,7.22,7.22,0,0,1,2,2.34,7.09,7.09,0,0,1,.77,3.45,9.72,9.72,0,0,1-1.12,4.87,9.19,9.19,0,0,1-2.93,3.16,11.71,11.71,0,0,1-4.13,1.68,23.2,23.2,0,0,1-4.73.48,22.54,22.54,0,0,1-4.82-.51,12.41,12.41,0,0,1-4.19-1.71,9.59,9.59,0,0,1-3-3.16,10.21,10.21,0,0,1-1.29-4.93h7.39A4.57,4.57,0,0,0,1162.18,175.69Z"/><path class="a" d="M1190.61,142.32v15.33h0.16a9.16,9.16,0,0,1,3.78-3.73,9.87,9.87,0,0,1,4.49-1.17,12.73,12.73,0,0,1,5.12.88,7.64,7.64,0,0,1,3.15,2.45,9.7,9.7,0,0,1,1.61,3.82,24.75,24.75,0,0,1,.46,5V183h-7.77V166.37a10.7,10.7,0,0,0-1.09-5.44,4.18,4.18,0,0,0-3.89-1.8,5.29,5.29,0,0,0-4.6,2q-1.42,2-1.42,6.47V183h-7.77v-40.7h7.77Z"/><path class="a" d="M1213.26,161.9a13.88,13.88,0,0,1,3-4.9,13.21,13.21,0,0,1,4.6-3.14,15.58,15.58,0,0,1,6-1.11,15.8,15.8,0,0,1,6,1.11,13.16,13.16,0,0,1,4.62,3.14,13.91,13.91,0,0,1,3,4.9,18.77,18.77,0,0,1,1,6.41,18.52,18.52,0,0,1-1,6.38,13.93,13.93,0,0,1-3,4.87,12.83,12.83,0,0,1-4.62,3.11,16.17,16.17,0,0,1-6,1.08,16,16,0,0,1-6-1.08,12.87,12.87,0,0,1-4.6-3.11,13.91,13.91,0,0,1-3-4.87,18.52,18.52,0,0,1-1-6.38A18.77,18.77,0,0,1,1213.26,161.9Zm7.06,9.86a9.4,9.4,0,0,0,1.12,3,6.09,6.09,0,0,0,2.11,2.14,6.22,6.22,0,0,0,3.28.8,6.37,6.37,0,0,0,3.31-.8,6,6,0,0,0,2.13-2.14,9.4,9.4,0,0,0,1.12-3,18,18,0,0,0,.33-3.45,18.41,18.41,0,0,0-.33-3.48,9.09,9.09,0,0,0-1.12-3,6.34,6.34,0,0,0-2.13-2.14,6.21,6.21,0,0,0-3.31-.83,6.06,6.06,0,0,0-3.28.83,6.43,6.43,0,0,0-2.11,2.14,9.09,9.09,0,0,0-1.12,3,18.41,18.41,0,0,0-.33,3.48A18,18,0,0,0,1220.32,171.76Z"/><path class="a" d="M1251.73,153.55v3.76h0.11a8.69,8.69,0,0,1,3.61-3.48,10.71,10.71,0,0,1,4.81-1.08,11.85,11.85,0,0,1,5.75,1.31,12,12,0,0,1,4,3.48,15,15,0,0,1,2.35,5,23.29,23.29,0,0,1,.77,6,21,21,0,0,1-.77,5.7,14.76,14.76,0,0,1-2.33,4.84,11.63,11.63,0,0,1-3.88,3.36,11.31,11.31,0,0,1-5.44,1.25,10.65,10.65,0,0,1-4.84-1.11,9.28,9.28,0,0,1-3.64-3.28h-0.11v14h-7.77V153.55h7.39Zm10.1,23.37a6.35,6.35,0,0,0,2.08-2.08,8.79,8.79,0,0,0,1.12-3,18.33,18.33,0,0,0,.33-3.48,17,17,0,0,0-.36-3.48,9.49,9.49,0,0,0-1.18-3,6.71,6.71,0,0,0-2.11-2.17,5.71,5.71,0,0,0-3.15-.83,5.81,5.81,0,0,0-3.2.83,6.51,6.51,0,0,0-2.08,2.14,9.09,9.09,0,0,0-1.12,3,18.64,18.64,0,0,0-.33,3.53,17,17,0,0,0,.36,3.48,9.18,9.18,0,0,0,1.15,3,6.25,6.25,0,0,0,2.11,2.08A6.76,6.76,0,0,0,1261.83,176.92Z"/><path class="a" d="M1288.28,162.61a9.68,9.68,0,0,1,1.37-4.73,9.5,9.5,0,0,1,3.06-3,13,13,0,0,1,4.19-1.62,22.92,22.92,0,0,1,4.68-.48,30.54,30.54,0,0,1,4.32.31,12.86,12.86,0,0,1,4,1.23,8,8,0,0,1,3,2.54,7.31,7.31,0,0,1,1.15,4.3v15.33a32.14,32.14,0,0,0,.22,3.82A7.09,7.09,0,0,0,1315,183h-7.88a11.79,11.79,0,0,1-.36-1.4,12.21,12.21,0,0,1-.19-1.45,10.07,10.07,0,0,1-4.38,2.79,16.93,16.93,0,0,1-5.14.8,13.37,13.37,0,0,1-3.78-.51,8.51,8.51,0,0,1-3.06-1.6,7.37,7.37,0,0,1-2.05-2.74,9.57,9.57,0,0,1-.74-3.93,8.88,8.88,0,0,1,.85-4.13,7.29,7.29,0,0,1,2.19-2.59,9.64,9.64,0,0,1,3.06-1.45A31.78,31.78,0,0,1,1297,166q1.75-.28,3.45-0.46a20,20,0,0,0,3-.51,5.16,5.16,0,0,0,2.08-1,2.24,2.24,0,0,0,.71-1.91,4.45,4.45,0,0,0-.41-2.08,3.1,3.1,0,0,0-1.09-1.2,4.2,4.2,0,0,0-1.59-.57,12.55,12.55,0,0,0-1.94-.14,5.73,5.73,0,0,0-3.61,1,4.66,4.66,0,0,0-1.53,3.42h-7.77Zm17.95,6a3.45,3.45,0,0,1-1.23.71,12.2,12.2,0,0,1-1.59.43q-0.85.17-1.78,0.29t-1.86.28a13.57,13.57,0,0,0-1.72.46,5,5,0,0,0-1.48.77,3.62,3.62,0,0,0-1,1.23,4.08,4.08,0,0,0-.38,1.88,3.93,3.93,0,0,0,.38,1.82,3,3,0,0,0,1,1.17,4.28,4.28,0,0,0,1.53.6,9.39,9.39,0,0,0,1.81.17,6.64,6.64,0,0,0,3.56-.8,5.24,5.24,0,0,0,1.86-1.91,6.27,6.27,0,0,0,.74-2.25,16.22,16.22,0,0,0,.14-1.82v-3Z"/><path class="a" d="M1333.37,153.55V159h-5.69v14.59a4.08,4.08,0,0,0,.66,2.74,3.69,3.69,0,0,0,2.63.68q0.66,0,1.26-.06a10.21,10.21,0,0,0,1.15-.17V183a17.84,17.84,0,0,1-2.19.23q-1.2.06-2.35,0.06a21.8,21.8,0,0,1-3.42-.26,7.84,7.84,0,0,1-2.84-1,5.19,5.19,0,0,1-1.94-2.11,7.8,7.8,0,0,1-.71-3.59V159h-4.71v-5.42h4.71v-8.83h7.77v8.83h5.69Z"/><path class="a" d="M1152.69,190.14v-2.85h119.94v2.85H1152.69Z"/><path class="a" d="M98.75,213.4v5.42H93.05V233.4a4.08,4.08,0,0,0,.66,2.74,3.69,3.69,0,0,0,2.63.68q0.66,0,1.26-.06a10.2,10.2,0,0,0,1.15-.17v6.27a17.84,17.84,0,0,1-2.19.23q-1.2.06-2.35,0.06a21.8,21.8,0,0,1-3.42-.26,7.84,7.84,0,0,1-2.84-1A5.19,5.19,0,0,1,86,239.79a7.8,7.8,0,0,1-.71-3.59V218.81H80.58V213.4h4.71v-8.83h7.77v8.83h5.69Z"/><path class="a" d="M108,202.17V217.5h0.16a9.16,9.16,0,0,1,3.78-3.73,9.87,9.87,0,0,1,4.49-1.17,12.73,12.73,0,0,1,5.12.88,7.64,7.64,0,0,1,3.15,2.45,9.7,9.7,0,0,1,1.61,3.82,24.75,24.75,0,0,1,.46,5v18.13H119V226.22a10.7,10.7,0,0,0-1.09-5.44,4.18,4.18,0,0,0-3.89-1.8,5.29,5.29,0,0,0-4.6,2q-1.42,2-1.42,6.47v15.45h-7.77v-40.7H108Z"/><path class="a" d="M138.85,235.8a7.71,7.71,0,0,0,9.08.54,5.05,5.05,0,0,0,2.08-2.59h6.84q-1.64,5.3-5,7.58a14.38,14.38,0,0,1-8.21,2.28,15.58,15.58,0,0,1-6-1.11,12.49,12.49,0,0,1-4.54-3.16,14.33,14.33,0,0,1-2.87-4.9,18.59,18.59,0,0,1-1-6.27,17.83,17.83,0,0,1,1-6.16,14.53,14.53,0,0,1,3-4.93,13.92,13.92,0,0,1,4.57-3.28,14.14,14.14,0,0,1,5.88-1.2,13,13,0,0,1,6.29,1.45,12.72,12.72,0,0,1,4.4,3.9,16.38,16.38,0,0,1,2.49,5.59,21.69,21.69,0,0,1,.55,6.56H136.94Q137.1,234,138.85,235.8Zm8.78-15.5a5.34,5.34,0,0,0-4.24-1.6,6.54,6.54,0,0,0-3.09.66,5.93,5.93,0,0,0-2,1.62,6,6,0,0,0-1,2.05,9.51,9.51,0,0,0-.36,1.94h12.64A9.54,9.54,0,0,0,147.64,220.29Z"/><path class="a" d="M180.33,213.4v4h0.11a11.25,11.25,0,0,1,3.69-3.53,9.69,9.69,0,0,1,5-1.25,11,11,0,0,1,4.9,1.08,7.06,7.06,0,0,1,3.37,3.82,12.29,12.29,0,0,1,3.42-3.42,8.83,8.83,0,0,1,5.12-1.48,14.55,14.55,0,0,1,4.16.57,8.28,8.28,0,0,1,3.28,1.82,8.39,8.39,0,0,1,2.13,3.28,13.82,13.82,0,0,1,.77,4.87v19.72h-7.77v-16.7q0-1.48-.11-2.79a6.13,6.13,0,0,0-.6-2.28,3.74,3.74,0,0,0-1.45-1.54,5.08,5.08,0,0,0-2.6-.57,4.82,4.82,0,0,0-2.65.66,4.66,4.66,0,0,0-1.59,1.71,7,7,0,0,0-.77,2.39,18.93,18.93,0,0,0-.19,2.71v16.42h-7.77V226.34q0-1.31-.05-2.59a7.54,7.54,0,0,0-.47-2.37,3.62,3.62,0,0,0-1.37-1.74A5,5,0,0,0,186,219a5.61,5.61,0,0,0-1.45.26,4.76,4.76,0,0,0-1.75,1,5.65,5.65,0,0,0-1.45,2.05,8.64,8.64,0,0,0-.6,3.51v17.1H173V213.4h7.33Z"/><path class="a" d="M219.84,222.46a9.68,9.68,0,0,1,1.37-4.73,9.5,9.5,0,0,1,3.06-3,13,13,0,0,1,4.19-1.62,22.92,22.92,0,0,1,4.68-.48,30.54,30.54,0,0,1,4.32.31,12.86,12.86,0,0,1,4,1.23,8,8,0,0,1,3,2.54,7.31,7.31,0,0,1,1.15,4.3v15.33a32.14,32.14,0,0,0,.22,3.82,7.09,7.09,0,0,0,.77,2.74h-7.88a11.79,11.79,0,0,1-.36-1.4,12.21,12.21,0,0,1-.19-1.45,10.07,10.07,0,0,1-4.38,2.79,16.93,16.93,0,0,1-5.14.8,13.37,13.37,0,0,1-3.78-.51,8.51,8.51,0,0,1-3.06-1.6,7.37,7.37,0,0,1-2.05-2.74,9.57,9.57,0,0,1-.74-3.93,8.88,8.88,0,0,1,.85-4.13A7.29,7.29,0,0,1,222,228.1a9.64,9.64,0,0,1,3.06-1.45,31.78,31.78,0,0,1,3.47-.77q1.75-.28,3.45-0.46a20,20,0,0,0,3-.51,5.16,5.16,0,0,0,2.08-1,2.24,2.24,0,0,0,.71-1.91,4.45,4.45,0,0,0-.41-2.08,3.1,3.1,0,0,0-1.09-1.2,4.2,4.2,0,0,0-1.59-.57,12.55,12.55,0,0,0-1.94-.14,5.73,5.73,0,0,0-3.61,1,4.66,4.66,0,0,0-1.53,3.42h-7.77Zm17.95,6a3.45,3.45,0,0,1-1.23.71,12.2,12.2,0,0,1-1.59.43q-0.85.17-1.78,0.29t-1.86.28a13.57,13.57,0,0,0-1.72.46,5,5,0,0,0-1.48.77,3.62,3.62,0,0,0-1,1.23,4.08,4.08,0,0,0-.38,1.88,3.93,3.93,0,0,0,.38,1.82,3,3,0,0,0,1,1.17,4.28,4.28,0,0,0,1.53.6,9.39,9.39,0,0,0,1.81.17,6.64,6.64,0,0,0,3.56-.8,5.24,5.24,0,0,0,1.86-1.91,6.27,6.27,0,0,0,.74-2.25,16.22,16.22,0,0,0,.14-1.82v-3Z"/><path class="a" d="M249.61,208.84v-6.67h7.77v6.67h-7.77Zm7.77,4.56v29.47h-7.77V213.4h7.77Z"/><path class="a" d="M268.7,213.4v4.1h0.16a9.07,9.07,0,0,1,3.83-3.73,10.72,10.72,0,0,1,4.82-1.17,12.73,12.73,0,0,1,5.12.88,7.64,7.64,0,0,1,3.15,2.45,9.7,9.7,0,0,1,1.61,3.82,24.75,24.75,0,0,1,.46,5v18.13h-7.77V226.22a10.7,10.7,0,0,0-1.09-5.44,4.18,4.18,0,0,0-3.89-1.8,5.29,5.29,0,0,0-4.6,2q-1.42,2-1.42,6.47v15.45h-7.77V213.4h7.39Z"/><path class="a" d="M328.95,242.87l-5-19.78H323.8L319,242.87h-8l-9-29.47h8.21l5.2,20h0.11l4.71-20h7.55l4.82,19.95h0.11l5.2-19.95h8l-8.92,29.47h-8Z"/><path class="a" d="M355.27,235.8a7.71,7.71,0,0,0,9.08.54,5.05,5.05,0,0,0,2.08-2.59h6.84q-1.64,5.3-5,7.58a14.38,14.38,0,0,1-8.21,2.28,15.58,15.58,0,0,1-6-1.11,12.49,12.49,0,0,1-4.54-3.16,14.33,14.33,0,0,1-2.87-4.9,18.59,18.59,0,0,1-1-6.27,17.83,17.83,0,0,1,1-6.16,14.53,14.53,0,0,1,3-4.93,13.92,13.92,0,0,1,4.57-3.28,14.14,14.14,0,0,1,5.88-1.2,13,13,0,0,1,6.29,1.45,12.72,12.72,0,0,1,4.4,3.9,16.38,16.38,0,0,1,2.49,5.59,21.69,21.69,0,0,1,.55,6.56H353.35Q353.52,234,355.27,235.8Zm8.78-15.5a5.34,5.34,0,0,0-4.24-1.6,6.54,6.54,0,0,0-3.09.66,5.93,5.93,0,0,0-2,1.62,6,6,0,0,0-1,2.05,9.51,9.51,0,0,0-.36,1.94H366A9.54,9.54,0,0,0,364.05,220.29Z"/><path class="a" d="M383.94,202.17V217h0.11a8.38,8.38,0,0,1,3.86-3.33A12.61,12.61,0,0,1,393,212.6a10.42,10.42,0,0,1,4.21.91,10.82,10.82,0,0,1,3.75,2.79,14.45,14.45,0,0,1,2.71,4.82,24,24,0,0,1,0,14,14.44,14.44,0,0,1-2.71,4.82,10.81,10.81,0,0,1-3.75,2.79,10.42,10.42,0,0,1-4.21.91,14.39,14.39,0,0,1-5.58-1,7.19,7.19,0,0,1-3.72-3.48h-0.11v3.76h-7.39v-40.7h7.77Zm12.58,22.4a9.6,9.6,0,0,0-1.2-3,6.43,6.43,0,0,0-2.05-2.08,6.11,6.11,0,0,0-5.94,0,6.34,6.34,0,0,0-2.08,2.08,9.58,9.58,0,0,0-1.2,3,16.36,16.36,0,0,0-.38,3.59,16.09,16.09,0,0,0,.38,3.53,9.57,9.57,0,0,0,1.2,3,6.33,6.33,0,0,0,2.08,2.08,6.11,6.11,0,0,0,5.94,0,6.42,6.42,0,0,0,2.05-2.08,9.59,9.59,0,0,0,1.2-3,16.14,16.14,0,0,0,.38-3.53A16.42,16.42,0,0,0,396.53,224.57Z"/><path class="a" d="M414,235.54a4.65,4.65,0,0,0,1.34,1.54,5.62,5.62,0,0,0,1.89.88,8.53,8.53,0,0,0,2.22.29,8,8,0,0,0,1.72-.2,5.71,5.71,0,0,0,1.64-.63,3.78,3.78,0,0,0,1.23-1.14,3.09,3.09,0,0,0,.49-1.8q0-1.82-2.33-2.74a45.15,45.15,0,0,0-6.48-1.82q-1.7-.4-3.31-0.94a11.1,11.1,0,0,1-2.87-1.42,6.8,6.8,0,0,1-2-2.22,6.5,6.5,0,0,1-.77-3.28,9.17,9.17,0,0,1,1.07-4.67,8,8,0,0,1,2.82-2.88,12,12,0,0,1,3.94-1.48,23.35,23.35,0,0,1,4.49-.43,21.58,21.58,0,0,1,4.46.46,11.55,11.55,0,0,1,3.86,1.54,9.06,9.06,0,0,1,2.82,2.88,10,10,0,0,1,1.34,4.53h-7.39a3.57,3.57,0,0,0-1.7-3.16,7.51,7.51,0,0,0-3.61-.83,12.87,12.87,0,0,0-1.42.09,4.59,4.59,0,0,0-1.4.37,2.89,2.89,0,0,0-1.07.83,2.51,2.51,0,0,0,.33,3.22,5.82,5.82,0,0,0,2,1.11,24.14,24.14,0,0,0,2.82.77q1.59,0.34,3.23.74a32,32,0,0,1,3.31,1,10.76,10.76,0,0,1,2.87,1.51,7.22,7.22,0,0,1,2,2.34,7.09,7.09,0,0,1,.77,3.45,9.72,9.72,0,0,1-1.12,4.87,9.19,9.19,0,0,1-2.93,3.16,11.71,11.71,0,0,1-4.13,1.68,23.2,23.2,0,0,1-4.73.48,22.54,22.54,0,0,1-4.82-.51,12.41,12.41,0,0,1-4.19-1.71,9.59,9.59,0,0,1-3-3.16,10.21,10.21,0,0,1-1.29-4.93h7.39A4.57,4.57,0,0,0,414,235.54Z"/><path class="a" d="M434.83,208.84v-6.67h7.77v6.67h-7.77Zm7.77,4.56v29.47h-7.77V213.4h7.77Z"/><path class="a" d="M462.08,213.4v5.42h-5.69V233.4a4.08,4.08,0,0,0,.66,2.74,3.69,3.69,0,0,0,2.63.68q0.66,0,1.26-.06a10.2,10.2,0,0,0,1.15-.17v6.27a17.84,17.84,0,0,1-2.19.23q-1.2.06-2.35,0.06a21.8,21.8,0,0,1-3.42-.26,7.84,7.84,0,0,1-2.84-1,5.19,5.19,0,0,1-1.94-2.11,7.8,7.8,0,0,1-.71-3.59V218.81h-4.71V213.4h4.71v-8.83h7.77v8.83h5.69Z"/><path class="a" d="M471.93,235.8a7.71,7.71,0,0,0,9.08.54,5.05,5.05,0,0,0,2.08-2.59h6.84q-1.64,5.3-5,7.58a14.38,14.38,0,0,1-8.21,2.28,15.58,15.58,0,0,1-6-1.11,12.49,12.49,0,0,1-4.54-3.16,14.33,14.33,0,0,1-2.87-4.9,18.59,18.59,0,0,1-1-6.27,17.83,17.83,0,0,1,1-6.16,14.53,14.53,0,0,1,3-4.93,13.92,13.92,0,0,1,4.57-3.28,14.14,14.14,0,0,1,5.88-1.2,13,13,0,0,1,6.29,1.45,12.72,12.72,0,0,1,4.4,3.9,16.38,16.38,0,0,1,2.49,5.59,21.69,21.69,0,0,1,.55,6.56H470Q470.18,234,471.93,235.8Zm8.78-15.5a5.34,5.34,0,0,0-4.24-1.6,6.54,6.54,0,0,0-3.09.66,5.93,5.93,0,0,0-2,1.62,6,6,0,0,0-1,2.05A9.51,9.51,0,0,0,470,225h12.64A9.54,9.54,0,0,0,480.71,220.29Z"/><path class="a" d="M501.75,234.09v8.78h-8.59v-8.78h8.59Z"/><path class="a" d="M591.07,387.43v-4.26h18.14v4.26h-6.64v18.8H597.7v-18.8h-6.64Z"/><path class="a" d="M613,383.17v8.69h0.09a5.19,5.19,0,0,1,2.14-2.12,5.59,5.59,0,0,1,2.54-.66,7.21,7.21,0,0,1,2.9.5,4.33,4.33,0,0,1,1.78,1.39,5.51,5.51,0,0,1,.92,2.16,14.07,14.07,0,0,1,.26,2.83v10.27h-4.4V396.8a6.06,6.06,0,0,0-.62-3.08,2.37,2.37,0,0,0-2.2-1,3,3,0,0,0-2.6,1.11,6.39,6.39,0,0,0-.81,3.67v8.75h-4.4V383.17H613Z"/><path class="a" d="M624.15,394.67a5.49,5.49,0,0,1,.78-2.68,5.37,5.37,0,0,1,1.74-1.71,7.38,7.38,0,0,1,2.37-.92,13,13,0,0,1,2.65-.27,17.3,17.3,0,0,1,2.45.18,7.28,7.28,0,0,1,2.26.69,4.51,4.51,0,0,1,1.67,1.44,4.14,4.14,0,0,1,.65,2.44v8.69a18.09,18.09,0,0,0,.12,2.16,4,4,0,0,0,.43,1.55h-4.46a6.74,6.74,0,0,1-.2-0.79,7.09,7.09,0,0,1-.11-0.82A5.7,5.7,0,0,1,632,406.2a9.59,9.59,0,0,1-2.92.45,7.57,7.57,0,0,1-2.14-.29,4.82,4.82,0,0,1-1.74-.9,4.18,4.18,0,0,1-1.16-1.55,5.43,5.43,0,0,1-.42-2.23,5,5,0,0,1,.48-2.34,4.14,4.14,0,0,1,1.24-1.47,5.47,5.47,0,0,1,1.74-.82,18,18,0,0,1,2-.44q1-.16,2-0.26a11.3,11.3,0,0,0,1.71-.29,2.92,2.92,0,0,0,1.18-.57,1.27,1.27,0,0,0,.4-1.08,2.53,2.53,0,0,0-.23-1.18,1.76,1.76,0,0,0-.62-0.68,2.38,2.38,0,0,0-.9-0.32,7.12,7.12,0,0,0-1.1-.08,3.25,3.25,0,0,0-2,.58,2.64,2.64,0,0,0-.87,1.94h-4.4Zm10.17,3.39a2,2,0,0,1-.7.4,6.85,6.85,0,0,1-.9.24q-0.48.1-1,.16c-0.35,0-.7.1-1.05,0.16a7.69,7.69,0,0,0-1,.26,2.84,2.84,0,0,0-.84.44,2,2,0,0,0-.57.69,2.32,2.32,0,0,0-.22,1.07,2.23,2.23,0,0,0,.22,1,1.71,1.71,0,0,0,.59.66,2.43,2.43,0,0,0,.87.34,5.32,5.32,0,0,0,1,.1,3.76,3.76,0,0,0,2-.45,3,3,0,0,0,1.05-1.08,3.57,3.57,0,0,0,.42-1.28,9.13,9.13,0,0,0,.08-1v-1.71Z"/><path class="a" d="M643.65,389.53v2.33h0.09a5.15,5.15,0,0,1,2.17-2.12,6.07,6.07,0,0,1,2.73-.66,7.21,7.21,0,0,1,2.9.5,4.33,4.33,0,0,1,1.78,1.39,5.51,5.51,0,0,1,.92,2.16,14.07,14.07,0,0,1,.26,2.83v10.27h-4.4V396.8a6.06,6.06,0,0,0-.62-3.08,2.37,2.37,0,0,0-2.2-1,3,3,0,0,0-2.6,1.11,6.39,6.39,0,0,0-.81,3.67v8.75h-4.4v-16.7h4.19Z"/><path class="a" d="M660,383.17v12.37l5.55-6h5.21l-6,6.14,6.73,10.56H666.1l-4.4-7.46L660,400.48v5.75h-4.4V383.17H660Z"/><path class="a" d="M674.35,383.17h5.46l5.18,9.11,5.15-9.11h5.43l-8.22,14.21v8.85h-4.87v-9Z"/><path class="a" d="M690.94,394.27a7.87,7.87,0,0,1,1.67-2.78,7.49,7.49,0,0,1,2.61-1.78,8.83,8.83,0,0,1,3.41-.63,9,9,0,0,1,3.43.63,7.46,7.46,0,0,1,2.62,1.78,7.89,7.89,0,0,1,1.67,2.78,10.64,10.64,0,0,1,.59,3.63,10.5,10.5,0,0,1-.59,3.62,7.9,7.9,0,0,1-1.67,2.76,7.27,7.27,0,0,1-2.62,1.76,9.17,9.17,0,0,1-3.43.61,9,9,0,0,1-3.41-.61,7.29,7.29,0,0,1-2.61-1.76,7.89,7.89,0,0,1-1.67-2.76,10.5,10.5,0,0,1-.59-3.62A10.64,10.64,0,0,1,690.94,394.27Zm4,5.59a5.33,5.33,0,0,0,.64,1.71,3.44,3.44,0,0,0,1.19,1.21,3.52,3.52,0,0,0,1.86.45,3.61,3.61,0,0,0,1.88-.45,3.41,3.41,0,0,0,1.21-1.21,5.35,5.35,0,0,0,.64-1.71,10.17,10.17,0,0,0,.19-2,10.43,10.43,0,0,0-.19-2,5.18,5.18,0,0,0-.64-1.71,3.6,3.6,0,0,0-1.21-1.21,3.52,3.52,0,0,0-1.88-.47,3.43,3.43,0,0,0-1.86.47,3.64,3.64,0,0,0-1.19,1.21,5.15,5.15,0,0,0-.64,1.71,10.43,10.43,0,0,0-.19,2A10.17,10.17,0,0,0,694.94,399.85Z"/><path class="a" d="M718,406.23v-2.33h-0.09a5,5,0,0,1-2.17,2.1,6.2,6.2,0,0,1-2.73.65,7.42,7.42,0,0,1-2.9-.48,4.2,4.2,0,0,1-1.78-1.37,5.48,5.48,0,0,1-.91-2.16,13.92,13.92,0,0,1-.26-2.83V389.53h4.4V399a6.06,6.06,0,0,0,.62,3.08,2.37,2.37,0,0,0,2.2,1A3,3,0,0,0,717,402a6.4,6.4,0,0,0,.81-3.67v-8.75h4.4v16.7H718Z"/><path class="a" d="M739,382.62l-8.65,24.13h-3.5l8.62-24.13H739Z"/><path class="a" d="M747.78,400.55a3.62,3.62,0,0,0,1.07,1.31,4.54,4.54,0,0,0,1.57.74,7.12,7.12,0,0,0,1.86.24,9.27,9.27,0,0,0,1.4-.11,4.71,4.71,0,0,0,1.4-.44,3.06,3.06,0,0,0,1.08-.89,2.29,2.29,0,0,0,.43-1.44,2.07,2.07,0,0,0-.57-1.52,4.53,4.53,0,0,0-1.5-1,14.59,14.59,0,0,0-2.11-.68q-1.18-.29-2.39-0.65a20.44,20.44,0,0,1-2.42-.79,8.19,8.19,0,0,1-2.11-1.21,5.63,5.63,0,0,1-1.5-1.86,5.83,5.83,0,0,1-.57-2.7,6.24,6.24,0,0,1,.73-3.08,6.77,6.77,0,0,1,1.91-2.18,8.17,8.17,0,0,1,2.67-1.29,10.93,10.93,0,0,1,3-.42,13.55,13.55,0,0,1,3.33.4,8.17,8.17,0,0,1,2.84,1.31,6.55,6.55,0,0,1,2,2.31,7.33,7.33,0,0,1,.73,3.41h-4.71a4.23,4.23,0,0,0-.42-1.71,2.82,2.82,0,0,0-.95-1.07,3.92,3.92,0,0,0-1.35-.55,8,8,0,0,0-1.66-.16,5.5,5.5,0,0,0-1.18.13,3.09,3.09,0,0,0-1.07.45,2.73,2.73,0,0,0-.79.81,2.23,2.23,0,0,0-.31,1.23,2.14,2.14,0,0,0,.25,1.1,2.23,2.23,0,0,0,1,.78,12.07,12.07,0,0,0,2,.71l3.36,0.9q0.62,0.13,1.72.47a8.11,8.11,0,0,1,2.19,1.08,6.75,6.75,0,0,1,1.88,2,5.83,5.83,0,0,1,.79,3.18,7.3,7.3,0,0,1-.59,2.94,6.36,6.36,0,0,1-1.75,2.34,8.3,8.3,0,0,1-2.88,1.53,13.13,13.13,0,0,1-4,.55,13.47,13.47,0,0,1-3.55-.47,8.77,8.77,0,0,1-3-1.47,7.18,7.18,0,0,1-2.09-2.55,7.89,7.89,0,0,1-.74-3.68h4.71A4.38,4.38,0,0,0,747.78,400.55Z"/><path class="a" d="M769.85,389.53v3.07h-3.22v8.27a2.31,2.31,0,0,0,.37,1.55,2.09,2.09,0,0,0,1.49.39q0.37,0,.71,0a5.81,5.81,0,0,0,.65-0.1v3.55a10.08,10.08,0,0,1-1.24.13q-0.68,0-1.33,0a12.34,12.34,0,0,1-1.94-.15,4.45,4.45,0,0,1-1.61-.57,2.94,2.94,0,0,1-1.1-1.2,4.42,4.42,0,0,1-.4-2V392.6h-2.67v-3.07h2.67v-5h4.4v5h3.22Z"/><path class="a" d="M773.48,389.53v3.1h0.06a5.67,5.67,0,0,1,.84-1.44,5.57,5.57,0,0,1,1.21-1.13,5.83,5.83,0,0,1,1.46-.73,5.07,5.07,0,0,1,1.61-.26,3.31,3.31,0,0,1,1,.16v4.26q-0.31-.06-0.74-0.11a7.55,7.55,0,0,0-.84,0,4.54,4.54,0,0,0-2,.42,3.58,3.58,0,0,0-1.35,1.15,4.69,4.69,0,0,0-.73,1.7,9.55,9.55,0,0,0-.22,2.1v7.53h-4.4v-16.7h4.19Z"/><path class="a" d="M778.82,387v-3.78h4.4V387h-4.4Zm4.4,2.58v16.7h-4.4v-16.7h4.4Z"/><path class="a" d="M788.21,389.53v2.13h0.06a4.92,4.92,0,0,1,2-2,6.07,6.07,0,0,1,2.73-.61,6.72,6.72,0,0,1,3.25.74,6.8,6.8,0,0,1,2.26,2,8.49,8.49,0,0,1,1.33,2.86,13.21,13.21,0,0,1,.43,3.41,11.94,11.94,0,0,1-.43,3.23,8.36,8.36,0,0,1-1.32,2.75,6.6,6.6,0,0,1-2.2,1.91,6.41,6.41,0,0,1-3.08.71,6,6,0,0,1-2.75-.63,5.26,5.26,0,0,1-2.06-1.86h-0.06v7.91H784V389.53h4.19Zm5.72,13.24a3.59,3.59,0,0,0,1.18-1.18,5,5,0,0,0,.64-1.7,10.43,10.43,0,0,0,.19-2,9.69,9.69,0,0,0-.2-2,5.37,5.37,0,0,0-.67-1.73,3.79,3.79,0,0,0-1.19-1.23,3.23,3.23,0,0,0-1.78-.47,3.29,3.29,0,0,0-1.81.47,3.7,3.7,0,0,0-1.18,1.21,5.15,5.15,0,0,0-.64,1.71,10.6,10.6,0,0,0-.19,2,9.62,9.62,0,0,0,.2,2,5.2,5.2,0,0,0,.65,1.7,3.54,3.54,0,0,0,1.19,1.18A3.83,3.83,0,0,0,793.93,402.78Z"/><path class="a" d="M805,402.23a4.37,4.37,0,0,0,5.15.31,2.86,2.86,0,0,0,1.18-1.47h3.88a7.67,7.67,0,0,1-2.85,4.3,8.14,8.14,0,0,1-4.65,1.29,8.83,8.83,0,0,1-3.41-.63,7.08,7.08,0,0,1-2.57-1.79,8.13,8.13,0,0,1-1.63-2.78,10.54,10.54,0,0,1-.57-3.55,10.11,10.11,0,0,1,.59-3.49,8.24,8.24,0,0,1,1.67-2.79,7.87,7.87,0,0,1,2.59-1.86,8,8,0,0,1,3.33-.68,7.38,7.38,0,0,1,3.57.82,7.21,7.21,0,0,1,2.5,2.21,9.28,9.28,0,0,1,1.41,3.17,12.26,12.26,0,0,1,.31,3.71H803.93A4.75,4.75,0,0,0,805,402.23Zm5-8.79a3,3,0,0,0-2.4-.9,3.71,3.71,0,0,0-1.75.37,3.37,3.37,0,0,0-1.12.92,3.43,3.43,0,0,0-.59,1.16,5.34,5.34,0,0,0-.2,1.1h7.16A5.4,5.4,0,0,0,810,393.44Z"/><path class="a" d="M819.14,402.08a2.64,2.64,0,0,0,.76.87,3.19,3.19,0,0,0,1.07.5,4.83,4.83,0,0,0,1.26.16,4.52,4.52,0,0,0,1-.11,3.24,3.24,0,0,0,.93-0.36,2.15,2.15,0,0,0,.7-0.65,1.75,1.75,0,0,0,.28-1,1.7,1.7,0,0,0-1.32-1.55,25.56,25.56,0,0,0-3.67-1q-1-.23-1.88-0.53a6.3,6.3,0,0,1-1.63-.81,3.87,3.87,0,0,1-1.15-1.26,3.69,3.69,0,0,1-.43-1.86,5.19,5.19,0,0,1,.6-2.65,4.56,4.56,0,0,1,1.6-1.63,6.83,6.83,0,0,1,2.23-.84,13.24,13.24,0,0,1,2.54-.24,12.24,12.24,0,0,1,2.53.26,6.54,6.54,0,0,1,2.19.87,5.13,5.13,0,0,1,1.6,1.63,5.66,5.66,0,0,1,.76,2.57h-4.19a2,2,0,0,0-1-1.79,4.26,4.26,0,0,0-2-.47,7.27,7.27,0,0,0-.81,0,2.6,2.6,0,0,0-.79.21,1.63,1.63,0,0,0-.6.47,1.42,1.42,0,0,0,.19,1.82,3.31,3.31,0,0,0,1.13.63,13.66,13.66,0,0,0,1.6.44l1.83,0.42a18.2,18.2,0,0,1,1.88.55,6.1,6.1,0,0,1,1.63.86,4.11,4.11,0,0,1,1.15,1.32,4,4,0,0,1,.43,2,5.5,5.5,0,0,1-.64,2.76,5.21,5.21,0,0,1-1.66,1.79,6.63,6.63,0,0,1-2.34,1,13.15,13.15,0,0,1-2.68.27,12.77,12.77,0,0,1-2.73-.29,7,7,0,0,1-2.37-1,5.44,5.44,0,0,1-1.71-1.79,5.79,5.79,0,0,1-.73-2.79h4.19A2.6,2.6,0,0,0,819.14,402.08Z"/><path class="a" d="M834.47,401.26v5H829.6v-5h4.87Z"/><path class="a" d="M590.66,410.27v-1.61h243v1.61h-243Z"/></svg>