<svg xmlns="http://www.w3.org/2000/svg" viewBox="0 0 1425 720"><defs><style>.a{fill:#fff;}</style></defs><title>thebookofstripes.com_00</title><path class="a" d="M554.83,695.6a2.77,2.77,0,0,0,.8.92,3.35,3.35,0,0,0,1.13.53,5.1,5.1,0,0,0,1.32.17,4.74,4.74,0,0,0,1-.12,3.41,3.41,0,0,0,1-.37,2.26,2.26,0,0,0,.73-0.68,1.85,1.85,0,0,0,.29-1.07,1.79,1.79,0,0,0-1.39-1.63,26.9,26.9,0,0,0-3.87-1.09q-1-.24-2-0.56a6.62,6.62,0,0,1-1.71-.85,4.06,4.06,0,0,1-1.21-1.33,3.88,3.88,0,0,1-.46-2,5.46,5.46,0,0,1,.64-2.79,4.79,4.79,0,0,1,1.68-1.72,7.19,7.19,0,0,1,2.35-.88,13.9,13.9,0,0,1,2.68-.26,12.86,12.86,0,0,1,2.66.27,6.89,6.89,0,0,1,2.3.92,5.4,5.4,0,0,1,1.68,1.72,5.94,5.94,0,0,1,.8,2.7h-4.41a2.13,2.13,0,0,0-1-1.89,4.48,4.48,0,0,0-2.15-.49,7.62,7.62,0,0,0-.85.05,2.74,2.74,0,0,0-.83.22,1.72,1.72,0,0,0-.64.49,1.49,1.49,0,0,0,.2,1.92,3.48,3.48,0,0,0,1.19.66,14.37,14.37,0,0,0,1.68.46l1.93,0.44a19.2,19.2,0,0,1,2,.58,6.42,6.42,0,0,1,1.71.9,4.3,4.3,0,0,1,1.21,1.39,4.23,4.23,0,0,1,.46,2.06,5.8,5.8,0,0,1-.67,2.91,5.48,5.48,0,0,1-1.75,1.89,7,7,0,0,1-2.46,1,13.83,13.83,0,0,1-2.82.29,13.46,13.46,0,0,1-2.87-.31,7.41,7.41,0,0,1-2.5-1,5.72,5.72,0,0,1-1.8-1.89,6.09,6.09,0,0,1-.77-2.94h4.41A2.73,2.73,0,0,0,554.83,695.6Z"/><path class="a" d="M574.92,682.39v3.23h-3.39v8.7a2.44,2.44,0,0,0,.39,1.63,2.21,2.21,0,0,0,1.57.41q0.39,0,.75,0a6,6,0,0,0,.69-0.1V700a10.68,10.68,0,0,1-1.31.14q-0.72,0-1.4,0a13,13,0,0,1-2-.15,4.68,4.68,0,0,1-1.7-.6,3.09,3.09,0,0,1-1.16-1.26,4.65,4.65,0,0,1-.42-2.14V685.62h-2.81v-3.23h2.81v-5.27h4.63v5.27h3.39Z"/><path class="a" d="M578.74,682.39v3.26h0.07a6,6,0,0,1,.88-1.51A5.87,5.87,0,0,1,581,683a6.14,6.14,0,0,1,1.53-.77,5.34,5.34,0,0,1,1.7-.27,3.5,3.5,0,0,1,1,.17v4.49q-0.33-.07-0.78-0.12a8,8,0,0,0-.88-0.05,4.77,4.77,0,0,0-2.15.44,3.77,3.77,0,0,0-1.42,1.21,4.91,4.91,0,0,0-.77,1.79A10.1,10.1,0,0,0,579,692V700h-4.63V682.39h4.41Z"/><path class="a" d="M584.35,679.67v-4H589v4h-4.63Zm4.63,2.72V700h-4.63V682.39H589Z"/><path class="a" d="M594.24,682.39v2.24h0.07a5.19,5.19,0,0,1,2.15-2.07,6.39,6.39,0,0,1,2.87-.65,7.08,7.08,0,0,1,3.43.78,7.17,7.17,0,0,1,2.38,2.07,8.93,8.93,0,0,1,1.4,3,13.89,13.89,0,0,1,.46,3.59,12.55,12.55,0,0,1-.46,3.4,8.8,8.8,0,0,1-1.39,2.89,6.94,6.94,0,0,1-2.32,2,6.74,6.74,0,0,1-3.25.75,6.34,6.34,0,0,1-2.89-.66,5.53,5.53,0,0,1-2.17-2h-0.07v8.33h-4.63V682.39h4.41Zm6,13.94a3.79,3.79,0,0,0,1.24-1.24,5.25,5.25,0,0,0,.67-1.79,11,11,0,0,0,.2-2.07,10.15,10.15,0,0,0-.21-2.07,5.66,5.66,0,0,0-.7-1.82A4,4,0,0,0,600.2,686a3.4,3.4,0,0,0-1.88-.49,3.46,3.46,0,0,0-1.91.49,3.89,3.89,0,0,0-1.24,1.27,5.41,5.41,0,0,0-.67,1.8,11.14,11.14,0,0,0-.2,2.11,10.14,10.14,0,0,0,.21,2.07,5.5,5.5,0,0,0,.69,1.79,3.73,3.73,0,0,0,1.26,1.24A4,4,0,0,0,600.26,696.33Z"/><path class="a" d="M611.93,695.75a4.6,4.6,0,0,0,5.42.32,3,3,0,0,0,1.24-1.55h4.08a8.07,8.07,0,0,1-3,4.52,8.57,8.57,0,0,1-4.9,1.36,9.28,9.28,0,0,1-3.59-.66,7.45,7.45,0,0,1-2.71-1.89,8.55,8.55,0,0,1-1.71-2.92,11.08,11.08,0,0,1-.6-3.74,10.62,10.62,0,0,1,.62-3.67,8.67,8.67,0,0,1,1.76-2.94,8.3,8.3,0,0,1,2.73-2,8.44,8.44,0,0,1,3.51-.71,7.76,7.76,0,0,1,3.75.87,7.59,7.59,0,0,1,2.63,2.33,9.77,9.77,0,0,1,1.48,3.33,12.94,12.94,0,0,1,.33,3.91H610.79A5,5,0,0,0,611.93,695.75Zm5.24-9.25a3.18,3.18,0,0,0-2.53-1,3.9,3.9,0,0,0-1.84.39,3.55,3.55,0,0,0-1.17,1,3.6,3.6,0,0,0-.62,1.22,5.69,5.69,0,0,0-.21,1.16h7.54A5.7,5.7,0,0,0,617.17,686.51Z"/><path class="a" d="M626.8,695.6a2.79,2.79,0,0,0,.8.92,3.36,3.36,0,0,0,1.13.53,5.11,5.11,0,0,0,1.32.17,4.76,4.76,0,0,0,1-.12,3.4,3.4,0,0,0,1-.37,2.25,2.25,0,0,0,.73-0.68,1.84,1.84,0,0,0,.29-1.07,1.79,1.79,0,0,0-1.39-1.63,27,27,0,0,0-3.87-1.09q-1-.24-2-0.56a6.63,6.63,0,0,1-1.71-.85,4,4,0,0,1-1.21-1.33,3.87,3.87,0,0,1-.46-2,5.47,5.47,0,0,1,.64-2.79,4.79,4.79,0,0,1,1.68-1.72,7.19,7.19,0,0,1,2.35-.88,13.9,13.9,0,0,1,2.68-.26,12.87,12.87,0,0,1,2.66.27,6.89,6.89,0,0,1,2.3.92,5.39,5.39,0,0,1,1.68,1.72,5.94,5.94,0,0,1,.8,2.7h-4.41a2.13,2.13,0,0,0-1-1.89,4.48,4.48,0,0,0-2.15-.49,7.65,7.65,0,0,0-.85.05,2.74,2.74,0,0,0-.83.22,1.72,1.72,0,0,0-.64.49,1.5,1.5,0,0,0,.2,1.92,3.47,3.47,0,0,0,1.19.66,14.31,14.31,0,0,0,1.68.46l1.93,0.44a19.35,19.35,0,0,1,2,.58,6.42,6.42,0,0,1,1.71.9,4.31,4.31,0,0,1,1.21,1.39,4.23,4.23,0,0,1,.46,2.06,5.79,5.79,0,0,1-.67,2.91,5.49,5.49,0,0,1-1.75,1.89,7,7,0,0,1-2.46,1,13.84,13.84,0,0,1-2.82.29,13.47,13.47,0,0,1-2.87-.31,7.42,7.42,0,0,1-2.5-1,5.72,5.72,0,0,1-1.79-1.89,6.09,6.09,0,0,1-.77-2.94h4.41A2.73,2.73,0,0,0,626.8,695.6Z"/><path class="a" d="M641.52,695.6a2.79,2.79,0,0,0,.8.92,3.36,3.36,0,0,0,1.13.53,5.11,5.11,0,0,0,1.32.17,4.76,4.76,0,0,0,1-.12,3.4,3.4,0,0,0,1-.37,2.25,2.25,0,0,0,.73-0.68,1.84,1.84,0,0,0,.29-1.07,1.79,1.79,0,0,0-1.39-1.63,27,27,0,0,0-3.87-1.09q-1-.24-2-0.56a6.63,6.63,0,0,1-1.71-.85,4,4,0,0,1-1.21-1.33,3.87,3.87,0,0,1-.46-2,5.47,5.47,0,0,1,.64-2.79,4.79,4.79,0,0,1,1.68-1.72,7.19,7.19,0,0,1,2.35-.88,13.9,13.9,0,0,1,2.68-.26,12.87,12.87,0,0,1,2.66.27,6.89,6.89,0,0,1,2.3.92,5.39,5.39,0,0,1,1.68,1.72,5.94,5.94,0,0,1,.8,2.7h-4.41a2.13,2.13,0,0,0-1-1.89,4.48,4.48,0,0,0-2.15-.49,7.65,7.65,0,0,0-.85.05,2.74,2.74,0,0,0-.83.22,1.72,1.72,0,0,0-.64.49,1.5,1.5,0,0,0,.2,1.92,3.47,3.47,0,0,0,1.19.66,14.31,14.31,0,0,0,1.68.46l1.93,0.44a19.35,19.35,0,0,1,2,.58,6.42,6.42,0,0,1,1.71.9,4.31,4.31,0,0,1,1.21,1.39,4.23,4.23,0,0,1,.46,2.06,5.79,5.79,0,0,1-.67,2.91,5.49,5.49,0,0,1-1.75,1.89,7,7,0,0,1-2.46,1,13.84,13.84,0,0,1-2.82.29,13.47,13.47,0,0,1-2.87-.31,7.42,7.42,0,0,1-2.5-1,5.72,5.72,0,0,1-1.79-1.89,6.09,6.09,0,0,1-.77-2.94h4.41A2.73,2.73,0,0,0,641.52,695.6Z"/><path class="a" d="M661.61,682.39v3.23h-3.39v8.7a2.44,2.44,0,0,0,.39,1.63,2.2,2.2,0,0,0,1.57.41q0.39,0,.75,0a6,6,0,0,0,.69-0.1V700a10.68,10.68,0,0,1-1.31.14q-0.72,0-1.4,0a13,13,0,0,1-2-.15,4.67,4.67,0,0,1-1.7-.6,3.09,3.09,0,0,1-1.16-1.26,4.65,4.65,0,0,1-.42-2.14V685.62h-2.81v-3.23h2.81v-5.27h4.63v5.27h3.39Z"/><path class="a" d="M665.43,682.39v3.26h0.07a6,6,0,0,1,.88-1.51,5.87,5.87,0,0,1,1.27-1.19,6.14,6.14,0,0,1,1.53-.77,5.34,5.34,0,0,1,1.7-.27,3.5,3.5,0,0,1,1,.17v4.49q-0.33-.07-0.78-0.12a8,8,0,0,0-.88-0.05,4.77,4.77,0,0,0-2.15.44,3.77,3.77,0,0,0-1.42,1.21,4.91,4.91,0,0,0-.77,1.79,10.1,10.1,0,0,0-.23,2.21V700H661V682.39h4.41Z"/><path class="a" d="M671,679.67v-4h4.63v4H671Zm4.63,2.72V700H671V682.39h4.63Z"/><path class="a" d="M680.93,682.39v2.24H681a5.19,5.19,0,0,1,2.15-2.07,6.39,6.39,0,0,1,2.87-.65,7.08,7.08,0,0,1,3.43.78,7.17,7.17,0,0,1,2.38,2.07,8.93,8.93,0,0,1,1.4,3,13.89,13.89,0,0,1,.46,3.59,12.55,12.55,0,0,1-.46,3.4,8.8,8.8,0,0,1-1.39,2.89,6.94,6.94,0,0,1-2.32,2,6.74,6.74,0,0,1-3.25.75,6.34,6.34,0,0,1-2.89-.66,5.53,5.53,0,0,1-2.17-2h-0.07v8.33h-4.63V682.39h4.41Zm6,13.94a3.79,3.79,0,0,0,1.24-1.24,5.25,5.25,0,0,0,.67-1.79,11,11,0,0,0,.2-2.07,10.15,10.15,0,0,0-.21-2.07,5.66,5.66,0,0,0-.7-1.82,4,4,0,0,0-1.26-1.29,3.4,3.4,0,0,0-1.88-.49,3.46,3.46,0,0,0-1.91.49,3.89,3.89,0,0,0-1.24,1.27,5.41,5.41,0,0,0-.67,1.8,11.14,11.14,0,0,0-.2,2.11,10.14,10.14,0,0,0,.21,2.07,5.5,5.5,0,0,0,.69,1.79,3.73,3.73,0,0,0,1.26,1.24A4,4,0,0,0,687,696.33Z"/><path class="a" d="M698.62,695.75a4.6,4.6,0,0,0,5.42.32,3,3,0,0,0,1.24-1.55h4.08a8.07,8.07,0,0,1-3,4.52,8.57,8.57,0,0,1-4.9,1.36,9.28,9.28,0,0,1-3.59-.66,7.45,7.45,0,0,1-2.71-1.89,8.55,8.55,0,0,1-1.71-2.92,11.08,11.08,0,0,1-.6-3.74,10.62,10.62,0,0,1,.62-3.67,8.67,8.67,0,0,1,1.76-2.94,8.3,8.3,0,0,1,2.73-2,8.44,8.44,0,0,1,3.51-.71,7.76,7.76,0,0,1,3.75.87,7.59,7.59,0,0,1,2.63,2.33,9.77,9.77,0,0,1,1.48,3.33,12.94,12.94,0,0,1,.33,3.91H697.48A5,5,0,0,0,698.62,695.75Zm5.24-9.25a3.18,3.18,0,0,0-2.53-1,3.9,3.9,0,0,0-1.84.39,3.55,3.55,0,0,0-1.17,1,3.6,3.6,0,0,0-.62,1.22,5.69,5.69,0,0,0-.21,1.16H705A5.7,5.7,0,0,0,703.86,686.51Z"/><path class="a" d="M713.49,695.6a2.77,2.77,0,0,0,.8.92,3.35,3.35,0,0,0,1.13.53,5.1,5.1,0,0,0,1.32.17,4.74,4.74,0,0,0,1-.12,3.41,3.41,0,0,0,1-.37,2.26,2.26,0,0,0,.73-0.68,1.85,1.85,0,0,0,.29-1.07,1.79,1.79,0,0,0-1.39-1.63,26.9,26.9,0,0,0-3.87-1.09q-1-.24-2-0.56a6.62,6.62,0,0,1-1.71-.85,4.06,4.06,0,0,1-1.21-1.33,3.88,3.88,0,0,1-.46-2,5.46,5.46,0,0,1,.64-2.79,4.79,4.79,0,0,1,1.68-1.72,7.19,7.19,0,0,1,2.35-.88,13.9,13.9,0,0,1,2.68-.26,12.86,12.86,0,0,1,2.66.27,6.89,6.89,0,0,1,2.3.92,5.4,5.4,0,0,1,1.68,1.72,5.94,5.94,0,0,1,.8,2.7h-4.41a2.13,2.13,0,0,0-1-1.89,4.48,4.48,0,0,0-2.15-.49,7.62,7.62,0,0,0-.85.05,2.74,2.74,0,0,0-.83.22,1.72,1.72,0,0,0-.64.49,1.49,1.49,0,0,0,.2,1.92,3.48,3.48,0,0,0,1.19.66,14.37,14.37,0,0,0,1.68.46l1.93,0.44a19.2,19.2,0,0,1,2,.58,6.42,6.42,0,0,1,1.71.9,4.3,4.3,0,0,1,1.21,1.39,4.23,4.23,0,0,1,.46,2.06,5.8,5.8,0,0,1-.67,2.91,5.48,5.48,0,0,1-1.75,1.89,7,7,0,0,1-2.46,1,13.83,13.83,0,0,1-2.82.29,13.46,13.46,0,0,1-2.87-.31,7.41,7.41,0,0,1-2.5-1,5.72,5.72,0,0,1-1.8-1.89,6.09,6.09,0,0,1-.77-2.94h4.41A2.73,2.73,0,0,0,713.49,695.6Z"/><path class="a" d="M728.21,695.6a2.79,2.79,0,0,0,.8.92,3.36,3.36,0,0,0,1.13.53,5.11,5.11,0,0,0,1.32.17,4.76,4.76,0,0,0,1-.12,3.4,3.4,0,0,0,1-.37,2.25,2.25,0,0,0,.73-0.68,1.84,1.84,0,0,0,.29-1.07,1.79,1.79,0,0,0-1.39-1.63,27,27,0,0,0-3.87-1.09q-1-.24-2-0.56a6.63,6.63,0,0,1-1.71-.85,4,4,0,0,1-1.21-1.33,3.87,3.87,0,0,1-.46-2,5.47,5.47,0,0,1,.64-2.79,4.79,4.79,0,0,1,1.68-1.72,7.19,7.19,0,0,1,2.35-.88,13.9,13.9,0,0,1,2.68-.26,12.87,12.87,0,0,1,2.66.27,6.89,6.89,0,0,1,2.3.92,5.39,5.39,0,0,1,1.68,1.72,5.94,5.94,0,0,1,.8,2.7h-4.41a2.13,2.13,0,0,0-1-1.89,4.48,4.48,0,0,0-2.15-.49,7.65,7.65,0,0,0-.85.05,2.74,2.74,0,0,0-.83.22,1.72,1.72,0,0,0-.64.49,1.5,1.5,0,0,0,.2,1.92,3.47,3.47,0,0,0,1.19.66,14.31,14.31,0,0,0,1.68.46l1.93,0.44a19.35,19.35,0,0,1,2,.58,6.42,6.42,0,0,1,1.71.9,4.31,4.31,0,0,1,1.21,1.39,4.23,4.23,0,0,1,.46,2.06,5.79,5.79,0,0,1-.67,2.91,5.49,5.49,0,0,1-1.75,1.89,7,7,0,0,1-2.46,1,13.84,13.84,0,0,1-2.82.29,13.47,13.47,0,0,1-2.87-.31,7.42,7.42,0,0,1-2.5-1,5.72,5.72,0,0,1-1.79-1.89,6.09,6.09,0,0,1-.77-2.94h4.41A2.73,2.73,0,0,0,728.21,695.6Z"/><path class="a" d="M748.3,682.39v3.23H744.9v8.7a2.44,2.44,0,0,0,.39,1.63,2.2,2.2,0,0,0,1.57.41q0.39,0,.75,0a6,6,0,0,0,.69-0.1V700a10.68,10.68,0,0,1-1.31.14q-0.72,0-1.4,0a13,13,0,0,1-2-.15,4.67,4.67,0,0,1-1.7-.6,3.09,3.09,0,0,1-1.16-1.26,4.65,4.65,0,0,1-.42-2.14V685.62h-2.81v-3.23h2.81v-5.27h4.63v5.27h3.39Z"/><path class="a" d="M752.12,682.39v3.26h0.07a6,6,0,0,1,.88-1.51,5.86,5.86,0,0,1,1.27-1.19,6.16,6.16,0,0,1,1.53-.77,5.33,5.33,0,0,1,1.7-.27,3.49,3.49,0,0,1,1,.17v4.49q-0.33-.07-0.78-0.12a8,8,0,0,0-.88-0.05,4.77,4.77,0,0,0-2.15.44,3.76,3.76,0,0,0-1.42,1.21,4.93,4.93,0,0,0-.77,1.79,10.1,10.1,0,0,0-.23,2.21V700h-4.63V682.39h4.41Z"/><path class="a" d="M757.73,679.67v-4h4.63v4h-4.63Zm4.63,2.72V700h-4.63V682.39h4.63Z"/><path class="a" d="M767.62,682.39v2.24h0.07a5.18,5.18,0,0,1,2.15-2.07,6.39,6.39,0,0,1,2.87-.65,7.07,7.07,0,0,1,3.43.78,7.15,7.15,0,0,1,2.38,2.07,8.93,8.93,0,0,1,1.4,3,13.89,13.89,0,0,1,.46,3.59,12.55,12.55,0,0,1-.46,3.4,8.8,8.8,0,0,1-1.39,2.89,6.94,6.94,0,0,1-2.32,2,6.75,6.75,0,0,1-3.25.75,6.35,6.35,0,0,1-2.89-.66,5.54,5.54,0,0,1-2.17-2h-0.07v8.33h-4.63V682.39h4.41Zm6,13.94a3.78,3.78,0,0,0,1.24-1.24,5.25,5.25,0,0,0,.67-1.79,11,11,0,0,0,.2-2.07,10.15,10.15,0,0,0-.21-2.07,5.64,5.64,0,0,0-.7-1.82,4,4,0,0,0-1.26-1.29,3.4,3.4,0,0,0-1.88-.49,3.46,3.46,0,0,0-1.91.49,3.9,3.9,0,0,0-1.24,1.27,5.44,5.44,0,0,0-.67,1.8,11.14,11.14,0,0,0-.2,2.11,10.14,10.14,0,0,0,.21,2.07,5.47,5.47,0,0,0,.69,1.79,3.72,3.72,0,0,0,1.26,1.24A4,4,0,0,0,773.64,696.33Z"/><path class="a" d="M785.31,695.75a4.6,4.6,0,0,0,5.42.32,3,3,0,0,0,1.24-1.55H796a8.07,8.07,0,0,1-3,4.52,8.57,8.57,0,0,1-4.9,1.36,9.29,9.29,0,0,1-3.59-.66,7.45,7.45,0,0,1-2.71-1.89,8.55,8.55,0,0,1-1.71-2.92,11.11,11.11,0,0,1-.6-3.74,10.64,10.64,0,0,1,.62-3.67,8.67,8.67,0,0,1,1.76-2.94,8.3,8.3,0,0,1,2.73-2,8.43,8.43,0,0,1,3.51-.71,7.76,7.76,0,0,1,3.75.87,7.59,7.59,0,0,1,2.63,2.33,9.76,9.76,0,0,1,1.49,3.33,12.91,12.91,0,0,1,.33,3.91H784.17A5,5,0,0,0,785.31,695.75Zm5.24-9.25a3.18,3.18,0,0,0-2.53-1,3.9,3.9,0,0,0-1.84.39,3.54,3.54,0,0,0-1.18,1,3.63,3.63,0,0,0-.62,1.22,5.76,5.76,0,0,0-.21,1.16h7.54A5.69,5.69,0,0,0,790.55,686.51Z"/><path class="a" d="M800.18,695.6a2.79,2.79,0,0,0,.8.92,3.36,3.36,0,0,0,1.13.53,5.11,5.11,0,0,0,1.32.17,4.76,4.76,0,0,0,1-.12,3.4,3.4,0,0,0,1-.37,2.25,2.25,0,0,0,.73-0.68,1.84,1.84,0,0,0,.29-1.07,1.79,1.79,0,0,0-1.39-1.63,27,27,0,0,0-3.87-1.09q-1-.24-2-0.56a6.63,6.63,0,0,1-1.71-.85,4,4,0,0,1-1.21-1.33,3.87,3.87,0,0,1-.46-2,5.47,5.47,0,0,1,.64-2.79,4.79,4.79,0,0,1,1.68-1.72,7.19,7.19,0,0,1,2.35-.88,13.9,13.9,0,0,1,2.68-.26,12.87,12.87,0,0,1,2.66.27,6.89,6.89,0,0,1,2.3.92,5.39,5.39,0,0,1,1.68,1.72,5.94,5.94,0,0,1,.8,2.7h-4.41a2.13,2.13,0,0,0-1-1.89,4.48,4.48,0,0,0-2.15-.49,7.65,7.65,0,0,0-.85.05,2.74,2.74,0,0,0-.83.22,1.72,1.72,0,0,0-.64.49,1.5,1.5,0,0,0,.2,1.92,3.47,3.47,0,0,0,1.19.66,14.31,14.31,0,0,0,1.68.46l1.93,0.44a19.35,19.35,0,0,1,2,.58,6.42,6.42,0,0,1,1.71.9,4.31,4.31,0,0,1,1.21,1.39,4.23,4.23,0,0,1,.46,2.06,5.79,5.79,0,0,1-.67,2.91,5.49,5.49,0,0,1-1.75,1.89,7,7,0,0,1-2.46,1,13.84,13.84,0,0,1-2.82.29,13.47,13.47,0,0,1-2.87-.31,7.42,7.42,0,0,1-2.5-1,5.72,5.72,0,0,1-1.79-1.89,6.09,6.09,0,0,1-.77-2.94h4.41A2.73,2.73,0,0,0,800.18,695.6Z"/><path class="a" d="M816.32,694.73V700h-5.12v-5.24h5.12Z"/><path class="a" d="M825.33,685.55a3.16,3.16,0,0,0-1.86.53,4.12,4.12,0,0,0-1.22,1.36,6,6,0,0,0-.67,1.84,10.41,10.41,0,0,0-.2,2,10,10,0,0,0,.2,1.94,6.15,6.15,0,0,0,.64,1.79,3.75,3.75,0,0,0,1.19,1.31,3.18,3.18,0,0,0,1.83.51,3.32,3.32,0,0,0,2.56-1,4.68,4.68,0,0,0,1.13-2.6h4.47a8.08,8.08,0,0,1-2.61,5.34,8.21,8.21,0,0,1-5.52,1.84,8.9,8.9,0,0,1-3.48-.66,7.69,7.69,0,0,1-2.69-1.85,8.49,8.49,0,0,1-1.73-2.84,10.2,10.2,0,0,1-.62-3.62,12.16,12.16,0,0,1,.57-3.79,8.6,8.6,0,0,1,1.68-3,7.7,7.7,0,0,1,2.71-2,8.88,8.88,0,0,1,3.66-.71,10.2,10.2,0,0,1,2.89.41,7.6,7.6,0,0,1,2.48,1.24,6.57,6.57,0,0,1,1.78,2.07,6.81,6.81,0,0,1,.78,2.94h-4.54A3.15,3.15,0,0,0,825.33,685.55Z"/><path class="a" d="M833.29,687.37a8.28,8.28,0,0,1,1.76-2.92,7.88,7.88,0,0,1,2.74-1.87,9.29,9.29,0,0,1,3.59-.66,9.43,9.43,0,0,1,3.61.66,7.85,7.85,0,0,1,2.76,1.87,8.3,8.3,0,0,1,1.76,2.92,11.21,11.21,0,0,1,.62,3.83,11.06,11.06,0,0,1-.62,3.81,8.31,8.31,0,0,1-1.76,2.91,7.64,7.64,0,0,1-2.76,1.85,9.65,9.65,0,0,1-3.61.65,9.52,9.52,0,0,1-3.59-.65,7.68,7.68,0,0,1-2.74-1.85,8.3,8.3,0,0,1-1.76-2.91,11.06,11.06,0,0,1-.62-3.81A11.21,11.21,0,0,1,833.29,687.37Zm4.21,5.88a5.62,5.62,0,0,0,.67,1.8,3.63,3.63,0,0,0,1.26,1.27,3.71,3.71,0,0,0,2,.48,3.79,3.79,0,0,0,2-.48,3.59,3.59,0,0,0,1.27-1.27,5.62,5.62,0,0,0,.67-1.8,10.69,10.69,0,0,0,.2-2.06,11,11,0,0,0-.2-2.07,5.44,5.44,0,0,0-.67-1.8,3.79,3.79,0,0,0-1.27-1.27,3.7,3.7,0,0,0-2-.49,3.61,3.61,0,0,0-2,.49,3.83,3.83,0,0,0-1.26,1.27,5.44,5.44,0,0,0-.67,1.8,11,11,0,0,0-.2,2.07A10.69,10.69,0,0,0,837.5,693.26Z"/><path class="a" d="M854.83,682.39v2.38h0.06a6.72,6.72,0,0,1,2.2-2.11,5.79,5.79,0,0,1,3-.75,6.57,6.57,0,0,1,2.92.65,4.22,4.22,0,0,1,2,2.28,7.34,7.34,0,0,1,2-2,5.26,5.26,0,0,1,3.05-.88,8.66,8.66,0,0,1,2.48.34,4.94,4.94,0,0,1,2,1.09,5,5,0,0,1,1.27,2,8.23,8.23,0,0,1,.46,2.91V700h-4.63V690q0-.88-0.07-1.67a3.67,3.67,0,0,0-.36-1.36,2.23,2.23,0,0,0-.87-0.92,3,3,0,0,0-1.55-.34,2.87,2.87,0,0,0-1.58.39,2.79,2.79,0,0,0-.95,1,4.2,4.2,0,0,0-.46,1.43,11.4,11.4,0,0,0-.11,1.62V700H861v-9.86c0-.52,0-1,0-1.55a4.49,4.49,0,0,0-.28-1.41,2.16,2.16,0,0,0-.82-1,3,3,0,0,0-1.68-.39,3.35,3.35,0,0,0-.87.15,2.82,2.82,0,0,0-1,.58,3.38,3.38,0,0,0-.86,1.22,5.14,5.14,0,0,0-.36,2.09V700h-4.63V682.39h4.37Z"/><path class="a" d="M13.46,487.49H11.09V477.38h2.38v3.7H23.94v2.71H13.46v3.7Z"/><path class="a" d="M11.09,475.26h4.84v-0.05A2.9,2.9,0,0,1,14.75,474a3.12,3.12,0,0,1-.37-1.42,4,4,0,0,1,.28-1.62,2.41,2.41,0,0,1,.77-1,3.06,3.06,0,0,1,1.21-.51,7.82,7.82,0,0,1,1.57-.15h5.72v2.45H18.68a3.38,3.38,0,0,0-1.72.35,1.32,1.32,0,0,0-.57,1.23,1.67,1.67,0,0,0,.62,1.45,3.57,3.57,0,0,0,2,.45h4.88v2.45H11.09v-2.45Z"/><path class="a" d="M21.71,466.33a2.43,2.43,0,0,0,.17-2.87,1.6,1.6,0,0,0-.82-0.66v-2.16a4.27,4.27,0,0,1,2.39,1.59,4.54,4.54,0,0,1,.72,2.59,4.92,4.92,0,0,1-.35,1.9,3.94,3.94,0,0,1-1,1.43,4.53,4.53,0,0,1-1.55.91,5.87,5.87,0,0,1-2,.32,5.62,5.62,0,0,1-1.94-.33,4.59,4.59,0,0,1-1.56-.93,4.38,4.38,0,0,1-1-1.44,4.47,4.47,0,0,1-.38-1.86,4.11,4.11,0,0,1,.46-2,4,4,0,0,1,1.23-1.39,5.18,5.18,0,0,1,1.76-.79,6.84,6.84,0,0,1,2.07-.17v6.45A2.65,2.65,0,0,0,21.71,466.33Zm-4.9-2.77a1.68,1.68,0,0,0-.5,1.34,2.06,2.06,0,0,0,.21,1,1.88,1.88,0,0,0,.51.62,1.91,1.91,0,0,0,.65.33,3,3,0,0,0,.61.11v-4A3,3,0,0,0,16.81,463.55Z"/><path class="a" d="M11.09,451.14a7.39,7.39,0,0,1,.16-1.61,3.4,3.4,0,0,1,.53-1.24,2.45,2.45,0,0,1,1-.8,3.57,3.57,0,0,1,1.51-.29,2.9,2.9,0,0,1,1.62.42A3.1,3.1,0,0,1,17,448.87a3,3,0,0,1,1.2-1.7,4.07,4.07,0,0,1,3.74-.2,3.25,3.25,0,0,1,1.16,1,4.25,4.25,0,0,1,.67,1.4,6.07,6.07,0,0,1,.22,1.62v6H11.09v-5.81Zm5.2,0.35a1.9,1.9,0,0,0-.36-1.19,1.39,1.39,0,0,0-1.17-.47A1.55,1.55,0,0,0,14,450a1.19,1.19,0,0,0-.45.42,1.7,1.7,0,0,0-.22.6,3.81,3.81,0,0,0-.06.7v2.54h3v-2.75Zm5.45-.16a3.5,3.5,0,0,0-.08-0.76,1.83,1.83,0,0,0-.27-0.64,1.34,1.34,0,0,0-.51-0.44,1.83,1.83,0,0,0-.83-0.16,1.7,1.7,0,0,0-1.41.54,2.22,2.22,0,0,0-.42,1.42v3h3.53v-2.9Z"/><path class="a" d="M17.27,446.47a4.38,4.38,0,0,1-1.55-.93,4.17,4.17,0,0,1-1-1.45,4.92,4.92,0,0,1-.35-1.9,5,5,0,0,1,.35-1.91,4.16,4.16,0,0,1,1-1.46,4.4,4.4,0,0,1,1.55-.93,5.93,5.93,0,0,1,2-.33,5.85,5.85,0,0,1,2,.33,4.41,4.41,0,0,1,1.54.93,4.06,4.06,0,0,1,1,1.46,5.11,5.11,0,0,1,.34,1.91,5,5,0,0,1-.34,1.9,4.07,4.07,0,0,1-1,1.45,4.39,4.39,0,0,1-1.54.93,5.85,5.85,0,0,1-2,.33A5.93,5.93,0,0,1,17.27,446.47Zm3.11-2.23a3,3,0,0,0,1-.35,1.92,1.92,0,0,0,.68-0.67,2,2,0,0,0,.25-1,2,2,0,0,0-.25-1,1.9,1.9,0,0,0-.68-0.67,3,3,0,0,0-1-.35,5.69,5.69,0,0,0-1.09-.1,5.84,5.84,0,0,0-1.1.1,2.88,2.88,0,0,0-1,.35,2,2,0,0,0-.68.67,2,2,0,0,0-.26,1,1.91,1.91,0,0,0,.26,1,2,2,0,0,0,.68.67,2.88,2.88,0,0,0,1,.35,5.84,5.84,0,0,0,1.1.1A5.69,5.69,0,0,0,20.38,444.24Z"/><path class="a" d="M17.27,437.4a4.38,4.38,0,0,1-1.55-.93,4.17,4.17,0,0,1-1-1.45,4.92,4.92,0,0,1-.35-1.9,5,5,0,0,1,.35-1.91,4.16,4.16,0,0,1,1-1.46,4.4,4.4,0,0,1,1.55-.93,5.93,5.93,0,0,1,2-.33,5.85,5.85,0,0,1,2,.33,4.41,4.41,0,0,1,1.54.93,4.06,4.06,0,0,1,1,1.46,5.11,5.11,0,0,1,.34,1.91,5,5,0,0,1-.34,1.9,4.07,4.07,0,0,1-1,1.45,4.39,4.39,0,0,1-1.54.93,5.85,5.85,0,0,1-2,.33A5.93,5.93,0,0,1,17.27,437.4Zm3.11-2.23a3,3,0,0,0,1-.35,1.92,1.92,0,0,0,.68-0.67,2,2,0,0,0,.25-1,2,2,0,0,0-.25-1,1.9,1.9,0,0,0-.68-0.67,3,3,0,0,0-1-.35,5.69,5.69,0,0,0-1.09-.1,5.84,5.84,0,0,0-1.1.1,2.88,2.88,0,0,0-1,.35,2,2,0,0,0-.68.67,2,2,0,0,0-.26,1,1.91,1.91,0,0,0,.26,1,2,2,0,0,0,.68.67,2.88,2.88,0,0,0,1,.35,5.84,5.84,0,0,0,1.1.1A5.69,5.69,0,0,0,20.38,435.17Z"/><path class="a" d="M11.09,425.7H18l-3.35-3.09v-2.9l3.42,3.37,5.89-3.75v3l-4.16,2.45,1,1h3.2v2.45H11.09V425.7Z"/><path class="a" d="M17.27,416.58a4.38,4.38,0,0,1-1.55-.93,4.17,4.17,0,0,1-1-1.45,4.92,4.92,0,0,1-.35-1.9,5,5,0,0,1,.35-1.91,4.16,4.16,0,0,1,1-1.46,4.4,4.4,0,0,1,1.55-.93,5.93,5.93,0,0,1,2-.33,5.85,5.85,0,0,1,2,.33,4.41,4.41,0,0,1,1.54.93,4.06,4.06,0,0,1,1,1.46,5.11,5.11,0,0,1,.34,1.91,5,5,0,0,1-.34,1.9,4.07,4.07,0,0,1-1,1.45,4.39,4.39,0,0,1-1.54.93,5.85,5.85,0,0,1-2,.33A5.93,5.93,0,0,1,17.27,416.58Zm3.11-2.23a3,3,0,0,0,1-.35,1.92,1.92,0,0,0,.68-0.67,2,2,0,0,0,.25-1,2,2,0,0,0-.25-1,1.9,1.9,0,0,0-.68-0.67,3,3,0,0,0-1-.35,5.69,5.69,0,0,0-1.09-.1,5.84,5.84,0,0,0-1.1.1,2.88,2.88,0,0,0-1,.35,2,2,0,0,0-.68.67,2,2,0,0,0-.26,1,1.91,1.91,0,0,0,.26,1,2,2,0,0,0,.68.67,2.88,2.88,0,0,0,1,.35,5.84,5.84,0,0,0,1.1.1A5.69,5.69,0,0,0,20.38,414.35Z"/><path class="a" d="M16.34,408.49H14.63V407H13.91a2.85,2.85,0,0,1-2-.74,2.94,2.94,0,0,1-.79-2.25q0-.33,0-0.66t0-.64h1.91a7.23,7.23,0,0,0-.05.9,0.92,0.92,0,0,0,.24.72,1.23,1.23,0,0,0,.82.22h0.56v-1.69h1.71v1.69h7.6V407h-7.6v1.47Z"/><path class="a" d="M20.77,397.64a2,2,0,0,0,.73-0.6,2.53,2.53,0,0,0,.41-0.87,4,4,0,0,0,.13-1,5.13,5.13,0,0,0-.06-0.78,2.62,2.62,0,0,0-.24-0.78,1.71,1.71,0,0,0-.5-0.6,1.28,1.28,0,0,0-.8-0.24,1.15,1.15,0,0,0-.85.32,2.51,2.51,0,0,0-.54.84,8.12,8.12,0,0,0-.38,1.17q-0.16.66-.36,1.33a11.36,11.36,0,0,1-.44,1.35,4.57,4.57,0,0,1-.67,1.17,3.15,3.15,0,0,1-1,.84,3.25,3.25,0,0,1-1.5.32,3.48,3.48,0,0,1-1.72-.41,3.78,3.78,0,0,1-1.22-1.06,4.55,4.55,0,0,1-.72-1.49,6.1,6.1,0,0,1-.23-1.66A7.55,7.55,0,0,1,11,393.6a4.55,4.55,0,0,1,.73-1.58,3.64,3.64,0,0,1,1.29-1.1,4.09,4.09,0,0,1,1.9-.41v2.63a2.36,2.36,0,0,0-1,.23,1.57,1.57,0,0,0-.59.53,2.18,2.18,0,0,0-.31.75,4.44,4.44,0,0,0-.09.92,3.06,3.06,0,0,0,.07.66,1.73,1.73,0,0,0,.25.6,1.52,1.52,0,0,0,.45.44,1.25,1.25,0,0,0,.68.17,1.19,1.19,0,0,0,.61-0.14,1.24,1.24,0,0,0,.43-0.54,6.71,6.71,0,0,0,.4-1.12q0.2-.72.5-1.87,0.07-.35.26-1a4.53,4.53,0,0,1,.6-1.22,3.77,3.77,0,0,1,1.11-1,3.25,3.25,0,0,1,1.77-.44,4.07,4.07,0,0,1,1.64.33,3.54,3.54,0,0,1,1.31,1,4.61,4.61,0,0,1,.85,1.61,7.31,7.31,0,0,1,.31,2.22,7.5,7.5,0,0,1-.26,2,4.88,4.88,0,0,1-.82,1.69,4,4,0,0,1-1.42,1.17,4.4,4.4,0,0,1-2.05.42v-2.63A2.44,2.44,0,0,0,20.77,397.64Z"/><path class="a" d="M14.63,385.34h1.71v1.8H21a1.29,1.29,0,0,0,.86-0.21A1.17,1.17,0,0,0,22,386.1q0-.21,0-0.4a3.38,3.38,0,0,0-.05-0.36h2A5.54,5.54,0,0,1,24,386q0,0.38,0,.74a6.86,6.86,0,0,1-.08,1.08,2.47,2.47,0,0,1-.31.9,1.63,1.63,0,0,1-.67.61,2.46,2.46,0,0,1-1.13.22H16.34v1.49H14.63v-1.49H11.84v-2.45h2.79v-1.8Z"/><path class="a" d="M14.63,383.31h1.73v0a3.16,3.16,0,0,1-.8-0.47,3.1,3.1,0,0,1-.63-0.67,3.25,3.25,0,0,1-.41-0.81,2.83,2.83,0,0,1-.14-0.9,1.85,1.85,0,0,1,.09-0.54h2.38c0,0.12,0,.25-0.06.42a4.19,4.19,0,0,0,0,.47,2.53,2.53,0,0,0,.23,1.14,2,2,0,0,0,.64.75,2.61,2.61,0,0,0,.95.41,5.35,5.35,0,0,0,1.17.12h4.19v2.45H14.63v-2.33Z"/><path class="a" d="M13.19,380.34H11.09v-2.45h2.11v2.45Zm1.44-2.45h9.31v2.45H14.63v-2.45Z"/><path class="a" d="M14.63,375.11h1.19v0a2.74,2.74,0,0,1-1.1-1.14,3.38,3.38,0,0,1-.34-1.52,3.74,3.74,0,0,1,.41-1.81,3.8,3.8,0,0,1,1.1-1.26,4.72,4.72,0,0,1,1.59-.74,7.34,7.34,0,0,1,1.9-.24,6.63,6.63,0,0,1,1.8.24,4.65,4.65,0,0,1,1.53.73,3.67,3.67,0,0,1,1.06,1.23,3.57,3.57,0,0,1,.4,1.72,3.36,3.36,0,0,1-.35,1.53,2.93,2.93,0,0,1-1,1.15v0H27.2v2.45H14.63v-2.33ZM22,371.92a2,2,0,0,0-.66-0.66,2.78,2.78,0,0,0-.94-0.35,5.8,5.8,0,0,0-1.1-.1,5.39,5.39,0,0,0-1.1.11,3,3,0,0,0-1,.37,2.12,2.12,0,0,0-.68.67,1.8,1.8,0,0,0-.26,1,1.83,1.83,0,0,0,.26,1,2.06,2.06,0,0,0,.68.66,2.86,2.86,0,0,0,1,.35,5.9,5.9,0,0,0,1.12.1,5.39,5.39,0,0,0,1.1-.11,2.9,2.9,0,0,0,.94-0.36,2,2,0,0,0,.66-0.67A2.14,2.14,0,0,0,22,371.92Z"/><path class="a" d="M21.71,365.74a2.43,2.43,0,0,0,.17-2.87,1.6,1.6,0,0,0-.82-0.66v-2.16a4.27,4.27,0,0,1,2.39,1.59,4.54,4.54,0,0,1,.72,2.59,4.92,4.92,0,0,1-.35,1.9,3.94,3.94,0,0,1-1,1.43,4.53,4.53,0,0,1-1.55.91,5.87,5.87,0,0,1-2,.32,5.62,5.62,0,0,1-1.94-.33,4.59,4.59,0,0,1-1.56-.93,4.38,4.38,0,0,1-1-1.44,4.47,4.47,0,0,1-.38-1.86,4.11,4.11,0,0,1,.46-2,4,4,0,0,1,1.23-1.39,5.18,5.18,0,0,1,1.76-.79,6.84,6.84,0,0,1,2.07-.17v6.45A2.65,2.65,0,0,0,21.71,365.74ZM16.81,363a1.68,1.68,0,0,0-.5,1.34,2.06,2.06,0,0,0,.21,1,1.88,1.88,0,0,0,.51.62,1.91,1.91,0,0,0,.65.33,3,3,0,0,0,.61.11v-4A3,3,0,0,0,16.81,363Z"/><path class="a" d="M21.63,357.87a1.47,1.47,0,0,0,.49-0.42,1.78,1.78,0,0,0,.28-0.6,2.7,2.7,0,0,0,.09-0.7,2.52,2.52,0,0,0-.06-0.54,1.8,1.8,0,0,0-.2-0.52,1.19,1.19,0,0,0-.36-0.39,1,1,0,0,0-.57-0.16,1,1,0,0,0-.86.73,14.2,14.2,0,0,0-.58,2q-0.13.54-.3,1a3.51,3.51,0,0,1-.45.91,2.15,2.15,0,0,1-.7.64,2.06,2.06,0,0,1-1,.24,2.89,2.89,0,0,1-1.48-.34,2.53,2.53,0,0,1-.91-0.89,3.8,3.8,0,0,1-.47-1.24,7.35,7.35,0,0,1-.14-1.42,6.83,6.83,0,0,1,.14-1.41,3.65,3.65,0,0,1,.49-1.22,2.86,2.86,0,0,1,.91-0.89,3.14,3.14,0,0,1,1.43-.42v2.33a1.13,1.13,0,0,0-1,.54,2.37,2.37,0,0,0-.26,1.14,4.05,4.05,0,0,0,0,.45,1.45,1.45,0,0,0,.12.44,0.91,0.91,0,0,0,.26.34,0.79,0.79,0,0,0,1-.1,1.85,1.85,0,0,0,.35-0.63,7.51,7.51,0,0,0,.24-0.89q0.11-.5.23-1a10.27,10.27,0,0,1,.31-1,3.39,3.39,0,0,1,.48-0.91,2.28,2.28,0,0,1,.74-0.64,2.24,2.24,0,0,1,1.09-.24,3.06,3.06,0,0,1,1.54.35,2.9,2.9,0,0,1,1,.92,3.7,3.7,0,0,1,.53,1.3,7.34,7.34,0,0,1,.15,1.49,7.09,7.09,0,0,1-.16,1.52,3.92,3.92,0,0,1-.54,1.32,3,3,0,0,1-1,1,3.22,3.22,0,0,1-1.56.41V358A1.45,1.45,0,0,0,21.63,357.87Z"/><path class="a" d="M21.17,346h2.77v2.71H21.17V346Z"/><path class="a" d="M16.31,341.24a1.67,1.67,0,0,0,.28,1,2.18,2.18,0,0,0,.72.65,3.2,3.2,0,0,0,1,.35,5.51,5.51,0,0,0,1.05.1,5.28,5.28,0,0,0,1-.1,3.25,3.25,0,0,0,.94-0.34,2,2,0,0,0,.69-0.63,1.68,1.68,0,0,0,.27-1,1.76,1.76,0,0,0-.51-1.36,2.47,2.47,0,0,0-1.38-.6V337a4.28,4.28,0,0,1,2.83,1.38,4.34,4.34,0,0,1,1,2.92,4.71,4.71,0,0,1-.35,1.84,4.06,4.06,0,0,1-1,1.43,4.49,4.49,0,0,1-1.5.92,5.41,5.41,0,0,1-1.92.33,6.44,6.44,0,0,1-2-.3,4.56,4.56,0,0,1-1.6-.89,4.07,4.07,0,0,1-1.05-1.43,4.7,4.7,0,0,1-.38-1.94,5.39,5.39,0,0,1,.22-1.53,4,4,0,0,1,.66-1.31,3.48,3.48,0,0,1,1.1-.94,3.62,3.62,0,0,1,1.56-.41v2.4A1.67,1.67,0,0,0,16.31,341.24Z"/><path class="a" d="M17.27,337a4.38,4.38,0,0,1-1.55-.93,4.17,4.17,0,0,1-1-1.45,4.92,4.92,0,0,1-.35-1.9,5,5,0,0,1,.35-1.91,4.16,4.16,0,0,1,1-1.46,4.4,4.4,0,0,1,1.55-.93,5.93,5.93,0,0,1,2-.33,5.85,5.85,0,0,1,2,.33,4.41,4.41,0,0,1,1.54.93,4.06,4.06,0,0,1,1,1.46,5.11,5.11,0,0,1,.34,1.91,5,5,0,0,1-.34,1.9,4.07,4.07,0,0,1-1,1.45,4.39,4.39,0,0,1-1.54.93,5.85,5.85,0,0,1-2,.33A5.93,5.93,0,0,1,17.27,337Zm3.11-2.23a3,3,0,0,0,1-.35,1.92,1.92,0,0,0,.68-0.67,2,2,0,0,0,.25-1,2,2,0,0,0-.25-1,1.9,1.9,0,0,0-.68-0.67,3,3,0,0,0-1-.35,5.69,5.69,0,0,0-1.09-.1,5.84,5.84,0,0,0-1.1.1,2.88,2.88,0,0,0-1,.35,2,2,0,0,0-.68.67,2,2,0,0,0-.26,1,1.91,1.91,0,0,0,.26,1,2,2,0,0,0,.68.67,2.88,2.88,0,0,0,1,.35,5.84,5.84,0,0,0,1.1.1A5.69,5.69,0,0,0,20.38,334.79Z"/><path class="a" d="M14.63,325.62h1.26v0a3.55,3.55,0,0,1-1.12-1.17,3.06,3.06,0,0,1-.4-1.56,3.47,3.47,0,0,1,.34-1.55,2.23,2.23,0,0,1,1.21-1.06,3.86,3.86,0,0,1-1.08-1.08,2.79,2.79,0,0,1-.47-1.62,4.58,4.58,0,0,1,.18-1.31,2.61,2.61,0,0,1,.58-1,2.65,2.65,0,0,1,1-.67,4.36,4.36,0,0,1,1.54-.24h6.23v2.45H18.67q-0.47,0-.88,0a1.93,1.93,0,0,0-.72.19,1.18,1.18,0,0,0-.49.46,1.6,1.6,0,0,0-.18.82,1.52,1.52,0,0,0,.21.84,1.47,1.47,0,0,0,.54.5,2.23,2.23,0,0,0,.76.24,6,6,0,0,0,.85.06h5.18v2.45H18.72l-0.82,0a2.37,2.37,0,0,0-.75.15,1.15,1.15,0,0,0-.55.43,1.58,1.58,0,0,0-.21.89,1.77,1.77,0,0,0,.08.46,1.5,1.5,0,0,0,.31.55,1.79,1.79,0,0,0,.65.46,2.72,2.72,0,0,0,1.11.19h5.4v2.45H14.63v-2.32Z"/><path class="a" d="M1413.64,314.51H1416v10.11h-2.38v-3.7h-10.48v-2.71h10.48v-3.7Z"/><path class="a" d="M1416,326.74h-4.84v0.05a2.9,2.9,0,0,1,1.18,1.19,3.12,3.12,0,0,1,.37,1.42,4,4,0,0,1-.28,1.62,2.41,2.41,0,0,1-.77,1,3.06,3.06,0,0,1-1.21.51,7.82,7.82,0,0,1-1.57.15h-5.72v-2.45h5.26a3.38,3.38,0,0,0,1.72-.35,1.32,1.32,0,0,0,.57-1.23,1.67,1.67,0,0,0-.62-1.45,3.57,3.57,0,0,0-2-.45h-4.88v-2.45H1416v2.45Z"/><path class="a" d="M1405.4,335.67a2.43,2.43,0,0,0-.17,2.87,1.6,1.6,0,0,0,.82.66v2.16a4.27,4.27,0,0,1-2.39-1.59,4.54,4.54,0,0,1-.72-2.59,4.92,4.92,0,0,1,.35-1.9,3.94,3.94,0,0,1,1-1.43,4.53,4.53,0,0,1,1.55-.91,5.87,5.87,0,0,1,2-.32,5.62,5.62,0,0,1,1.94.33,4.59,4.59,0,0,1,1.56.93,4.38,4.38,0,0,1,1,1.44,4.47,4.47,0,0,1,.38,1.86,4.11,4.11,0,0,1-.46,2,4,4,0,0,1-1.23,1.39,5.18,5.18,0,0,1-1.76.79,6.84,6.84,0,0,1-2.07.17v-6.45A2.65,2.65,0,0,0,1405.4,335.67Zm4.9,2.77a1.68,1.68,0,0,0,.5-1.34,2.06,2.06,0,0,0-.21-1,1.88,1.88,0,0,0-.51-0.62,1.91,1.91,0,0,0-.65-0.33,3,3,0,0,0-.61-0.11v4A3,3,0,0,0,1410.3,338.45Z"/><path class="a" d="M1416,350.86a7.39,7.39,0,0,1-.16,1.61,3.4,3.4,0,0,1-.53,1.24,2.45,2.45,0,0,1-1,.8,3.57,3.57,0,0,1-1.51.29,2.9,2.9,0,0,1-1.62-.42,3.1,3.1,0,0,1-1.06-1.25,3,3,0,0,1-1.2,1.7,4.07,4.07,0,0,1-3.74.2,3.25,3.25,0,0,1-1.16-1,4.25,4.25,0,0,1-.67-1.4,6.07,6.07,0,0,1-.22-1.62v-6H1416v5.81Zm-10.66-.19a3.5,3.5,0,0,0,.08.76,1.83,1.83,0,0,0,.27.64,1.34,1.34,0,0,0,.51.44,1.83,1.83,0,0,0,.83.16,1.7,1.7,0,0,0,1.41-.54,2.22,2.22,0,0,0,.42-1.42v-3h-3.53v2.9Zm5.45-.16a1.9,1.9,0,0,0,.36,1.19,1.39,1.39,0,0,0,1.17.47,1.55,1.55,0,0,0,.74-0.16,1.19,1.19,0,0,0,.45-0.42,1.7,1.7,0,0,0,.22-0.6,3.81,3.81,0,0,0,.06-0.7v-2.54h-3v2.75Z"/><path class="a" d="M1409.84,355.53a4.38,4.38,0,0,1,1.55.93,4.17,4.17,0,0,1,1,1.45,4.92,4.92,0,0,1,.35,1.9,5,5,0,0,1-.35,1.91,4.16,4.16,0,0,1-1,1.46,4.4,4.4,0,0,1-1.55.93,5.93,5.93,0,0,1-2,.33,5.85,5.85,0,0,1-2-.33,4.41,4.41,0,0,1-1.54-.93,4.06,4.06,0,0,1-1-1.46,5.11,5.11,0,0,1-.34-1.91,5,5,0,0,1,.34-1.9,4.07,4.07,0,0,1,1-1.45,4.39,4.39,0,0,1,1.54-.93,5.85,5.85,0,0,1,2-.33A5.93,5.93,0,0,1,1409.84,355.53Zm-3.11,2.23a3,3,0,0,0-1,.35,1.92,1.92,0,0,0-.68.67,2,2,0,0,0-.25,1,2,2,0,0,0,.25,1,1.9,1.9,0,0,0,.68.67,3,3,0,0,0,1,.35,5.69,5.69,0,0,0,1.09.1,5.84,5.84,0,0,0,1.1-.1,2.88,2.88,0,0,0,1-.35,2,2,0,0,0,.68-0.67,2,2,0,0,0,.26-1,1.91,1.91,0,0,0-.26-1,2,2,0,0,0-.68-0.67,2.88,2.88,0,0,0-1-.35,5.84,5.84,0,0,0-1.1-.1A5.69,5.69,0,0,0,1406.72,357.76Z"/><path class="a" d="M1409.84,364.6a4.38,4.38,0,0,1,1.55.93,4.17,4.17,0,0,1,1,1.45,4.92,4.92,0,0,1,.35,1.9,5,5,0,0,1-.35,1.91,4.16,4.16,0,0,1-1,1.46,4.4,4.4,0,0,1-1.55.93,5.93,5.93,0,0,1-2,.33,5.85,5.85,0,0,1-2-.33,4.41,4.41,0,0,1-1.54-.93,4.06,4.06,0,0,1-1-1.46,5.11,5.11,0,0,1-.34-1.91,5,5,0,0,1,.34-1.9,4.07,4.07,0,0,1,1-1.45,4.39,4.39,0,0,1,1.54-.93,5.85,5.85,0,0,1,2-.33A5.93,5.93,0,0,1,1409.84,364.6Zm-3.11,2.23a3,3,0,0,0-1,.35,1.92,1.92,0,0,0-.68.67,2,2,0,0,0-.25,1,2,2,0,0,0,.25,1,1.9,1.9,0,0,0,.68.67,3,3,0,0,0,1,.35,5.69,5.69,0,0,0,1.09.1,5.84,5.84,0,0,0,1.1-.1,2.88,2.88,0,0,0,1-.35,2,2,0,0,0,.68-0.67,2,2,0,0,0,.26-1,1.91,1.91,0,0,0-.26-1,2,2,0,0,0-.68-0.67,2.88,2.88,0,0,0-1-.35,5.84,5.84,0,0,0-1.1-.1A5.69,5.69,0,0,0,1406.72,366.83Z"/><path class="a" d="M1416,376.3h-6.89l3.35,3.09v2.9l-3.42-3.37-5.89,3.75v-3l4.16-2.45-1-1h-3.2v-2.45H1416v2.45Z"/><path class="a" d="M1409.84,385.42a4.38,4.38,0,0,1,1.55.93,4.17,4.17,0,0,1,1,1.45,4.92,4.92,0,0,1,.35,1.9,5,5,0,0,1-.35,1.91,4.16,4.16,0,0,1-1,1.46,4.4,4.4,0,0,1-1.55.93,5.93,5.93,0,0,1-2,.33,5.85,5.85,0,0,1-2-.33,4.41,4.41,0,0,1-1.54-.93,4.06,4.06,0,0,1-1-1.46,5.11,5.11,0,0,1-.34-1.91,5,5,0,0,1,.34-1.9,4.07,4.07,0,0,1,1-1.45,4.39,4.39,0,0,1,1.54-.93,5.85,5.85,0,0,1,2-.33A5.93,5.93,0,0,1,1409.84,385.42Zm-3.11,2.23a3,3,0,0,0-1,.35,1.92,1.92,0,0,0-.68.67,2,2,0,0,0-.25,1,2,2,0,0,0,.25,1,1.9,1.9,0,0,0,.68.67,3,3,0,0,0,1,.35,5.69,5.69,0,0,0,1.09.1,5.84,5.84,0,0,0,1.1-.1,2.88,2.88,0,0,0,1-.35,2,2,0,0,0,.68-0.67,2,2,0,0,0,.26-1,1.91,1.91,0,0,0-.26-1,2,2,0,0,0-.68-0.67,2.88,2.88,0,0,0-1-.35,5.84,5.84,0,0,0-1.1-.1A5.69,5.69,0,0,0,1406.72,387.65Z"/><path class="a" d="M1410.76,393.51h1.71V395h0.72a2.85,2.85,0,0,1,2,.74A2.94,2.94,0,0,1,1416,398q0,0.33,0,.66t0,0.64H1414a7.23,7.23,0,0,0,.05-0.9,0.92,0.92,0,0,0-.24-0.72,1.23,1.23,0,0,0-.82-0.22h-0.56v1.69h-1.71v-1.69h-7.6V395h7.6v-1.47Z"/><path class="a" d="M1406.34,404.36a2,2,0,0,0-.73.6,2.53,2.53,0,0,0-.41.87,4,4,0,0,0-.13,1,5.13,5.13,0,0,0,.06.78,2.62,2.62,0,0,0,.24.78,1.71,1.71,0,0,0,.5.6,1.28,1.28,0,0,0,.8.24,1.15,1.15,0,0,0,.85-0.32,2.51,2.51,0,0,0,.54-0.84,8.12,8.12,0,0,0,.38-1.17q0.16-.66.36-1.33a11.36,11.36,0,0,1,.44-1.35,4.57,4.57,0,0,1,.67-1.17,3.15,3.15,0,0,1,1-.84,3.25,3.25,0,0,1,1.5-.32,3.48,3.48,0,0,1,1.72.41,3.78,3.78,0,0,1,1.22,1.06,4.55,4.55,0,0,1,.72,1.49,6.1,6.1,0,0,1,.23,1.66,7.55,7.55,0,0,1-.23,1.86,4.55,4.55,0,0,1-.73,1.58,3.64,3.64,0,0,1-1.29,1.1,4.09,4.09,0,0,1-1.9.41v-2.63a2.36,2.36,0,0,0,1-.23,1.57,1.57,0,0,0,.59-0.53,2.18,2.18,0,0,0,.31-0.75,4.44,4.44,0,0,0,.09-0.92,3.06,3.06,0,0,0-.07-0.66,1.73,1.73,0,0,0-.25-0.6,1.52,1.52,0,0,0-.45-0.44,1.25,1.25,0,0,0-.68-0.17,1.19,1.19,0,0,0-.61.14,1.24,1.24,0,0,0-.43.54,6.71,6.71,0,0,0-.4,1.12q-0.2.72-.5,1.88-0.07.35-.26,1a4.53,4.53,0,0,1-.6,1.22,3.77,3.77,0,0,1-1.11,1,3.25,3.25,0,0,1-1.77.44,4.07,4.07,0,0,1-1.64-.33,3.54,3.54,0,0,1-1.31-1,4.61,4.61,0,0,1-.85-1.61,7.31,7.31,0,0,1-.31-2.22,7.5,7.5,0,0,1,.26-2,4.88,4.88,0,0,1,.82-1.69,4,4,0,0,1,1.42-1.17,4.4,4.4,0,0,1,2.05-.42v2.63A2.44,2.44,0,0,0,1406.34,404.36Z"/><path class="a" d="M1412.47,416.67h-1.71v-1.8h-4.61a1.29,1.29,0,0,0-.86.21,1.17,1.17,0,0,0-.22.83q0,0.21,0,.4a3.38,3.38,0,0,0,.05.36h-2a5.54,5.54,0,0,1-.07-0.69q0-.38,0-0.74a6.86,6.86,0,0,1,.08-1.08,2.47,2.47,0,0,1,.31-0.9,1.63,1.63,0,0,1,.67-0.61,2.46,2.46,0,0,1,1.13-.22h5.49v-1.49h1.71v1.49h2.79v2.45h-2.79v1.8Z"/><path class="a" d="M1412.47,418.69h-1.73v0a3.16,3.16,0,0,1,.8.47,3.1,3.1,0,0,1,.63.67,3.25,3.25,0,0,1,.41.81,2.83,2.83,0,0,1,.14.9,1.85,1.85,0,0,1-.09.54h-2.38c0-.12,0-0.25.06-0.42a4.19,4.19,0,0,0,0-.47,2.53,2.53,0,0,0-.23-1.14,2,2,0,0,0-.64-0.75,2.61,2.61,0,0,0-.95-0.41,5.35,5.35,0,0,0-1.17-.12h-4.19v-2.45h9.31v2.33Z"/><path class="a" d="M1412.47,424.11h-9.31v-2.45h9.31v2.45Zm1.44-2.45H1416v2.45h-2.11v-2.45Z"/><path class="a" d="M1412.47,426.89h-1.19v0a2.74,2.74,0,0,1,1.1,1.14,3.38,3.38,0,0,1,.34,1.52,3.74,3.74,0,0,1-.41,1.81,3.8,3.8,0,0,1-1.1,1.26,4.72,4.72,0,0,1-1.59.74,7.34,7.34,0,0,1-1.9.24,6.63,6.63,0,0,1-1.8-.24,4.65,4.65,0,0,1-1.53-.73,3.67,3.67,0,0,1-1.06-1.23,3.57,3.57,0,0,1-.4-1.72,3.36,3.36,0,0,1,.35-1.53,2.93,2.93,0,0,1,1-1.15v0h-4.41v-2.45h12.56v2.33Zm-7.38,3.19a2,2,0,0,0,.66.66,2.78,2.78,0,0,0,.94.35,5.8,5.8,0,0,0,1.1.1,5.39,5.39,0,0,0,1.1-.11,3,3,0,0,0,1-.37,2.12,2.12,0,0,0,.68-0.67,1.8,1.8,0,0,0,.26-1,1.83,1.83,0,0,0-.26-1,2.06,2.06,0,0,0-.68-0.66,2.86,2.86,0,0,0-1-.35,5.9,5.9,0,0,0-1.12-.1,5.39,5.39,0,0,0-1.1.11,2.9,2.9,0,0,0-.94.36,2,2,0,0,0-.66.67A2.14,2.14,0,0,0,1405.09,430.08Z"/><path class="a" d="M1405.4,436.26a2.43,2.43,0,0,0-.17,2.87,1.6,1.6,0,0,0,.82.66v2.16a4.27,4.27,0,0,1-2.39-1.59,4.54,4.54,0,0,1-.72-2.59,4.92,4.92,0,0,1,.35-1.9,3.94,3.94,0,0,1,1-1.43,4.53,4.53,0,0,1,1.55-.91,5.87,5.87,0,0,1,2-.32,5.62,5.62,0,0,1,1.94.33,4.59,4.59,0,0,1,1.56.93,4.38,4.38,0,0,1,1,1.44,4.47,4.47,0,0,1,.38,1.86,4.11,4.11,0,0,1-.46,2,4,4,0,0,1-1.23,1.39,5.18,5.18,0,0,1-1.76.79,6.84,6.84,0,0,1-2.07.17v-6.45A2.65,2.65,0,0,0,1405.4,436.26Zm4.9,2.77a1.68,1.68,0,0,0,.5-1.34,2.06,2.06,0,0,0-.21-1,1.88,1.88,0,0,0-.51-0.62,1.91,1.91,0,0,0-.65-0.33,3,3,0,0,0-.61-0.11v4A3,3,0,0,0,1410.3,439Z"/><path class="a" d="M1405.48,444.13a1.47,1.47,0,0,0-.49.42,1.78,1.78,0,0,0-.28.6,2.7,2.7,0,0,0-.09.7,2.52,2.52,0,0,0,.06.54,1.8,1.8,0,0,0,.2.52,1.19,1.19,0,0,0,.36.39,1,1,0,0,0,.57.16,1,1,0,0,0,.86-0.73,14.2,14.2,0,0,0,.58-2q0.13-.54.3-1a3.51,3.51,0,0,1,.45-0.91,2.15,2.15,0,0,1,.7-0.64,2.06,2.06,0,0,1,1-.24,2.89,2.89,0,0,1,1.48.34,2.53,2.53,0,0,1,.91.89,3.8,3.8,0,0,1,.47,1.24,7.35,7.35,0,0,1,.14,1.42,6.83,6.83,0,0,1-.14,1.41,3.65,3.65,0,0,1-.49,1.22,2.86,2.86,0,0,1-.91.89,3.14,3.14,0,0,1-1.43.42v-2.33a1.13,1.13,0,0,0,1-.54,2.37,2.37,0,0,0,.26-1.14,4.05,4.05,0,0,0,0-.45,1.45,1.45,0,0,0-.12-0.44,0.91,0.91,0,0,0-.26-0.34,0.79,0.79,0,0,0-1,.1,1.85,1.85,0,0,0-.35.63,7.51,7.51,0,0,0-.24.89q-0.11.5-.23,1a10.27,10.27,0,0,1-.31,1,3.39,3.39,0,0,1-.48.91,2.28,2.28,0,0,1-.74.64,2.24,2.24,0,0,1-1.09.24,3.06,3.06,0,0,1-1.54-.35,2.9,2.9,0,0,1-1-.92,3.7,3.7,0,0,1-.53-1.3,7.34,7.34,0,0,1-.15-1.49,7.09,7.09,0,0,1,.16-1.52,3.92,3.92,0,0,1,.54-1.32,3,3,0,0,1,1-1,3.22,3.22,0,0,1,1.56-.41V444A1.45,1.45,0,0,0,1405.48,444.13Z"/><path class="a" d="M1405.94,456h-2.77v-2.71h2.77V456Z"/><path class="a" d="M1410.8,460.76a1.67,1.67,0,0,0-.28-1,2.18,2.18,0,0,0-.72-0.65,3.2,3.2,0,0,0-1-.35,5.51,5.51,0,0,0-1.05-.1,5.28,5.28,0,0,0-1,.1,3.25,3.25,0,0,0-.94.34,2,2,0,0,0-.69.63,1.68,1.68,0,0,0-.27,1,1.76,1.76,0,0,0,.51,1.36,2.47,2.47,0,0,0,1.38.6V465a4.28,4.28,0,0,1-2.83-1.38,4.34,4.34,0,0,1-1-2.92,4.71,4.71,0,0,1,.35-1.84,4.06,4.06,0,0,1,1-1.43,4.49,4.49,0,0,1,1.5-.92,5.41,5.41,0,0,1,1.92-.33,6.44,6.44,0,0,1,2,.3,4.56,4.56,0,0,1,1.6.89,4.07,4.07,0,0,1,1.05,1.43,4.7,4.7,0,0,1,.38,1.94,5.39,5.39,0,0,1-.22,1.53,4,4,0,0,1-.66,1.31,3.48,3.48,0,0,1-1.1.94,3.62,3.62,0,0,1-1.56.41v-2.4A1.67,1.67,0,0,0,1410.8,460.76Z"/><path class="a" d="M1409.84,465a4.38,4.38,0,0,1,1.55.93,4.17,4.17,0,0,1,1,1.45,4.92,4.92,0,0,1,.35,1.9,5,5,0,0,1-.35,1.91,4.16,4.16,0,0,1-1,1.46,4.4,4.4,0,0,1-1.55.93,5.93,5.93,0,0,1-2,.33,5.85,5.85,0,0,1-2-.33,4.41,4.41,0,0,1-1.54-.93,4.06,4.06,0,0,1-1-1.46,5.11,5.11,0,0,1-.34-1.91,5,5,0,0,1,.34-1.9,4.07,4.07,0,0,1,1-1.45,4.39,4.39,0,0,1,1.54-.93,5.85,5.85,0,0,1,2-.33A5.93,5.93,0,0,1,1409.84,465Zm-3.11,2.23a3,3,0,0,0-1,.35,1.92,1.92,0,0,0-.68.67,2,2,0,0,0-.25,1,2,2,0,0,0,.25,1,1.9,1.9,0,0,0,.68.67,3,3,0,0,0,1,.35,5.69,5.69,0,0,0,1.09.1,5.84,5.84,0,0,0,1.1-.1,2.88,2.88,0,0,0,1-.35,2,2,0,0,0,.68-0.67,2,2,0,0,0,.26-1,1.91,1.91,0,0,0-.26-1,2,2,0,0,0-.68-0.67,2.88,2.88,0,0,0-1-.35,5.84,5.84,0,0,0-1.1-.1A5.69,5.69,0,0,0,1406.72,467.21Z"/><path class="a" d="M1412.47,476.38h-1.26v0a3.55,3.55,0,0,1,1.12,1.17,3.06,3.06,0,0,1,.4,1.56,3.47,3.47,0,0,1-.34,1.55,2.23,2.23,0,0,1-1.21,1.06,3.86,3.86,0,0,1,1.08,1.08,2.79,2.79,0,0,1,.47,1.62,4.58,4.58,0,0,1-.18,1.31,2.61,2.61,0,0,1-.58,1,2.65,2.65,0,0,1-1,.67,4.36,4.36,0,0,1-1.54.24h-6.23v-2.45h5.27q0.47,0,.88,0A1.93,1.93,0,0,0,1410,485a1.18,1.18,0,0,0,.49-0.46,1.6,1.6,0,0,0,.18-0.82,1.52,1.52,0,0,0-.21-0.84,1.47,1.47,0,0,0-.54-0.5,2.23,2.23,0,0,0-.76-0.24,6,6,0,0,0-.85-0.06h-5.18v-2.45h5.22l0.82,0a2.37,2.37,0,0,0,.75-0.15,1.15,1.15,0,0,0,.55-0.43,1.58,1.58,0,0,0,.21-0.89,1.77,1.77,0,0,0-.08-0.46,1.5,1.5,0,0,0-.31-0.55,1.79,1.79,0,0,0-.65-0.46,2.72,2.72,0,0,0-1.11-.19h-5.4v-2.45h9.31v2.32Z"/><path class="a" d="M670.11,35.05a3.82,3.82,0,0,0,1.13,1.38,4.78,4.78,0,0,0,1.65.78,7.48,7.48,0,0,0,2,.26,9.78,9.78,0,0,0,1.47-.12,5,5,0,0,0,1.47-.46,3.23,3.23,0,0,0,1.14-.94,2.42,2.42,0,0,0,.46-1.51,2.18,2.18,0,0,0-.6-1.6,4.75,4.75,0,0,0-1.58-1,15.33,15.33,0,0,0-2.22-.71q-1.24-.31-2.51-0.68a21.58,21.58,0,0,1-2.55-.83,8.63,8.63,0,0,1-2.22-1.27,5.94,5.94,0,0,1-1.58-2,6.13,6.13,0,0,1-.6-2.84,6.56,6.56,0,0,1,.77-3.25,7.12,7.12,0,0,1,2-2.29,8.58,8.58,0,0,1,2.81-1.36,11.5,11.5,0,0,1,3.13-.44,14.3,14.3,0,0,1,3.51.42,8.6,8.6,0,0,1,3,1.38,6.89,6.89,0,0,1,2.07,2.43,7.71,7.71,0,0,1,.77,3.59h-5a4.44,4.44,0,0,0-.44-1.8,3,3,0,0,0-1-1.12,4.13,4.13,0,0,0-1.42-.58,8.44,8.44,0,0,0-1.75-.17,5.79,5.79,0,0,0-1.24.14,3.26,3.26,0,0,0-1.13.48,2.91,2.91,0,0,0-.83.85,2.36,2.36,0,0,0-.33,1.29,2.26,2.26,0,0,0,.26,1.16,2.34,2.34,0,0,0,1,.82,12.71,12.71,0,0,0,2.12.75l3.54,1q0.65,0.14,1.81.49a8.55,8.55,0,0,1,2.3,1.14,7.13,7.13,0,0,1,2,2.09,6.15,6.15,0,0,1,.83,3.35,7.69,7.69,0,0,1-.62,3.09,6.7,6.7,0,0,1-1.84,2.46,8.73,8.73,0,0,1-3,1.61,13.82,13.82,0,0,1-4.19.58,14.17,14.17,0,0,1-3.74-.49,9.2,9.2,0,0,1-3.2-1.55,7.54,7.54,0,0,1-2.2-2.69,8.29,8.29,0,0,1-.78-3.88h5A4.6,4.6,0,0,0,670.11,35.05Z"/><path class="a" d="M693.35,23.46v3.23H690v8.7a2.44,2.44,0,0,0,.39,1.63,2.21,2.21,0,0,0,1.57.41q0.39,0,.75,0a6,6,0,0,0,.69-0.1V41a10.68,10.68,0,0,1-1.31.14q-0.72,0-1.4,0a13,13,0,0,1-2-.15,4.68,4.68,0,0,1-1.7-.6,3.09,3.09,0,0,1-1.16-1.26,4.65,4.65,0,0,1-.42-2.14V26.69h-2.81V23.46h2.81V18.19H690v5.27h3.39Z"/><path class="a" d="M697.17,23.46v3.26h0.07a6,6,0,0,1,.88-1.51A5.86,5.86,0,0,1,699.39,24a6.16,6.16,0,0,1,1.53-.77,5.33,5.33,0,0,1,1.7-.27,3.49,3.49,0,0,1,1,.17v4.49q-0.33-.07-0.78-0.12a8,8,0,0,0-.88-0.05,4.77,4.77,0,0,0-2.15.44,3.76,3.76,0,0,0-1.42,1.21,4.93,4.93,0,0,0-.77,1.79,10.1,10.1,0,0,0-.23,2.21V41h-4.63V23.46h4.41Z"/><path class="a" d="M702.78,20.74v-4h4.63v4h-4.63Zm4.63,2.72V41h-4.63V23.46h4.63Z"/><path class="a" d="M712.67,23.46V25.7h0.07a5.19,5.19,0,0,1,2.15-2.07,6.39,6.39,0,0,1,2.87-.65,7.08,7.08,0,0,1,3.43.78,7.17,7.17,0,0,1,2.38,2.07,8.93,8.93,0,0,1,1.4,3,13.89,13.89,0,0,1,.46,3.59,12.55,12.55,0,0,1-.46,3.4,8.8,8.8,0,0,1-1.39,2.89,6.94,6.94,0,0,1-2.32,2,6.74,6.74,0,0,1-3.25.75,6.34,6.34,0,0,1-2.89-.66,5.53,5.53,0,0,1-2.17-2H712.9v8.33h-4.63V23.46h4.41Zm6,13.94a3.79,3.79,0,0,0,1.24-1.24,5.25,5.25,0,0,0,.67-1.79,11,11,0,0,0,.2-2.07,10.15,10.15,0,0,0-.21-2.07,5.66,5.66,0,0,0-.7-1.82,4,4,0,0,0-1.26-1.29,3.4,3.4,0,0,0-1.88-.49,3.46,3.46,0,0,0-1.91.49,3.89,3.89,0,0,0-1.24,1.27,5.41,5.41,0,0,0-.67,1.8,11.14,11.14,0,0,0-.2,2.11,10.14,10.14,0,0,0,.21,2.07,5.5,5.5,0,0,0,.69,1.79,3.73,3.73,0,0,0,1.26,1.24A4,4,0,0,0,718.7,37.4Z"/><path class="a" d="M730.36,36.82a4.6,4.6,0,0,0,5.42.32A3,3,0,0,0,737,35.6h4.08a8.07,8.07,0,0,1-3,4.52,8.57,8.57,0,0,1-4.9,1.36,9.28,9.28,0,0,1-3.59-.66,7.45,7.45,0,0,1-2.71-1.89A8.55,8.55,0,0,1,725.19,36a11.08,11.08,0,0,1-.6-3.74,10.62,10.62,0,0,1,.62-3.67A8.67,8.67,0,0,1,727,25.65a8.3,8.3,0,0,1,2.73-2A8.44,8.44,0,0,1,733.2,23a7.76,7.76,0,0,1,3.75.87,7.59,7.59,0,0,1,2.63,2.33,9.77,9.77,0,0,1,1.48,3.33,12.94,12.94,0,0,1,.33,3.91H729.22A5,5,0,0,0,730.36,36.82Zm5.24-9.25a3.18,3.18,0,0,0-2.53-1,3.9,3.9,0,0,0-1.84.39,3.55,3.55,0,0,0-1.17,1,3.6,3.6,0,0,0-.62,1.22,5.69,5.69,0,0,0-.21,1.16h7.54A5.7,5.7,0,0,0,735.6,27.57Z"/><path class="a" d="M745.23,36.67a2.79,2.79,0,0,0,.8.92,3.36,3.36,0,0,0,1.13.53,5.11,5.11,0,0,0,1.32.17,4.76,4.76,0,0,0,1-.12,3.4,3.4,0,0,0,1-.37,2.25,2.25,0,0,0,.73-0.68,1.84,1.84,0,0,0,.29-1.07,1.79,1.79,0,0,0-1.39-1.63,27,27,0,0,0-3.87-1.09q-1-.24-2-0.56a6.63,6.63,0,0,1-1.71-.85,4,4,0,0,1-1.21-1.33,3.87,3.87,0,0,1-.46-2,5.47,5.47,0,0,1,.64-2.79,4.79,4.79,0,0,1,1.68-1.72,7.19,7.19,0,0,1,2.35-.88,13.9,13.9,0,0,1,2.68-.26,12.87,12.87,0,0,1,2.66.27,6.89,6.89,0,0,1,2.3.92,5.39,5.39,0,0,1,1.68,1.72,5.94,5.94,0,0,1,.8,2.7h-4.41a2.13,2.13,0,0,0-1-1.89,4.48,4.48,0,0,0-2.15-.49,7.65,7.65,0,0,0-.85.05,2.74,2.74,0,0,0-.83.22,1.72,1.72,0,0,0-.64.49,1.5,1.5,0,0,0,.2,1.92,3.47,3.47,0,0,0,1.19.66,14.31,14.31,0,0,0,1.68.46l1.93,0.44a19.35,19.35,0,0,1,2,.58,6.42,6.42,0,0,1,1.71.9,4.31,4.31,0,0,1,1.21,1.39,4.23,4.23,0,0,1,.46,2.06,5.79,5.79,0,0,1-.67,2.91,5.49,5.49,0,0,1-1.75,1.89,7,7,0,0,1-2.46,1,13.84,13.84,0,0,1-2.82.29,13.47,13.47,0,0,1-2.87-.31,7.42,7.42,0,0,1-2.5-1,5.72,5.72,0,0,1-1.79-1.89,6.09,6.09,0,0,1-.77-2.94h4.41A2.73,2.73,0,0,0,745.23,36.67Z"/><path class="a" d="M761.37,35.8V41h-5.12V35.8h5.13Z"/></svg>