<svg xmlns="http://www.w3.org/2000/svg" viewBox="0 0 1425 471.77"><defs><style>.a{fill:#fff;}</style></defs><title>thebookofstripes.com_02</title><rect width="1425" height="471.18"/><path class="a" d="M87.87,176.47v-21.8a23.83,23.83,0,0,1,1.34-8.83,22.63,22.63,0,0,1,10.58-12.47,22.69,22.69,0,0,1,8.11-2.64v9.4q-5.36,1.85-7.34,5.49a18.44,18.44,0,0,0-2,8.91h9.31v21.94h-20Zm30,0v-21.8a23.83,23.83,0,0,1,1.34-8.83,22.63,22.63,0,0,1,10.58-12.47,22.7,22.7,0,0,1,8.11-2.64v9.4q-5.36,1.85-7.33,5.49a18.42,18.42,0,0,0-2,8.91h9.31v21.94h-20Z"/><path class="a" d="M141,149.54V130.73H223.5v18.81H193.31v82.93H171.16V149.54H141Z"/><path class="a" d="M205.58,179.68a34.54,34.54,0,0,1,7.62-12.26A34.12,34.12,0,0,1,225,159.58a41.28,41.28,0,0,1,15.52-2.78,41.84,41.84,0,0,1,15.59,2.78,34,34,0,0,1,11.92,7.84,34.58,34.58,0,0,1,7.62,12.26,45.66,45.66,0,0,1,2.68,16,45.06,45.06,0,0,1-2.68,16,34.66,34.66,0,0,1-7.62,12.18,33.14,33.14,0,0,1-11.92,7.77,42.85,42.85,0,0,1-15.59,2.71A42.27,42.27,0,0,1,225,231.62a33.25,33.25,0,0,1-11.85-7.77,34.61,34.61,0,0,1-7.62-12.18,45,45,0,0,1-2.68-16A45.64,45.64,0,0,1,205.58,179.68Zm18.2,24.65a23.08,23.08,0,0,0,2.89,7.55,15.46,15.46,0,0,0,5.43,5.34,16.43,16.43,0,0,0,8.46,2,16.82,16.82,0,0,0,8.53-2,15.29,15.29,0,0,0,5.5-5.34,23.12,23.12,0,0,0,2.89-7.55,43.54,43.54,0,0,0,.85-8.62,44.65,44.65,0,0,0-.85-8.69,22.36,22.36,0,0,0-2.89-7.55,16.14,16.14,0,0,0-5.5-5.34,16.39,16.39,0,0,0-8.53-2.07,16,16,0,0,0-8.46,2.07,16.33,16.33,0,0,0-5.43,5.34,22.31,22.31,0,0,0-2.89,7.55,44.65,44.65,0,0,0-.85,8.69A43.54,43.54,0,0,0,223.78,204.33Z"/><path class="a" d="M279.64,179.68a34.54,34.54,0,0,1,7.62-12.26,34.12,34.12,0,0,1,11.85-7.84,41.28,41.28,0,0,1,15.52-2.78,41.84,41.84,0,0,1,15.59,2.78,34,34,0,0,1,11.92,7.84,34.58,34.58,0,0,1,7.62,12.26,45.66,45.66,0,0,1,2.68,16,45.06,45.06,0,0,1-2.68,16,34.66,34.66,0,0,1-7.62,12.18,33.14,33.14,0,0,1-11.92,7.77,42.85,42.85,0,0,1-15.59,2.71,42.27,42.27,0,0,1-15.52-2.71,33.25,33.25,0,0,1-11.85-7.77,34.61,34.61,0,0,1-7.62-12.18,45,45,0,0,1-2.68-16A45.64,45.64,0,0,1,279.64,179.68Zm18.2,24.65a23.08,23.08,0,0,0,2.89,7.55,15.46,15.46,0,0,0,5.43,5.34,16.43,16.43,0,0,0,8.46,2,16.82,16.82,0,0,0,8.53-2,15.29,15.29,0,0,0,5.5-5.34,23.12,23.12,0,0,0,2.89-7.55,43.54,43.54,0,0,0,.85-8.62,44.65,44.65,0,0,0-.85-8.69,22.36,22.36,0,0,0-2.89-7.55,16.14,16.14,0,0,0-5.5-5.34,16.39,16.39,0,0,0-8.53-2.07,16,16,0,0,0-8.46,2.07,16.33,16.33,0,0,0-5.43,5.34,22.31,22.31,0,0,0-2.89,7.55,44.65,44.65,0,0,0-.85,8.69A43.54,43.54,0,0,0,297.84,204.33Z"/><path class="a" d="M399.84,158.8v10h0.28a28.64,28.64,0,0,1,9.52-8.84,25.61,25.61,0,0,1,12.77-3.13A29.13,29.13,0,0,1,435,159.51q5.71,2.71,8.68,9.55a31.19,31.19,0,0,1,8.82-8.55,23.27,23.27,0,0,1,13.19-3.7,38.6,38.6,0,0,1,10.72,1.42,21.55,21.55,0,0,1,8.46,4.56,20.94,20.94,0,0,1,5.5,8.19,33.54,33.54,0,0,1,2,12.18v49.31h-20V190.72q0-3.7-.28-7a15,15,0,0,0-1.55-5.7,9.46,9.46,0,0,0-3.74-3.85,13.43,13.43,0,0,0-6.7-1.43,12.72,12.72,0,0,0-6.84,1.64,11.82,11.82,0,0,0-4.09,4.27,17.22,17.22,0,0,0-2,6,46.09,46.09,0,0,0-.49,6.77v41h-20V191.15q0-3.28-.14-6.48a18.39,18.39,0,0,0-1.2-5.91,9.1,9.1,0,0,0-3.53-4.35q-2.47-1.64-7.27-1.64a14.87,14.87,0,0,0-3.74.64,12.37,12.37,0,0,0-4.51,2.42,14.15,14.15,0,0,0-3.74,5.13,21,21,0,0,0-1.55,8.76v42.75h-20V158.8h18.9Z"/><path class="a" d="M495.21,181.46a23.67,23.67,0,0,1,3.53-11.83,24.11,24.11,0,0,1,7.9-7.55A34.22,34.22,0,0,1,517.42,158a60.86,60.86,0,0,1,12.06-1.21,81.18,81.18,0,0,1,11.14.78,33.91,33.91,0,0,1,10.3,3.06,20.34,20.34,0,0,1,7.62,6.34q3,4.06,3,10.76v38.33a77.58,77.58,0,0,0,.56,9.55,17.32,17.32,0,0,0,2,6.84H543.74a28.74,28.74,0,0,1-.92-3.49,30.14,30.14,0,0,1-.49-3.63,26.05,26.05,0,0,1-11.29,7,44.91,44.91,0,0,1-13.26,2A35.48,35.48,0,0,1,508,233a22.19,22.19,0,0,1-7.9-4,18.53,18.53,0,0,1-5.29-6.84,23.33,23.33,0,0,1-1.9-9.83A21.65,21.65,0,0,1,495.13,202a18.4,18.4,0,0,1,5.64-6.48,25.19,25.19,0,0,1,7.9-3.63,84.29,84.29,0,0,1,9-1.92q4.51-.71,8.89-1.14a53,53,0,0,0,7.76-1.28,13.47,13.47,0,0,0,5.36-2.49,5.5,5.5,0,0,0,1.83-4.77,10.83,10.83,0,0,0-1.06-5.2,7.83,7.83,0,0,0-2.82-3,11.06,11.06,0,0,0-4.09-1.43,33.36,33.36,0,0,0-5-.36q-5.93,0-9.31,2.57t-3.95,8.55h-20Zm46.27,15a8.94,8.94,0,0,1-3.17,1.78,32.18,32.18,0,0,1-4.09,1.07q-2.19.43-4.58,0.71t-4.8.71a35.94,35.94,0,0,0-4.44,1.14,13.12,13.12,0,0,0-3.81,1.92,9.12,9.12,0,0,0-2.61,3.06,10,10,0,0,0-1,4.7,9.59,9.59,0,0,0,1,4.56,7.6,7.6,0,0,0,2.68,2.92,11.24,11.24,0,0,0,4,1.5,24.94,24.94,0,0,0,4.66.43q5.93,0,9.17-2a13.28,13.28,0,0,0,4.8-4.77,15.37,15.37,0,0,0,1.9-5.63,39.42,39.42,0,0,0,.35-4.56v-7.55Z"/><path class="a" d="M583.94,158.8v10.26h0.42a23.08,23.08,0,0,1,9.88-9.33,28.33,28.33,0,0,1,12.41-2.92q8,0,13.19,2.21a19.6,19.6,0,0,1,8.11,6.13,23.86,23.86,0,0,1,4.16,9.55,60,60,0,0,1,1.2,12.47v45.32h-20V190.86q0-9.12-2.82-13.61t-10-4.49q-8.18,0-11.85,4.92t-3.67,16.17v38.62h-20V158.8h19Z"/><path class="a" d="M663.36,254.42q-5.79,3.85-16.08,3.85-3.1,0-6.14-.21t-6.14-.5V240.88l5.78,0.57a41.48,41.48,0,0,0,5.93.14,7.77,7.77,0,0,0,5.85-3.13,10.18,10.18,0,0,0,1.9-6,12.27,12.27,0,0,0-.85-4.56L628.09,158.8h21.3l16.51,50.45h0.28l15.94-50.45h20.74l-30.47,82.79Q669.15,250.57,663.36,254.42Z"/><path class="a" d="M741.45,214.16A11.78,11.78,0,0,0,744.9,218a14.74,14.74,0,0,0,4.87,2.21,22.63,22.63,0,0,0,5.71.71,21.12,21.12,0,0,0,4.44-.5,15,15,0,0,0,4.23-1.57,9.64,9.64,0,0,0,3.17-2.85,7.54,7.54,0,0,0,1.27-4.49q0-4.56-6-6.84a119.19,119.19,0,0,0-16.72-4.56q-4.37-1-8.53-2.35a29,29,0,0,1-7.41-3.56,17.22,17.22,0,0,1-5.22-5.56,15.86,15.86,0,0,1-2-8.19q0-7.12,2.75-11.68a20.38,20.38,0,0,1,7.27-7.2,31.65,31.65,0,0,1,10.16-3.7,62,62,0,0,1,11.57-1.07,57.29,57.29,0,0,1,11.5,1.14,30.31,30.31,0,0,1,9.95,3.85,23,23,0,0,1,7.26,7.2,24.37,24.37,0,0,1,3.46,11.33h-19q-0.42-5.84-4.37-7.91a19.84,19.84,0,0,0-9.31-2.07,34.21,34.21,0,0,0-3.67.21,12.14,12.14,0,0,0-3.6.93,7.43,7.43,0,0,0-2.75,2.07,5.49,5.49,0,0,0-1.13,3.63,5.57,5.57,0,0,0,2,4.42,15.17,15.17,0,0,0,5.15,2.78,63.78,63.78,0,0,0,7.26,1.92q4.09,0.86,8.32,1.85a84.64,84.64,0,0,1,8.53,2.42,28,28,0,0,1,7.41,3.78,18.24,18.24,0,0,1,5.22,5.84,17.3,17.3,0,0,1,2,8.62A23.7,23.7,0,0,1,785.75,221a23.28,23.28,0,0,1-7.55,7.91,30.73,30.73,0,0,1-10.65,4.2,61.59,61.59,0,0,1-12.2,1.21A59.84,59.84,0,0,1,742.93,233a32.56,32.56,0,0,1-10.79-4.28,24.31,24.31,0,0,1-7.76-7.91,24.94,24.94,0,0,1-3.32-12.33h19A11.17,11.17,0,0,0,741.45,214.16Z"/><path class="a" d="M828.28,158.8v13.54H813.61v36.48q0,5.13,1.69,6.84t6.77,1.71q1.69,0,3.25-.14a27.12,27.12,0,0,0,3-.43v15.68a47.4,47.4,0,0,1-5.64.57q-3.1.14-6.07,0.14a57.88,57.88,0,0,1-8.82-.64,20.63,20.63,0,0,1-7.34-2.49,13.13,13.13,0,0,1-5-5.27,19,19,0,0,1-1.83-9V172.34H781.44V158.8h12.13V136.71h20V158.8h14.67Z"/><path class="a" d="M844.78,158.8v13.68h0.28a25.34,25.34,0,0,1,9.31-11.33,26.86,26.86,0,0,1,6.63-3.21,23.72,23.72,0,0,1,7.34-1.14,15.51,15.51,0,0,1,4.37.71v18.81q-1.41-.28-3.39-0.5a35.46,35.46,0,0,0-3.81-.21,21.18,21.18,0,0,0-9.31,1.85,16.17,16.17,0,0,0-6.14,5.06,20.35,20.35,0,0,0-3.31,7.48,41.07,41.07,0,0,0-1,9.26v33.2h-20V158.8h19Z"/><path class="a" d="M869,147.4V130.73h20V147.4H869Zm20,11.4v73.67H869V158.8h20Z"/><path class="a" d="M911.79,158.8v9.4h0.28a22.11,22.11,0,0,1,9.31-8.69,28.34,28.34,0,0,1,12.42-2.71,31.34,31.34,0,0,1,14.81,3.28,30.7,30.7,0,0,1,10.3,8.69A36.94,36.94,0,0,1,965,181.39a56.61,56.61,0,0,1,2,15,51.15,51.15,0,0,1-2,14.25,36.44,36.44,0,0,1-6,12.11,29,29,0,0,1-24.05,11.54,28.16,28.16,0,0,1-12.49-2.78,23.68,23.68,0,0,1-9.38-8.19h-0.28v34.91h-20V158.8h19Zm26,58.43a16.15,16.15,0,0,0,5.36-5.2,21.58,21.58,0,0,0,2.89-7.48,44.63,44.63,0,0,0,.85-8.69,41.4,41.4,0,0,0-.92-8.69,23.32,23.32,0,0,0-3-7.62,17,17,0,0,0-5.43-5.41,15.06,15.06,0,0,0-8.11-2.07,15.33,15.33,0,0,0-8.25,2.07,16.54,16.54,0,0,0-5.36,5.34,22.31,22.31,0,0,0-2.89,7.55,45.38,45.38,0,0,0-.85,8.84,41.26,41.26,0,0,0,.92,8.69,22.54,22.54,0,0,0,3,7.48A17,17,0,0,0,937.82,217.23Z"/><path class="a" d="M988.25,214.8q4.51,4.42,13,4.42a17.72,17.72,0,0,0,10.44-3.06q4.37-3.06,5.36-6.48h17.63q-4.23,13.25-13,19t-21.16,5.7A41.28,41.28,0,0,1,985,231.55a32.24,32.24,0,0,1-11.71-7.91,35.63,35.63,0,0,1-7.41-12.25,45.23,45.23,0,0,1-2.61-15.68A43.36,43.36,0,0,1,966,180.32a35.46,35.46,0,0,1,19.4-20.52,37.44,37.44,0,0,1,15.17-3,34.4,34.4,0,0,1,16.22,3.63,32.49,32.49,0,0,1,11.36,9.76,40.34,40.34,0,0,1,6.42,14,52.59,52.59,0,0,1,1.41,16.39H983.31Q983.74,210.39,988.25,214.8ZM1010.89,176q-3.6-4-10.93-4a17.3,17.3,0,0,0-8,1.64,15.22,15.22,0,0,0-5.08,4.06,14.91,14.91,0,0,0-2.68,5.13,23.28,23.28,0,0,0-.92,4.85h32.59Q1014.49,180,1010.89,176Z"/><path class="a" d="M1052.51,214.16A11.78,11.78,0,0,0,1056,218a14.74,14.74,0,0,0,4.87,2.21,22.63,22.63,0,0,0,5.71.71,21.12,21.12,0,0,0,4.44-.5,15,15,0,0,0,4.23-1.57,9.64,9.64,0,0,0,3.17-2.85,7.54,7.54,0,0,0,1.27-4.49q0-4.56-6-6.84a119.19,119.19,0,0,0-16.72-4.56q-4.37-1-8.53-2.35a29,29,0,0,1-7.41-3.56,17.22,17.22,0,0,1-5.22-5.56,15.86,15.86,0,0,1-2-8.19q0-7.12,2.75-11.68a20.38,20.38,0,0,1,7.27-7.2,31.65,31.65,0,0,1,10.16-3.7,62,62,0,0,1,11.57-1.07,57.29,57.29,0,0,1,11.5,1.14,30.31,30.31,0,0,1,9.95,3.85,23,23,0,0,1,7.26,7.2,24.37,24.37,0,0,1,3.46,11.33h-19q-0.42-5.84-4.37-7.91a19.84,19.84,0,0,0-9.31-2.07,34.21,34.21,0,0,0-3.67.21,12.14,12.14,0,0,0-3.6.93,7.43,7.43,0,0,0-2.75,2.07,5.49,5.49,0,0,0-1.13,3.63,5.57,5.57,0,0,0,2,4.42,15.17,15.17,0,0,0,5.15,2.78,63.78,63.78,0,0,0,7.26,1.92q4.09,0.86,8.32,1.85a84.64,84.64,0,0,1,8.53,2.42,28,28,0,0,1,7.41,3.78,18.24,18.24,0,0,1,5.22,5.84,17.3,17.3,0,0,1,2,8.62,23.7,23.7,0,0,1-2.89,12.18,23.28,23.28,0,0,1-7.55,7.91,30.73,30.73,0,0,1-10.65,4.2,61.59,61.59,0,0,1-12.2,1.21A59.84,59.84,0,0,1,1054,233a32.56,32.56,0,0,1-10.79-4.28,24.31,24.31,0,0,1-7.76-7.91,24.94,24.94,0,0,1-3.32-12.33h19A11.17,11.17,0,0,0,1052.51,214.16Z"/><path class="a" d="M1161.21,172.05a14,14,0,0,0-8,2.21,17.48,17.48,0,0,0-5.29,5.7,24.79,24.79,0,0,0-2.89,7.69,42.15,42.15,0,0,0-.85,8.34,40.39,40.39,0,0,0,.85,8.12,25.26,25.26,0,0,0,2.75,7.48,15.87,15.87,0,0,0,5.15,5.49,14,14,0,0,0,7.9,2.14q7.2,0,11.07-4.06a19.31,19.31,0,0,0,4.87-10.9h19.33q-2,14.68-11.29,22.37t-23.84,7.69a39.56,39.56,0,0,1-15-2.78,33.24,33.24,0,0,1-11.64-7.77,35.36,35.36,0,0,1-7.48-11.9,41.62,41.62,0,0,1-2.68-15.18,49.5,49.5,0,0,1,2.47-15.89,35.79,35.79,0,0,1,7.26-12.68,33.24,33.24,0,0,1,11.71-8.34,39.43,39.43,0,0,1,15.8-3,45.32,45.32,0,0,1,12.49,1.71,33.23,33.23,0,0,1,10.72,5.2,27,27,0,0,1,11.07,21H1176Q1174,172.05,1161.21,172.05Z"/><path class="a" d="M1194.36,181.46a23.67,23.67,0,0,1,3.53-11.83,24.11,24.11,0,0,1,7.9-7.55,34.22,34.22,0,0,1,10.79-4.06,60.86,60.86,0,0,1,12.06-1.21,81.18,81.18,0,0,1,11.14.78,33.91,33.91,0,0,1,10.3,3.06,20.34,20.34,0,0,1,7.62,6.34q3,4.06,3,10.76v38.33a77.58,77.58,0,0,0,.56,9.55,17.32,17.32,0,0,0,2,6.84h-20.31A28.74,28.74,0,0,1,1242,229a30.14,30.14,0,0,1-.49-3.63,26.05,26.05,0,0,1-11.29,7,44.91,44.91,0,0,1-13.26,2,35.48,35.48,0,0,1-9.73-1.28,22.19,22.19,0,0,1-7.9-4,18.53,18.53,0,0,1-5.29-6.84,23.33,23.33,0,0,1-1.9-9.83,21.65,21.65,0,0,1,2.19-10.33,18.4,18.4,0,0,1,5.64-6.48,25.19,25.19,0,0,1,7.9-3.63,84.29,84.29,0,0,1,9-1.92q4.51-.71,8.89-1.14a53,53,0,0,0,7.76-1.28,13.47,13.47,0,0,0,5.36-2.49,5.5,5.5,0,0,0,1.83-4.77,10.83,10.83,0,0,0-1.06-5.2,7.83,7.83,0,0,0-2.82-3,11.06,11.06,0,0,0-4.09-1.43,33.36,33.36,0,0,0-5-.36q-5.93,0-9.31,2.57t-3.95,8.55h-20Zm46.27,15a8.94,8.94,0,0,1-3.17,1.78,32.18,32.18,0,0,1-4.09,1.07q-2.19.43-4.58,0.71t-4.8.71a35.94,35.94,0,0,0-4.44,1.14,13.12,13.12,0,0,0-3.81,1.92,9.12,9.12,0,0,0-2.61,3.06,10,10,0,0,0-1,4.7,9.59,9.59,0,0,0,1,4.56,7.6,7.6,0,0,0,2.68,2.92,11.24,11.24,0,0,0,4,1.5,24.94,24.94,0,0,0,4.66.43q5.93,0,9.17-2a13.28,13.28,0,0,0,4.8-4.77,15.37,15.37,0,0,0,1.9-5.63,39.42,39.42,0,0,0,.35-4.56v-7.55Z"/><path class="a" d="M1283.09,158.8v10.26h0.42a23.08,23.08,0,0,1,9.88-9.33,28.33,28.33,0,0,1,12.41-2.92q8,0,13.19,2.21a19.6,19.6,0,0,1,8.11,6.13,23.86,23.86,0,0,1,4.16,9.55,60,60,0,0,1,1.2,12.47v45.32h-20V190.86q0-9.12-2.82-13.61t-10-4.49q-8.18,0-11.85,4.92t-3.67,16.17v38.62h-20V158.8h19Z"/><path class="a" d="M80.25,298.69V285.15h12v-5.7q0-9.83,6.07-16.1t18.34-6.27q2.68,0,5.36.21t5.22,0.36v15.1a61,61,0,0,0-7.34-.43q-4.09,0-5.85,1.92t-1.76,6.48v4.42H126.1v13.54H112.27v60.13h-20V298.69h-12Z"/><path class="a" d="M123.28,273.75V257.08h20v16.67h-20Zm20,11.4v73.67h-20V285.15h20Z"/><path class="a" d="M166,285.15v10.26h0.42a23.08,23.08,0,0,1,9.88-9.33,28.33,28.33,0,0,1,12.41-2.92q8,0,13.19,2.21a19.6,19.6,0,0,1,8.11,6.13A23.86,23.86,0,0,1,214.2,301a60,60,0,0,1,1.2,12.47v45.32h-20V317.21q0-9.12-2.82-13.61t-10-4.49q-8.18,0-11.85,4.92T167,320.21v38.62H147V285.15h19Z"/><path class="a" d="M217.65,307.81A23.67,23.67,0,0,1,221.18,296a24.11,24.11,0,0,1,7.9-7.55,34.22,34.22,0,0,1,10.79-4.06,60.86,60.86,0,0,1,12.06-1.21,81.18,81.18,0,0,1,11.14.78,33.91,33.91,0,0,1,10.3,3.06,20.34,20.34,0,0,1,7.62,6.34q3,4.06,3,10.76v38.33a77.58,77.58,0,0,0,.56,9.55,17.32,17.32,0,0,0,2,6.84H266.18a28.74,28.74,0,0,1-.92-3.49,30.14,30.14,0,0,1-.49-3.63,26.05,26.05,0,0,1-11.29,7,44.91,44.91,0,0,1-13.26,2,35.49,35.49,0,0,1-9.73-1.28,22.19,22.19,0,0,1-7.9-4,18.52,18.52,0,0,1-5.29-6.84,23.33,23.33,0,0,1-1.9-9.83,21.65,21.65,0,0,1,2.19-10.33,18.4,18.4,0,0,1,5.64-6.48,25.19,25.19,0,0,1,7.9-3.63,84.29,84.29,0,0,1,9-1.92q4.51-.71,8.89-1.14a53,53,0,0,0,7.76-1.28,13.47,13.47,0,0,0,5.36-2.49,5.5,5.5,0,0,0,1.83-4.77,10.83,10.83,0,0,0-1.06-5.2,7.83,7.83,0,0,0-2.82-3A11.06,11.06,0,0,0,256,297a33.35,33.35,0,0,0-5-.36q-5.93,0-9.31,2.57t-3.95,8.55h-20Zm46.27,15a8.94,8.94,0,0,1-3.17,1.78,32.17,32.17,0,0,1-4.09,1.07q-2.19.43-4.58,0.71t-4.8.71a35.94,35.94,0,0,0-4.44,1.14,13.12,13.12,0,0,0-3.81,1.92,9.12,9.12,0,0,0-2.61,3.06,10,10,0,0,0-1,4.7,9.59,9.59,0,0,0,1,4.56,7.6,7.6,0,0,0,2.68,2.92,11.24,11.24,0,0,0,4,1.5,25,25,0,0,0,4.66.43q5.93,0,9.17-2a13.28,13.28,0,0,0,4.8-4.77,15.37,15.37,0,0,0,1.9-5.63,39.42,39.42,0,0,0,.35-4.56v-7.55Z"/><path class="a" d="M307.94,257.08V358.82h-20V257.08h20Z"/><path class="a" d="M332.2,257.08V358.82h-20V257.08h20Z"/><path class="a" d="M362.82,380.77q-5.79,3.85-16.08,3.85-3.1,0-6.14-.21t-6.14-.5V367.23l5.78,0.57a41.49,41.49,0,0,0,5.93.14,7.77,7.77,0,0,0,5.85-3.14,10.18,10.18,0,0,0,1.9-6,12.27,12.27,0,0,0-.85-4.56l-25.53-69.11h21.3l16.51,50.45h0.28l15.94-50.45h20.74l-30.47,82.79Q368.6,376.92,362.82,380.77Z"/><path class="a" d="M475.82,349.42a20.74,20.74,0,0,1-9.24,8.62,30.48,30.48,0,0,1-12.91,2.64,30.92,30.92,0,0,1-14.39-3.21,28.94,28.94,0,0,1-10.23-8.69A39.55,39.55,0,0,1,423,336.17a53.41,53.41,0,0,1-2-14.82A50.19,50.19,0,0,1,423,307a37.35,37.35,0,0,1,6.07-12.18,30.33,30.33,0,0,1,10.09-8.48,29.75,29.75,0,0,1,14.11-3.21,28.45,28.45,0,0,1,12.34,2.78,21.59,21.59,0,0,1,9.24,8.19h0.28v-37h20V358.82h-19v-9.4h-0.28ZM475,313a21.59,21.59,0,0,0-2.89-7.41,16.39,16.39,0,0,0-5.29-5.2,15.4,15.4,0,0,0-8.18-2,16.15,16.15,0,0,0-8.32,2,15.69,15.69,0,0,0-5.43,5.27,23.43,23.43,0,0,0-3,7.48,41,41,0,0,0-.92,8.76,37.89,37.89,0,0,0,1,8.55,23.41,23.41,0,0,0,3.17,7.62,17.64,17.64,0,0,0,5.5,5.42,14.76,14.76,0,0,0,8,2.07,15.75,15.75,0,0,0,8.25-2,15.1,15.1,0,0,0,5.29-5.34,24.09,24.09,0,0,0,2.82-7.62,45.36,45.36,0,0,0,.85-8.84A44.31,44.31,0,0,0,475,313Z"/><path class="a" d="M517.15,285.15v13.68h0.28a25.34,25.34,0,0,1,9.31-11.33,26.85,26.85,0,0,1,6.63-3.21,23.72,23.72,0,0,1,7.34-1.14,15.51,15.51,0,0,1,4.37.71v18.81q-1.41-.28-3.39-0.5a35.46,35.46,0,0,0-3.81-.21,21.19,21.19,0,0,0-9.31,1.85,16.17,16.17,0,0,0-6.14,5.06,20.35,20.35,0,0,0-3.31,7.48,41.07,41.07,0,0,0-1,9.26v33.2h-20V285.15h19Z"/><path class="a" d="M541.42,273.75V257.08h20v16.67h-20Zm20,11.4v73.67h-20V285.15h20Z"/><path class="a" d="M583.17,358.82l-25-73.67h21l15.38,50.3h0.28l15.38-50.3h19.89l-24.69,73.67H583.17Z"/><path class="a" d="M647.78,341.15q4.51,4.42,13,4.42a17.72,17.72,0,0,0,10.44-3.06q4.37-3.06,5.36-6.48H694.2q-4.23,13.25-13,19t-21.16,5.7a41.28,41.28,0,0,1-15.52-2.78A32.24,32.24,0,0,1,632.83,350a35.63,35.63,0,0,1-7.41-12.26,45.23,45.23,0,0,1-2.61-15.68,43.36,43.36,0,0,1,2.68-15.39,35.46,35.46,0,0,1,19.4-20.52,37.44,37.44,0,0,1,15.17-3,34.4,34.4,0,0,1,16.22,3.63,32.49,32.49,0,0,1,11.36,9.76,40.34,40.34,0,0,1,6.42,14,52.59,52.59,0,0,1,1.41,16.39H642.85Q643.27,336.74,647.78,341.15Zm22.64-38.76q-3.6-4-10.93-4a17.3,17.3,0,0,0-8,1.64,15.22,15.22,0,0,0-5.08,4.06,14.91,14.91,0,0,0-2.68,5.13,23.27,23.27,0,0,0-.92,4.84h32.59Q674,306.38,670.43,302.39Z"/><path class="a" d="M749.22,380.77q-5.79,3.85-16.08,3.85-3.1,0-6.14-.21t-6.14-.5V367.23l5.78,0.57a41.49,41.49,0,0,0,5.93.14,7.77,7.77,0,0,0,5.85-3.14,10.18,10.18,0,0,0,1.9-6,12.27,12.27,0,0,0-.85-4.56l-25.53-69.11h21.3l16.51,50.45H752L768,285.15h20.74l-30.47,82.79Q755,376.92,749.22,380.77Z"/><path class="a" d="M783.78,306a34.54,34.54,0,0,1,7.62-12.25,34.12,34.12,0,0,1,11.85-7.84,41.28,41.28,0,0,1,15.52-2.78,41.84,41.84,0,0,1,15.59,2.78,34,34,0,0,1,11.92,7.84A34.58,34.58,0,0,1,853.89,306a45.66,45.66,0,0,1,2.68,16,45.06,45.06,0,0,1-2.68,16,34.66,34.66,0,0,1-7.62,12.18A33.14,33.14,0,0,1,834.35,358a42.85,42.85,0,0,1-15.59,2.71A42.27,42.27,0,0,1,803.25,358a33.25,33.25,0,0,1-11.85-7.77A34.62,34.62,0,0,1,783.78,338a45,45,0,0,1-2.68-16A45.64,45.64,0,0,1,783.78,306ZM802,330.68a23.08,23.08,0,0,0,2.89,7.55,15.46,15.46,0,0,0,5.43,5.34,16.43,16.43,0,0,0,8.46,2,16.82,16.82,0,0,0,8.53-2,15.29,15.29,0,0,0,5.5-5.34,23.12,23.12,0,0,0,2.89-7.55,43.54,43.54,0,0,0,.85-8.62,44.65,44.65,0,0,0-.85-8.69,22.36,22.36,0,0,0-2.89-7.55,16.14,16.14,0,0,0-5.5-5.34,16.39,16.39,0,0,0-8.53-2.07,16,16,0,0,0-8.46,2.07,16.33,16.33,0,0,0-5.43,5.34,22.31,22.31,0,0,0-2.89,7.55,44.65,44.65,0,0,0-.85,8.69A43.54,43.54,0,0,0,802,330.68Z"/><path class="a" d="M906.79,358.82V348.56h-0.42a22.64,22.64,0,0,1-9.87,9.26,28.92,28.92,0,0,1-12.42,2.85,34.72,34.72,0,0,1-13.19-2.14,19,19,0,0,1-8.11-6.06,23.8,23.8,0,0,1-4.16-9.55,59.86,59.86,0,0,1-1.2-12.47V285.15h20v41.61q0,9.12,2.82,13.61t10,4.49q8.18,0,11.85-4.92t3.67-16.17V285.15h20v73.67h-19Z"/><path class="a" d="M975.5,285.15v10h0.28a28.64,28.64,0,0,1,9.52-8.83,25.61,25.61,0,0,1,12.77-3.14,29.13,29.13,0,0,1,12.63,2.71q5.71,2.71,8.68,9.55a31.19,31.19,0,0,1,8.82-8.55,23.27,23.27,0,0,1,13.19-3.71,38.61,38.61,0,0,1,10.72,1.42,21.55,21.55,0,0,1,8.46,4.56,20.94,20.94,0,0,1,5.5,8.19,33.54,33.54,0,0,1,2,12.18v49.3h-20V317.07q0-3.7-.28-7a15,15,0,0,0-1.55-5.7,9.46,9.46,0,0,0-3.74-3.85,13.43,13.43,0,0,0-6.7-1.43,12.72,12.72,0,0,0-6.84,1.64,11.82,11.82,0,0,0-4.09,4.27,17.22,17.22,0,0,0-2,6,46.09,46.09,0,0,0-.49,6.77v41h-20V317.5q0-3.28-.14-6.48a18.39,18.39,0,0,0-1.2-5.91,9.1,9.1,0,0,0-3.53-4.35q-2.47-1.64-7.27-1.64a14.87,14.87,0,0,0-3.74.64,12.37,12.37,0,0,0-4.51,2.42,14.15,14.15,0,0,0-3.74,5.13,21,21,0,0,0-1.55,8.76v42.75h-20V285.15h18.9Z"/><path class="a" d="M1070.86,307.81a23.67,23.67,0,0,1,3.53-11.83,24.11,24.11,0,0,1,7.9-7.55,34.22,34.22,0,0,1,10.79-4.06,60.86,60.86,0,0,1,12.06-1.21,81.18,81.18,0,0,1,11.14.78,33.91,33.91,0,0,1,10.3,3.06,20.34,20.34,0,0,1,7.62,6.34q3,4.06,3,10.76v38.33a77.58,77.58,0,0,0,.56,9.55,17.32,17.32,0,0,0,2,6.84h-20.31a28.74,28.74,0,0,1-.92-3.49,30.14,30.14,0,0,1-.49-3.63,26.05,26.05,0,0,1-11.29,7,44.91,44.91,0,0,1-13.26,2,35.49,35.49,0,0,1-9.73-1.28,22.19,22.19,0,0,1-7.9-4,18.52,18.52,0,0,1-5.29-6.84,23.33,23.33,0,0,1-1.9-9.83,21.65,21.65,0,0,1,2.19-10.33,18.4,18.4,0,0,1,5.64-6.48,25.19,25.19,0,0,1,7.9-3.63,84.29,84.29,0,0,1,9-1.92q4.51-.71,8.89-1.14a53,53,0,0,0,7.76-1.28,13.47,13.47,0,0,0,5.36-2.49,5.5,5.5,0,0,0,1.83-4.77,10.83,10.83,0,0,0-1.06-5.2,7.83,7.83,0,0,0-2.82-3,11.06,11.06,0,0,0-4.09-1.42,33.35,33.35,0,0,0-5-.36q-5.93,0-9.31,2.57t-3.95,8.55h-20Zm46.27,15a8.94,8.94,0,0,1-3.17,1.78,32.17,32.17,0,0,1-4.09,1.07q-2.19.43-4.58,0.71t-4.8.71a35.94,35.94,0,0,0-4.44,1.14,13.12,13.12,0,0,0-3.81,1.92,9.12,9.12,0,0,0-2.61,3.06,10,10,0,0,0-1,4.7,9.59,9.59,0,0,0,1,4.56,7.6,7.6,0,0,0,2.68,2.92,11.24,11.24,0,0,0,4,1.5,25,25,0,0,0,4.66.43q5.93,0,9.17-2a13.28,13.28,0,0,0,4.8-4.77,15.37,15.37,0,0,0,1.9-5.63,39.42,39.42,0,0,0,.35-4.56v-7.55Z"/><path class="a" d="M1192.33,349.42a20.74,20.74,0,0,1-9.24,8.62,30.48,30.48,0,0,1-12.91,2.64,30.92,30.92,0,0,1-14.39-3.21,28.94,28.94,0,0,1-10.23-8.69,39.55,39.55,0,0,1-6.07-12.61,53.41,53.41,0,0,1-2-14.82,50.19,50.19,0,0,1,2-14.32,37.35,37.35,0,0,1,6.07-12.18,30.33,30.33,0,0,1,10.09-8.48,29.75,29.75,0,0,1,14.11-3.21,28.45,28.45,0,0,1,12.34,2.78,21.59,21.59,0,0,1,9.24,8.19h0.28v-37h20V358.82h-19v-9.4h-0.28ZM1191.48,313a21.59,21.59,0,0,0-2.89-7.41,16.39,16.39,0,0,0-5.29-5.2,15.4,15.4,0,0,0-8.18-2,16.15,16.15,0,0,0-8.32,2,15.69,15.69,0,0,0-5.43,5.27,23.43,23.43,0,0,0-3,7.48,41,41,0,0,0-.92,8.76,37.89,37.89,0,0,0,1,8.55,23.41,23.41,0,0,0,3.17,7.62,17.64,17.64,0,0,0,5.5,5.42,14.76,14.76,0,0,0,8,2.07,15.75,15.75,0,0,0,8.25-2,15.1,15.1,0,0,0,5.29-5.34,24.09,24.09,0,0,0,2.82-7.62,45.36,45.36,0,0,0,.85-8.84A44.31,44.31,0,0,0,1191.48,313Z"/><path class="a" d="M1237.61,336.88v21.95h-22.15V336.88h22.15Z"/><path class="a" d="M1261.73,257.08v21.8a23.86,23.86,0,0,1-1.34,8.84,22.63,22.63,0,0,1-10.58,12.47,22.63,22.63,0,0,1-8.11,2.64v-9.4q5.36-1.85,7.34-5.49a18.45,18.45,0,0,0,2-8.91h-9.31V257.08h20Zm30,0v21.8a23.86,23.86,0,0,1-1.34,8.84,22.63,22.63,0,0,1-10.58,12.47,22.64,22.64,0,0,1-8.11,2.64v-9.4q5.36-1.85,7.34-5.49a18.44,18.44,0,0,0,2-8.91h-9.31V257.08h20Z"/></svg>