<svg id="text" xmlns="http://www.w3.org/2000/svg" viewBox="0 0 1425 1286">
  <title>homepage_texts</title>
  <g>
    <path d="M-63.59,131.31V97.11h29.38V82.71q0-24.84,14.86-40.68T25.57,26.19q6.56,0,13.13.54t12.79,0.9V65.79a144.84,144.84,0,0,0-18-1.08q-10,0-14.34,4.86T14.86,85.95V97.11H48.73v34.2H14.86V283.23H-34.22V131.31H-63.59Z"/>
    <path d="M41.47,149.85a87.68,87.68,0,0,1,18.66-31,83.43,83.43,0,0,1,29-19.8q16.93-7,38-7t38.19,7a83.13,83.13,0,0,1,29.2,19.8,87.84,87.84,0,0,1,18.66,31q6.56,18.18,6.57,40.5t-6.57,40.32a88,88,0,0,1-18.66,30.78,81,81,0,0,1-29.2,19.62q-17.11,6.83-38.19,6.84t-38-6.84a81.29,81.29,0,0,1-29-19.62,87.85,87.85,0,0,1-18.66-30.78q-6.57-18-6.57-40.32T41.47,149.85Zm44.58,62.28a59.4,59.4,0,0,0,7.08,19.08,38.43,38.43,0,0,0,13.31,13.5q8.29,5,20.74,5t20.91-5a38,38,0,0,0,13.48-13.5,59.52,59.52,0,0,0,7.08-19.08,113.33,113.33,0,0,0,2.07-21.78,116.21,116.21,0,0,0-2.07-22,57.54,57.54,0,0,0-7.08-19.08,40.13,40.13,0,0,0-13.48-13.5q-8.47-5.21-20.91-5.22t-20.74,5.22a40.6,40.6,0,0,0-13.31,13.5,57.43,57.43,0,0,0-7.08,19.08,116.23,116.23,0,0,0-2.07,22A113.35,113.35,0,0,0,86.05,212.13Z"/>
    <path d="M272.33,26.19v257H223.25v-257h49.08Z"/>
    <path d="M331.77,26.19v257H282.69v-257h49.08Z"/>
    <path d="M391.21,26.19v257H342.13v-257h49.08Z"/>
    <path d="M401.23,149.85a87.68,87.68,0,0,1,18.66-31,83.43,83.43,0,0,1,29-19.8q16.93-7,38-7t38.19,7a83.13,83.13,0,0,1,29.2,19.8,87.84,87.84,0,0,1,18.66,31q6.56,18.18,6.57,40.5T573,230.67a88,88,0,0,1-18.66,30.78,81,81,0,0,1-29.2,19.62q-17.11,6.83-38.19,6.84t-38-6.84a81.29,81.29,0,0,1-29-19.62,87.85,87.85,0,0,1-18.66-30.78q-6.57-18-6.57-40.32T401.23,149.85Zm44.58,62.28a59.4,59.4,0,0,0,7.08,19.08,38.43,38.43,0,0,0,13.31,13.5q8.29,5,20.74,5t20.91-5a38,38,0,0,0,13.48-13.5,59.52,59.52,0,0,0,7.08-19.08,113.33,113.33,0,0,0,2.07-21.78,116.21,116.21,0,0,0-2.07-22,57.54,57.54,0,0,0-7.08-19.08,40.13,40.13,0,0,0-13.48-13.5q-8.47-5.21-20.91-5.22t-20.74,5.22a40.6,40.6,0,0,0-13.31,13.5,57.43,57.43,0,0,0-7.08,19.08,116.23,116.23,0,0,0-2.07,22A113.35,113.35,0,0,0,445.81,212.13Z"/>
    <path d="M735.42,283.23l-31.8-124.92h-0.69L672.52,283.23h-50.8L565,97.11h51.84l32.83,126.36h0.69L680.13,97.11h47.69l30.41,126h0.69l32.83-126h50.46L785.88,283.23H735.42Z"/>
    <path d="M870.55,227.79v55.44H816.29V227.79h54.26Z"/>
    <path d="M861.91,131.31V97.11h29.38V82.71q0-24.84,14.86-40.68t44.93-15.84q6.56,0,13.13.54T977,27.63V65.79a144.84,144.84,0,0,0-18-1.08q-10,0-14.34,4.86t-4.32,16.38V97.11h33.87v34.2H940.36V283.23H891.29V131.31H861.91Z"/>
    <path d="M967,149.85a87.68,87.68,0,0,1,18.66-31,83.43,83.43,0,0,1,29-19.8q16.93-7,38-7t38.19,7a83.13,83.13,0,0,1,29.2,19.8,87.84,87.84,0,0,1,18.66,31q6.56,18.18,6.57,40.5t-6.57,40.32a88,88,0,0,1-18.66,30.78,81,81,0,0,1-29.2,19.62q-17.11,6.83-38.19,6.84t-38-6.84a81.29,81.29,0,0,1-29-19.62A87.85,87.85,0,0,1,967,230.67q-6.57-18-6.57-40.32T967,149.85Zm44.58,62.28a59.4,59.4,0,0,0,7.08,19.08,38.43,38.43,0,0,0,13.31,13.5q8.29,5,20.74,5t20.91-5a38,38,0,0,0,13.48-13.5,59.52,59.52,0,0,0,7.08-19.08,113.33,113.33,0,0,0,2.07-21.78,116.21,116.21,0,0,0-2.07-22,57.54,57.54,0,0,0-7.08-19.08,40.13,40.13,0,0,0-13.48-13.5q-8.47-5.21-20.91-5.22t-20.74,5.22a40.6,40.6,0,0,0-13.31,13.5,57.43,57.43,0,0,0-7.08,19.08,116.23,116.23,0,0,0-2.07,22A113.35,113.35,0,0,0,1011.56,212.13Z"/>
    <path d="M1197.83,26.19v257h-49.08v-257h49.08Z"/>
    <path d="M1257.27,26.19v257H1208.2v-257h49.08Z"/>
    <path d="M1267.29,149.85a87.68,87.68,0,0,1,18.66-31,83.43,83.43,0,0,1,29-19.8q16.93-7,38-7t38.19,7a83.13,83.13,0,0,1,29.2,19.8,87.84,87.84,0,0,1,18.66,31q6.56,18.18,6.57,40.5t-6.57,40.32a88,88,0,0,1-18.66,30.78,81,81,0,0,1-29.2,19.62q-17.11,6.83-38.19,6.84t-38-6.84a81.29,81.29,0,0,1-29-19.62,87.85,87.85,0,0,1-18.66-30.78q-6.57-18-6.57-40.32T1267.29,149.85Zm44.58,62.28a59.4,59.4,0,0,0,7.08,19.08,38.43,38.43,0,0,0,13.31,13.5q8.29,5,20.74,5t20.91-5a38,38,0,0,0,13.48-13.5,59.52,59.52,0,0,0,7.08-19.08,113.33,113.33,0,0,0,2.07-21.78,116.21,116.21,0,0,0-2.07-22,57.54,57.54,0,0,0-7.08-19.08,40.13,40.13,0,0,0-13.48-13.5q-8.47-5.21-20.91-5.22t-20.74,5.22a40.6,40.6,0,0,0-13.31,13.5,57.43,57.43,0,0,0-7.08,19.08,116.23,116.23,0,0,0-2.07,22A113.35,113.35,0,0,0,1311.88,212.13Z"/>
    <path d="M-63.59,583.31v-34.2h29.38v-14.4q0-24.84,14.86-40.68t44.93-15.84q6.56,0,13.13.54t12.79,0.9v38.16a144.84,144.84,0,0,0-18-1.08q-10,0-14.34,4.86t-4.32,16.38v11.16H48.73v34.2H14.86V735.23H-34.22V583.31H-63.59Z"/>
    <path d="M41.47,601.85a87.68,87.68,0,0,1,18.66-31,83.43,83.43,0,0,1,29-19.8q16.93-7,38-7t38.19,7a83.13,83.13,0,0,1,29.2,19.8,87.84,87.84,0,0,1,18.66,31q6.56,18.18,6.57,40.5t-6.57,40.32a88,88,0,0,1-18.66,30.78,81,81,0,0,1-29.2,19.62q-17.11,6.83-38.19,6.84t-38-6.84a81.29,81.29,0,0,1-29-19.62,87.85,87.85,0,0,1-18.66-30.78q-6.57-18-6.57-40.32T41.47,601.85Zm44.58,62.28a59.4,59.4,0,0,0,7.08,19.08,38.43,38.43,0,0,0,13.31,13.5q8.29,5,20.74,5t20.91-5a38,38,0,0,0,13.48-13.5,59.52,59.52,0,0,0,7.08-19.08,113.33,113.33,0,0,0,2.07-21.78,116.21,116.21,0,0,0-2.07-22,57.54,57.54,0,0,0-7.08-19.08,40.13,40.13,0,0,0-13.48-13.5q-8.47-5.21-20.91-5.22t-20.74,5.22a40.6,40.6,0,0,0-13.31,13.5,57.43,57.43,0,0,0-7.08,19.08,116.23,116.23,0,0,0-2.07,22A113.35,113.35,0,0,0,86.05,664.13Z"/>
    <path d="M272.33,478.19v257H223.25v-257h49.08Z"/>
    <path d="M331.77,478.19v257H282.69v-257h49.08Z"/>
    <path d="M391.21,478.19v257H342.13v-257h49.08Z"/>
    <path d="M401.23,601.85a87.68,87.68,0,0,1,18.66-31,83.43,83.43,0,0,1,29-19.8q16.93-7,38-7t38.19,7a83.13,83.13,0,0,1,29.2,19.8,87.84,87.84,0,0,1,18.66,31q6.56,18.18,6.57,40.5T573,682.67a88,88,0,0,1-18.66,30.78,81,81,0,0,1-29.2,19.62q-17.11,6.83-38.19,6.84t-38-6.84a81.29,81.29,0,0,1-29-19.62,87.85,87.85,0,0,1-18.66-30.78q-6.57-18-6.57-40.32T401.23,601.85Zm44.58,62.28a59.4,59.4,0,0,0,7.08,19.08,38.43,38.43,0,0,0,13.31,13.5q8.29,5,20.74,5t20.91-5a38,38,0,0,0,13.48-13.5,59.52,59.52,0,0,0,7.08-19.08,113.33,113.33,0,0,0,2.07-21.78,116.21,116.21,0,0,0-2.07-22,57.54,57.54,0,0,0-7.08-19.08,40.13,40.13,0,0,0-13.48-13.5q-8.47-5.21-20.91-5.22t-20.74,5.22a40.6,40.6,0,0,0-13.31,13.5,57.43,57.43,0,0,0-7.08,19.08,116.23,116.23,0,0,0-2.07,22A113.35,113.35,0,0,0,445.81,664.13Z"/>
    <path d="M735.42,735.23l-31.8-124.92h-0.69L672.52,735.23h-50.8L565,549.11h51.84l32.83,126.36h0.69l29.72-126.36h47.69l30.41,126h0.69l32.83-126h50.46L785.88,735.23H735.42Z"/>
    <path d="M870.55,679.79v55.44H816.29V679.79h54.26Z"/>
    <path d="M861.91,583.31v-34.2h29.38v-14.4q0-24.84,14.86-40.68t44.93-15.84q6.56,0,13.13.54t12.79,0.9v38.16a144.84,144.84,0,0,0-18-1.08q-10,0-14.34,4.86t-4.32,16.38v11.16h33.87v34.2H940.36V735.23H891.29V583.31H861.91Z"/>
    <path d="M967,601.85a87.68,87.68,0,0,1,18.66-31,83.43,83.43,0,0,1,29-19.8q16.93-7,38-7t38.19,7a83.13,83.13,0,0,1,29.2,19.8,87.84,87.84,0,0,1,18.66,31q6.56,18.18,6.57,40.5t-6.57,40.32a88,88,0,0,1-18.66,30.78,81,81,0,0,1-29.2,19.62q-17.11,6.83-38.19,6.84t-38-6.84a81.29,81.29,0,0,1-29-19.62A87.85,87.85,0,0,1,967,682.67q-6.57-18-6.57-40.32T967,601.85Zm44.58,62.28a59.4,59.4,0,0,0,7.08,19.08,38.43,38.43,0,0,0,13.31,13.5q8.29,5,20.74,5t20.91-5a38,38,0,0,0,13.48-13.5,59.52,59.52,0,0,0,7.08-19.08,113.33,113.33,0,0,0,2.07-21.78,116.21,116.21,0,0,0-2.07-22,57.54,57.54,0,0,0-7.08-19.08,40.13,40.13,0,0,0-13.48-13.5q-8.47-5.21-20.91-5.22t-20.74,5.22a40.6,40.6,0,0,0-13.31,13.5,57.43,57.43,0,0,0-7.08,19.08,116.23,116.23,0,0,0-2.07,22A113.35,113.35,0,0,0,1011.56,664.13Z"/>
    <path d="M1197.83,478.19v257h-49.08v-257h49.08Z"/>
    <path d="M1257.27,478.19v257H1208.2v-257h49.08Z"/>
    <path d="M1267.29,601.85a87.68,87.68,0,0,1,18.66-31,83.43,83.43,0,0,1,29-19.8q16.93-7,38-7t38.19,7a83.13,83.13,0,0,1,29.2,19.8,87.84,87.84,0,0,1,18.66,31q6.56,18.18,6.57,40.5t-6.57,40.32a88,88,0,0,1-18.66,30.78,81,81,0,0,1-29.2,19.62q-17.11,6.83-38.19,6.84t-38-6.84a81.29,81.29,0,0,1-29-19.62,87.85,87.85,0,0,1-18.66-30.78q-6.57-18-6.57-40.32T1267.29,601.85Zm44.58,62.28a59.4,59.4,0,0,0,7.08,19.08,38.43,38.43,0,0,0,13.31,13.5q8.29,5,20.74,5t20.91-5a38,38,0,0,0,13.48-13.5,59.52,59.52,0,0,0,7.08-19.08,113.33,113.33,0,0,0,2.07-21.78,116.21,116.21,0,0,0-2.07-22,57.54,57.54,0,0,0-7.08-19.08,40.13,40.13,0,0,0-13.48-13.5q-8.47-5.21-20.91-5.22t-20.74,5.22a40.6,40.6,0,0,0-13.31,13.5,57.43,57.43,0,0,0-7.08,19.08,116.23,116.23,0,0,0-2.07,22A113.35,113.35,0,0,0,1311.88,664.13Z"/>
    <path d="M-63.59,1035.31v-34.2h29.38v-14.4q0-24.84,14.86-40.68t44.93-15.84q6.56,0,13.13.54t12.79,0.9v38.16a144.84,144.84,0,0,0-18-1.08q-10,0-14.34,4.86t-4.32,16.38v11.16H48.73v34.2H14.86v151.92H-34.22V1035.31H-63.59Z"/>
    <path d="M41.47,1053.85a87.68,87.68,0,0,1,18.66-31,83.43,83.43,0,0,1,29-19.8q16.93-7,38-7t38.19,7a83.13,83.13,0,0,1,29.2,19.8,87.84,87.84,0,0,1,18.66,31q6.56,18.18,6.57,40.5t-6.57,40.32a88,88,0,0,1-18.66,30.78,81,81,0,0,1-29.2,19.62q-17.11,6.83-38.19,6.84t-38-6.84a81.28,81.28,0,0,1-29-19.62,87.84,87.84,0,0,1-18.66-30.78q-6.57-18-6.57-40.32T41.47,1053.85Zm44.58,62.28a59.4,59.4,0,0,0,7.08,19.08,38.43,38.43,0,0,0,13.31,13.5q8.29,5,20.74,5t20.91-5a38,38,0,0,0,13.48-13.5,59.52,59.52,0,0,0,7.08-19.08,113.34,113.34,0,0,0,2.07-21.78,116.21,116.21,0,0,0-2.07-22,57.54,57.54,0,0,0-7.08-19.08,40.13,40.13,0,0,0-13.48-13.5q-8.47-5.21-20.91-5.22t-20.74,5.22a40.6,40.6,0,0,0-13.31,13.5,57.43,57.43,0,0,0-7.08,19.08,116.23,116.23,0,0,0-2.07,22A113.36,113.36,0,0,0,86.05,1116.13Z"/>
    <path d="M272.33,930.19v257H223.25v-257h49.08Z"/>
    <path d="M331.77,930.19v257H282.69v-257h49.08Z"/>
    <path d="M391.21,930.19v257H342.13v-257h49.08Z"/>
    <path d="M401.23,1053.85a87.68,87.68,0,0,1,18.66-31,83.43,83.43,0,0,1,29-19.8q16.93-7,38-7t38.19,7a83.13,83.13,0,0,1,29.2,19.8,87.84,87.84,0,0,1,18.66,31q6.56,18.18,6.57,40.5T573,1134.67a88,88,0,0,1-18.66,30.78,81,81,0,0,1-29.2,19.62q-17.11,6.83-38.19,6.84t-38-6.84a81.28,81.28,0,0,1-29-19.62,87.84,87.84,0,0,1-18.66-30.78q-6.57-18-6.57-40.32T401.23,1053.85Zm44.58,62.28a59.4,59.4,0,0,0,7.08,19.08,38.43,38.43,0,0,0,13.31,13.5q8.29,5,20.74,5t20.91-5a38,38,0,0,0,13.48-13.5,59.52,59.52,0,0,0,7.08-19.08,113.34,113.34,0,0,0,2.07-21.78,116.21,116.21,0,0,0-2.07-22,57.54,57.54,0,0,0-7.08-19.08,40.13,40.13,0,0,0-13.48-13.5q-8.47-5.21-20.91-5.22t-20.74,5.22a40.6,40.6,0,0,0-13.31,13.5,57.43,57.43,0,0,0-7.08,19.08,116.23,116.23,0,0,0-2.07,22A113.36,113.36,0,0,0,445.81,1116.13Z"/>
    <path d="M735.42,1187.23l-31.8-124.92h-0.69l-30.41,124.92h-50.8L565,1001.11h51.84l32.83,126.36h0.69l29.72-126.36h47.69l30.41,126h0.69l32.83-126h50.46l-56.33,186.12H735.42Z"/>
    <path d="M870.55,1131.79v55.44H816.29v-55.44h54.26Z"/>
    <path d="M861.91,1035.31v-34.2h29.38v-14.4q0-24.84,14.86-40.68t44.93-15.84q6.56,0,13.13.54t12.79,0.9v38.16a144.84,144.84,0,0,0-18-1.08q-10,0-14.34,4.86t-4.32,16.38v11.16h33.87v34.2H940.36v151.92H891.29V1035.31H861.91Z"/>
    <path d="M967,1053.85a87.68,87.68,0,0,1,18.66-31,83.43,83.43,0,0,1,29-19.8q16.93-7,38-7t38.19,7a83.13,83.13,0,0,1,29.2,19.8,87.84,87.84,0,0,1,18.66,31q6.56,18.18,6.57,40.5t-6.57,40.32a88,88,0,0,1-18.66,30.78,81,81,0,0,1-29.2,19.62q-17.11,6.83-38.19,6.84t-38-6.84a81.28,81.28,0,0,1-29-19.62A87.84,87.84,0,0,1,967,1134.67q-6.57-18-6.57-40.32T967,1053.85Zm44.58,62.28a59.4,59.4,0,0,0,7.08,19.08,38.43,38.43,0,0,0,13.31,13.5q8.29,5,20.74,5t20.91-5a38,38,0,0,0,13.48-13.5,59.52,59.52,0,0,0,7.08-19.08,113.34,113.34,0,0,0,2.07-21.78,116.21,116.21,0,0,0-2.07-22,57.54,57.54,0,0,0-7.08-19.08,40.13,40.13,0,0,0-13.48-13.5q-8.47-5.21-20.91-5.22t-20.74,5.22a40.6,40.6,0,0,0-13.31,13.5,57.43,57.43,0,0,0-7.08,19.08,116.23,116.23,0,0,0-2.07,22A113.36,113.36,0,0,0,1011.56,1116.13Z"/>
    <path d="M1197.83,930.19v257h-49.08v-257h49.08Z"/>
    <path d="M1257.27,930.19v257H1208.2v-257h49.08Z"/>
    <path d="M1267.29,1053.85a87.68,87.68,0,0,1,18.66-31,83.43,83.43,0,0,1,29-19.8q16.93-7,38-7t38.19,7a83.13,83.13,0,0,1,29.2,19.8,87.84,87.84,0,0,1,18.66,31q6.56,18.18,6.57,40.5t-6.57,40.32a88,88,0,0,1-18.66,30.78,81,81,0,0,1-29.2,19.62q-17.11,6.83-38.19,6.84t-38-6.84a81.28,81.28,0,0,1-29-19.62,87.84,87.84,0,0,1-18.66-30.78q-6.57-18-6.57-40.32T1267.29,1053.85Zm44.58,62.28a59.4,59.4,0,0,0,7.08,19.08,38.43,38.43,0,0,0,13.31,13.5q8.29,5,20.74,5t20.91-5a38,38,0,0,0,13.48-13.5,59.52,59.52,0,0,0,7.08-19.08,113.34,113.34,0,0,0,2.07-21.78,116.21,116.21,0,0,0-2.07-22,57.54,57.54,0,0,0-7.08-19.08,40.13,40.13,0,0,0-13.48-13.5q-8.47-5.21-20.91-5.22t-20.74,5.22a40.6,40.6,0,0,0-13.31,13.5,57.43,57.43,0,0,0-7.08,19.08,116.23,116.23,0,0,0-2.07,22A113.36,113.36,0,0,0,1311.88,1116.13Z"/>
  </g>
</svg>
