<svg id="images" xmlns="http://www.w3.org/2000/svg" viewBox="0 0 1425 1424.9"><defs><style>.cls-1{fill:none;stroke:#000;stroke-miterlimit:10;}</style></defs><title>cart_00</title><path d="M174,501.53V497h19.09v4.49h-7v19.79H181V501.53h-7Z"/><path d="M197.13,497v9.15h0.1a5.47,5.47,0,0,1,2.25-2.23,5.88,5.88,0,0,1,2.68-.7,7.59,7.59,0,0,1,3.05.53,4.56,4.56,0,0,1,1.88,1.46,5.78,5.78,0,0,1,1,2.28,14.85,14.85,0,0,1,.28,3v10.81h-4.63v-9.93a6.39,6.39,0,0,0-.65-3.25,2.49,2.49,0,0,0-2.32-1.07,3.16,3.16,0,0,0-2.74,1.17,6.73,6.73,0,0,0-.85,3.86v9.21h-4.63V497h4.63Z"/><path d="M214,517.11a4.6,4.6,0,0,0,5.42.32,3,3,0,0,0,1.24-1.55h4.08a8.06,8.06,0,0,1-3,4.52,8.57,8.57,0,0,1-4.9,1.36,9.29,9.29,0,0,1-3.59-.66,7.47,7.47,0,0,1-2.71-1.89,8.55,8.55,0,0,1-1.71-2.92,11.06,11.06,0,0,1-.61-3.74,10.62,10.62,0,0,1,.62-3.67,8.66,8.66,0,0,1,1.76-2.94,8.3,8.3,0,0,1,2.73-2,8.44,8.44,0,0,1,3.51-.71,7.76,7.76,0,0,1,3.75.87,7.58,7.58,0,0,1,2.63,2.33,9.75,9.75,0,0,1,1.49,3.33,12.94,12.94,0,0,1,.33,3.91H212.86A5,5,0,0,0,214,517.11Zm5.24-9.25a3.19,3.19,0,0,0-2.53-1,3.9,3.9,0,0,0-1.84.39,3.55,3.55,0,0,0-1.17,1,3.58,3.58,0,0,0-.62,1.22,5.78,5.78,0,0,0-.21,1.16h7.54A5.71,5.71,0,0,0,219.24,507.86Z"/><path d="M229.37,503.74V507h0.07a5.94,5.94,0,0,1,.88-1.51,5.83,5.83,0,0,1,1.27-1.19,6.15,6.15,0,0,1,1.53-.77,5.34,5.34,0,0,1,1.7-.27,3.48,3.48,0,0,1,1,.17v4.49c-0.22,0-.48-0.08-0.78-0.12a7.89,7.89,0,0,0-.88-0.05,4.78,4.78,0,0,0-2.15.44,3.77,3.77,0,0,0-1.42,1.21,4.94,4.94,0,0,0-.77,1.79,10.1,10.1,0,0,0-.23,2.21v7.92H225V503.74h4.41Z"/><path d="M239.23,517.11a4.6,4.6,0,0,0,5.42.32,3,3,0,0,0,1.24-1.55H250a8.06,8.06,0,0,1-3,4.52,8.57,8.57,0,0,1-4.9,1.36,9.29,9.29,0,0,1-3.59-.66,7.47,7.47,0,0,1-2.71-1.89,8.55,8.55,0,0,1-1.71-2.92,11.06,11.06,0,0,1-.61-3.74,10.62,10.62,0,0,1,.62-3.67,8.66,8.66,0,0,1,1.76-2.94,8.3,8.3,0,0,1,2.73-2,8.44,8.44,0,0,1,3.51-.71,7.76,7.76,0,0,1,3.75.87,7.58,7.58,0,0,1,2.63,2.33,9.75,9.75,0,0,1,1.49,3.33,12.94,12.94,0,0,1,.33,3.91H238.09A5,5,0,0,0,239.23,517.11Zm5.24-9.25a3.19,3.19,0,0,0-2.53-1,3.9,3.9,0,0,0-1.84.39,3.55,3.55,0,0,0-1.17,1,3.58,3.58,0,0,0-.62,1.22,5.78,5.78,0,0,0-.21,1.16h7.54A5.71,5.71,0,0,0,244.47,507.86Z"/><path d="M256.27,509.15a5.77,5.77,0,0,1,.82-2.82,5.66,5.66,0,0,1,1.83-1.8,7.74,7.74,0,0,1,2.5-1,13.66,13.66,0,0,1,2.79-.29,18.28,18.28,0,0,1,2.58.19,7.67,7.67,0,0,1,2.38.73,4.74,4.74,0,0,1,1.76,1.51,4.36,4.36,0,0,1,.69,2.57v9.15a19.35,19.35,0,0,0,.13,2.28,4.27,4.27,0,0,0,.46,1.63h-4.7a7,7,0,0,1-.21-0.83,7.41,7.41,0,0,1-.11-0.87,6,6,0,0,1-2.61,1.67,10.1,10.1,0,0,1-3.07.48,8,8,0,0,1-2.25-.31,5.07,5.07,0,0,1-1.83-1,4.41,4.41,0,0,1-1.22-1.63,5.72,5.72,0,0,1-.44-2.35,5.3,5.3,0,0,1,.51-2.46,4.35,4.35,0,0,1,1.3-1.55,5.77,5.77,0,0,1,1.83-.87,18.84,18.84,0,0,1,2.07-.46q1-.17,2.06-0.27a12,12,0,0,0,1.79-.31,3.08,3.08,0,0,0,1.24-.59,1.33,1.33,0,0,0,.42-1.14,2.64,2.64,0,0,0-.24-1.24,1.85,1.85,0,0,0-.65-0.71,2.51,2.51,0,0,0-.95-0.34,7.45,7.45,0,0,0-1.16-.09,3.41,3.41,0,0,0-2.15.61,2.78,2.78,0,0,0-.91,2h-4.63ZM267,512.72a2,2,0,0,1-.73.42,7.39,7.39,0,0,1-.95.25q-0.51.1-1.06,0.17c-0.37,0-.74.1-1.11,0.17a8.21,8.21,0,0,0-1,.27,3,3,0,0,0-.88.46,2.14,2.14,0,0,0-.6.73,2.41,2.41,0,0,0-.23,1.12,2.32,2.32,0,0,0,.23,1.09,1.77,1.77,0,0,0,.62.7,2.57,2.57,0,0,0,.91.36,5.65,5.65,0,0,0,1.08.1,4,4,0,0,0,2.12-.48,3.13,3.13,0,0,0,1.11-1.14,3.76,3.76,0,0,0,.44-1.34,9.93,9.93,0,0,0,.08-1.09v-1.8Z"/><path d="M276.8,503.74V507h0.07a5.94,5.94,0,0,1,.88-1.51A5.83,5.83,0,0,1,279,504.3a6.15,6.15,0,0,1,1.53-.77,5.34,5.34,0,0,1,1.7-.27,3.48,3.48,0,0,1,1,.17v4.49c-0.22,0-.48-0.08-0.78-0.12a7.89,7.89,0,0,0-.88-0.05,4.78,4.78,0,0,0-2.15.44A3.77,3.77,0,0,0,278,509.4a4.94,4.94,0,0,0-.77,1.79,10.1,10.1,0,0,0-.23,2.21v7.92h-4.63V503.74h4.41Z"/><path d="M286.65,517.11a4.6,4.6,0,0,0,5.42.32,3,3,0,0,0,1.24-1.55h4.08a8.06,8.06,0,0,1-3,4.52,8.57,8.57,0,0,1-4.9,1.36,9.29,9.29,0,0,1-3.59-.66,7.47,7.47,0,0,1-2.71-1.89,8.55,8.55,0,0,1-1.71-2.92,11.06,11.06,0,0,1-.61-3.74,10.62,10.62,0,0,1,.62-3.67,8.66,8.66,0,0,1,1.76-2.94,8.3,8.3,0,0,1,2.73-2,8.44,8.44,0,0,1,3.51-.71,7.76,7.76,0,0,1,3.75.87,7.58,7.58,0,0,1,2.63,2.33,9.75,9.75,0,0,1,1.49,3.33,12.94,12.94,0,0,1,.33,3.91H285.51A5,5,0,0,0,286.65,517.11Zm5.24-9.25a3.19,3.19,0,0,0-2.53-1,3.9,3.9,0,0,0-1.84.39,3.55,3.55,0,0,0-1.17,1,3.58,3.58,0,0,0-.62,1.22,5.78,5.78,0,0,0-.21,1.16h7.54A5.71,5.71,0,0,0,291.89,507.86Z"/><path d="M308.29,503.74v2.45h0.1a5.42,5.42,0,0,1,2.29-2.23,6.39,6.39,0,0,1,2.87-.7,7.59,7.59,0,0,1,3.05.53,4.56,4.56,0,0,1,1.88,1.46,5.78,5.78,0,0,1,1,2.28,14.85,14.85,0,0,1,.28,3v10.81h-4.63v-9.93a6.39,6.39,0,0,0-.65-3.25,2.49,2.49,0,0,0-2.32-1.07,3.16,3.16,0,0,0-2.74,1.17,6.73,6.73,0,0,0-.85,3.86v9.21h-4.63V503.74h4.41Z"/><path d="M320.54,508.72a8.26,8.26,0,0,1,1.76-2.92,7.87,7.87,0,0,1,2.74-1.87,9.29,9.29,0,0,1,3.59-.66,9.42,9.42,0,0,1,3.61.66A7.84,7.84,0,0,1,335,505.8a8.3,8.3,0,0,1,1.76,2.92,11.23,11.23,0,0,1,.62,3.83,11.08,11.08,0,0,1-.62,3.81,8.32,8.32,0,0,1-1.76,2.91,7.65,7.65,0,0,1-2.76,1.85,9.64,9.64,0,0,1-3.61.65,9.51,9.51,0,0,1-3.59-.65,7.67,7.67,0,0,1-2.74-1.85,8.29,8.29,0,0,1-1.76-2.91,11,11,0,0,1-.62-3.81A11.18,11.18,0,0,1,320.54,508.72Zm4.21,5.88a5.59,5.59,0,0,0,.67,1.8,3.63,3.63,0,0,0,1.26,1.28,3.71,3.71,0,0,0,2,.48,3.8,3.8,0,0,0,2-.48,3.6,3.6,0,0,0,1.27-1.28,5.64,5.64,0,0,0,.67-1.8,10.68,10.68,0,0,0,.2-2.06,11,11,0,0,0-.2-2.07,5.46,5.46,0,0,0-.67-1.8,3.8,3.8,0,0,0-1.27-1.28,3.7,3.7,0,0,0-2-.49,3.61,3.61,0,0,0-2,.49,3.84,3.84,0,0,0-1.26,1.28,5.41,5.41,0,0,0-.67,1.8,11,11,0,0,0-.2,2.07A10.68,10.68,0,0,0,324.75,514.61Z"/><path d="M347.74,517a2.76,2.76,0,0,0,.8.92,3.35,3.35,0,0,0,1.13.53,5.1,5.1,0,0,0,1.32.17,4.72,4.72,0,0,0,1-.12,3.39,3.39,0,0,0,1-.37,2.24,2.24,0,0,0,.73-0.68,1.83,1.83,0,0,0,.29-1.07,1.79,1.79,0,0,0-1.39-1.63,26.89,26.89,0,0,0-3.87-1.09q-1-.24-2-0.56a6.62,6.62,0,0,1-1.71-.85,4,4,0,0,1-1.21-1.33,3.88,3.88,0,0,1-.46-2,5.47,5.47,0,0,1,.64-2.79,4.8,4.8,0,0,1,1.68-1.72,7.17,7.17,0,0,1,2.35-.88,14,14,0,0,1,2.68-.25,12.92,12.92,0,0,1,2.66.27,6.91,6.91,0,0,1,2.3.92,5.39,5.39,0,0,1,1.68,1.72,5.93,5.93,0,0,1,.8,2.7h-4.41a2.14,2.14,0,0,0-1-1.89,4.48,4.48,0,0,0-2.15-.49,7.66,7.66,0,0,0-.85.05,2.74,2.74,0,0,0-.83.22,1.73,1.73,0,0,0-.64.49,1.49,1.49,0,0,0,.2,1.92,3.5,3.5,0,0,0,1.19.66,14.44,14.44,0,0,0,1.68.46l1.93,0.44a19.47,19.47,0,0,1,2,.58,6.4,6.4,0,0,1,1.71.9,4.29,4.29,0,0,1,1.21,1.39,4.23,4.23,0,0,1,.46,2.06,5.8,5.8,0,0,1-.67,2.91,5.48,5.48,0,0,1-1.75,1.89,7,7,0,0,1-2.46,1,13.81,13.81,0,0,1-2.82.29,13.5,13.5,0,0,1-2.87-.31,7.41,7.41,0,0,1-2.5-1,5.69,5.69,0,0,1-1.79-1.89,6.08,6.08,0,0,1-.77-2.94h4.41A2.73,2.73,0,0,0,347.74,517Z"/><path d="M367.83,503.74V507h-3.39v8.7a2.43,2.43,0,0,0,.39,1.63,2.21,2.21,0,0,0,1.57.41q0.39,0,.75,0a6,6,0,0,0,.69-0.1v3.74a10.64,10.64,0,0,1-1.3.14q-0.72,0-1.4,0a13,13,0,0,1-2-.15,4.67,4.67,0,0,1-1.7-.6,3.09,3.09,0,0,1-1.16-1.26,4.67,4.67,0,0,1-.42-2.14V507H357v-3.23h2.81v-5.27h4.63v5.27h3.39Z"/><path d="M371.65,503.74V507h0.06a6,6,0,0,1,.88-1.51,5.92,5.92,0,0,1,1.27-1.19,6.17,6.17,0,0,1,1.54-.77,5.34,5.34,0,0,1,1.7-.27,3.5,3.5,0,0,1,1,.17v4.49c-0.22,0-.48-0.08-0.78-0.12a8,8,0,0,0-.88-0.05,4.78,4.78,0,0,0-2.15.44,3.79,3.79,0,0,0-1.42,1.21,5,5,0,0,0-.77,1.79,10.1,10.1,0,0,0-.23,2.21v7.92h-4.63V503.74h4.41Z"/><path d="M377.26,501v-4h4.63v4h-4.63Zm4.63,2.72v17.58h-4.63V503.74h4.63Z"/><path d="M387.15,503.74V506h0.07a5.18,5.18,0,0,1,2.15-2.07,6.4,6.4,0,0,1,2.87-.65,7.06,7.06,0,0,1,3.43.78,7.17,7.17,0,0,1,2.38,2.07,9,9,0,0,1,1.4,3,14,14,0,0,1,.46,3.59,12.62,12.62,0,0,1-.46,3.4,8.82,8.82,0,0,1-1.39,2.89,6.93,6.93,0,0,1-2.32,2,6.75,6.75,0,0,1-3.25.75,6.34,6.34,0,0,1-2.89-.66,5.53,5.53,0,0,1-2.17-2h-0.07v8.33h-4.63V503.74h4.41Zm6,13.94a3.81,3.81,0,0,0,1.24-1.24,5.26,5.26,0,0,0,.67-1.79,10.94,10.94,0,0,0,.2-2.07,10.21,10.21,0,0,0-.21-2.07,5.69,5.69,0,0,0-.7-1.82,4,4,0,0,0-1.26-1.29,3.41,3.41,0,0,0-1.88-.49,3.46,3.46,0,0,0-1.91.49,3.88,3.88,0,0,0-1.24,1.28,5.41,5.41,0,0,0-.67,1.8,11.13,11.13,0,0,0-.2,2.11,10.21,10.21,0,0,0,.21,2.07,5.53,5.53,0,0,0,.69,1.79,3.74,3.74,0,0,0,1.26,1.24A4,4,0,0,0,393.17,517.68Z"/><path d="M404.84,517.11a4.6,4.6,0,0,0,5.42.32,3,3,0,0,0,1.24-1.55h4.08a8.07,8.07,0,0,1-3,4.52,8.57,8.57,0,0,1-4.9,1.36,9.29,9.29,0,0,1-3.59-.66,7.47,7.47,0,0,1-2.71-1.89,8.58,8.58,0,0,1-1.71-2.92,11.11,11.11,0,0,1-.6-3.74,10.66,10.66,0,0,1,.62-3.67,8.69,8.69,0,0,1,1.76-2.94,8.31,8.31,0,0,1,2.72-2,8.45,8.45,0,0,1,3.51-.71,7.76,7.76,0,0,1,3.75.87,7.6,7.6,0,0,1,2.63,2.33,9.75,9.75,0,0,1,1.48,3.33,12.88,12.88,0,0,1,.33,3.91H403.7A5,5,0,0,0,404.84,517.11Zm5.24-9.25a3.19,3.19,0,0,0-2.53-1,3.89,3.89,0,0,0-1.84.39,3.55,3.55,0,0,0-1.18,1,3.61,3.61,0,0,0-.62,1.22,5.64,5.64,0,0,0-.21,1.16h7.54A5.69,5.69,0,0,0,410.08,507.86Z"/><path d="M419.71,517a2.79,2.79,0,0,0,.8.92,3.36,3.36,0,0,0,1.13.53,5.1,5.1,0,0,0,1.32.17,4.71,4.71,0,0,0,1-.12,3.42,3.42,0,0,0,1-.37,2.26,2.26,0,0,0,.73-0.68,1.85,1.85,0,0,0,.29-1.07,1.79,1.79,0,0,0-1.39-1.63,27,27,0,0,0-3.87-1.09q-1-.24-2-0.56a6.63,6.63,0,0,1-1.71-.85,4.06,4.06,0,0,1-1.21-1.33,3.88,3.88,0,0,1-.46-2,5.47,5.47,0,0,1,.64-2.79,4.8,4.8,0,0,1,1.68-1.72,7.2,7.2,0,0,1,2.35-.88,13.92,13.92,0,0,1,2.68-.25,12.9,12.9,0,0,1,2.66.27,6.89,6.89,0,0,1,2.3.92,5.41,5.41,0,0,1,1.68,1.72,5.93,5.93,0,0,1,.8,2.7h-4.41a2.13,2.13,0,0,0-1-1.89,4.48,4.48,0,0,0-2.15-.49,7.65,7.65,0,0,0-.85.05,2.74,2.74,0,0,0-.83.22,1.71,1.71,0,0,0-.64.49,1.33,1.33,0,0,0-.26.87,1.35,1.35,0,0,0,.46,1.05,3.48,3.48,0,0,0,1.19.66,14.33,14.33,0,0,0,1.68.46l1.93,0.44a19.47,19.47,0,0,1,2,.58,6.43,6.43,0,0,1,1.71.9,4.31,4.31,0,0,1,1.21,1.39,4.23,4.23,0,0,1,.46,2.06,5.8,5.8,0,0,1-.67,2.91,5.52,5.52,0,0,1-1.75,1.89,7,7,0,0,1-2.46,1,13.84,13.84,0,0,1-2.82.29,13.49,13.49,0,0,1-2.87-.31,7.42,7.42,0,0,1-2.5-1,5.73,5.73,0,0,1-1.79-1.89,6.11,6.11,0,0,1-.77-2.94h4.41A2.73,2.73,0,0,0,419.71,517Z"/><path d="M436.93,501v-4h4.63v4h-4.63Zm4.63,2.72v17.58h-4.63V503.74h4.63Z"/><path d="M446.82,503.74v2.45h0.1A5.42,5.42,0,0,1,449.2,504a6.39,6.39,0,0,1,2.87-.7,7.59,7.59,0,0,1,3.05.53,4.56,4.56,0,0,1,1.88,1.46,5.78,5.78,0,0,1,1,2.28,14.85,14.85,0,0,1,.28,3v10.81h-4.63v-9.93a6.39,6.39,0,0,0-.65-3.25,2.49,2.49,0,0,0-2.32-1.07,3.16,3.16,0,0,0-2.74,1.17,6.73,6.73,0,0,0-.85,3.86v9.21h-4.63V503.74h4.41Z"/><path d="M471.46,526.56a6.51,6.51,0,0,1-3.72.92q-0.72,0-1.42-.05l-1.42-.12v-4l1.34,0.14a9.32,9.32,0,0,0,1.37,0,1.78,1.78,0,0,0,1.35-.75,2.48,2.48,0,0,0,.44-1.43,3,3,0,0,0-.2-1.09l-5.91-16.49h4.93l3.82,12h0.07l3.69-12h4.8l-7.05,19.75A5.94,5.94,0,0,1,471.46,526.56Z"/><path d="M479.46,508.72a8.3,8.3,0,0,1,1.76-2.92,7.87,7.87,0,0,1,2.74-1.87,9.28,9.28,0,0,1,3.59-.66,9.41,9.41,0,0,1,3.61.66,7.85,7.85,0,0,1,2.76,1.87,8.32,8.32,0,0,1,1.76,2.92,11.18,11.18,0,0,1,.62,3.83,11,11,0,0,1-.62,3.81,8.35,8.35,0,0,1-1.76,2.91,7.66,7.66,0,0,1-2.76,1.85,9.63,9.63,0,0,1-3.61.65,9.5,9.5,0,0,1-3.59-.65,7.67,7.67,0,0,1-2.74-1.85,8.32,8.32,0,0,1-1.76-2.91,11.08,11.08,0,0,1-.62-3.81A11.23,11.23,0,0,1,479.46,508.72Zm4.21,5.88a5.6,5.6,0,0,0,.67,1.8,3.63,3.63,0,0,0,1.26,1.28,3.71,3.71,0,0,0,2,.48,3.8,3.8,0,0,0,2-.48,3.6,3.6,0,0,0,1.27-1.28,5.64,5.64,0,0,0,.67-1.8,10.68,10.68,0,0,0,.2-2.06,11,11,0,0,0-.2-2.07,5.46,5.46,0,0,0-.67-1.8,3.8,3.8,0,0,0-1.27-1.28,3.7,3.7,0,0,0-2-.49,3.62,3.62,0,0,0-2,.49,3.83,3.83,0,0,0-1.26,1.28,5.41,5.41,0,0,0-.67,1.8,11,11,0,0,0-.2,2.07A10.68,10.68,0,0,0,483.67,514.61Z"/><path d="M507.92,521.32v-2.45h-0.1a5.3,5.3,0,0,1-2.29,2.21,6.52,6.52,0,0,1-2.87.68,7.81,7.81,0,0,1-3.05-.51,4.42,4.42,0,0,1-1.88-1.45,5.75,5.75,0,0,1-1-2.28,14.69,14.69,0,0,1-.28-3V503.74h4.63v9.93a6.37,6.37,0,0,0,.65,3.25A2.49,2.49,0,0,0,504.1,518a3.15,3.15,0,0,0,2.74-1.17,6.73,6.73,0,0,0,.85-3.86v-9.21h4.63v17.58h-4.41Z"/><path d="M517.45,503.74V507h0.07a5.94,5.94,0,0,1,.88-1.51,5.83,5.83,0,0,1,1.27-1.19,6.15,6.15,0,0,1,1.53-.77,5.34,5.34,0,0,1,1.7-.27,3.48,3.48,0,0,1,1,.17v4.49c-0.22,0-.48-0.08-0.78-0.12a7.89,7.89,0,0,0-.88-0.05,4.78,4.78,0,0,0-2.15.44,3.77,3.77,0,0,0-1.42,1.21,4.94,4.94,0,0,0-.77,1.79,10.1,10.1,0,0,0-.23,2.21v7.92H513V503.74h4.41Z"/><path d="M537.26,506.91a3.16,3.16,0,0,0-1.86.53,4.11,4.11,0,0,0-1.22,1.36,6,6,0,0,0-.67,1.84,10.33,10.33,0,0,0-.2,2,9.91,9.91,0,0,0,.2,1.94,6.18,6.18,0,0,0,.64,1.79,3.75,3.75,0,0,0,1.19,1.31,3.18,3.18,0,0,0,1.83.51,3.32,3.32,0,0,0,2.56-1,4.67,4.67,0,0,0,1.13-2.6h4.47a8.08,8.08,0,0,1-2.61,5.34,8.21,8.21,0,0,1-5.52,1.84,8.9,8.9,0,0,1-3.48-.66,7.68,7.68,0,0,1-2.69-1.85,8.49,8.49,0,0,1-1.73-2.84,10.23,10.23,0,0,1-.62-3.62,12.16,12.16,0,0,1,.57-3.79,8.61,8.61,0,0,1,1.68-3,7.71,7.71,0,0,1,2.71-2,8.89,8.89,0,0,1,3.66-.71,10.18,10.18,0,0,1,2.89.41,7.59,7.59,0,0,1,2.48,1.24,6.57,6.57,0,0,1,1.78,2.07,6.87,6.87,0,0,1,.78,2.94h-4.54A3.15,3.15,0,0,0,537.26,506.91Z"/><path d="M544.93,509.15a5.77,5.77,0,0,1,.82-2.82,5.66,5.66,0,0,1,1.83-1.8,7.74,7.74,0,0,1,2.5-1,13.66,13.66,0,0,1,2.79-.29,18.28,18.28,0,0,1,2.58.19,7.67,7.67,0,0,1,2.38.73,4.74,4.74,0,0,1,1.76,1.51,4.36,4.36,0,0,1,.69,2.57v9.15a19.35,19.35,0,0,0,.13,2.28,4.27,4.27,0,0,0,.46,1.63h-4.7a7,7,0,0,1-.21-0.83,7.41,7.41,0,0,1-.11-0.87,6,6,0,0,1-2.61,1.67,10.1,10.1,0,0,1-3.07.48,8,8,0,0,1-2.25-.31,5.07,5.07,0,0,1-1.83-1,4.41,4.41,0,0,1-1.22-1.63,5.72,5.72,0,0,1-.44-2.35,5.3,5.3,0,0,1,.51-2.46,4.35,4.35,0,0,1,1.3-1.55,5.77,5.77,0,0,1,1.83-.87,18.84,18.84,0,0,1,2.07-.46q1-.17,2.06-0.27a12,12,0,0,0,1.79-.31,3.08,3.08,0,0,0,1.24-.59,1.33,1.33,0,0,0,.42-1.14,2.64,2.64,0,0,0-.24-1.24,1.85,1.85,0,0,0-.65-0.71,2.51,2.51,0,0,0-.95-0.34,7.45,7.45,0,0,0-1.16-.09,3.41,3.41,0,0,0-2.15.61,2.78,2.78,0,0,0-.91,2h-4.63Zm10.71,3.57a2,2,0,0,1-.73.42,7.39,7.39,0,0,1-.95.25q-0.51.1-1.06,0.17c-0.37,0-.74.1-1.11,0.17a8.21,8.21,0,0,0-1,.27,3,3,0,0,0-.88.46,2.14,2.14,0,0,0-.6.73,2.41,2.41,0,0,0-.23,1.12,2.32,2.32,0,0,0,.23,1.09,1.77,1.77,0,0,0,.62.7,2.57,2.57,0,0,0,.91.36,5.65,5.65,0,0,0,1.08.1,4,4,0,0,0,2.12-.48,3.13,3.13,0,0,0,1.11-1.14,3.76,3.76,0,0,0,.44-1.34,9.93,9.93,0,0,0,.08-1.09v-1.8Z"/><path d="M565.46,503.74V507h0.06a6,6,0,0,1,.88-1.51,5.92,5.92,0,0,1,1.27-1.19,6.17,6.17,0,0,1,1.54-.77,5.34,5.34,0,0,1,1.7-.27,3.5,3.5,0,0,1,1,.17v4.49c-0.22,0-.48-0.08-0.78-0.12a8,8,0,0,0-.88-0.05,4.78,4.78,0,0,0-2.15.44,3.79,3.79,0,0,0-1.42,1.21,5,5,0,0,0-.77,1.79,10.1,10.1,0,0,0-.23,2.21v7.92h-4.63V503.74h4.41Z"/><path d="M580.21,503.74V507h-3.39v8.7a2.43,2.43,0,0,0,.39,1.63,2.21,2.21,0,0,0,1.57.41q0.39,0,.75,0a6,6,0,0,0,.69-0.1v3.74a10.64,10.64,0,0,1-1.3.14q-0.72,0-1.4,0a13,13,0,0,1-2-.15,4.67,4.67,0,0,1-1.7-.6,3.09,3.09,0,0,1-1.16-1.26,4.67,4.67,0,0,1-.42-2.14V507h-2.81v-3.23h2.81v-5.27h4.63v5.27h3.39Z"/><path d="M584.95,516.09v5.24h-5.12v-5.24h5.13Z"/><path d="M186.81,700.07a14,14,0,0,1,3,.31,6.41,6.41,0,0,1,2.35,1,4.61,4.61,0,0,1,1.52,1.85,6.77,6.77,0,0,1,.54,2.86,5.48,5.48,0,0,1-.8,3.06,5.86,5.86,0,0,1-2.37,2,5.6,5.6,0,0,1,3.21,2.26,7.69,7.69,0,0,1,.38,7.07,6.09,6.09,0,0,1-1.84,2.19,8,8,0,0,1-2.64,1.26,11.49,11.49,0,0,1-3.05.41H175.84V700.07h11Zm-0.65,9.83a3.58,3.58,0,0,0,2.25-.68,2.62,2.62,0,0,0,.88-2.21,2.93,2.93,0,0,0-.29-1.39,2.24,2.24,0,0,0-.78-0.85,3.23,3.23,0,0,0-1.13-.42,7.12,7.12,0,0,0-1.32-.12H181v5.68h5.19Zm0.29,10.3a6.59,6.59,0,0,0,1.44-.15,3.47,3.47,0,0,0,1.21-.51,2.53,2.53,0,0,0,.83-1,3.45,3.45,0,0,0,.31-1.56,3.21,3.21,0,0,0-1-2.67,4.21,4.21,0,0,0-2.68-.8H181v6.66h5.48Z"/><path d="M195.33,712.17a5.79,5.79,0,0,1,.82-2.82,5.65,5.65,0,0,1,1.83-1.8,7.79,7.79,0,0,1,2.5-1,13.65,13.65,0,0,1,2.79-.29,18.28,18.28,0,0,1,2.58.19,7.69,7.69,0,0,1,2.38.73,4.75,4.75,0,0,1,1.76,1.51,4.36,4.36,0,0,1,.69,2.57v9.15a19,19,0,0,0,.13,2.28,4.2,4.2,0,0,0,.46,1.63h-4.7a7.07,7.07,0,0,1-.21-0.83,7.41,7.41,0,0,1-.12-0.87,6,6,0,0,1-2.61,1.67,10.09,10.09,0,0,1-3.07.48,8,8,0,0,1-2.25-.31,5.09,5.09,0,0,1-1.83-1,4.4,4.4,0,0,1-1.22-1.63,5.7,5.7,0,0,1-.44-2.35,5.29,5.29,0,0,1,.51-2.46,4.35,4.35,0,0,1,1.31-1.55,5.72,5.72,0,0,1,1.83-.87,18.87,18.87,0,0,1,2.07-.46q1-.17,2.05-0.27a12,12,0,0,0,1.8-.31,3.09,3.09,0,0,0,1.24-.6,1.34,1.34,0,0,0,.42-1.14,2.67,2.67,0,0,0-.24-1.24,1.86,1.86,0,0,0-.65-0.71,2.5,2.5,0,0,0-.95-0.34,7.46,7.46,0,0,0-1.16-.08,3.42,3.42,0,0,0-2.15.61,2.78,2.78,0,0,0-.91,2h-4.63ZM206,715.74a2.06,2.06,0,0,1-.73.43,7.42,7.42,0,0,1-.95.25q-0.51.1-1.06,0.17t-1.11.17a8.07,8.07,0,0,0-1,.27,3,3,0,0,0-.88.46,2.17,2.17,0,0,0-.6.73,2.44,2.44,0,0,0-.23,1.12,2.35,2.35,0,0,0,.23,1.09,1.79,1.79,0,0,0,.62.7,2.52,2.52,0,0,0,.91.36,5.56,5.56,0,0,0,1.08.1,4,4,0,0,0,2.12-.48,3.11,3.11,0,0,0,1.11-1.14,3.74,3.74,0,0,0,.44-1.34,9.56,9.56,0,0,0,.08-1.09v-1.8Z"/><path d="M219.52,709.93a3.17,3.17,0,0,0-1.86.53,4.13,4.13,0,0,0-1.22,1.36,6,6,0,0,0-.67,1.84,10.34,10.34,0,0,0-.2,2,9.9,9.9,0,0,0,.2,1.94,6.17,6.17,0,0,0,.64,1.79,3.75,3.75,0,0,0,1.19,1.31,3.18,3.18,0,0,0,1.83.51,3.32,3.32,0,0,0,2.56-1,4.68,4.68,0,0,0,1.13-2.6h4.47A8.08,8.08,0,0,1,225,723a8.2,8.2,0,0,1-5.52,1.84,8.9,8.9,0,0,1-3.48-.66,7.67,7.67,0,0,1-2.69-1.85,8.49,8.49,0,0,1-1.73-2.84,10.24,10.24,0,0,1-.62-3.62,12.16,12.16,0,0,1,.57-3.79,8.62,8.62,0,0,1,1.68-3,7.7,7.7,0,0,1,2.71-2,8.88,8.88,0,0,1,3.66-.71,10.21,10.21,0,0,1,2.89.41,7.63,7.63,0,0,1,2.48,1.24A6.57,6.57,0,0,1,226.7,710a6.86,6.86,0,0,1,.78,2.94h-4.54A3.15,3.15,0,0,0,219.52,709.93Z"/><path d="M232.44,700.07v13l5.84-6.32h5.48l-6.36,6.46,7.08,11.12h-5.61l-4.63-7.85-1.8,1.8v6.05H227.8V700.07h4.63Z"/><path d="M258.85,706.77V710h-3.39v8.7a2.43,2.43,0,0,0,.39,1.63,2.2,2.2,0,0,0,1.57.41c0.26,0,.51,0,0.75,0a5.81,5.81,0,0,0,.69-0.1v3.74a10.65,10.65,0,0,1-1.3.14q-0.72,0-1.4,0a12.92,12.92,0,0,1-2-.15,4.66,4.66,0,0,1-1.7-.59,3.09,3.09,0,0,1-1.16-1.26,4.67,4.67,0,0,1-.42-2.14V710H248v-3.23h2.81V701.5h4.63v5.27h3.39Z"/><path d="M258.36,711.75a8.31,8.31,0,0,1,1.76-2.92,7.9,7.9,0,0,1,2.74-1.87,9.3,9.3,0,0,1,3.59-.66,9.42,9.42,0,0,1,3.61.66,7.88,7.88,0,0,1,2.76,1.87,8.33,8.33,0,0,1,1.76,2.92,11.19,11.19,0,0,1,.62,3.83,11,11,0,0,1-.62,3.81,8.33,8.33,0,0,1-1.76,2.91,7.66,7.66,0,0,1-2.76,1.85,9.65,9.65,0,0,1-3.61.65,9.52,9.52,0,0,1-3.59-.65,7.68,7.68,0,0,1-2.74-1.85,8.31,8.31,0,0,1-1.76-2.91,11.08,11.08,0,0,1-.62-3.81A11.23,11.23,0,0,1,258.36,711.75Zm4.21,5.88a5.61,5.61,0,0,0,.67,1.8,3.63,3.63,0,0,0,1.26,1.27,3.7,3.7,0,0,0,2,.48,3.79,3.79,0,0,0,2-.48,3.59,3.59,0,0,0,1.27-1.27,5.65,5.65,0,0,0,.67-1.8,10.69,10.69,0,0,0,.2-2.06,11,11,0,0,0-.2-2.07,5.46,5.46,0,0,0-.67-1.8,3.79,3.79,0,0,0-1.27-1.27,3.69,3.69,0,0,0-2-.49,3.61,3.61,0,0,0-2,.49,3.83,3.83,0,0,0-1.26,1.27,5.41,5.41,0,0,0-.67,1.8,11,11,0,0,0-.2,2.07A10.69,10.69,0,0,0,262.57,717.63Z"/><path d="M285.56,720a2.8,2.8,0,0,0,.8.92,3.36,3.36,0,0,0,1.13.53,5.1,5.1,0,0,0,1.32.17,4.77,4.77,0,0,0,1-.12,3.42,3.42,0,0,0,1-.37,2.26,2.26,0,0,0,.73-0.68,1.85,1.85,0,0,0,.29-1.07,1.79,1.79,0,0,0-1.39-1.63,26.91,26.91,0,0,0-3.87-1.09q-1-.24-2-0.56a6.6,6.6,0,0,1-1.71-.85,4.08,4.08,0,0,1-1.21-1.33,3.88,3.88,0,0,1-.46-2,5.47,5.47,0,0,1,.64-2.79,4.79,4.79,0,0,1,1.68-1.72,7.2,7.2,0,0,1,2.35-.88,13.84,13.84,0,0,1,2.68-.26,12.83,12.83,0,0,1,2.66.27,6.87,6.87,0,0,1,2.3.92,5.41,5.41,0,0,1,1.68,1.72,5.93,5.93,0,0,1,.8,2.7h-4.41a2.13,2.13,0,0,0-1-1.89,4.48,4.48,0,0,0-2.15-.49,7.64,7.64,0,0,0-.85.05,2.75,2.75,0,0,0-.83.22,1.71,1.71,0,0,0-.64.49,1.33,1.33,0,0,0-.26.87,1.35,1.35,0,0,0,.46,1.05,3.47,3.47,0,0,0,1.19.66,14.33,14.33,0,0,0,1.68.46l1.93,0.44a19.23,19.23,0,0,1,2,.58,6.4,6.4,0,0,1,1.71.9,4.3,4.3,0,0,1,1.21,1.39,4.23,4.23,0,0,1,.46,2.06,5.8,5.8,0,0,1-.67,2.91,5.5,5.5,0,0,1-1.75,1.89,7,7,0,0,1-2.46,1,13.84,13.84,0,0,1-2.82.29,13.43,13.43,0,0,1-2.87-.31,7.42,7.42,0,0,1-2.5-1,5.74,5.74,0,0,1-1.79-1.89,6.1,6.1,0,0,1-.77-2.94h4.41A2.73,2.73,0,0,0,285.56,720Z"/><path d="M301,700.07v9.15h0.1a5.48,5.48,0,0,1,2.25-2.23,5.9,5.9,0,0,1,2.68-.7,7.59,7.59,0,0,1,3.05.53,4.55,4.55,0,0,1,1.88,1.46,5.76,5.76,0,0,1,1,2.28,14.69,14.69,0,0,1,.28,3v10.81h-4.63v-9.93a6.37,6.37,0,0,0-.65-3.25,2.49,2.49,0,0,0-2.32-1.07,3.15,3.15,0,0,0-2.74,1.17,6.73,6.73,0,0,0-.85,3.86v9.21h-4.63V700.07H301Z"/><path d="M313,711.75a8.27,8.27,0,0,1,1.76-2.92,7.9,7.9,0,0,1,2.74-1.87,9.31,9.31,0,0,1,3.59-.66,9.43,9.43,0,0,1,3.61.66,7.87,7.87,0,0,1,2.76,1.87,8.31,8.31,0,0,1,1.76,2.92,11.23,11.23,0,0,1,.62,3.83,11.08,11.08,0,0,1-.62,3.81,8.31,8.31,0,0,1-1.76,2.91,7.65,7.65,0,0,1-2.76,1.85,9.66,9.66,0,0,1-3.61.65,9.53,9.53,0,0,1-3.59-.65,7.68,7.68,0,0,1-2.74-1.85,8.27,8.27,0,0,1-1.76-2.91,11,11,0,0,1-.62-3.81A11.19,11.19,0,0,1,313,711.75Zm4.21,5.88a5.6,5.6,0,0,0,.67,1.8,3.63,3.63,0,0,0,1.26,1.27,3.7,3.7,0,0,0,2,.48,3.79,3.79,0,0,0,2-.48,3.59,3.59,0,0,0,1.27-1.27,5.65,5.65,0,0,0,.67-1.8,10.69,10.69,0,0,0,.2-2.06,11,11,0,0,0-.2-2.07,5.46,5.46,0,0,0-.67-1.8,3.79,3.79,0,0,0-1.27-1.27,3.69,3.69,0,0,0-2-.49,3.6,3.6,0,0,0-2,.49,3.84,3.84,0,0,0-1.26,1.27,5.41,5.41,0,0,0-.67,1.8,11,11,0,0,0-.2,2.07A10.69,10.69,0,0,0,317.24,717.63Z"/><path d="M334.47,706.77V709h0.07a5.17,5.17,0,0,1,2.15-2.07,6.38,6.38,0,0,1,2.87-.65,7.08,7.08,0,0,1,3.43.78,7.16,7.16,0,0,1,2.38,2.07,9,9,0,0,1,1.4,3,14,14,0,0,1,.46,3.59,12.63,12.63,0,0,1-.46,3.4,8.82,8.82,0,0,1-1.39,2.89,6.93,6.93,0,0,1-2.32,2,6.74,6.74,0,0,1-3.25.75,6.34,6.34,0,0,1-2.89-.66,5.52,5.52,0,0,1-2.17-2H334.7v8.33h-4.63V706.77h4.41Zm6,13.94a3.8,3.8,0,0,0,1.24-1.24,5.28,5.28,0,0,0,.67-1.79,11,11,0,0,0,.2-2.07,10.22,10.22,0,0,0-.21-2.07,5.68,5.68,0,0,0-.7-1.82,4,4,0,0,0-1.26-1.29,3.4,3.4,0,0,0-1.88-.49,3.45,3.45,0,0,0-1.91.49,3.88,3.88,0,0,0-1.24,1.27,5.41,5.41,0,0,0-.67,1.8,11.14,11.14,0,0,0-.2,2.11,10.22,10.22,0,0,0,.21,2.07,5.55,5.55,0,0,0,.69,1.79,3.73,3.73,0,0,0,1.26,1.24A4,4,0,0,0,340.49,720.71Z"/><path d="M352.52,719.11v5.24H347.4v-5.24h5.13Z"/><path d="M173.59,728.59v-1.7H351.71v1.7H173.59Z"/><line class="cls-1" x1="171.14" y1="414.61" x2="1286.59" y2="414.61"/><line class="cls-1" x1="171.14" y1="621.76" x2="1286.59" y2="621.76"/><path d="M237.48,120.4a23.46,23.46,0,0,0-5-5.92,23.09,23.09,0,0,0-6.84-4,22.67,22.67,0,0,0-8-1.42,25.55,25.55,0,0,0-13,3.07A24.87,24.87,0,0,0,196,120.4a36.94,36.94,0,0,0-4.82,11.78,61,61,0,0,0-1.51,13.65A56.69,56.69,0,0,0,191.18,159,36.18,36.18,0,0,0,196,170.43a25.09,25.09,0,0,0,8.64,8.17,25.52,25.52,0,0,0,13,3.08q10.37,0,16.2-6.6t7.13-17.4h21.89a56.31,56.31,0,0,1-4.46,18.15,43.51,43.51,0,0,1-9.5,13.8,40.14,40.14,0,0,1-13.82,8.7,48.85,48.85,0,0,1-17.42,3,50.89,50.89,0,0,1-21.24-4.27,45.57,45.57,0,0,1-15.91-11.78,52.6,52.6,0,0,1-9.94-17.62,67.11,67.11,0,0,1-3.46-21.82,69.44,69.44,0,0,1,3.46-22.27,54.06,54.06,0,0,1,9.94-17.93,45.57,45.57,0,0,1,15.91-12,53.06,53.06,0,0,1,37.29-1.8,43,43,0,0,1,13.54,7.42,39.77,39.77,0,0,1,9.86,12.08,44.49,44.49,0,0,1,4.9,16.5H240.07A19.76,19.76,0,0,0,237.48,120.4Z"/><path d="M262.82,145.23a25.5,25.5,0,0,1,3.6-12.45,25,25,0,0,1,8.06-7.95,34.29,34.29,0,0,1,11-4.27,60.31,60.31,0,0,1,12.31-1.28,80.41,80.41,0,0,1,11.38.83,33.84,33.84,0,0,1,10.51,3.23,20.92,20.92,0,0,1,7.78,6.67q3,4.28,3,11.33v40.35a84.18,84.18,0,0,0,.58,10,18.67,18.67,0,0,0,2,7.2H312.36a31,31,0,0,1-.94-3.68,32.88,32.88,0,0,1-.5-3.82,26.47,26.47,0,0,1-11.52,7.35,44.55,44.55,0,0,1-13.54,2.1,35.18,35.18,0,0,1-9.94-1.35,22.38,22.38,0,0,1-8.06-4.2,19.42,19.42,0,0,1-5.4-7.2,25.2,25.2,0,0,1-1.94-10.35,23.4,23.4,0,0,1,2.23-10.87,19.22,19.22,0,0,1,5.76-6.82,25.36,25.36,0,0,1,8.06-3.83,83.79,83.79,0,0,1,9.14-2q4.61-.75,9.07-1.2a52.63,52.63,0,0,0,7.92-1.35,13.58,13.58,0,0,0,5.47-2.62,5.89,5.89,0,0,0,1.87-5,11.69,11.69,0,0,0-1.08-5.47,8.14,8.14,0,0,0-2.88-3.15,11.07,11.07,0,0,0-4.18-1.5,33.08,33.08,0,0,0-5.11-.37q-6,0-9.5,2.7t-4,9H262.82ZM310.05,161a9.05,9.05,0,0,1-3.24,1.88,32,32,0,0,1-4.18,1.13q-2.24.45-4.68,0.75t-4.9.75a35.64,35.64,0,0,0-4.54,1.2,13.24,13.24,0,0,0-3.89,2,9.5,9.5,0,0,0-2.66,3.23,10.73,10.73,0,0,0-1,4.95,10.35,10.35,0,0,0,1,4.8,7.91,7.91,0,0,0,2.74,3.07,11.27,11.27,0,0,0,4,1.58,24.74,24.74,0,0,0,4.75.45q6,0,9.36-2.1a13.77,13.77,0,0,0,4.9-5,16.55,16.55,0,0,0,1.95-5.92,42.73,42.73,0,0,0,.36-4.8v-8Z"/><path d="M353.4,121.38v14.4h0.29a26.32,26.32,0,0,1,3.89-6.67,25.88,25.88,0,0,1,5.62-5.25,27.06,27.06,0,0,1,6.77-3.37,23.54,23.54,0,0,1,7.49-1.2,15.41,15.41,0,0,1,4.46.75v19.8q-1.44-.3-3.46-0.52a35,35,0,0,0-3.89-.23,21.07,21.07,0,0,0-9.5,1.95,16.63,16.63,0,0,0-6.26,5.33,21.77,21.77,0,0,0-3.38,7.88,44.53,44.53,0,0,0-1,9.75v35H334V121.38H353.4Z"/><path d="M418.48,121.38v14.25h-15V174q0,5.4,1.73,7.2t6.91,1.8q1.73,0,3.31-.15a26.91,26.91,0,0,0,3-.45v16.5a47,47,0,0,1-5.76.6q-3.17.15-6.19,0.15a57.3,57.3,0,0,1-9-.68,20.63,20.63,0,0,1-7.49-2.62,13.65,13.65,0,0,1-5.11-5.55,20.51,20.51,0,0,1-1.87-9.45V135.63H370.68V121.38h12.38V98.13h20.45v23.25h15Z"/><path d="M439.36,175.83v23.1H416.75v-23.1h22.61Z"/><path d="M196.92,246.09a24.64,24.64,0,0,1,5.36.54,11.32,11.32,0,0,1,4.15,1.77,8.16,8.16,0,0,1,2.68,3.27,11.92,11.92,0,0,1,1,5,9.68,9.68,0,0,1-1.41,5.4,10.36,10.36,0,0,1-4.18,3.54,9.89,9.89,0,0,1,5.67,4,13.58,13.58,0,0,1,.66,12.48,10.8,10.8,0,0,1-3.25,3.87,14.14,14.14,0,0,1-4.67,2.22,20.25,20.25,0,0,1-5.39.72H177.57V246.09h19.35Zm-1.15,17.34a6.31,6.31,0,0,0,4-1.2,4.62,4.62,0,0,0,1.56-3.9,5.15,5.15,0,0,0-.52-2.46,3.93,3.93,0,0,0-1.38-1.5,5.69,5.69,0,0,0-2-.75,12.69,12.69,0,0,0-2.33-.21h-8.47v10h9.16Zm0.52,18.18a11.6,11.6,0,0,0,2.54-.27,6.1,6.1,0,0,0,2.13-.9,4.49,4.49,0,0,0,1.47-1.71A6.1,6.1,0,0,0,203,276q0-3.3-1.79-4.71a7.41,7.41,0,0,0-4.72-1.41h-9.85v11.76h9.68Z"/><path d="M232.46,288.93v-4.32h-0.17a9.36,9.36,0,0,1-4,3.9,11.51,11.51,0,0,1-5.07,1.2,13.8,13.8,0,0,1-5.38-.9,7.8,7.8,0,0,1-3.31-2.55,10.18,10.18,0,0,1-1.7-4,26,26,0,0,1-.49-5.25V257.91h8.18v17.52a11.24,11.24,0,0,0,1.15,5.73q1.15,1.89,4.09,1.89,3.34,0,4.84-2.07t1.5-6.81V257.91h8.18v31h-7.78Z"/><path d="M252.5,298.17a11.49,11.49,0,0,1-6.57,1.62q-1.27,0-2.51-.09l-2.51-.21v-7l2.36,0.24a16.49,16.49,0,0,0,2.42.06,3.15,3.15,0,0,0,2.39-1.32,4.38,4.38,0,0,0,.78-2.52,5.31,5.31,0,0,0-.35-1.92l-10.43-29.1h8.7l6.74,21.24h0.12l6.51-21.24h8.47l-12.44,34.86A10.48,10.48,0,0,1,252.5,298.17Z"/><path d="M288.5,298.17a11.49,11.49,0,0,1-6.57,1.62q-1.27,0-2.51-.09l-2.51-.21v-7l2.36,0.24a16.49,16.49,0,0,0,2.42.06,3.15,3.15,0,0,0,2.39-1.32,4.38,4.38,0,0,0,.78-2.52,5.31,5.31,0,0,0-.35-1.92l-10.43-29.1h8.7l6.74,21.24h0.12l6.51-21.24h8.47l-12.44,34.86A10.48,10.48,0,0,1,288.5,298.17Z"/><path d="M302.61,266.7a14.61,14.61,0,0,1,3.11-5.16,13.9,13.9,0,0,1,4.84-3.3,16.4,16.4,0,0,1,6.34-1.17,16.62,16.62,0,0,1,6.36,1.17,13.86,13.86,0,0,1,4.87,3.3,14.64,14.64,0,0,1,3.11,5.16,19.79,19.79,0,0,1,1.09,6.75,19.52,19.52,0,0,1-1.09,6.72,14.66,14.66,0,0,1-3.11,5.13,13.5,13.5,0,0,1-4.87,3.27,17,17,0,0,1-6.36,1.14,16.78,16.78,0,0,1-6.34-1.14,13.54,13.54,0,0,1-4.84-3.27,14.63,14.63,0,0,1-3.11-5.13,19.48,19.48,0,0,1-1.09-6.72A19.74,19.74,0,0,1,302.61,266.7ZM310,277.08a9.91,9.91,0,0,0,1.18,3.18,6.41,6.41,0,0,0,2.22,2.25,6.55,6.55,0,0,0,3.46.84,6.7,6.7,0,0,0,3.48-.84,6.33,6.33,0,0,0,2.25-2.25,9.91,9.91,0,0,0,1.18-3.18,18.89,18.89,0,0,0,.35-3.63,19.36,19.36,0,0,0-.35-3.66,9.58,9.58,0,0,0-1.18-3.18,6.68,6.68,0,0,0-2.25-2.25,6.53,6.53,0,0,0-3.48-.87,6.39,6.39,0,0,0-3.46.87,6.77,6.77,0,0,0-2.22,2.25,9.58,9.58,0,0,0-1.18,3.18,19.44,19.44,0,0,0-.34,3.66A19,19,0,0,0,310,277.08Z"/><path d="M352.84,288.93v-4.32h-0.17a9.36,9.36,0,0,1-4,3.9,11.5,11.5,0,0,1-5.07,1.2,13.79,13.79,0,0,1-5.38-.9,7.8,7.8,0,0,1-3.31-2.55,10.18,10.18,0,0,1-1.7-4,26,26,0,0,1-.49-5.25V257.91h8.18v17.52a11.23,11.23,0,0,0,1.15,5.73q1.15,1.89,4.09,1.89,3.34,0,4.84-2.07t1.5-6.81V257.91h8.18v31h-7.78Z"/><path d="M369.66,257.91v5.76h0.12a10.55,10.55,0,0,1,1.56-2.67,10.36,10.36,0,0,1,2.25-2.1,10.81,10.81,0,0,1,2.71-1.35,9.41,9.41,0,0,1,3-.48,6.17,6.17,0,0,1,1.79.3v7.92q-0.58-.12-1.38-0.21a14,14,0,0,0-1.56-.09,8.42,8.42,0,0,0-3.8.78,6.66,6.66,0,0,0-2.51,2.13,8.73,8.73,0,0,0-1.35,3.15,17.85,17.85,0,0,0-.4,3.9v14h-8.18v-31h7.78Z"/><path d="M387.28,263.61v-5.7h4.9v-2.4a9.51,9.51,0,0,1,2.48-6.78q2.48-2.64,7.49-2.64,1.09,0,2.19.09l2.13,0.15v6.36a24.14,24.14,0,0,0-3-.18,3.06,3.06,0,0,0-2.39.81,4.09,4.09,0,0,0-.72,2.73v1.86H406v5.7h-5.64v25.32h-8.18V263.61h-4.9Z"/><path d="M404.28,267.45a10.2,10.2,0,0,1,1.44-5,10,10,0,0,1,3.23-3.18,13.71,13.71,0,0,1,4.41-1.71,24.12,24.12,0,0,1,4.92-.51,32.17,32.17,0,0,1,4.55.33,13.53,13.53,0,0,1,4.21,1.29,8.38,8.38,0,0,1,3.11,2.67,7.7,7.7,0,0,1,1.21,4.53V282a33.59,33.59,0,0,0,.23,4,7.45,7.45,0,0,0,.81,2.88h-8.29a12.44,12.44,0,0,1-.37-1.47,13.28,13.28,0,0,1-.2-1.53,10.59,10.59,0,0,1-4.61,2.94,17.82,17.82,0,0,1-5.41.84,14.08,14.08,0,0,1-4-.54,9,9,0,0,1-3.23-1.68,7.79,7.79,0,0,1-2.16-2.88,10.1,10.1,0,0,1-.78-4.14,9.36,9.36,0,0,1,.89-4.35,7.69,7.69,0,0,1,2.3-2.73,10.14,10.14,0,0,1,3.23-1.53,33.58,33.58,0,0,1,3.66-.81q1.84-.3,3.63-0.48a21,21,0,0,0,3.17-.54,5.43,5.43,0,0,0,2.19-1,2.35,2.35,0,0,0,.75-2,4.68,4.68,0,0,0-.43-2.19,3.25,3.25,0,0,0-1.15-1.26,4.42,4.42,0,0,0-1.67-.6,13.25,13.25,0,0,0-2-.15,6,6,0,0,0-3.8,1.08,4.9,4.9,0,0,0-1.61,3.6h-8.18Zm18.89,6.3a3.63,3.63,0,0,1-1.29.75,12.8,12.8,0,0,1-1.67.45q-0.9.18-1.87,0.3t-2,.3a14.39,14.39,0,0,0-1.81.48,5.3,5.3,0,0,0-1.55.81,3.82,3.82,0,0,0-1.07,1.29,4.3,4.3,0,0,0-.4,2,4.15,4.15,0,0,0,.4,1.92,3.17,3.17,0,0,0,1.09,1.23,4.5,4.5,0,0,0,1.61.63,9.92,9.92,0,0,0,1.9.18,7,7,0,0,0,3.74-.84,5.5,5.5,0,0,0,2-2,6.62,6.62,0,0,0,.78-2.37,17.24,17.24,0,0,0,.14-1.92v-3.18Z"/><path d="M440.1,288.93l-10.2-31h8.58l6.28,21.18h0.12l6.28-21.18h8.12l-10.08,31h-9.1Z"/><path d="M457.9,266.7a14.62,14.62,0,0,1,3.11-5.16,13.91,13.91,0,0,1,4.84-3.3,16.4,16.4,0,0,1,6.34-1.17,16.62,16.62,0,0,1,6.36,1.17,13.85,13.85,0,0,1,4.87,3.3,14.65,14.65,0,0,1,3.11,5.16,19.79,19.79,0,0,1,1.09,6.75,19.52,19.52,0,0,1-1.09,6.72,14.68,14.68,0,0,1-3.11,5.13,13.49,13.49,0,0,1-4.87,3.27,17,17,0,0,1-6.36,1.14,16.79,16.79,0,0,1-6.34-1.14A13.55,13.55,0,0,1,461,285.3a14.65,14.65,0,0,1-3.11-5.13,19.48,19.48,0,0,1-1.09-6.72A19.74,19.74,0,0,1,457.9,266.7Zm7.43,10.38a9.88,9.88,0,0,0,1.18,3.18,6.4,6.4,0,0,0,2.22,2.25,6.54,6.54,0,0,0,3.46.84,6.7,6.7,0,0,0,3.49-.84,6.34,6.34,0,0,0,2.25-2.25,9.91,9.91,0,0,0,1.18-3.18,18.89,18.89,0,0,0,.35-3.63,19.36,19.36,0,0,0-.35-3.66,9.58,9.58,0,0,0-1.18-3.18,6.69,6.69,0,0,0-2.25-2.25,6.54,6.54,0,0,0-3.49-.87,6.38,6.38,0,0,0-3.46.87,6.75,6.75,0,0,0-2.22,2.25,9.56,9.56,0,0,0-1.18,3.18,19.36,19.36,0,0,0-.35,3.66A18.89,18.89,0,0,0,465.33,277.08Z"/><path d="M495.74,257.91v5.76h0.12a10.55,10.55,0,0,1,1.55-2.67,10.38,10.38,0,0,1,2.25-2.1,10.85,10.85,0,0,1,2.71-1.35,9.41,9.41,0,0,1,3-.48,6.17,6.17,0,0,1,1.79.3v7.92q-0.58-.12-1.38-0.21a14,14,0,0,0-1.56-.09,8.42,8.42,0,0,0-3.8.78,6.65,6.65,0,0,0-2.51,2.13,8.69,8.69,0,0,0-1.35,3.15,17.79,17.79,0,0,0-.4,3.9v14H488v-31h7.78Z"/><path d="M505.65,253.11v-7h8.18v7h-8.18Zm8.18,4.8v31h-8.18v-31h8.18Z"/><path d="M531.68,257.91v5.7h-6V279a4.3,4.3,0,0,0,.69,2.88,3.89,3.89,0,0,0,2.77.72q0.69,0,1.32-.06a10.68,10.68,0,0,0,1.21-.18v6.6a18.87,18.87,0,0,1-2.3.24q-1.27.06-2.48,0.06a22.93,22.93,0,0,1-3.6-.27,8.25,8.25,0,0,1-3-1.05,5.45,5.45,0,0,1-2-2.22,8.19,8.19,0,0,1-.75-3.78v-18.3h-5v-5.7h5v-9.3h8.18v9.3h6Z"/><path d="M539.4,281.49a8.11,8.11,0,0,0,9.56.57,5.31,5.31,0,0,0,2.19-2.73h7.2q-1.73,5.58-5.3,8a15.13,15.13,0,0,1-8.64,2.4,16.4,16.4,0,0,1-6.34-1.17,13.14,13.14,0,0,1-4.78-3.33,15.08,15.08,0,0,1-3-5.16,19.58,19.58,0,0,1-1.07-6.6A18.77,18.77,0,0,1,530.3,267a15.31,15.31,0,0,1,3.11-5.19,14.64,14.64,0,0,1,4.81-3.45,14.89,14.89,0,0,1,6.19-1.26A13.69,13.69,0,0,1,551,258.6a13.38,13.38,0,0,1,4.64,4.11,17.23,17.23,0,0,1,2.62,5.88,22.84,22.84,0,0,1,.58,6.9H537.39Q537.56,279.63,539.4,281.49Zm9.24-16.32a5.62,5.62,0,0,0-4.46-1.68,6.88,6.88,0,0,0-3.25.69,6.24,6.24,0,0,0-2.07,1.71,6.33,6.33,0,0,0-1.09,2.16,10,10,0,0,0-.37,2h13.3A10,10,0,0,0,548.65,265.17Z"/><path d="M183.58,337.22a4.92,4.92,0,0,0,1.41,1.62,5.94,5.94,0,0,0,2,.93,9,9,0,0,0,2.33.3,8.37,8.37,0,0,0,1.81-.21,6,6,0,0,0,1.73-.66,4,4,0,0,0,1.3-1.2,3.25,3.25,0,0,0,.52-1.89q0-1.92-2.45-2.88a47.48,47.48,0,0,0-6.83-1.92q-1.79-.42-3.48-1a11.67,11.67,0,0,1-3-1.5,7.15,7.15,0,0,1-2.13-2.34A6.84,6.84,0,0,1,176,323a9.64,9.64,0,0,1,1.12-4.92,8.44,8.44,0,0,1,3-3,12.67,12.67,0,0,1,4.15-1.56,24.59,24.59,0,0,1,4.72-.45,22.7,22.7,0,0,1,4.7.48,12.17,12.17,0,0,1,4.06,1.62,9.53,9.53,0,0,1,3,3A10.5,10.5,0,0,1,202,323h-7.78a3.76,3.76,0,0,0-1.79-3.33,7.9,7.9,0,0,0-3.8-.87,13.53,13.53,0,0,0-1.5.09,4.84,4.84,0,0,0-1.47.39,3,3,0,0,0-1.12.87,2.64,2.64,0,0,0,.35,3.39,6.14,6.14,0,0,0,2.1,1.17,25.35,25.35,0,0,0,3,.81q1.67,0.36,3.4.78a33.77,33.77,0,0,1,3.49,1,11.32,11.32,0,0,1,3,1.59,7.61,7.61,0,0,1,2.13,2.46,7.47,7.47,0,0,1,.81,3.63,10.23,10.23,0,0,1-1.18,5.13,9.69,9.69,0,0,1-3.08,3.33,12.33,12.33,0,0,1-4.35,1.77,24.38,24.38,0,0,1-5,.51,23.72,23.72,0,0,1-5.07-.54,13,13,0,0,1-4.41-1.8,10.08,10.08,0,0,1-3.17-3.33,10.75,10.75,0,0,1-1.35-5.19H183A4.82,4.82,0,0,0,183.58,337.22Z"/><path d="M219,313.91v5.7h-6V335a4.3,4.3,0,0,0,.69,2.88,3.89,3.89,0,0,0,2.76.72q0.69,0,1.33-.06a10.73,10.73,0,0,0,1.21-.18v6.6a18.93,18.93,0,0,1-2.3.24q-1.27.06-2.48,0.06a22.9,22.9,0,0,1-3.6-.27,8.27,8.27,0,0,1-3-1.05,5.46,5.46,0,0,1-2-2.22,8.21,8.21,0,0,1-.75-3.78v-18.3h-5v-5.7h5v-9.3H213v9.3h6Z"/><path d="M225.78,313.91v5.76h0.12a10.52,10.52,0,0,1,1.55-2.67,10.35,10.35,0,0,1,2.25-2.1,10.86,10.86,0,0,1,2.71-1.35,9.42,9.42,0,0,1,3-.48,6.17,6.17,0,0,1,1.79.3v7.92c-0.38-.08-0.84-0.15-1.38-0.21a14,14,0,0,0-1.55-.09,8.42,8.42,0,0,0-3.8.78,6.65,6.65,0,0,0-2.5,2.13,8.68,8.68,0,0,0-1.35,3.15,17.79,17.79,0,0,0-.4,3.9v14H218v-31h7.78Z"/><path d="M235.68,309.11v-7h8.18v7h-8.18Zm8.18,4.8v31h-8.18v-31h8.18Z"/><path d="M253.13,313.91v4h0.12a9.15,9.15,0,0,1,3.8-3.66,11.28,11.28,0,0,1,5.07-1.14,12.48,12.48,0,0,1,6,1.38,12.65,12.65,0,0,1,4.21,3.66,15.75,15.75,0,0,1,2.48,5.31,24.53,24.53,0,0,1,.81,6.33,22.17,22.17,0,0,1-.81,6,15.55,15.55,0,0,1-2.45,5.1,12.28,12.28,0,0,1-4.09,3.54,11.91,11.91,0,0,1-5.73,1.32,11.21,11.21,0,0,1-5.1-1.17,9.77,9.77,0,0,1-3.83-3.45h-0.12v14.7h-8.18V313.91h7.78Zm10.63,24.6a6.68,6.68,0,0,0,2.19-2.19,9.27,9.27,0,0,0,1.18-3.15,19.35,19.35,0,0,0,.35-3.66,18,18,0,0,0-.37-3.66,10,10,0,0,0-1.24-3.21,7.05,7.05,0,0,0-2.22-2.28,6,6,0,0,0-3.31-.87,6.12,6.12,0,0,0-3.37.87,6.87,6.87,0,0,0-2.19,2.25,9.58,9.58,0,0,0-1.18,3.18,19.68,19.68,0,0,0-.35,3.72,17.89,17.89,0,0,0,.37,3.66,9.66,9.66,0,0,0,1.21,3.15,6.58,6.58,0,0,0,2.22,2.19A7.12,7.12,0,0,0,263.76,338.51Z"/><path d="M284.35,337.49a8.11,8.11,0,0,0,9.56.57,5.31,5.31,0,0,0,2.19-2.73h7.2q-1.73,5.58-5.3,8a15.13,15.13,0,0,1-8.64,2.4,16.4,16.4,0,0,1-6.34-1.17,13.14,13.14,0,0,1-4.78-3.33,15.08,15.08,0,0,1-3-5.16,19.58,19.58,0,0,1-1.07-6.6,18.77,18.77,0,0,1,1.09-6.48,15.31,15.31,0,0,1,3.11-5.19,14.64,14.64,0,0,1,4.81-3.45,14.89,14.89,0,0,1,6.19-1.26A13.69,13.69,0,0,1,296,314.6a13.38,13.38,0,0,1,4.64,4.11,17.23,17.23,0,0,1,2.62,5.88,22.84,22.84,0,0,1,.58,6.9H282.34Q282.51,335.63,284.35,337.49Zm9.24-16.32a5.62,5.62,0,0,0-4.46-1.68,6.88,6.88,0,0,0-3.25.69,6.24,6.24,0,0,0-2.07,1.71,6.33,6.33,0,0,0-1.09,2.16,10,10,0,0,0-.37,2h13.3A10,10,0,0,0,293.6,321.17Z"/><path d="M324.85,341a8.58,8.58,0,0,1-3.77,3.63,12.12,12.12,0,0,1-5.27,1.11,12.31,12.31,0,0,1-5.88-1.35,11.92,11.92,0,0,1-4.18-3.66,16.88,16.88,0,0,1-2.48-5.31,23.16,23.16,0,0,1-.83-6.24,21.77,21.77,0,0,1,.83-6,15.93,15.93,0,0,1,2.48-5.13,12.49,12.49,0,0,1,4.12-3.57,11.85,11.85,0,0,1,5.76-1.35,11.33,11.33,0,0,1,5,1.17,8.91,8.91,0,0,1,3.77,3.45h0.12v-15.6h8.18v42.84H325v-4h-0.12Zm-0.35-15.33a9.25,9.25,0,0,0-1.18-3.12,6.78,6.78,0,0,0-2.16-2.19,6.13,6.13,0,0,0-3.34-.84,6.43,6.43,0,0,0-3.4.84,6.5,6.5,0,0,0-2.22,2.22A10.06,10.06,0,0,0,311,325.7a17.77,17.77,0,0,0-.37,3.69,16.38,16.38,0,0,0,.4,3.6,10,10,0,0,0,1.3,3.21,7.32,7.32,0,0,0,2.25,2.28,5.89,5.89,0,0,0,3.25.87,5.95,5.95,0,0,0,5.53-3.09A10.35,10.35,0,0,0,324.5,333a19.67,19.67,0,0,0,.35-3.72A19.22,19.22,0,0,0,324.5,325.64Z"/><path d="M345.24,309.11v-7h8.18v7h-8.18Zm8.18,4.8v31h-8.18v-31h8.18Z"/><path d="M371.27,313.91v5.7h-6V335a4.3,4.3,0,0,0,.69,2.88,3.89,3.89,0,0,0,2.77.72q0.69,0,1.32-.06a10.68,10.68,0,0,0,1.21-.18v6.6a18.87,18.87,0,0,1-2.3.24q-1.27.06-2.48,0.06a22.93,22.93,0,0,1-3.6-.27,8.25,8.25,0,0,1-3-1.05,5.45,5.45,0,0,1-2-2.22,8.19,8.19,0,0,1-.75-3.78v-18.3h-5v-5.7h5v-9.3h8.18v9.3h6Z"/><path d="M379,337.49a8.11,8.11,0,0,0,9.56.57,5.31,5.31,0,0,0,2.19-2.73h7.2q-1.73,5.58-5.3,8a15.13,15.13,0,0,1-8.64,2.4,16.4,16.4,0,0,1-6.34-1.17,13.14,13.14,0,0,1-4.78-3.33,15.08,15.08,0,0,1-3-5.16,19.58,19.58,0,0,1-1.07-6.6,18.77,18.77,0,0,1,1.09-6.48,15.31,15.31,0,0,1,3.11-5.19,14.64,14.64,0,0,1,4.81-3.45,14.89,14.89,0,0,1,6.19-1.26,13.69,13.69,0,0,1,6.62,1.53,13.38,13.38,0,0,1,4.64,4.11,17.23,17.23,0,0,1,2.62,5.88,22.84,22.84,0,0,1,.58,6.9H377Q377.15,335.63,379,337.49Zm9.24-16.32a5.62,5.62,0,0,0-4.46-1.68,6.88,6.88,0,0,0-3.25.69,6.24,6.24,0,0,0-2.07,1.71,6.33,6.33,0,0,0-1.09,2.16,10,10,0,0,0-.37,2h13.3A10,10,0,0,0,388.23,321.17Z"/><path d="M406.29,313.91v4.2h0.12a11.84,11.84,0,0,1,3.89-3.72,10.2,10.2,0,0,1,5.21-1.32,11.59,11.59,0,0,1,5.15,1.14,7.43,7.43,0,0,1,3.54,4,12.92,12.92,0,0,1,3.6-3.6,9.3,9.3,0,0,1,5.39-1.56,15.31,15.31,0,0,1,4.38.6,8.72,8.72,0,0,1,3.46,1.92,8.84,8.84,0,0,1,2.25,3.45,14.53,14.53,0,0,1,.81,5.13v20.76H435.9V327.35q0-1.56-.12-2.94a6.49,6.49,0,0,0-.63-2.4,3.93,3.93,0,0,0-1.53-1.62,5.34,5.34,0,0,0-2.74-.6,5.06,5.06,0,0,0-2.79.69,4.92,4.92,0,0,0-1.67,1.8,7.41,7.41,0,0,0-.81,2.52,20.06,20.06,0,0,0-.2,2.85v17.28h-8.18v-17.4q0-1.38-.06-2.73a8,8,0,0,0-.49-2.49,3.8,3.8,0,0,0-1.44-1.83,5.26,5.26,0,0,0-3-.69,5.89,5.89,0,0,0-1.53.27,5,5,0,0,0-1.84,1,5.94,5.94,0,0,0-1.53,2.16,9.07,9.07,0,0,0-.63,3.69v18h-8.18v-31h7.72Z"/><path d="M452.46,337.22a4.92,4.92,0,0,0,1.41,1.62,5.94,5.94,0,0,0,2,.93,9,9,0,0,0,2.33.3,8.37,8.37,0,0,0,1.81-.21,6,6,0,0,0,1.73-.66A4,4,0,0,0,463,338a3.25,3.25,0,0,0,.52-1.89q0-1.92-2.45-2.88a47.48,47.48,0,0,0-6.83-1.92q-1.79-.42-3.48-1a11.67,11.67,0,0,1-3-1.5,7.15,7.15,0,0,1-2.13-2.34,6.84,6.84,0,0,1-.81-3.45,9.64,9.64,0,0,1,1.12-4.92,8.44,8.44,0,0,1,3-3,12.67,12.67,0,0,1,4.15-1.56,24.59,24.59,0,0,1,4.72-.45,22.7,22.7,0,0,1,4.7.48,12.17,12.17,0,0,1,4.06,1.62,9.53,9.53,0,0,1,3,3,10.5,10.5,0,0,1,1.41,4.77h-7.78a3.76,3.76,0,0,0-1.79-3.33,7.9,7.9,0,0,0-3.8-.87,13.53,13.53,0,0,0-1.5.09,4.84,4.84,0,0,0-1.47.39,3,3,0,0,0-1.12.87,2.64,2.64,0,0,0,.35,3.39,6.14,6.14,0,0,0,2.1,1.17,25.35,25.35,0,0,0,3,.81q1.67,0.36,3.4.78a33.77,33.77,0,0,1,3.49,1,11.32,11.32,0,0,1,3,1.59,7.61,7.61,0,0,1,2.13,2.46,7.47,7.47,0,0,1,.81,3.63,10.23,10.23,0,0,1-1.18,5.13,9.69,9.69,0,0,1-3.08,3.33,12.33,12.33,0,0,1-4.35,1.77,24.38,24.38,0,0,1-5,.51,23.72,23.72,0,0,1-5.07-.54,13,13,0,0,1-4.41-1.8,10.08,10.08,0,0,1-3.17-3.33,10.75,10.75,0,0,1-1.35-5.19h7.78A4.82,4.82,0,0,0,452.46,337.22Z"/><path d="M480.94,335.69v9.24h-9v-9.24h9Z"/></svg>