<svg id="texts" xmlns="http://www.w3.org/2000/svg" viewBox="0 0 479.13 546.51">
  <title>home_text_01</title>
  <g>
    <path d="M3151.22,80.7a16.82,16.82,0,0,0,5,6.08,21.06,21.06,0,0,0,7.27,3.45,33.06,33.06,0,0,0,8.64,1.13,43.09,43.09,0,0,0,6.48-.53,21.82,21.82,0,0,0,6.48-2,14.24,14.24,0,0,0,5-4.12,10.64,10.64,0,0,0,2-6.67,9.61,9.61,0,0,0-2.66-7.05,21.05,21.05,0,0,0-7-4.5,67.72,67.72,0,0,0-9.79-3.15q-5.47-1.35-11.09-3a95.13,95.13,0,0,1-11.23-3.67,38.07,38.07,0,0,1-9.79-5.62,26.22,26.22,0,0,1-7-8.62,27.06,27.06,0,0,1-2.66-12.52,29,29,0,0,1,3.38-14.33,31.47,31.47,0,0,1,8.86-10.12,37.92,37.92,0,0,1,12.38-6,50.77,50.77,0,0,1,13.82-2,63,63,0,0,1,15.48,1.87A37.94,37.94,0,0,1,3198,5.4a30.39,30.39,0,0,1,9.14,10.73,34.05,34.05,0,0,1,3.38,15.82h-21.89a19.61,19.61,0,0,0-1.94-7.95,13.07,13.07,0,0,0-4.39-5,18.18,18.18,0,0,0-6.26-2.55,37.12,37.12,0,0,0-7.7-.75,25.56,25.56,0,0,0-5.47.6,14.34,14.34,0,0,0-5,2.1,12.72,12.72,0,0,0-3.67,3.75,10.38,10.38,0,0,0-1.44,5.7A9.93,9.93,0,0,0,3154,33a10.34,10.34,0,0,0,4.54,3.6,56.12,56.12,0,0,0,9.36,3.3q6,1.65,15.62,4.2,2.88,0.6,8,2.17a37.71,37.71,0,0,1,10.15,5,31.43,31.43,0,0,1,8.71,9.23Q3214,66.3,3214,75.3a33.92,33.92,0,0,1-2.74,13.65,29.52,29.52,0,0,1-8.14,10.88,38.55,38.55,0,0,1-13.39,7.13,61,61,0,0,1-18.5,2.55,62.54,62.54,0,0,1-16.49-2.18,40.69,40.69,0,0,1-14.11-6.82,33.33,33.33,0,0,1-9.72-11.85,36.59,36.59,0,0,1-3.46-17.1h21.89A20.31,20.31,0,0,0,3151.22,80.7Z" transform="translate(-3127.45 2.55)"/>
    <path d="M3253.74,29.55V43.8h-15V82.2q0,5.4,1.73,7.2t6.91,1.8q1.73,0,3.31-.15a26.91,26.91,0,0,0,3-.45v16.5a47,47,0,0,1-5.76.6q-3.17.15-6.19,0.15a57.31,57.31,0,0,1-9-.68,20.63,20.63,0,0,1-7.49-2.62,13.64,13.64,0,0,1-5.11-5.55,20.5,20.5,0,0,1-1.87-9.45V43.8h-12.38V29.55h12.38V6.3h20.45V29.55h15Z" transform="translate(-3127.45 2.55)"/>
    <path d="M3270.59,29.55v14.4h0.29a26.36,26.36,0,0,1,3.89-6.67,25.88,25.88,0,0,1,5.62-5.25,27.08,27.08,0,0,1,6.77-3.37,23.53,23.53,0,0,1,7.49-1.2,15.41,15.41,0,0,1,4.46.75V48q-1.44-.3-3.46-0.52a35,35,0,0,0-3.89-.23,21.07,21.07,0,0,0-9.5,1.95,16.63,16.63,0,0,0-6.26,5.33,21.75,21.75,0,0,0-3.38,7.88,44.53,44.53,0,0,0-1,9.75v35h-20.45V29.55h19.44Z" transform="translate(-3127.45 2.55)"/>
    <path d="M3295.36,17.55V0h20.45V17.55h-20.45Zm20.45,12V107.1h-20.45V29.55h20.45Z" transform="translate(-3127.45 2.55)"/>
    <path d="M3339,29.55v9.9h0.29a22.87,22.87,0,0,1,9.5-9.15,28.2,28.2,0,0,1,12.67-2.85,31.19,31.19,0,0,1,15.12,3.45A31.62,31.62,0,0,1,3387.08,40a39.38,39.38,0,0,1,6.19,13.27,61.3,61.3,0,0,1,2,15.83,55.38,55.38,0,0,1-2,15,38.82,38.82,0,0,1-6.12,12.75,30.62,30.62,0,0,1-10.22,8.85,29.76,29.76,0,0,1-14.33,3.3,28,28,0,0,1-12.74-2.92,24.42,24.42,0,0,1-9.58-8.63H3340v36.75h-20.45V29.55H3339ZM3365.56,91a16.71,16.71,0,0,0,5.47-5.48,23.14,23.14,0,0,0,3-7.87,48.39,48.39,0,0,0,.86-9.15,44.89,44.89,0,0,0-.94-9.15,25,25,0,0,0-3.1-8,17.64,17.64,0,0,0-5.54-5.7A15,15,0,0,0,3357,43.5a15.29,15.29,0,0,0-8.42,2.17,17.15,17.15,0,0,0-5.47,5.63,23.94,23.94,0,0,0-3,8,49.21,49.21,0,0,0-.86,9.3,44.67,44.67,0,0,0,.94,9.15,24.18,24.18,0,0,0,3,7.88,16.46,16.46,0,0,0,5.54,5.48A17.8,17.8,0,0,0,3365.56,91Z" transform="translate(-3127.45 2.55)"/>
    <path d="M3417,88.5q4.61,4.65,13.25,4.65a17.7,17.7,0,0,0,10.66-3.23q4.46-3.22,5.47-6.82h18Q3460.09,97,3451.16,103t-21.6,6a41,41,0,0,1-15.84-2.92,32.87,32.87,0,0,1-12-8.33,37.74,37.74,0,0,1-7.56-12.9,49,49,0,0,1-2.66-16.5,46.93,46.93,0,0,1,2.74-16.2,38.26,38.26,0,0,1,7.78-13,36.58,36.58,0,0,1,12-8.62,37.22,37.22,0,0,1,15.48-3.15,34.23,34.23,0,0,1,16.56,3.83,33.47,33.47,0,0,1,11.59,10.27,43.09,43.09,0,0,1,6.55,14.7,57,57,0,0,1,1.44,17.25H3412Q3412.43,83.85,3417,88.5Zm23.11-40.8q-3.67-4.2-11.16-4.2a17.2,17.2,0,0,0-8.14,1.73,15.63,15.63,0,0,0-5.18,4.27,15.89,15.89,0,0,0-2.74,5.4A25.19,25.19,0,0,0,3412,60h33.26Q3443.82,51.9,3440.15,47.7Z" transform="translate(-3127.45 2.55)"/>
    <path d="M3482.63,87.82a12.27,12.27,0,0,0,3.53,4.05,14.82,14.82,0,0,0,5,2.32,22.42,22.42,0,0,0,5.83.75,20.94,20.94,0,0,0,4.54-.52,15,15,0,0,0,4.32-1.65,10,10,0,0,0,3.24-3,8.12,8.12,0,0,0,1.3-4.73q0-4.8-6.12-7.2a118.8,118.8,0,0,0-17.06-4.8q-4.46-1-8.71-2.48a29.16,29.16,0,0,1-7.56-3.75,17.91,17.91,0,0,1-5.33-5.85,17.11,17.11,0,0,1-2-8.62q0-7.5,2.81-12.3a21.13,21.13,0,0,1,7.42-7.57,31.69,31.69,0,0,1,10.37-3.9,61.45,61.45,0,0,1,11.81-1.12,56.76,56.76,0,0,1,11.74,1.2,30.39,30.39,0,0,1,10.15,4,23.82,23.82,0,0,1,7.42,7.58,26.22,26.22,0,0,1,3.53,11.92h-19.44q-0.43-6.15-4.46-8.32a19.75,19.75,0,0,0-9.5-2.18,33.91,33.91,0,0,0-3.74.23,12.1,12.1,0,0,0-3.67,1,7.6,7.6,0,0,0-2.81,2.17A5.9,5.9,0,0,0,3484,48.9a5.94,5.94,0,0,0,2,4.65,15.35,15.35,0,0,0,5.26,2.93,63.57,63.57,0,0,0,7.42,2q4.17,0.9,8.5,1.95a84.53,84.53,0,0,1,8.71,2.55,28.29,28.29,0,0,1,7.56,4,19,19,0,0,1,5.33,6.15,18.68,18.68,0,0,1,2,9.07,25.57,25.57,0,0,1-3,12.83,24.2,24.2,0,0,1-7.7,8.33,30.84,30.84,0,0,1-10.87,4.42,61,61,0,0,1-12.46,1.27,59.29,59.29,0,0,1-12.67-1.35,32.65,32.65,0,0,1-11-4.5,25.23,25.23,0,0,1-7.92-8.32,26.88,26.88,0,0,1-3.38-13h19.44A12,12,0,0,0,3482.63,87.82Z" transform="translate(-3127.45 2.55)"/>
    <path d="M3553.83,84v23.1h-22.61V84h22.61Z" transform="translate(-3127.45 2.55)"/>
    <path d="M3139.34,161.28v-7h8.18v7h-8.18Zm8.18,4.8v31h-8.18v-31h8.18Z" transform="translate(-3127.45 2.55)"/>
    <path d="M3155.9,189.39a4.91,4.91,0,0,0,1.41,1.62,5.93,5.93,0,0,0,2,.93,9,9,0,0,0,2.33.3,8.37,8.37,0,0,0,1.81-.21,6,6,0,0,0,1.73-.66,4,4,0,0,0,1.3-1.2,3.25,3.25,0,0,0,.52-1.89q0-1.92-2.45-2.88a47.49,47.49,0,0,0-6.83-1.92q-1.79-.42-3.49-1a11.67,11.67,0,0,1-3-1.5,7.16,7.16,0,0,1-2.13-2.34,6.84,6.84,0,0,1-.81-3.45,9.65,9.65,0,0,1,1.12-4.92,8.44,8.44,0,0,1,3-3,12.68,12.68,0,0,1,4.15-1.56,24.59,24.59,0,0,1,4.72-.45,22.7,22.7,0,0,1,4.69.48,12.16,12.16,0,0,1,4.06,1.62,9.53,9.53,0,0,1,3,3,10.49,10.49,0,0,1,1.41,4.77h-7.78a3.76,3.76,0,0,0-1.79-3.33,7.89,7.89,0,0,0-3.8-.87,13.54,13.54,0,0,0-1.5.09,4.84,4.84,0,0,0-1.47.39,3,3,0,0,0-1.12.87,2.64,2.64,0,0,0,.35,3.39,6.14,6.14,0,0,0,2.1,1.17,25.35,25.35,0,0,0,3,.81q1.67,0.36,3.4.78a33.77,33.77,0,0,1,3.49,1,11.32,11.32,0,0,1,3,1.59,7.62,7.62,0,0,1,2.13,2.46,7.47,7.47,0,0,1,.81,3.63,10.22,10.22,0,0,1-1.18,5.13,9.68,9.68,0,0,1-3.08,3.33,12.33,12.33,0,0,1-4.35,1.77,24.38,24.38,0,0,1-5,.51,23.73,23.73,0,0,1-5.07-.54,13.06,13.06,0,0,1-4.41-1.8,10.09,10.09,0,0,1-3.17-3.33,10.75,10.75,0,0,1-1.35-5.19h7.78A4.82,4.82,0,0,0,3155.9,189.39Z" transform="translate(-3127.45 2.55)"/>
    <path d="M3185.71,175.62a10.19,10.19,0,0,1,1.44-5,10,10,0,0,1,3.23-3.18,13.71,13.71,0,0,1,4.41-1.71,24.13,24.13,0,0,1,4.92-.51,32.18,32.18,0,0,1,4.55.33,13.52,13.52,0,0,1,4.2,1.29,8.38,8.38,0,0,1,3.11,2.67,7.7,7.7,0,0,1,1.21,4.53V190.2a33.59,33.59,0,0,0,.23,4,7.47,7.47,0,0,0,.81,2.88h-8.29a12.63,12.63,0,0,1-.37-1.47,12.87,12.87,0,0,1-.2-1.53,10.6,10.6,0,0,1-4.61,2.94,17.81,17.81,0,0,1-5.41.84,14.08,14.08,0,0,1-4-.54,9,9,0,0,1-3.23-1.68,7.77,7.77,0,0,1-2.16-2.88,10.08,10.08,0,0,1-.78-4.14,9.36,9.36,0,0,1,.89-4.35,7.68,7.68,0,0,1,2.3-2.73,10.15,10.15,0,0,1,3.23-1.53,33.54,33.54,0,0,1,3.66-.81q1.84-.3,3.63-0.48a21,21,0,0,0,3.17-.54,5.43,5.43,0,0,0,2.19-1,2.36,2.36,0,0,0,.75-2,4.68,4.68,0,0,0-.43-2.19,3.26,3.26,0,0,0-1.15-1.26,4.43,4.43,0,0,0-1.67-.6,13.25,13.25,0,0,0-2-.15,6,6,0,0,0-3.8,1.08,4.9,4.9,0,0,0-1.61,3.6h-8.18Zm18.89,6.3a3.63,3.63,0,0,1-1.3.75,12.76,12.76,0,0,1-1.67.45q-0.89.18-1.87,0.3t-2,.3a14.3,14.3,0,0,0-1.81.48,5.31,5.31,0,0,0-1.56.81,3.82,3.82,0,0,0-1.07,1.29,4.3,4.3,0,0,0-.4,2,4.15,4.15,0,0,0,.4,1.92,3.17,3.17,0,0,0,1.09,1.23,4.5,4.5,0,0,0,1.61.63,9.92,9.92,0,0,0,1.9.18,7,7,0,0,0,3.74-.84,5.51,5.51,0,0,0,2-2,6.61,6.61,0,0,0,.78-2.37,17,17,0,0,0,.14-1.92v-3.18Z" transform="translate(-3127.45 2.55)"/>
    <path d="M3233.4,154.26v15.6h0.12a8.82,8.82,0,0,1,4.06-3.51,13.26,13.26,0,0,1,5.33-1.11,11,11,0,0,1,4.44,1,11.39,11.39,0,0,1,3.95,2.94,15.18,15.18,0,0,1,2.85,5.07,25.22,25.22,0,0,1,0,14.7,15.18,15.18,0,0,1-2.85,5.07,11.38,11.38,0,0,1-3.95,2.94,11,11,0,0,1-4.44,1,15.15,15.15,0,0,1-5.87-1.08,7.57,7.57,0,0,1-3.92-3.66H3233v4h-7.78V154.26h8.18Zm13.25,23.58a10.13,10.13,0,0,0-1.27-3.18,6.78,6.78,0,0,0-2.16-2.19,6.43,6.43,0,0,0-6.25,0,6.67,6.67,0,0,0-2.19,2.19,10.11,10.11,0,0,0-1.27,3.18,17.26,17.26,0,0,0-.4,3.78,17,17,0,0,0,.4,3.72,10.1,10.1,0,0,0,1.27,3.18,6.66,6.66,0,0,0,2.19,2.19,6.43,6.43,0,0,0,6.25,0,6.77,6.77,0,0,0,2.16-2.19,10.12,10.12,0,0,0,1.27-3.18,17,17,0,0,0,.4-3.72A17.26,17.26,0,0,0,3246.65,177.84Z" transform="translate(-3127.45 2.55)"/>
    <path d="M3263.24,166.08v5.76h0.12a10.52,10.52,0,0,1,1.55-2.67,10.36,10.36,0,0,1,2.25-2.1,10.83,10.83,0,0,1,2.71-1.35,9.41,9.41,0,0,1,3-.48,6.17,6.17,0,0,1,1.79.3v7.92q-0.58-.12-1.38-0.21a14,14,0,0,0-1.56-.09,8.42,8.42,0,0,0-3.8.78,6.66,6.66,0,0,0-2.5,2.13,8.69,8.69,0,0,0-1.35,3.15,17.79,17.79,0,0,0-.4,3.9v14h-8.18v-31h7.78Z" transform="translate(-3127.45 2.55)"/>
    <path d="M3272.57,175.62a10.19,10.19,0,0,1,1.44-5,10,10,0,0,1,3.23-3.18,13.71,13.71,0,0,1,4.41-1.71,24.13,24.13,0,0,1,4.92-.51,32.18,32.18,0,0,1,4.55.33,13.52,13.52,0,0,1,4.2,1.29,8.38,8.38,0,0,1,3.11,2.67,7.7,7.7,0,0,1,1.21,4.53V190.2a33.59,33.59,0,0,0,.23,4,7.47,7.47,0,0,0,.81,2.88h-8.29a12.63,12.63,0,0,1-.37-1.47,12.87,12.87,0,0,1-.2-1.53,10.6,10.6,0,0,1-4.61,2.94,17.81,17.81,0,0,1-5.41.84,14.08,14.08,0,0,1-4-.54,9,9,0,0,1-3.23-1.68,7.77,7.77,0,0,1-2.16-2.88,10.08,10.08,0,0,1-.78-4.14,9.36,9.36,0,0,1,.89-4.35,7.68,7.68,0,0,1,2.3-2.73,10.15,10.15,0,0,1,3.23-1.53,33.54,33.54,0,0,1,3.66-.81q1.84-.3,3.63-0.48a21,21,0,0,0,3.17-.54,5.43,5.43,0,0,0,2.19-1,2.36,2.36,0,0,0,.75-2,4.68,4.68,0,0,0-.43-2.19,3.26,3.26,0,0,0-1.15-1.26,4.43,4.43,0,0,0-1.67-.6,13.25,13.25,0,0,0-2-.15,6,6,0,0,0-3.8,1.08,4.9,4.9,0,0,0-1.61,3.6h-8.18Zm18.89,6.3a3.63,3.63,0,0,1-1.3.75,12.76,12.76,0,0,1-1.67.45q-0.89.18-1.87,0.3t-2,.3a14.3,14.3,0,0,0-1.81.48,5.31,5.31,0,0,0-1.56.81,3.82,3.82,0,0,0-1.07,1.29,4.3,4.3,0,0,0-.4,2,4.15,4.15,0,0,0,.4,1.92,3.17,3.17,0,0,0,1.09,1.23,4.5,4.5,0,0,0,1.61.63,9.92,9.92,0,0,0,1.9.18,7,7,0,0,0,3.74-.84,5.51,5.51,0,0,0,2-2,6.61,6.61,0,0,0,.78-2.37,17,17,0,0,0,.14-1.92v-3.18Z" transform="translate(-3127.45 2.55)"/>
    <path d="M3308.8,166.08v4.32H3309a9.55,9.55,0,0,1,4-3.93,11.28,11.28,0,0,1,5.07-1.23,13.41,13.41,0,0,1,5.39.93,8,8,0,0,1,3.31,2.58,10.19,10.19,0,0,1,1.7,4A26,26,0,0,1,3329,178V197.1h-8.18V179.58a11.25,11.25,0,0,0-1.15-5.73q-1.15-1.89-4.09-1.89-3.34,0-4.84,2.07t-1.5,6.81V197.1H3301v-31h7.78Z" transform="translate(-3127.45 2.55)"/>
    <path d="M3351.36,193.14a8.58,8.58,0,0,1-3.77,3.63,12.12,12.12,0,0,1-5.27,1.11,12.31,12.31,0,0,1-5.88-1.35,11.93,11.93,0,0,1-4.18-3.66,16.88,16.88,0,0,1-2.48-5.31,23.13,23.13,0,0,1-.83-6.24,21.73,21.73,0,0,1,.83-6,15.93,15.93,0,0,1,2.48-5.13,12.49,12.49,0,0,1,4.12-3.57,11.85,11.85,0,0,1,5.76-1.35,11.33,11.33,0,0,1,5,1.17,8.91,8.91,0,0,1,3.77,3.45h0.12v-15.6h8.18V197.1h-7.78v-4h-0.12ZM3351,177.81a9.27,9.27,0,0,0-1.18-3.12,6.8,6.8,0,0,0-2.16-2.19,6.13,6.13,0,0,0-3.34-.84,6.43,6.43,0,0,0-3.4.84,6.51,6.51,0,0,0-2.22,2.22,10.06,10.06,0,0,0-1.21,3.15,17.71,17.71,0,0,0-.37,3.69,16.44,16.44,0,0,0,.4,3.6,10,10,0,0,0,1.3,3.21,7.32,7.32,0,0,0,2.25,2.28,5.89,5.89,0,0,0,3.25.87,5.95,5.95,0,0,0,5.53-3.09,10.35,10.35,0,0,0,1.15-3.21,19.67,19.67,0,0,0,.35-3.72A19.22,19.22,0,0,0,3351,177.81Z" transform="translate(-3127.45 2.55)"/>
    <path d="M3387.88,166.08v5.7h-6v15.36a4.3,4.3,0,0,0,.69,2.88,3.89,3.89,0,0,0,2.76.72q0.69,0,1.33-.06a10.68,10.68,0,0,0,1.21-.18v6.6a18.89,18.89,0,0,1-2.3.24q-1.27.06-2.48,0.06a22.92,22.92,0,0,1-3.6-.27,8.26,8.26,0,0,1-3-1.05,5.46,5.46,0,0,1-2-2.22,8.21,8.21,0,0,1-.75-3.78v-18.3h-5v-5.7h5v-9.3h8.18v9.3h6Z" transform="translate(-3127.45 2.55)"/>
    <path d="M3395,154.26V170.4h0.17a9.64,9.64,0,0,1,4-3.93,10.39,10.39,0,0,1,4.72-1.23,13.41,13.41,0,0,1,5.39.93,8,8,0,0,1,3.31,2.58,10.19,10.19,0,0,1,1.7,4,26,26,0,0,1,.49,5.25V197.1h-8.18V179.58a11.25,11.25,0,0,0-1.15-5.73q-1.15-1.89-4.09-1.89-3.34,0-4.84,2.07t-1.5,6.81V197.1h-8.18V154.26H3395Z" transform="translate(-3127.45 2.55)"/>
    <path d="M3415.7,175.62a10.19,10.19,0,0,1,1.44-5,10,10,0,0,1,3.23-3.18,13.71,13.71,0,0,1,4.41-1.71,24.13,24.13,0,0,1,4.92-.51,32.18,32.18,0,0,1,4.55.33,13.52,13.52,0,0,1,4.2,1.29,8.38,8.38,0,0,1,3.11,2.67,7.7,7.7,0,0,1,1.21,4.53V190.2a33.59,33.59,0,0,0,.23,4,7.47,7.47,0,0,0,.81,2.88h-8.29a12.63,12.63,0,0,1-.37-1.47,12.87,12.87,0,0,1-.2-1.53,10.6,10.6,0,0,1-4.61,2.94,17.81,17.81,0,0,1-5.41.84,14.08,14.08,0,0,1-4-.54,9,9,0,0,1-3.23-1.68,7.77,7.77,0,0,1-2.16-2.88,10.08,10.08,0,0,1-.78-4.14,9.36,9.36,0,0,1,.89-4.35,7.68,7.68,0,0,1,2.3-2.73,10.15,10.15,0,0,1,3.23-1.53,33.54,33.54,0,0,1,3.66-.81q1.84-.3,3.63-0.48a21,21,0,0,0,3.17-.54,5.43,5.43,0,0,0,2.19-1,2.36,2.36,0,0,0,.75-2,4.68,4.68,0,0,0-.43-2.19,3.26,3.26,0,0,0-1.15-1.26,4.43,4.43,0,0,0-1.67-.6,13.25,13.25,0,0,0-2-.15,6,6,0,0,0-3.8,1.08,4.9,4.9,0,0,0-1.61,3.6h-8.18Zm18.89,6.3a3.63,3.63,0,0,1-1.3.75,12.76,12.76,0,0,1-1.67.45q-0.89.18-1.87,0.3t-2,.3a14.3,14.3,0,0,0-1.81.48,5.31,5.31,0,0,0-1.56.81,3.82,3.82,0,0,0-1.07,1.29,4.3,4.3,0,0,0-.4,2,4.15,4.15,0,0,0,.4,1.92,3.17,3.17,0,0,0,1.09,1.23,4.5,4.5,0,0,0,1.61.63,9.92,9.92,0,0,0,1.9.18,7,7,0,0,0,3.74-.84,5.51,5.51,0,0,0,2-2,6.61,6.61,0,0,0,.78-2.37,17,17,0,0,0,.14-1.92v-3.18Z" transform="translate(-3127.45 2.55)"/>
    <path d="M3460.51,166.08v5.7h-6v15.36a4.3,4.3,0,0,0,.69,2.88,3.89,3.89,0,0,0,2.76.72q0.69,0,1.33-.06a10.68,10.68,0,0,0,1.21-.18v6.6a18.89,18.89,0,0,1-2.3.24q-1.27.06-2.48,0.06a22.92,22.92,0,0,1-3.6-.27,8.26,8.26,0,0,1-3-1.05,5.46,5.46,0,0,1-2-2.22,8.21,8.21,0,0,1-.75-3.78v-18.3h-5v-5.7h5v-9.3h8.18v9.3h6Z" transform="translate(-3127.45 2.55)"/>
    <path d="M3477.42,189.39a4.91,4.91,0,0,0,1.41,1.62,5.93,5.93,0,0,0,2,.93,9,9,0,0,0,2.33.3A8.37,8.37,0,0,0,3485,192a6,6,0,0,0,1.73-.66,4,4,0,0,0,1.3-1.2,3.25,3.25,0,0,0,.52-1.89q0-1.92-2.45-2.88a47.48,47.48,0,0,0-6.83-1.92q-1.79-.42-3.48-1a11.67,11.67,0,0,1-3-1.5,7.16,7.16,0,0,1-2.13-2.34,6.84,6.84,0,0,1-.81-3.45,9.65,9.65,0,0,1,1.12-4.92,8.45,8.45,0,0,1,3-3,12.67,12.67,0,0,1,4.15-1.56,24.59,24.59,0,0,1,4.72-.45,22.7,22.7,0,0,1,4.69.48,12.16,12.16,0,0,1,4.06,1.62,9.52,9.52,0,0,1,3,3,10.5,10.5,0,0,1,1.41,4.77h-7.78a3.76,3.76,0,0,0-1.79-3.33,7.9,7.9,0,0,0-3.8-.87,13.53,13.53,0,0,0-1.5.09,4.83,4.83,0,0,0-1.47.39,3,3,0,0,0-1.12.87,2.64,2.64,0,0,0,.35,3.39,6.14,6.14,0,0,0,2.1,1.17,25.42,25.42,0,0,0,3,.81q1.67,0.36,3.4.78a33.76,33.76,0,0,1,3.48,1,11.31,11.31,0,0,1,3,1.59,7.61,7.61,0,0,1,2.13,2.46,7.47,7.47,0,0,1,.81,3.63,10.23,10.23,0,0,1-1.18,5.13,9.69,9.69,0,0,1-3.08,3.33,12.32,12.32,0,0,1-4.35,1.77,24.38,24.38,0,0,1-5,.51,23.72,23.72,0,0,1-5.07-.54,13.05,13.05,0,0,1-4.41-1.8,10.09,10.09,0,0,1-3.17-3.33,10.76,10.76,0,0,1-1.35-5.19h7.78A4.82,4.82,0,0,0,3477.42,189.39Z" transform="translate(-3127.45 2.55)"/>
    <path d="M3505.27,189.66a8.11,8.11,0,0,0,9.56.57,5.32,5.32,0,0,0,2.19-2.73h7.2q-1.73,5.58-5.3,8a15.13,15.13,0,0,1-8.64,2.4,16.4,16.4,0,0,1-6.34-1.17,13.14,13.14,0,0,1-4.78-3.33,15.11,15.11,0,0,1-3-5.16,19.58,19.58,0,0,1-1.07-6.6,18.75,18.75,0,0,1,1.09-6.48,15.3,15.3,0,0,1,3.11-5.19,14.63,14.63,0,0,1,4.81-3.45,14.88,14.88,0,0,1,6.19-1.26,13.69,13.69,0,0,1,6.62,1.53,13.39,13.39,0,0,1,4.64,4.11,17.24,17.24,0,0,1,2.62,5.88,22.78,22.78,0,0,1,.58,6.9h-21.48Q3503.42,187.8,3505.27,189.66Zm9.25-16.32a5.62,5.62,0,0,0-4.46-1.68,6.88,6.88,0,0,0-3.25.69,6.25,6.25,0,0,0-2.07,1.71,6.36,6.36,0,0,0-1.09,2.16,10.07,10.07,0,0,0-.37,2h13.31A10.06,10.06,0,0,0,3514.51,173.34Z" transform="translate(-3127.45 2.55)"/>
    <path d="M3533,154.26V197.1h-8.18V154.26H3533Z" transform="translate(-3127.45 2.55)"/>
    <path d="M3542.94,154.26V197.1h-8.18V154.26h8.18Z" transform="translate(-3127.45 2.55)"/>
    <path d="M3551.32,189.39a4.91,4.91,0,0,0,1.41,1.62,5.93,5.93,0,0,0,2,.93,9,9,0,0,0,2.33.3,8.37,8.37,0,0,0,1.81-.21,6,6,0,0,0,1.73-.66,4,4,0,0,0,1.3-1.2,3.25,3.25,0,0,0,.52-1.89q0-1.92-2.45-2.88a47.49,47.49,0,0,0-6.83-1.92q-1.79-.42-3.49-1a11.67,11.67,0,0,1-3-1.5,7.16,7.16,0,0,1-2.13-2.34,6.84,6.84,0,0,1-.81-3.45,9.65,9.65,0,0,1,1.12-4.92,8.44,8.44,0,0,1,3-3,12.68,12.68,0,0,1,4.15-1.56,24.59,24.59,0,0,1,4.72-.45,22.7,22.7,0,0,1,4.69.48,12.16,12.16,0,0,1,4.06,1.62,9.53,9.53,0,0,1,3,3,10.49,10.49,0,0,1,1.41,4.77H3562a3.76,3.76,0,0,0-1.79-3.33,7.89,7.89,0,0,0-3.8-.87,13.54,13.54,0,0,0-1.5.09,4.84,4.84,0,0,0-1.47.39,3,3,0,0,0-1.12.87,2.64,2.64,0,0,0,.35,3.39,6.14,6.14,0,0,0,2.1,1.17,25.35,25.35,0,0,0,3,.81q1.67,0.36,3.4.78a33.77,33.77,0,0,1,3.49,1,11.32,11.32,0,0,1,3,1.59,7.62,7.62,0,0,1,2.13,2.46,7.47,7.47,0,0,1,.81,3.63,10.22,10.22,0,0,1-1.18,5.13,9.68,9.68,0,0,1-3.08,3.33,12.33,12.33,0,0,1-4.35,1.77,24.38,24.38,0,0,1-5,.51,23.73,23.73,0,0,1-5.07-.54,13.06,13.06,0,0,1-4.41-1.8,10.09,10.09,0,0,1-3.17-3.33A10.75,10.75,0,0,1,3543,187h7.78A4.82,4.82,0,0,0,3551.32,189.39Z" transform="translate(-3127.45 2.55)"/>
    <path d="M3139.28,230.87a14.61,14.61,0,0,1,3.11-5.16,13.91,13.91,0,0,1,4.84-3.3,16.4,16.4,0,0,1,6.34-1.17,16.63,16.63,0,0,1,6.37,1.17,13.86,13.86,0,0,1,4.87,3.3,14.64,14.64,0,0,1,3.11,5.16,19.79,19.79,0,0,1,1.09,6.75,19.52,19.52,0,0,1-1.09,6.72,14.66,14.66,0,0,1-3.11,5.13,13.51,13.51,0,0,1-4.87,3.27,17,17,0,0,1-6.37,1.14,16.79,16.79,0,0,1-6.34-1.14,13.54,13.54,0,0,1-4.84-3.27,14.63,14.63,0,0,1-3.11-5.13,19.48,19.48,0,0,1-1.09-6.72A19.74,19.74,0,0,1,3139.28,230.87Zm7.43,10.38a9.88,9.88,0,0,0,1.18,3.18,6.4,6.4,0,0,0,2.22,2.25,6.54,6.54,0,0,0,3.46.84,6.7,6.7,0,0,0,3.49-.84,6.33,6.33,0,0,0,2.25-2.25,9.91,9.91,0,0,0,1.18-3.18,18.89,18.89,0,0,0,.35-3.63,19.36,19.36,0,0,0-.35-3.66,9.58,9.58,0,0,0-1.18-3.18,6.68,6.68,0,0,0-2.25-2.25,6.54,6.54,0,0,0-3.49-.87,6.38,6.38,0,0,0-3.46.87,6.76,6.76,0,0,0-2.22,2.25,9.56,9.56,0,0,0-1.18,3.18,19.44,19.44,0,0,0-.34,3.66A19,19,0,0,0,3146.71,241.25Z" transform="translate(-3127.45 2.55)"/>
    <path d="M3177.13,222.08v4.32h0.17a9.55,9.55,0,0,1,4-3.93,11.28,11.28,0,0,1,5.07-1.23,13.41,13.41,0,0,1,5.39.93,8,8,0,0,1,3.31,2.58,10.19,10.19,0,0,1,1.7,4,26,26,0,0,1,.49,5.25V253.1h-8.18V235.58a11.25,11.25,0,0,0-1.15-5.73q-1.15-1.89-4.09-1.89-3.34,0-4.84,2.07t-1.5,6.81V253.1h-8.18v-31h7.78Z" transform="translate(-3127.45 2.55)"/>
    <path d="M3207,210.26V253.1h-8.18V210.26H3207Z" transform="translate(-3127.45 2.55)"/>
    <path d="M3219.46,262.34a11.49,11.49,0,0,1-6.57,1.62q-1.27,0-2.51-.09l-2.51-.21v-7l2.36,0.24a16.48,16.48,0,0,0,2.42.06,3.15,3.15,0,0,0,2.39-1.32,4.37,4.37,0,0,0,.78-2.52,5.31,5.31,0,0,0-.35-1.92l-10.43-29.1h8.7l6.74,21.24h0.12l6.51-21.24h8.47l-12.44,34.86A10.49,10.49,0,0,1,3219.46,262.34Z" transform="translate(-3127.45 2.55)"/>
    <path d="M3251.34,245.39a4.91,4.91,0,0,0,1.41,1.62,5.93,5.93,0,0,0,2,.93,9,9,0,0,0,2.33.3,8.37,8.37,0,0,0,1.81-.21,6,6,0,0,0,1.73-.66,4,4,0,0,0,1.3-1.2,3.25,3.25,0,0,0,.52-1.89q0-1.92-2.45-2.88a47.48,47.48,0,0,0-6.83-1.92q-1.79-.42-3.48-1a11.67,11.67,0,0,1-3-1.5,7.16,7.16,0,0,1-2.13-2.34,6.84,6.84,0,0,1-.81-3.45,9.65,9.65,0,0,1,1.12-4.92,8.45,8.45,0,0,1,3-3,12.67,12.67,0,0,1,4.15-1.56,24.59,24.59,0,0,1,4.72-.45,22.7,22.7,0,0,1,4.69.48,12.16,12.16,0,0,1,4.06,1.62,9.52,9.52,0,0,1,3,3,10.5,10.5,0,0,1,1.41,4.77H3262a3.76,3.76,0,0,0-1.79-3.33,7.9,7.9,0,0,0-3.8-.87,13.53,13.53,0,0,0-1.5.09,4.83,4.83,0,0,0-1.47.39,3,3,0,0,0-1.12.87,2.64,2.64,0,0,0,.35,3.39,6.14,6.14,0,0,0,2.1,1.17,25.42,25.42,0,0,0,3,.81q1.67,0.36,3.4.78a33.76,33.76,0,0,1,3.48,1,11.31,11.31,0,0,1,3,1.59,7.61,7.61,0,0,1,2.13,2.46,7.47,7.47,0,0,1,.81,3.63,10.23,10.23,0,0,1-1.18,5.13,9.69,9.69,0,0,1-3.08,3.33,12.32,12.32,0,0,1-4.35,1.77,24.38,24.38,0,0,1-5,.51,23.72,23.72,0,0,1-5.07-.54,13.05,13.05,0,0,1-4.41-1.8,10.09,10.09,0,0,1-3.17-3.33A10.76,10.76,0,0,1,3243,243h7.78A4.82,4.82,0,0,0,3251.34,245.39Z" transform="translate(-3127.45 2.55)"/>
    <path d="M3286.79,222.08v5.7h-6v15.36a4.3,4.3,0,0,0,.69,2.88,3.89,3.89,0,0,0,2.76.72q0.69,0,1.33-.06a10.68,10.68,0,0,0,1.21-.18v6.6a18.89,18.89,0,0,1-2.3.24q-1.27.06-2.48,0.06a22.92,22.92,0,0,1-3.6-.27,8.26,8.26,0,0,1-3-1.05,5.46,5.46,0,0,1-2-2.22,8.21,8.21,0,0,1-.75-3.78v-18.3h-5v-5.7h5v-9.3h8.18v9.3h6Z" transform="translate(-3127.45 2.55)"/>
    <path d="M3293.53,222.08v5.76h0.12a10.55,10.55,0,0,1,1.56-2.67,10.35,10.35,0,0,1,2.25-2.1,10.85,10.85,0,0,1,2.71-1.35,9.42,9.42,0,0,1,3-.48,6.17,6.17,0,0,1,1.79.3v7.92c-0.38-.08-0.84-0.15-1.38-0.21a14,14,0,0,0-1.55-.09,8.42,8.42,0,0,0-3.8.78,6.65,6.65,0,0,0-2.51,2.13,8.71,8.71,0,0,0-1.35,3.15,17.85,17.85,0,0,0-.4,3.9v14h-8.18v-31h7.78Z" transform="translate(-3127.45 2.55)"/>
    <path d="M3303.44,217.28v-7h8.18v7h-8.18Zm8.18,4.8v31h-8.18v-31h8.18Z" transform="translate(-3127.45 2.55)"/>
    <path d="M3320.89,222.08v4H3321a9.15,9.15,0,0,1,3.8-3.66,11.28,11.28,0,0,1,5.07-1.14,12.48,12.48,0,0,1,6,1.38,12.65,12.65,0,0,1,4.21,3.66,15.75,15.75,0,0,1,2.48,5.31,24.53,24.53,0,0,1,.81,6.33,22.17,22.17,0,0,1-.81,6,15.53,15.53,0,0,1-2.45,5.1,12.26,12.26,0,0,1-4.09,3.54,11.91,11.91,0,0,1-5.73,1.32,11.21,11.21,0,0,1-5.1-1.17,9.77,9.77,0,0,1-3.83-3.45h-0.12V264h-8.18V222.08h7.78Zm10.63,24.6a6.68,6.68,0,0,0,2.19-2.19,9.25,9.25,0,0,0,1.18-3.15,19.35,19.35,0,0,0,.35-3.66,18,18,0,0,0-.37-3.66,10,10,0,0,0-1.24-3.21,7.06,7.06,0,0,0-2.22-2.28,6,6,0,0,0-3.31-.87,6.11,6.11,0,0,0-3.37.87,6.86,6.86,0,0,0-2.19,2.25,9.58,9.58,0,0,0-1.18,3.18,19.68,19.68,0,0,0-.35,3.72,17.89,17.89,0,0,0,.38,3.66,9.68,9.68,0,0,0,1.21,3.15,6.59,6.59,0,0,0,2.22,2.19A7.12,7.12,0,0,0,3331.52,246.68Z" transform="translate(-3127.45 2.55)"/>
    <path d="M3352.11,245.66a8.11,8.11,0,0,0,9.56.57,5.32,5.32,0,0,0,2.19-2.73h7.2q-1.73,5.58-5.3,8a15.13,15.13,0,0,1-8.64,2.4,16.4,16.4,0,0,1-6.34-1.17,13.16,13.16,0,0,1-4.78-3.33,15.09,15.09,0,0,1-3-5.16,19.58,19.58,0,0,1-1.07-6.6,18.77,18.77,0,0,1,1.09-6.48,15.33,15.33,0,0,1,3.11-5.19,14.64,14.64,0,0,1,4.81-3.45,14.89,14.89,0,0,1,6.19-1.26,13.69,13.69,0,0,1,6.62,1.53,13.38,13.38,0,0,1,4.64,4.11,17.23,17.23,0,0,1,2.62,5.88,22.84,22.84,0,0,1,.58,6.9H3350.1Q3350.27,243.8,3352.11,245.66Zm9.24-16.32a5.62,5.62,0,0,0-4.46-1.68,6.88,6.88,0,0,0-3.25.69,6.25,6.25,0,0,0-2.07,1.71,6.34,6.34,0,0,0-1.09,2.16,10.08,10.08,0,0,0-.37,2h13.31A10,10,0,0,0,3361.36,229.34Z" transform="translate(-3127.45 2.55)"/>
    <path d="M3392.6,249.14a8.58,8.58,0,0,1-3.77,3.63,12.13,12.13,0,0,1-5.27,1.11,12.31,12.31,0,0,1-5.87-1.35,11.91,11.91,0,0,1-4.18-3.66,16.88,16.88,0,0,1-2.48-5.31,23.17,23.17,0,0,1-.83-6.24,21.77,21.77,0,0,1,.83-6,15.93,15.93,0,0,1,2.48-5.13,12.48,12.48,0,0,1,4.12-3.57,11.85,11.85,0,0,1,5.76-1.35,11.33,11.33,0,0,1,5,1.17,8.91,8.91,0,0,1,3.77,3.45h0.12v-15.6h8.18V253.1h-7.78v-4h-0.12Zm-0.35-15.33a9.23,9.23,0,0,0-1.18-3.12,6.78,6.78,0,0,0-2.16-2.19,6.13,6.13,0,0,0-3.34-.84,6.43,6.43,0,0,0-3.4.84,6.5,6.5,0,0,0-2.22,2.22,10,10,0,0,0-1.21,3.15,17.77,17.77,0,0,0-.37,3.69,16.38,16.38,0,0,0,.4,3.6,10,10,0,0,0,1.3,3.21,7.32,7.32,0,0,0,2.25,2.28,5.89,5.89,0,0,0,3.25.87,5.95,5.95,0,0,0,5.53-3.09,10.32,10.32,0,0,0,1.15-3.21,19.67,19.67,0,0,0,.35-3.72A19.22,19.22,0,0,0,3392.26,233.81Z" transform="translate(-3127.45 2.55)"/>
    <path d="M3410.4,218.18v-7.92h33.7v7.92h-12.33V253.1h-9V218.18H3410.4Z" transform="translate(-3127.45 2.55)"/>
    <path d="M3452.85,233.06v7.32h-17.34v-7.32h17.34Z" transform="translate(-3127.45 2.55)"/>
    <path d="M3461.84,242.54a6.74,6.74,0,0,0,2,2.43,8.43,8.43,0,0,0,2.91,1.38,13.23,13.23,0,0,0,3.46.45,17.22,17.22,0,0,0,2.59-.21,8.72,8.72,0,0,0,2.59-.81,5.69,5.69,0,0,0,2-1.65,4.26,4.26,0,0,0,.81-2.67,3.84,3.84,0,0,0-1.07-2.82,8.41,8.41,0,0,0-2.79-1.8,27.14,27.14,0,0,0-3.92-1.26q-2.19-.54-4.44-1.2a37.94,37.94,0,0,1-4.49-1.47,15.19,15.19,0,0,1-3.92-2.25,10.48,10.48,0,0,1-2.79-3.45,10.83,10.83,0,0,1-1.07-5,11.59,11.59,0,0,1,1.35-5.73,12.6,12.6,0,0,1,3.54-4,15.16,15.16,0,0,1,5-2.4,20.3,20.3,0,0,1,5.53-.78,25.2,25.2,0,0,1,6.19.75,15.17,15.17,0,0,1,5.27,2.43,12.15,12.15,0,0,1,3.66,4.29,13.61,13.61,0,0,1,1.35,6.33h-8.75a7.85,7.85,0,0,0-.78-3.18,5.24,5.24,0,0,0-1.76-2,7.28,7.28,0,0,0-2.51-1,14.86,14.86,0,0,0-3.08-.3,10.23,10.23,0,0,0-2.19.24,5.75,5.75,0,0,0-2,.84,5.09,5.09,0,0,0-1.47,1.5,4.16,4.16,0,0,0-.58,2.28,4,4,0,0,0,.46,2,4.14,4.14,0,0,0,1.81,1.44,22.43,22.43,0,0,0,3.74,1.32q2.39,0.66,6.25,1.68,1.15,0.24,3.2.87a15.08,15.08,0,0,1,4.06,2,12.57,12.57,0,0,1,3.49,3.69,10.85,10.85,0,0,1,1.47,5.91,13.56,13.56,0,0,1-1.09,5.46,11.81,11.81,0,0,1-3.25,4.35,15.42,15.42,0,0,1-5.36,2.85,24.38,24.38,0,0,1-7.4,1,25,25,0,0,1-6.6-.87,16.28,16.28,0,0,1-5.64-2.73,13.33,13.33,0,0,1-3.89-4.74,14.65,14.65,0,0,1-1.38-6.84h8.76A8.13,8.13,0,0,0,3461.84,242.54Z" transform="translate(-3127.45 2.55)"/>
    <path d="M3494.67,210.26V226.4h0.17a9.64,9.64,0,0,1,4-3.93,10.39,10.39,0,0,1,4.72-1.23,13.41,13.41,0,0,1,5.39.93,8,8,0,0,1,3.31,2.58,10.19,10.19,0,0,1,1.7,4,26,26,0,0,1,.49,5.25V253.1h-8.18V235.58a11.25,11.25,0,0,0-1.15-5.73Q3503.94,228,3501,228q-3.34,0-4.84,2.07t-1.5,6.81V253.1h-8.18V210.26h8.18Z" transform="translate(-3127.45 2.55)"/>
    <path d="M3515.92,217.28v-7h8.18v7h-8.18Zm8.18,4.8v31h-8.18v-31h8.18Z" transform="translate(-3127.45 2.55)"/>
    <path d="M3533.38,222.08v5.76h0.12a10.52,10.52,0,0,1,1.55-2.67,10.36,10.36,0,0,1,2.25-2.1,10.83,10.83,0,0,1,2.71-1.35,9.41,9.41,0,0,1,3-.48,6.17,6.17,0,0,1,1.79.3v7.92q-0.58-.12-1.38-0.21a14,14,0,0,0-1.56-.09,8.42,8.42,0,0,0-3.8.78,6.66,6.66,0,0,0-2.5,2.13,8.69,8.69,0,0,0-1.35,3.15,17.79,17.79,0,0,0-.4,3.9v14h-8.18v-31h7.78Z" transform="translate(-3127.45 2.55)"/>
    <path d="M3559.41,222.08v5.7h-6v15.36a4.3,4.3,0,0,0,.69,2.88,3.89,3.89,0,0,0,2.76.72q0.69,0,1.33-.06a10.68,10.68,0,0,0,1.21-.18v6.6a18.89,18.89,0,0,1-2.3.24q-1.27.06-2.48,0.06a22.92,22.92,0,0,1-3.6-.27,8.26,8.26,0,0,1-3-1.05,5.46,5.46,0,0,1-2-2.22,8.21,8.21,0,0,1-.75-3.78v-18.3h-5v-5.7h5v-9.3h8.18v9.3h6Z" transform="translate(-3127.45 2.55)"/>
    <path d="M3565.26,245.39a4.91,4.91,0,0,0,1.41,1.62,5.93,5.93,0,0,0,2,.93,9,9,0,0,0,2.33.3,8.37,8.37,0,0,0,1.81-.21,6,6,0,0,0,1.73-.66,4,4,0,0,0,1.3-1.2,3.25,3.25,0,0,0,.52-1.89q0-1.92-2.45-2.88a47.49,47.49,0,0,0-6.83-1.92q-1.79-.42-3.49-1a11.67,11.67,0,0,1-3-1.5,7.16,7.16,0,0,1-2.13-2.34,6.84,6.84,0,0,1-.81-3.45,9.65,9.65,0,0,1,1.12-4.92,8.44,8.44,0,0,1,3-3,12.68,12.68,0,0,1,4.15-1.56,24.59,24.59,0,0,1,4.72-.45,22.7,22.7,0,0,1,4.69.48,12.16,12.16,0,0,1,4.06,1.62,9.53,9.53,0,0,1,3,3,10.49,10.49,0,0,1,1.41,4.77h-7.78a3.76,3.76,0,0,0-1.79-3.33,7.89,7.89,0,0,0-3.8-.87,13.54,13.54,0,0,0-1.5.09,4.84,4.84,0,0,0-1.47.39,3,3,0,0,0-1.12.87,2.64,2.64,0,0,0,.35,3.39,6.14,6.14,0,0,0,2.1,1.17,25.35,25.35,0,0,0,3,.81q1.67,0.36,3.4.78a33.77,33.77,0,0,1,3.49,1,11.32,11.32,0,0,1,3,1.59,7.62,7.62,0,0,1,2.13,2.46,7.47,7.47,0,0,1,.81,3.63,10.22,10.22,0,0,1-1.18,5.13,9.68,9.68,0,0,1-3.08,3.33,12.33,12.33,0,0,1-4.35,1.77,24.38,24.38,0,0,1-5,.51,23.73,23.73,0,0,1-5.07-.54,13.06,13.06,0,0,1-4.41-1.8,10.09,10.09,0,0,1-3.17-3.33,10.75,10.75,0,0,1-1.35-5.19h7.78A4.82,4.82,0,0,0,3565.26,245.39Z" transform="translate(-3127.45 2.55)"/>
    <path d="M3148.67,278.47a65.28,65.28,0,0,0-1.5,14,67.58,67.58,0,0,0,1.47,14.1A55.77,55.77,0,0,0,3153.4,320h-6.8a57,57,0,0,1-5.62-13,49.63,49.63,0,0,1-2-13.92,53.7,53.7,0,0,1,.49-7.05,61.24,61.24,0,0,1,1.44-7.35,54.33,54.33,0,0,1,2.36-7.08,37,37,0,0,1,3.31-6.3h6.85A53.64,53.64,0,0,0,3148.67,278.47Z" transform="translate(-3127.45 2.55)"/>
    <path d="M3150.86,287.62a10.19,10.19,0,0,1,1.44-5,10,10,0,0,1,3.23-3.18,13.71,13.71,0,0,1,4.41-1.71,24.13,24.13,0,0,1,4.92-.51,32.18,32.18,0,0,1,4.55.33,13.52,13.52,0,0,1,4.2,1.29,8.38,8.38,0,0,1,3.11,2.67,7.7,7.7,0,0,1,1.21,4.53V302.2a33.59,33.59,0,0,0,.23,4,7.47,7.47,0,0,0,.81,2.88h-8.29a12.63,12.63,0,0,1-.37-1.47,12.87,12.87,0,0,1-.2-1.53,10.6,10.6,0,0,1-4.61,2.94,17.81,17.81,0,0,1-5.41.84,14.08,14.08,0,0,1-4-.54,9,9,0,0,1-3.23-1.68,7.77,7.77,0,0,1-2.16-2.88,10.08,10.08,0,0,1-.78-4.14,9.36,9.36,0,0,1,.89-4.35,7.68,7.68,0,0,1,2.3-2.73,10.15,10.15,0,0,1,3.23-1.53,33.54,33.54,0,0,1,3.66-.81q1.84-.3,3.63-0.48a21,21,0,0,0,3.17-.54,5.43,5.43,0,0,0,2.19-1,2.36,2.36,0,0,0,.75-2,4.68,4.68,0,0,0-.43-2.19,3.26,3.26,0,0,0-1.15-1.26,4.43,4.43,0,0,0-1.67-.6,13.25,13.25,0,0,0-2-.15,6,6,0,0,0-3.8,1.08,4.9,4.9,0,0,0-1.61,3.6h-8.18Zm18.89,6.3a3.63,3.63,0,0,1-1.3.75,12.76,12.76,0,0,1-1.67.45q-0.89.18-1.87,0.3t-2,.3a14.3,14.3,0,0,0-1.81.48,5.31,5.31,0,0,0-1.56.81,3.82,3.82,0,0,0-1.07,1.29,4.3,4.3,0,0,0-.4,2,4.15,4.15,0,0,0,.4,1.92,3.17,3.17,0,0,0,1.09,1.23,4.5,4.5,0,0,0,1.61.63,9.92,9.92,0,0,0,1.9.18,7,7,0,0,0,3.74-.84,5.51,5.51,0,0,0,2-2,6.61,6.61,0,0,0,.78-2.37,17,17,0,0,0,.14-1.92v-3.18Z" transform="translate(-3127.45 2.55)"/>
    <path d="M3187.09,278.08v4.32h0.17a9.55,9.55,0,0,1,4-3.93,11.28,11.28,0,0,1,5.07-1.23,13.41,13.41,0,0,1,5.39.93,8,8,0,0,1,3.31,2.58,10.19,10.19,0,0,1,1.7,4,26,26,0,0,1,.49,5.25V309.1h-8.18V291.58a11.25,11.25,0,0,0-1.15-5.73q-1.15-1.89-4.09-1.89-3.34,0-4.84,2.07t-1.5,6.81V309.1h-8.18v-31h7.78Z" transform="translate(-3127.45 2.55)"/>
    <path d="M3229.66,305.14a8.58,8.58,0,0,1-3.77,3.63,12.13,12.13,0,0,1-5.27,1.11,12.31,12.31,0,0,1-5.87-1.35,11.91,11.91,0,0,1-4.18-3.66,16.88,16.88,0,0,1-2.48-5.31,23.17,23.17,0,0,1-.83-6.24,21.77,21.77,0,0,1,.83-6,15.93,15.93,0,0,1,2.48-5.13,12.48,12.48,0,0,1,4.12-3.57,11.85,11.85,0,0,1,5.76-1.35,11.33,11.33,0,0,1,5,1.17,8.91,8.91,0,0,1,3.77,3.45h0.12v-15.6h8.18V309.1h-7.78v-4h-0.12Zm-0.35-15.33a9.23,9.23,0,0,0-1.18-3.12,6.78,6.78,0,0,0-2.16-2.19,6.13,6.13,0,0,0-3.34-.84,6.43,6.43,0,0,0-3.4.84,6.5,6.5,0,0,0-2.22,2.22,10,10,0,0,0-1.21,3.15,17.77,17.77,0,0,0-.37,3.69,16.38,16.38,0,0,0,.4,3.6,10,10,0,0,0,1.3,3.21,7.32,7.32,0,0,0,2.25,2.28,5.89,5.89,0,0,0,3.25.87,5.95,5.95,0,0,0,5.53-3.09,10.32,10.32,0,0,0,1.15-3.21,19.67,19.67,0,0,0,.35-3.72A19.22,19.22,0,0,0,3229.31,289.81Z" transform="translate(-3127.45 2.55)"/>
    <path d="M3256.7,301.39a4.91,4.91,0,0,0,1.41,1.62,5.93,5.93,0,0,0,2,.93,9,9,0,0,0,2.33.3,8.37,8.37,0,0,0,1.81-.21,6,6,0,0,0,1.73-.66,4,4,0,0,0,1.3-1.2,3.25,3.25,0,0,0,.52-1.89q0-1.92-2.45-2.88a47.48,47.48,0,0,0-6.83-1.92q-1.79-.42-3.48-1a11.67,11.67,0,0,1-3-1.5,7.16,7.16,0,0,1-2.13-2.34,6.84,6.84,0,0,1-.81-3.45,9.65,9.65,0,0,1,1.12-4.92,8.45,8.45,0,0,1,3-3,12.67,12.67,0,0,1,4.15-1.56,24.59,24.59,0,0,1,4.72-.45,22.7,22.7,0,0,1,4.69.48,12.16,12.16,0,0,1,4.06,1.62,9.52,9.52,0,0,1,3,3,10.5,10.5,0,0,1,1.41,4.77h-7.78a3.76,3.76,0,0,0-1.79-3.33,7.9,7.9,0,0,0-3.8-.87,13.53,13.53,0,0,0-1.5.09,4.83,4.83,0,0,0-1.47.39,3,3,0,0,0-1.12.87,2.64,2.64,0,0,0,.35,3.39,6.14,6.14,0,0,0,2.1,1.17,25.42,25.42,0,0,0,3,.81q1.67,0.36,3.4.78a33.76,33.76,0,0,1,3.48,1,11.31,11.31,0,0,1,3,1.59,7.61,7.61,0,0,1,2.13,2.46,7.47,7.47,0,0,1,.81,3.63,10.23,10.23,0,0,1-1.18,5.13,9.69,9.69,0,0,1-3.08,3.33,12.32,12.32,0,0,1-4.35,1.77,24.38,24.38,0,0,1-5,.51,23.72,23.72,0,0,1-5.07-.54,13.05,13.05,0,0,1-4.41-1.8,10.09,10.09,0,0,1-3.17-3.33,10.76,10.76,0,0,1-1.35-5.19h7.78A4.82,4.82,0,0,0,3256.7,301.39Z" transform="translate(-3127.45 2.55)"/>
    <path d="M3276,286.87a14.61,14.61,0,0,1,3.11-5.16,13.91,13.91,0,0,1,4.84-3.3,16.4,16.4,0,0,1,6.34-1.17,16.63,16.63,0,0,1,6.37,1.17,13.86,13.86,0,0,1,4.87,3.3,14.64,14.64,0,0,1,3.11,5.16,19.79,19.79,0,0,1,1.09,6.75,19.52,19.52,0,0,1-1.09,6.72,14.66,14.66,0,0,1-3.11,5.13,13.51,13.51,0,0,1-4.87,3.27,17,17,0,0,1-6.37,1.14,16.79,16.79,0,0,1-6.34-1.14,13.54,13.54,0,0,1-4.84-3.27,14.63,14.63,0,0,1-3.11-5.13,19.48,19.48,0,0,1-1.09-6.72A19.74,19.74,0,0,1,3276,286.87Zm7.43,10.38a9.88,9.88,0,0,0,1.18,3.18,6.4,6.4,0,0,0,2.22,2.25,6.54,6.54,0,0,0,3.46.84,6.7,6.7,0,0,0,3.49-.84,6.33,6.33,0,0,0,2.25-2.25,9.91,9.91,0,0,0,1.18-3.18,18.89,18.89,0,0,0,.35-3.63,19.36,19.36,0,0,0-.35-3.66,9.58,9.58,0,0,0-1.18-3.18,6.68,6.68,0,0,0-2.25-2.25,6.54,6.54,0,0,0-3.49-.87,6.38,6.38,0,0,0-3.46.87,6.76,6.76,0,0,0-2.22,2.25,9.56,9.56,0,0,0-1.18,3.18,19.44,19.44,0,0,0-.34,3.66A19,19,0,0,0,3283.4,297.25Z" transform="translate(-3127.45 2.55)"/>
    <path d="M3320.26,283.66a5.58,5.58,0,0,0-3.28.93,7.28,7.28,0,0,0-2.16,2.4,10.65,10.65,0,0,0-1.18,3.24,18.28,18.28,0,0,0-.35,3.51,17.52,17.52,0,0,0,.35,3.42,10.85,10.85,0,0,0,1.12,3.15,6.61,6.61,0,0,0,2.1,2.31,5.6,5.6,0,0,0,3.23.9,5.86,5.86,0,0,0,4.52-1.71,8.25,8.25,0,0,0,2-4.59h7.89q-0.81,6.18-4.61,9.42a14.48,14.48,0,0,1-9.73,3.24,15.73,15.73,0,0,1-6.13-1.17,13.57,13.57,0,0,1-4.75-3.27,15,15,0,0,1-3.05-5,18,18,0,0,1-1.09-6.39,21.43,21.43,0,0,1,1-6.69,15.19,15.19,0,0,1,3-5.34,13.59,13.59,0,0,1,4.78-3.51,15.67,15.67,0,0,1,6.45-1.26,18,18,0,0,1,5.1.72,13.4,13.4,0,0,1,4.38,2.19,11.59,11.59,0,0,1,3.14,3.66,12,12,0,0,1,1.38,5.19h-8Q3325.5,283.66,3320.26,283.66Z" transform="translate(-3127.45 2.55)"/>
    <path d="M3343.07,266.26v23l10.31-11.16h9.68l-11.23,11.4,12.5,19.62h-9.91l-8.18-13.86-3.17,3.18V309.1h-8.18V266.26h8.18Z" transform="translate(-3127.45 2.55)"/>
    <path d="M3369.13,301.39a4.91,4.91,0,0,0,1.41,1.62,5.93,5.93,0,0,0,2,.93,9,9,0,0,0,2.33.3,8.37,8.37,0,0,0,1.81-.21,6,6,0,0,0,1.73-.66,4,4,0,0,0,1.3-1.2,3.25,3.25,0,0,0,.52-1.89q0-1.92-2.45-2.88a47.48,47.48,0,0,0-6.83-1.92q-1.79-.42-3.48-1a11.67,11.67,0,0,1-3-1.5,7.16,7.16,0,0,1-2.13-2.34,6.84,6.84,0,0,1-.81-3.45,9.65,9.65,0,0,1,1.12-4.92,8.45,8.45,0,0,1,3-3,12.67,12.67,0,0,1,4.15-1.56,24.59,24.59,0,0,1,4.72-.45,22.7,22.7,0,0,1,4.69.48,12.16,12.16,0,0,1,4.06,1.62,9.52,9.52,0,0,1,3,3,10.5,10.5,0,0,1,1.41,4.77h-7.78a3.76,3.76,0,0,0-1.79-3.33,7.9,7.9,0,0,0-3.8-.87,13.53,13.53,0,0,0-1.5.09,4.83,4.83,0,0,0-1.47.39,3,3,0,0,0-1.12.87,2.64,2.64,0,0,0,.35,3.39,6.14,6.14,0,0,0,2.1,1.17,25.42,25.42,0,0,0,3,.81q1.67,0.36,3.4.78a33.76,33.76,0,0,1,3.48,1,11.31,11.31,0,0,1,3,1.59,7.61,7.61,0,0,1,2.13,2.46,7.47,7.47,0,0,1,.81,3.63,10.23,10.23,0,0,1-1.18,5.13,9.69,9.69,0,0,1-3.08,3.33,12.32,12.32,0,0,1-4.35,1.77,24.38,24.38,0,0,1-5,.51,23.72,23.72,0,0,1-5.07-.54,13.05,13.05,0,0,1-4.41-1.8,10.09,10.09,0,0,1-3.17-3.33,10.76,10.76,0,0,1-1.35-5.19h7.78A4.82,4.82,0,0,0,3369.13,301.39Z" transform="translate(-3127.45 2.55)"/>
    <path d="M3389.46,306.79A63.3,63.3,0,0,0,3391,292.9a67.15,67.15,0,0,0-1.5-14.16,59.74,59.74,0,0,0-4.67-13.5h6.74a56.74,56.74,0,0,1,5.62,13.08,50.27,50.27,0,0,1,2,14,58,58,0,0,1-1.87,14.37,52.24,52.24,0,0,1-2.39,7,36.4,36.4,0,0,1-3.34,6.24h-6.8A57.85,57.85,0,0,0,3389.46,306.79Z" transform="translate(-3127.45 2.55)"/>
    <path d="M3427.74,278.08v5.7h-6v15.36a4.3,4.3,0,0,0,.69,2.88,3.89,3.89,0,0,0,2.76.72q0.69,0,1.33-.06a10.68,10.68,0,0,0,1.21-.18v6.6a18.89,18.89,0,0,1-2.3.24q-1.27.06-2.48,0.06a22.92,22.92,0,0,1-3.6-.27,8.26,8.26,0,0,1-3-1.05,5.46,5.46,0,0,1-2-2.22,8.21,8.21,0,0,1-.75-3.78v-18.3h-5v-5.7h5v-9.3h8.18v9.3h6Z" transform="translate(-3127.45 2.55)"/>
    <path d="M3434.88,266.26V282.4h0.17a9.64,9.64,0,0,1,4-3.93,10.39,10.39,0,0,1,4.72-1.23,13.41,13.41,0,0,1,5.39.93,8,8,0,0,1,3.31,2.58,10.19,10.19,0,0,1,1.7,4,26,26,0,0,1,.49,5.25V309.1h-8.18V291.58a11.25,11.25,0,0,0-1.15-5.73q-1.15-1.89-4.09-1.89-3.34,0-4.84,2.07t-1.5,6.81V309.1h-8.18V266.26h8.18Z" transform="translate(-3127.45 2.55)"/>
    <path d="M3455.56,287.62a10.19,10.19,0,0,1,1.44-5,10,10,0,0,1,3.23-3.18,13.71,13.71,0,0,1,4.41-1.71,24.13,24.13,0,0,1,4.92-.51,32.18,32.18,0,0,1,4.55.33,13.52,13.52,0,0,1,4.2,1.29,8.38,8.38,0,0,1,3.11,2.67,7.7,7.7,0,0,1,1.21,4.53V302.2a33.59,33.59,0,0,0,.23,4,7.47,7.47,0,0,0,.81,2.88h-8.29a12.63,12.63,0,0,1-.37-1.47,12.87,12.87,0,0,1-.2-1.53,10.6,10.6,0,0,1-4.61,2.94,17.81,17.81,0,0,1-5.41.84,14.08,14.08,0,0,1-4-.54,9,9,0,0,1-3.23-1.68,7.77,7.77,0,0,1-2.16-2.88,10.08,10.08,0,0,1-.78-4.14,9.36,9.36,0,0,1,.89-4.35,7.68,7.68,0,0,1,2.3-2.73,10.15,10.15,0,0,1,3.23-1.53,33.54,33.54,0,0,1,3.66-.81q1.84-.3,3.63-0.48a21,21,0,0,0,3.17-.54,5.43,5.43,0,0,0,2.19-1,2.36,2.36,0,0,0,.75-2,4.68,4.68,0,0,0-.43-2.19,3.26,3.26,0,0,0-1.15-1.26,4.43,4.43,0,0,0-1.67-.6,13.25,13.25,0,0,0-2-.15,6,6,0,0,0-3.8,1.08,4.9,4.9,0,0,0-1.61,3.6h-8.18Zm18.89,6.3a3.63,3.63,0,0,1-1.3.75,12.76,12.76,0,0,1-1.67.45q-0.89.18-1.87,0.3t-2,.3a14.3,14.3,0,0,0-1.81.48,5.31,5.31,0,0,0-1.56.81,3.82,3.82,0,0,0-1.07,1.29,4.3,4.3,0,0,0-.4,2,4.15,4.15,0,0,0,.4,1.92,3.17,3.17,0,0,0,1.09,1.23,4.5,4.5,0,0,0,1.61.63,9.92,9.92,0,0,0,1.9.18,7,7,0,0,0,3.74-.84,5.51,5.51,0,0,0,2-2,6.61,6.61,0,0,0,.78-2.37,17,17,0,0,0,.14-1.92v-3.18Z" transform="translate(-3127.45 2.55)"/>
    <path d="M3500.37,278.08v5.7h-6v15.36a4.3,4.3,0,0,0,.69,2.88,3.89,3.89,0,0,0,2.76.72q0.69,0,1.33-.06a10.68,10.68,0,0,0,1.21-.18v6.6a18.89,18.89,0,0,1-2.3.24q-1.27.06-2.48,0.06a22.92,22.92,0,0,1-3.6-.27,8.26,8.26,0,0,1-3-1.05,5.46,5.46,0,0,1-2-2.22,8.21,8.21,0,0,1-.75-3.78v-18.3h-5v-5.7h5v-9.3h8.18v9.3h6Z" transform="translate(-3127.45 2.55)"/>
    <path d="M3536,309.1l-5.3-20.82h-0.12l-5.07,20.82h-8.47l-9.45-31h8.64l5.47,21.06h0.12l5-21.06h7.95l5.07,21h0.12l5.47-21h8.41l-9.39,31H3536Z" transform="translate(-3127.45 2.55)"/>
    <path d="M3552,287.62a10.19,10.19,0,0,1,1.44-5,10,10,0,0,1,3.23-3.18,13.72,13.72,0,0,1,4.41-1.71,24.11,24.11,0,0,1,4.92-.51,32.18,32.18,0,0,1,4.55.33,13.53,13.53,0,0,1,4.21,1.29,8.37,8.37,0,0,1,3.11,2.67,7.69,7.69,0,0,1,1.21,4.53V302.2a33.59,33.59,0,0,0,.23,4,7.47,7.47,0,0,0,.81,2.88h-8.29a12.44,12.44,0,0,1-.37-1.47,13.28,13.28,0,0,1-.2-1.53,10.59,10.59,0,0,1-4.61,2.94,17.81,17.81,0,0,1-5.41.84,14.08,14.08,0,0,1-4-.54,9,9,0,0,1-3.23-1.68,7.78,7.78,0,0,1-2.16-2.88,10.1,10.1,0,0,1-.78-4.14,9.36,9.36,0,0,1,.89-4.35,7.69,7.69,0,0,1,2.3-2.73,10.14,10.14,0,0,1,3.23-1.53,33.48,33.48,0,0,1,3.66-.81q1.84-.3,3.63-0.48a21,21,0,0,0,3.17-.54,5.42,5.42,0,0,0,2.19-1,2.35,2.35,0,0,0,.75-2,4.68,4.68,0,0,0-.43-2.19,3.26,3.26,0,0,0-1.15-1.26,4.42,4.42,0,0,0-1.67-.6,13.25,13.25,0,0,0-2-.15,6,6,0,0,0-3.8,1.08,4.9,4.9,0,0,0-1.61,3.6H3552Zm18.89,6.3a3.62,3.62,0,0,1-1.3.75,12.74,12.74,0,0,1-1.67.45q-0.9.18-1.87,0.3t-2,.3a14.35,14.35,0,0,0-1.81.48,5.29,5.29,0,0,0-1.55.81,3.8,3.8,0,0,0-1.07,1.29,4.29,4.29,0,0,0-.4,2,4.14,4.14,0,0,0,.4,1.92,3.16,3.16,0,0,0,1.09,1.23,4.5,4.5,0,0,0,1.61.63,9.91,9.91,0,0,0,1.9.18,7,7,0,0,0,3.74-.84,5.51,5.51,0,0,0,2-2,6.62,6.62,0,0,0,.78-2.37,17.24,17.24,0,0,0,.14-1.92v-3.18Z" transform="translate(-3127.45 2.55)"/>
    <path d="M3587.32,301.39a4.91,4.91,0,0,0,1.41,1.62,5.93,5.93,0,0,0,2,.93,9,9,0,0,0,2.33.3,8.37,8.37,0,0,0,1.81-.21,6,6,0,0,0,1.73-.66,4,4,0,0,0,1.3-1.2,3.25,3.25,0,0,0,.52-1.89q0-1.92-2.45-2.88a47.49,47.49,0,0,0-6.83-1.92q-1.79-.42-3.49-1a11.67,11.67,0,0,1-3-1.5,7.16,7.16,0,0,1-2.13-2.34,6.84,6.84,0,0,1-.81-3.45,9.65,9.65,0,0,1,1.12-4.92,8.44,8.44,0,0,1,3-3,12.68,12.68,0,0,1,4.15-1.56,24.59,24.59,0,0,1,4.72-.45,22.7,22.7,0,0,1,4.69.48,12.16,12.16,0,0,1,4.06,1.62,9.53,9.53,0,0,1,3,3,10.49,10.49,0,0,1,1.41,4.77H3598a3.76,3.76,0,0,0-1.79-3.33,7.89,7.89,0,0,0-3.8-.87,13.54,13.54,0,0,0-1.5.09,4.84,4.84,0,0,0-1.47.39,3,3,0,0,0-1.12.87,2.64,2.64,0,0,0,.35,3.39,6.14,6.14,0,0,0,2.1,1.17,25.35,25.35,0,0,0,3,.81q1.67,0.36,3.4.78a33.77,33.77,0,0,1,3.49,1,11.32,11.32,0,0,1,3,1.59,7.62,7.62,0,0,1,2.13,2.46,7.47,7.47,0,0,1,.81,3.63,10.22,10.22,0,0,1-1.18,5.13,9.68,9.68,0,0,1-3.08,3.33,12.33,12.33,0,0,1-4.35,1.77,24.38,24.38,0,0,1-5,.51,23.73,23.73,0,0,1-5.07-.54,13.06,13.06,0,0,1-4.41-1.8,10.09,10.09,0,0,1-3.17-3.33A10.75,10.75,0,0,1,3579,299h7.78A4.82,4.82,0,0,0,3587.32,301.39Z" transform="translate(-3127.45 2.55)"/>
    <path d="M3147.06,334.08v4.2h0.12a11.84,11.84,0,0,1,3.89-3.72,10.2,10.2,0,0,1,5.21-1.32,11.59,11.59,0,0,1,5.15,1.14,7.43,7.43,0,0,1,3.54,4,12.92,12.92,0,0,1,3.6-3.6,9.29,9.29,0,0,1,5.39-1.56,15.31,15.31,0,0,1,4.38.6,8.73,8.73,0,0,1,3.46,1.92,8.84,8.84,0,0,1,2.25,3.45,14.53,14.53,0,0,1,.81,5.13V365.1h-8.18V347.52q0-1.56-.12-2.94a6.47,6.47,0,0,0-.63-2.4,3.94,3.94,0,0,0-1.53-1.62,5.35,5.35,0,0,0-2.74-.6,5.07,5.07,0,0,0-2.79.69,4.91,4.91,0,0,0-1.67,1.8,7.41,7.41,0,0,0-.81,2.52,20.06,20.06,0,0,0-.2,2.85V365.1H3158V347.7q0-1.38-.06-2.73a8,8,0,0,0-.49-2.49,3.8,3.8,0,0,0-1.44-1.83,5.26,5.26,0,0,0-3-.69,5.89,5.89,0,0,0-1.53.27,5,5,0,0,0-1.84,1,5.94,5.94,0,0,0-1.53,2.16,9.09,9.09,0,0,0-.63,3.69v18h-8.18v-31h7.72Z" transform="translate(-3127.45 2.55)"/>
    <path d="M3186,343.62a10.19,10.19,0,0,1,1.44-5,10,10,0,0,1,3.23-3.18,13.72,13.72,0,0,1,4.41-1.71,24.11,24.11,0,0,1,4.92-.51,32.18,32.18,0,0,1,4.55.33,13.53,13.53,0,0,1,4.21,1.29,8.37,8.37,0,0,1,3.11,2.67,7.69,7.69,0,0,1,1.21,4.53V358.2a33.59,33.59,0,0,0,.23,4,7.47,7.47,0,0,0,.81,2.88h-8.29a12.44,12.44,0,0,1-.37-1.47,13.28,13.28,0,0,1-.2-1.53,10.59,10.59,0,0,1-4.61,2.94,17.81,17.81,0,0,1-5.41.84,14.08,14.08,0,0,1-4-.54,9,9,0,0,1-3.23-1.68,7.78,7.78,0,0,1-2.16-2.88,10.1,10.1,0,0,1-.78-4.14,9.36,9.36,0,0,1,.89-4.35,7.69,7.69,0,0,1,2.3-2.73,10.14,10.14,0,0,1,3.23-1.53,33.48,33.48,0,0,1,3.66-.81q1.84-.3,3.63-0.48a21,21,0,0,0,3.17-.54,5.42,5.42,0,0,0,2.19-1,2.35,2.35,0,0,0,.75-2,4.68,4.68,0,0,0-.43-2.19,3.26,3.26,0,0,0-1.15-1.26,4.42,4.42,0,0,0-1.67-.6,13.25,13.25,0,0,0-2-.15,6,6,0,0,0-3.8,1.08,4.9,4.9,0,0,0-1.61,3.6H3186Zm18.89,6.3a3.62,3.62,0,0,1-1.3.75,12.74,12.74,0,0,1-1.67.45q-0.9.18-1.87,0.3t-2,.3a14.35,14.35,0,0,0-1.81.48,5.29,5.29,0,0,0-1.55.81,3.8,3.8,0,0,0-1.07,1.29,4.29,4.29,0,0,0-.4,2,4.14,4.14,0,0,0,.4,1.92,3.16,3.16,0,0,0,1.09,1.23,4.5,4.5,0,0,0,1.61.63,9.91,9.91,0,0,0,1.9.18,7,7,0,0,0,3.74-.84,5.51,5.51,0,0,0,2-2,6.62,6.62,0,0,0,.78-2.37,17.24,17.24,0,0,0,.14-1.92v-3.18Z" transform="translate(-3127.45 2.55)"/>
    <path d="M3235.59,361.14a8.58,8.58,0,0,1-3.77,3.63,12.13,12.13,0,0,1-5.27,1.11,12.31,12.31,0,0,1-5.87-1.35,11.91,11.91,0,0,1-4.18-3.66,16.88,16.88,0,0,1-2.48-5.31,23.17,23.17,0,0,1-.83-6.24,21.77,21.77,0,0,1,.83-6,15.93,15.93,0,0,1,2.48-5.13,12.48,12.48,0,0,1,4.12-3.57,11.85,11.85,0,0,1,5.76-1.35,11.33,11.33,0,0,1,5,1.17,8.91,8.91,0,0,1,3.77,3.45h0.12v-15.6h8.18V365.1h-7.78v-4h-0.12Zm-0.35-15.33a9.23,9.23,0,0,0-1.18-3.12,6.78,6.78,0,0,0-2.16-2.19,6.13,6.13,0,0,0-3.34-.84,6.43,6.43,0,0,0-3.4.84,6.5,6.5,0,0,0-2.22,2.22,10,10,0,0,0-1.21,3.15,17.77,17.77,0,0,0-.37,3.69,16.38,16.38,0,0,0,.4,3.6,10,10,0,0,0,1.3,3.21,7.32,7.32,0,0,0,2.25,2.28,5.89,5.89,0,0,0,3.25.87,5.95,5.95,0,0,0,5.53-3.09,10.32,10.32,0,0,0,1.15-3.21,19.67,19.67,0,0,0,.35-3.72A19.22,19.22,0,0,0,3235.24,345.81Z" transform="translate(-3127.45 2.55)"/>
    <path d="M3253.45,357.66a8.11,8.11,0,0,0,9.56.57,5.32,5.32,0,0,0,2.19-2.73h7.2q-1.73,5.58-5.3,8a15.13,15.13,0,0,1-8.64,2.4,16.4,16.4,0,0,1-6.34-1.17,13.14,13.14,0,0,1-4.78-3.33,15.11,15.11,0,0,1-3-5.16,19.58,19.58,0,0,1-1.07-6.6,18.75,18.75,0,0,1,1.09-6.48,15.3,15.3,0,0,1,3.11-5.19,14.63,14.63,0,0,1,4.81-3.45,14.88,14.88,0,0,1,6.19-1.26,13.69,13.69,0,0,1,6.62,1.53,13.39,13.39,0,0,1,4.64,4.11,17.24,17.24,0,0,1,2.62,5.88,22.78,22.78,0,0,1,.58,6.9h-21.48Q3251.6,355.8,3253.45,357.66Zm9.25-16.32a5.62,5.62,0,0,0-4.46-1.68,6.88,6.88,0,0,0-3.25.69,6.25,6.25,0,0,0-2.07,1.71,6.36,6.36,0,0,0-1.09,2.16,10.07,10.07,0,0,0-.37,2h13.31A10.06,10.06,0,0,0,3262.69,341.34Z" transform="translate(-3127.45 2.55)"/>
    <path d="M3292,322.26v15.6h0.12a8.82,8.82,0,0,1,4.06-3.51,13.26,13.26,0,0,1,5.33-1.11,11,11,0,0,1,4.44,1,11.4,11.4,0,0,1,3.95,2.94,15.18,15.18,0,0,1,2.85,5.07,25.22,25.22,0,0,1,0,14.7,15.18,15.18,0,0,1-2.85,5.07,11.38,11.38,0,0,1-3.95,2.94,11,11,0,0,1-4.44,1,15.15,15.15,0,0,1-5.87-1.08,7.57,7.57,0,0,1-3.92-3.66h-0.12v4h-7.78V322.26H3292Zm13.25,23.58a10.13,10.13,0,0,0-1.27-3.18,6.78,6.78,0,0,0-2.16-2.19,6.43,6.43,0,0,0-6.25,0,6.67,6.67,0,0,0-2.19,2.19,10.11,10.11,0,0,0-1.27,3.18,17.2,17.2,0,0,0-.4,3.78,16.92,16.92,0,0,0,.4,3.72,10.1,10.1,0,0,0,1.27,3.18,6.66,6.66,0,0,0,2.19,2.19,6.43,6.43,0,0,0,6.25,0,6.77,6.77,0,0,0,2.16-2.19,10.12,10.12,0,0,0,1.27-3.18,17,17,0,0,0,.4-3.72A17.32,17.32,0,0,0,3305.29,345.84Z" transform="translate(-3127.45 2.55)"/>
    <path d="M3325.1,374.34a11.49,11.49,0,0,1-6.57,1.62q-1.27,0-2.5-.09l-2.51-.21v-7l2.36,0.24a16.49,16.49,0,0,0,2.42.06,3.15,3.15,0,0,0,2.39-1.32,4.37,4.37,0,0,0,.78-2.52,5.31,5.31,0,0,0-.35-1.92l-10.43-29.1h8.7l6.74,21.24h0.12l6.51-21.24h8.47l-12.44,34.86A10.49,10.49,0,0,1,3325.1,374.34Z" transform="translate(-3127.45 2.55)"/>
    <path d="M3350.27,342.87a14.62,14.62,0,0,1,3.11-5.16,13.91,13.91,0,0,1,4.84-3.3,16.4,16.4,0,0,1,6.34-1.17,16.62,16.62,0,0,1,6.36,1.17,13.85,13.85,0,0,1,4.87,3.3,14.64,14.64,0,0,1,3.11,5.16,19.76,19.76,0,0,1,1.09,6.75,19.5,19.5,0,0,1-1.09,6.72,14.66,14.66,0,0,1-3.11,5.13,13.49,13.49,0,0,1-4.87,3.27,17,17,0,0,1-6.36,1.14,16.79,16.79,0,0,1-6.34-1.14,13.55,13.55,0,0,1-4.84-3.27,14.65,14.65,0,0,1-3.11-5.13,19.5,19.5,0,0,1-1.09-6.72A19.76,19.76,0,0,1,3350.27,342.87Zm7.43,10.38a9.91,9.91,0,0,0,1.18,3.18,6.41,6.41,0,0,0,2.22,2.25,6.54,6.54,0,0,0,3.46.84,6.7,6.7,0,0,0,3.48-.84,6.34,6.34,0,0,0,2.25-2.25,9.93,9.93,0,0,0,1.18-3.18,18.89,18.89,0,0,0,.35-3.63,19.36,19.36,0,0,0-.35-3.66,9.61,9.61,0,0,0-1.18-3.18,6.69,6.69,0,0,0-2.25-2.25,6.53,6.53,0,0,0-3.48-.87,6.38,6.38,0,0,0-3.46.87,6.77,6.77,0,0,0-2.22,2.25,9.58,9.58,0,0,0-1.18,3.18,19.36,19.36,0,0,0-.35,3.66A18.89,18.89,0,0,0,3357.7,353.25Z" transform="translate(-3127.45 2.55)"/>
    <path d="M3396.7,334.08v5.7h-6v15.36a4.3,4.3,0,0,0,.69,2.88,3.89,3.89,0,0,0,2.77.72q0.69,0,1.32-.06a10.73,10.73,0,0,0,1.21-.18v6.6a18.91,18.91,0,0,1-2.3.24q-1.27.06-2.48,0.06a22.91,22.91,0,0,1-3.6-.27,8.26,8.26,0,0,1-3-1.05,5.45,5.45,0,0,1-2-2.22,8.19,8.19,0,0,1-.75-3.78v-18.3h-5v-5.7h5v-9.3h8.18v9.3h6Z" transform="translate(-3127.45 2.55)"/>
    <path d="M3403.84,322.26V338.4H3404a9.64,9.64,0,0,1,4-3.93,10.39,10.39,0,0,1,4.72-1.23,13.41,13.41,0,0,1,5.39.93,8,8,0,0,1,3.31,2.58,10.19,10.19,0,0,1,1.7,4,26,26,0,0,1,.49,5.25V365.1h-8.18V347.58a11.25,11.25,0,0,0-1.15-5.73q-1.15-1.89-4.09-1.89-3.34,0-4.84,2.07t-1.5,6.81V365.1h-8.18V322.26h8.18Z" transform="translate(-3127.45 2.55)"/>
    <path d="M3433.62,357.66a8.11,8.11,0,0,0,9.56.57,5.32,5.32,0,0,0,2.19-2.73h7.2q-1.73,5.58-5.3,8a15.13,15.13,0,0,1-8.64,2.4,16.4,16.4,0,0,1-6.34-1.17,13.14,13.14,0,0,1-4.78-3.33,15.11,15.11,0,0,1-3-5.16,19.58,19.58,0,0,1-1.07-6.6,18.75,18.75,0,0,1,1.09-6.48,15.3,15.3,0,0,1,3.11-5.19,14.63,14.63,0,0,1,4.81-3.45,14.88,14.88,0,0,1,6.19-1.26,13.69,13.69,0,0,1,6.62,1.53,13.39,13.39,0,0,1,4.64,4.11,17.24,17.24,0,0,1,2.62,5.88,22.78,22.78,0,0,1,.58,6.9H3431.6Q3431.77,355.8,3433.62,357.66Zm9.25-16.32a5.62,5.62,0,0,0-4.46-1.68,6.88,6.88,0,0,0-3.25.69,6.25,6.25,0,0,0-2.07,1.71,6.36,6.36,0,0,0-1.09,2.16,10.07,10.07,0,0,0-.37,2h13.31A10.06,10.06,0,0,0,3442.86,341.34Z" transform="translate(-3127.45 2.55)"/>
    <path d="M3460.74,334.08v5.76h0.12a10.55,10.55,0,0,1,1.56-2.67,10.35,10.35,0,0,1,2.25-2.1,10.85,10.85,0,0,1,2.71-1.35,9.42,9.42,0,0,1,3-.48,6.17,6.17,0,0,1,1.79.3v7.92c-0.38-.08-0.84-0.15-1.38-0.21a14,14,0,0,0-1.55-.09,8.42,8.42,0,0,0-3.8.78,6.65,6.65,0,0,0-2.51,2.13,8.71,8.71,0,0,0-1.35,3.15,17.85,17.85,0,0,0-.4,3.9v14H3453v-31h7.78Z" transform="translate(-3127.45 2.55)"/>
    <path d="M3477.3,357.39a4.91,4.91,0,0,0,1.41,1.62,5.93,5.93,0,0,0,2,.93,9,9,0,0,0,2.33.3,8.37,8.37,0,0,0,1.81-.21,6,6,0,0,0,1.73-.66,4,4,0,0,0,1.3-1.2,3.25,3.25,0,0,0,.52-1.89q0-1.92-2.45-2.88a47.48,47.48,0,0,0-6.83-1.92q-1.79-.42-3.48-1a11.67,11.67,0,0,1-3-1.5,7.16,7.16,0,0,1-2.13-2.34,6.84,6.84,0,0,1-.81-3.45,9.65,9.65,0,0,1,1.12-4.92,8.45,8.45,0,0,1,3-3,12.67,12.67,0,0,1,4.15-1.56,24.59,24.59,0,0,1,4.72-.45,22.7,22.7,0,0,1,4.69.48,12.16,12.16,0,0,1,4.06,1.62,9.52,9.52,0,0,1,3,3,10.5,10.5,0,0,1,1.41,4.77H3488a3.76,3.76,0,0,0-1.79-3.33,7.9,7.9,0,0,0-3.8-.87,13.53,13.53,0,0,0-1.5.09,4.83,4.83,0,0,0-1.47.39,3,3,0,0,0-1.12.87,2.64,2.64,0,0,0,.35,3.39,6.14,6.14,0,0,0,2.1,1.17,25.42,25.42,0,0,0,3,.81q1.67,0.36,3.4.78a33.76,33.76,0,0,1,3.48,1,11.31,11.31,0,0,1,3,1.59,7.61,7.61,0,0,1,2.13,2.46,7.47,7.47,0,0,1,.81,3.63,10.23,10.23,0,0,1-1.18,5.13,9.69,9.69,0,0,1-3.08,3.33,12.32,12.32,0,0,1-4.35,1.77,24.38,24.38,0,0,1-5,.51,23.72,23.72,0,0,1-5.07-.54,13.05,13.05,0,0,1-4.41-1.8,10.09,10.09,0,0,1-3.17-3.33A10.76,10.76,0,0,1,3469,355h7.78A4.82,4.82,0,0,0,3477.3,357.39Z" transform="translate(-3127.45 2.55)"/>
    <path d="M3505.79,355.86v9.24h-9v-9.24h9Z" transform="translate(-3127.45 2.55)"/>
    <path d="M3149,434.26L3166.13,463h0.12V434.26h8.47V477.1h-9l-17.11-28.68h-0.12V477.1H3140V434.26h9Z" transform="translate(-3127.45 2.55)"/>
    <path d="M3177,454.87a14.62,14.62,0,0,1,3.11-5.16,13.91,13.91,0,0,1,4.84-3.3,16.4,16.4,0,0,1,6.34-1.17,16.62,16.62,0,0,1,6.36,1.17,13.85,13.85,0,0,1,4.87,3.3,14.64,14.64,0,0,1,3.11,5.16,19.76,19.76,0,0,1,1.09,6.75,19.5,19.5,0,0,1-1.09,6.72,14.66,14.66,0,0,1-3.11,5.13,13.49,13.49,0,0,1-4.87,3.27,17,17,0,0,1-6.36,1.14,16.79,16.79,0,0,1-6.34-1.14,13.55,13.55,0,0,1-4.84-3.27,14.65,14.65,0,0,1-3.11-5.13,19.5,19.5,0,0,1-1.09-6.72A19.76,19.76,0,0,1,3177,454.87Zm7.43,10.38a9.91,9.91,0,0,0,1.18,3.18,6.41,6.41,0,0,0,2.22,2.25,6.54,6.54,0,0,0,3.46.84,6.7,6.7,0,0,0,3.48-.84,6.34,6.34,0,0,0,2.25-2.25,9.93,9.93,0,0,0,1.18-3.18,18.89,18.89,0,0,0,.35-3.63,19.36,19.36,0,0,0-.35-3.66,9.61,9.61,0,0,0-1.18-3.18,6.69,6.69,0,0,0-2.25-2.25,6.53,6.53,0,0,0-3.48-.87,6.38,6.38,0,0,0-3.46.87,6.77,6.77,0,0,0-2.22,2.25,9.58,9.58,0,0,0-1.18,3.18,19.36,19.36,0,0,0-.35,3.66A18.89,18.89,0,0,0,3184.44,465.25Z" transform="translate(-3127.45 2.55)"/>
    <path d="M3223.44,446.08v5.7h-6v15.36a4.3,4.3,0,0,0,.69,2.88,3.89,3.89,0,0,0,2.76.72q0.69,0,1.33-.06a10.68,10.68,0,0,0,1.21-.18v6.6a18.89,18.89,0,0,1-2.3.24q-1.27.06-2.48,0.06a22.92,22.92,0,0,1-3.6-.27,8.26,8.26,0,0,1-3-1.05,5.46,5.46,0,0,1-2-2.22,8.21,8.21,0,0,1-.75-3.78v-18.3h-5v-5.7h5v-9.3h8.18v9.3h6Z" transform="translate(-3127.45 2.55)"/>
    <path d="M3230.58,434.26V450.4h0.17a9.64,9.64,0,0,1,4-3.93,10.39,10.39,0,0,1,4.72-1.23,13.41,13.41,0,0,1,5.39.93,8,8,0,0,1,3.31,2.58,10.19,10.19,0,0,1,1.7,4,26,26,0,0,1,.49,5.25V477.1h-8.18V459.58a11.25,11.25,0,0,0-1.15-5.73q-1.15-1.89-4.09-1.89-3.34,0-4.84,2.07t-1.5,6.81V477.1h-8.18V434.26h8.18Z" transform="translate(-3127.45 2.55)"/>
    <path d="M3251.83,441.28v-7H3260v7h-8.18Zm8.18,4.8v31h-8.18v-31H3260Z" transform="translate(-3127.45 2.55)"/>
    <path d="M3269.29,446.08v4.32h0.17a9.55,9.55,0,0,1,4-3.93,11.28,11.28,0,0,1,5.07-1.23,13.41,13.41,0,0,1,5.39.93,8,8,0,0,1,3.31,2.58,10.19,10.19,0,0,1,1.7,4,26,26,0,0,1,.49,5.25V477.1h-8.18V459.58a11.25,11.25,0,0,0-1.15-5.73Q3279,452,3276,452q-3.34,0-4.84,2.07t-1.5,6.81V477.1h-8.18v-31h7.78Z" transform="translate(-3127.45 2.55)"/>
    <path d="M3318.85,479.38a10.69,10.69,0,0,1-2.1,4.47,12.57,12.57,0,0,1-4.67,3.51,19.41,19.41,0,0,1-8.18,1.44,18.35,18.35,0,0,1-4.46-.57,13.9,13.9,0,0,1-4.15-1.77,10.39,10.39,0,0,1-3.11-3.09,9.21,9.21,0,0,1-1.41-4.53h8.12a4.85,4.85,0,0,0,2.25,3.33,7.8,7.8,0,0,0,3.86.93,5.83,5.83,0,0,0,5-2.16,8.73,8.73,0,0,0,1.53-5.46V471.4h-0.12a8.24,8.24,0,0,1-3.77,3.63,11.81,11.81,0,0,1-5.16,1.17,12.57,12.57,0,0,1-5.76-1.23,11,11,0,0,1-4-3.36,14.25,14.25,0,0,1-2.28-5,24.51,24.51,0,0,1-.72-6,20.05,20.05,0,0,1,.83-5.79,15.32,15.32,0,0,1,2.45-4.92,11.93,11.93,0,0,1,4-3.39,11.62,11.62,0,0,1,5.5-1.26,11.14,11.14,0,0,1,5.16,1.14,9.09,9.09,0,0,1,3.71,3.84h0.12v-4.14h7.78v29A21.62,21.62,0,0,1,3318.85,479.38Zm-11.2-10.32a6.46,6.46,0,0,0,2.19-1.92,8.65,8.65,0,0,0,1.3-2.73,11.79,11.79,0,0,0,.43-3.21,18.3,18.3,0,0,0-.35-3.63,9.29,9.29,0,0,0-1.15-3,6.09,6.09,0,0,0-2.13-2.1,6.51,6.51,0,0,0-3.34-.78,5.81,5.81,0,0,0-3,.72,6.33,6.33,0,0,0-2.07,1.95,8.41,8.41,0,0,0-1.21,2.82,14.47,14.47,0,0,0-.37,3.33,17.64,17.64,0,0,0,.32,3.33,9.21,9.21,0,0,0,1.09,3,6.53,6.53,0,0,0,2,2.16,5.61,5.61,0,0,0,3.17.84A6.3,6.3,0,0,0,3307.65,469.06Z" transform="translate(-3127.45 2.55)"/>
    <path d="M3332.24,441.28v-7h8.18v7h-8.18Zm8.18,4.8v31h-8.18v-31h8.18Z" transform="translate(-3127.45 2.55)"/>
    <path d="M3348.8,469.39a4.91,4.91,0,0,0,1.41,1.62,5.93,5.93,0,0,0,2,.93,9,9,0,0,0,2.33.3,8.37,8.37,0,0,0,1.81-.21,6,6,0,0,0,1.73-.66,4,4,0,0,0,1.3-1.2,3.25,3.25,0,0,0,.52-1.89q0-1.92-2.45-2.88a47.49,47.49,0,0,0-6.83-1.92q-1.79-.42-3.49-1a11.67,11.67,0,0,1-3-1.5,7.16,7.16,0,0,1-2.13-2.34,6.84,6.84,0,0,1-.81-3.45,9.65,9.65,0,0,1,1.12-4.92,8.44,8.44,0,0,1,3-3,12.68,12.68,0,0,1,4.15-1.56,24.59,24.59,0,0,1,4.72-.45,22.7,22.7,0,0,1,4.69.48,12.16,12.16,0,0,1,4.06,1.62,9.53,9.53,0,0,1,3,3,10.49,10.49,0,0,1,1.41,4.77h-7.78a3.76,3.76,0,0,0-1.79-3.33,7.89,7.89,0,0,0-3.8-.87,13.54,13.54,0,0,0-1.5.09,4.84,4.84,0,0,0-1.47.39,3,3,0,0,0-1.12.87,2.64,2.64,0,0,0,.35,3.39,6.14,6.14,0,0,0,2.1,1.17,25.35,25.35,0,0,0,3,.81q1.67,0.36,3.4.78a33.77,33.77,0,0,1,3.49,1,11.32,11.32,0,0,1,3,1.59,7.62,7.62,0,0,1,2.13,2.46,7.47,7.47,0,0,1,.81,3.63,10.22,10.22,0,0,1-1.18,5.13,9.68,9.68,0,0,1-3.08,3.33,12.33,12.33,0,0,1-4.35,1.77,24.38,24.38,0,0,1-5,.51,23.73,23.73,0,0,1-5.07-.54,13.06,13.06,0,0,1-4.41-1.8,10.09,10.09,0,0,1-3.17-3.33,10.75,10.75,0,0,1-1.35-5.19h7.78A4.82,4.82,0,0,0,3348.8,469.39Z" transform="translate(-3127.45 2.55)"/>
    <path d="M3379.13,454.87a14.61,14.61,0,0,1,3.11-5.16,13.91,13.91,0,0,1,4.84-3.3,16.4,16.4,0,0,1,6.34-1.17,16.63,16.63,0,0,1,6.37,1.17,13.86,13.86,0,0,1,4.87,3.3,14.64,14.64,0,0,1,3.11,5.16,19.79,19.79,0,0,1,1.09,6.75,19.52,19.52,0,0,1-1.09,6.72,14.66,14.66,0,0,1-3.11,5.13,13.51,13.51,0,0,1-4.87,3.27,17,17,0,0,1-6.37,1.14,16.79,16.79,0,0,1-6.34-1.14,13.54,13.54,0,0,1-4.84-3.27,14.63,14.63,0,0,1-3.11-5.13,19.48,19.48,0,0,1-1.09-6.72A19.74,19.74,0,0,1,3379.13,454.87Zm7.43,10.38a9.88,9.88,0,0,0,1.18,3.18,6.4,6.4,0,0,0,2.22,2.25,6.54,6.54,0,0,0,3.46.84,6.7,6.7,0,0,0,3.49-.84,6.33,6.33,0,0,0,2.25-2.25,9.91,9.91,0,0,0,1.18-3.18,18.89,18.89,0,0,0,.35-3.63,19.36,19.36,0,0,0-.35-3.66,9.58,9.58,0,0,0-1.18-3.18,6.68,6.68,0,0,0-2.25-2.25,6.54,6.54,0,0,0-3.49-.87,6.38,6.38,0,0,0-3.46.87,6.76,6.76,0,0,0-2.22,2.25,9.56,9.56,0,0,0-1.18,3.18,19.44,19.44,0,0,0-.34,3.66A19,19,0,0,0,3386.56,465.25Z" transform="translate(-3127.45 2.55)"/>
    <path d="M3417,446.08v5.76h0.12a10.52,10.52,0,0,1,1.55-2.67,10.36,10.36,0,0,1,2.25-2.1,10.83,10.83,0,0,1,2.71-1.35,9.41,9.41,0,0,1,3-.48,6.17,6.17,0,0,1,1.79.3v7.92q-0.58-.12-1.38-0.21a14,14,0,0,0-1.56-.09,8.42,8.42,0,0,0-3.8.78,6.66,6.66,0,0,0-2.5,2.13,8.69,8.69,0,0,0-1.35,3.15,17.79,17.79,0,0,0-.4,3.9v14h-8.18v-31H3417Z" transform="translate(-3127.45 2.55)"/>
    <path d="M3426.88,441.28v-7h8.18v7h-8.18Zm8.18,4.8v31h-8.18v-31h8.18Z" transform="translate(-3127.45 2.55)"/>
    <path d="M3464.69,479.38a10.69,10.69,0,0,1-2.1,4.47,12.57,12.57,0,0,1-4.67,3.51,19.41,19.41,0,0,1-8.18,1.44,18.35,18.35,0,0,1-4.46-.57,13.9,13.9,0,0,1-4.15-1.77,10.39,10.39,0,0,1-3.11-3.09,9.21,9.21,0,0,1-1.41-4.53h8.12a4.85,4.85,0,0,0,2.25,3.33,7.8,7.8,0,0,0,3.86.93,5.83,5.83,0,0,0,5-2.16,8.73,8.73,0,0,0,1.53-5.46V471.4h-0.12a8.24,8.24,0,0,1-3.77,3.63,11.81,11.81,0,0,1-5.16,1.17,12.57,12.57,0,0,1-5.76-1.23,11,11,0,0,1-4-3.36,14.25,14.25,0,0,1-2.28-5,24.51,24.51,0,0,1-.72-6,20.05,20.05,0,0,1,.83-5.79,15.32,15.32,0,0,1,2.45-4.92,11.93,11.93,0,0,1,4-3.39,11.62,11.62,0,0,1,5.5-1.26,11.14,11.14,0,0,1,5.16,1.14,9.09,9.09,0,0,1,3.71,3.84h0.12v-4.14h7.78v29A21.62,21.62,0,0,1,3464.69,479.38Zm-11.2-10.32a6.46,6.46,0,0,0,2.19-1.92,8.65,8.65,0,0,0,1.3-2.73,11.79,11.79,0,0,0,.43-3.21,18.3,18.3,0,0,0-.35-3.63,9.29,9.29,0,0,0-1.15-3,6.09,6.09,0,0,0-2.13-2.1,6.51,6.51,0,0,0-3.34-.78,5.81,5.81,0,0,0-3,.72,6.33,6.33,0,0,0-2.07,1.95,8.41,8.41,0,0,0-1.21,2.82,14.47,14.47,0,0,0-.37,3.33,17.64,17.64,0,0,0,.32,3.33,9.21,9.21,0,0,0,1.09,3,6.53,6.53,0,0,0,2,2.16,5.61,5.61,0,0,0,3.17.84A6.3,6.3,0,0,0,3453.49,469.06Z" transform="translate(-3127.45 2.55)"/>
    <path d="M3467,441.28v-7h8.18v7H3467Zm8.18,4.8v31H3467v-31h8.18Z" transform="translate(-3127.45 2.55)"/>
    <path d="M3484.47,446.08v4.32h0.17a9.55,9.55,0,0,1,4-3.93,11.28,11.28,0,0,1,5.07-1.23,13.41,13.41,0,0,1,5.39.93,8,8,0,0,1,3.31,2.58,10.19,10.19,0,0,1,1.7,4,26,26,0,0,1,.49,5.25V477.1h-8.18V459.58a11.25,11.25,0,0,0-1.15-5.73q-1.15-1.89-4.09-1.89-3.34,0-4.84,2.07t-1.5,6.81V477.1h-8.18v-31h7.78Z" transform="translate(-3127.45 2.55)"/>
    <path d="M3505.56,455.62a10.19,10.19,0,0,1,1.44-5,10,10,0,0,1,3.23-3.18,13.72,13.72,0,0,1,4.41-1.71,24.11,24.11,0,0,1,4.92-.51,32.18,32.18,0,0,1,4.55.33,13.53,13.53,0,0,1,4.21,1.29,8.37,8.37,0,0,1,3.11,2.67,7.69,7.69,0,0,1,1.21,4.53V470.2a33.59,33.59,0,0,0,.23,4,7.47,7.47,0,0,0,.81,2.88h-8.29a12.44,12.44,0,0,1-.37-1.47,13.28,13.28,0,0,1-.2-1.53,10.59,10.59,0,0,1-4.61,2.94,17.81,17.81,0,0,1-5.41.84,14.08,14.08,0,0,1-4-.54,9,9,0,0,1-3.23-1.68,7.78,7.78,0,0,1-2.16-2.88,10.1,10.1,0,0,1-.78-4.14,9.36,9.36,0,0,1,.89-4.35,7.69,7.69,0,0,1,2.3-2.73,10.14,10.14,0,0,1,3.23-1.53,33.48,33.48,0,0,1,3.66-.81q1.84-.3,3.63-0.48a21,21,0,0,0,3.17-.54,5.42,5.42,0,0,0,2.19-1,2.35,2.35,0,0,0,.75-2,4.68,4.68,0,0,0-.43-2.19,3.26,3.26,0,0,0-1.15-1.26,4.42,4.42,0,0,0-1.67-.6,13.25,13.25,0,0,0-2-.15,6,6,0,0,0-3.8,1.08,4.9,4.9,0,0,0-1.61,3.6h-8.18Zm18.89,6.3a3.62,3.62,0,0,1-1.3.75,12.74,12.74,0,0,1-1.67.45q-0.9.18-1.87,0.3t-2,.3a14.35,14.35,0,0,0-1.81.48,5.29,5.29,0,0,0-1.55.81,3.8,3.8,0,0,0-1.07,1.29,4.29,4.29,0,0,0-.4,2,4.14,4.14,0,0,0,.4,1.92,3.16,3.16,0,0,0,1.09,1.23,4.5,4.5,0,0,0,1.61.63,9.91,9.91,0,0,0,1.9.18,7,7,0,0,0,3.74-.84,5.51,5.51,0,0,0,2-2,6.62,6.62,0,0,0,.78-2.37,17.24,17.24,0,0,0,.14-1.92v-3.18Z" transform="translate(-3127.45 2.55)"/>
    <path d="M3542.42,434.26V477.1h-8.18V434.26h8.18Z" transform="translate(-3127.45 2.55)"/>
    <path d="M3553.3,467.86v9.24h-9v-9.24h9Z" transform="translate(-3127.45 2.55)"/>
    <path d="M3170.16,533.1l-7-29.16h-0.12l-6.85,29.16h-9.16l-10.89-42.84h9l6.51,29.16h0.12l7.14-29.16h8.47l7,29.52h0.12l6.74-29.52h8.87l-11.06,42.84h-9Z" transform="translate(-3127.45 2.55)"/>
    <path d="M3194,525.66a8.11,8.11,0,0,0,9.56.57,5.32,5.32,0,0,0,2.19-2.73h7.2q-1.73,5.58-5.3,8a15.13,15.13,0,0,1-8.64,2.4,16.4,16.4,0,0,1-6.34-1.17,13.16,13.16,0,0,1-4.78-3.33,15.09,15.09,0,0,1-3-5.16,19.58,19.58,0,0,1-1.07-6.6,18.77,18.77,0,0,1,1.09-6.48,15.33,15.33,0,0,1,3.11-5.19,14.64,14.64,0,0,1,4.81-3.45,14.89,14.89,0,0,1,6.19-1.26,13.69,13.69,0,0,1,6.62,1.53,13.38,13.38,0,0,1,4.64,4.11,17.23,17.23,0,0,1,2.62,5.88,22.84,22.84,0,0,1,.58,6.9H3192Q3192.16,523.8,3194,525.66Zm9.24-16.32a5.62,5.62,0,0,0-4.46-1.68,6.88,6.88,0,0,0-3.25.69,6.25,6.25,0,0,0-2.07,1.71,6.34,6.34,0,0,0-1.09,2.16,10.08,10.08,0,0,0-.37,2h13.31A10,10,0,0,0,3203.25,509.34Z" transform="translate(-3127.45 2.55)"/>
    <path d="M3213,511.62a10.19,10.19,0,0,1,1.44-5,10,10,0,0,1,3.23-3.18,13.71,13.71,0,0,1,4.41-1.71,24.13,24.13,0,0,1,4.92-.51,32.18,32.18,0,0,1,4.55.33,13.52,13.52,0,0,1,4.2,1.29,8.38,8.38,0,0,1,3.11,2.67,7.7,7.7,0,0,1,1.21,4.53V526.2a33.59,33.59,0,0,0,.23,4,7.47,7.47,0,0,0,.81,2.88h-8.29a12.63,12.63,0,0,1-.37-1.47,12.87,12.87,0,0,1-.2-1.53,10.6,10.6,0,0,1-4.61,2.94,17.81,17.81,0,0,1-5.41.84,14.08,14.08,0,0,1-4-.54,9,9,0,0,1-3.23-1.68,7.77,7.77,0,0,1-2.16-2.88,10.08,10.08,0,0,1-.78-4.14,9.36,9.36,0,0,1,.89-4.35,7.68,7.68,0,0,1,2.3-2.73,10.15,10.15,0,0,1,3.23-1.53,33.54,33.54,0,0,1,3.66-.81q1.84-.3,3.63-0.48a21,21,0,0,0,3.17-.54,5.43,5.43,0,0,0,2.19-1,2.36,2.36,0,0,0,.75-2,4.68,4.68,0,0,0-.43-2.19,3.26,3.26,0,0,0-1.15-1.26,4.43,4.43,0,0,0-1.67-.6,13.25,13.25,0,0,0-2-.15,6,6,0,0,0-3.8,1.08,4.9,4.9,0,0,0-1.61,3.6H3213Zm18.89,6.3a3.63,3.63,0,0,1-1.3.75,12.76,12.76,0,0,1-1.67.45q-0.89.18-1.87,0.3t-2,.3a14.3,14.3,0,0,0-1.81.48,5.31,5.31,0,0,0-1.56.81,3.82,3.82,0,0,0-1.07,1.29,4.3,4.3,0,0,0-.4,2,4.15,4.15,0,0,0,.4,1.92,3.17,3.17,0,0,0,1.09,1.23,4.5,4.5,0,0,0,1.61.63,9.92,9.92,0,0,0,1.9.18,7,7,0,0,0,3.74-.84,5.51,5.51,0,0,0,2-2,6.61,6.61,0,0,0,.78-2.37,17,17,0,0,0,.14-1.92v-3.18Z" transform="translate(-3127.45 2.55)"/>
    <path d="M3249.24,502.08v5.76h0.12a10.55,10.55,0,0,1,1.56-2.67,10.35,10.35,0,0,1,2.25-2.1,10.85,10.85,0,0,1,2.71-1.35,9.42,9.42,0,0,1,3-.48,6.17,6.17,0,0,1,1.79.3v7.92c-0.38-.08-0.84-0.15-1.38-0.21a14,14,0,0,0-1.55-.09,8.42,8.42,0,0,0-3.8.78,6.65,6.65,0,0,0-2.51,2.13,8.71,8.71,0,0,0-1.35,3.15,17.85,17.85,0,0,0-.4,3.9v14h-8.18v-31h7.78Z" transform="translate(-3127.45 2.55)"/>
    <path d="M3276.86,525.39a4.91,4.91,0,0,0,1.41,1.62,5.93,5.93,0,0,0,2,.93,9,9,0,0,0,2.33.3,8.37,8.37,0,0,0,1.81-.21,6,6,0,0,0,1.73-.66,4,4,0,0,0,1.3-1.2,3.25,3.25,0,0,0,.52-1.89q0-1.92-2.45-2.88a47.48,47.48,0,0,0-6.83-1.92q-1.79-.42-3.48-1a11.67,11.67,0,0,1-3-1.5,7.16,7.16,0,0,1-2.13-2.34,6.84,6.84,0,0,1-.81-3.45,9.65,9.65,0,0,1,1.12-4.92,8.45,8.45,0,0,1,3-3,12.67,12.67,0,0,1,4.15-1.56,24.59,24.59,0,0,1,4.72-.45,22.7,22.7,0,0,1,4.69.48,12.16,12.16,0,0,1,4.06,1.62,9.52,9.52,0,0,1,3,3,10.5,10.5,0,0,1,1.41,4.77h-7.78a3.76,3.76,0,0,0-1.79-3.33,7.9,7.9,0,0,0-3.8-.87,13.53,13.53,0,0,0-1.5.09,4.83,4.83,0,0,0-1.47.39,3,3,0,0,0-1.12.87,2.64,2.64,0,0,0,.35,3.39,6.14,6.14,0,0,0,2.1,1.17,25.42,25.42,0,0,0,3,.81q1.67,0.36,3.4.78a33.76,33.76,0,0,1,3.48,1,11.31,11.31,0,0,1,3,1.59,7.61,7.61,0,0,1,2.13,2.46,7.47,7.47,0,0,1,.81,3.63,10.23,10.23,0,0,1-1.18,5.13,9.69,9.69,0,0,1-3.08,3.33,12.32,12.32,0,0,1-4.35,1.77,24.38,24.38,0,0,1-5,.51,23.72,23.72,0,0,1-5.07-.54,13.05,13.05,0,0,1-4.41-1.8,10.09,10.09,0,0,1-3.17-3.33,10.76,10.76,0,0,1-1.35-5.19h7.78A4.82,4.82,0,0,0,3276.86,525.39Z" transform="translate(-3127.45 2.55)"/>
    <path d="M3312.31,502.08v5.7h-6v15.36A4.3,4.3,0,0,0,3307,526a3.89,3.89,0,0,0,2.76.72q0.69,0,1.33-.06a10.68,10.68,0,0,0,1.21-.18v6.6a18.89,18.89,0,0,1-2.3.24q-1.27.06-2.48,0.06a22.92,22.92,0,0,1-3.6-.27,8.26,8.26,0,0,1-3-1.05,5.46,5.46,0,0,1-2-2.22,8.21,8.21,0,0,1-.75-3.78v-18.3h-5v-5.7h5v-9.3h8.18v9.3h6Z" transform="translate(-3127.45 2.55)"/>
    <path d="M3319,502.08v5.76h0.12a10.55,10.55,0,0,1,1.56-2.67,10.35,10.35,0,0,1,2.25-2.1,10.85,10.85,0,0,1,2.71-1.35,9.42,9.42,0,0,1,3-.48,6.17,6.17,0,0,1,1.79.3v7.92c-0.38-.08-0.84-0.15-1.38-0.21a14,14,0,0,0-1.55-.09,8.42,8.42,0,0,0-3.8.78,6.65,6.65,0,0,0-2.51,2.13,8.71,8.71,0,0,0-1.35,3.15,17.85,17.85,0,0,0-.4,3.9v14h-8.18v-31H3319Z" transform="translate(-3127.45 2.55)"/>
    <path d="M3329,497.28v-7h8.18v7H3329Zm8.18,4.8v31H3329v-31h8.18Z" transform="translate(-3127.45 2.55)"/>
    <path d="M3346.41,502.08v4h0.12a9.15,9.15,0,0,1,3.8-3.66,11.28,11.28,0,0,1,5.07-1.14,12.48,12.48,0,0,1,6,1.38,12.65,12.65,0,0,1,4.21,3.66,15.75,15.75,0,0,1,2.48,5.31,24.53,24.53,0,0,1,.81,6.33,22.17,22.17,0,0,1-.81,6,15.53,15.53,0,0,1-2.45,5.1,12.26,12.26,0,0,1-4.09,3.54,11.91,11.91,0,0,1-5.73,1.32,11.21,11.21,0,0,1-5.1-1.17,9.77,9.77,0,0,1-3.83-3.45h-0.12V544h-8.18V502.08h7.78Zm10.63,24.6a6.68,6.68,0,0,0,2.19-2.19,9.25,9.25,0,0,0,1.18-3.15,19.35,19.35,0,0,0,.35-3.66,18,18,0,0,0-.37-3.66,10,10,0,0,0-1.24-3.21,7.06,7.06,0,0,0-2.22-2.28,6,6,0,0,0-3.31-.87,6.11,6.11,0,0,0-3.37.87,6.86,6.86,0,0,0-2.19,2.25,9.58,9.58,0,0,0-1.18,3.18,19.68,19.68,0,0,0-.35,3.72,17.89,17.89,0,0,0,.38,3.66,9.68,9.68,0,0,0,1.21,3.15,6.59,6.59,0,0,0,2.22,2.19A7.12,7.12,0,0,0,3357,526.68Z" transform="translate(-3127.45 2.55)"/>
    <path d="M3377.63,525.66a8.11,8.11,0,0,0,9.56.57,5.32,5.32,0,0,0,2.19-2.73h7.2q-1.73,5.58-5.3,8a15.13,15.13,0,0,1-8.64,2.4,16.4,16.4,0,0,1-6.34-1.17,13.14,13.14,0,0,1-4.78-3.33,15.11,15.11,0,0,1-3-5.16,19.58,19.58,0,0,1-1.07-6.6,18.75,18.75,0,0,1,1.09-6.48,15.3,15.3,0,0,1,3.11-5.19,14.63,14.63,0,0,1,4.81-3.45,14.88,14.88,0,0,1,6.19-1.26,13.69,13.69,0,0,1,6.62,1.53,13.39,13.39,0,0,1,4.64,4.11,17.24,17.24,0,0,1,2.62,5.88,22.78,22.78,0,0,1,.58,6.9h-21.48Q3375.79,523.8,3377.63,525.66Zm9.25-16.32a5.62,5.62,0,0,0-4.46-1.68,6.88,6.88,0,0,0-3.25.69,6.25,6.25,0,0,0-2.07,1.71,6.36,6.36,0,0,0-1.09,2.16,10.07,10.07,0,0,0-.37,2h13.31A10.06,10.06,0,0,0,3386.87,509.34Z" transform="translate(-3127.45 2.55)"/>
    <path d="M3403.86,525.39a4.91,4.91,0,0,0,1.41,1.62,5.93,5.93,0,0,0,2,.93,9,9,0,0,0,2.33.3,8.37,8.37,0,0,0,1.81-.21,6,6,0,0,0,1.73-.66,4,4,0,0,0,1.3-1.2,3.25,3.25,0,0,0,.52-1.89q0-1.92-2.45-2.88a47.48,47.48,0,0,0-6.83-1.92q-1.79-.42-3.48-1a11.67,11.67,0,0,1-3-1.5,7.16,7.16,0,0,1-2.13-2.34,6.84,6.84,0,0,1-.81-3.45,9.65,9.65,0,0,1,1.12-4.92,8.45,8.45,0,0,1,3-3,12.67,12.67,0,0,1,4.15-1.56,24.59,24.59,0,0,1,4.72-.45,22.7,22.7,0,0,1,4.69.48,12.16,12.16,0,0,1,4.06,1.62,9.52,9.52,0,0,1,3,3,10.5,10.5,0,0,1,1.41,4.77h-7.78a3.76,3.76,0,0,0-1.79-3.33,7.9,7.9,0,0,0-3.8-.87,13.53,13.53,0,0,0-1.5.09,4.83,4.83,0,0,0-1.47.39,3,3,0,0,0-1.12.87,2.64,2.64,0,0,0,.35,3.39,6.14,6.14,0,0,0,2.1,1.17,25.42,25.42,0,0,0,3,.81q1.67,0.36,3.4.78a33.76,33.76,0,0,1,3.48,1,11.31,11.31,0,0,1,3,1.59,7.61,7.61,0,0,1,2.13,2.46,7.47,7.47,0,0,1,.81,3.63,10.23,10.23,0,0,1-1.18,5.13,9.69,9.69,0,0,1-3.08,3.33,12.32,12.32,0,0,1-4.35,1.77,24.38,24.38,0,0,1-5,.51,23.72,23.72,0,0,1-5.07-.54,13.05,13.05,0,0,1-4.41-1.8,10.09,10.09,0,0,1-3.17-3.33,10.76,10.76,0,0,1-1.35-5.19h7.78A4.82,4.82,0,0,0,3403.86,525.39Z" transform="translate(-3127.45 2.55)"/>
    <path d="M3432.35,523.86v9.24h-9v-9.24h9Z" transform="translate(-3127.45 2.55)"/>
  </g>
</svg>
