<?xml version="1.0" encoding="utf-8"?>
<!-- Generator: Adobe Illustrator 19.2.1, SVG Export Plug-In . SVG Version: 6.00 Build 0)  -->
<svg version="1.1" id="Layer_1" xmlns="http://www.w3.org/2000/svg" xmlns:xlink="http://www.w3.org/1999/xlink" x="0px" y="0px"
	 viewBox="0 0 940 968" style="enable-background:new 0 0 940 968;" xml:space="preserve">
<title>home_06</title>
<path d="M191.6,422.5c1.2,2.4,2.9,4.5,5,6.1c2.2,1.6,4.6,2.8,7.3,3.5c2.8,0.8,5.7,1.1,8.6,1.1c2.2,0,4.3-0.2,6.5-0.5
	c2.3-0.3,4.4-1,6.5-2c2-1,3.7-2.4,5-4.1c1.4-1.9,2.1-4.3,2-6.7c0.1-2.6-0.9-5.2-2.7-7c-2-2-4.4-3.5-7-4.5c-3.2-1.3-6.5-2.3-9.8-3.1
	c-3.6-0.9-7.3-1.9-11.1-3c-3.8-1-7.6-2.2-11.2-3.7c-3.5-1.4-6.8-3.3-9.7-5.7c-2.9-2.3-5.3-5.3-7-8.6c-1.9-3.9-2.8-8.2-2.7-12.5
	c-0.1-5,1-9.9,3.4-14.3c2.2-4,5.2-7.4,8.9-10.1c3.7-2.7,7.9-4.8,12.4-6c4.5-1.3,9.1-2,13.8-2c5.2,0,10.4,0.6,15.5,1.9
	c4.7,1.2,9.2,3.2,13.2,6.1c3.8,2.8,7,6.5,9.1,10.7c2.4,4.9,3.5,10.4,3.4,15.8h-21.9c-0.1-2.8-0.7-5.5-1.9-8c-1-2-2.5-3.7-4.4-5
	c-1.9-1.2-4-2.1-6.3-2.5c-2.5-0.5-5.1-0.8-7.7-0.8c-1.8,0-3.7,0.2-5.5,0.6c-1.8,0.4-3.5,1.1-5,2.1c-1.5,1-2.7,2.3-3.7,3.8
	c-1,1.7-1.5,3.7-1.4,5.7c-0.1,1.8,0.3,3.5,1.1,5.1c1.1,1.6,2.7,2.9,4.5,3.6c3,1.4,6.1,2.5,9.4,3.3c4,1.1,9.2,2.5,15.6,4.2
	c1.9,0.4,4.6,1.1,8,2.2c3.6,1.1,7,2.8,10.1,5c3.5,2.4,6.5,5.6,8.7,9.2c2.4,3.9,3.7,8.8,3.7,14.8c0,4.7-0.9,9.3-2.7,13.6
	c-1.8,4.2-4.6,7.9-8.1,10.9c-3.9,3.2-8.5,5.7-13.4,7.1c-6,1.8-12.2,2.7-18.5,2.5c-5.6,0-11.1-0.7-16.5-2.2
	c-5.1-1.3-9.9-3.6-14.1-6.7c-4.1-3.1-7.4-7.2-9.7-11.9c-2.5-5.3-3.7-11.2-3.5-17.1h21.9C189.6,416.5,190.3,419.6,191.6,422.5z"/>
<path d="M294.1,371.4v14.2h-15V424c0,3.6,0.6,6,1.7,7.2c1.2,1.2,3.5,1.8,6.9,1.8c1.2,0,2.3-0.1,3.3-0.1c1-0.1,2-0.2,3-0.5v16.5
	c-1.9,0.3-3.8,0.5-5.8,0.6c-2.1,0.1-4.2,0.1-6.2,0.1c-3,0-6-0.2-9-0.7c-2.6-0.4-5.2-1.3-7.5-2.6c-2.2-1.3-4-3.3-5.1-5.5
	c-1.4-3-2-6.2-1.9-9.5v-45.8h-12.3v-14.2h12.4v-23.2h20.5v23.2H294.1L294.1,371.4z"/>
<path d="M311,371.4v14.4h0.3c1-2.4,2.3-4.6,3.9-6.7c1.6-2,3.5-3.8,5.6-5.2c2.1-1.4,4.4-2.6,6.8-3.4c2.4-0.8,4.9-1.2,7.5-1.2
	c1.5,0,3,0.3,4.5,0.8v19.8c-1-0.2-2.1-0.4-3.5-0.5c-1.3-0.1-2.6-0.2-3.9-0.2c-3.3-0.1-6.5,0.6-9.5,2c-2.5,1.2-4.7,3.1-6.3,5.3
	c-1.6,2.4-2.8,5-3.4,7.9c-0.7,3.2-1,6.5-1,9.8v35h-20.5v-77.6H311z"/>
<path d="M335.8,359.4v-17.6h20.5v17.5L335.8,359.4L335.8,359.4z M356.2,371.4v77.5h-20.5v-77.5H356.2z"/>
<path d="M379.4,371.4v9.9h0.3c2.2-3.9,5.5-7.1,9.5-9.1c3.9-1.9,8.3-2.9,12.7-2.9c5.3-0.1,10.5,1,15.1,3.5c4.1,2.2,7.7,5.4,10.5,9.1
	c2.9,4,5,8.5,6.2,13.3c1.4,5.2,2,10.5,2,15.8c0,5.1-0.6,10.1-2,15c-1.2,4.6-3.3,8.9-6.1,12.8c-2.7,3.7-6.2,6.7-10.2,8.9
	c-4.4,2.3-9.4,3.4-14.3,3.3c-4.4,0-8.8-1-12.7-2.9c-3.9-2-7.2-4.9-9.6-8.6h-0.3V476H360V371.4H379.4z M406,432.9
	c2.2-1.4,4.1-3.3,5.5-5.5c1.5-2.4,2.5-5.1,3-7.9c0.6-3,0.9-6.1,0.9-9.1c0-3.1-0.3-6.1-0.9-9.1c-0.6-2.8-1.6-5.5-3.1-8
	c-1.4-2.3-3.3-4.2-5.5-5.7c-2.5-1.5-5.4-2.3-8.3-2.2c-3-0.1-5.9,0.6-8.4,2.2c-2.2,1.4-4.1,3.4-5.5,5.6c-1.5,2.5-2.5,5.2-3,8
	c-0.6,3.1-0.9,6.2-0.9,9.3c0,3.1,0.3,6.1,0.9,9.1c0.5,2.8,1.5,5.4,3,7.9c1.4,2.2,3.3,4.1,5.5,5.5C394.5,435.7,400.8,435.7,406,432.9
	z"/>
<path d="M457.4,430.3c3.1,3.1,7.5,4.6,13.2,4.6c3.8,0.1,7.5-1,10.7-3.2c3-2.1,4.8-4.4,5.5-6.8h18c-2.9,9.3-7.3,16-13.2,20
	c-6,4-13.2,6-21.6,6c-5.4,0.1-10.8-0.9-15.8-2.9c-4.6-1.8-8.7-4.7-12-8.3c-3.4-3.8-5.9-8.1-7.6-12.9c-1.8-5.3-2.7-10.9-2.7-16.5
	c0-5.5,0.9-11,2.7-16.2c1.7-4.8,4.3-9.2,7.8-13c3.4-3.7,7.5-6.6,12-8.6c4.9-2.2,10.2-3.3,15.6-3.2c5.8-0.1,11.4,1.2,16.6,3.8
	c4.6,2.5,8.6,6,11.6,10.3c3.1,4.4,5.3,9.4,6.5,14.7c1.4,5.6,1.8,11.5,1.4,17.2h-53.7C452.7,422.2,454.4,427.2,457.4,430.3z
	 M480.5,389.5c-2.4-2.8-6.2-4.2-11.2-4.2c-2.8-0.1-5.6,0.5-8.1,1.7c-2,1-3.8,2.5-5.2,4.3c-1.3,1.6-2.2,3.4-2.7,5.4
	c-0.5,1.7-0.8,3.4-0.9,5.1h33.3C484.7,396.4,483,392.3,480.5,389.5z"/>
<path d="M523,429.6c0.9,1.6,2.1,3,3.5,4c1.5,1.1,3.2,1.9,5,2.3c1.9,0.5,3.9,0.8,5.8,0.8c1.5,0,3.1-0.2,4.5-0.5
	c1.5-0.3,3-0.9,4.3-1.6c1.3-0.7,2.4-1.8,3.2-3c0.9-1.4,1.4-3.1,1.3-4.7c0-3.2-2-5.6-6.1-7.2c-5.6-2-11.3-3.6-17.1-4.8
	c-3-0.7-5.9-1.5-8.7-2.5c-2.7-0.9-5.2-2.1-7.6-3.8c-2.2-1.5-4-3.5-5.3-5.9c-1.4-2.6-2.1-5.6-2-8.6c0-5,0.9-9.1,2.8-12.3
	c1.8-3.1,4.3-5.7,7.4-7.6c3.2-1.9,6.7-3.2,10.4-3.9c3.9-0.8,7.8-1.1,11.8-1.1c3.9,0,7.9,0.4,11.7,1.2c3.6,0.7,7,2.1,10.2,4
	c3,1.9,5.5,4.5,7.4,7.6c2.1,3.7,3.3,7.8,3.5,12h-19.4c-0.3-4.1-1.8-6.9-4.5-8.3c-2.9-1.5-6.2-2.3-9.5-2.2c-1.2,0-2.5,0.1-3.7,0.2
	c-1.3,0.1-2.5,0.5-3.7,1c-1.1,0.5-2.1,1.2-2.8,2.2c-1.8,2.7-1.5,6.2,0.9,8.5c1.5,1.3,3.3,2.3,5.3,2.9c2.4,0.8,4.9,1.5,7.4,2
	c2.8,0.6,5.6,1.2,8.5,2c2.9,0.7,5.9,1.5,8.7,2.5c2.7,0.9,5.3,2.3,7.6,4c2.2,1.6,4,3.7,5.3,6.1c1.4,2.8,2.1,5.9,2,9.1
	c0.1,4.5-0.9,8.9-3,12.8c-1.9,3.3-4.5,6.2-7.7,8.3c-3.3,2.2-7,3.7-10.9,4.4c-4.1,0.9-8.3,1.3-12.5,1.3c-4.3,0-8.5-0.4-12.7-1.4
	c-3.9-0.8-7.6-2.3-11-4.5c-3.2-2.1-6-5-7.9-8.3c-2.2-4-3.4-8.5-3.4-13h19.4C521.6,425.8,522,427.8,523,429.6z"/>
<path d="M215.2,468.8l24,73.7h0.3l22.8-73.6H294v107.1h-21.1V500h-0.3l-25.2,75.9H230l-25.2-75.1h-0.3v75.1h-21.2V468.8H215.2z"/>
<path d="M298.5,522.2c0.1-4.4,1.3-8.7,3.6-12.5c2-3.2,4.8-6,8.1-8c3.4-2.1,7.1-3.5,11-4.3c4-0.8,8.2-1.3,12.3-1.3
	c3.8,0,7.6,0.3,11.4,0.8c3.7,0.5,7.2,1.6,10.5,3.2c3.1,1.5,5.8,3.8,7.8,6.7c2,2.8,3,6.6,3,11.3v40.3c0,3.3,0.2,6.7,0.6,10
	c0.2,2.5,0.9,5,2,7.2h-20.7c-0.4-1.2-0.7-2.4-0.9-3.7c-0.2-1.3-0.4-2.5-0.5-3.8c-3.1,3.4-7.1,6-11.5,7.3c-4.4,1.4-8.9,2.1-13.5,2.1
	c-3.4,0-6.7-0.4-9.9-1.3c-2.9-0.8-5.7-2.3-8.1-4.2c-2.3-1.9-4.2-4.4-5.4-7.2c-1.4-3.3-2-6.8-1.9-10.3c-0.1-3.7,0.6-7.5,2.2-10.9
	c1.4-2.7,3.3-5,5.8-6.8c2.4-1.7,5.2-3,8.1-3.8c3-0.8,6.1-1.5,9.1-2c3.1-0.5,6.1-0.9,9.1-1.2c2.7-0.2,5.3-0.7,7.9-1.3
	c2-0.4,3.9-1.3,5.5-2.6c1.4-1.3,2.1-3.1,1.9-5c0.1-1.9-0.3-3.8-1.1-5.5c-0.7-1.3-1.7-2.4-2.9-3.2c-1.3-0.8-2.7-1.3-4.2-1.5
	c-1.7-0.3-3.4-0.4-5.1-0.4c-4,0-7.2,0.9-9.5,2.7c-2.3,1.8-3.7,4.8-4,9L298.5,522.2L298.5,522.2z M345.8,538c-0.9,0.8-2,1.5-3.2,1.9
	c-1.4,0.5-2.8,0.8-4.2,1.1c-1.5,0.3-3,0.5-4.7,0.8c-1.6,0.2-3.3,0.4-4.9,0.8c-1.5,0.3-3.1,0.7-4.5,1.2c-1.4,0.4-2.7,1.1-3.9,2
	c-1.1,0.9-2,2-2.7,3.2c-0.7,1.6-1.1,3.3-1,5c-0.1,1.7,0.3,3.3,1,4.8c0.6,1.3,1.6,2.3,2.7,3.1c1.2,0.8,2.6,1.3,4,1.6
	c1.6,0.3,3.2,0.5,4.8,0.5c4,0,7.1-0.7,9.4-2.1c2-1.2,3.7-2.9,4.9-5c1-1.8,1.7-3.8,1.9-5.9c0.2-1.6,0.3-3.2,0.4-4.8L345.8,538
	L345.8,538z"/>
<path d="M389.1,498.4v10.8h0.4c2.3-4.2,5.8-7.6,10.1-9.8c3.9-2,8.3-3.1,12.7-3.1c5.5,0,10,0.8,13.5,2.3c3.3,1.4,6.1,3.6,8.3,6.4
	c2.1,3,3.6,6.4,4.2,10c0.8,4.3,1.3,8.7,1.2,13.1v47.7h-20.4v-43.7c0-6.4-1-11.2-2.9-14.3c-1.9-3.2-5.3-4.7-10.2-4.8
	c-5.6,0-9.6,1.7-12.1,5.2s-3.7,9.1-3.7,17v40.7h-20.5v-77.6H389.1L389.1,498.4z"/>
<path d="M443.3,486.4v-17.6h20.4v17.5L443.3,486.4L443.3,486.4z M463.7,498.4v77.6h-20.5v-77.6H463.7L463.7,498.4z"/>
<path d="M459.7,512.6v-14.2h12.2v-6c0-6.9,2.1-12.6,6.2-17c4.1-4.4,10.4-6.6,18.7-6.6c1.8,0,3.6,0.1,5.5,0.2s3.6,0.3,5.3,0.4v15.9
	c-2.5-0.3-5-0.5-7.5-0.5c-2.8,0-4.8,0.7-6,2c-1.2,1.3-1.8,3.6-1.8,6.8v4.6h14.1v14.3h-14.1v63.3h-20.4v-63.3H459.7z"/>
<path d="M524.9,557.3c3.1,3.1,7.5,4.7,13.2,4.7c3.8,0.1,7.5-1,10.7-3.2c3-2.1,4.8-4.4,5.5-6.8h18c-2.9,9.3-7.3,16-13.2,20
	c-6,4-13.2,6-21.6,6c-5.4,0.1-10.8-0.9-15.8-2.9c-4.6-1.8-8.7-4.7-12-8.3c-3.4-3.8-5.9-8.1-7.6-12.9c-1.8-5.3-2.7-10.9-2.7-16.5
	c0-5.5,0.9-11,2.7-16.2c1.7-4.8,4.3-9.2,7.8-13c3.4-3.7,7.5-6.6,12-8.6c4.9-2.1,10.2-3.2,15.5-3.1c5.8-0.2,11.5,1.1,16.6,3.8
	c4.6,2.5,8.6,6,11.6,10.3c3.1,4.4,5.3,9.4,6.5,14.7c1.4,5.6,1.8,11.5,1.4,17.2h-53.7C520.1,549.2,521.8,554.2,524.9,557.3z
	 M548,516.5c-2.4-2.8-6.2-4.2-11.2-4.2c-2.8-0.1-5.6,0.5-8.1,1.7c-2,1-3.8,2.5-5.2,4.3c-1.3,1.6-2.2,3.4-2.7,5.4
	c-0.5,1.7-0.8,3.4-0.9,5.1h33.3C552.2,523.4,550.5,519.3,548,516.5z"/>
<path d="M590.5,556.6c0.9,1.6,2.1,3,3.5,4c1.5,1.1,3.2,1.9,5,2.3c1.9,0.5,3.9,0.8,5.8,0.8c1.5,0,3.1-0.2,4.5-0.5
	c1.5-0.3,3-0.9,4.3-1.7c1.3-0.7,2.4-1.8,3.2-3c0.9-1.4,1.4-3.1,1.3-4.7c0-3.2-2-5.6-6.1-7.2c-5.6-2-11.3-3.6-17.1-4.8
	c-3-0.7-5.9-1.5-8.7-2.5c-2.7-0.9-5.2-2.1-7.6-3.8c-2.2-1.5-4-3.5-5.3-5.8c-1.4-2.6-2.1-5.6-2-8.6c0-5,0.9-9.1,2.8-12.3
	c1.8-3.1,4.3-5.7,7.4-7.6c3.2-1.9,6.7-3.2,10.4-3.9c3.9-0.8,7.8-1.1,11.8-1.1c3.9,0,7.9,0.4,11.7,1.2c3.6,0.7,7,2.1,10.2,4
	c3,1.9,5.5,4.5,7.4,7.6c2.1,3.7,3.3,7.8,3.5,12h-19.4c-0.3-4.1-1.8-6.9-4.5-8.3c-2.9-1.5-6.2-2.3-9.5-2.2c-1.2,0-2.5,0.1-3.7,0.2
	c-1.3,0.1-2.5,0.5-3.7,1c-1.1,0.5-2.1,1.2-2.8,2.2c-1.8,2.7-1.5,6.2,0.9,8.5c1.5,1.3,3.3,2.3,5.3,2.9c2.4,0.8,4.9,1.5,7.4,2
	c2.8,0.6,5.6,1.2,8.5,2c2.9,0.7,5.9,1.5,8.7,2.5c2.7,0.9,5.3,2.3,7.6,4c2.2,1.6,4,3.7,5.3,6.2c1.4,2.8,2.1,5.9,2,9.1
	c0.1,4.5-0.9,8.9-3,12.8c-1.9,3.3-4.5,6.2-7.7,8.3c-3.3,2.2-7,3.7-10.9,4.4c-4.1,0.9-8.3,1.3-12.5,1.3c-4.2,0-8.5-0.5-12.6-1.4
	c-3.9-0.8-7.6-2.3-11-4.5c-3.2-2.1-6-5-7.9-8.3c-2.2-4-3.4-8.5-3.4-13h19.4C589.1,552.7,589.5,554.8,590.5,556.6z"/>
<path d="M679.1,498.4v14.2h-15V551c0,3.6,0.6,6,1.7,7.2c1.2,1.2,3.5,1.8,6.9,1.8c1.2,0,2.3,0,3.3-0.2c1-0.1,2-0.2,3-0.5v16.5
	c-1.9,0.3-3.8,0.5-5.8,0.6c-2.1,0.1-4.2,0.2-6.2,0.2c-3,0-6-0.2-9-0.7c-2.6-0.4-5.2-1.3-7.5-2.6c-2.2-1.3-4-3.3-5.1-5.5
	c-1.4-3-2-6.2-1.9-9.5v-45.8h-12.3v-14.2h12.4v-23.2h20.5v23.2H679.1L679.1,498.4z"/>
<path d="M677,520.3c1.7-4.8,4.3-9.2,7.8-12.9c3.4-3.6,7.5-6.4,12.1-8.2c5-2,10.4-3,15.8-2.9c5.4-0.1,10.8,0.9,15.9,2.9
	c4.6,1.8,8.8,4.7,12.2,8.2c3.5,3.7,6.1,8.1,7.8,12.9c1.9,5.4,2.8,11.1,2.7,16.9c0.1,5.7-0.8,11.4-2.7,16.8
	c-1.7,4.8-4.3,9.1-7.8,12.8c-3.4,3.6-7.6,6.4-12.2,8.2c-5.1,2-10.5,2.9-15.9,2.8c-5.4,0.1-10.8-0.9-15.8-2.8
	c-4.6-1.8-8.7-4.6-12.1-8.2c-3.4-3.7-6.1-8.1-7.7-12.8c-1.9-5.4-2.8-11.1-2.7-16.8C674.2,531.5,675.1,525.7,677,520.3z M695.6,546.3
	c0.5,2.8,1.5,5.5,3,8c1.3,2.3,3.3,4.2,5.5,5.6c2.6,1.5,5.6,2.2,8.6,2.1c3,0.1,6.1-0.6,8.7-2.1c2.3-1.4,4.3-3.3,5.6-5.6
	c1.5-2.5,2.5-5.2,3-8c0.6-3,0.9-6,0.9-9.1c0-3.1-0.3-6.2-1-9.2c-0.5-2.8-1.5-5.5-3-8c-1.4-2.3-3.3-4.2-5.6-5.6
	c-2.6-1.5-5.7-2.3-8.7-2.2c-3-0.1-6,0.6-8.6,2.2c-2.3,1.4-4.2,3.3-5.5,5.6c-1.5,2.5-2.5,5.2-3,8c-0.6,3-0.9,6.1-0.9,9.2
	C694.6,540.2,694.9,543.3,695.6,546.3L695.6,546.3z"/>
<path d="M775.6,552.8v23.1H753v-23.1H775.6z"/>
</svg>
