<svg id="texts" xmlns="http://www.w3.org/2000/svg" viewBox="0 0 1425 824"><title>home_text_04</title><path d="M18.67,52.67V66.92H3.7v38.4q0,5.4,1.73,7.2t6.91,1.8q1.73,0,3.31-.15a27,27,0,0,0,3-.45v16.5a47,47,0,0,1-5.76.6Q9.74,131,6.72,131a57.32,57.32,0,0,1-9-.67,20.64,20.64,0,0,1-7.49-2.62,13.65,13.65,0,0,1-5.11-5.55,20.5,20.5,0,0,1-1.87-9.45V66.92H-29.14V52.67h12.38V29.42H3.7V52.67h15Z"/><path d="M36.53,23.12V63.47H37a24.12,24.12,0,0,1,9.94-9.83A26,26,0,0,1,58.7,50.57q8.21,0,13.46,2.33a20.08,20.08,0,0,1,8.28,6.45,25.5,25.5,0,0,1,4.25,10,65.15,65.15,0,0,1,1.22,13.13v47.7H65.47V86.42q0-9.6-2.88-14.33T52.37,67.37q-8.35,0-12.1,5.17t-3.74,17v40.65H16.08V23.12H36.53Z"/><path d="M111,111.62q4.61,4.65,13.25,4.65A17.7,17.7,0,0,0,134.88,113q4.46-3.22,5.47-6.83h18q-4.32,13.95-13.25,20t-21.6,6a41,41,0,0,1-15.84-2.92,32.88,32.88,0,0,1-12-8.33A37.74,37.74,0,0,1,88.15,108a49,49,0,0,1-2.66-16.5,46.91,46.91,0,0,1,2.74-16.2,38.25,38.25,0,0,1,7.78-13,36.58,36.58,0,0,1,12-8.62,37.22,37.22,0,0,1,15.48-3.15,34.24,34.24,0,0,1,16.56,3.83,33.47,33.47,0,0,1,11.59,10.28,43.07,43.07,0,0,1,6.55,14.7,57,57,0,0,1,1.44,17.25H105.93Q106.36,107,111,111.62Zm23.11-40.8q-3.67-4.2-11.16-4.2a17.2,17.2,0,0,0-8.14,1.72,15.63,15.63,0,0,0-5.18,4.28,15.88,15.88,0,0,0-2.74,5.4,25.23,25.23,0,0,0-.94,5.1H139.2Q137.76,75,134.08,70.82Z"/><path d="M179.8,23.12v39h0.29a22.06,22.06,0,0,1,10.15-8.78,33.18,33.18,0,0,1,13.32-2.78A27.4,27.4,0,0,1,214.65,53a28.47,28.47,0,0,1,9.86,7.35A38,38,0,0,1,231.64,73a55.2,55.2,0,0,1,2.74,18.38,55.18,55.18,0,0,1-2.74,18.38,38,38,0,0,1-7.13,12.67,28.45,28.45,0,0,1-9.86,7.35,27.4,27.4,0,0,1-11.09,2.4,37.89,37.89,0,0,1-14.69-2.7,18.92,18.92,0,0,1-9.79-9.15h-0.29v9.9H159.35V23.12H179.8Zm33.12,58.95a25.27,25.27,0,0,0-3.17-7.95,16.93,16.93,0,0,0-5.4-5.48,16.08,16.08,0,0,0-15.62,0,16.66,16.66,0,0,0-5.47,5.48,25.25,25.25,0,0,0-3.17,7.95,43.11,43.11,0,0,0-1,9.45,42.38,42.38,0,0,0,1,9.3,25.24,25.24,0,0,0,3.17,8,16.65,16.65,0,0,0,5.47,5.48,16.08,16.08,0,0,0,15.62,0,16.91,16.91,0,0,0,5.4-5.48,25.26,25.26,0,0,0,3.17-8,42.47,42.47,0,0,0,1-9.3A43.19,43.19,0,0,0,212.92,82.07Z"/><path d="M235.39,74.65a36.54,36.54,0,0,1,7.78-12.9,34.75,34.75,0,0,1,12.1-8.25,41,41,0,0,1,15.84-2.93A41.56,41.56,0,0,1,287,53.5a34.63,34.63,0,0,1,12.17,8.25A36.61,36.61,0,0,1,307,74.65a49.44,49.44,0,0,1,2.74,16.88,48.78,48.78,0,0,1-2.74,16.8,36.67,36.67,0,0,1-7.78,12.83A33.76,33.76,0,0,1,287,129.32a42.56,42.56,0,0,1-15.91,2.85,42,42,0,0,1-15.84-2.85,33.87,33.87,0,0,1-12.1-8.17,36.6,36.6,0,0,1-7.78-12.83,48.72,48.72,0,0,1-2.74-16.8A49.38,49.38,0,0,1,235.39,74.65Zm18.58,26a24.75,24.75,0,0,0,3,8,16,16,0,0,0,5.54,5.63,16.37,16.37,0,0,0,8.64,2.1,16.76,16.76,0,0,0,8.71-2.1,15.86,15.86,0,0,0,5.62-5.62,24.8,24.8,0,0,0,3-8,47.22,47.22,0,0,0,.86-9.08,48.41,48.41,0,0,0-.86-9.15,24,24,0,0,0-3-8,16.72,16.72,0,0,0-5.62-5.62,16.33,16.33,0,0,0-8.71-2.17,16,16,0,0,0-8.64,2.17,16.91,16.91,0,0,0-5.54,5.63,23.94,23.94,0,0,0-3,8,48.45,48.45,0,0,0-.86,9.15A47.26,47.26,0,0,0,254,100.6Z"/><path d="M311,74.65a36.53,36.53,0,0,1,7.78-12.9,34.75,34.75,0,0,1,12.1-8.25,41,41,0,0,1,15.84-2.93,41.56,41.56,0,0,1,15.91,2.93,34.63,34.63,0,0,1,12.17,8.25,36.6,36.6,0,0,1,7.78,12.9,49.43,49.43,0,0,1,2.74,16.88,48.77,48.77,0,0,1-2.74,16.8,36.66,36.66,0,0,1-7.78,12.83,33.76,33.76,0,0,1-12.17,8.17,42.56,42.56,0,0,1-15.91,2.85,42,42,0,0,1-15.84-2.85,33.87,33.87,0,0,1-12.1-8.17A36.59,36.59,0,0,1,311,108.32a48.71,48.71,0,0,1-2.74-16.8A49.37,49.37,0,0,1,311,74.65Zm18.58,26a24.74,24.74,0,0,0,3,8,16,16,0,0,0,5.54,5.63,16.37,16.37,0,0,0,8.64,2.1,16.76,16.76,0,0,0,8.71-2.1,15.85,15.85,0,0,0,5.62-5.62,24.8,24.8,0,0,0,3-8,47.26,47.26,0,0,0,.86-9.08,48.45,48.45,0,0,0-.86-9.15,24,24,0,0,0-3-8,16.72,16.72,0,0,0-5.62-5.62,16.33,16.33,0,0,0-8.71-2.17,16,16,0,0,0-8.64,2.17,16.9,16.9,0,0,0-5.54,5.63,23.93,23.93,0,0,0-3,8,48.45,48.45,0,0,0-.86,9.15A47.26,47.26,0,0,0,329.56,100.6Z"/><path d="M408.47,23.12V80.57l25.78-27.9h24.19l-28.08,28.5,31.25,49H436.84L416.39,95.57l-7.92,8v26.7H388V23.12h20.45Z"/><path d="M453.85,74.65a36.54,36.54,0,0,1,7.78-12.9,34.75,34.75,0,0,1,12.1-8.25,41,41,0,0,1,15.84-2.93,41.56,41.56,0,0,1,15.91,2.93,34.62,34.62,0,0,1,12.17,8.25,36.6,36.6,0,0,1,7.78,12.9,49.43,49.43,0,0,1,2.74,16.88,48.77,48.77,0,0,1-2.74,16.8,36.66,36.66,0,0,1-7.78,12.83,33.76,33.76,0,0,1-12.17,8.17,42.56,42.56,0,0,1-15.91,2.85,42,42,0,0,1-15.84-2.85,33.87,33.87,0,0,1-12.1-8.17,36.6,36.6,0,0,1-7.78-12.83,48.72,48.72,0,0,1-2.74-16.8A49.38,49.38,0,0,1,453.85,74.65Zm18.58,26a24.74,24.74,0,0,0,3,8,16,16,0,0,0,5.54,5.63,16.37,16.37,0,0,0,8.64,2.1,16.76,16.76,0,0,0,8.71-2.1,15.85,15.85,0,0,0,5.62-5.62,24.8,24.8,0,0,0,3-8,47.26,47.26,0,0,0,.86-9.08,48.45,48.45,0,0,0-.86-9.15,24,24,0,0,0-3-8,16.71,16.71,0,0,0-5.62-5.62,16.33,16.33,0,0,0-8.71-2.17,16,16,0,0,0-8.64,2.17,16.9,16.9,0,0,0-5.54,5.63,23.93,23.93,0,0,0-3,8,48.41,48.41,0,0,0-.86,9.15A47.22,47.22,0,0,0,472.43,100.6Z"/><path d="M521.25,66.92V52.67h12.24v-6q0-10.35,6.19-17t18.72-6.6q2.73,0,5.47.22t5.33,0.38v15.9a60.22,60.22,0,0,0-7.49-.45q-4.18,0-6,2T553.93,48v4.65H568V66.92H553.93v63.3H533.49V66.92H521.25Z"/><path d="M581.8,110.95a12.29,12.29,0,0,0,3.53,4.05,14.82,14.82,0,0,0,5,2.32,22.42,22.42,0,0,0,5.83.75,20.93,20.93,0,0,0,4.54-.52A15,15,0,0,0,605,115.9a10,10,0,0,0,3.24-3,8.12,8.12,0,0,0,1.3-4.72q0-4.8-6.12-7.2a118.77,118.77,0,0,0-17.06-4.8q-4.46-1-8.71-2.48a29.15,29.15,0,0,1-7.56-3.75,17.89,17.89,0,0,1-5.33-5.85,17.1,17.1,0,0,1-2-8.62q0-7.5,2.81-12.3a21.13,21.13,0,0,1,7.42-7.58,31.69,31.69,0,0,1,10.37-3.9,61.44,61.44,0,0,1,11.81-1.12,56.8,56.8,0,0,1,11.74,1.2,30.39,30.39,0,0,1,10.15,4,23.83,23.83,0,0,1,7.42,7.58,26.22,26.22,0,0,1,3.53,11.92H608.51Q608.08,69.17,604,67a19.74,19.74,0,0,0-9.5-2.18,33.82,33.82,0,0,0-3.74.23,12.09,12.09,0,0,0-3.67,1,7.61,7.61,0,0,0-2.81,2.17,6.6,6.6,0,0,0,.86,8.48,15.35,15.35,0,0,0,5.26,2.92,63.55,63.55,0,0,0,7.42,2q4.17,0.9,8.5,1.95a84.43,84.43,0,0,1,8.71,2.55,28.28,28.28,0,0,1,7.56,4,19,19,0,0,1,5.33,6.15,18.68,18.68,0,0,1,2,9.07,25.57,25.57,0,0,1-3,12.83,24.19,24.19,0,0,1-7.7,8.33,30.84,30.84,0,0,1-10.87,4.42A61,61,0,0,1,596,132.17a59.27,59.27,0,0,1-12.67-1.35,32.65,32.65,0,0,1-11-4.5,25.24,25.24,0,0,1-7.92-8.32A26.88,26.88,0,0,1,561,105h19.44A12.05,12.05,0,0,0,581.8,110.95Z"/><path d="M670.43,52.67V66.92h-15v38.4q0,5.4,1.73,7.2t6.91,1.8q1.73,0,3.31-.15a27,27,0,0,0,3-.45v16.5a46.93,46.93,0,0,1-5.76.6q-3.17.15-6.19,0.15a57.31,57.31,0,0,1-9-.67,20.64,20.64,0,0,1-7.49-2.62,13.64,13.64,0,0,1-5.11-5.55,20.5,20.5,0,0,1-1.87-9.45V66.92H622.62V52.67H635V29.42h20.45V52.67h15Z"/><path d="M687.27,52.67v14.4h0.29a26.36,26.36,0,0,1,3.89-6.67,25.89,25.89,0,0,1,5.62-5.25,27.06,27.06,0,0,1,6.77-3.37,23.55,23.55,0,0,1,7.49-1.2,15.41,15.41,0,0,1,4.46.75v19.8q-1.44-.3-3.46-0.53a35,35,0,0,0-3.89-.22,21.07,21.07,0,0,0-9.5,1.95,16.63,16.63,0,0,0-6.26,5.33,21.77,21.77,0,0,0-3.38,7.88,44.53,44.53,0,0,0-1,9.75v35H667.83V52.67h19.44Z"/><path d="M712,40.67V23.12h20.45V40.67H712Zm20.45,12v77.55H712V52.67h20.45Z"/><path d="M755.67,52.67v9.9H756a22.86,22.86,0,0,1,9.5-9.15,28.2,28.2,0,0,1,12.67-2.85A31.2,31.2,0,0,1,793.25,54a31.61,31.61,0,0,1,10.51,9.15A39.41,39.41,0,0,1,810,76.45a61.3,61.3,0,0,1,2,15.83,55.37,55.37,0,0,1-2,15A38.84,38.84,0,0,1,803.84,120a30.63,30.63,0,0,1-10.22,8.85,29.77,29.77,0,0,1-14.33,3.3,28,28,0,0,1-12.74-2.92,24.43,24.43,0,0,1-9.58-8.62h-0.29v36.75H736.23V52.67h19.44Zm26.57,61.5a16.72,16.72,0,0,0,5.47-5.48,23.14,23.14,0,0,0,3-7.87,48.39,48.39,0,0,0,.86-9.15,44.82,44.82,0,0,0-.94-9.15,25,25,0,0,0-3.1-8A17.65,17.65,0,0,0,782,68.8a15,15,0,0,0-8.28-2.17,15.29,15.29,0,0,0-8.42,2.17,17.15,17.15,0,0,0-5.47,5.63,23.94,23.94,0,0,0-3,8,49.21,49.21,0,0,0-.86,9.3,44.73,44.73,0,0,0,.94,9.15,24.2,24.2,0,0,0,3,7.88,16.47,16.47,0,0,0,5.54,5.48A17.81,17.81,0,0,0,782.24,114.17Z"/><path d="M833.72,111.62q4.61,4.65,13.25,4.65A17.7,17.7,0,0,0,857.62,113q4.46-3.22,5.47-6.83h18q-4.32,13.95-13.25,20t-21.6,6a41,41,0,0,1-15.84-2.92,32.88,32.88,0,0,1-12-8.33,37.74,37.74,0,0,1-7.56-12.9,49,49,0,0,1-2.66-16.5A46.91,46.91,0,0,1,811,75.32a38.25,38.25,0,0,1,7.78-13,36.58,36.58,0,0,1,12-8.62,37.23,37.23,0,0,1,15.48-3.15,34.24,34.24,0,0,1,16.56,3.83A33.48,33.48,0,0,1,874.4,64.67,43.1,43.1,0,0,1,881,79.37a57.06,57.06,0,0,1,1.44,17.25H828.68Q829.11,107,833.72,111.62Zm23.11-40.8q-3.67-4.2-11.16-4.2a17.2,17.2,0,0,0-8.14,1.72,15.64,15.64,0,0,0-5.18,4.28,15.9,15.9,0,0,0-2.74,5.4,25.27,25.27,0,0,0-.94,5.1h33.26Q860.5,75,856.83,70.82Z"/><path d="M899.31,110.95a12.28,12.28,0,0,0,3.53,4.05,14.82,14.82,0,0,0,5,2.32,22.42,22.42,0,0,0,5.83.75,20.94,20.94,0,0,0,4.54-.52,15,15,0,0,0,4.32-1.65,9.93,9.93,0,0,0,3.24-3,8.11,8.11,0,0,0,1.3-4.72q0-4.8-6.12-7.2a118.75,118.75,0,0,0-17.06-4.8q-4.46-1-8.71-2.48a29.18,29.18,0,0,1-7.56-3.75,17.91,17.91,0,0,1-5.33-5.85,17.11,17.11,0,0,1-2-8.62q0-7.5,2.81-12.3a21.12,21.12,0,0,1,7.42-7.58,31.68,31.68,0,0,1,10.37-3.9,61.45,61.45,0,0,1,11.81-1.12,56.81,56.81,0,0,1,11.74,1.2,30.39,30.39,0,0,1,10.15,4,23.83,23.83,0,0,1,7.42,7.58,26.22,26.22,0,0,1,3.53,11.92H926q-0.43-6.15-4.46-8.32a19.74,19.74,0,0,0-9.5-2.18,33.81,33.81,0,0,0-3.74.23,12.08,12.08,0,0,0-3.67,1,7.62,7.62,0,0,0-2.81,2.17,6.6,6.6,0,0,0,.86,8.48,15.35,15.35,0,0,0,5.26,2.92,63.55,63.55,0,0,0,7.42,2q4.17,0.9,8.5,1.95a84.34,84.34,0,0,1,8.71,2.55,28.27,28.27,0,0,1,7.56,4,19,19,0,0,1,5.33,6.15,18.68,18.68,0,0,1,2,9.07,25.57,25.57,0,0,1-3,12.83,24.19,24.19,0,0,1-7.7,8.33,30.84,30.84,0,0,1-10.87,4.42,61,61,0,0,1-12.46,1.28,59.29,59.29,0,0,1-12.67-1.35,32.63,32.63,0,0,1-11-4.5,25.24,25.24,0,0,1-7.92-8.32,26.87,26.87,0,0,1-3.38-13h19.44A12.05,12.05,0,0,0,899.31,110.95Z"/><path d="M970.51,107.12v23.1H947.91v-23.1h22.61Z"/><path d="M1010.26,66.62a13.94,13.94,0,0,0-8.21,2.32,18.2,18.2,0,0,0-5.4,6,26.61,26.61,0,0,0-3,8.1,45.7,45.7,0,0,0-.86,8.77,43.8,43.8,0,0,0,.86,8.55,27.13,27.13,0,0,0,2.81,7.88,16.51,16.51,0,0,0,5.26,5.77,14,14,0,0,0,8.06,2.25q7.34,0,11.3-4.27t5-11.48h19.73q-2,15.45-11.52,23.55t-24.34,8.1a39.32,39.32,0,0,1-15.34-2.92,33.89,33.89,0,0,1-11.88-8.18,37.39,37.39,0,0,1-7.63-12.52,45,45,0,0,1-2.74-16,53.65,53.65,0,0,1,2.52-16.72,38,38,0,0,1,7.42-13.35,34,34,0,0,1,12-8.78,39.18,39.18,0,0,1,16.13-3.15,44.93,44.93,0,0,1,12.74,1.8,33.47,33.47,0,0,1,10.94,5.47,29,29,0,0,1,7.85,9.15,30.1,30.1,0,0,1,3.46,13h-20Q1023.36,66.62,1010.26,66.62Z"/><path d="M1045.39,74.65a36.53,36.53,0,0,1,7.78-12.9,34.75,34.75,0,0,1,12.1-8.25,41,41,0,0,1,15.84-2.93A41.56,41.56,0,0,1,1097,53.5a34.62,34.62,0,0,1,12.17,8.25,36.59,36.59,0,0,1,7.78,12.9,49.44,49.44,0,0,1,2.74,16.88,48.78,48.78,0,0,1-2.74,16.8,36.65,36.65,0,0,1-7.78,12.83,33.76,33.76,0,0,1-12.17,8.17,42.56,42.56,0,0,1-15.91,2.85,42,42,0,0,1-15.84-2.85,33.87,33.87,0,0,1-12.1-8.17,36.59,36.59,0,0,1-7.78-12.83,48.71,48.71,0,0,1-2.74-16.8A49.37,49.37,0,0,1,1045.39,74.65Zm18.58,26a24.73,24.73,0,0,0,3,8,16,16,0,0,0,5.54,5.63,16.37,16.37,0,0,0,8.64,2.1,16.76,16.76,0,0,0,8.71-2.1,15.85,15.85,0,0,0,5.62-5.62,24.78,24.78,0,0,0,3-8,47.22,47.22,0,0,0,.86-9.08,48.41,48.41,0,0,0-.86-9.15,24,24,0,0,0-3-8,16.72,16.72,0,0,0-5.62-5.62,16.33,16.33,0,0,0-8.71-2.17,16,16,0,0,0-8.64,2.17,16.9,16.9,0,0,0-5.54,5.63,23.92,23.92,0,0,0-3,8,48.49,48.49,0,0,0-.86,9.15A47.3,47.3,0,0,0,1064,100.6Z"/><path d="M1140.43,52.67v10.5h0.29a29.57,29.57,0,0,1,9.72-9.3,25.5,25.5,0,0,1,13-3.3,29,29,0,0,1,12.89,2.85q5.83,2.85,8.86,10a32.34,32.34,0,0,1,9-9,23.23,23.23,0,0,1,13.46-3.9,38.3,38.3,0,0,1,10.94,1.5,21.8,21.8,0,0,1,8.64,4.8,22.08,22.08,0,0,1,5.62,8.63,36.3,36.3,0,0,1,2,12.82v51.9h-20.45v-44q0-3.9-.29-7.35a16.13,16.13,0,0,0-1.58-6,9.83,9.83,0,0,0-3.82-4,13.35,13.35,0,0,0-6.84-1.5,12.67,12.67,0,0,0-7,1.72,12.27,12.27,0,0,0-4.18,4.5,18.54,18.54,0,0,0-2,6.3,50,50,0,0,0-.5,7.13v43.2h-20.45V86.72q0-3.45-.14-6.83a19.85,19.85,0,0,0-1.22-6.22,9.52,9.52,0,0,0-3.6-4.58q-2.52-1.72-7.42-1.72a14.75,14.75,0,0,0-3.82.67A12.51,12.51,0,0,0,1147,70.6a14.86,14.86,0,0,0-3.82,5.4,22.7,22.7,0,0,0-1.58,9.22v45h-20.45V52.67h19.29Z"/><path d="M1262.11,107.12v23.1H1239.5v-23.1h22.61Z"/><path d="M1334.83,52.67V66.92h-15v38.4q0,5.4,1.73,7.2t6.91,1.8q1.73,0,3.31-.15a27,27,0,0,0,3-.45v16.5a47,47,0,0,1-5.76.6q-3.17.15-6.19,0.15a57.31,57.31,0,0,1-9-.67,20.64,20.64,0,0,1-7.49-2.62,13.64,13.64,0,0,1-5.11-5.55,20.5,20.5,0,0,1-1.87-9.45V66.92H1287V52.67h12.38V29.42h20.45V52.67h15Z"/><path d="M1352.69,23.12V63.47h0.43a24.12,24.12,0,0,1,9.94-9.83,26,26,0,0,1,11.81-3.08q8.21,0,13.46,2.33a20.09,20.09,0,0,1,8.28,6.45,25.51,25.51,0,0,1,4.25,10,65.15,65.15,0,0,1,1.22,13.13v47.7h-20.45V86.42q0-9.6-2.88-14.33t-10.22-4.72q-8.35,0-12.1,5.17t-3.74,17v40.65h-20.45V23.12h20.45Z"/><path d="M1427.13,111.62q4.61,4.65,13.25,4.65A17.7,17.7,0,0,0,1451,113q4.46-3.22,5.47-6.83h18q-4.32,13.95-13.25,20t-21.6,6a41,41,0,0,1-15.84-2.92,32.88,32.88,0,0,1-12-8.33,37.74,37.74,0,0,1-7.56-12.9,49,49,0,0,1-2.66-16.5,46.91,46.91,0,0,1,2.74-16.2,38.25,38.25,0,0,1,7.78-13,36.59,36.59,0,0,1,12-8.62,37.22,37.22,0,0,1,15.48-3.15,34.24,34.24,0,0,1,16.56,3.83,33.48,33.48,0,0,1,11.59,10.28,43.08,43.08,0,0,1,6.55,14.7,57,57,0,0,1,1.44,17.25h-53.71Q1422.52,107,1427.13,111.62Zm23.11-40.8q-3.67-4.2-11.16-4.2a17.21,17.21,0,0,0-8.14,1.72,15.63,15.63,0,0,0-5.18,4.28A15.89,15.89,0,0,0,1423,78a25.2,25.2,0,0,0-.94,5.1h33.26Q1453.91,75,1450.24,70.82Z"/><path d="M18.67,259.67v14.25H3.7v38.4q0,5.4,1.73,7.2t6.91,1.8q1.73,0,3.31-.15a27,27,0,0,0,3-.45v16.5a47,47,0,0,1-5.76.6Q9.74,338,6.72,338a57.32,57.32,0,0,1-9-.67,20.64,20.64,0,0,1-7.49-2.62,13.65,13.65,0,0,1-5.11-5.55,20.5,20.5,0,0,1-1.87-9.45V273.92H-29.14V259.67h12.38V236.42H3.7v23.25h15Z"/><path d="M36.53,230.12v40.35H37a24.12,24.12,0,0,1,9.94-9.83,26,26,0,0,1,11.81-3.08q8.21,0,13.46,2.33a20.08,20.08,0,0,1,8.28,6.45,25.5,25.5,0,0,1,4.25,10,65.15,65.15,0,0,1,1.22,13.13v47.7H65.47v-43.8q0-9.6-2.88-14.33t-10.22-4.72q-8.35,0-12.1,5.17t-3.74,17v40.65H16.08V230.12H36.53Z"/><path d="M111,318.62q4.61,4.65,13.25,4.65A17.7,17.7,0,0,0,134.88,320q4.46-3.22,5.47-6.83h18q-4.32,13.95-13.25,20t-21.6,6a41,41,0,0,1-15.84-2.92,32.88,32.88,0,0,1-12-8.33A37.74,37.74,0,0,1,88.15,315a49,49,0,0,1-2.66-16.5,46.91,46.91,0,0,1,2.74-16.2,38.25,38.25,0,0,1,7.78-13,36.58,36.58,0,0,1,12-8.62,37.22,37.22,0,0,1,15.48-3.15,34.24,34.24,0,0,1,16.56,3.83,33.47,33.47,0,0,1,11.59,10.28,43.07,43.07,0,0,1,6.55,14.7,57,57,0,0,1,1.44,17.25H105.93Q106.36,314,111,318.62Zm23.11-40.8q-3.67-4.2-11.16-4.2a17.2,17.2,0,0,0-8.14,1.72,15.63,15.63,0,0,0-5.18,4.28,15.88,15.88,0,0,0-2.74,5.4,25.23,25.23,0,0,0-.94,5.1H139.2Q137.76,282,134.08,277.82Z"/><path d="M179.8,230.12v39h0.29a22.06,22.06,0,0,1,10.15-8.78,33.18,33.18,0,0,1,13.32-2.78,27.4,27.4,0,0,1,11.09,2.4,28.47,28.47,0,0,1,9.86,7.35A38,38,0,0,1,231.64,280a63.07,63.07,0,0,1,0,36.75,38,38,0,0,1-7.13,12.67,28.45,28.45,0,0,1-9.86,7.35,27.4,27.4,0,0,1-11.09,2.4,37.89,37.89,0,0,1-14.69-2.7,18.92,18.92,0,0,1-9.79-9.15h-0.29v9.9H159.35V230.12H179.8Zm33.12,58.95a25.27,25.27,0,0,0-3.17-7.95,16.93,16.93,0,0,0-5.4-5.48,16.08,16.08,0,0,0-15.62,0,16.66,16.66,0,0,0-5.47,5.48,25.25,25.25,0,0,0-3.17,7.95,43.11,43.11,0,0,0-1,9.45,42.38,42.38,0,0,0,1,9.3,25.24,25.24,0,0,0,3.17,8,16.65,16.65,0,0,0,5.47,5.48,16.08,16.08,0,0,0,15.62,0,16.91,16.91,0,0,0,5.4-5.48,25.26,25.26,0,0,0,3.17-8,42.47,42.47,0,0,0,1-9.3A43.19,43.19,0,0,0,212.92,289.07Z"/><path d="M235.39,281.65a36.54,36.54,0,0,1,7.78-12.9,34.75,34.75,0,0,1,12.1-8.25,41,41,0,0,1,15.84-2.93A41.56,41.56,0,0,1,287,260.5a34.63,34.63,0,0,1,12.17,8.25,36.61,36.61,0,0,1,7.78,12.9,49.44,49.44,0,0,1,2.74,16.88,48.78,48.78,0,0,1-2.74,16.8,36.67,36.67,0,0,1-7.78,12.83A33.76,33.76,0,0,1,287,336.32a42.56,42.56,0,0,1-15.91,2.85,42,42,0,0,1-15.84-2.85,33.87,33.87,0,0,1-12.1-8.17,36.6,36.6,0,0,1-7.78-12.83,48.72,48.72,0,0,1-2.74-16.8A49.38,49.38,0,0,1,235.39,281.65Zm18.58,26a24.75,24.75,0,0,0,3,8,16,16,0,0,0,5.54,5.63,16.37,16.37,0,0,0,8.64,2.1,16.76,16.76,0,0,0,8.71-2.1,15.86,15.86,0,0,0,5.62-5.62,24.8,24.8,0,0,0,3-8,47.22,47.22,0,0,0,.86-9.08,48.41,48.41,0,0,0-.86-9.15,24,24,0,0,0-3-8,16.72,16.72,0,0,0-5.62-5.62,16.33,16.33,0,0,0-8.71-2.17,16,16,0,0,0-8.64,2.17,16.91,16.91,0,0,0-5.54,5.63,23.94,23.94,0,0,0-3,8,48.45,48.45,0,0,0-.86,9.15A47.26,47.26,0,0,0,254,307.6Z"/><path d="M311,281.65a36.53,36.53,0,0,1,7.78-12.9,34.75,34.75,0,0,1,12.1-8.25,41,41,0,0,1,15.84-2.93,41.56,41.56,0,0,1,15.91,2.93,34.63,34.63,0,0,1,12.17,8.25,36.6,36.6,0,0,1,7.78,12.9,49.43,49.43,0,0,1,2.74,16.88,48.77,48.77,0,0,1-2.74,16.8,36.66,36.66,0,0,1-7.78,12.83,33.76,33.76,0,0,1-12.17,8.17,42.56,42.56,0,0,1-15.91,2.85,42,42,0,0,1-15.84-2.85,33.87,33.87,0,0,1-12.1-8.17A36.59,36.59,0,0,1,311,315.32a48.71,48.71,0,0,1-2.74-16.8A49.37,49.37,0,0,1,311,281.65Zm18.58,26a24.74,24.74,0,0,0,3,8,16,16,0,0,0,5.54,5.63,16.37,16.37,0,0,0,8.64,2.1,16.76,16.76,0,0,0,8.71-2.1,15.85,15.85,0,0,0,5.62-5.62,24.8,24.8,0,0,0,3-8,47.26,47.26,0,0,0,.86-9.08,48.45,48.45,0,0,0-.86-9.15,24,24,0,0,0-3-8,16.72,16.72,0,0,0-5.62-5.62,16.33,16.33,0,0,0-8.71-2.17,16,16,0,0,0-8.64,2.17,16.9,16.9,0,0,0-5.54,5.63,23.93,23.93,0,0,0-3,8,48.45,48.45,0,0,0-.86,9.15A47.26,47.26,0,0,0,329.56,307.6Z"/><path d="M408.47,230.12v57.45l25.78-27.9h24.19l-28.08,28.5,31.25,49H436.84l-20.45-34.65-7.92,8v26.7H388V230.12h20.45Z"/><path d="M453.85,281.65a36.54,36.54,0,0,1,7.78-12.9,34.75,34.75,0,0,1,12.1-8.25,41,41,0,0,1,15.84-2.93,41.56,41.56,0,0,1,15.91,2.93,34.62,34.62,0,0,1,12.17,8.25,36.6,36.6,0,0,1,7.78,12.9,49.43,49.43,0,0,1,2.74,16.88,48.77,48.77,0,0,1-2.74,16.8,36.66,36.66,0,0,1-7.78,12.83,33.76,33.76,0,0,1-12.17,8.17,42.56,42.56,0,0,1-15.91,2.85,42,42,0,0,1-15.84-2.85,33.87,33.87,0,0,1-12.1-8.17,36.6,36.6,0,0,1-7.78-12.83,48.72,48.72,0,0,1-2.74-16.8A49.38,49.38,0,0,1,453.85,281.65Zm18.58,26a24.74,24.74,0,0,0,3,8,16,16,0,0,0,5.54,5.63,16.37,16.37,0,0,0,8.64,2.1,16.76,16.76,0,0,0,8.71-2.1,15.85,15.85,0,0,0,5.62-5.62,24.8,24.8,0,0,0,3-8,47.26,47.26,0,0,0,.86-9.08,48.45,48.45,0,0,0-.86-9.15,24,24,0,0,0-3-8,16.71,16.71,0,0,0-5.62-5.62,16.33,16.33,0,0,0-8.71-2.17,16,16,0,0,0-8.64,2.17,16.9,16.9,0,0,0-5.54,5.63,23.93,23.93,0,0,0-3,8,48.41,48.41,0,0,0-.86,9.15A47.22,47.22,0,0,0,472.43,307.6Z"/><path d="M521.25,273.92V259.67h12.24v-6q0-10.35,6.19-17t18.72-6.6q2.73,0,5.47.22t5.33,0.38v15.9a60.22,60.22,0,0,0-7.49-.45q-4.18,0-6,2t-1.8,6.83v4.65H568v14.25H553.93v63.3H533.49v-63.3H521.25Z"/><path d="M581.8,317.95a12.29,12.29,0,0,0,3.53,4.05,14.82,14.82,0,0,0,5,2.32,22.42,22.42,0,0,0,5.83.75,20.93,20.93,0,0,0,4.54-.52A15,15,0,0,0,605,322.9a10,10,0,0,0,3.24-3,8.12,8.12,0,0,0,1.3-4.72q0-4.8-6.12-7.2a118.77,118.77,0,0,0-17.06-4.8q-4.46-1-8.71-2.48a29.15,29.15,0,0,1-7.56-3.75,17.89,17.89,0,0,1-5.33-5.85,17.1,17.1,0,0,1-2-8.62q0-7.5,2.81-12.3a21.13,21.13,0,0,1,7.42-7.58,31.69,31.69,0,0,1,10.37-3.9,61.44,61.44,0,0,1,11.81-1.12,56.8,56.8,0,0,1,11.74,1.2,30.39,30.39,0,0,1,10.15,4,23.83,23.83,0,0,1,7.42,7.58,26.22,26.22,0,0,1,3.53,11.92H608.51q-0.43-6.15-4.46-8.32a19.74,19.74,0,0,0-9.5-2.18,33.82,33.82,0,0,0-3.74.23,12.09,12.09,0,0,0-3.67,1,7.61,7.61,0,0,0-2.81,2.17,6.6,6.6,0,0,0,.86,8.48,15.35,15.35,0,0,0,5.26,2.92,63.55,63.55,0,0,0,7.42,2q4.17,0.9,8.5,1.95a84.43,84.43,0,0,1,8.71,2.55,28.28,28.28,0,0,1,7.56,4,19,19,0,0,1,5.33,6.15,18.68,18.68,0,0,1,2,9.07,25.57,25.57,0,0,1-3,12.83,24.19,24.19,0,0,1-7.7,8.33,30.84,30.84,0,0,1-10.87,4.42A61,61,0,0,1,596,339.17a59.27,59.27,0,0,1-12.67-1.35,32.65,32.65,0,0,1-11-4.5,25.24,25.24,0,0,1-7.92-8.32A26.88,26.88,0,0,1,561,312h19.44A12.05,12.05,0,0,0,581.8,317.95Z"/><path d="M670.43,259.67v14.25h-15v38.4q0,5.4,1.73,7.2t6.91,1.8q1.73,0,3.31-.15a27,27,0,0,0,3-.45v16.5a46.93,46.93,0,0,1-5.76.6q-3.17.15-6.19,0.15a57.31,57.31,0,0,1-9-.67,20.64,20.64,0,0,1-7.49-2.62,13.64,13.64,0,0,1-5.11-5.55,20.5,20.5,0,0,1-1.87-9.45V273.92H622.62V259.67H635V236.42h20.45v23.25h15Z"/><path d="M687.27,259.67v14.4h0.29a26.36,26.36,0,0,1,3.89-6.67,25.89,25.89,0,0,1,5.62-5.25,27.06,27.06,0,0,1,6.77-3.37,23.55,23.55,0,0,1,7.49-1.2,15.41,15.41,0,0,1,4.46.75v19.8q-1.44-.3-3.46-0.53a35,35,0,0,0-3.89-.22,21.07,21.07,0,0,0-9.5,1.95,16.63,16.63,0,0,0-6.26,5.33,21.77,21.77,0,0,0-3.38,7.88,44.53,44.53,0,0,0-1,9.75v35H667.83V259.67h19.44Z"/><path d="M712,247.67V230.12h20.45v17.55H712Zm20.45,12v77.55H712V259.67h20.45Z"/><path d="M755.67,259.67v9.9H756a22.86,22.86,0,0,1,9.5-9.15,28.2,28.2,0,0,1,12.67-2.85A31.2,31.2,0,0,1,793.25,261a31.61,31.61,0,0,1,10.51,9.15A39.41,39.41,0,0,1,810,283.45a61.3,61.3,0,0,1,2,15.83,55.37,55.37,0,0,1-2,15A38.84,38.84,0,0,1,803.84,327a30.63,30.63,0,0,1-10.22,8.85,29.77,29.77,0,0,1-14.33,3.3,28,28,0,0,1-12.74-2.92,24.43,24.43,0,0,1-9.58-8.62h-0.29v36.75H736.23V259.67h19.44Zm26.57,61.5a16.72,16.72,0,0,0,5.47-5.48,23.14,23.14,0,0,0,3-7.87,48.39,48.39,0,0,0,.86-9.15,44.82,44.82,0,0,0-.94-9.15,25,25,0,0,0-3.1-8,17.65,17.65,0,0,0-5.54-5.7,15,15,0,0,0-8.28-2.17,15.29,15.29,0,0,0-8.42,2.17,17.15,17.15,0,0,0-5.47,5.63,23.94,23.94,0,0,0-3,8,49.21,49.21,0,0,0-.86,9.3,44.73,44.73,0,0,0,.94,9.15,24.2,24.2,0,0,0,3,7.88,16.47,16.47,0,0,0,5.54,5.48A17.81,17.81,0,0,0,782.24,321.17Z"/><path d="M833.72,318.62q4.61,4.65,13.25,4.65A17.7,17.7,0,0,0,857.62,320q4.46-3.22,5.47-6.83h18q-4.32,13.95-13.25,20t-21.6,6a41,41,0,0,1-15.84-2.92,32.88,32.88,0,0,1-12-8.33,37.74,37.74,0,0,1-7.56-12.9,49,49,0,0,1-2.66-16.5,46.91,46.91,0,0,1,2.74-16.2,38.25,38.25,0,0,1,7.78-13,36.58,36.58,0,0,1,12-8.62,37.23,37.23,0,0,1,15.48-3.15,34.24,34.24,0,0,1,16.56,3.83,33.48,33.48,0,0,1,11.59,10.28,43.1,43.1,0,0,1,6.55,14.7,57.06,57.06,0,0,1,1.44,17.25H828.68Q829.11,314,833.72,318.62Zm23.11-40.8q-3.67-4.2-11.16-4.2a17.2,17.2,0,0,0-8.14,1.72,15.64,15.64,0,0,0-5.18,4.28,15.9,15.9,0,0,0-2.74,5.4,25.27,25.27,0,0,0-.94,5.1h33.26Q860.5,282,856.83,277.82Z"/><path d="M899.31,317.95a12.28,12.28,0,0,0,3.53,4.05,14.82,14.82,0,0,0,5,2.32,22.42,22.42,0,0,0,5.83.75,20.94,20.94,0,0,0,4.54-.52,15,15,0,0,0,4.32-1.65,9.93,9.93,0,0,0,3.24-3,8.11,8.11,0,0,0,1.3-4.72q0-4.8-6.12-7.2a118.75,118.75,0,0,0-17.06-4.8q-4.46-1-8.71-2.48a29.18,29.18,0,0,1-7.56-3.75,17.91,17.91,0,0,1-5.33-5.85,17.11,17.11,0,0,1-2-8.62q0-7.5,2.81-12.3a21.12,21.12,0,0,1,7.42-7.58,31.68,31.68,0,0,1,10.37-3.9,61.45,61.45,0,0,1,11.81-1.12,56.81,56.81,0,0,1,11.74,1.2,30.39,30.39,0,0,1,10.15,4,23.83,23.83,0,0,1,7.42,7.58,26.22,26.22,0,0,1,3.53,11.92H926q-0.43-6.15-4.46-8.32a19.74,19.74,0,0,0-9.5-2.18,33.81,33.81,0,0,0-3.74.23,12.08,12.08,0,0,0-3.67,1,7.62,7.62,0,0,0-2.81,2.17,6.6,6.6,0,0,0,.86,8.48,15.35,15.35,0,0,0,5.26,2.92,63.55,63.55,0,0,0,7.42,2q4.17,0.9,8.5,1.95a84.34,84.34,0,0,1,8.71,2.55,28.27,28.27,0,0,1,7.56,4,19,19,0,0,1,5.33,6.15,18.68,18.68,0,0,1,2,9.07,25.57,25.57,0,0,1-3,12.83,24.19,24.19,0,0,1-7.7,8.33,30.84,30.84,0,0,1-10.87,4.42,61,61,0,0,1-12.46,1.28,59.29,59.29,0,0,1-12.67-1.35,32.63,32.63,0,0,1-11-4.5,25.24,25.24,0,0,1-7.92-8.32,26.87,26.87,0,0,1-3.38-13h19.44A12.05,12.05,0,0,0,899.31,317.95Z"/><path d="M970.51,314.12v23.1H947.91v-23.1h22.61Z"/><path d="M1010.26,273.62a13.94,13.94,0,0,0-8.21,2.32,18.2,18.2,0,0,0-5.4,6,26.61,26.61,0,0,0-3,8.1,45.7,45.7,0,0,0-.86,8.77,43.8,43.8,0,0,0,.86,8.55,27.13,27.13,0,0,0,2.81,7.88,16.51,16.51,0,0,0,5.26,5.77,14,14,0,0,0,8.06,2.25q7.34,0,11.3-4.27t5-11.48h19.73q-2,15.45-11.52,23.55t-24.34,8.1a39.32,39.32,0,0,1-15.34-2.92,33.89,33.89,0,0,1-11.88-8.18,37.39,37.39,0,0,1-7.63-12.52,45,45,0,0,1-2.74-16,53.65,53.65,0,0,1,2.52-16.72,38,38,0,0,1,7.42-13.35,34,34,0,0,1,12-8.78,39.18,39.18,0,0,1,16.13-3.15,44.93,44.93,0,0,1,12.74,1.8,33.47,33.47,0,0,1,10.94,5.47,29,29,0,0,1,7.85,9.15,30.1,30.1,0,0,1,3.46,13h-20Q1023.36,273.62,1010.26,273.62Z"/><path d="M1045.39,281.65a36.53,36.53,0,0,1,7.78-12.9,34.75,34.75,0,0,1,12.1-8.25,41,41,0,0,1,15.84-2.93A41.56,41.56,0,0,1,1097,260.5a34.62,34.62,0,0,1,12.17,8.25,36.59,36.59,0,0,1,7.78,12.9,49.44,49.44,0,0,1,2.74,16.88,48.78,48.78,0,0,1-2.74,16.8,36.65,36.65,0,0,1-7.78,12.83,33.76,33.76,0,0,1-12.17,8.17,42.56,42.56,0,0,1-15.91,2.85,42,42,0,0,1-15.84-2.85,33.87,33.87,0,0,1-12.1-8.17,36.59,36.59,0,0,1-7.78-12.83,48.71,48.71,0,0,1-2.74-16.8A49.37,49.37,0,0,1,1045.39,281.65Zm18.58,26a24.73,24.73,0,0,0,3,8,16,16,0,0,0,5.54,5.63,16.37,16.37,0,0,0,8.64,2.1,16.76,16.76,0,0,0,8.71-2.1,15.85,15.85,0,0,0,5.62-5.62,24.78,24.78,0,0,0,3-8,47.22,47.22,0,0,0,.86-9.08,48.41,48.41,0,0,0-.86-9.15,24,24,0,0,0-3-8,16.72,16.72,0,0,0-5.62-5.62,16.33,16.33,0,0,0-8.71-2.17,16,16,0,0,0-8.64,2.17,16.9,16.9,0,0,0-5.54,5.63,23.92,23.92,0,0,0-3,8,48.49,48.49,0,0,0-.86,9.15A47.3,47.3,0,0,0,1064,307.6Z"/><path d="M1140.43,259.67v10.5h0.29a29.57,29.57,0,0,1,9.72-9.3,25.5,25.5,0,0,1,13-3.3,29,29,0,0,1,12.89,2.85q5.83,2.85,8.86,10a32.34,32.34,0,0,1,9-9,23.23,23.23,0,0,1,13.46-3.9,38.3,38.3,0,0,1,10.94,1.5,21.8,21.8,0,0,1,8.64,4.8,22.08,22.08,0,0,1,5.62,8.63,36.3,36.3,0,0,1,2,12.82v51.9h-20.45v-44q0-3.9-.29-7.35a16.13,16.13,0,0,0-1.58-6,9.83,9.83,0,0,0-3.82-4,13.35,13.35,0,0,0-6.84-1.5,12.67,12.67,0,0,0-7,1.72,12.27,12.27,0,0,0-4.18,4.5,18.54,18.54,0,0,0-2,6.3,50,50,0,0,0-.5,7.13v43.2h-20.45v-43.5q0-3.45-.14-6.83a19.85,19.85,0,0,0-1.22-6.22,9.52,9.52,0,0,0-3.6-4.58q-2.52-1.72-7.42-1.72a14.75,14.75,0,0,0-3.82.67,12.51,12.51,0,0,0-4.61,2.55,14.86,14.86,0,0,0-3.82,5.4,22.7,22.7,0,0,0-1.58,9.22v45h-20.45V259.67h19.29Z"/><path d="M1262.11,314.12v23.1H1239.5v-23.1h22.61Z"/><path d="M1334.83,259.67v14.25h-15v38.4q0,5.4,1.73,7.2t6.91,1.8q1.73,0,3.31-.15a27,27,0,0,0,3-.45v16.5a47,47,0,0,1-5.76.6q-3.17.15-6.19,0.15a57.31,57.31,0,0,1-9-.67,20.64,20.64,0,0,1-7.49-2.62,13.64,13.64,0,0,1-5.11-5.55,20.5,20.5,0,0,1-1.87-9.45V273.92H1287V259.67h12.38V236.42h20.45v23.25h15Z"/><path d="M1352.69,230.12v40.35h0.43a24.12,24.12,0,0,1,9.94-9.83,26,26,0,0,1,11.81-3.08q8.21,0,13.46,2.33a20.09,20.09,0,0,1,8.28,6.45,25.51,25.51,0,0,1,4.25,10,65.15,65.15,0,0,1,1.22,13.13v47.7h-20.45v-43.8q0-9.6-2.88-14.33t-10.22-4.72q-8.35,0-12.1,5.17t-3.74,17v40.65h-20.45V230.12h20.45Z"/><path d="M1427.13,318.62q4.61,4.65,13.25,4.65A17.7,17.7,0,0,0,1451,320q4.46-3.22,5.47-6.83h18q-4.32,13.95-13.25,20t-21.6,6a41,41,0,0,1-15.84-2.92,32.88,32.88,0,0,1-12-8.33,37.74,37.74,0,0,1-7.56-12.9,49,49,0,0,1-2.66-16.5,46.91,46.91,0,0,1,2.74-16.2,38.25,38.25,0,0,1,7.78-13,36.59,36.59,0,0,1,12-8.62,37.22,37.22,0,0,1,15.48-3.15,34.24,34.24,0,0,1,16.56,3.83,33.48,33.48,0,0,1,11.59,10.28,43.08,43.08,0,0,1,6.55,14.7,57,57,0,0,1,1.44,17.25h-53.71Q1422.52,314,1427.13,318.62Zm23.11-40.8q-3.67-4.2-11.16-4.2a17.21,17.21,0,0,0-8.14,1.72,15.63,15.63,0,0,0-5.18,4.28A15.89,15.89,0,0,0,1423,285a25.2,25.2,0,0,0-.94,5.1h33.26Q1453.91,282,1450.24,277.82Z"/><path d="M18.67,466.67v14.25H3.7v38.4q0,5.4,1.73,7.2t6.91,1.8q1.73,0,3.31-.15a27,27,0,0,0,3-.45v16.5a47,47,0,0,1-5.76.6Q9.74,545,6.72,545a57.32,57.32,0,0,1-9-.67,20.64,20.64,0,0,1-7.49-2.62,13.65,13.65,0,0,1-5.11-5.55,20.5,20.5,0,0,1-1.87-9.45V480.92H-29.14V466.67h12.38V443.42H3.7v23.25h15Z"/><path d="M36.53,437.12v40.35H37a24.12,24.12,0,0,1,9.94-9.83,26,26,0,0,1,11.81-3.08q8.21,0,13.46,2.33a20.08,20.08,0,0,1,8.28,6.45,25.5,25.5,0,0,1,4.25,10,65.15,65.15,0,0,1,1.22,13.13v47.7H65.47v-43.8q0-9.6-2.88-14.33t-10.22-4.72q-8.35,0-12.1,5.17t-3.74,17v40.65H16.08V437.12H36.53Z"/><path d="M111,525.62q4.61,4.65,13.25,4.65A17.7,17.7,0,0,0,134.88,527q4.46-3.22,5.47-6.83h18q-4.32,13.95-13.25,20t-21.6,6a41,41,0,0,1-15.84-2.92,32.88,32.88,0,0,1-12-8.33A37.74,37.74,0,0,1,88.15,522a49,49,0,0,1-2.66-16.5,46.91,46.91,0,0,1,2.74-16.2,38.25,38.25,0,0,1,7.78-13,36.58,36.58,0,0,1,12-8.62,37.22,37.22,0,0,1,15.48-3.15,34.24,34.24,0,0,1,16.56,3.83,33.47,33.47,0,0,1,11.59,10.28,43.07,43.07,0,0,1,6.55,14.7,57,57,0,0,1,1.44,17.25H105.93Q106.36,521,111,525.62Zm23.11-40.8q-3.67-4.2-11.16-4.2a17.2,17.2,0,0,0-8.14,1.72,15.63,15.63,0,0,0-5.18,4.28,15.88,15.88,0,0,0-2.74,5.4,25.23,25.23,0,0,0-.94,5.1H139.2Q137.76,489,134.08,484.82Z"/><path d="M179.8,437.12v39h0.29a22.06,22.06,0,0,1,10.15-8.78,33.18,33.18,0,0,1,13.32-2.78,27.4,27.4,0,0,1,11.09,2.4,28.47,28.47,0,0,1,9.86,7.35A38,38,0,0,1,231.64,487a63.07,63.07,0,0,1,0,36.75,38,38,0,0,1-7.13,12.67,28.45,28.45,0,0,1-9.86,7.35,27.4,27.4,0,0,1-11.09,2.4,37.89,37.89,0,0,1-14.69-2.7,18.92,18.92,0,0,1-9.79-9.15h-0.29v9.9H159.35V437.12H179.8Zm33.12,58.95a25.27,25.27,0,0,0-3.17-7.95,16.93,16.93,0,0,0-5.4-5.48,16.08,16.08,0,0,0-15.62,0,16.66,16.66,0,0,0-5.47,5.48,25.25,25.25,0,0,0-3.17,7.95,43.11,43.11,0,0,0-1,9.45,42.38,42.38,0,0,0,1,9.3,25.24,25.24,0,0,0,3.17,8,16.65,16.65,0,0,0,5.47,5.48,16.08,16.08,0,0,0,15.62,0,16.91,16.91,0,0,0,5.4-5.48,25.26,25.26,0,0,0,3.17-8,42.47,42.47,0,0,0,1-9.3A43.19,43.19,0,0,0,212.92,496.07Z"/><path d="M235.39,488.65a36.54,36.54,0,0,1,7.78-12.9,34.75,34.75,0,0,1,12.1-8.25,41,41,0,0,1,15.84-2.93A41.56,41.56,0,0,1,287,467.5a34.63,34.63,0,0,1,12.17,8.25,36.61,36.61,0,0,1,7.78,12.9,49.44,49.44,0,0,1,2.74,16.88,48.78,48.78,0,0,1-2.74,16.8,36.67,36.67,0,0,1-7.78,12.83A33.76,33.76,0,0,1,287,543.32a42.56,42.56,0,0,1-15.91,2.85,42,42,0,0,1-15.84-2.85,33.87,33.87,0,0,1-12.1-8.17,36.6,36.6,0,0,1-7.78-12.83,48.72,48.72,0,0,1-2.74-16.8A49.38,49.38,0,0,1,235.39,488.65Zm18.58,26a24.75,24.75,0,0,0,3,8,16,16,0,0,0,5.54,5.63,16.37,16.37,0,0,0,8.64,2.1,16.76,16.76,0,0,0,8.71-2.1,15.86,15.86,0,0,0,5.62-5.62,24.8,24.8,0,0,0,3-8,47.22,47.22,0,0,0,.86-9.08,48.41,48.41,0,0,0-.86-9.15,24,24,0,0,0-3-8,16.72,16.72,0,0,0-5.62-5.62,16.33,16.33,0,0,0-8.71-2.17,16,16,0,0,0-8.64,2.17,16.91,16.91,0,0,0-5.54,5.63,23.94,23.94,0,0,0-3,8,48.45,48.45,0,0,0-.86,9.15A47.26,47.26,0,0,0,254,514.6Z"/><path d="M311,488.65a36.53,36.53,0,0,1,7.78-12.9,34.75,34.75,0,0,1,12.1-8.25,41,41,0,0,1,15.84-2.93,41.56,41.56,0,0,1,15.91,2.93,34.63,34.63,0,0,1,12.17,8.25,36.6,36.6,0,0,1,7.78,12.9,49.43,49.43,0,0,1,2.74,16.88,48.77,48.77,0,0,1-2.74,16.8,36.66,36.66,0,0,1-7.78,12.83,33.76,33.76,0,0,1-12.17,8.17,42.56,42.56,0,0,1-15.91,2.85,42,42,0,0,1-15.84-2.85,33.87,33.87,0,0,1-12.1-8.17A36.59,36.59,0,0,1,311,522.32a48.71,48.71,0,0,1-2.74-16.8A49.37,49.37,0,0,1,311,488.65Zm18.58,26a24.74,24.74,0,0,0,3,8,16,16,0,0,0,5.54,5.63,16.37,16.37,0,0,0,8.64,2.1,16.76,16.76,0,0,0,8.71-2.1,15.85,15.85,0,0,0,5.62-5.62,24.8,24.8,0,0,0,3-8,47.26,47.26,0,0,0,.86-9.08,48.45,48.45,0,0,0-.86-9.15,24,24,0,0,0-3-8,16.72,16.72,0,0,0-5.62-5.62,16.33,16.33,0,0,0-8.71-2.17,16,16,0,0,0-8.64,2.17,16.9,16.9,0,0,0-5.54,5.63,23.93,23.93,0,0,0-3,8,48.45,48.45,0,0,0-.86,9.15A47.26,47.26,0,0,0,329.56,514.6Z"/><path d="M408.47,437.12v57.45l25.78-27.9h24.19l-28.08,28.5,31.25,49H436.84l-20.45-34.65-7.92,8v26.7H388V437.12h20.45Z"/><path d="M453.85,488.65a36.54,36.54,0,0,1,7.78-12.9,34.75,34.75,0,0,1,12.1-8.25,41,41,0,0,1,15.84-2.93,41.56,41.56,0,0,1,15.91,2.93,34.62,34.62,0,0,1,12.17,8.25,36.6,36.6,0,0,1,7.78,12.9,49.43,49.43,0,0,1,2.74,16.88,48.77,48.77,0,0,1-2.74,16.8,36.66,36.66,0,0,1-7.78,12.83,33.76,33.76,0,0,1-12.17,8.17,42.56,42.56,0,0,1-15.91,2.85,42,42,0,0,1-15.84-2.85,33.87,33.87,0,0,1-12.1-8.17,36.6,36.6,0,0,1-7.78-12.83,48.72,48.72,0,0,1-2.74-16.8A49.38,49.38,0,0,1,453.85,488.65Zm18.58,26a24.74,24.74,0,0,0,3,8,16,16,0,0,0,5.54,5.63,16.37,16.37,0,0,0,8.64,2.1,16.76,16.76,0,0,0,8.71-2.1,15.85,15.85,0,0,0,5.62-5.62,24.8,24.8,0,0,0,3-8,47.26,47.26,0,0,0,.86-9.08,48.45,48.45,0,0,0-.86-9.15,24,24,0,0,0-3-8,16.71,16.71,0,0,0-5.62-5.62,16.33,16.33,0,0,0-8.71-2.17,16,16,0,0,0-8.64,2.17,16.9,16.9,0,0,0-5.54,5.63,23.93,23.93,0,0,0-3,8,48.41,48.41,0,0,0-.86,9.15A47.22,47.22,0,0,0,472.43,514.6Z"/><path d="M521.25,480.92V466.67h12.24v-6q0-10.35,6.19-17t18.72-6.6q2.73,0,5.47.22t5.33,0.38v15.9a60.22,60.22,0,0,0-7.49-.45q-4.18,0-6,2t-1.8,6.83v4.65H568v14.25H553.93v63.3H533.49v-63.3H521.25Z"/><path d="M581.8,524.95a12.29,12.29,0,0,0,3.53,4.05,14.82,14.82,0,0,0,5,2.32,22.42,22.42,0,0,0,5.83.75,20.93,20.93,0,0,0,4.54-.52A15,15,0,0,0,605,529.9a10,10,0,0,0,3.24-3,8.12,8.12,0,0,0,1.3-4.72q0-4.8-6.12-7.2a118.77,118.77,0,0,0-17.06-4.8q-4.46-1-8.71-2.48a29.15,29.15,0,0,1-7.56-3.75,17.89,17.89,0,0,1-5.33-5.85,17.1,17.1,0,0,1-2-8.62q0-7.5,2.81-12.3a21.13,21.13,0,0,1,7.42-7.58,31.69,31.69,0,0,1,10.37-3.9,61.44,61.44,0,0,1,11.81-1.12,56.8,56.8,0,0,1,11.74,1.2,30.39,30.39,0,0,1,10.15,4,23.83,23.83,0,0,1,7.42,7.58,26.22,26.22,0,0,1,3.53,11.92H608.51q-0.43-6.15-4.46-8.32a19.74,19.74,0,0,0-9.5-2.18,33.82,33.82,0,0,0-3.74.23,12.09,12.09,0,0,0-3.67,1,7.61,7.61,0,0,0-2.81,2.17,6.6,6.6,0,0,0,.86,8.48,15.35,15.35,0,0,0,5.26,2.92,63.55,63.55,0,0,0,7.42,2q4.17,0.9,8.5,1.95a84.43,84.43,0,0,1,8.71,2.55,28.28,28.28,0,0,1,7.56,4,19,19,0,0,1,5.33,6.15,18.68,18.68,0,0,1,2,9.07,25.57,25.57,0,0,1-3,12.83,24.19,24.19,0,0,1-7.7,8.33,30.84,30.84,0,0,1-10.87,4.42A61,61,0,0,1,596,546.17a59.27,59.27,0,0,1-12.67-1.35,32.65,32.65,0,0,1-11-4.5,25.24,25.24,0,0,1-7.92-8.32A26.88,26.88,0,0,1,561,519h19.44A12.05,12.05,0,0,0,581.8,524.95Z"/><path d="M670.43,466.67v14.25h-15v38.4q0,5.4,1.73,7.2t6.91,1.8q1.73,0,3.31-.15a27,27,0,0,0,3-.45v16.5a46.93,46.93,0,0,1-5.76.6q-3.17.15-6.19,0.15a57.31,57.31,0,0,1-9-.67,20.64,20.64,0,0,1-7.49-2.62,13.64,13.64,0,0,1-5.11-5.55,20.5,20.5,0,0,1-1.87-9.45V480.92H622.62V466.67H635V443.42h20.45v23.25h15Z"/><path d="M687.27,466.67v14.4h0.29a26.36,26.36,0,0,1,3.89-6.67,25.89,25.89,0,0,1,5.62-5.25,27.06,27.06,0,0,1,6.77-3.37,23.55,23.55,0,0,1,7.49-1.2,15.41,15.41,0,0,1,4.46.75v19.8q-1.44-.3-3.46-0.53a35,35,0,0,0-3.89-.22,21.07,21.07,0,0,0-9.5,1.95,16.63,16.63,0,0,0-6.26,5.33,21.77,21.77,0,0,0-3.38,7.88,44.53,44.53,0,0,0-1,9.75v35H667.83V466.67h19.44Z"/><path d="M712,454.67V437.12h20.45v17.55H712Zm20.45,12v77.55H712V466.67h20.45Z"/><path d="M755.67,466.67v9.9H756a22.86,22.86,0,0,1,9.5-9.15,28.2,28.2,0,0,1,12.67-2.85A31.2,31.2,0,0,1,793.25,468a31.61,31.61,0,0,1,10.51,9.15A39.41,39.41,0,0,1,810,490.45a61.3,61.3,0,0,1,2,15.83,55.37,55.37,0,0,1-2,15A38.84,38.84,0,0,1,803.84,534a30.63,30.63,0,0,1-10.22,8.85,29.77,29.77,0,0,1-14.33,3.3,28,28,0,0,1-12.74-2.92,24.43,24.43,0,0,1-9.58-8.62h-0.29v36.75H736.23V466.67h19.44Zm26.57,61.5a16.72,16.72,0,0,0,5.47-5.48,23.14,23.14,0,0,0,3-7.87,48.39,48.39,0,0,0,.86-9.15,44.82,44.82,0,0,0-.94-9.15,25,25,0,0,0-3.1-8,17.65,17.65,0,0,0-5.54-5.7,15,15,0,0,0-8.28-2.17,15.29,15.29,0,0,0-8.42,2.17,17.15,17.15,0,0,0-5.47,5.63,23.94,23.94,0,0,0-3,8,49.21,49.21,0,0,0-.86,9.3,44.73,44.73,0,0,0,.94,9.15,24.2,24.2,0,0,0,3,7.88,16.47,16.47,0,0,0,5.54,5.48A17.81,17.81,0,0,0,782.24,528.17Z"/><path d="M833.72,525.62q4.61,4.65,13.25,4.65A17.7,17.7,0,0,0,857.62,527q4.46-3.22,5.47-6.83h18q-4.32,13.95-13.25,20t-21.6,6a41,41,0,0,1-15.84-2.92,32.88,32.88,0,0,1-12-8.33,37.74,37.74,0,0,1-7.56-12.9,49,49,0,0,1-2.66-16.5,46.91,46.91,0,0,1,2.74-16.2,38.25,38.25,0,0,1,7.78-13,36.58,36.58,0,0,1,12-8.62,37.23,37.23,0,0,1,15.48-3.15,34.24,34.24,0,0,1,16.56,3.83,33.48,33.48,0,0,1,11.59,10.28,43.1,43.1,0,0,1,6.55,14.7,57.06,57.06,0,0,1,1.44,17.25H828.68Q829.11,521,833.72,525.62Zm23.11-40.8q-3.67-4.2-11.16-4.2a17.2,17.2,0,0,0-8.14,1.72,15.64,15.64,0,0,0-5.18,4.28,15.9,15.9,0,0,0-2.74,5.4,25.27,25.27,0,0,0-.94,5.1h33.26Q860.5,489,856.83,484.82Z"/><path d="M899.31,524.95a12.28,12.28,0,0,0,3.53,4.05,14.82,14.82,0,0,0,5,2.32,22.42,22.42,0,0,0,5.83.75,20.94,20.94,0,0,0,4.54-.52,15,15,0,0,0,4.32-1.65,9.93,9.93,0,0,0,3.24-3,8.11,8.11,0,0,0,1.3-4.72q0-4.8-6.12-7.2a118.75,118.75,0,0,0-17.06-4.8q-4.46-1-8.71-2.48a29.18,29.18,0,0,1-7.56-3.75,17.91,17.91,0,0,1-5.33-5.85,17.11,17.11,0,0,1-2-8.62q0-7.5,2.81-12.3a21.12,21.12,0,0,1,7.42-7.58,31.68,31.68,0,0,1,10.37-3.9,61.45,61.45,0,0,1,11.81-1.12,56.81,56.81,0,0,1,11.74,1.2,30.39,30.39,0,0,1,10.15,4,23.83,23.83,0,0,1,7.42,7.58,26.22,26.22,0,0,1,3.53,11.92H926q-0.43-6.15-4.46-8.32a19.74,19.74,0,0,0-9.5-2.18,33.81,33.81,0,0,0-3.74.23,12.08,12.08,0,0,0-3.67,1,7.62,7.62,0,0,0-2.81,2.17,6.6,6.6,0,0,0,.86,8.48,15.35,15.35,0,0,0,5.26,2.92,63.55,63.55,0,0,0,7.42,2q4.17,0.9,8.5,1.95a84.34,84.34,0,0,1,8.71,2.55,28.27,28.27,0,0,1,7.56,4,19,19,0,0,1,5.33,6.15,18.68,18.68,0,0,1,2,9.07,25.57,25.57,0,0,1-3,12.83,24.19,24.19,0,0,1-7.7,8.33,30.84,30.84,0,0,1-10.87,4.42,61,61,0,0,1-12.46,1.28,59.29,59.29,0,0,1-12.67-1.35,32.63,32.63,0,0,1-11-4.5,25.24,25.24,0,0,1-7.92-8.32,26.87,26.87,0,0,1-3.38-13h19.44A12.05,12.05,0,0,0,899.31,524.95Z"/><path d="M970.51,521.12v23.1H947.91v-23.1h22.61Z"/><path d="M1010.26,480.62a13.94,13.94,0,0,0-8.21,2.32,18.2,18.2,0,0,0-5.4,6,26.61,26.61,0,0,0-3,8.1,45.7,45.7,0,0,0-.86,8.77,43.8,43.8,0,0,0,.86,8.55,27.13,27.13,0,0,0,2.81,7.88,16.51,16.51,0,0,0,5.26,5.77,14,14,0,0,0,8.06,2.25q7.34,0,11.3-4.27t5-11.48h19.73q-2,15.45-11.52,23.55t-24.34,8.1a39.32,39.32,0,0,1-15.34-2.92,33.89,33.89,0,0,1-11.88-8.18,37.39,37.39,0,0,1-7.63-12.52,45,45,0,0,1-2.74-16,53.65,53.65,0,0,1,2.52-16.72,38,38,0,0,1,7.42-13.35,34,34,0,0,1,12-8.78,39.18,39.18,0,0,1,16.13-3.15,44.93,44.93,0,0,1,12.74,1.8,33.47,33.47,0,0,1,10.94,5.47,29,29,0,0,1,7.85,9.15,30.1,30.1,0,0,1,3.46,13h-20Q1023.36,480.62,1010.26,480.62Z"/><path d="M1045.39,488.65a36.53,36.53,0,0,1,7.78-12.9,34.75,34.75,0,0,1,12.1-8.25,41,41,0,0,1,15.84-2.93A41.56,41.56,0,0,1,1097,467.5a34.62,34.62,0,0,1,12.17,8.25,36.59,36.59,0,0,1,7.78,12.9,49.44,49.44,0,0,1,2.74,16.88,48.78,48.78,0,0,1-2.74,16.8,36.65,36.65,0,0,1-7.78,12.83,33.76,33.76,0,0,1-12.17,8.17,42.56,42.56,0,0,1-15.91,2.85,42,42,0,0,1-15.84-2.85,33.87,33.87,0,0,1-12.1-8.17,36.59,36.59,0,0,1-7.78-12.83,48.71,48.71,0,0,1-2.74-16.8A49.37,49.37,0,0,1,1045.39,488.65Zm18.58,26a24.73,24.73,0,0,0,3,8,16,16,0,0,0,5.54,5.63,16.37,16.37,0,0,0,8.64,2.1,16.76,16.76,0,0,0,8.71-2.1,15.85,15.85,0,0,0,5.62-5.62,24.78,24.78,0,0,0,3-8,47.22,47.22,0,0,0,.86-9.08,48.41,48.41,0,0,0-.86-9.15,24,24,0,0,0-3-8,16.72,16.72,0,0,0-5.62-5.62,16.33,16.33,0,0,0-8.71-2.17,16,16,0,0,0-8.64,2.17,16.9,16.9,0,0,0-5.54,5.63,23.92,23.92,0,0,0-3,8,48.49,48.49,0,0,0-.86,9.15A47.3,47.3,0,0,0,1064,514.6Z"/><path d="M1140.43,466.67v10.5h0.29a29.57,29.57,0,0,1,9.72-9.3,25.5,25.5,0,0,1,13-3.3,29,29,0,0,1,12.89,2.85q5.83,2.85,8.86,10a32.34,32.34,0,0,1,9-9,23.23,23.23,0,0,1,13.46-3.9,38.3,38.3,0,0,1,10.94,1.5,21.8,21.8,0,0,1,8.64,4.8,22.08,22.08,0,0,1,5.62,8.63,36.3,36.3,0,0,1,2,12.82v51.9h-20.45v-44q0-3.9-.29-7.35a16.13,16.13,0,0,0-1.58-6,9.83,9.83,0,0,0-3.82-4,13.35,13.35,0,0,0-6.84-1.5,12.67,12.67,0,0,0-7,1.72,12.27,12.27,0,0,0-4.18,4.5,18.54,18.54,0,0,0-2,6.3,50,50,0,0,0-.5,7.13v43.2h-20.45v-43.5q0-3.45-.14-6.83a19.85,19.85,0,0,0-1.22-6.22,9.52,9.52,0,0,0-3.6-4.58q-2.52-1.72-7.42-1.72a14.75,14.75,0,0,0-3.82.67,12.51,12.51,0,0,0-4.61,2.55,14.86,14.86,0,0,0-3.82,5.4,22.7,22.7,0,0,0-1.58,9.22v45h-20.45V466.67h19.29Z"/><path d="M1262.11,521.12v23.1H1239.5v-23.1h22.61Z"/><path d="M1334.83,466.67v14.25h-15v38.4q0,5.4,1.73,7.2t6.91,1.8q1.73,0,3.31-.15a27,27,0,0,0,3-.45v16.5a47,47,0,0,1-5.76.6q-3.17.15-6.19,0.15a57.31,57.31,0,0,1-9-.67,20.64,20.64,0,0,1-7.49-2.62,13.64,13.64,0,0,1-5.11-5.55,20.5,20.5,0,0,1-1.87-9.45V480.92H1287V466.67h12.38V443.42h20.45v23.25h15Z"/><path d="M1352.69,437.12v40.35h0.43a24.12,24.12,0,0,1,9.94-9.83,26,26,0,0,1,11.81-3.08q8.21,0,13.46,2.33a20.09,20.09,0,0,1,8.28,6.45,25.51,25.51,0,0,1,4.25,10,65.15,65.15,0,0,1,1.22,13.13v47.7h-20.45v-43.8q0-9.6-2.88-14.33t-10.22-4.72q-8.35,0-12.1,5.17t-3.74,17v40.65h-20.45V437.12h20.45Z"/><path d="M1427.13,525.62q4.61,4.65,13.25,4.65A17.7,17.7,0,0,0,1451,527q4.46-3.22,5.47-6.83h18q-4.32,13.95-13.25,20t-21.6,6a41,41,0,0,1-15.84-2.92,32.88,32.88,0,0,1-12-8.33,37.74,37.74,0,0,1-7.56-12.9,49,49,0,0,1-2.66-16.5,46.91,46.91,0,0,1,2.74-16.2,38.25,38.25,0,0,1,7.78-13,36.59,36.59,0,0,1,12-8.62,37.22,37.22,0,0,1,15.48-3.15,34.24,34.24,0,0,1,16.56,3.83,33.48,33.48,0,0,1,11.59,10.28,43.08,43.08,0,0,1,6.55,14.7,57,57,0,0,1,1.44,17.25h-53.71Q1422.52,521,1427.13,525.62Zm23.11-40.8q-3.67-4.2-11.16-4.2a17.21,17.21,0,0,0-8.14,1.72,15.63,15.63,0,0,0-5.18,4.28A15.89,15.89,0,0,0,1423,492a25.2,25.2,0,0,0-.94,5.1h33.26Q1453.91,489,1450.24,484.82Z"/><path d="M18.67,673.67v14.25H3.7v38.4q0,5.4,1.73,7.2t6.91,1.8q1.73,0,3.31-.15a27.26,27.26,0,0,0,3-.45v16.5a46.57,46.57,0,0,1-5.76.6Q9.74,752,6.72,752a57.44,57.44,0,0,1-9-.67,20.66,20.66,0,0,1-7.49-2.62,13.64,13.64,0,0,1-5.11-5.55,20.5,20.5,0,0,1-1.87-9.45V687.92H-29.14V673.67h12.38V650.42H3.7v23.25h15Z"/><path d="M36.53,644.12v40.35H37a24.12,24.12,0,0,1,9.94-9.82,26,26,0,0,1,11.81-3.08q8.21,0,13.46,2.33a20.08,20.08,0,0,1,8.28,6.45,25.51,25.51,0,0,1,4.25,10.05,65.13,65.13,0,0,1,1.22,13.13v47.7H65.47v-43.8q0-9.6-2.88-14.33t-10.22-4.72q-8.35,0-12.1,5.18t-3.74,17v40.65H16.08V644.12H36.53Z"/><path d="M111,732.62q4.61,4.65,13.25,4.65A17.71,17.71,0,0,0,134.88,734q4.46-3.23,5.47-6.83h18q-4.32,14-13.25,20t-21.6,6a41,41,0,0,1-15.84-2.93,32.87,32.87,0,0,1-12-8.32A37.75,37.75,0,0,1,88.15,729a49,49,0,0,1-2.66-16.5,46.91,46.91,0,0,1,2.74-16.2,38.27,38.27,0,0,1,7.78-13,36.6,36.6,0,0,1,12-8.62,37.22,37.22,0,0,1,15.48-3.15,34.22,34.22,0,0,1,16.56,3.83,33.46,33.46,0,0,1,11.59,10.28,43.08,43.08,0,0,1,6.55,14.7,57,57,0,0,1,1.44,17.25H105.93Q106.36,728,111,732.62Zm23.11-40.8q-3.67-4.2-11.16-4.2a17.2,17.2,0,0,0-8.14,1.72,15.63,15.63,0,0,0-5.18,4.28,15.89,15.89,0,0,0-2.74,5.4,25.21,25.21,0,0,0-.94,5.1H139.2Q137.76,696,134.08,691.82Z"/><path d="M179.8,644.12v39h0.29a22.07,22.07,0,0,1,10.15-8.78,33.18,33.18,0,0,1,13.32-2.78,27.42,27.42,0,0,1,11.09,2.4,28.5,28.5,0,0,1,9.86,7.35A38,38,0,0,1,231.64,694a63.07,63.07,0,0,1,0,36.75,38,38,0,0,1-7.13,12.68,28.47,28.47,0,0,1-9.86,7.35,27.42,27.42,0,0,1-11.09,2.4,37.87,37.87,0,0,1-14.69-2.7,18.92,18.92,0,0,1-9.79-9.15h-0.29v9.9H159.35V644.12H179.8Zm33.12,58.95a25.27,25.27,0,0,0-3.17-7.95,16.92,16.92,0,0,0-5.4-5.47,16.08,16.08,0,0,0-15.62,0,16.66,16.66,0,0,0-5.47,5.47,25.25,25.25,0,0,0-3.17,7.95,43.11,43.11,0,0,0-1,9.45,42.38,42.38,0,0,0,1,9.3,25.24,25.24,0,0,0,3.17,8,16.64,16.64,0,0,0,5.47,5.47,16.08,16.08,0,0,0,15.62,0,16.91,16.91,0,0,0,5.4-5.47,25.26,25.26,0,0,0,3.17-8,42.47,42.47,0,0,0,1-9.3A43.2,43.2,0,0,0,212.92,703.07Z"/><path d="M235.39,695.65a36.54,36.54,0,0,1,7.78-12.9,34.75,34.75,0,0,1,12.1-8.25,41,41,0,0,1,15.84-2.93A41.58,41.58,0,0,1,287,674.5a34.63,34.63,0,0,1,12.17,8.25,36.6,36.6,0,0,1,7.78,12.9,49.44,49.44,0,0,1,2.74,16.88,48.77,48.77,0,0,1-2.74,16.8,36.68,36.68,0,0,1-7.78,12.83A33.76,33.76,0,0,1,287,750.32a42.56,42.56,0,0,1-15.91,2.85,42,42,0,0,1-15.84-2.85,33.87,33.87,0,0,1-12.1-8.17,36.62,36.62,0,0,1-7.78-12.83,48.72,48.72,0,0,1-2.74-16.8A49.38,49.38,0,0,1,235.39,695.65ZM254,721.6a24.77,24.77,0,0,0,3,8,16,16,0,0,0,5.54,5.63,16.38,16.38,0,0,0,8.64,2.1,16.77,16.77,0,0,0,8.71-2.1,15.87,15.87,0,0,0,5.62-5.62,24.81,24.81,0,0,0,3-8,47.21,47.21,0,0,0,.86-9.07,48.41,48.41,0,0,0-.86-9.15,24,24,0,0,0-3-7.95,16.7,16.7,0,0,0-5.62-5.62,16.32,16.32,0,0,0-8.71-2.18,15.94,15.94,0,0,0-8.64,2.18,16.89,16.89,0,0,0-5.54,5.63,23.92,23.92,0,0,0-3,7.95,48.45,48.45,0,0,0-.86,9.15A47.25,47.25,0,0,0,254,721.6Z"/><path d="M311,695.65a36.53,36.53,0,0,1,7.78-12.9,34.75,34.75,0,0,1,12.1-8.25,41,41,0,0,1,15.84-2.93,41.58,41.58,0,0,1,15.91,2.93,34.63,34.63,0,0,1,12.17,8.25,36.59,36.59,0,0,1,7.78,12.9,49.43,49.43,0,0,1,2.74,16.88,48.76,48.76,0,0,1-2.74,16.8,36.67,36.67,0,0,1-7.78,12.83,33.76,33.76,0,0,1-12.17,8.17,42.56,42.56,0,0,1-15.91,2.85,42,42,0,0,1-15.84-2.85,33.87,33.87,0,0,1-12.1-8.17A36.61,36.61,0,0,1,311,729.32a48.71,48.71,0,0,1-2.74-16.8A49.37,49.37,0,0,1,311,695.65Zm18.58,25.95a24.76,24.76,0,0,0,3,8,16,16,0,0,0,5.54,5.63,16.38,16.38,0,0,0,8.64,2.1,16.77,16.77,0,0,0,8.71-2.1,15.87,15.87,0,0,0,5.62-5.62,24.81,24.81,0,0,0,3-8,47.25,47.25,0,0,0,.86-9.07,48.45,48.45,0,0,0-.86-9.15,24,24,0,0,0-3-7.95,16.7,16.7,0,0,0-5.62-5.62,16.32,16.32,0,0,0-8.71-2.18,15.94,15.94,0,0,0-8.64,2.18,16.88,16.88,0,0,0-5.54,5.63,23.91,23.91,0,0,0-3,7.95,48.45,48.45,0,0,0-.86,9.15A47.25,47.25,0,0,0,329.56,721.6Z"/><path d="M408.47,644.12v57.45l25.78-27.9h24.19l-28.08,28.5,31.25,49H436.84l-20.45-34.65-7.92,8v26.7H388V644.12h20.45Z"/><path d="M453.85,695.65a36.53,36.53,0,0,1,7.78-12.9,34.75,34.75,0,0,1,12.1-8.25,41,41,0,0,1,15.84-2.93,41.58,41.58,0,0,1,15.91,2.93,34.62,34.62,0,0,1,12.17,8.25,36.6,36.6,0,0,1,7.78,12.9,49.43,49.43,0,0,1,2.74,16.88,48.76,48.76,0,0,1-2.74,16.8,36.67,36.67,0,0,1-7.78,12.83,33.76,33.76,0,0,1-12.17,8.17,42.56,42.56,0,0,1-15.91,2.85,42,42,0,0,1-15.84-2.85,33.87,33.87,0,0,1-12.1-8.17,36.61,36.61,0,0,1-7.78-12.83,48.72,48.72,0,0,1-2.74-16.8A49.38,49.38,0,0,1,453.85,695.65Zm18.58,25.95a24.76,24.76,0,0,0,3,8,16,16,0,0,0,5.54,5.63,16.37,16.37,0,0,0,8.64,2.1,16.77,16.77,0,0,0,8.71-2.1,15.86,15.86,0,0,0,5.62-5.62,24.81,24.81,0,0,0,3-8,47.25,47.25,0,0,0,.86-9.07,48.45,48.45,0,0,0-.86-9.15,24,24,0,0,0-3-7.95,16.69,16.69,0,0,0-5.62-5.62,16.32,16.32,0,0,0-8.71-2.18,15.94,15.94,0,0,0-8.64,2.18,16.88,16.88,0,0,0-5.54,5.63,23.91,23.91,0,0,0-3,7.95,48.41,48.41,0,0,0-.86,9.15A47.21,47.21,0,0,0,472.43,721.6Z"/><path d="M521.25,687.92V673.67h12.24v-6q0-10.35,6.19-17t18.72-6.6q2.73,0,5.47.22t5.33,0.38v15.9a60.22,60.22,0,0,0-7.49-.45q-4.18,0-6,2t-1.8,6.83v4.65H568v14.25H553.93v63.3H533.49v-63.3H521.25Z"/><path d="M581.8,731.95a12.29,12.29,0,0,0,3.53,4.05,14.78,14.78,0,0,0,5,2.32,22.42,22.42,0,0,0,5.83.75,20.93,20.93,0,0,0,4.54-.52A15,15,0,0,0,605,736.9a10,10,0,0,0,3.24-3,8.12,8.12,0,0,0,1.3-4.72q0-4.8-6.12-7.2a118.78,118.78,0,0,0-17.06-4.8q-4.46-1-8.71-2.48a29.12,29.12,0,0,1-7.56-3.75,17.88,17.88,0,0,1-5.33-5.85,17.1,17.1,0,0,1-2-8.62q0-7.5,2.81-12.3a21.14,21.14,0,0,1,7.42-7.58,31.69,31.69,0,0,1,10.37-3.9,61.44,61.44,0,0,1,11.81-1.12,56.8,56.8,0,0,1,11.74,1.2,30.36,30.36,0,0,1,10.15,4,23.83,23.83,0,0,1,7.42,7.58,26.22,26.22,0,0,1,3.53,11.92H608.51q-0.43-6.15-4.46-8.32a19.74,19.74,0,0,0-9.5-2.18,33.83,33.83,0,0,0-3.74.23,12,12,0,0,0-3.67,1,7.61,7.61,0,0,0-2.81,2.17,6.6,6.6,0,0,0,.86,8.48,15.37,15.37,0,0,0,5.26,2.92,63.36,63.36,0,0,0,7.42,2q4.17,0.9,8.5,1.95a84.67,84.67,0,0,1,8.71,2.55,28.28,28.28,0,0,1,7.56,4,19,19,0,0,1,5.33,6.15,18.68,18.68,0,0,1,2,9.07,25.57,25.57,0,0,1-3,12.83,24.2,24.2,0,0,1-7.7,8.32,30.86,30.86,0,0,1-10.87,4.43A61.1,61.1,0,0,1,596,753.17a59.27,59.27,0,0,1-12.67-1.35,32.61,32.61,0,0,1-11-4.5,25.24,25.24,0,0,1-7.92-8.32A26.87,26.87,0,0,1,561,726h19.44A12,12,0,0,0,581.8,731.95Z"/><path d="M670.43,673.67v14.25h-15v38.4q0,5.4,1.73,7.2t6.91,1.8q1.73,0,3.31-.15a27.23,27.23,0,0,0,3-.45v16.5a46.55,46.55,0,0,1-5.76.6q-3.17.15-6.19,0.15a57.43,57.43,0,0,1-9-.67,20.66,20.66,0,0,1-7.49-2.62,13.64,13.64,0,0,1-5.11-5.55,20.5,20.5,0,0,1-1.87-9.45V687.92H622.62V673.67H635V650.42h20.45v23.25h15Z"/><path d="M687.27,673.67v14.4h0.29a26.38,26.38,0,0,1,3.89-6.67,25.86,25.86,0,0,1,5.62-5.25,27,27,0,0,1,6.77-3.37,23.55,23.55,0,0,1,7.49-1.2,15.44,15.44,0,0,1,4.46.75v19.8q-1.44-.3-3.46-0.53a35,35,0,0,0-3.89-.22,21.08,21.08,0,0,0-9.5,1.95,16.63,16.63,0,0,0-6.26,5.33,21.77,21.77,0,0,0-3.38,7.88,44.53,44.53,0,0,0-1,9.75v34.95H667.83V673.67h19.44Z"/><path d="M712,661.67V644.12h20.45v17.55H712Zm20.45,12v77.55H712V673.67h20.45Z"/><path d="M755.67,673.67v9.9H756a22.86,22.86,0,0,1,9.5-9.15,28.2,28.2,0,0,1,12.67-2.85A31.2,31.2,0,0,1,793.25,675a31.59,31.59,0,0,1,10.51,9.15A39.4,39.4,0,0,1,810,697.45a61.31,61.31,0,0,1,2,15.83,55.38,55.38,0,0,1-2,15A38.86,38.86,0,0,1,803.84,741a30.62,30.62,0,0,1-10.22,8.85,29.76,29.76,0,0,1-14.33,3.3,28,28,0,0,1-12.74-2.93,24.43,24.43,0,0,1-9.58-8.62h-0.29v36.75H736.23V673.67h19.44Zm26.57,61.5a16.73,16.73,0,0,0,5.47-5.48,23.14,23.14,0,0,0,3-7.87,48.39,48.39,0,0,0,.86-9.15,44.82,44.82,0,0,0-.94-9.15,25,25,0,0,0-3.1-8,17.65,17.65,0,0,0-5.54-5.7,15,15,0,0,0-8.28-2.18,15.28,15.28,0,0,0-8.42,2.18,17.13,17.13,0,0,0-5.47,5.63,23.92,23.92,0,0,0-3,7.95,49.22,49.22,0,0,0-.86,9.3,44.73,44.73,0,0,0,.94,9.15,24.2,24.2,0,0,0,3,7.88,16.48,16.48,0,0,0,5.54,5.48A17.81,17.81,0,0,0,782.24,735.17Z"/><path d="M833.72,732.62q4.61,4.65,13.25,4.65A17.71,17.71,0,0,0,857.62,734q4.46-3.23,5.47-6.83h18q-4.32,14-13.25,20t-21.6,6a41,41,0,0,1-15.84-2.93,32.86,32.86,0,0,1-12-8.32,37.75,37.75,0,0,1-7.56-12.9,49,49,0,0,1-2.66-16.5,46.91,46.91,0,0,1,2.74-16.2,38.27,38.27,0,0,1,7.78-13,36.6,36.6,0,0,1,12-8.62,37.23,37.23,0,0,1,15.48-3.15,34.23,34.23,0,0,1,16.56,3.83,33.47,33.47,0,0,1,11.59,10.28,43.11,43.11,0,0,1,6.55,14.7,57.06,57.06,0,0,1,1.44,17.25H828.68Q829.11,728,833.72,732.62Zm23.11-40.8q-3.67-4.2-11.16-4.2a17.2,17.2,0,0,0-8.14,1.72,15.64,15.64,0,0,0-5.18,4.28,15.91,15.91,0,0,0-2.74,5.4,25.25,25.25,0,0,0-.94,5.1h33.26Q860.5,696,856.83,691.82Z"/><path d="M899.31,731.95a12.28,12.28,0,0,0,3.53,4.05,14.78,14.78,0,0,0,5,2.32,22.42,22.42,0,0,0,5.83.75,20.94,20.94,0,0,0,4.54-.52,15,15,0,0,0,4.32-1.65,9.93,9.93,0,0,0,3.24-3,8.12,8.12,0,0,0,1.3-4.72q0-4.8-6.12-7.2a118.77,118.77,0,0,0-17.06-4.8q-4.46-1-8.71-2.48a29.14,29.14,0,0,1-7.56-3.75,17.9,17.9,0,0,1-5.33-5.85,17.11,17.11,0,0,1-2-8.62q0-7.5,2.81-12.3a21.12,21.12,0,0,1,7.42-7.58,31.68,31.68,0,0,1,10.37-3.9,61.45,61.45,0,0,1,11.81-1.12,56.81,56.81,0,0,1,11.74,1.2,30.36,30.36,0,0,1,10.15,4,23.83,23.83,0,0,1,7.42,7.58,26.22,26.22,0,0,1,3.53,11.92H926q-0.43-6.15-4.46-8.32a19.74,19.74,0,0,0-9.5-2.18,33.82,33.82,0,0,0-3.74.23,12,12,0,0,0-3.67,1,7.61,7.61,0,0,0-2.81,2.17,6.6,6.6,0,0,0,.86,8.48,15.37,15.37,0,0,0,5.26,2.92,63.36,63.36,0,0,0,7.42,2q4.17,0.9,8.5,1.95a84.58,84.58,0,0,1,8.71,2.55,28.27,28.27,0,0,1,7.56,4,19,19,0,0,1,5.33,6.15,18.68,18.68,0,0,1,2,9.07,25.57,25.57,0,0,1-3,12.83,24.2,24.2,0,0,1-7.7,8.32,30.86,30.86,0,0,1-10.87,4.43,61.1,61.1,0,0,1-12.46,1.28,59.29,59.29,0,0,1-12.67-1.35,32.59,32.59,0,0,1-11-4.5,25.24,25.24,0,0,1-7.92-8.32,26.86,26.86,0,0,1-3.38-13h19.44A12,12,0,0,0,899.31,731.95Z"/><path d="M970.51,728.12v23.1H947.91v-23.1h22.61Z"/><path d="M1010.26,687.62a13.94,13.94,0,0,0-8.21,2.32,18.21,18.21,0,0,0-5.4,6,26.62,26.62,0,0,0-3,8.1,45.68,45.68,0,0,0-.86,8.77,43.8,43.8,0,0,0,.86,8.55,27.11,27.11,0,0,0,2.81,7.88,16.51,16.51,0,0,0,5.26,5.78,14,14,0,0,0,8.06,2.25q7.34,0,11.3-4.28t5-11.47h19.73q-2,15.45-11.52,23.55t-24.34,8.1a39.32,39.32,0,0,1-15.34-2.93,33.88,33.88,0,0,1-11.88-8.18,37.38,37.38,0,0,1-7.63-12.52,45,45,0,0,1-2.74-16,53.65,53.65,0,0,1,2.52-16.72,38,38,0,0,1,7.42-13.35,34,34,0,0,1,12-8.78,39.18,39.18,0,0,1,16.13-3.15,45,45,0,0,1,12.74,1.8,33.47,33.47,0,0,1,10.94,5.47,29,29,0,0,1,7.85,9.15,30.11,30.11,0,0,1,3.46,13h-20Q1023.36,687.63,1010.26,687.62Z"/><path d="M1045.39,695.65a36.53,36.53,0,0,1,7.78-12.9,34.75,34.75,0,0,1,12.1-8.25,41,41,0,0,1,15.84-2.93A41.58,41.58,0,0,1,1097,674.5a34.62,34.62,0,0,1,12.17,8.25,36.59,36.59,0,0,1,7.78,12.9,49.44,49.44,0,0,1,2.74,16.88,48.77,48.77,0,0,1-2.74,16.8,36.67,36.67,0,0,1-7.78,12.83,33.76,33.76,0,0,1-12.17,8.17,42.56,42.56,0,0,1-15.91,2.85,42,42,0,0,1-15.84-2.85,33.87,33.87,0,0,1-12.1-8.17,36.61,36.61,0,0,1-7.78-12.83,48.71,48.71,0,0,1-2.74-16.8A49.37,49.37,0,0,1,1045.39,695.65ZM1064,721.6a24.75,24.75,0,0,0,3,8,16,16,0,0,0,5.54,5.63,16.38,16.38,0,0,0,8.64,2.1,16.77,16.77,0,0,0,8.71-2.1,15.87,15.87,0,0,0,5.62-5.62,24.79,24.79,0,0,0,3-8,47.21,47.21,0,0,0,.86-9.07,48.41,48.41,0,0,0-.86-9.15,23.94,23.94,0,0,0-3-7.95,16.7,16.7,0,0,0-5.62-5.62,16.32,16.32,0,0,0-8.71-2.18,16,16,0,0,0-8.64,2.18,16.88,16.88,0,0,0-5.54,5.63,23.9,23.9,0,0,0-3,7.95,48.49,48.49,0,0,0-.86,9.15A47.29,47.29,0,0,0,1064,721.6Z"/><path d="M1140.43,673.67v10.5h0.29a29.57,29.57,0,0,1,9.72-9.3,25.5,25.5,0,0,1,13-3.3,29,29,0,0,1,12.89,2.85q5.83,2.85,8.86,10a32.34,32.34,0,0,1,9-9,23.23,23.23,0,0,1,13.46-3.9,38.3,38.3,0,0,1,10.94,1.5,21.81,21.81,0,0,1,8.64,4.8,22.09,22.09,0,0,1,5.62,8.63,36.3,36.3,0,0,1,2,12.82v51.9h-20.45V707.27q0-3.9-.29-7.35a16.12,16.12,0,0,0-1.58-6,9.83,9.83,0,0,0-3.82-4.05,13.36,13.36,0,0,0-6.84-1.5,12.67,12.67,0,0,0-7,1.72,12.27,12.27,0,0,0-4.18,4.5,18.54,18.54,0,0,0-2,6.3,50,50,0,0,0-.5,7.13v43.2h-20.45v-43.5q0-3.45-.14-6.82a19.85,19.85,0,0,0-1.22-6.22,9.52,9.52,0,0,0-3.6-4.58q-2.52-1.72-7.42-1.72a14.72,14.72,0,0,0-3.82.68,12.51,12.51,0,0,0-4.61,2.55,14.87,14.87,0,0,0-3.82,5.4,22.7,22.7,0,0,0-1.58,9.22v45h-20.45V673.67h19.29Z"/><path d="M1262.11,728.12v23.1H1239.5v-23.1h22.61Z"/><path d="M1334.83,673.67v14.25h-15v38.4q0,5.4,1.73,7.2t6.91,1.8q1.73,0,3.31-.15a27.25,27.25,0,0,0,3-.45v16.5a46.57,46.57,0,0,1-5.76.6q-3.17.15-6.19,0.15a57.43,57.43,0,0,1-9-.67,20.66,20.66,0,0,1-7.49-2.62,13.64,13.64,0,0,1-5.11-5.55,20.5,20.5,0,0,1-1.87-9.45V687.92H1287V673.67h12.38V650.42h20.45v23.25h15Z"/><path d="M1352.69,644.12v40.35h0.43a24.11,24.11,0,0,1,9.94-9.82,26,26,0,0,1,11.81-3.08q8.21,0,13.46,2.33a20.09,20.09,0,0,1,8.28,6.45,25.51,25.51,0,0,1,4.25,10.05,65.14,65.14,0,0,1,1.22,13.13v47.7h-20.45v-43.8q0-9.6-2.88-14.33t-10.22-4.72q-8.35,0-12.1,5.18t-3.74,17v40.65h-20.45V644.12h20.45Z"/><path d="M1427.13,732.62q4.61,4.65,13.25,4.65A17.71,17.71,0,0,0,1451,734q4.46-3.23,5.47-6.83h18q-4.32,14-13.25,20t-21.6,6a41,41,0,0,1-15.84-2.93,32.87,32.87,0,0,1-12-8.32,37.75,37.75,0,0,1-7.56-12.9,49,49,0,0,1-2.66-16.5,46.91,46.91,0,0,1,2.74-16.2,38.27,38.27,0,0,1,7.78-13,36.6,36.6,0,0,1,12-8.62,37.22,37.22,0,0,1,15.48-3.15,34.23,34.23,0,0,1,16.56,3.83,33.47,33.47,0,0,1,11.59,10.28,43.09,43.09,0,0,1,6.55,14.7,57,57,0,0,1,1.44,17.25h-53.71Q1422.52,728,1427.13,732.62Zm23.11-40.8q-3.67-4.2-11.16-4.2a17.21,17.21,0,0,0-8.14,1.72,15.63,15.63,0,0,0-5.18,4.28A15.89,15.89,0,0,0,1423,699a25.18,25.18,0,0,0-.94,5.1h33.26Q1453.91,696,1450.24,691.82Z"/></svg>