<svg xmlns="http://www.w3.org/2000/svg" xmlns:xlink="http://www.w3.org/1999/xlink" viewBox="0 0 940.09 967"><defs><style>.a{fill:none;}.b{clip-path:url(#a);}.c{fill:#fff;}.d{clip-path:url(#b);}.e{opacity:0.45;}</style><clipPath id="a"><rect class="a" x="-979.75" y="-0.28" width="939.49" height="967.55"/></clipPath><clipPath id="b"><rect class="a" x="-0.75" y="0.72" width="939.49" height="967.55"/></clipPath></defs><title>home_04_hover</title><g class="b"><path class="c" d="M12.53,164q11.06,11.16,31.8,11.16,14.85,0,25.57-7.74T83,151.07h43.2q-10.37,33.48-31.8,47.88T42.6,213.35q-21.08,0-38-7a78.87,78.87,0,0,1-28.69-20,90.56,90.56,0,0,1-18.14-31,117.47,117.47,0,0,1-6.39-39.6,112.6,112.6,0,0,1,6.57-38.88A91.82,91.82,0,0,1-23.41,45.77,87.82,87.82,0,0,1,5.44,25.07,89.32,89.32,0,0,1,42.6,17.51q22.81,0,39.74,9.18a80.34,80.34,0,0,1,27.82,24.66,103.43,103.43,0,0,1,15.73,35.28,136.87,136.87,0,0,1,3.46,41.4H0.43Q1.47,152.87,12.53,164ZM68,66.11Q59.18,56,41.21,56q-11.75,0-19.53,4.14A37.52,37.52,0,0,0,9.25,70.43a38.15,38.15,0,0,0-6.57,13A60.53,60.53,0,0,0,.43,95.63H80.27Q76.81,76.19,68,66.11Z"/><path class="c" d="M2.84,451.31a40.38,40.38,0,0,0,11.92,14.58,50.56,50.56,0,0,0,17.45,8.28A79.35,79.35,0,0,0,53,476.87a103.36,103.36,0,0,0,15.55-1.26,52.44,52.44,0,0,0,15.55-4.86,34.16,34.16,0,0,0,12.1-9.9q4.84-6.29,4.84-16,0-10.44-6.39-16.92a50.47,50.47,0,0,0-16.76-10.8,162.39,162.39,0,0,0-23.5-7.56q-13.14-3.24-26.61-7.2a228.1,228.1,0,0,1-27-8.82A91.34,91.34,0,0,1-22.73,380a63,63,0,0,1-16.76-20.7q-6.4-12.42-6.39-30.06,0-19.79,8.12-34.38a75.53,75.53,0,0,1,21.25-24.3,91,91,0,0,1,29.72-14.4,121.84,121.84,0,0,1,33.18-4.68A151.13,151.13,0,0,1,83.54,256a91.05,91.05,0,0,1,31.62,14.58,72.93,72.93,0,0,1,21.95,25.74q8.12,15.66,8.12,38H92.7Q92,322.79,88,315.23a31.38,31.38,0,0,0-10.54-11.88,43.64,43.64,0,0,0-15-6.12A89.19,89.19,0,0,0,44,295.43a61.36,61.36,0,0,0-13.13,1.44,34.43,34.43,0,0,0-11.92,5,30.56,30.56,0,0,0-8.81,9q-3.46,5.4-3.46,13.68,0,7.56,2.76,12.24t10.89,8.64q8.12,4,22.46,7.92t37.5,10.08q6.91,1.44,19.18,5.22a90.5,90.5,0,0,1,24.36,12.06,75.38,75.38,0,0,1,20.91,22.14q8.81,13.86,8.81,35.46A81.4,81.4,0,0,1,147,471.11a70.86,70.86,0,0,1-19.53,26.1q-13,11-32.14,17.1t-44.41,6.12a150.15,150.15,0,0,1-39.57-5.22,97.67,97.67,0,0,1-33.87-16.38,80,80,0,0,1-23.33-28.44q-8.64-17.28-8.29-41H-1.65Q-1.65,442.31,2.84,451.31Z"/><path class="c" d="M12.53,776q11.06,11.16,31.8,11.16,14.85,0,25.57-7.74T83,763.07h43.2q-10.37,33.48-31.8,47.88T42.6,825.35q-21.08,0-38-7a78.87,78.87,0,0,1-28.69-20,90.56,90.56,0,0,1-18.14-31,117.47,117.47,0,0,1-6.39-39.6,112.6,112.6,0,0,1,6.57-38.88,91.82,91.82,0,0,1,18.66-31.14,87.82,87.82,0,0,1,28.86-20.7,89.32,89.32,0,0,1,37.15-7.56q22.81,0,39.74,9.18a80.34,80.34,0,0,1,27.82,24.66,103.43,103.43,0,0,1,15.73,35.28,136.87,136.87,0,0,1,3.46,41.4H0.43Q1.47,764.87,12.53,776ZM68,678.11Q59.18,668,41.21,668q-11.75,0-19.53,4.14A37.52,37.52,0,0,0,9.25,682.43a38.15,38.15,0,0,0-6.57,13A60.53,60.53,0,0,0,.43,707.63H80.27Q76.81,688.19,68,678.11Z"/><path class="c" d="M2.84,1063.31a40.38,40.38,0,0,0,11.92,14.58,50.56,50.56,0,0,0,17.45,8.28,79.35,79.35,0,0,0,20.74,2.7,103.36,103.36,0,0,0,15.55-1.26,52.44,52.44,0,0,0,15.55-4.86,34.16,34.16,0,0,0,12.1-9.9q4.84-6.29,4.84-16,0-10.44-6.39-16.92a50.47,50.47,0,0,0-16.76-10.8,162.39,162.39,0,0,0-23.5-7.56q-13.14-3.24-26.61-7.2a228.1,228.1,0,0,1-27-8.82A91.34,91.34,0,0,1-22.73,992a63,63,0,0,1-16.76-20.7q-6.4-12.42-6.39-30.06,0-19.79,8.12-34.38a75.53,75.53,0,0,1,21.25-24.3,91,91,0,0,1,29.72-14.4,121.84,121.84,0,0,1,33.18-4.68A151.13,151.13,0,0,1,83.54,868a91.05,91.05,0,0,1,31.62,14.58,72.93,72.93,0,0,1,21.95,25.74q8.12,15.66,8.12,38H92.7Q92,934.79,88,927.23a31.38,31.38,0,0,0-10.54-11.88,43.64,43.64,0,0,0-15-6.12A89.19,89.19,0,0,0,44,907.43a61.36,61.36,0,0,0-13.13,1.44,34.43,34.43,0,0,0-11.92,5,30.56,30.56,0,0,0-8.81,9q-3.46,5.4-3.46,13.68,0,7.56,2.76,12.24t10.89,8.64q8.12,4,22.46,7.92t37.5,10.08q6.91,1.44,19.18,5.22a90.5,90.5,0,0,1,24.36,12.06,75.38,75.38,0,0,1,20.91,22.14q8.81,13.86,8.81,35.46a81.4,81.4,0,0,1-6.57,32.76,70.86,70.86,0,0,1-19.53,26.1q-13,11-32.14,17.1t-44.41,6.12a150.15,150.15,0,0,1-39.57-5.22,97.67,97.67,0,0,1-33.87-16.38,80,80,0,0,1-23.33-28.44q-8.64-17.28-8.29-41H-1.65Q-1.65,1054.31,2.84,1063.31Z"/></g><g class="d"><rect class="e" x="-0.75" y="0.72" width="939.49" height="967.55"/><path class="c" d="M48.67,21.12V35.37h-15v38.4q0,5.4,1.73,7.2t6.91,1.8c1.15,0,2.25,0,3.31-.15a27,27,0,0,0,3-.45v16.5a47,47,0,0,1-5.76.6q-3.17.15-6.19,0.15a57.3,57.3,0,0,1-9-.67,20.63,20.63,0,0,1-7.49-2.62,13.65,13.65,0,0,1-5.11-5.55,20.5,20.5,0,0,1-1.87-9.45V35.37H0.86V21.12H13.25V-2.13H33.7V21.12h15Z"/><path class="c" d="M66.53-8.43V31.92H67a24.12,24.12,0,0,1,9.94-9.83A26,26,0,0,1,88.7,19q8.21,0,13.46,2.33a20.09,20.09,0,0,1,8.28,6.45,25.52,25.52,0,0,1,4.25,10A65.15,65.15,0,0,1,115.92,51v47.7H95.47V54.87q0-9.6-2.88-14.33T82.37,35.82Q74,35.82,70.27,41T66.53,58V98.67H46.08V-8.43H66.53Z"/><path class="c" d="M141,80.07q4.61,4.65,13.25,4.65a17.7,17.7,0,0,0,10.66-3.22q4.46-3.22,5.47-6.83h18q-4.32,13.95-13.25,20t-21.6,6a41,41,0,0,1-15.84-2.92,32.87,32.87,0,0,1-12-8.33,37.73,37.73,0,0,1-7.56-12.9A49,49,0,0,1,115.48,60a46.93,46.93,0,0,1,2.74-16.2,38.25,38.25,0,0,1,7.78-13,36.59,36.59,0,0,1,12-8.62A37.22,37.22,0,0,1,153.5,19a34.24,34.24,0,0,1,16.56,3.83,33.46,33.46,0,0,1,11.59,10.28,43.08,43.08,0,0,1,6.55,14.7,57,57,0,0,1,1.44,17.25H135.93Q136.36,75.41,141,80.07Zm23.11-40.8q-3.67-4.2-11.16-4.2a17.2,17.2,0,0,0-8.14,1.72,15.63,15.63,0,0,0-5.18,4.28,15.87,15.87,0,0,0-2.74,5.4,25.2,25.2,0,0,0-.94,5.1H169.2Q167.76,43.46,164.08,39.26Z"/><path class="c" d="M209.8-8.43v39h0.29a22.05,22.05,0,0,1,10.15-8.78A33.18,33.18,0,0,1,233.56,19a27.4,27.4,0,0,1,11.09,2.4,28.47,28.47,0,0,1,9.87,7.35,38,38,0,0,1,7.13,12.68,55.18,55.18,0,0,1,2.74,18.38,55.17,55.17,0,0,1-2.74,18.38,38,38,0,0,1-7.13,12.67,28.44,28.44,0,0,1-9.87,7.35,27.4,27.4,0,0,1-11.09,2.4,37.89,37.89,0,0,1-14.69-2.7,18.92,18.92,0,0,1-9.79-9.15h-0.29v9.9H189.36V-8.43H209.8Zm33.12,58.95a25.3,25.3,0,0,0-3.17-7.95,16.94,16.94,0,0,0-5.4-5.48,16.09,16.09,0,0,0-15.62,0,16.66,16.66,0,0,0-5.47,5.48,25.2,25.2,0,0,0-3.17,7.95,43,43,0,0,0-1,9.45,42.29,42.29,0,0,0,1,9.3,25.19,25.19,0,0,0,3.17,8,16.64,16.64,0,0,0,5.47,5.48,16.09,16.09,0,0,0,15.63,0,16.92,16.92,0,0,0,5.4-5.48,25.28,25.28,0,0,0,3.17-8,42.53,42.53,0,0,0,1-9.3A43.25,43.25,0,0,0,242.92,50.51Z"/><path class="c" d="M265.39,43.09a36.53,36.53,0,0,1,7.78-12.9,34.75,34.75,0,0,1,12.1-8.25A41,41,0,0,1,301.1,19,41.55,41.55,0,0,1,317,21.94a34.62,34.62,0,0,1,12.17,8.25A36.61,36.61,0,0,1,337,43.09,49.42,49.42,0,0,1,339.69,60,48.76,48.76,0,0,1,337,76.76a36.67,36.67,0,0,1-7.78,12.83A33.76,33.76,0,0,1,317,97.76a42.55,42.55,0,0,1-15.91,2.85,42,42,0,0,1-15.84-2.85,33.87,33.87,0,0,1-12.1-8.17,36.59,36.59,0,0,1-7.78-12.83A48.71,48.71,0,0,1,262.65,60,49.37,49.37,0,0,1,265.39,43.09ZM284,69a24.73,24.73,0,0,0,3,8,16,16,0,0,0,5.54,5.63,16.37,16.37,0,0,0,8.64,2.1,16.76,16.76,0,0,0,8.71-2.1A15.84,15.84,0,0,0,315.43,77a24.8,24.8,0,0,0,3-8,47.3,47.3,0,0,0,.86-9.08,48.49,48.49,0,0,0-.86-9.15,24,24,0,0,0-3-8,16.7,16.7,0,0,0-5.62-5.62,16.33,16.33,0,0,0-8.71-2.17,16,16,0,0,0-8.64,2.17,16.91,16.91,0,0,0-5.54,5.63,23.92,23.92,0,0,0-3,8A48.41,48.41,0,0,0,283.1,60,47.22,47.22,0,0,0,284,69Z"/><path class="c" d="M341,43.09a36.54,36.54,0,0,1,7.78-12.9,34.75,34.75,0,0,1,12.1-8.25A41,41,0,0,1,376.7,19a41.56,41.56,0,0,1,15.91,2.93,34.62,34.62,0,0,1,12.17,8.25,36.59,36.59,0,0,1,7.78,12.9A49.44,49.44,0,0,1,415.29,60a48.78,48.78,0,0,1-2.74,16.8,36.65,36.65,0,0,1-7.78,12.83,33.76,33.76,0,0,1-12.17,8.17,42.56,42.56,0,0,1-15.91,2.85,42,42,0,0,1-15.84-2.85,33.87,33.87,0,0,1-12.1-8.17A36.6,36.6,0,0,1,341,76.76,48.73,48.73,0,0,1,338.25,60,49.4,49.4,0,0,1,341,43.09Zm18.58,26a24.75,24.75,0,0,0,3,8,16,16,0,0,0,5.54,5.63,16.37,16.37,0,0,0,8.64,2.1,16.76,16.76,0,0,0,8.71-2.1A15.85,15.85,0,0,0,391,77a24.8,24.8,0,0,0,3-8,47.22,47.22,0,0,0,.86-9.08,48.41,48.41,0,0,0-.86-9.15,24,24,0,0,0-3-8,16.71,16.71,0,0,0-5.62-5.62,16.33,16.33,0,0,0-8.71-2.17,16,16,0,0,0-8.64,2.17,16.91,16.91,0,0,0-5.54,5.63,23.94,23.94,0,0,0-3,8A48.41,48.41,0,0,0,358.7,60,47.22,47.22,0,0,0,359.56,69Z"/><path class="c" d="M438.47-8.43V49l25.78-27.9h24.19l-28.08,28.5,31.25,49H466.84L446.39,64l-7.92,8v26.7H418V-8.43h20.45Z"/><path class="c" d="M486.85,43.09a36.54,36.54,0,0,1,7.78-12.9,34.74,34.74,0,0,1,12.1-8.25A41,41,0,0,1,522.57,19a41.56,41.56,0,0,1,15.91,2.93,34.62,34.62,0,0,1,12.17,8.25,36.59,36.59,0,0,1,7.78,12.9A49.42,49.42,0,0,1,561.16,60a48.76,48.76,0,0,1-2.74,16.8,36.65,36.65,0,0,1-7.78,12.83,33.76,33.76,0,0,1-12.17,8.17,42.56,42.56,0,0,1-15.91,2.85,42,42,0,0,1-15.84-2.85,33.87,33.87,0,0,1-12.1-8.17,36.6,36.6,0,0,1-7.78-12.83A48.71,48.71,0,0,1,484.12,60,49.37,49.37,0,0,1,486.85,43.09Zm18.58,26a24.73,24.73,0,0,0,3,8,16,16,0,0,0,5.54,5.63,16.37,16.37,0,0,0,8.64,2.1,16.76,16.76,0,0,0,8.71-2.1A15.85,15.85,0,0,0,536.89,77a24.8,24.8,0,0,0,3-8,47.3,47.3,0,0,0,.86-9.08,48.49,48.49,0,0,0-.86-9.15,24,24,0,0,0-3-8,16.71,16.71,0,0,0-5.62-5.62,16.33,16.33,0,0,0-8.71-2.17,16,16,0,0,0-8.64,2.17,16.92,16.92,0,0,0-5.54,5.63,23.92,23.92,0,0,0-3,8,48.41,48.41,0,0,0-.86,9.15A47.22,47.22,0,0,0,505.43,69Z"/><path class="c" d="M554.25,35.37V21.12h12.24v-6q0-10.35,6.19-17t18.72-6.6q2.73,0,5.47.22t5.33,0.38V8.07a60.22,60.22,0,0,0-7.49-.45q-4.18,0-6,2t-1.8,6.83v4.65H601V35.37H586.93v63.3H566.49V35.37H554.25Z"/><path class="c" d="M614.8,79.39a12.27,12.27,0,0,0,3.53,4.05,14.82,14.82,0,0,0,5,2.32,22.41,22.41,0,0,0,5.83.75,20.93,20.93,0,0,0,4.54-.52A15,15,0,0,0,638,84.34a10,10,0,0,0,3.24-3,8.12,8.12,0,0,0,1.3-4.72q0-4.8-6.12-7.2a118.77,118.77,0,0,0-17.06-4.8q-4.46-1-8.71-2.48a29.14,29.14,0,0,1-7.56-3.75,17.91,17.91,0,0,1-5.33-5.85,17.1,17.1,0,0,1-2-8.62q0-7.5,2.81-12.3A21.13,21.13,0,0,1,605.94,24a31.69,31.69,0,0,1,10.37-3.9A61.44,61.44,0,0,1,628.12,19a56.8,56.8,0,0,1,11.74,1.2,30.39,30.39,0,0,1,10.15,4,23.83,23.83,0,0,1,7.42,7.58,26.22,26.22,0,0,1,3.53,11.92H641.51q-0.43-6.15-4.46-8.32a19.75,19.75,0,0,0-9.5-2.18,33.79,33.79,0,0,0-3.74.23,12.08,12.08,0,0,0-3.67,1,7.61,7.61,0,0,0-2.81,2.17,5.9,5.9,0,0,0-1.15,3.83,5.94,5.94,0,0,0,2,4.65A15.34,15.34,0,0,0,623.44,48a63.61,63.61,0,0,0,7.42,2Q635,51,639.35,52a84.41,84.41,0,0,1,8.71,2.55,28.29,28.29,0,0,1,7.56,4,19,19,0,0,1,5.33,6.15,18.68,18.68,0,0,1,2,9.07,25.58,25.58,0,0,1-3,12.83,24.19,24.19,0,0,1-7.7,8.33,30.84,30.84,0,0,1-10.87,4.42A61,61,0,0,1,629,100.62a59.28,59.28,0,0,1-12.67-1.35,32.63,32.63,0,0,1-11-4.5,25.23,25.23,0,0,1-7.92-8.32,26.87,26.87,0,0,1-3.38-13h19.44A12,12,0,0,0,614.8,79.39Z"/><path class="c" d="M703.43,21.12V35.37h-15v38.4q0,5.4,1.73,7.2t6.91,1.8q1.73,0,3.31-.15a27,27,0,0,0,3-.45v16.5a46.93,46.93,0,0,1-5.76.6q-3.17.15-6.19,0.15a57.31,57.31,0,0,1-9-.67A20.64,20.64,0,0,1,675,96.12a13.64,13.64,0,0,1-5.11-5.55A20.49,20.49,0,0,1,668,81.12V35.37H655.62V21.12H668V-2.13h20.45V21.12h15Z"/><path class="c" d="M720.27,21.12v14.4h0.29a26.36,26.36,0,0,1,3.89-6.67,25.9,25.9,0,0,1,5.62-5.25,27.08,27.08,0,0,1,6.77-3.37,23.55,23.55,0,0,1,7.49-1.2,15.41,15.41,0,0,1,4.46.75v19.8q-1.44-.3-3.46-0.53a35,35,0,0,0-3.89-.22,21.07,21.07,0,0,0-9.5,1.95,16.63,16.63,0,0,0-6.26,5.33A21.76,21.76,0,0,0,722.29,54a44.53,44.53,0,0,0-1,9.75v35H700.83V21.12h19.44Z"/><path class="c" d="M745,9.12V-8.43h20.45V9.12H745Zm20.45,12V98.67H745V21.12h20.45Z"/><path class="c" d="M788.67,21.12V31H789a22.87,22.87,0,0,1,9.5-9.15A28.2,28.2,0,0,1,811.13,19a31.2,31.2,0,0,1,15.12,3.45,31.61,31.61,0,0,1,10.51,9.15A39.41,39.41,0,0,1,843,44.89a61.3,61.3,0,0,1,2,15.83,55.37,55.37,0,0,1-2,15,38.84,38.84,0,0,1-6.12,12.75,30.63,30.63,0,0,1-10.22,8.85,29.77,29.77,0,0,1-14.33,3.3,28,28,0,0,1-12.74-2.92A24.43,24.43,0,0,1,790,89.07h-0.29v36.75H769.23V21.12h19.44Zm26.57,61.5a16.72,16.72,0,0,0,5.47-5.48,23.14,23.14,0,0,0,3-7.87,48.39,48.39,0,0,0,.86-9.15,44.89,44.89,0,0,0-.94-9.15,25,25,0,0,0-3.1-8,17.65,17.65,0,0,0-5.54-5.7,15,15,0,0,0-8.28-2.17,15.29,15.29,0,0,0-8.42,2.17,17.15,17.15,0,0,0-5.47,5.63,23.92,23.92,0,0,0-3,8,49.21,49.21,0,0,0-.86,9.3,44.73,44.73,0,0,0,.94,9.15,24.2,24.2,0,0,0,3,7.88,16.47,16.47,0,0,0,5.54,5.48A17.81,17.81,0,0,0,815.24,82.62Z"/><path class="c" d="M866.72,80.07q4.61,4.65,13.25,4.65a17.7,17.7,0,0,0,10.66-3.22q4.46-3.22,5.47-6.83h18q-4.32,13.95-13.25,20t-21.6,6a41,41,0,0,1-15.84-2.92,32.88,32.88,0,0,1-12-8.33,37.74,37.74,0,0,1-7.56-12.9A49,49,0,0,1,841.23,60,46.91,46.91,0,0,1,844,43.76a38.25,38.25,0,0,1,7.78-13,36.59,36.59,0,0,1,12-8.62A37.23,37.23,0,0,1,879.25,19a34.24,34.24,0,0,1,16.56,3.83A33.48,33.48,0,0,1,907.4,33.12,43.1,43.1,0,0,1,914,47.82a57.06,57.06,0,0,1,1.44,17.25H861.68Q862.11,75.41,866.72,80.07Zm23.11-40.8q-3.67-4.2-11.16-4.2a17.2,17.2,0,0,0-8.14,1.72,15.64,15.64,0,0,0-5.18,4.28,15.9,15.9,0,0,0-2.74,5.4,25.27,25.27,0,0,0-.94,5.1h33.26Q893.5,43.46,889.83,39.26Z"/><path class="c" d="M932.31,79.39a12.28,12.28,0,0,0,3.53,4.05,14.83,14.83,0,0,0,5,2.32,22.42,22.42,0,0,0,5.83.75,20.94,20.94,0,0,0,4.54-.52,15,15,0,0,0,4.32-1.65,9.93,9.93,0,0,0,3.24-3,8.11,8.11,0,0,0,1.3-4.72q0-4.8-6.12-7.2a118.75,118.75,0,0,0-17.06-4.8q-4.46-1-8.71-2.48a29.16,29.16,0,0,1-7.56-3.75,17.91,17.91,0,0,1-5.33-5.85,17.11,17.11,0,0,1-2-8.62q0-7.5,2.81-12.3A21.12,21.12,0,0,1,923.45,24a31.68,31.68,0,0,1,10.37-3.9A61.45,61.45,0,0,1,945.63,19a56.81,56.81,0,0,1,11.74,1.2,30.39,30.39,0,0,1,10.15,4,23.84,23.84,0,0,1,7.42,7.58,26.25,26.25,0,0,1,3.53,11.92H959q-0.43-6.15-4.46-8.32a19.74,19.74,0,0,0-9.5-2.18,33.81,33.81,0,0,0-3.74.23,12.08,12.08,0,0,0-3.67,1,7.61,7.61,0,0,0-2.81,2.17,5.9,5.9,0,0,0-1.15,3.83,5.94,5.94,0,0,0,2,4.65A15.34,15.34,0,0,0,940.95,48a63.61,63.61,0,0,0,7.42,2q4.17,0.9,8.5,1.95a84.32,84.32,0,0,1,8.71,2.55,28.26,28.26,0,0,1,7.56,4,19,19,0,0,1,5.33,6.15,18.67,18.67,0,0,1,2,9.07,25.59,25.59,0,0,1-3,12.83,24.2,24.2,0,0,1-7.71,8.33,30.84,30.84,0,0,1-10.87,4.42,61,61,0,0,1-12.46,1.28,59.29,59.29,0,0,1-12.67-1.35,32.63,32.63,0,0,1-11-4.5,25.24,25.24,0,0,1-7.92-8.32,26.88,26.88,0,0,1-3.38-13h19.44A12,12,0,0,0,932.31,79.39Z"/><path class="c" d="M-8,246.39a12.27,12.27,0,0,0,3.53,4.05,14.82,14.82,0,0,0,5,2.32,22.41,22.41,0,0,0,5.83.75,20.93,20.93,0,0,0,4.54-.52,15,15,0,0,0,4.32-1.65,10,10,0,0,0,3.24-3,8.12,8.12,0,0,0,1.3-4.72q0-4.8-6.12-7.2a118.77,118.77,0,0,0-17.06-4.8q-4.46-1-8.71-2.48a29.14,29.14,0,0,1-7.56-3.75,17.91,17.91,0,0,1-5.33-5.85,17.1,17.1,0,0,1-2-8.62q0-7.5,2.81-12.3A21.13,21.13,0,0,1-16.87,191a31.69,31.69,0,0,1,10.37-3.9A61.44,61.44,0,0,1,5.3,186,56.8,56.8,0,0,1,17,187.21a30.39,30.39,0,0,1,10.15,4,23.83,23.83,0,0,1,7.42,7.58,26.22,26.22,0,0,1,3.53,11.92H18.7q-0.43-6.15-4.46-8.32a19.75,19.75,0,0,0-9.5-2.18,33.79,33.79,0,0,0-3.74.23,12.08,12.08,0,0,0-3.67,1,7.61,7.61,0,0,0-2.81,2.17,5.9,5.9,0,0,0-1.15,3.83,5.94,5.94,0,0,0,2,4.65A15.34,15.34,0,0,0,.62,215a63.61,63.61,0,0,0,7.42,2q4.17,0.9,8.5,1.95a84.41,84.41,0,0,1,8.71,2.55,28.29,28.29,0,0,1,7.56,4,19,19,0,0,1,5.33,6.15,18.68,18.68,0,0,1,2,9.07,25.58,25.58,0,0,1-3,12.83,24.19,24.19,0,0,1-7.7,8.33,30.84,30.84,0,0,1-10.87,4.42,61,61,0,0,1-12.46,1.28A59.28,59.28,0,0,1-6.5,266.26a32.63,32.63,0,0,1-11-4.5,25.23,25.23,0,0,1-7.92-8.32,26.87,26.87,0,0,1-3.38-13H-9.38A12,12,0,0,0-8,246.39Z"/><path class="c" d="M63.19,242.57v23.1H40.58v-23.1H63.19Z"/><path class="c" d="M102.93,202.07a13.94,13.94,0,0,0-8.21,2.32,18.19,18.19,0,0,0-5.4,6,26.59,26.59,0,0,0-3,8.1,45.7,45.7,0,0,0-.87,8.77,43.81,43.81,0,0,0,.87,8.55,27.13,27.13,0,0,0,2.81,7.88,16.52,16.52,0,0,0,5.26,5.77,14,14,0,0,0,8.06,2.25q7.34,0,11.3-4.27t5-11.48H138.5q-2,15.45-11.52,23.55t-24.34,8.1a39.32,39.32,0,0,1-15.34-2.92,33.89,33.89,0,0,1-11.88-8.18A37.41,37.41,0,0,1,67.8,244a45,45,0,0,1-2.74-16,53.62,53.62,0,0,1,2.52-16.72A38,38,0,0,1,75,197.94a34,34,0,0,1,12-8.78A39.19,39.19,0,0,1,103.08,186a44.94,44.94,0,0,1,12.74,1.8,33.47,33.47,0,0,1,10.94,5.47,29,29,0,0,1,7.85,9.15,30.1,30.1,0,0,1,3.46,13h-20Q116,202.07,102.93,202.07Z"/><path class="c" d="M138.07,210.09a36.54,36.54,0,0,1,7.78-12.9,34.75,34.75,0,0,1,12.1-8.25A41,41,0,0,1,173.78,186a41.56,41.56,0,0,1,15.91,2.93,34.62,34.62,0,0,1,12.17,8.25,36.59,36.59,0,0,1,7.78,12.9A49.44,49.44,0,0,1,212.37,227a48.78,48.78,0,0,1-2.74,16.8,36.65,36.65,0,0,1-7.78,12.83,33.76,33.76,0,0,1-12.17,8.17,42.56,42.56,0,0,1-15.91,2.85,42,42,0,0,1-15.84-2.85,33.87,33.87,0,0,1-12.1-8.17,36.6,36.6,0,0,1-7.78-12.83,48.73,48.73,0,0,1-2.74-16.8A49.4,49.4,0,0,1,138.07,210.09Zm18.58,26a24.75,24.75,0,0,0,3,8,16,16,0,0,0,5.54,5.63,16.37,16.37,0,0,0,8.64,2.1,16.76,16.76,0,0,0,8.71-2.1,15.85,15.85,0,0,0,5.62-5.62,24.8,24.8,0,0,0,3-8,47.22,47.22,0,0,0,.86-9.08,48.41,48.41,0,0,0-.86-9.15,24,24,0,0,0-3-8,16.71,16.71,0,0,0-5.62-5.62,16.33,16.33,0,0,0-8.71-2.17,16,16,0,0,0-8.64,2.17,16.91,16.91,0,0,0-5.54,5.63,23.94,23.94,0,0,0-3,8,48.41,48.41,0,0,0-.86,9.15A47.22,47.22,0,0,0,156.64,236Z"/><path class="c" d="M233.11,188.12v10.5h0.29a29.59,29.59,0,0,1,9.72-9.3,25.5,25.5,0,0,1,13-3.3A29,29,0,0,1,269,188.87q5.83,2.85,8.86,10a32.32,32.32,0,0,1,9-9,23.22,23.22,0,0,1,13.46-3.9,38.29,38.29,0,0,1,10.94,1.5,21.8,21.8,0,0,1,8.64,4.8,22.09,22.09,0,0,1,5.62,8.63,36.32,36.32,0,0,1,2,12.82v51.9H307.12v-44q0-3.9-.29-7.35a16.15,16.15,0,0,0-1.58-6,9.83,9.83,0,0,0-3.82-4,13.36,13.36,0,0,0-6.84-1.5,12.68,12.68,0,0,0-7,1.72,12.28,12.28,0,0,0-4.18,4.5,18.54,18.54,0,0,0-2,6.3,50,50,0,0,0-.5,7.13v43.2H260.47v-43.5q0-3.45-.14-6.83a19.88,19.88,0,0,0-1.22-6.22,9.53,9.53,0,0,0-3.6-4.58q-2.52-1.72-7.42-1.72a14.75,14.75,0,0,0-3.82.67,12.5,12.5,0,0,0-4.61,2.55,14.85,14.85,0,0,0-3.82,5.4,22.7,22.7,0,0,0-1.58,9.22v45H213.81V188.12h19.3Z"/><path class="c" d="M354.79,242.57v23.1H332.18v-23.1h22.61Z"/><path class="c" d="M427.51,188.12v14.25h-15v38.4q0,5.4,1.73,7.2t6.91,1.8c1.15,0,2.25,0,3.31-.15a27,27,0,0,0,3-.45v16.5a47,47,0,0,1-5.76.6q-3.17.15-6.19,0.15a57.3,57.3,0,0,1-9-.67,20.63,20.63,0,0,1-7.49-2.62,13.65,13.65,0,0,1-5.11-5.55,20.5,20.5,0,0,1-1.87-9.45V202.37H379.7V188.12h12.38V164.87h20.45v23.25h15Z"/><path class="c" d="M445.36,158.57v40.35h0.43a24.12,24.12,0,0,1,9.94-9.83A26,26,0,0,1,467.54,186q8.21,0,13.46,2.33a20.09,20.09,0,0,1,8.28,6.45,25.52,25.52,0,0,1,4.25,10A65.15,65.15,0,0,1,494.75,218v47.7H474.3v-43.8q0-9.6-2.88-14.33t-10.22-4.72q-8.35,0-12.1,5.17t-3.74,17v40.65H424.91V158.57h20.45Z"/><path class="c" d="M519.81,247.07q4.61,4.65,13.25,4.65a17.7,17.7,0,0,0,10.66-3.22q4.46-3.22,5.47-6.83h18q-4.32,13.95-13.25,20t-21.6,6a41,41,0,0,1-15.84-2.92,32.87,32.87,0,0,1-12-8.33,37.73,37.73,0,0,1-7.56-12.9,49,49,0,0,1-2.66-16.5,46.93,46.93,0,0,1,2.74-16.2,38.25,38.25,0,0,1,7.78-13,36.59,36.59,0,0,1,12-8.62A37.22,37.22,0,0,1,532.33,186a34.24,34.24,0,0,1,16.56,3.83,33.46,33.46,0,0,1,11.59,10.28,43.08,43.08,0,0,1,6.55,14.7,57,57,0,0,1,1.44,17.25H514.77Q515.2,242.41,519.81,247.07Zm23.11-40.8q-3.67-4.2-11.16-4.2a17.2,17.2,0,0,0-8.14,1.72,15.63,15.63,0,0,0-5.18,4.28,15.87,15.87,0,0,0-2.74,5.4,25.2,25.2,0,0,0-.94,5.1H548Q546.59,210.46,542.92,206.26Z"/><path class="c" d="M588.64,158.57v39h0.29a22.06,22.06,0,0,1,10.15-8.78A33.18,33.18,0,0,1,612.4,186a27.4,27.4,0,0,1,11.09,2.4,28.47,28.47,0,0,1,9.86,7.35,38,38,0,0,1,7.13,12.68,55.19,55.19,0,0,1,2.74,18.38,55.17,55.17,0,0,1-2.74,18.38,38,38,0,0,1-7.13,12.67,28.45,28.45,0,0,1-9.86,7.35,27.4,27.4,0,0,1-11.09,2.4,37.89,37.89,0,0,1-14.69-2.7,18.92,18.92,0,0,1-9.79-9.15h-0.29v9.9H568.19V158.57h20.45Zm33.12,58.95a25.29,25.29,0,0,0-3.17-7.95,16.94,16.94,0,0,0-5.4-5.48,16.08,16.08,0,0,0-15.62,0,16.65,16.65,0,0,0-5.47,5.48,25.23,25.23,0,0,0-3.17,7.95,43.08,43.08,0,0,0-1,9.45,42.35,42.35,0,0,0,1,9.3,25.21,25.21,0,0,0,3.17,8,16.63,16.63,0,0,0,5.47,5.48,16.08,16.08,0,0,0,15.62,0,16.92,16.92,0,0,0,5.4-5.48,25.28,25.28,0,0,0,3.17-8,42.53,42.53,0,0,0,1-9.3A43.25,43.25,0,0,0,621.76,217.51Z"/><path class="c" d="M644.22,210.09a36.53,36.53,0,0,1,7.78-12.9,34.75,34.75,0,0,1,12.1-8.25A41,41,0,0,1,679.93,186a41.55,41.55,0,0,1,15.91,2.93A34.62,34.62,0,0,1,708,197.19a36.61,36.61,0,0,1,7.78,12.9A49.42,49.42,0,0,1,718.52,227a48.76,48.76,0,0,1-2.74,16.8A36.67,36.67,0,0,1,708,256.59a33.76,33.76,0,0,1-12.17,8.17,42.55,42.55,0,0,1-15.91,2.85,42,42,0,0,1-15.84-2.85,33.87,33.87,0,0,1-12.1-8.17,36.59,36.59,0,0,1-7.78-12.83,48.71,48.71,0,0,1-2.74-16.8A49.37,49.37,0,0,1,644.22,210.09Zm18.58,26a24.73,24.73,0,0,0,3,8,16,16,0,0,0,5.54,5.63,16.37,16.37,0,0,0,8.64,2.1,16.76,16.76,0,0,0,8.71-2.1,15.84,15.84,0,0,0,5.62-5.62,24.8,24.8,0,0,0,3-8,47.3,47.3,0,0,0,.86-9.08,48.49,48.49,0,0,0-.86-9.15,24,24,0,0,0-3-8,16.7,16.7,0,0,0-5.62-5.62,16.33,16.33,0,0,0-8.71-2.17,16,16,0,0,0-8.64,2.17,16.91,16.91,0,0,0-5.54,5.63,23.92,23.92,0,0,0-3,8,48.41,48.41,0,0,0-.87,9.15A47.22,47.22,0,0,0,662.8,236Z"/><path class="c" d="M719.82,210.09a36.54,36.54,0,0,1,7.78-12.9,34.74,34.74,0,0,1,12.1-8.25A41,41,0,0,1,755.53,186a41.56,41.56,0,0,1,15.91,2.93,34.62,34.62,0,0,1,12.17,8.25,36.59,36.59,0,0,1,7.78,12.9A49.42,49.42,0,0,1,794.12,227a48.76,48.76,0,0,1-2.74,16.8,36.65,36.65,0,0,1-7.78,12.83,33.76,33.76,0,0,1-12.17,8.17,42.56,42.56,0,0,1-15.91,2.85,42,42,0,0,1-15.84-2.85,33.87,33.87,0,0,1-12.1-8.17,36.6,36.6,0,0,1-7.78-12.83,48.71,48.71,0,0,1-2.74-16.8A49.37,49.37,0,0,1,719.82,210.09Zm18.58,26a24.73,24.73,0,0,0,3,8,16,16,0,0,0,5.54,5.63,16.37,16.37,0,0,0,8.64,2.1,16.76,16.76,0,0,0,8.71-2.1,15.85,15.85,0,0,0,5.62-5.62,24.8,24.8,0,0,0,3-8,47.3,47.3,0,0,0,.86-9.08,48.49,48.49,0,0,0-.86-9.15,24,24,0,0,0-3-8,16.71,16.71,0,0,0-5.62-5.62,16.33,16.33,0,0,0-8.71-2.17,16,16,0,0,0-8.64,2.17,16.92,16.92,0,0,0-5.54,5.63,23.92,23.92,0,0,0-3,8,48.41,48.41,0,0,0-.86,9.15A47.22,47.22,0,0,0,738.4,236Z"/><path class="c" d="M817.31,158.57V216l25.78-27.9h24.19l-28.08,28.5,31.25,49H845.67L825.23,231l-7.92,8v26.7H796.86V158.57h20.45Z"/><path class="c" d="M865.69,210.09a36.54,36.54,0,0,1,7.78-12.9,34.74,34.74,0,0,1,12.1-8.25A41,41,0,0,1,901.4,186a41.56,41.56,0,0,1,15.91,2.93,34.62,34.62,0,0,1,12.17,8.25,36.59,36.59,0,0,1,7.78,12.9A49.42,49.42,0,0,1,940,227a48.76,48.76,0,0,1-2.74,16.8,36.65,36.65,0,0,1-7.78,12.83,33.76,33.76,0,0,1-12.17,8.17,42.56,42.56,0,0,1-15.91,2.85,42,42,0,0,1-15.84-2.85,33.87,33.87,0,0,1-12.1-8.17,36.6,36.6,0,0,1-7.78-12.83A48.71,48.71,0,0,1,863,227,49.37,49.37,0,0,1,865.69,210.09Zm18.58,26a24.73,24.73,0,0,0,3,8,16,16,0,0,0,5.54,5.63,16.37,16.37,0,0,0,8.64,2.1,16.76,16.76,0,0,0,8.71-2.1,15.85,15.85,0,0,0,5.62-5.62,24.8,24.8,0,0,0,3-8,47.3,47.3,0,0,0,.86-9.08,48.49,48.49,0,0,0-.86-9.15,24,24,0,0,0-3-8,16.71,16.71,0,0,0-5.62-5.62,16.33,16.33,0,0,0-8.71-2.17,16,16,0,0,0-8.64,2.17,16.92,16.92,0,0,0-5.54,5.63,23.92,23.92,0,0,0-3,8,48.41,48.41,0,0,0-.86,9.15A47.22,47.22,0,0,0,884.26,236Z"/><path class="c" d="M933.08,202.37V188.12h12.24v-6q0-10.35,6.19-17t18.72-6.6q2.73,0,5.47.22t5.33,0.38v15.9a60.22,60.22,0,0,0-7.49-.45q-4.18,0-6,2t-1.8,6.83v4.65h14.11v14.25H965.77v63.3H945.32v-63.3H933.08Z"/><path class="c" d="M-9,369.37V355.12H3.24v-6q0-10.35,6.19-17t18.72-6.6q2.73,0,5.47.22T39,326.17v15.9a60.22,60.22,0,0,0-7.49-.45q-4.18,0-6,2t-1.8,6.83v4.65H37.8v14.25H23.69v63.3H3.24v-63.3H-9Z"/><path class="c" d="M51.55,413.39a12.28,12.28,0,0,0,3.53,4.05,14.83,14.83,0,0,0,5,2.32,22.42,22.42,0,0,0,5.83.75,20.94,20.94,0,0,0,4.54-.52,15,15,0,0,0,4.32-1.65,9.93,9.93,0,0,0,3.24-3,8.11,8.11,0,0,0,1.3-4.72q0-4.8-6.12-7.2a118.75,118.75,0,0,0-17.06-4.8q-4.46-1-8.71-2.48a29.16,29.16,0,0,1-7.56-3.75,17.91,17.91,0,0,1-5.33-5.85,17.11,17.11,0,0,1-2-8.62q0-7.5,2.81-12.3A21.12,21.12,0,0,1,42.7,358a31.68,31.68,0,0,1,10.37-3.9A61.45,61.45,0,0,1,64.87,353a56.81,56.81,0,0,1,11.74,1.2,30.39,30.39,0,0,1,10.15,4,23.83,23.83,0,0,1,7.42,7.58,26.22,26.22,0,0,1,3.53,11.92H78.26q-0.43-6.15-4.46-8.32a19.74,19.74,0,0,0-9.5-2.18,33.81,33.81,0,0,0-3.74.23,12.08,12.08,0,0,0-3.67,1,7.61,7.61,0,0,0-2.81,2.17,6.6,6.6,0,0,0,.87,8.48A15.34,15.34,0,0,0,60.19,382a63.61,63.61,0,0,0,7.42,2q4.17,0.9,8.5,1.95a84.32,84.32,0,0,1,8.71,2.55,28.26,28.26,0,0,1,7.56,4,19,19,0,0,1,5.33,6.15,18.67,18.67,0,0,1,2,9.07,25.58,25.58,0,0,1-3,12.83,24.2,24.2,0,0,1-7.71,8.33,30.84,30.84,0,0,1-10.87,4.42,61,61,0,0,1-12.46,1.28,59.29,59.29,0,0,1-12.67-1.35,32.63,32.63,0,0,1-11-4.5,25.24,25.24,0,0,1-7.92-8.32,26.88,26.88,0,0,1-3.38-13H50.18A12,12,0,0,0,51.55,413.39Z"/><path class="c" d="M140.18,355.12v14.25h-15v38.4q0,5.4,1.73,7.2t6.91,1.8q1.73,0,3.31-.15a27,27,0,0,0,3-.45v16.5a47,47,0,0,1-5.76.6q-3.17.15-6.19,0.15a57.3,57.3,0,0,1-9-.67,20.64,20.64,0,0,1-7.49-2.62,13.65,13.65,0,0,1-5.11-5.55,20.52,20.52,0,0,1-1.87-9.45V369.37H92.37V355.12h12.38V331.87h20.45v23.25h15Z"/><path class="c" d="M157,355.12v14.4h0.29a26.36,26.36,0,0,1,3.89-6.67,25.93,25.93,0,0,1,5.62-5.25,27.07,27.07,0,0,1,6.77-3.37,23.55,23.55,0,0,1,7.49-1.2,15.4,15.4,0,0,1,4.46.75v19.8q-1.44-.3-3.46-0.53a35,35,0,0,0-3.89-.22,21.07,21.07,0,0,0-9.5,1.95,16.63,16.63,0,0,0-6.26,5.33A21.77,21.77,0,0,0,159,388a44.59,44.59,0,0,0-1,9.75v35H137.59V355.12H157Z"/><path class="c" d="M181.79,343.12V325.57h20.45v17.55H181.79Zm20.45,12v77.55H181.79V355.12h20.45Z"/><path class="c" d="M225.43,355.12V365h0.29a22.86,22.86,0,0,1,9.5-9.15A28.19,28.19,0,0,1,247.89,353,31.2,31.2,0,0,1,263,356.46a31.6,31.6,0,0,1,10.51,9.15,39.39,39.39,0,0,1,6.19,13.27,61.35,61.35,0,0,1,2,15.83,55.41,55.41,0,0,1-2,15,38.82,38.82,0,0,1-6.12,12.75,30.64,30.64,0,0,1-10.22,8.85,29.77,29.77,0,0,1-14.33,3.3,28,28,0,0,1-12.74-2.92,24.42,24.42,0,0,1-9.58-8.62h-0.29v36.75H206V355.12h19.44ZM252,416.62a16.73,16.73,0,0,0,5.47-5.48,23.14,23.14,0,0,0,3-7.87,48.39,48.39,0,0,0,.86-9.15,44.89,44.89,0,0,0-.94-9.15,25,25,0,0,0-3.1-8,17.63,17.63,0,0,0-5.54-5.7,15,15,0,0,0-8.28-2.17,15.29,15.29,0,0,0-8.42,2.17,17.15,17.15,0,0,0-5.47,5.63,23.94,23.94,0,0,0-3,8,49.21,49.21,0,0,0-.86,9.3,44.66,44.66,0,0,0,.94,9.15,24.18,24.18,0,0,0,3,7.88,16.47,16.47,0,0,0,5.54,5.48A17.81,17.81,0,0,0,252,416.62Z"/><path class="c" d="M303.47,414.07q4.61,4.65,13.25,4.65a17.7,17.7,0,0,0,10.66-3.22q4.46-3.22,5.47-6.83h18q-4.32,13.95-13.25,20t-21.6,6a41,41,0,0,1-15.84-2.92,32.87,32.87,0,0,1-12-8.33,37.73,37.73,0,0,1-7.56-12.9A49,49,0,0,1,278,394a46.93,46.93,0,0,1,2.74-16.2,38.25,38.25,0,0,1,7.78-13,36.59,36.59,0,0,1,12-8.62A37.22,37.22,0,0,1,316,353a34.24,34.24,0,0,1,16.56,3.83,33.46,33.46,0,0,1,11.59,10.28,43.08,43.08,0,0,1,6.55,14.7,57,57,0,0,1,1.44,17.25H298.43Q298.86,409.41,303.47,414.07Zm23.11-40.8q-3.67-4.2-11.16-4.2a17.2,17.2,0,0,0-8.14,1.72,15.63,15.63,0,0,0-5.18,4.28,15.87,15.87,0,0,0-2.74,5.4,25.2,25.2,0,0,0-.94,5.1H331.7Q330.26,377.46,326.58,373.26Z"/><path class="c" d="M369.06,413.39a12.28,12.28,0,0,0,3.53,4.05,14.82,14.82,0,0,0,5,2.32,22.43,22.43,0,0,0,5.83.75,20.94,20.94,0,0,0,4.54-.52,15,15,0,0,0,4.32-1.65,10,10,0,0,0,3.24-3,8.11,8.11,0,0,0,1.3-4.72q0-4.8-6.12-7.2a118.75,118.75,0,0,0-17.06-4.8q-4.46-1-8.71-2.48a29.17,29.17,0,0,1-7.56-3.75,17.89,17.89,0,0,1-5.33-5.85,17.12,17.12,0,0,1-2-8.62q0-7.5,2.81-12.3a21.13,21.13,0,0,1,7.42-7.58,31.69,31.69,0,0,1,10.37-3.9A61.45,61.45,0,0,1,382.38,353a56.79,56.79,0,0,1,11.74,1.2,30.39,30.39,0,0,1,10.15,4,23.83,23.83,0,0,1,7.42,7.58,26.22,26.22,0,0,1,3.53,11.92H395.78q-0.43-6.15-4.46-8.32a19.74,19.74,0,0,0-9.5-2.18,33.82,33.82,0,0,0-3.74.23,12.1,12.1,0,0,0-3.67,1,7.61,7.61,0,0,0-2.81,2.17,6.6,6.6,0,0,0,.86,8.48A15.35,15.35,0,0,0,377.7,382a63.66,63.66,0,0,0,7.42,2q4.17,0.9,8.5,1.95a84.41,84.41,0,0,1,8.71,2.55,28.25,28.25,0,0,1,7.56,4,19,19,0,0,1,5.33,6.15,18.67,18.67,0,0,1,2,9.07,25.57,25.57,0,0,1-3,12.83,24.19,24.19,0,0,1-7.7,8.33,30.84,30.84,0,0,1-10.87,4.42,61,61,0,0,1-12.46,1.28,59.28,59.28,0,0,1-12.67-1.35,32.65,32.65,0,0,1-11-4.5,25.25,25.25,0,0,1-7.92-8.32,26.89,26.89,0,0,1-3.38-13H367.7A12.05,12.05,0,0,0,369.06,413.39Z"/><path class="c" d="M440.27,409.57v23.1H417.66v-23.1h22.61Z"/><path class="c" d="M480,369.07a13.94,13.94,0,0,0-8.21,2.32,18.19,18.19,0,0,0-5.4,6,26.62,26.62,0,0,0-3,8.1,45.7,45.7,0,0,0-.86,8.77,43.8,43.8,0,0,0,.86,8.55,27.1,27.1,0,0,0,2.81,7.88,16.52,16.52,0,0,0,5.26,5.77,14,14,0,0,0,8.06,2.25q7.34,0,11.3-4.27t5-11.48h19.73q-2,15.45-11.52,23.55t-24.34,8.1a39.32,39.32,0,0,1-15.34-2.92,33.88,33.88,0,0,1-11.88-8.18A37.38,37.38,0,0,1,444.88,411a45,45,0,0,1-2.74-16,53.59,53.59,0,0,1,2.52-16.72,38,38,0,0,1,7.42-13.35,34,34,0,0,1,12-8.78A39.19,39.19,0,0,1,480.16,353a44.93,44.93,0,0,1,12.74,1.8,33.48,33.48,0,0,1,10.94,5.47,29,29,0,0,1,7.85,9.15,30.12,30.12,0,0,1,3.46,13h-20Q493.12,369.07,480,369.07Z"/><path class="c" d="M515.15,377.09a36.53,36.53,0,0,1,7.78-12.9,34.75,34.75,0,0,1,12.1-8.25A41,41,0,0,1,550.86,353a41.55,41.55,0,0,1,15.91,2.93,34.62,34.62,0,0,1,12.17,8.25,36.61,36.61,0,0,1,7.78,12.9A49.42,49.42,0,0,1,589.45,394a48.76,48.76,0,0,1-2.74,16.8,36.67,36.67,0,0,1-7.78,12.83,33.76,33.76,0,0,1-12.17,8.17,42.55,42.55,0,0,1-15.91,2.85A42,42,0,0,1,535,431.76a33.87,33.87,0,0,1-12.1-8.17,36.59,36.59,0,0,1-7.78-12.83,48.71,48.71,0,0,1-2.74-16.8A49.37,49.37,0,0,1,515.15,377.09Zm18.58,26a24.73,24.73,0,0,0,3,8,16,16,0,0,0,5.54,5.63,16.37,16.37,0,0,0,8.64,2.1,16.76,16.76,0,0,0,8.71-2.1,15.84,15.84,0,0,0,5.62-5.62,24.8,24.8,0,0,0,3-8A47.3,47.3,0,0,0,569,394a48.49,48.49,0,0,0-.86-9.15,24,24,0,0,0-3-8,16.7,16.7,0,0,0-5.62-5.62,16.33,16.33,0,0,0-8.71-2.17,16,16,0,0,0-8.64,2.17,16.91,16.91,0,0,0-5.54,5.63,23.92,23.92,0,0,0-3,8,48.41,48.41,0,0,0-.87,9.15A47.22,47.22,0,0,0,533.72,403Z"/><path class="c" d="M610.19,355.12v10.5h0.29a29.59,29.59,0,0,1,9.72-9.3,25.5,25.5,0,0,1,13-3.3,29,29,0,0,1,12.89,2.85q5.83,2.85,8.86,10a32.33,32.33,0,0,1,9-9,23.23,23.23,0,0,1,13.46-3.9,38.3,38.3,0,0,1,10.94,1.5,21.81,21.81,0,0,1,8.64,4.8,22.09,22.09,0,0,1,5.62,8.63,36.3,36.3,0,0,1,2,12.82v51.9H684.2v-44q0-3.9-.29-7.35a16.13,16.13,0,0,0-1.58-6,9.83,9.83,0,0,0-3.82-4,13.36,13.36,0,0,0-6.84-1.5,12.68,12.68,0,0,0-7,1.72,12.28,12.28,0,0,0-4.18,4.5,18.52,18.52,0,0,0-2,6.3,50.15,50.15,0,0,0-.5,7.13v43.2H637.55v-43.5q0-3.45-.14-6.83a19.88,19.88,0,0,0-1.22-6.22,9.52,9.52,0,0,0-3.6-4.58q-2.52-1.72-7.42-1.72a14.74,14.74,0,0,0-3.82.67,12.52,12.52,0,0,0-4.61,2.55,14.88,14.88,0,0,0-3.82,5.4,22.7,22.7,0,0,0-1.58,9.22v45H590.89V355.12h19.3Z"/><path class="c" d="M731.87,409.57v23.1H709.26v-23.1h22.61Z"/><path class="c" d="M804.59,355.12v14.25h-15v38.4q0,5.4,1.73,7.2t6.91,1.8q1.73,0,3.31-.15a27,27,0,0,0,3-.45v16.5a47,47,0,0,1-5.76.6q-3.17.15-6.19,0.15a57.3,57.3,0,0,1-9-.67,20.64,20.64,0,0,1-7.49-2.62,13.65,13.65,0,0,1-5.11-5.55,20.52,20.52,0,0,1-1.87-9.45V369.37H756.78V355.12h12.38V331.87h20.45v23.25h15Z"/><path class="c" d="M822.44,325.57v40.35h0.43a24.12,24.12,0,0,1,9.94-9.83A26,26,0,0,1,844.62,353q8.21,0,13.46,2.33a20.09,20.09,0,0,1,8.28,6.45,25.5,25.5,0,0,1,4.25,10A65.15,65.15,0,0,1,871.83,385v47.7H851.38v-43.8q0-9.6-2.88-14.33t-10.22-4.72q-8.35,0-12.1,5.17t-3.74,17v40.65H802V325.57h20.45Z"/><path class="c" d="M896.89,414.07q4.61,4.65,13.25,4.65a17.7,17.7,0,0,0,10.66-3.22q4.46-3.22,5.47-6.83h18q-4.32,13.95-13.25,20t-21.6,6a41,41,0,0,1-15.84-2.92,32.88,32.88,0,0,1-12-8.33,37.74,37.74,0,0,1-7.56-12.9A49,49,0,0,1,871.4,394a46.91,46.91,0,0,1,2.74-16.2,38.25,38.25,0,0,1,7.78-13,36.59,36.59,0,0,1,12-8.62A37.23,37.23,0,0,1,909.41,353,34.24,34.24,0,0,1,926,356.84a33.48,33.48,0,0,1,11.59,10.28,43.1,43.1,0,0,1,6.55,14.7,57.06,57.06,0,0,1,1.44,17.25H891.85Q892.28,409.41,896.89,414.07ZM920,373.26q-3.67-4.2-11.16-4.2a17.2,17.2,0,0,0-8.14,1.72,15.64,15.64,0,0,0-5.18,4.28,15.9,15.9,0,0,0-2.74,5.4,25.27,25.27,0,0,0-.94,5.1h33.26Q923.67,377.46,920,373.26Z"/><path class="c" d="M19.22,492.57v39h0.29a22.06,22.06,0,0,1,10.15-8.78A33.18,33.18,0,0,1,43,520a27.4,27.4,0,0,1,11.09,2.4,28.48,28.48,0,0,1,9.86,7.35,38,38,0,0,1,7.13,12.68,63.09,63.09,0,0,1,0,36.75,38,38,0,0,1-7.13,12.67,28.45,28.45,0,0,1-9.86,7.35A27.4,27.4,0,0,1,43,601.62a37.89,37.89,0,0,1-14.69-2.7,18.92,18.92,0,0,1-9.79-9.15H18.22v9.9H-1.22V492.57H19.22Zm33.12,58.95a25.25,25.25,0,0,0-3.17-7.95,16.93,16.93,0,0,0-5.4-5.48,14.52,14.52,0,0,0-7.85-2,14.61,14.61,0,0,0-7.78,2,16.66,16.66,0,0,0-5.47,5.48,25.25,25.25,0,0,0-3.17,7.95,43.14,43.14,0,0,0-1,9.45,42.41,42.41,0,0,0,1,9.3,25.24,25.24,0,0,0,3.17,8,16.65,16.65,0,0,0,5.47,5.48,14.61,14.61,0,0,0,7.78,2,14.52,14.52,0,0,0,7.85-2,16.91,16.91,0,0,0,5.4-5.48,25.24,25.24,0,0,0,3.17-8,42.47,42.47,0,0,0,1-9.3A43.19,43.19,0,0,0,52.34,551.51Z"/><path class="c" d="M74.81,544.09a36.54,36.54,0,0,1,7.78-12.9,34.75,34.75,0,0,1,12.1-8.25A41,41,0,0,1,110.52,520a41.56,41.56,0,0,1,15.91,2.93,34.62,34.62,0,0,1,12.17,8.25,36.59,36.59,0,0,1,7.78,12.9A49.44,49.44,0,0,1,149.11,561a48.78,48.78,0,0,1-2.74,16.8,36.65,36.65,0,0,1-7.78,12.83,33.76,33.76,0,0,1-12.17,8.17,42.56,42.56,0,0,1-15.91,2.85,42,42,0,0,1-15.84-2.85,33.87,33.87,0,0,1-12.1-8.17,36.6,36.6,0,0,1-7.78-12.83A48.73,48.73,0,0,1,72.07,561,49.4,49.4,0,0,1,74.81,544.09Zm18.58,26a24.75,24.75,0,0,0,3,8,16,16,0,0,0,5.54,5.63,16.37,16.37,0,0,0,8.64,2.1,16.76,16.76,0,0,0,8.71-2.1,15.85,15.85,0,0,0,5.62-5.62,24.8,24.8,0,0,0,3-8,47.22,47.22,0,0,0,.86-9.08,48.41,48.41,0,0,0-.86-9.15,24,24,0,0,0-3-8,16.71,16.71,0,0,0-5.62-5.62,16.33,16.33,0,0,0-8.71-2.17,16,16,0,0,0-8.64,2.17,16.91,16.91,0,0,0-5.54,5.63,23.94,23.94,0,0,0-3,8,48.41,48.41,0,0,0-.86,9.15A47.22,47.22,0,0,0,93.38,570Z"/><path class="c" d="M150.41,544.09a36.53,36.53,0,0,1,7.78-12.9,34.75,34.75,0,0,1,12.1-8.25A41,41,0,0,1,186.12,520,41.55,41.55,0,0,1,202,522.94a34.62,34.62,0,0,1,12.17,8.25,36.61,36.61,0,0,1,7.78,12.9A49.42,49.42,0,0,1,224.71,561a48.76,48.76,0,0,1-2.74,16.8,36.67,36.67,0,0,1-7.78,12.83A33.76,33.76,0,0,1,202,598.76a42.55,42.55,0,0,1-15.91,2.85,42,42,0,0,1-15.84-2.85,33.87,33.87,0,0,1-12.1-8.17,36.59,36.59,0,0,1-7.78-12.83,48.71,48.71,0,0,1-2.74-16.8A49.37,49.37,0,0,1,150.41,544.09ZM169,570a24.73,24.73,0,0,0,3,8,16,16,0,0,0,5.54,5.63,16.37,16.37,0,0,0,8.64,2.1,16.76,16.76,0,0,0,8.71-2.1,15.84,15.84,0,0,0,5.62-5.62,24.8,24.8,0,0,0,3-8,47.3,47.3,0,0,0,.86-9.08,48.49,48.49,0,0,0-.86-9.15,24,24,0,0,0-3-8,16.7,16.7,0,0,0-5.62-5.62,16.33,16.33,0,0,0-8.71-2.17,16,16,0,0,0-8.64,2.17,16.91,16.91,0,0,0-5.54,5.63,23.92,23.92,0,0,0-3,8,48.41,48.41,0,0,0-.87,9.15A47.22,47.22,0,0,0,169,570Z"/><path class="c" d="M247.89,492.57V550l25.78-27.9h24.19l-28.08,28.5,31.25,49H276.26L255.81,565l-7.92,8v26.7H227.45V492.57h20.45Z"/><path class="c" d="M296.28,544.09a36.53,36.53,0,0,1,7.78-12.9,34.76,34.76,0,0,1,12.1-8.25A41,41,0,0,1,332,520a41.56,41.56,0,0,1,15.91,2.93,34.62,34.62,0,0,1,12.17,8.25,36.61,36.61,0,0,1,7.78,12.9A49.44,49.44,0,0,1,370.58,561a48.78,48.78,0,0,1-2.74,16.8,36.67,36.67,0,0,1-7.78,12.83,33.76,33.76,0,0,1-12.17,8.17A42.56,42.56,0,0,1,332,601.62a42,42,0,0,1-15.84-2.85,33.88,33.88,0,0,1-12.1-8.17,36.59,36.59,0,0,1-7.78-12.83,48.73,48.73,0,0,1-2.74-16.8A49.39,49.39,0,0,1,296.28,544.09Zm18.58,26a24.75,24.75,0,0,0,3,8,16,16,0,0,0,5.54,5.63,16.37,16.37,0,0,0,8.64,2.1,16.76,16.76,0,0,0,8.71-2.1,15.85,15.85,0,0,0,5.62-5.62,24.8,24.8,0,0,0,3-8,47.22,47.22,0,0,0,.86-9.08,48.41,48.41,0,0,0-.86-9.15,24,24,0,0,0-3-8,16.71,16.71,0,0,0-5.62-5.62,16.33,16.33,0,0,0-8.71-2.17,16,16,0,0,0-8.64,2.17,16.9,16.9,0,0,0-5.54,5.63,23.94,23.94,0,0,0-3,8A48.41,48.41,0,0,0,314,561,47.22,47.22,0,0,0,314.85,570Z"/><path class="c" d="M363.67,536.37V522.12h12.24v-6q0-10.35,6.19-17t18.72-6.6q2.73,0,5.47.22t5.33,0.38v15.9a60.22,60.22,0,0,0-7.49-.45q-4.18,0-6,2t-1.8,6.83v4.65h14.11v14.25H396.35v63.3H375.91v-63.3H363.67Z"/><path class="c" d="M424.22,580.39a12.28,12.28,0,0,0,3.53,4.05,14.83,14.83,0,0,0,5,2.32,22.42,22.42,0,0,0,5.83.75,20.94,20.94,0,0,0,4.54-.52,15,15,0,0,0,4.32-1.65,9.93,9.93,0,0,0,3.24-3,8.11,8.11,0,0,0,1.3-4.72q0-4.8-6.12-7.2a118.75,118.75,0,0,0-17.06-4.8q-4.46-1-8.71-2.48a29.16,29.16,0,0,1-7.56-3.75,17.91,17.91,0,0,1-5.33-5.85,17.11,17.11,0,0,1-2-8.62q0-7.5,2.81-12.3a21.12,21.12,0,0,1,7.42-7.58,31.68,31.68,0,0,1,10.37-3.9A61.45,61.45,0,0,1,437.54,520a56.81,56.81,0,0,1,11.74,1.2,30.39,30.39,0,0,1,10.15,4,23.83,23.83,0,0,1,7.42,7.58,26.22,26.22,0,0,1,3.53,11.92H450.93q-0.43-6.15-4.46-8.32a19.74,19.74,0,0,0-9.5-2.18,33.81,33.81,0,0,0-3.74.23,12.08,12.08,0,0,0-3.67,1,7.61,7.61,0,0,0-2.81,2.17,6.6,6.6,0,0,0,.87,8.48,15.34,15.34,0,0,0,5.26,2.92,63.61,63.61,0,0,0,7.42,2q4.17,0.9,8.5,1.95a84.32,84.32,0,0,1,8.71,2.55,28.26,28.26,0,0,1,7.56,4,19,19,0,0,1,5.33,6.15,18.67,18.67,0,0,1,2,9.07,25.58,25.58,0,0,1-3,12.83,24.2,24.2,0,0,1-7.71,8.33,30.84,30.84,0,0,1-10.87,4.42,61,61,0,0,1-12.46,1.28,59.29,59.29,0,0,1-12.67-1.35,32.63,32.63,0,0,1-11-4.5,25.24,25.24,0,0,1-7.92-8.32,26.88,26.88,0,0,1-3.38-13h19.44A12,12,0,0,0,424.22,580.39Z"/><path class="c" d="M512.85,522.12v14.25h-15v38.4q0,5.4,1.73,7.2t6.91,1.8q1.73,0,3.31-.15a27,27,0,0,0,3-.45v16.5a47,47,0,0,1-5.76.6q-3.17.15-6.19,0.15a57.3,57.3,0,0,1-9-.67,20.64,20.64,0,0,1-7.49-2.62,13.65,13.65,0,0,1-5.11-5.55,20.52,20.52,0,0,1-1.87-9.45V536.37H465V522.12h12.38V498.87h20.45v23.25h15Z"/><path class="c" d="M529.69,522.12v14.4H530a26.36,26.36,0,0,1,3.89-6.67,25.93,25.93,0,0,1,5.62-5.25,27.07,27.07,0,0,1,6.77-3.37,23.55,23.55,0,0,1,7.49-1.2,15.4,15.4,0,0,1,4.46.75v19.8q-1.44-.3-3.46-0.53a35,35,0,0,0-3.89-.22,21.07,21.07,0,0,0-9.5,1.95,16.63,16.63,0,0,0-6.26,5.33,21.77,21.77,0,0,0-3.38,7.88,44.59,44.59,0,0,0-1,9.75v35H510.25V522.12h19.44Z"/><path class="c" d="M554.46,510.12V492.57h20.45v17.55H554.46Zm20.45,12v77.55H554.46V522.12h20.45Z"/><path class="c" d="M598.09,522.12V532h0.29a22.86,22.86,0,0,1,9.5-9.15A28.19,28.19,0,0,1,620.56,520a31.2,31.2,0,0,1,15.12,3.45,31.6,31.6,0,0,1,10.51,9.15,39.39,39.39,0,0,1,6.19,13.27,61.35,61.35,0,0,1,2,15.83,55.41,55.41,0,0,1-2,15,38.82,38.82,0,0,1-6.12,12.75A30.64,30.64,0,0,1,636,598.32a29.77,29.77,0,0,1-14.33,3.3A28,28,0,0,1,609,598.69a24.42,24.42,0,0,1-9.58-8.62H599.1v36.75H578.65V522.12h19.44Zm26.57,61.5a16.73,16.73,0,0,0,5.47-5.48,23.14,23.14,0,0,0,3-7.87,48.39,48.39,0,0,0,.86-9.15A44.89,44.89,0,0,0,633,552a25,25,0,0,0-3.1-8,17.63,17.63,0,0,0-5.54-5.7,15,15,0,0,0-8.28-2.17,15.29,15.29,0,0,0-8.42,2.17,17.15,17.15,0,0,0-5.47,5.63,23.94,23.94,0,0,0-3,8,49.21,49.21,0,0,0-.86,9.3,44.66,44.66,0,0,0,.94,9.15,24.18,24.18,0,0,0,3,7.88,16.47,16.47,0,0,0,5.54,5.48A17.81,17.81,0,0,0,624.66,583.62Z"/><path class="c" d="M676.14,581.07q4.61,4.65,13.25,4.65A17.7,17.7,0,0,0,700,582.49q4.46-3.22,5.47-6.83h18q-4.32,13.95-13.25,20t-21.6,6a41,41,0,0,1-15.84-2.92,32.88,32.88,0,0,1-12-8.33,37.74,37.74,0,0,1-7.56-12.9,49,49,0,0,1-2.66-16.5,46.93,46.93,0,0,1,2.74-16.2,38.26,38.26,0,0,1,7.78-13,36.58,36.58,0,0,1,12-8.62A37.22,37.22,0,0,1,688.67,520a34.23,34.23,0,0,1,16.56,3.83,33.46,33.46,0,0,1,11.59,10.28,43.07,43.07,0,0,1,6.55,14.7,57,57,0,0,1,1.44,17.25H671.1Q671.53,576.41,676.14,581.07Zm23.11-40.8q-3.67-4.2-11.16-4.2a17.21,17.21,0,0,0-8.14,1.72,15.62,15.62,0,0,0-5.18,4.28,15.87,15.87,0,0,0-2.74,5.4,25.13,25.13,0,0,0-.94,5.1h33.26Q702.92,544.46,699.25,540.26Z"/><path class="c" d="M741.73,580.39a12.28,12.28,0,0,0,3.53,4.05,14.82,14.82,0,0,0,5,2.32,22.42,22.42,0,0,0,5.83.75,20.93,20.93,0,0,0,4.54-.52,15,15,0,0,0,4.32-1.65,10,10,0,0,0,3.24-3,8.12,8.12,0,0,0,1.29-4.72q0-4.8-6.12-7.2a118.77,118.77,0,0,0-17.06-4.8q-4.46-1-8.71-2.48a29.15,29.15,0,0,1-7.56-3.75,17.89,17.89,0,0,1-5.33-5.85,17.1,17.1,0,0,1-2-8.62q0-7.5,2.81-12.3a21.15,21.15,0,0,1,7.42-7.58,31.69,31.69,0,0,1,10.37-3.9A61.44,61.44,0,0,1,755,520a56.78,56.78,0,0,1,11.74,1.2,30.39,30.39,0,0,1,10.15,4,23.83,23.83,0,0,1,7.42,7.58,26.22,26.22,0,0,1,3.53,11.92H768.44q-0.43-6.15-4.46-8.32a19.74,19.74,0,0,0-9.5-2.18,33.81,33.81,0,0,0-3.74.23,12.09,12.09,0,0,0-3.67,1,7.61,7.61,0,0,0-2.81,2.17,6.6,6.6,0,0,0,.86,8.48,15.35,15.35,0,0,0,5.26,2.92,63.66,63.66,0,0,0,7.42,2q4.17,0.9,8.5,1.95a84.5,84.5,0,0,1,8.71,2.55,28.28,28.28,0,0,1,7.56,4,19,19,0,0,1,5.33,6.15,18.68,18.68,0,0,1,2,9.07,25.57,25.57,0,0,1-3,12.83,24.19,24.19,0,0,1-7.7,8.33,30.84,30.84,0,0,1-10.87,4.42,61,61,0,0,1-12.46,1.28,59.27,59.27,0,0,1-12.67-1.35,32.65,32.65,0,0,1-11-4.5,25.24,25.24,0,0,1-7.92-8.32,26.88,26.88,0,0,1-3.38-13h19.44A12.05,12.05,0,0,0,741.73,580.39Z"/><path class="c" d="M812.94,576.57v23.1H790.33v-23.1h22.61Z"/><path class="c" d="M852.68,536.07a13.94,13.94,0,0,0-8.21,2.32,18.19,18.19,0,0,0-5.4,6,26.62,26.62,0,0,0-3,8.1,45.7,45.7,0,0,0-.86,8.77,43.8,43.8,0,0,0,.86,8.55,27.1,27.1,0,0,0,2.81,7.88,16.52,16.52,0,0,0,5.26,5.77,14,14,0,0,0,8.06,2.25q7.34,0,11.3-4.27t5-11.48h19.73q-2,15.45-11.52,23.55t-24.34,8.1a39.32,39.32,0,0,1-15.34-2.92,33.88,33.88,0,0,1-11.88-8.18A37.38,37.38,0,0,1,817.54,578a45,45,0,0,1-2.74-16,53.59,53.59,0,0,1,2.52-16.72,38,38,0,0,1,7.42-13.35,34,34,0,0,1,12-8.78A39.19,39.19,0,0,1,852.82,520a44.93,44.93,0,0,1,12.74,1.8,33.48,33.48,0,0,1,10.94,5.47,29,29,0,0,1,7.85,9.15,30.12,30.12,0,0,1,3.46,13h-20Q865.78,536.07,852.68,536.07Z"/><path class="c" d="M887.81,544.09a36.53,36.53,0,0,1,7.78-12.9,34.76,34.76,0,0,1,12.1-8.25A41,41,0,0,1,923.53,520a41.56,41.56,0,0,1,15.91,2.93,34.62,34.62,0,0,1,12.17,8.25,36.61,36.61,0,0,1,7.78,12.9A49.44,49.44,0,0,1,962.12,561a48.78,48.78,0,0,1-2.74,16.8,36.67,36.67,0,0,1-7.78,12.83,33.76,33.76,0,0,1-12.17,8.17,42.56,42.56,0,0,1-15.91,2.85,42,42,0,0,1-15.84-2.85,33.88,33.88,0,0,1-12.1-8.17,36.59,36.59,0,0,1-7.78-12.83,48.73,48.73,0,0,1-2.74-16.8A49.39,49.39,0,0,1,887.81,544.09Zm18.58,26a24.75,24.75,0,0,0,3,8,16,16,0,0,0,5.54,5.63,16.37,16.37,0,0,0,8.64,2.1,16.76,16.76,0,0,0,8.71-2.1,15.85,15.85,0,0,0,5.62-5.62,24.8,24.8,0,0,0,3-8,47.22,47.22,0,0,0,.86-9.08,48.41,48.41,0,0,0-.86-9.15,24,24,0,0,0-3-8,16.71,16.71,0,0,0-5.62-5.62,16.33,16.33,0,0,0-8.71-2.17,16,16,0,0,0-8.64,2.17,16.9,16.9,0,0,0-5.54,5.63,23.94,23.94,0,0,0-3,8,48.41,48.41,0,0,0-.86,9.15A47.22,47.22,0,0,0,906.39,570Z"/><path class="c" d="M15.65,689.12v10.5h0.29a29.59,29.59,0,0,1,9.72-9.3,25.5,25.5,0,0,1,13-3.3,29,29,0,0,1,12.89,2.85q5.83,2.85,8.86,10a32.33,32.33,0,0,1,9-9A23.23,23.23,0,0,1,82.9,687a38.3,38.3,0,0,1,10.94,1.5,21.81,21.81,0,0,1,8.64,4.8,22.09,22.09,0,0,1,5.62,8.63,36.3,36.3,0,0,1,2,12.82v51.9H89.66v-44q0-3.9-.29-7.35a16.13,16.13,0,0,0-1.58-6,9.83,9.83,0,0,0-3.82-4,13.36,13.36,0,0,0-6.84-1.5,12.68,12.68,0,0,0-7,1.72A12.28,12.28,0,0,0,66,710a18.52,18.52,0,0,0-2,6.3,50.15,50.15,0,0,0-.5,7.13v43.2H43v-43.5q0-3.45-.14-6.83a19.88,19.88,0,0,0-1.22-6.22,9.52,9.52,0,0,0-3.6-4.58q-2.52-1.72-7.42-1.72a14.74,14.74,0,0,0-3.82.67A12.52,12.52,0,0,0,22.2,707a14.88,14.88,0,0,0-3.82,5.4,22.7,22.7,0,0,0-1.58,9.22v45H-3.65V689.12h19.3Z"/><path class="c" d="M137.33,743.57v23.1H114.72v-23.1h22.61Z"/><path class="c" d="M210,689.12v14.25h-15v38.4q0,5.4,1.73,7.2t6.91,1.8q1.73,0,3.31-.15a27,27,0,0,0,3-.45v16.5a47,47,0,0,1-5.76.6q-3.17.15-6.19,0.15a57.3,57.3,0,0,1-9-.67,20.64,20.64,0,0,1-7.49-2.62,13.65,13.65,0,0,1-5.11-5.55,20.52,20.52,0,0,1-1.87-9.45V703.37H162.24V689.12h12.38V665.87h20.45v23.25h15Z"/><path class="c" d="M227.9,659.57v40.35h0.43a24.12,24.12,0,0,1,9.94-9.83A26,26,0,0,1,250.08,687q8.21,0,13.46,2.33a20.09,20.09,0,0,1,8.28,6.45,25.51,25.51,0,0,1,4.25,10A65.15,65.15,0,0,1,277.29,719v47.7H256.85v-43.8q0-9.6-2.88-14.33t-10.22-4.72q-8.35,0-12.1,5.17t-3.74,17v40.65H207.45V659.57H227.9Z"/><path class="c" d="M302.35,748.07q4.61,4.65,13.25,4.65a17.7,17.7,0,0,0,10.66-3.22q4.46-3.22,5.47-6.83h18q-4.32,13.95-13.25,20t-21.6,6A41,41,0,0,1,299,765.69a32.88,32.88,0,0,1-12-8.33,37.74,37.74,0,0,1-7.56-12.9,49,49,0,0,1-2.66-16.5,46.91,46.91,0,0,1,2.74-16.2,38.25,38.25,0,0,1,7.78-13,36.59,36.59,0,0,1,12-8.62A37.23,37.23,0,0,1,314.88,687a34.24,34.24,0,0,1,16.56,3.83A33.48,33.48,0,0,1,343,701.12a43.1,43.1,0,0,1,6.55,14.7A57.06,57.06,0,0,1,351,733.07H297.31Q297.74,743.41,302.35,748.07Zm23.11-40.8q-3.67-4.2-11.16-4.2a17.2,17.2,0,0,0-8.14,1.72,15.64,15.64,0,0,0-5.18,4.28,15.9,15.9,0,0,0-2.74,5.4,25.27,25.27,0,0,0-.94,5.1h33.26Q329.13,711.46,325.46,707.26Z"/><path class="c" d="M371.18,659.57v39h0.29a22.06,22.06,0,0,1,10.15-8.78A33.19,33.19,0,0,1,394.94,687a27.4,27.4,0,0,1,11.09,2.4,28.47,28.47,0,0,1,9.86,7.35A38,38,0,0,1,423,709.44a63.06,63.06,0,0,1,0,36.75,38,38,0,0,1-7.13,12.67,28.45,28.45,0,0,1-9.86,7.35,27.4,27.4,0,0,1-11.09,2.4,37.89,37.89,0,0,1-14.69-2.7,18.93,18.93,0,0,1-9.79-9.15h-0.29v9.9H350.73V659.57h20.45Zm33.12,58.95a25.25,25.25,0,0,0-3.17-7.95,16.93,16.93,0,0,0-5.4-5.48,16.08,16.08,0,0,0-15.62,0,16.67,16.67,0,0,0-5.47,5.48,25.23,25.23,0,0,0-3.17,7.95,43.08,43.08,0,0,0-1,9.45,42.35,42.35,0,0,0,1,9.3,25.21,25.21,0,0,0,3.17,8,16.65,16.65,0,0,0,5.47,5.48,16.08,16.08,0,0,0,15.62,0,16.91,16.91,0,0,0,5.4-5.48,25.24,25.24,0,0,0,3.17-8,42.47,42.47,0,0,0,1-9.3A43.19,43.19,0,0,0,404.3,718.51Z"/><path class="c" d="M426.76,711.09a36.54,36.54,0,0,1,7.78-12.9,34.74,34.74,0,0,1,12.1-8.25A41,41,0,0,1,462.47,687a41.56,41.56,0,0,1,15.91,2.93,34.62,34.62,0,0,1,12.17,8.25,36.59,36.59,0,0,1,7.78,12.9A49.42,49.42,0,0,1,501.06,728a48.76,48.76,0,0,1-2.74,16.8,36.65,36.65,0,0,1-7.78,12.83,33.76,33.76,0,0,1-12.17,8.17,42.56,42.56,0,0,1-15.91,2.85,42,42,0,0,1-15.84-2.85,33.87,33.87,0,0,1-12.1-8.17,36.6,36.6,0,0,1-7.78-12.83A48.71,48.71,0,0,1,424,728,49.37,49.37,0,0,1,426.76,711.09Zm18.58,26a24.73,24.73,0,0,0,3,8,16,16,0,0,0,5.54,5.63,16.37,16.37,0,0,0,8.64,2.1,16.76,16.76,0,0,0,8.71-2.1A15.85,15.85,0,0,0,476.8,745a24.8,24.8,0,0,0,3-8,47.3,47.3,0,0,0,.86-9.08,48.49,48.49,0,0,0-.86-9.15,24,24,0,0,0-3-8,16.71,16.71,0,0,0-5.62-5.62,16.33,16.33,0,0,0-8.71-2.17,16,16,0,0,0-8.64,2.17,16.92,16.92,0,0,0-5.54,5.63,23.92,23.92,0,0,0-3,8,48.41,48.41,0,0,0-.86,9.15A47.22,47.22,0,0,0,445.34,737Z"/><path class="c" d="M502.36,711.09a36.53,36.53,0,0,1,7.78-12.9,34.76,34.76,0,0,1,12.1-8.25A41,41,0,0,1,538.07,687,41.56,41.56,0,0,1,554,689.94a34.62,34.62,0,0,1,12.17,8.25,36.61,36.61,0,0,1,7.78,12.9A49.44,49.44,0,0,1,576.66,728a48.78,48.78,0,0,1-2.74,16.8,36.67,36.67,0,0,1-7.78,12.83A33.76,33.76,0,0,1,554,765.76a42.56,42.56,0,0,1-15.91,2.85,42,42,0,0,1-15.84-2.85,33.88,33.88,0,0,1-12.1-8.17,36.59,36.59,0,0,1-7.78-12.83,48.73,48.73,0,0,1-2.74-16.8A49.39,49.39,0,0,1,502.36,711.09Zm18.58,26a24.75,24.75,0,0,0,3,8,16,16,0,0,0,5.54,5.63,16.37,16.37,0,0,0,8.64,2.1,16.76,16.76,0,0,0,8.71-2.1A15.85,15.85,0,0,0,552.4,745a24.8,24.8,0,0,0,3-8,47.22,47.22,0,0,0,.86-9.08,48.41,48.41,0,0,0-.86-9.15,24,24,0,0,0-3-8,16.71,16.71,0,0,0-5.62-5.62,16.33,16.33,0,0,0-8.71-2.17,16,16,0,0,0-8.64,2.17,16.9,16.9,0,0,0-5.54,5.63,23.94,23.94,0,0,0-3,8,48.41,48.41,0,0,0-.86,9.15A47.22,47.22,0,0,0,520.94,737Z"/><path class="c" d="M599.85,659.57V717l25.78-27.9h24.19l-28.08,28.5,31.25,49H628.21L607.77,732l-7.92,8v26.7H579.4V659.57h20.45Z"/><path class="c" d="M648.23,711.09a36.54,36.54,0,0,1,7.78-12.9,34.75,34.75,0,0,1,12.1-8.25A41,41,0,0,1,683.94,687a41.56,41.56,0,0,1,15.91,2.93A34.62,34.62,0,0,1,712,698.19a36.59,36.59,0,0,1,7.78,12.9A49.44,49.44,0,0,1,722.53,728a48.78,48.78,0,0,1-2.74,16.8A36.65,36.65,0,0,1,712,757.59a33.76,33.76,0,0,1-12.17,8.17,42.56,42.56,0,0,1-15.91,2.85,42,42,0,0,1-15.84-2.85,33.87,33.87,0,0,1-12.1-8.17,36.6,36.6,0,0,1-7.78-12.83,48.73,48.73,0,0,1-2.74-16.8A49.4,49.4,0,0,1,648.23,711.09Zm18.58,26a24.75,24.75,0,0,0,3,8,16,16,0,0,0,5.54,5.63,16.37,16.37,0,0,0,8.64,2.1,16.76,16.76,0,0,0,8.71-2.1,15.85,15.85,0,0,0,5.62-5.62,24.8,24.8,0,0,0,3-8,47.22,47.22,0,0,0,.86-9.08,48.41,48.41,0,0,0-.86-9.15,24,24,0,0,0-3-8,16.71,16.71,0,0,0-5.62-5.62,16.33,16.33,0,0,0-8.71-2.17,16,16,0,0,0-8.64,2.17,16.91,16.91,0,0,0-5.54,5.63,23.94,23.94,0,0,0-3,8,48.41,48.41,0,0,0-.86,9.15A47.22,47.22,0,0,0,666.8,737Z"/><path class="c" d="M715.62,703.37V689.12h12.24v-6q0-10.35,6.19-17t18.72-6.6q2.73,0,5.47.22t5.33,0.38v15.9a60.22,60.22,0,0,0-7.49-.45q-4.18,0-6,2t-1.8,6.83v4.65h14.11v14.25H748.31v63.3H727.86v-63.3H715.62Z"/><path class="c" d="M776.17,747.39a12.28,12.28,0,0,0,3.53,4.05,14.82,14.82,0,0,0,5,2.32,22.42,22.42,0,0,0,5.83.75A20.93,20.93,0,0,0,795,754a15,15,0,0,0,4.32-1.65,10,10,0,0,0,3.24-3,8.12,8.12,0,0,0,1.29-4.72q0-4.8-6.12-7.2a118.77,118.77,0,0,0-17.06-4.8q-4.46-1-8.71-2.48a29.15,29.15,0,0,1-7.56-3.75,17.89,17.89,0,0,1-5.33-5.85,17.1,17.1,0,0,1-2-8.62q0-7.5,2.81-12.3a21.15,21.15,0,0,1,7.42-7.58,31.69,31.69,0,0,1,10.37-3.9A61.44,61.44,0,0,1,789.49,687a56.78,56.78,0,0,1,11.74,1.2,30.39,30.39,0,0,1,10.15,4,23.83,23.83,0,0,1,7.42,7.58,26.22,26.22,0,0,1,3.53,11.92H802.88q-0.43-6.15-4.46-8.32a19.74,19.74,0,0,0-9.5-2.18,33.81,33.81,0,0,0-3.74.23,12.09,12.09,0,0,0-3.67,1,7.61,7.61,0,0,0-2.81,2.17,6.6,6.6,0,0,0,.86,8.48,15.35,15.35,0,0,0,5.26,2.92,63.66,63.66,0,0,0,7.42,2q4.17,0.9,8.5,1.95a84.5,84.5,0,0,1,8.71,2.55,28.28,28.28,0,0,1,7.56,4,19,19,0,0,1,5.33,6.15,18.68,18.68,0,0,1,2,9.07,25.57,25.57,0,0,1-3,12.83,24.19,24.19,0,0,1-7.7,8.33,30.84,30.84,0,0,1-10.87,4.42,61,61,0,0,1-12.46,1.28,59.27,59.27,0,0,1-12.67-1.35,32.65,32.65,0,0,1-11-4.5,25.24,25.24,0,0,1-7.92-8.32,26.88,26.88,0,0,1-3.38-13H774.8A12.05,12.05,0,0,0,776.17,747.39Z"/><path class="c" d="M864.8,689.12v14.25h-15v38.4q0,5.4,1.73,7.2t6.91,1.8c1.15,0,2.25,0,3.31-.15a27,27,0,0,0,3-.45v16.5a47,47,0,0,1-5.76.6q-3.17.15-6.19,0.15a57.3,57.3,0,0,1-9-.67,20.63,20.63,0,0,1-7.49-2.62,13.65,13.65,0,0,1-5.11-5.55,20.5,20.5,0,0,1-1.87-9.45V703.37H817V689.12h12.38V665.87h20.45v23.25h15Z"/><path class="c" d="M881.65,689.12v14.4h0.29a26.34,26.34,0,0,1,3.89-6.67,25.88,25.88,0,0,1,5.62-5.25,27.08,27.08,0,0,1,6.77-3.37,23.55,23.55,0,0,1,7.49-1.2,15.41,15.41,0,0,1,4.46.75v19.8q-1.44-.3-3.46-0.53a35,35,0,0,0-3.89-.22,21.07,21.07,0,0,0-9.5,1.95,16.63,16.63,0,0,0-6.26,5.33,21.75,21.75,0,0,0-3.38,7.88,44.47,44.47,0,0,0-1,9.75v35H862.21V689.12h19.44Z"/><path class="c" d="M906.41,677.12V659.57h20.45v17.55H906.41Zm20.45,12v77.55H906.41V689.12h20.45Z"/><path class="c" d="M950,689.12V699h0.29a22.87,22.87,0,0,1,9.5-9.15A28.2,28.2,0,0,1,972.51,687a31.2,31.2,0,0,1,15.12,3.45,31.6,31.6,0,0,1,10.51,9.15,39.39,39.39,0,0,1,6.19,13.27,61.3,61.3,0,0,1,2,15.83,55.37,55.37,0,0,1-2,15,38.84,38.84,0,0,1-6.12,12.75A30.63,30.63,0,0,1,988,765.32a29.77,29.77,0,0,1-14.33,3.3,28,28,0,0,1-12.74-2.92,24.43,24.43,0,0,1-9.58-8.62h-0.29v36.75H930.61V689.12H950Zm26.57,61.5a16.73,16.73,0,0,0,5.47-5.48,23.14,23.14,0,0,0,3-7.87,48.39,48.39,0,0,0,.86-9.15A44.89,44.89,0,0,0,985,719a25,25,0,0,0-3.1-8,17.64,17.64,0,0,0-5.54-5.7,15,15,0,0,0-8.28-2.17,15.29,15.29,0,0,0-8.42,2.17,17.15,17.15,0,0,0-5.47,5.63,23.92,23.92,0,0,0-3,8,49.21,49.21,0,0,0-.86,9.3,44.73,44.73,0,0,0,.94,9.15,24.2,24.2,0,0,0,3,7.88,16.47,16.47,0,0,0,5.54,5.48A17.81,17.81,0,0,0,976.61,750.62Z"/><path class="c" d="M-5.78,856.12V866H-5.5A22.87,22.87,0,0,1,4,856.87,28.2,28.2,0,0,1,16.68,854a31.2,31.2,0,0,1,15.12,3.45,31.61,31.61,0,0,1,10.51,9.15,39.41,39.41,0,0,1,6.19,13.27,61.3,61.3,0,0,1,2,15.83,55.37,55.37,0,0,1-2,15,38.84,38.84,0,0,1-6.12,12.75,30.63,30.63,0,0,1-10.22,8.85,29.77,29.77,0,0,1-14.33,3.3,28,28,0,0,1-12.74-2.92,24.43,24.43,0,0,1-9.58-8.62H-4.78v36.75H-25.22V856.12H-5.78Zm26.57,61.5a16.72,16.72,0,0,0,5.47-5.48,23.14,23.14,0,0,0,3-7.87,48.39,48.39,0,0,0,.86-9.15,44.89,44.89,0,0,0-.94-9.15,25,25,0,0,0-3.1-8,17.65,17.65,0,0,0-5.54-5.7,15,15,0,0,0-8.28-2.17,15.29,15.29,0,0,0-8.42,2.17,17.15,17.15,0,0,0-5.47,5.63,23.92,23.92,0,0,0-3,8,49.21,49.21,0,0,0-.86,9.3,44.73,44.73,0,0,0,.94,9.15,24.2,24.2,0,0,0,3,7.88A16.47,16.47,0,0,0,4,917.62a15.78,15.78,0,0,0,8.35,2.1A15.7,15.7,0,0,0,20.78,917.62Z"/><path class="c" d="M72.26,915.07q4.61,4.65,13.25,4.65a17.7,17.7,0,0,0,10.66-3.22q4.46-3.22,5.47-6.83h18q-4.32,13.95-13.25,20t-21.6,6A41,41,0,0,1,69,932.69a32.88,32.88,0,0,1-12-8.33,37.74,37.74,0,0,1-7.56-12.9A49,49,0,0,1,46.78,895a46.91,46.91,0,0,1,2.74-16.2,38.25,38.25,0,0,1,7.78-13,36.59,36.59,0,0,1,12-8.62A37.23,37.23,0,0,1,84.79,854a34.24,34.24,0,0,1,16.56,3.83,33.48,33.48,0,0,1,11.59,10.28,43.1,43.1,0,0,1,6.55,14.7,57.06,57.06,0,0,1,1.44,17.25H67.22Q67.66,910.41,72.26,915.07Zm23.11-40.8q-3.67-4.2-11.16-4.2a17.2,17.2,0,0,0-8.14,1.72,15.64,15.64,0,0,0-5.18,4.28,15.9,15.9,0,0,0-2.74,5.4,25.27,25.27,0,0,0-.94,5.1h33.26Q99,878.46,95.38,874.26Z"/><path class="c" d="M137.85,914.39a12.28,12.28,0,0,0,3.53,4.05,14.83,14.83,0,0,0,5,2.32,22.42,22.42,0,0,0,5.83.75,20.94,20.94,0,0,0,4.54-.52,15,15,0,0,0,4.32-1.65,9.93,9.93,0,0,0,3.24-3,8.11,8.11,0,0,0,1.3-4.72q0-4.8-6.12-7.2a118.75,118.75,0,0,0-17.06-4.8q-4.46-1-8.71-2.48a29.16,29.16,0,0,1-7.56-3.75,17.91,17.91,0,0,1-5.33-5.85,17.11,17.11,0,0,1-2-8.62q0-7.5,2.81-12.3A21.12,21.12,0,0,1,129,859a31.68,31.68,0,0,1,10.37-3.9A61.45,61.45,0,0,1,151.17,854a56.81,56.81,0,0,1,11.74,1.2,30.39,30.39,0,0,1,10.15,4,23.83,23.83,0,0,1,7.42,7.58A26.22,26.22,0,0,1,184,878.76H164.57q-0.43-6.15-4.46-8.32a19.74,19.74,0,0,0-9.5-2.18,33.81,33.81,0,0,0-3.74.23,12.08,12.08,0,0,0-3.67,1,7.61,7.61,0,0,0-2.81,2.17,6.6,6.6,0,0,0,.87,8.48,15.34,15.34,0,0,0,5.26,2.92,63.61,63.61,0,0,0,7.42,2q4.17,0.9,8.5,1.95a84.32,84.32,0,0,1,8.71,2.55,28.26,28.26,0,0,1,7.56,4,19,19,0,0,1,5.33,6.15,18.67,18.67,0,0,1,2,9.07,25.58,25.58,0,0,1-3,12.83,24.2,24.2,0,0,1-7.71,8.33,30.84,30.84,0,0,1-10.87,4.42A61,61,0,0,1,152,935.62a59.29,59.29,0,0,1-12.67-1.35,32.63,32.63,0,0,1-11-4.5,25.24,25.24,0,0,1-7.92-8.32,26.88,26.88,0,0,1-3.38-13h19.44A12,12,0,0,0,137.85,914.39Z"/><path class="c" d="M209.06,910.57v23.1H186.45v-23.1h22.61Z"/><path class="c" d="M248.8,870.07a13.94,13.94,0,0,0-8.21,2.32,18.19,18.19,0,0,0-5.4,6,26.59,26.59,0,0,0-3,8.1,45.7,45.7,0,0,0-.87,8.77,43.81,43.81,0,0,0,.87,8.55,27.13,27.13,0,0,0,2.81,7.88,16.52,16.52,0,0,0,5.26,5.77,14,14,0,0,0,8.06,2.25q7.34,0,11.3-4.27t5-11.48h19.73q-2,15.45-11.52,23.55t-24.34,8.1a39.32,39.32,0,0,1-15.34-2.92,33.89,33.89,0,0,1-11.88-8.18A37.41,37.41,0,0,1,213.67,912a45,45,0,0,1-2.74-16,53.62,53.62,0,0,1,2.52-16.72,38,38,0,0,1,7.42-13.35,34,34,0,0,1,12-8.78A39.19,39.19,0,0,1,248.95,854a44.94,44.94,0,0,1,12.74,1.8,33.47,33.47,0,0,1,10.94,5.47,29,29,0,0,1,7.85,9.15,30.1,30.1,0,0,1,3.46,13h-20Q261.91,870.07,248.8,870.07Z"/><path class="c" d="M283.94,878.09a36.54,36.54,0,0,1,7.78-12.9,34.75,34.75,0,0,1,12.1-8.25A41,41,0,0,1,319.65,854a41.56,41.56,0,0,1,15.91,2.93,34.62,34.62,0,0,1,12.17,8.25,36.59,36.59,0,0,1,7.78,12.9A49.44,49.44,0,0,1,358.24,895a48.78,48.78,0,0,1-2.74,16.8,36.65,36.65,0,0,1-7.78,12.83,33.76,33.76,0,0,1-12.17,8.17,42.56,42.56,0,0,1-15.91,2.85,42,42,0,0,1-15.84-2.85,33.87,33.87,0,0,1-12.1-8.17,36.6,36.6,0,0,1-7.78-12.83A48.73,48.73,0,0,1,281.2,895,49.4,49.4,0,0,1,283.94,878.09Zm18.58,26a24.75,24.75,0,0,0,3,8,16,16,0,0,0,5.54,5.63,16.37,16.37,0,0,0,8.64,2.1,16.76,16.76,0,0,0,8.71-2.1A15.85,15.85,0,0,0,334,912a24.8,24.8,0,0,0,3-8,47.22,47.22,0,0,0,.86-9.08,48.41,48.41,0,0,0-.86-9.15,24,24,0,0,0-3-8,16.71,16.71,0,0,0-5.62-5.62,16.33,16.33,0,0,0-8.71-2.17,16,16,0,0,0-8.64,2.17,16.91,16.91,0,0,0-5.54,5.63,23.94,23.94,0,0,0-3,8,48.41,48.41,0,0,0-.86,9.15A47.22,47.22,0,0,0,302.51,904Z"/><path class="c" d="M379,856.12v10.5h0.29a29.57,29.57,0,0,1,9.72-9.3,25.5,25.5,0,0,1,13-3.3,29,29,0,0,1,12.89,2.85q5.83,2.85,8.86,10a32.32,32.32,0,0,1,9-9,23.22,23.22,0,0,1,13.46-3.9,38.3,38.3,0,0,1,10.94,1.5,21.8,21.8,0,0,1,8.64,4.8,22.09,22.09,0,0,1,5.62,8.63,36.32,36.32,0,0,1,2,12.82v51.9H453v-44q0-3.9-.29-7.35a16.15,16.15,0,0,0-1.58-6,9.82,9.82,0,0,0-3.82-4,13.35,13.35,0,0,0-6.84-1.5,12.68,12.68,0,0,0-7,1.72,12.28,12.28,0,0,0-4.18,4.5,18.56,18.56,0,0,0-2,6.3,50,50,0,0,0-.5,7.13v43.2H406.34v-43.5q0-3.45-.14-6.83a19.88,19.88,0,0,0-1.22-6.22,9.52,9.52,0,0,0-3.6-4.58q-2.52-1.72-7.42-1.72a14.75,14.75,0,0,0-3.82.67,12.5,12.5,0,0,0-4.61,2.55,14.86,14.86,0,0,0-3.82,5.4,22.72,22.72,0,0,0-1.58,9.22v45H359.68V856.12H379Z"/><path class="c" d="M500.66,910.57v23.1H478v-23.1h22.61Z"/><path class="c" d="M573.38,856.12v14.25h-15v38.4q0,5.4,1.73,7.2t6.91,1.8q1.73,0,3.31-.15a27,27,0,0,0,3-.45v16.5a46.93,46.93,0,0,1-5.76.6q-3.17.15-6.19,0.15a57.31,57.31,0,0,1-9-.67,20.64,20.64,0,0,1-7.49-2.62,13.64,13.64,0,0,1-5.11-5.55,20.49,20.49,0,0,1-1.87-9.45V870.37H525.57V856.12H538V832.87H558.4v23.25h15Z"/><path class="c" d="M591.23,826.57v40.35h0.43a24.12,24.12,0,0,1,9.94-9.83A26,26,0,0,1,613.41,854q8.21,0,13.46,2.33a20.09,20.09,0,0,1,8.28,6.45,25.51,25.51,0,0,1,4.25,10A65.15,65.15,0,0,1,640.62,886v47.7H620.17v-43.8q0-9.6-2.88-14.33t-10.22-4.72q-8.35,0-12.1,5.17t-3.74,17v40.65H570.78V826.57h20.45Z"/><path class="c" d="M665.68,915.07q4.61,4.65,13.25,4.65a17.7,17.7,0,0,0,10.66-3.22q4.46-3.22,5.47-6.83h18q-4.32,13.95-13.25,20t-21.6,6a41,41,0,0,1-15.84-2.92,32.88,32.88,0,0,1-12-8.33,37.74,37.74,0,0,1-7.56-12.9,49,49,0,0,1-2.66-16.5,46.93,46.93,0,0,1,2.74-16.2,38.26,38.26,0,0,1,7.78-13,36.58,36.58,0,0,1,12-8.62A37.22,37.22,0,0,1,678.2,854a34.23,34.23,0,0,1,16.56,3.83,33.46,33.46,0,0,1,11.59,10.28,43.07,43.07,0,0,1,6.55,14.7,57,57,0,0,1,1.44,17.25H660.64Q661.07,910.41,665.68,915.07Zm23.11-40.8q-3.67-4.2-11.16-4.2a17.21,17.21,0,0,0-8.14,1.72,15.62,15.62,0,0,0-5.18,4.28,15.87,15.87,0,0,0-2.74,5.4,25.13,25.13,0,0,0-.94,5.1H693.9Q692.46,878.46,688.79,874.26Z"/><path class="c" d="M734.51,826.57v39h0.29a22.06,22.06,0,0,1,10.15-8.78A33.18,33.18,0,0,1,758.27,854a27.4,27.4,0,0,1,11.09,2.4,28.47,28.47,0,0,1,9.86,7.35,38,38,0,0,1,7.13,12.68,63.09,63.09,0,0,1,0,36.75,38,38,0,0,1-7.13,12.67,28.45,28.45,0,0,1-9.86,7.35,27.4,27.4,0,0,1-11.09,2.4,37.89,37.89,0,0,1-14.69-2.7,18.92,18.92,0,0,1-9.79-9.15H733.5v9.9H714.06V826.57h20.45Zm33.12,58.95a25.29,25.29,0,0,0-3.17-7.95,16.94,16.94,0,0,0-5.4-5.48,16.08,16.08,0,0,0-15.62,0,16.65,16.65,0,0,0-5.47,5.48,25.23,25.23,0,0,0-3.17,7.95,43.08,43.08,0,0,0-1,9.45,42.35,42.35,0,0,0,1,9.3,25.21,25.21,0,0,0,3.17,8,16.63,16.63,0,0,0,5.47,5.48,16.08,16.08,0,0,0,15.62,0,16.92,16.92,0,0,0,5.4-5.48,25.28,25.28,0,0,0,3.17-8,42.53,42.53,0,0,0,1-9.3A43.25,43.25,0,0,0,767.63,885.51Z"/><path class="c" d="M790.09,878.09a36.53,36.53,0,0,1,7.78-12.9,34.76,34.76,0,0,1,12.1-8.25A41,41,0,0,1,825.8,854a41.56,41.56,0,0,1,15.91,2.93,34.62,34.62,0,0,1,12.17,8.25,36.61,36.61,0,0,1,7.78,12.9A49.44,49.44,0,0,1,864.39,895a48.78,48.78,0,0,1-2.74,16.8,36.67,36.67,0,0,1-7.78,12.83,33.76,33.76,0,0,1-12.17,8.17,42.56,42.56,0,0,1-15.91,2.85A42,42,0,0,1,810,932.76a33.88,33.88,0,0,1-12.1-8.17,36.59,36.59,0,0,1-7.78-12.83,48.73,48.73,0,0,1-2.74-16.8A49.39,49.39,0,0,1,790.09,878.09Zm18.58,26a24.75,24.75,0,0,0,3,8,16,16,0,0,0,5.54,5.63,16.37,16.37,0,0,0,8.64,2.1,16.76,16.76,0,0,0,8.71-2.1,15.85,15.85,0,0,0,5.62-5.62,24.8,24.8,0,0,0,3-8,47.22,47.22,0,0,0,.86-9.08,48.41,48.41,0,0,0-.86-9.15,24,24,0,0,0-3-8,16.71,16.71,0,0,0-5.62-5.62,16.33,16.33,0,0,0-8.71-2.17,16,16,0,0,0-8.64,2.17,16.9,16.9,0,0,0-5.54,5.63,23.94,23.94,0,0,0-3,8,48.41,48.41,0,0,0-.86,9.15A47.22,47.22,0,0,0,808.67,904Z"/><path class="c" d="M865.69,878.09a36.54,36.54,0,0,1,7.78-12.9,34.74,34.74,0,0,1,12.1-8.25A41,41,0,0,1,901.4,854a41.56,41.56,0,0,1,15.91,2.93,34.62,34.62,0,0,1,12.17,8.25,36.59,36.59,0,0,1,7.78,12.9A49.42,49.42,0,0,1,940,895a48.76,48.76,0,0,1-2.74,16.8,36.65,36.65,0,0,1-7.78,12.83,33.76,33.76,0,0,1-12.17,8.17,42.56,42.56,0,0,1-15.91,2.85,42,42,0,0,1-15.84-2.85,33.87,33.87,0,0,1-12.1-8.17,36.6,36.6,0,0,1-7.78-12.83A48.71,48.71,0,0,1,863,895,49.37,49.37,0,0,1,865.69,878.09Zm18.58,26a24.73,24.73,0,0,0,3,8,16,16,0,0,0,5.54,5.63,16.37,16.37,0,0,0,8.64,2.1,16.76,16.76,0,0,0,8.71-2.1,15.85,15.85,0,0,0,5.62-5.62,24.8,24.8,0,0,0,3-8,47.3,47.3,0,0,0,.86-9.08,48.49,48.49,0,0,0-.86-9.15,24,24,0,0,0-3-8,16.71,16.71,0,0,0-5.62-5.62,16.33,16.33,0,0,0-8.71-2.17,16,16,0,0,0-8.64,2.17,16.92,16.92,0,0,0-5.54,5.63,23.92,23.92,0,0,0-3,8,48.41,48.41,0,0,0-.86,9.15A47.22,47.22,0,0,0,884.26,904Z"/></g></svg>