<svg xmlns="http://www.w3.org/2000/svg" xmlns:xlink="http://www.w3.org/1999/xlink" viewBox="0 0 940 967"><defs><style>.a{fill:none;}.b{clip-path:url(#a);}</style><clipPath id="a"><rect class="a" y="-1" width="940" height="967.78"/></clipPath></defs><title>home_01_hover</title><g class="b"><path d="M358.4,484.83a16.82,16.82,0,0,0,5,6.08,21.06,21.06,0,0,0,7.27,3.45,33.06,33.06,0,0,0,8.64,1.13,43.09,43.09,0,0,0,6.48-.53,21.81,21.81,0,0,0,6.48-2,14.24,14.24,0,0,0,5-4.12,10.64,10.64,0,0,0,2-6.67,9.62,9.62,0,0,0-2.66-7.05,21.05,21.05,0,0,0-7-4.5,67.72,67.72,0,0,0-9.79-3.15q-5.47-1.35-11.09-3a95.31,95.31,0,0,1-11.23-3.67,38.1,38.1,0,0,1-9.79-5.62,26.23,26.23,0,0,1-7-8.62A27.06,27.06,0,0,1,338.1,434a29,29,0,0,1,3.38-14.33,31.47,31.47,0,0,1,8.86-10.12,37.92,37.92,0,0,1,12.38-6,50.79,50.79,0,0,1,13.82-2A63,63,0,0,1,392,403.45a38,38,0,0,1,13.18,6.08,30.38,30.38,0,0,1,9.14,10.73,34,34,0,0,1,3.38,15.82H395.84a19.61,19.61,0,0,0-1.94-7.95,13.07,13.07,0,0,0-4.39-5,18.16,18.16,0,0,0-6.26-2.55,37.09,37.09,0,0,0-7.7-.75,25.56,25.56,0,0,0-5.47.6,14.34,14.34,0,0,0-5,2.1,12.72,12.72,0,0,0-3.67,3.75A10.39,10.39,0,0,0,360,432a9.93,9.93,0,0,0,1.15,5.1,10.34,10.34,0,0,0,4.54,3.6A56.08,56.08,0,0,0,375,444q6,1.65,15.62,4.2,2.88,0.6,8,2.17a37.7,37.7,0,0,1,10.15,5,31.43,31.43,0,0,1,8.71,9.22q3.67,5.78,3.67,14.78a33.92,33.92,0,0,1-2.74,13.65A29.52,29.52,0,0,1,410.32,504a38.55,38.55,0,0,1-13.39,7.13,61,61,0,0,1-18.5,2.55,62.52,62.52,0,0,1-16.49-2.18,40.69,40.69,0,0,1-14.11-6.82,33.33,33.33,0,0,1-9.72-11.85,36.59,36.59,0,0,1-3.46-17.1h21.89A20.31,20.31,0,0,0,358.4,484.83Z"/><path d="M419.17,457.53a25.49,25.49,0,0,1,3.6-12.45,25,25,0,0,1,8.06-7.95,34.26,34.26,0,0,1,11-4.28,60.3,60.3,0,0,1,12.31-1.28,80.48,80.48,0,0,1,11.38.83A33.84,33.84,0,0,1,476,435.63a20.92,20.92,0,0,1,7.78,6.67q3,4.27,3,11.33V494a84.17,84.17,0,0,0,.58,10,18.65,18.65,0,0,0,2,7.2H468.71a31.06,31.06,0,0,1-.94-3.67,32.88,32.88,0,0,1-.5-3.83,26.47,26.47,0,0,1-11.52,7.35,44.55,44.55,0,0,1-13.54,2.1,35.18,35.18,0,0,1-9.94-1.35,22.39,22.39,0,0,1-8.06-4.2,19.43,19.43,0,0,1-5.4-7.2,25.22,25.22,0,0,1-1.94-10.35,23.39,23.39,0,0,1,2.23-10.87,19.2,19.2,0,0,1,5.76-6.82,25.36,25.36,0,0,1,8.06-3.83,83.78,83.78,0,0,1,9.14-2q4.61-.75,9.07-1.2a52.61,52.61,0,0,0,7.92-1.35,13.57,13.57,0,0,0,5.47-2.62,5.89,5.89,0,0,0,1.87-5,11.69,11.69,0,0,0-1.08-5.47,8.15,8.15,0,0,0-2.88-3.15,11.06,11.06,0,0,0-4.18-1.5,33.09,33.09,0,0,0-5.11-.37q-6,0-9.5,2.7t-4,9H419.17Zm47.23,15.75a9.05,9.05,0,0,1-3.24,1.88,32,32,0,0,1-4.18,1.13q-2.23.45-4.68,0.75t-4.9.75a35.77,35.77,0,0,0-4.54,1.2,13.25,13.25,0,0,0-3.89,2,9.52,9.52,0,0,0-2.66,3.22,10.73,10.73,0,0,0-1,5,10.35,10.35,0,0,0,1,4.8,7.92,7.92,0,0,0,2.74,3.08,11.28,11.28,0,0,0,4,1.58,24.72,24.72,0,0,0,4.75.45q6,0,9.36-2.1a13.78,13.78,0,0,0,4.9-5A16.56,16.56,0,0,0,466,486a42.73,42.73,0,0,0,.36-4.8v-8Z"/><path d="M511.33,404.13v107.1H490.88V404.13h20.45Z"/><path d="M537,492.63q4.61,4.65,13.25,4.65a17.7,17.7,0,0,0,10.66-3.22q4.46-3.22,5.47-6.83h18q-4.32,13.95-13.25,20t-21.6,6a41,41,0,0,1-15.84-2.92,32.88,32.88,0,0,1-12-8.33,37.74,37.74,0,0,1-7.56-12.9,49,49,0,0,1-2.66-16.5,46.93,46.93,0,0,1,2.74-16.2,38.26,38.26,0,0,1,7.78-13,36.58,36.58,0,0,1,12-8.62,37.22,37.22,0,0,1,15.48-3.15A34.23,34.23,0,0,1,566,435.4a33.46,33.46,0,0,1,11.59,10.28,43.08,43.08,0,0,1,6.55,14.7,57,57,0,0,1,1.44,17.25H531.92Q532.35,488,537,492.63Zm23.11-40.8q-3.67-4.2-11.16-4.2a17.2,17.2,0,0,0-8.14,1.72,15.63,15.63,0,0,0-5.18,4.28,15.88,15.88,0,0,0-2.74,5.4,25.2,25.2,0,0,0-.94,5.1h33.26Q563.74,456,560.07,451.83Z"/><path d="M608.81,488.13v23.1H586.21v-23.1h22.61Z"/><path d="M331.19,530v-7.5h274V530h-274Z"/><path d="M358.4,640.84a16.82,16.82,0,0,0,5,6.08,21.06,21.06,0,0,0,7.27,3.45,33.06,33.06,0,0,0,8.64,1.13,43.09,43.09,0,0,0,6.48-.53,21.81,21.81,0,0,0,6.48-2,14.24,14.24,0,0,0,5-4.12,10.64,10.64,0,0,0,2-6.67,9.62,9.62,0,0,0-2.66-7.05,21.05,21.05,0,0,0-7-4.5,67.72,67.72,0,0,0-9.79-3.15q-5.47-1.35-11.09-3a95.31,95.31,0,0,1-11.23-3.67,38.1,38.1,0,0,1-9.79-5.62,26.23,26.23,0,0,1-7-8.62A27.06,27.06,0,0,1,338.1,590a29,29,0,0,1,3.38-14.33,31.47,31.47,0,0,1,8.86-10.12,37.92,37.92,0,0,1,12.38-6,50.79,50.79,0,0,1,13.82-2A63,63,0,0,1,392,559.47a38,38,0,0,1,13.18,6.08,30.38,30.38,0,0,1,9.14,10.73,34,34,0,0,1,3.38,15.82H395.84a19.61,19.61,0,0,0-1.94-7.95,13.07,13.07,0,0,0-4.39-5,18.16,18.16,0,0,0-6.26-2.55,37.09,37.09,0,0,0-7.7-.75,25.56,25.56,0,0,0-5.47.6,14.34,14.34,0,0,0-5,2.1,12.72,12.72,0,0,0-3.67,3.75A10.39,10.39,0,0,0,360,588a9.93,9.93,0,0,0,1.15,5.1,10.34,10.34,0,0,0,4.54,3.6A56.08,56.08,0,0,0,375,600q6,1.65,15.62,4.2,2.88,0.6,8,2.17a37.7,37.7,0,0,1,10.15,5,31.43,31.43,0,0,1,8.71,9.22q3.67,5.78,3.67,14.78a33.92,33.92,0,0,1-2.74,13.65A29.52,29.52,0,0,1,410.32,660a38.55,38.55,0,0,1-13.39,7.13,61,61,0,0,1-18.5,2.55,62.52,62.52,0,0,1-16.49-2.18,40.69,40.69,0,0,1-14.11-6.82,33.33,33.33,0,0,1-9.72-11.85,36.59,36.59,0,0,1-3.46-17.1h21.89A20.31,20.31,0,0,0,358.4,640.84Z"/><path d="M419.17,613.54a25.49,25.49,0,0,1,3.6-12.45,25,25,0,0,1,8.06-7.95,34.26,34.26,0,0,1,11-4.28,60.3,60.3,0,0,1,12.31-1.28,80.48,80.48,0,0,1,11.38.83A33.84,33.84,0,0,1,476,591.65a20.92,20.92,0,0,1,7.78,6.67q3,4.27,3,11.33V650a84.17,84.17,0,0,0,.58,10,18.65,18.65,0,0,0,2,7.2H468.71a31.06,31.06,0,0,1-.94-3.67,32.88,32.88,0,0,1-.5-3.83,26.47,26.47,0,0,1-11.52,7.35,44.55,44.55,0,0,1-13.54,2.1,35.18,35.18,0,0,1-9.94-1.35,22.39,22.39,0,0,1-8.06-4.2,19.43,19.43,0,0,1-5.4-7.2,25.22,25.22,0,0,1-1.94-10.35,23.39,23.39,0,0,1,2.23-10.87,19.2,19.2,0,0,1,5.76-6.82,25.36,25.36,0,0,1,8.06-3.83,83.78,83.78,0,0,1,9.14-2q4.61-.75,9.07-1.2a52.61,52.61,0,0,0,7.92-1.35,13.57,13.57,0,0,0,5.47-2.62,5.89,5.89,0,0,0,1.87-5,11.69,11.69,0,0,0-1.08-5.47,8.15,8.15,0,0,0-2.88-3.15,11.06,11.06,0,0,0-4.18-1.5,33.09,33.09,0,0,0-5.11-.37q-6,0-9.5,2.7t-4,9H419.17Zm47.23,15.75a9.05,9.05,0,0,1-3.24,1.88,32,32,0,0,1-4.18,1.13q-2.23.45-4.68,0.75t-4.9.75a35.77,35.77,0,0,0-4.54,1.2,13.25,13.25,0,0,0-3.89,2,9.52,9.52,0,0,0-2.66,3.22,10.73,10.73,0,0,0-1,5,10.35,10.35,0,0,0,1,4.8,7.92,7.92,0,0,0,2.74,3.08,11.28,11.28,0,0,0,4,1.58,24.72,24.72,0,0,0,4.75.45q6,0,9.36-2.1a13.78,13.78,0,0,0,4.9-5A16.56,16.56,0,0,0,466,642a42.73,42.73,0,0,0,.36-4.8v-8Z"/><path d="M511.33,560.15v107.1H490.88V560.15h20.45Z"/><path d="M537,648.65q4.61,4.65,13.25,4.65a17.7,17.7,0,0,0,10.66-3.22q4.46-3.22,5.47-6.83h18q-4.32,13.95-13.25,20t-21.6,6a41,41,0,0,1-15.84-2.92,32.88,32.88,0,0,1-12-8.33,37.74,37.74,0,0,1-7.56-12.9,49,49,0,0,1-2.66-16.5,46.93,46.93,0,0,1,2.74-16.2,38.26,38.26,0,0,1,7.78-13,36.58,36.58,0,0,1,12-8.62,37.22,37.22,0,0,1,15.48-3.15A34.23,34.23,0,0,1,566,591.42a33.46,33.46,0,0,1,11.59,10.28,43.08,43.08,0,0,1,6.55,14.7,57,57,0,0,1,1.44,17.25H531.92Q532.35,644,537,648.65Zm23.11-40.8q-3.67-4.2-11.16-4.2a17.2,17.2,0,0,0-8.14,1.72,15.63,15.63,0,0,0-5.18,4.28,15.88,15.88,0,0,0-2.74,5.4,25.2,25.2,0,0,0-.94,5.1h33.26Q563.74,612,560.07,607.84Z"/><path d="M608.81,644.15v23.1H586.21v-23.1h22.61Z"/><path d="M331.19,686v-7.5h274V686h-274Z"/><path d="M358.4,796.86a16.82,16.82,0,0,0,5,6.08,21.06,21.06,0,0,0,7.27,3.45,33.06,33.06,0,0,0,8.64,1.13,43.09,43.09,0,0,0,6.48-.53,21.81,21.81,0,0,0,6.48-2,14.24,14.24,0,0,0,5-4.12,10.64,10.64,0,0,0,2-6.67,9.62,9.62,0,0,0-2.66-7.05,21.05,21.05,0,0,0-7-4.5,67.72,67.72,0,0,0-9.79-3.15q-5.47-1.35-11.09-3a95.31,95.31,0,0,1-11.23-3.67,38.1,38.1,0,0,1-9.79-5.62,26.23,26.23,0,0,1-7-8.62A27.06,27.06,0,0,1,338.1,746a29,29,0,0,1,3.38-14.33,31.47,31.47,0,0,1,8.86-10.12,37.92,37.92,0,0,1,12.38-6,50.79,50.79,0,0,1,13.82-2A63,63,0,0,1,392,715.49a38,38,0,0,1,13.18,6.08,30.38,30.38,0,0,1,9.14,10.73,34,34,0,0,1,3.38,15.82H395.84a19.61,19.61,0,0,0-1.94-7.95,13.07,13.07,0,0,0-4.39-5,18.16,18.16,0,0,0-6.26-2.55,37.09,37.09,0,0,0-7.7-.75,25.56,25.56,0,0,0-5.47.6,14.34,14.34,0,0,0-5,2.1,12.72,12.72,0,0,0-3.67,3.75,10.39,10.39,0,0,0-1.44,5.7,9.93,9.93,0,0,0,1.15,5.1,10.34,10.34,0,0,0,4.54,3.6,56.08,56.08,0,0,0,9.36,3.3q6,1.65,15.62,4.2,2.88,0.6,8,2.17a37.7,37.7,0,0,1,10.15,5,31.43,31.43,0,0,1,8.71,9.22q3.67,5.78,3.67,14.78a33.92,33.92,0,0,1-2.74,13.65A29.52,29.52,0,0,1,410.32,816a38.55,38.55,0,0,1-13.39,7.13,61,61,0,0,1-18.5,2.55,62.52,62.52,0,0,1-16.49-2.18,40.69,40.69,0,0,1-14.11-6.82,33.33,33.33,0,0,1-9.72-11.85,36.59,36.59,0,0,1-3.46-17.1h21.89A20.31,20.31,0,0,0,358.4,796.86Z"/><path d="M419.17,769.56a25.49,25.49,0,0,1,3.6-12.45,25,25,0,0,1,8.06-7.95,34.26,34.26,0,0,1,11-4.28,60.3,60.3,0,0,1,12.31-1.28,80.48,80.48,0,0,1,11.38.83A33.84,33.84,0,0,1,476,747.66a20.92,20.92,0,0,1,7.78,6.67q3,4.27,3,11.33V806a84.17,84.17,0,0,0,.58,10,18.65,18.65,0,0,0,2,7.2H468.71a31.06,31.06,0,0,1-.94-3.67,32.88,32.88,0,0,1-.5-3.83,26.47,26.47,0,0,1-11.52,7.35,44.55,44.55,0,0,1-13.54,2.1,35.18,35.18,0,0,1-9.94-1.35,22.39,22.39,0,0,1-8.06-4.2,19.43,19.43,0,0,1-5.4-7.2,25.22,25.22,0,0,1-1.94-10.35,23.39,23.39,0,0,1,2.23-10.87,19.2,19.2,0,0,1,5.76-6.82,25.36,25.36,0,0,1,8.06-3.83,83.78,83.78,0,0,1,9.14-2q4.61-.75,9.07-1.2a52.61,52.61,0,0,0,7.92-1.35,13.57,13.57,0,0,0,5.47-2.62,5.89,5.89,0,0,0,1.87-5,11.69,11.69,0,0,0-1.08-5.47,8.15,8.15,0,0,0-2.88-3.15,11.06,11.06,0,0,0-4.18-1.5,33.09,33.09,0,0,0-5.11-.37q-6,0-9.5,2.7t-4,9H419.17Zm47.23,15.75a9.05,9.05,0,0,1-3.24,1.88,32,32,0,0,1-4.18,1.13q-2.23.45-4.68,0.75t-4.9.75a35.77,35.77,0,0,0-4.54,1.2,13.25,13.25,0,0,0-3.89,2,9.52,9.52,0,0,0-2.66,3.22,10.73,10.73,0,0,0-1,5,10.35,10.35,0,0,0,1,4.8,7.92,7.92,0,0,0,2.74,3.08,11.28,11.28,0,0,0,4,1.58,24.72,24.72,0,0,0,4.75.45q6,0,9.36-2.1a13.78,13.78,0,0,0,4.9-5,16.56,16.56,0,0,0,1.94-5.92,42.73,42.73,0,0,0,.36-4.8v-8Z"/><path d="M511.33,716.16v107.1H490.88V716.16h20.45Z"/><path d="M537,804.66q4.61,4.65,13.25,4.65a17.7,17.7,0,0,0,10.66-3.22q4.46-3.22,5.47-6.83h18q-4.32,13.95-13.25,20t-21.6,6a41,41,0,0,1-15.84-2.92,32.88,32.88,0,0,1-12-8.33,37.74,37.74,0,0,1-7.56-12.9,49,49,0,0,1-2.66-16.5,46.93,46.93,0,0,1,2.74-16.2,38.26,38.26,0,0,1,7.78-13,36.58,36.58,0,0,1,12-8.62,37.22,37.22,0,0,1,15.48-3.15A34.23,34.23,0,0,1,566,747.44a33.46,33.46,0,0,1,11.59,10.28,43.08,43.08,0,0,1,6.55,14.7,57,57,0,0,1,1.44,17.25H531.92Q532.35,800,537,804.66Zm23.11-40.8q-3.67-4.2-11.16-4.2a17.2,17.2,0,0,0-8.14,1.72,15.63,15.63,0,0,0-5.18,4.28,15.88,15.88,0,0,0-2.74,5.4,25.2,25.2,0,0,0-.94,5.1h33.26Q563.74,768.06,560.07,763.86Z"/><path d="M608.81,800.16v23.1H586.21v-23.1h22.61Z"/><path d="M331.19,842v-7.5h274V842h-274Z"/><path d="M358.4,952.88a16.82,16.82,0,0,0,5,6.08,21.06,21.06,0,0,0,7.27,3.45,33.06,33.06,0,0,0,8.64,1.13,43.09,43.09,0,0,0,6.48-.53,21.81,21.81,0,0,0,6.48-2,14.24,14.24,0,0,0,5-4.12,10.64,10.64,0,0,0,2-6.67,9.62,9.62,0,0,0-2.66-7.05,21.05,21.05,0,0,0-7-4.5,67.72,67.72,0,0,0-9.79-3.15q-5.47-1.35-11.09-3a95.31,95.31,0,0,1-11.23-3.67,38.1,38.1,0,0,1-9.79-5.62,26.23,26.23,0,0,1-7-8.62A27.06,27.06,0,0,1,338.1,902a29,29,0,0,1,3.38-14.33,31.47,31.47,0,0,1,8.86-10.12,37.92,37.92,0,0,1,12.38-6,50.79,50.79,0,0,1,13.82-2A63,63,0,0,1,392,871.5a38,38,0,0,1,13.18,6.08,30.38,30.38,0,0,1,9.14,10.73,34,34,0,0,1,3.38,15.82H395.84a19.61,19.61,0,0,0-1.94-7.95,13.07,13.07,0,0,0-4.39-5,18.16,18.16,0,0,0-6.26-2.55,37.09,37.09,0,0,0-7.7-.75,25.56,25.56,0,0,0-5.47.6,14.34,14.34,0,0,0-5,2.1,12.72,12.72,0,0,0-3.67,3.75,10.39,10.39,0,0,0-1.44,5.7,9.93,9.93,0,0,0,1.15,5.1,10.34,10.34,0,0,0,4.54,3.6,56.08,56.08,0,0,0,9.36,3.3q6,1.65,15.62,4.2,2.88,0.6,8,2.17a37.7,37.7,0,0,1,10.15,5,31.43,31.43,0,0,1,8.71,9.22q3.67,5.78,3.67,14.78a33.92,33.92,0,0,1-2.74,13.65A29.52,29.52,0,0,1,410.32,972a38.55,38.55,0,0,1-13.39,7.13,61,61,0,0,1-18.5,2.55,62.52,62.52,0,0,1-16.49-2.18,40.69,40.69,0,0,1-14.11-6.82,33.33,33.33,0,0,1-9.72-11.85,36.59,36.59,0,0,1-3.46-17.1h21.89A20.31,20.31,0,0,0,358.4,952.88Z"/><path d="M419.17,925.58a25.49,25.49,0,0,1,3.6-12.45,25,25,0,0,1,8.06-7.95,34.26,34.26,0,0,1,11-4.28,60.3,60.3,0,0,1,12.31-1.28,80.48,80.48,0,0,1,11.38.83A33.84,33.84,0,0,1,476,903.68a20.92,20.92,0,0,1,7.78,6.67q3,4.27,3,11.33V962a84.17,84.17,0,0,0,.58,10,18.65,18.65,0,0,0,2,7.2H468.71a31.06,31.06,0,0,1-.94-3.67,32.88,32.88,0,0,1-.5-3.83,26.47,26.47,0,0,1-11.52,7.35,44.55,44.55,0,0,1-13.54,2.1,35.18,35.18,0,0,1-9.94-1.35,22.39,22.39,0,0,1-8.06-4.2,19.43,19.43,0,0,1-5.4-7.2,25.22,25.22,0,0,1-1.94-10.35,23.39,23.39,0,0,1,2.23-10.87,19.2,19.2,0,0,1,5.76-6.82,25.36,25.36,0,0,1,8.06-3.83,83.78,83.78,0,0,1,9.14-2q4.61-.75,9.07-1.2a52.61,52.61,0,0,0,7.92-1.35,13.57,13.57,0,0,0,5.47-2.62,5.89,5.89,0,0,0,1.87-5,11.69,11.69,0,0,0-1.08-5.47,8.15,8.15,0,0,0-2.88-3.15,11.06,11.06,0,0,0-4.18-1.5,33.09,33.09,0,0,0-5.11-.37q-6,0-9.5,2.7t-4,9H419.17Zm47.23,15.75a9.05,9.05,0,0,1-3.24,1.88,32,32,0,0,1-4.18,1.13q-2.23.45-4.68,0.75t-4.9.75a35.77,35.77,0,0,0-4.54,1.2,13.25,13.25,0,0,0-3.89,2,9.52,9.52,0,0,0-2.66,3.22,10.73,10.73,0,0,0-1,5,10.35,10.35,0,0,0,1,4.8,7.92,7.92,0,0,0,2.74,3.08,11.28,11.28,0,0,0,4,1.58,24.72,24.72,0,0,0,4.75.45q6,0,9.36-2.1a13.78,13.78,0,0,0,4.9-5,16.56,16.56,0,0,0,1.94-5.92,42.73,42.73,0,0,0,.36-4.8v-8Z"/><path d="M511.33,872.18v107.1H490.88V872.18h20.45Z"/><path d="M537,960.68q4.61,4.65,13.25,4.65a17.7,17.7,0,0,0,10.66-3.22q4.46-3.22,5.47-6.83h18q-4.32,13.95-13.25,20t-21.6,6a41,41,0,0,1-15.84-2.92,32.88,32.88,0,0,1-12-8.33,37.74,37.74,0,0,1-7.56-12.9,49,49,0,0,1-2.66-16.5,46.93,46.93,0,0,1,2.74-16.2,38.26,38.26,0,0,1,7.78-13,36.58,36.58,0,0,1,12-8.62,37.22,37.22,0,0,1,15.48-3.15A34.23,34.23,0,0,1,566,903.45a33.46,33.46,0,0,1,11.59,10.28,43.08,43.08,0,0,1,6.55,14.7,57,57,0,0,1,1.44,17.25H531.92Q532.35,956,537,960.68Zm23.11-40.8q-3.67-4.2-11.16-4.2a17.2,17.2,0,0,0-8.14,1.72,15.63,15.63,0,0,0-5.18,4.28,15.88,15.88,0,0,0-2.74,5.4,25.2,25.2,0,0,0-.94,5.1h33.26Q563.74,924.08,560.07,919.88Z"/><path d="M608.81,956.18v23.1H586.21v-23.1h22.61Z"/><path d="M358.4,332a16.82,16.82,0,0,0,5,6.08,21.08,21.08,0,0,0,7.27,3.45,33.06,33.06,0,0,0,8.64,1.13,43.09,43.09,0,0,0,6.48-.53,21.81,21.81,0,0,0,6.48-2,14.26,14.26,0,0,0,5-4.12,10.65,10.65,0,0,0,2-6.68,9.62,9.62,0,0,0-2.66-7.05,21.08,21.08,0,0,0-7-4.5,67.6,67.6,0,0,0-9.79-3.15q-5.47-1.35-11.09-3A95.32,95.32,0,0,1,357.54,308a38.1,38.1,0,0,1-9.79-5.62,26.22,26.22,0,0,1-7-8.62,27.06,27.06,0,0,1-2.66-12.53,29,29,0,0,1,3.38-14.32,31.45,31.45,0,0,1,8.86-10.12,37.9,37.9,0,0,1,12.38-6,50.75,50.75,0,0,1,13.82-2A63,63,0,0,1,392,250.66a37.94,37.94,0,0,1,13.18,6.08,30.39,30.39,0,0,1,9.14,10.72,34,34,0,0,1,3.38,15.82H395.84a19.61,19.61,0,0,0-1.94-7.95,13.06,13.06,0,0,0-4.39-4.95,18.16,18.16,0,0,0-6.26-2.55,37.09,37.09,0,0,0-7.7-.75,25.56,25.56,0,0,0-5.47.6,14.34,14.34,0,0,0-5,2.1,12.74,12.74,0,0,0-3.67,3.75,10.39,10.39,0,0,0-1.44,5.7,9.93,9.93,0,0,0,1.15,5.1,10.34,10.34,0,0,0,4.54,3.6,56.16,56.16,0,0,0,9.36,3.3q6,1.65,15.62,4.2,2.88,0.6,8,2.18a37.64,37.64,0,0,1,10.15,5,31.4,31.4,0,0,1,8.71,9.22q3.67,5.77,3.67,14.78a33.91,33.91,0,0,1-2.74,13.65,29.51,29.51,0,0,1-8.14,10.88,38.54,38.54,0,0,1-13.39,7.13,61,61,0,0,1-18.5,2.55,62.52,62.52,0,0,1-16.49-2.18,40.66,40.66,0,0,1-14.11-6.82A33.33,33.33,0,0,1,338.1,340a36.59,36.59,0,0,1-3.46-17.1h21.89A20.31,20.31,0,0,0,358.4,332Z"/><path d="M419.17,304.74a25.49,25.49,0,0,1,3.6-12.45,25,25,0,0,1,8.06-7.95,34.28,34.28,0,0,1,11-4.28,60.37,60.37,0,0,1,12.31-1.28,80.33,80.33,0,0,1,11.38.83A33.86,33.86,0,0,1,476,282.84a20.92,20.92,0,0,1,7.78,6.68q3,4.27,3,11.32v40.35a84.19,84.19,0,0,0,.58,10.05,18.65,18.65,0,0,0,2,7.2H468.71a31,31,0,0,1-.94-3.67,32.93,32.93,0,0,1-.5-3.83,26.47,26.47,0,0,1-11.52,7.35,44.52,44.52,0,0,1-13.54,2.1,35.18,35.18,0,0,1-9.94-1.35,22.37,22.37,0,0,1-8.06-4.2,19.43,19.43,0,0,1-5.4-7.2,25.23,25.23,0,0,1-1.94-10.35,23.39,23.39,0,0,1,2.23-10.87,19.2,19.2,0,0,1,5.76-6.82,25.33,25.33,0,0,1,8.06-3.82,83.55,83.55,0,0,1,9.14-2q4.61-.75,9.07-1.2a52.48,52.48,0,0,0,7.92-1.35,13.57,13.57,0,0,0,5.47-2.62,5.89,5.89,0,0,0,1.87-5,11.69,11.69,0,0,0-1.08-5.47,8.15,8.15,0,0,0-2.88-3.15,11.07,11.07,0,0,0-4.18-1.5,33.09,33.09,0,0,0-5.11-.37q-6,0-9.5,2.7t-4,9H419.17Zm47.23,15.75a9.08,9.08,0,0,1-3.24,1.88,32.3,32.3,0,0,1-4.18,1.13q-2.23.45-4.68,0.75t-4.9.75a35.76,35.76,0,0,0-4.54,1.2,13.27,13.27,0,0,0-3.89,2,9.53,9.53,0,0,0-2.66,3.22,10.73,10.73,0,0,0-1,5,10.35,10.35,0,0,0,1,4.8,7.92,7.92,0,0,0,2.74,3.08,11.28,11.28,0,0,0,4,1.57,24.65,24.65,0,0,0,4.75.45q6,0,9.36-2.1a13.77,13.77,0,0,0,4.9-5,16.55,16.55,0,0,0,1.94-5.92,42.74,42.74,0,0,0,.36-4.8v-7.95Z"/><path d="M511.33,251.34v107.1H490.88V251.34h20.45Z"/><path d="M537,339.84q4.61,4.65,13.25,4.65a17.71,17.71,0,0,0,10.66-3.22q4.46-3.23,5.47-6.83h18q-4.32,14-13.25,20t-21.6,6a41,41,0,0,1-15.84-2.93,32.86,32.86,0,0,1-12-8.32,37.75,37.75,0,0,1-7.56-12.9,49,49,0,0,1-2.66-16.5,46.93,46.93,0,0,1,2.74-16.2,38.27,38.27,0,0,1,7.78-13,36.6,36.6,0,0,1,12-8.62,37.22,37.22,0,0,1,15.48-3.15A34.22,34.22,0,0,1,566,282.61a33.45,33.45,0,0,1,11.59,10.28,43.09,43.09,0,0,1,6.55,14.7,57,57,0,0,1,1.44,17.25H531.92Q532.35,335.19,537,339.84ZM560.07,299q-3.67-4.2-11.16-4.2a17.2,17.2,0,0,0-8.14,1.72,15.63,15.63,0,0,0-5.18,4.28,15.89,15.89,0,0,0-2.74,5.4,25.18,25.18,0,0,0-.94,5.1h33.26Q563.74,303.24,560.07,299Z"/><path d="M608.81,335.34v23.1H586.21v-23.1h22.61Z"/><path d="M331.19,377.18v-7.5h274v7.5h-274Z"/><path d="M358.4,179.24a16.82,16.82,0,0,0,5,6.08,21.06,21.06,0,0,0,7.27,3.45,33.06,33.06,0,0,0,8.64,1.13,43.09,43.09,0,0,0,6.48-.53,21.81,21.81,0,0,0,6.48-2,14.24,14.24,0,0,0,5-4.12,10.64,10.64,0,0,0,2-6.67,9.62,9.62,0,0,0-2.66-7.05,21.05,21.05,0,0,0-7-4.5,67.72,67.72,0,0,0-9.79-3.15q-5.47-1.35-11.09-3a95.31,95.31,0,0,1-11.23-3.67,38.1,38.1,0,0,1-9.79-5.62,26.23,26.23,0,0,1-7-8.62,27.06,27.06,0,0,1-2.66-12.53,29,29,0,0,1,3.38-14.33,31.47,31.47,0,0,1,8.86-10.12,37.92,37.92,0,0,1,12.38-6,50.79,50.79,0,0,1,13.82-2A63,63,0,0,1,392,97.87a38,38,0,0,1,13.18,6.08,30.38,30.38,0,0,1,9.14,10.73,34,34,0,0,1,3.38,15.82H395.84a19.61,19.61,0,0,0-1.94-7.95,13.07,13.07,0,0,0-4.39-5,18.16,18.16,0,0,0-6.26-2.55,37.09,37.09,0,0,0-7.7-.75,25.56,25.56,0,0,0-5.47.6,14.34,14.34,0,0,0-5,2.1,12.72,12.72,0,0,0-3.67,3.75,10.39,10.39,0,0,0-1.44,5.7,9.93,9.93,0,0,0,1.15,5.1,10.34,10.34,0,0,0,4.54,3.6,56.08,56.08,0,0,0,9.36,3.3q6,1.65,15.62,4.2,2.88,0.6,8,2.17a37.7,37.7,0,0,1,10.15,5,31.43,31.43,0,0,1,8.71,9.22q3.67,5.78,3.67,14.78a33.92,33.92,0,0,1-2.74,13.65,29.52,29.52,0,0,1-8.14,10.88,38.55,38.55,0,0,1-13.39,7.13,61,61,0,0,1-18.5,2.55,62.52,62.52,0,0,1-16.49-2.18A40.69,40.69,0,0,1,347.82,199a33.33,33.33,0,0,1-9.72-11.85,36.59,36.59,0,0,1-3.46-17.1h21.89A20.31,20.31,0,0,0,358.4,179.24Z"/><path d="M419.17,151.94a25.49,25.49,0,0,1,3.6-12.45,25,25,0,0,1,8.06-7.95,34.26,34.26,0,0,1,11-4.28A60.3,60.3,0,0,1,454.16,126a80.48,80.48,0,0,1,11.38.83A33.84,33.84,0,0,1,476,130a20.92,20.92,0,0,1,7.78,6.67q3,4.27,3,11.33v40.35a84.17,84.17,0,0,0,.58,10,18.65,18.65,0,0,0,2,7.2H468.71a31.06,31.06,0,0,1-.94-3.67,32.88,32.88,0,0,1-.5-3.83,26.47,26.47,0,0,1-11.52,7.35,44.55,44.55,0,0,1-13.54,2.1,35.18,35.18,0,0,1-9.94-1.35,22.39,22.39,0,0,1-8.06-4.2,19.43,19.43,0,0,1-5.4-7.2,25.22,25.22,0,0,1-1.94-10.35,23.39,23.39,0,0,1,2.23-10.87,19.2,19.2,0,0,1,5.76-6.82,25.36,25.36,0,0,1,8.06-3.83,83.78,83.78,0,0,1,9.14-2q4.61-.75,9.07-1.2a52.61,52.61,0,0,0,7.92-1.35,13.57,13.57,0,0,0,5.47-2.62,5.89,5.89,0,0,0,1.87-5,11.69,11.69,0,0,0-1.08-5.47,8.15,8.15,0,0,0-2.88-3.15,11.06,11.06,0,0,0-4.18-1.5,33.09,33.09,0,0,0-5.11-.37q-6,0-9.5,2.7t-4,9H419.17Zm47.23,15.75a9.05,9.05,0,0,1-3.24,1.88,32,32,0,0,1-4.18,1.13q-2.23.45-4.68,0.75t-4.9.75a35.77,35.77,0,0,0-4.54,1.2,13.25,13.25,0,0,0-3.89,2,9.52,9.52,0,0,0-2.66,3.22,10.73,10.73,0,0,0-1,5,10.35,10.35,0,0,0,1,4.8,7.92,7.92,0,0,0,2.74,3.08,11.28,11.28,0,0,0,4,1.58,24.72,24.72,0,0,0,4.75.45q6,0,9.36-2.1a13.78,13.78,0,0,0,4.9-5,16.56,16.56,0,0,0,1.94-5.92,42.73,42.73,0,0,0,.36-4.8v-8Z"/><path d="M511.33,98.54v107.1H490.88V98.54h20.45Z"/><path d="M537,187q4.61,4.65,13.25,4.65a17.7,17.7,0,0,0,10.66-3.22q4.46-3.22,5.47-6.83h18q-4.32,13.95-13.25,20t-21.6,6a41,41,0,0,1-15.84-2.92,32.88,32.88,0,0,1-12-8.33,37.74,37.74,0,0,1-7.56-12.9,49,49,0,0,1-2.66-16.5,46.93,46.93,0,0,1,2.74-16.2,38.26,38.26,0,0,1,7.78-13,36.58,36.58,0,0,1,12-8.62A37.22,37.22,0,0,1,549.49,126,34.23,34.23,0,0,1,566,129.82a33.46,33.46,0,0,1,11.59,10.28,43.08,43.08,0,0,1,6.55,14.7A57,57,0,0,1,585.63,172H531.92Q532.35,182.39,537,187Zm23.11-40.8q-3.67-4.2-11.16-4.2a17.2,17.2,0,0,0-8.14,1.72,15.63,15.63,0,0,0-5.18,4.28,15.88,15.88,0,0,0-2.74,5.4,25.2,25.2,0,0,0-.94,5.1h33.26Q563.74,150.44,560.07,146.24Z"/><path d="M608.81,182.54v23.1H586.21v-23.1h22.61Z"/><path d="M331.19,224.39v-7.5h274v7.5h-274Z"/><path d="M358.4,26.45a16.82,16.82,0,0,0,5,6.08A21.06,21.06,0,0,0,370.64,36a33.06,33.06,0,0,0,8.64,1.13,43.09,43.09,0,0,0,6.48-.53,21.81,21.81,0,0,0,6.48-2,14.24,14.24,0,0,0,5-4.12,10.64,10.64,0,0,0,2-6.67,9.62,9.62,0,0,0-2.66-7.05,21.05,21.05,0,0,0-7-4.5A67.72,67.72,0,0,0,379.86,9q-5.47-1.35-11.09-3a95.31,95.31,0,0,1-11.23-3.67,38.1,38.1,0,0,1-9.79-5.62,26.23,26.23,0,0,1-7-8.62A27.06,27.06,0,0,1,338.1-24.4a29,29,0,0,1,3.38-14.33,31.47,31.47,0,0,1,8.86-10.12,37.92,37.92,0,0,1,12.38-6,50.79,50.79,0,0,1,13.82-2A63,63,0,0,1,392-54.93a38,38,0,0,1,13.18,6.08,30.38,30.38,0,0,1,9.14,10.73,34,34,0,0,1,3.38,15.82H395.84a19.61,19.61,0,0,0-1.94-7.95,13.07,13.07,0,0,0-4.39-5,18.16,18.16,0,0,0-6.26-2.55,37.09,37.09,0,0,0-7.7-.75,25.56,25.56,0,0,0-5.47.6,14.34,14.34,0,0,0-5,2.1,12.72,12.72,0,0,0-3.67,3.75,10.39,10.39,0,0,0-1.44,5.7,9.93,9.93,0,0,0,1.15,5.1,10.34,10.34,0,0,0,4.54,3.6,56.08,56.08,0,0,0,9.36,3.3q6,1.65,15.62,4.2,2.88,0.6,8,2.17A37.7,37.7,0,0,1,408.8-3a31.43,31.43,0,0,1,8.71,9.22Q421.19,12,421.19,21a33.92,33.92,0,0,1-2.74,13.65,29.52,29.52,0,0,1-8.14,10.88,38.55,38.55,0,0,1-13.39,7.13,61,61,0,0,1-18.5,2.55,62.52,62.52,0,0,1-16.49-2.18,40.69,40.69,0,0,1-14.11-6.82A33.33,33.33,0,0,1,338.1,34.4a36.59,36.59,0,0,1-3.46-17.1h21.89A20.31,20.31,0,0,0,358.4,26.45Z"/><path d="M419.17-.85a25.49,25.49,0,0,1,3.6-12.45,25,25,0,0,1,8.06-7.95,34.26,34.26,0,0,1,11-4.28,60.3,60.3,0,0,1,12.31-1.28,80.48,80.48,0,0,1,11.38.83A33.84,33.84,0,0,1,476-22.75a20.92,20.92,0,0,1,7.78,6.67q3,4.27,3,11.33V35.6a84.17,84.17,0,0,0,.58,10,18.65,18.65,0,0,0,2,7.2H468.71a31.06,31.06,0,0,1-.94-3.67,32.88,32.88,0,0,1-.5-3.83,26.47,26.47,0,0,1-11.52,7.35,44.55,44.55,0,0,1-13.54,2.1,35.18,35.18,0,0,1-9.94-1.35,22.39,22.39,0,0,1-8.06-4.2,19.43,19.43,0,0,1-5.4-7.2,25.22,25.22,0,0,1-1.94-10.35,23.39,23.39,0,0,1,2.23-10.87A19.2,19.2,0,0,1,424.86,14a25.36,25.36,0,0,1,8.06-3.83,83.78,83.78,0,0,1,9.14-2q4.61-.75,9.07-1.2a52.61,52.61,0,0,0,7.92-1.35A13.57,13.57,0,0,0,464.53,3a5.89,5.89,0,0,0,1.87-5,11.69,11.69,0,0,0-1.08-5.47,8.15,8.15,0,0,0-2.88-3.15,11.06,11.06,0,0,0-4.18-1.5,33.09,33.09,0,0,0-5.11-.37q-6,0-9.5,2.7t-4,9H419.17ZM466.4,14.9a9.05,9.05,0,0,1-3.24,1.88A32,32,0,0,1,459,17.9q-2.23.45-4.68,0.75t-4.9.75a35.77,35.77,0,0,0-4.54,1.2,13.25,13.25,0,0,0-3.89,2,9.52,9.52,0,0,0-2.66,3.22,10.73,10.73,0,0,0-1,5,10.35,10.35,0,0,0,1,4.8,7.92,7.92,0,0,0,2.74,3.08,11.28,11.28,0,0,0,4,1.58,24.72,24.72,0,0,0,4.75.45q6,0,9.36-2.1a13.78,13.78,0,0,0,4.9-5A16.56,16.56,0,0,0,466,27.65a42.73,42.73,0,0,0,.36-4.8v-8Z"/><path d="M511.33-54.25V52.85H490.88V-54.25h20.45Z"/><path d="M537,34.25q4.61,4.65,13.25,4.65a17.7,17.7,0,0,0,10.66-3.22q4.46-3.22,5.47-6.83h18Q580,42.8,571.09,48.8t-21.6,6a41,41,0,0,1-15.84-2.92,32.88,32.88,0,0,1-12-8.33,37.74,37.74,0,0,1-7.56-12.9,49,49,0,0,1-2.66-16.5,46.93,46.93,0,0,1,2.74-16.2A38.26,38.26,0,0,1,522-15a36.58,36.58,0,0,1,12-8.63,37.22,37.22,0,0,1,15.48-3.15A34.23,34.23,0,0,1,566-23,33.46,33.46,0,0,1,577.64-12.7,43.08,43.08,0,0,1,584.19,2a57,57,0,0,1,1.44,17.25H531.92Q532.35,29.6,537,34.25Zm23.11-40.8q-3.67-4.2-11.16-4.2A17.2,17.2,0,0,0,540.78-9a15.63,15.63,0,0,0-5.18,4.28,15.88,15.88,0,0,0-2.74,5.4,25.2,25.2,0,0,0-.94,5.1h33.26Q563.74-2.35,560.07-6.55Z"/><path d="M608.81,29.75v23.1H586.21V29.75h22.61Z"/><path d="M331.19,71.6V64.1h274v7.5h-274Z"/></g></svg>