<svg id="texts" xmlns="http://www.w3.org/2000/svg" viewBox="0 0 1426 920"><title>home_text_02_under</title><path d="M15.22,101.78a16.83,16.83,0,0,0,5,6.08,21.07,21.07,0,0,0,7.27,3.45,33.06,33.06,0,0,0,8.64,1.13,43.07,43.07,0,0,0,6.48-.53,21.81,21.81,0,0,0,6.48-2,14.22,14.22,0,0,0,5-4.12,10.64,10.64,0,0,0,2-6.67A9.61,9.61,0,0,0,53.45,92a21,21,0,0,0-7-4.5,67.72,67.72,0,0,0-9.79-3.15q-5.47-1.35-11.09-3a95.31,95.31,0,0,1-11.23-3.67,38.11,38.11,0,0,1-9.79-5.62,26.25,26.25,0,0,1-7-8.62A27.08,27.08,0,0,1-5.09,50.93,29,29,0,0,1-1.7,36.61,31.48,31.48,0,0,1,7.15,26.48a37.91,37.91,0,0,1,12.38-6,50.79,50.79,0,0,1,13.82-2,63,63,0,0,1,15.48,1.88A38,38,0,0,1,62,26.48a30.38,30.38,0,0,1,9.14,10.73A34,34,0,0,1,74.54,53H52.66a19.6,19.6,0,0,0-1.94-7.95,13.07,13.07,0,0,0-4.39-5,18.17,18.17,0,0,0-6.26-2.55,37.09,37.09,0,0,0-7.7-.75,25.56,25.56,0,0,0-5.47.6,14.35,14.35,0,0,0-5,2.1,12.74,12.74,0,0,0-3.67,3.75A10.39,10.39,0,0,0,16.8,49,9.93,9.93,0,0,0,18,54.08a10.34,10.34,0,0,0,4.54,3.6A56,56,0,0,0,31.85,61q6,1.65,15.62,4.2,2.88,0.6,8,2.17a37.69,37.69,0,0,1,10.15,5,31.41,31.41,0,0,1,8.71,9.22Q78,87.38,78,96.38A33.9,33.9,0,0,1,75.26,110a29.52,29.52,0,0,1-8.14,10.88A38.54,38.54,0,0,1,53.74,128a61,61,0,0,1-18.5,2.55,62.53,62.53,0,0,1-16.49-2.18,40.69,40.69,0,0,1-14.11-6.82,33.34,33.34,0,0,1-9.72-11.85,36.6,36.6,0,0,1-3.46-17.1H13.34A20.31,20.31,0,0,0,15.22,101.78Z"/><path d="M97.29,21.08V61.43h0.43a24.11,24.11,0,0,1,9.94-9.83,26,26,0,0,1,11.81-3.08q8.21,0,13.46,2.33a20.09,20.09,0,0,1,8.28,6.45,25.5,25.5,0,0,1,4.25,10,65.15,65.15,0,0,1,1.22,13.13v47.7H126.24V84.38q0-9.6-2.88-14.33t-10.22-4.72q-8.35,0-12.1,5.17t-3.74,17v40.65H76.85V21.08H97.29Z"/><path d="M150.28,72.61a36.52,36.52,0,0,1,7.78-12.9,34.73,34.73,0,0,1,12.1-8.25A41,41,0,0,1,186,48.53a41.56,41.56,0,0,1,15.91,2.93,34.62,34.62,0,0,1,12.17,8.25,36.61,36.61,0,0,1,7.78,12.9,49.44,49.44,0,0,1,2.74,16.88,48.78,48.78,0,0,1-2.74,16.8,36.67,36.67,0,0,1-7.78,12.83,33.76,33.76,0,0,1-12.17,8.17A42.56,42.56,0,0,1,186,130.13a42,42,0,0,1-15.84-2.85,33.86,33.86,0,0,1-12.1-8.17,36.58,36.58,0,0,1-7.78-12.83,48.71,48.71,0,0,1-2.74-16.8A49.37,49.37,0,0,1,150.28,72.61Zm18.58,26a24.73,24.73,0,0,0,3,8,16,16,0,0,0,5.54,5.63,16.37,16.37,0,0,0,8.64,2.1,16.76,16.76,0,0,0,8.71-2.1,15.85,15.85,0,0,0,5.62-5.62,24.8,24.8,0,0,0,3-8,47.22,47.22,0,0,0,.86-9.08,48.41,48.41,0,0,0-.86-9.15,24,24,0,0,0-3-8,16.71,16.71,0,0,0-5.62-5.62A16.33,16.33,0,0,0,186,64.58a16,16,0,0,0-8.64,2.17,16.9,16.9,0,0,0-5.54,5.63,23.92,23.92,0,0,0-3,8,48.41,48.41,0,0,0-.86,9.15A47.22,47.22,0,0,0,168.86,98.56Z"/><path d="M244.89,50.63v9.9h0.29a22.86,22.86,0,0,1,9.5-9.15,28.2,28.2,0,0,1,12.67-2.85A31.2,31.2,0,0,1,282.47,52,31.6,31.6,0,0,1,293,61.13a39.39,39.39,0,0,1,6.19,13.27,61.3,61.3,0,0,1,2,15.83,55.37,55.37,0,0,1-2,15A38.84,38.84,0,0,1,293.06,118a30.63,30.63,0,0,1-10.22,8.85,29.77,29.77,0,0,1-14.33,3.3,28,28,0,0,1-12.74-2.92,24.43,24.43,0,0,1-9.58-8.62H245.9v36.75H225.45V50.63h19.44Zm26.57,61.5a16.73,16.73,0,0,0,5.47-5.48,23.14,23.14,0,0,0,3-7.87,48.39,48.39,0,0,0,.86-9.15,44.89,44.89,0,0,0-.94-9.15,25,25,0,0,0-3.1-8,17.64,17.64,0,0,0-5.54-5.7,15,15,0,0,0-8.28-2.17,15.29,15.29,0,0,0-8.42,2.17A17.15,17.15,0,0,0,249,72.38a23.94,23.94,0,0,0-3,8,49.21,49.21,0,0,0-.86,9.3,44.66,44.66,0,0,0,.94,9.15,24.18,24.18,0,0,0,3,7.87,16.47,16.47,0,0,0,5.54,5.48A17.81,17.81,0,0,0,271.46,112.13Z"/><path d="M349.15,21.08v39h0.29a22.06,22.06,0,0,1,10.15-8.78,33.18,33.18,0,0,1,13.32-2.78A27.4,27.4,0,0,1,384,50.93a28.46,28.46,0,0,1,9.86,7.35A38,38,0,0,1,401,71a55.21,55.21,0,0,1,2.74,18.38A55.2,55.2,0,0,1,401,107.71a38,38,0,0,1-7.13,12.67,28.44,28.44,0,0,1-9.86,7.35,27.4,27.4,0,0,1-11.09,2.4,37.89,37.89,0,0,1-14.69-2.7,18.92,18.92,0,0,1-9.79-9.15h-0.29v9.9H328.7V21.08h20.45ZM382.27,80a25.27,25.27,0,0,0-3.17-7.95,16.94,16.94,0,0,0-5.4-5.48,16.08,16.08,0,0,0-15.62,0,16.66,16.66,0,0,0-5.47,5.48A25.25,25.25,0,0,0,349.43,80a43.08,43.08,0,0,0-1,9.45,42.35,42.35,0,0,0,1,9.3,25.24,25.24,0,0,0,3.17,8,16.65,16.65,0,0,0,5.47,5.48,16.08,16.08,0,0,0,15.62,0,16.92,16.92,0,0,0,5.4-5.48,25.26,25.26,0,0,0,3.17-8,42.47,42.47,0,0,0,1-9.3A43.19,43.19,0,0,0,382.27,80Z"/><path d="M431.8,151.28q-5.91,4.05-16.42,4.05-3.17,0-6.26-.23t-6.26-.52V137l5.9,0.6a41,41,0,0,0,6,.15,7.87,7.87,0,0,0,6-3.3,10.94,10.94,0,0,0,1.94-6.3,13.27,13.27,0,0,0-.86-4.8L395.8,50.63h21.74l16.85,53.1h0.29L451,50.63h21.17L441,137.78Q437.7,147.23,431.8,151.28Z"/><path d="M511.5,108.91A12.29,12.29,0,0,0,515,113a14.83,14.83,0,0,0,5,2.32,22.41,22.41,0,0,0,5.83.75,20.93,20.93,0,0,0,4.54-.52,15,15,0,0,0,4.32-1.65,10,10,0,0,0,3.24-3,8.11,8.11,0,0,0,1.3-4.72q0-4.8-6.12-7.2A118.73,118.73,0,0,0,516,94.13q-4.46-1-8.71-2.48a29.17,29.17,0,0,1-7.56-3.75,17.9,17.9,0,0,1-5.33-5.85,17.1,17.1,0,0,1-2-8.62q0-7.5,2.81-12.3a21.13,21.13,0,0,1,7.42-7.58A31.69,31.69,0,0,1,513,49.66a61.45,61.45,0,0,1,11.81-1.12,56.8,56.8,0,0,1,11.74,1.2,30.4,30.4,0,0,1,10.15,4,23.84,23.84,0,0,1,7.42,7.58,26.24,26.24,0,0,1,3.53,11.92H538.22q-0.43-6.15-4.46-8.32a19.75,19.75,0,0,0-9.5-2.18,33.79,33.79,0,0,0-3.74.23,12.09,12.09,0,0,0-3.67,1A7.61,7.61,0,0,0,514,66.16a6.6,6.6,0,0,0,.86,8.48,15.34,15.34,0,0,0,5.26,2.92,63.66,63.66,0,0,0,7.42,2q4.17,0.9,8.5,1.95a84.41,84.41,0,0,1,8.71,2.55,28.27,28.27,0,0,1,7.56,4,19,19,0,0,1,5.33,6.15,18.67,18.67,0,0,1,2,9.07,25.58,25.58,0,0,1-3,12.83,24.19,24.19,0,0,1-7.7,8.33,30.84,30.84,0,0,1-10.87,4.42,61,61,0,0,1-12.46,1.28A59.27,59.27,0,0,1,513,128.78a32.63,32.63,0,0,1-11-4.5,25.24,25.24,0,0,1-7.92-8.32,26.88,26.88,0,0,1-3.38-13h19.44A12,12,0,0,0,511.5,108.91Z"/><path d="M600.13,50.63V64.88h-15v38.4q0,5.4,1.73,7.2t6.91,1.8q1.73,0,3.31-.15a27,27,0,0,0,3-.45v16.5a47,47,0,0,1-5.76.6q-3.17.15-6.19,0.15a57.32,57.32,0,0,1-9-.67,20.64,20.64,0,0,1-7.49-2.62,13.65,13.65,0,0,1-5.11-5.55,20.5,20.5,0,0,1-1.87-9.45V64.88H552.33V50.63h12.38V27.38h20.45V50.63h15Z"/><path d="M617,50.63V65h0.29a26.39,26.39,0,0,1,3.89-6.67,25.93,25.93,0,0,1,5.62-5.25,27,27,0,0,1,6.77-3.37,23.54,23.54,0,0,1,7.49-1.2,15.4,15.4,0,0,1,4.46.75v19.8q-1.44-.3-3.46-0.53a35,35,0,0,0-3.89-.22,21.07,21.07,0,0,0-9.5,1.95,16.63,16.63,0,0,0-6.26,5.33A21.75,21.75,0,0,0,619,83.48a44.53,44.53,0,0,0-1,9.75v35H597.54V50.63H617Z"/><path d="M641.75,38.63V21.08H662.2V38.63H641.75Zm20.45,12v77.55H641.75V50.63H662.2Z"/><path d="M685.38,50.63v9.9h0.29a22.86,22.86,0,0,1,9.5-9.15,28.2,28.2,0,0,1,12.67-2.85A31.2,31.2,0,0,1,723,52a31.6,31.6,0,0,1,10.51,9.15,39.39,39.39,0,0,1,6.19,13.27,61.3,61.3,0,0,1,2,15.83,55.37,55.37,0,0,1-2,15A38.84,38.84,0,0,1,733.55,118a30.63,30.63,0,0,1-10.22,8.85,29.77,29.77,0,0,1-14.33,3.3,28,28,0,0,1-12.74-2.92,24.43,24.43,0,0,1-9.58-8.62h-0.29v36.75H665.94V50.63h19.44Zm26.57,61.5a16.73,16.73,0,0,0,5.47-5.48,23.14,23.14,0,0,0,3-7.87,48.39,48.39,0,0,0,.86-9.15,44.89,44.89,0,0,0-.94-9.15,25,25,0,0,0-3.1-8,17.64,17.64,0,0,0-5.54-5.7,15,15,0,0,0-8.28-2.17A15.29,15.29,0,0,0,695,66.76a17.15,17.15,0,0,0-5.47,5.63,23.94,23.94,0,0,0-3,8,49.21,49.21,0,0,0-.86,9.3,44.66,44.66,0,0,0,.94,9.15,24.18,24.18,0,0,0,3,7.87,16.47,16.47,0,0,0,5.54,5.48A17.81,17.81,0,0,0,711.95,112.13Z"/><path d="M763.43,109.58q4.61,4.65,13.25,4.65A17.71,17.71,0,0,0,787.33,111q4.46-3.22,5.47-6.83h18q-4.32,13.95-13.25,20t-21.6,6a41,41,0,0,1-15.84-2.92,32.87,32.87,0,0,1-12-8.33A37.73,37.73,0,0,1,740.6,106a49,49,0,0,1-2.66-16.5,46.91,46.91,0,0,1,2.74-16.2,38.24,38.24,0,0,1,7.78-13,36.57,36.57,0,0,1,12-8.62A37.22,37.22,0,0,1,776,48.53a34.24,34.24,0,0,1,16.56,3.83,33.47,33.47,0,0,1,11.59,10.28,43.08,43.08,0,0,1,6.55,14.7,57,57,0,0,1,1.44,17.25H758.39Q758.82,104.93,763.43,109.58Zm23.11-40.8q-3.67-4.2-11.16-4.2a17.2,17.2,0,0,0-8.14,1.72,15.63,15.63,0,0,0-5.18,4.28,15.9,15.9,0,0,0-2.74,5.4,25.26,25.26,0,0,0-.94,5.1h33.26Q790.21,73,786.54,68.78Z"/><path d="M880.35,50.63V64.88h-15v38.4q0,5.4,1.73,7.2t6.91,1.8q1.73,0,3.31-.15a27,27,0,0,0,3-.45v16.5a47,47,0,0,1-5.76.6q-3.17.15-6.19,0.15a57.32,57.32,0,0,1-9-.67,20.64,20.64,0,0,1-7.49-2.62,13.65,13.65,0,0,1-5.11-5.55,20.5,20.5,0,0,1-1.87-9.45V64.88H832.54V50.63h12.38V27.38h20.45V50.63h15Z"/><path d="M905.26,151.28q-5.91,4.05-16.42,4.05-3.17,0-6.26-.23t-6.26-.52V137l5.9,0.6a41,41,0,0,0,6,.15,7.87,7.87,0,0,0,6-3.3,10.94,10.94,0,0,0,1.94-6.3,13.27,13.27,0,0,0-.86-4.8L869.26,50.63H891l16.85,53.1h0.29l16.27-53.1h21.17l-31.1,87.15Q911.16,147.23,905.26,151.28Z"/><path d="M959.55,50.63v9.9h0.29a22.86,22.86,0,0,1,9.5-9.15A28.2,28.2,0,0,1,982,48.53,31.2,31.2,0,0,1,997.13,52a31.6,31.6,0,0,1,10.51,9.15,39.39,39.39,0,0,1,6.19,13.27,61.3,61.3,0,0,1,2,15.83,55.37,55.37,0,0,1-2,15,38.84,38.84,0,0,1-6.12,12.75,30.63,30.63,0,0,1-10.22,8.85,29.77,29.77,0,0,1-14.33,3.3,28,28,0,0,1-12.74-2.92,24.43,24.43,0,0,1-9.58-8.62h-0.29v36.75H940.11V50.63h19.44Zm26.57,61.5a16.73,16.73,0,0,0,5.47-5.48,23.14,23.14,0,0,0,3-7.87,48.39,48.39,0,0,0,.86-9.15,44.89,44.89,0,0,0-.94-9.15,25,25,0,0,0-3.1-8,17.64,17.64,0,0,0-5.54-5.7,15,15,0,0,0-8.28-2.17,15.29,15.29,0,0,0-8.42,2.17,17.15,17.15,0,0,0-5.47,5.63,23.94,23.94,0,0,0-3,8,49.21,49.21,0,0,0-.86,9.3,44.66,44.66,0,0,0,.94,9.15,24.18,24.18,0,0,0,3,7.87,16.47,16.47,0,0,0,5.54,5.48A17.81,17.81,0,0,0,986.12,112.13Z"/><path d="M1037.6,109.58q4.61,4.65,13.25,4.65A17.71,17.71,0,0,0,1061.5,111q4.46-3.22,5.47-6.83h18q-4.32,13.95-13.25,20t-21.6,6a41,41,0,0,1-15.84-2.92,32.87,32.87,0,0,1-12-8.33,37.73,37.73,0,0,1-7.56-12.9,49,49,0,0,1-2.66-16.5,46.91,46.91,0,0,1,2.74-16.2,38.24,38.24,0,0,1,7.78-13,36.57,36.57,0,0,1,12-8.62,37.22,37.22,0,0,1,15.48-3.15,34.24,34.24,0,0,1,16.56,3.83,33.47,33.47,0,0,1,11.59,10.28,43.08,43.08,0,0,1,6.55,14.7,57,57,0,0,1,1.44,17.25h-53.71Q1033,104.93,1037.6,109.58Zm23.11-40.8q-3.67-4.2-11.16-4.2a17.2,17.2,0,0,0-8.14,1.72,15.63,15.63,0,0,0-5.18,4.28,15.9,15.9,0,0,0-2.74,5.4,25.26,25.26,0,0,0-.94,5.1h33.26Q1064.38,73,1060.71,68.78Z"/><path d="M1109.45,105.08v23.1h-22.61v-23.1h22.61Z"/><path d="M1160.72,101.78a16.83,16.83,0,0,0,5,6.08,21.07,21.07,0,0,0,7.27,3.45,33.06,33.06,0,0,0,8.64,1.13,43.07,43.07,0,0,0,6.48-.53,21.81,21.81,0,0,0,6.48-2,14.22,14.22,0,0,0,5-4.12,10.64,10.64,0,0,0,2-6.67,9.61,9.61,0,0,0-2.66-7.05,21,21,0,0,0-7-4.5,67.72,67.72,0,0,0-9.79-3.15q-5.47-1.35-11.09-3a95.31,95.31,0,0,1-11.23-3.67,38.11,38.11,0,0,1-9.79-5.62,26.25,26.25,0,0,1-7-8.62,27.08,27.08,0,0,1-2.66-12.53,29,29,0,0,1,3.38-14.33,31.48,31.48,0,0,1,8.86-10.12,37.91,37.91,0,0,1,12.38-6,50.79,50.79,0,0,1,13.82-2,63,63,0,0,1,15.48,1.88,38,38,0,0,1,13.18,6.08,30.38,30.38,0,0,1,9.14,10.73A34,34,0,0,1,1220,53h-21.89a19.6,19.6,0,0,0-1.94-7.95,13.07,13.07,0,0,0-4.39-5,18.17,18.17,0,0,0-6.26-2.55,37.09,37.09,0,0,0-7.7-.75,25.56,25.56,0,0,0-5.47.6,14.35,14.35,0,0,0-5,2.1,12.74,12.74,0,0,0-3.67,3.75,10.39,10.39,0,0,0-1.44,5.7,9.93,9.93,0,0,0,1.15,5.1,10.34,10.34,0,0,0,4.54,3.6,56,56,0,0,0,9.36,3.3q6,1.65,15.62,4.2,2.88,0.6,8,2.17a37.69,37.69,0,0,1,10.15,5,31.41,31.41,0,0,1,8.71,9.22q3.67,5.78,3.67,14.78a33.9,33.9,0,0,1-2.74,13.65,29.52,29.52,0,0,1-8.14,10.88,38.54,38.54,0,0,1-13.39,7.13,61,61,0,0,1-18.5,2.55,62.53,62.53,0,0,1-16.49-2.18,40.69,40.69,0,0,1-14.11-6.82,33.34,33.34,0,0,1-9.72-11.85,36.6,36.6,0,0,1-3.46-17.1h21.89A20.31,20.31,0,0,0,1160.72,101.78Z"/><path d="M1242.79,21.08V61.43h0.43a24.11,24.11,0,0,1,9.94-9.83A26,26,0,0,1,1265,48.53q8.21,0,13.46,2.33a20.09,20.09,0,0,1,8.28,6.45,25.5,25.5,0,0,1,4.25,10,65.15,65.15,0,0,1,1.22,13.13v47.7h-20.45V84.38q0-9.6-2.88-14.33t-10.22-4.72q-8.35,0-12.1,5.17t-3.74,17v40.65h-20.45V21.08h20.45Z"/><path d="M1295.78,72.61a36.52,36.52,0,0,1,7.78-12.9,34.73,34.73,0,0,1,12.1-8.25,41,41,0,0,1,15.84-2.93,41.56,41.56,0,0,1,15.91,2.93,34.62,34.62,0,0,1,12.17,8.25,36.61,36.61,0,0,1,7.78,12.9,49.44,49.44,0,0,1,2.74,16.88,48.78,48.78,0,0,1-2.74,16.8,36.67,36.67,0,0,1-7.78,12.83,33.76,33.76,0,0,1-12.17,8.17,42.56,42.56,0,0,1-15.91,2.85,42,42,0,0,1-15.84-2.85,33.86,33.86,0,0,1-12.1-8.17,36.58,36.58,0,0,1-7.78-12.83,48.71,48.71,0,0,1-2.74-16.8A49.37,49.37,0,0,1,1295.78,72.61Zm18.58,26a24.73,24.73,0,0,0,3,8,16,16,0,0,0,5.54,5.63,16.37,16.37,0,0,0,8.64,2.1,16.76,16.76,0,0,0,8.71-2.1,15.85,15.85,0,0,0,5.62-5.62,24.8,24.8,0,0,0,3-8,47.22,47.22,0,0,0,.86-9.08,48.41,48.41,0,0,0-.86-9.15,24,24,0,0,0-3-8,16.71,16.71,0,0,0-5.62-5.62,16.33,16.33,0,0,0-8.71-2.17,16,16,0,0,0-8.64,2.17,16.9,16.9,0,0,0-5.54,5.63,23.92,23.92,0,0,0-3,8,48.41,48.41,0,0,0-.86,9.15A47.22,47.22,0,0,0,1314.36,98.56Z"/><path d="M1390.39,50.63v9.9h0.29a22.86,22.86,0,0,1,9.5-9.15,28.2,28.2,0,0,1,12.67-2.85A31.2,31.2,0,0,1,1428,52a31.6,31.6,0,0,1,10.51,9.15,39.39,39.39,0,0,1,6.19,13.27,61.3,61.3,0,0,1,2,15.83,55.37,55.37,0,0,1-2,15,38.84,38.84,0,0,1-6.12,12.75,30.63,30.63,0,0,1-10.22,8.85,29.77,29.77,0,0,1-14.33,3.3,28,28,0,0,1-12.74-2.92,24.43,24.43,0,0,1-9.58-8.62h-0.29v36.75H1371V50.63h19.44Zm26.57,61.5a16.73,16.73,0,0,0,5.47-5.48,23.14,23.14,0,0,0,3-7.87,48.39,48.39,0,0,0,.86-9.15,44.89,44.89,0,0,0-.94-9.15,25,25,0,0,0-3.1-8,17.64,17.64,0,0,0-5.54-5.7,15,15,0,0,0-8.28-2.17,15.29,15.29,0,0,0-8.42,2.17,17.15,17.15,0,0,0-5.47,5.63,23.94,23.94,0,0,0-3,8,49.21,49.21,0,0,0-.86,9.3,44.66,44.66,0,0,0,.94,9.15,24.18,24.18,0,0,0,3,7.87,16.47,16.47,0,0,0,5.54,5.48A17.81,17.81,0,0,0,1417,112.13Z"/><path d="M-12,146.93v-7.5H1438.77v7.5H-12Z"/><path d="M15.22,341.78a16.83,16.83,0,0,0,5,6.08,21.07,21.07,0,0,0,7.27,3.45,33.06,33.06,0,0,0,8.64,1.13,43.07,43.07,0,0,0,6.48-.53,21.81,21.81,0,0,0,6.48-2,14.22,14.22,0,0,0,5-4.12,10.64,10.64,0,0,0,2-6.67A9.61,9.61,0,0,0,53.45,332a21,21,0,0,0-7-4.5,67.72,67.72,0,0,0-9.79-3.15q-5.47-1.35-11.09-3a95.31,95.31,0,0,1-11.23-3.67,38.11,38.11,0,0,1-9.79-5.62,26.25,26.25,0,0,1-7-8.62,27.08,27.08,0,0,1-2.66-12.53A29,29,0,0,1-1.7,276.61a31.48,31.48,0,0,1,8.86-10.12,37.91,37.91,0,0,1,12.38-6,50.79,50.79,0,0,1,13.82-2,63,63,0,0,1,15.48,1.88A38,38,0,0,1,62,266.48a30.38,30.38,0,0,1,9.14,10.73A34,34,0,0,1,74.54,293H52.66a19.6,19.6,0,0,0-1.94-7.95,13.07,13.07,0,0,0-4.39-5,18.17,18.17,0,0,0-6.26-2.55,37.09,37.09,0,0,0-7.7-.75,25.56,25.56,0,0,0-5.47.6,14.35,14.35,0,0,0-5,2.1,12.74,12.74,0,0,0-3.67,3.75A10.39,10.39,0,0,0,16.8,289a9.93,9.93,0,0,0,1.15,5.1,10.34,10.34,0,0,0,4.54,3.6,56,56,0,0,0,9.36,3.3q6,1.65,15.62,4.2,2.88,0.6,8,2.17a37.69,37.69,0,0,1,10.15,5,31.41,31.41,0,0,1,8.71,9.22Q78,327.38,78,336.38A33.9,33.9,0,0,1,75.26,350a29.52,29.52,0,0,1-8.14,10.88A38.54,38.54,0,0,1,53.74,368a61,61,0,0,1-18.5,2.55,62.53,62.53,0,0,1-16.49-2.18,40.69,40.69,0,0,1-14.11-6.82,33.34,33.34,0,0,1-9.72-11.85,36.6,36.6,0,0,1-3.46-17.1H13.34A20.31,20.31,0,0,0,15.22,341.78Z"/><path d="M97.29,261.08v40.35h0.43a24.11,24.11,0,0,1,9.94-9.83,26,26,0,0,1,11.81-3.08q8.21,0,13.46,2.33a20.09,20.09,0,0,1,8.28,6.45,25.5,25.5,0,0,1,4.25,10,65.15,65.15,0,0,1,1.22,13.13v47.7H126.24v-43.8q0-9.6-2.88-14.33t-10.22-4.72q-8.35,0-12.1,5.17t-3.74,17v40.65H76.85V261.08H97.29Z"/><path d="M150.28,312.61a36.52,36.52,0,0,1,7.78-12.9,34.73,34.73,0,0,1,12.1-8.25A41,41,0,0,1,186,288.53a41.56,41.56,0,0,1,15.91,2.93,34.62,34.62,0,0,1,12.17,8.25,36.61,36.61,0,0,1,7.78,12.9,49.44,49.44,0,0,1,2.74,16.88,48.78,48.78,0,0,1-2.74,16.8,36.67,36.67,0,0,1-7.78,12.83,33.76,33.76,0,0,1-12.17,8.17A42.56,42.56,0,0,1,186,370.13a42,42,0,0,1-15.84-2.85,33.86,33.86,0,0,1-12.1-8.17,36.58,36.58,0,0,1-7.78-12.83,48.71,48.71,0,0,1-2.74-16.8A49.37,49.37,0,0,1,150.28,312.61Zm18.58,26a24.73,24.73,0,0,0,3,8,16,16,0,0,0,5.54,5.63,16.37,16.37,0,0,0,8.64,2.1,16.76,16.76,0,0,0,8.71-2.1,15.85,15.85,0,0,0,5.62-5.62,24.8,24.8,0,0,0,3-8,47.22,47.22,0,0,0,.86-9.08,48.41,48.41,0,0,0-.86-9.15,24,24,0,0,0-3-8,16.71,16.71,0,0,0-5.62-5.62,16.33,16.33,0,0,0-8.71-2.17,16,16,0,0,0-8.64,2.17,16.9,16.9,0,0,0-5.54,5.63,23.92,23.92,0,0,0-3,8,48.41,48.41,0,0,0-.86,9.15A47.22,47.22,0,0,0,168.86,338.56Z"/><path d="M244.89,290.63v9.9h0.29a22.86,22.86,0,0,1,9.5-9.15,28.2,28.2,0,0,1,12.67-2.85A31.2,31.2,0,0,1,282.47,292,31.6,31.6,0,0,1,293,301.13a39.39,39.39,0,0,1,6.19,13.27,61.3,61.3,0,0,1,2,15.83,55.37,55.37,0,0,1-2,15A38.84,38.84,0,0,1,293.06,358a30.63,30.63,0,0,1-10.22,8.85,29.77,29.77,0,0,1-14.33,3.3,28,28,0,0,1-12.74-2.92,24.43,24.43,0,0,1-9.58-8.62H245.9v36.75H225.45V290.63h19.44Zm26.57,61.5a16.73,16.73,0,0,0,5.47-5.48,23.14,23.14,0,0,0,3-7.87,48.39,48.39,0,0,0,.86-9.15,44.89,44.89,0,0,0-.94-9.15,25,25,0,0,0-3.1-8,17.64,17.64,0,0,0-5.54-5.7,15,15,0,0,0-8.28-2.17,15.29,15.29,0,0,0-8.42,2.17,17.15,17.15,0,0,0-5.47,5.63,23.94,23.94,0,0,0-3,8,49.21,49.21,0,0,0-.86,9.3,44.66,44.66,0,0,0,.94,9.15,24.18,24.18,0,0,0,3,7.88,16.47,16.47,0,0,0,5.54,5.48A17.81,17.81,0,0,0,271.46,352.13Z"/><path d="M349.15,261.08v39h0.29a22.06,22.06,0,0,1,10.15-8.78,33.18,33.18,0,0,1,13.32-2.78,27.4,27.4,0,0,1,11.09,2.4,28.46,28.46,0,0,1,9.86,7.35A38,38,0,0,1,401,311a63.09,63.09,0,0,1,0,36.75,38,38,0,0,1-7.13,12.67,28.44,28.44,0,0,1-9.86,7.35,27.4,27.4,0,0,1-11.09,2.4,37.89,37.89,0,0,1-14.69-2.7,18.92,18.92,0,0,1-9.79-9.15h-0.29v9.9H328.7V261.08h20.45ZM382.27,320a25.27,25.27,0,0,0-3.17-7.95,16.94,16.94,0,0,0-5.4-5.48,16.08,16.08,0,0,0-15.62,0,16.66,16.66,0,0,0-5.47,5.48,25.25,25.25,0,0,0-3.17,7.95,43.08,43.08,0,0,0-1,9.45,42.35,42.35,0,0,0,1,9.3,25.24,25.24,0,0,0,3.17,8,16.65,16.65,0,0,0,5.47,5.48,16.08,16.08,0,0,0,15.62,0,16.92,16.92,0,0,0,5.4-5.48,25.26,25.26,0,0,0,3.17-8,42.47,42.47,0,0,0,1-9.3A43.19,43.19,0,0,0,382.27,320Z"/><path d="M431.8,391.28q-5.91,4.05-16.42,4.05-3.17,0-6.26-.23t-6.26-.52V377l5.9,0.6a41,41,0,0,0,6,.15,7.87,7.87,0,0,0,6-3.3,10.94,10.94,0,0,0,1.94-6.3,13.27,13.27,0,0,0-.86-4.8L395.8,290.63h21.74l16.85,53.1h0.29L451,290.63h21.17L441,377.78Q437.7,387.23,431.8,391.28Z"/><path d="M511.5,348.91A12.29,12.29,0,0,0,515,353a14.83,14.83,0,0,0,5,2.32,22.41,22.41,0,0,0,5.83.75,20.93,20.93,0,0,0,4.54-.52,15,15,0,0,0,4.32-1.65,10,10,0,0,0,3.24-3,8.11,8.11,0,0,0,1.3-4.72q0-4.8-6.12-7.2a118.73,118.73,0,0,0-17.06-4.8q-4.46-1-8.71-2.48a29.17,29.17,0,0,1-7.56-3.75,17.9,17.9,0,0,1-5.33-5.85,17.1,17.1,0,0,1-2-8.62q0-7.5,2.81-12.3a21.13,21.13,0,0,1,7.42-7.58,31.69,31.69,0,0,1,10.37-3.9,61.45,61.45,0,0,1,11.81-1.12,56.8,56.8,0,0,1,11.74,1.2,30.4,30.4,0,0,1,10.15,4,23.84,23.84,0,0,1,7.42,7.58,26.24,26.24,0,0,1,3.53,11.92H538.22q-0.43-6.15-4.46-8.32a19.75,19.75,0,0,0-9.5-2.18,33.79,33.79,0,0,0-3.74.23,12.09,12.09,0,0,0-3.67,1,7.61,7.61,0,0,0-2.81,2.17,6.6,6.6,0,0,0,.86,8.48,15.34,15.34,0,0,0,5.26,2.92,63.66,63.66,0,0,0,7.42,2q4.17,0.9,8.5,1.95a84.41,84.41,0,0,1,8.71,2.55,28.27,28.27,0,0,1,7.56,4,19,19,0,0,1,5.33,6.15,18.67,18.67,0,0,1,2,9.07,25.58,25.58,0,0,1-3,12.83,24.19,24.19,0,0,1-7.7,8.33,30.84,30.84,0,0,1-10.87,4.42,61,61,0,0,1-12.46,1.28A59.27,59.27,0,0,1,513,368.78a32.63,32.63,0,0,1-11-4.5,25.24,25.24,0,0,1-7.92-8.32,26.88,26.88,0,0,1-3.38-13h19.44A12,12,0,0,0,511.5,348.91Z"/><path d="M600.13,290.63v14.25h-15v38.4q0,5.4,1.73,7.2t6.91,1.8q1.73,0,3.31-.15a27,27,0,0,0,3-.45v16.5a47,47,0,0,1-5.76.6q-3.17.15-6.19,0.15a57.32,57.32,0,0,1-9-.67,20.64,20.64,0,0,1-7.49-2.62,13.65,13.65,0,0,1-5.11-5.55,20.5,20.5,0,0,1-1.87-9.45V304.88H552.33V290.63h12.38V267.38h20.45v23.25h15Z"/><path d="M617,290.63V305h0.29a26.39,26.39,0,0,1,3.89-6.67,25.93,25.93,0,0,1,5.62-5.25,27,27,0,0,1,6.77-3.37,23.54,23.54,0,0,1,7.49-1.2,15.4,15.4,0,0,1,4.46.75v19.8q-1.44-.3-3.46-0.53a35,35,0,0,0-3.89-.22,21.07,21.07,0,0,0-9.5,1.95,16.63,16.63,0,0,0-6.26,5.33,21.75,21.75,0,0,0-3.38,7.88,44.53,44.53,0,0,0-1,9.75v35H597.54V290.63H617Z"/><path d="M641.75,278.63V261.08H662.2v17.55H641.75Zm20.45,12v77.55H641.75V290.63H662.2Z"/><path d="M685.38,290.63v9.9h0.29a22.86,22.86,0,0,1,9.5-9.15,28.2,28.2,0,0,1,12.67-2.85A31.2,31.2,0,0,1,723,292a31.6,31.6,0,0,1,10.51,9.15,39.39,39.39,0,0,1,6.19,13.27,61.3,61.3,0,0,1,2,15.83,55.37,55.37,0,0,1-2,15A38.84,38.84,0,0,1,733.55,358a30.63,30.63,0,0,1-10.22,8.85,29.77,29.77,0,0,1-14.33,3.3,28,28,0,0,1-12.74-2.92,24.43,24.43,0,0,1-9.58-8.62h-0.29v36.75H665.94V290.63h19.44Zm26.57,61.5a16.73,16.73,0,0,0,5.47-5.48,23.14,23.14,0,0,0,3-7.87,48.39,48.39,0,0,0,.86-9.15,44.89,44.89,0,0,0-.94-9.15,25,25,0,0,0-3.1-8,17.64,17.64,0,0,0-5.54-5.7,15,15,0,0,0-8.28-2.17,15.29,15.29,0,0,0-8.42,2.17,17.15,17.15,0,0,0-5.47,5.63,23.94,23.94,0,0,0-3,8,49.21,49.21,0,0,0-.86,9.3,44.66,44.66,0,0,0,.94,9.15,24.18,24.18,0,0,0,3,7.88,16.47,16.47,0,0,0,5.54,5.48A17.81,17.81,0,0,0,711.95,352.13Z"/><path d="M763.43,349.58q4.61,4.65,13.25,4.65A17.71,17.71,0,0,0,787.33,351q4.46-3.22,5.47-6.83h18q-4.32,13.95-13.25,20t-21.6,6a41,41,0,0,1-15.84-2.92,32.87,32.87,0,0,1-12-8.33A37.73,37.73,0,0,1,740.6,346a49,49,0,0,1-2.66-16.5,46.91,46.91,0,0,1,2.74-16.2,38.24,38.24,0,0,1,7.78-13,36.57,36.57,0,0,1,12-8.62A37.22,37.22,0,0,1,776,288.53a34.24,34.24,0,0,1,16.56,3.83,33.47,33.47,0,0,1,11.59,10.28,43.08,43.08,0,0,1,6.55,14.7,57,57,0,0,1,1.44,17.25H758.39Q758.82,344.93,763.43,349.58Zm23.11-40.8q-3.67-4.2-11.16-4.2a17.2,17.2,0,0,0-8.14,1.72,15.63,15.63,0,0,0-5.18,4.28,15.9,15.9,0,0,0-2.74,5.4,25.26,25.26,0,0,0-.94,5.1h33.26Q790.21,313,786.54,308.78Z"/><path d="M880.35,290.63v14.25h-15v38.4q0,5.4,1.73,7.2t6.91,1.8q1.73,0,3.31-.15a27,27,0,0,0,3-.45v16.5a47,47,0,0,1-5.76.6q-3.17.15-6.19,0.15a57.32,57.32,0,0,1-9-.67,20.64,20.64,0,0,1-7.49-2.62,13.65,13.65,0,0,1-5.11-5.55,20.5,20.5,0,0,1-1.87-9.45V304.88H832.54V290.63h12.38V267.38h20.45v23.25h15Z"/><path d="M905.26,391.28q-5.91,4.05-16.42,4.05-3.17,0-6.26-.23t-6.26-.52V377l5.9,0.6a41,41,0,0,0,6,.15,7.87,7.87,0,0,0,6-3.3,10.94,10.94,0,0,0,1.94-6.3,13.27,13.27,0,0,0-.86-4.8l-26.06-72.75H891l16.85,53.1h0.29l16.27-53.1h21.17l-31.1,87.15Q911.16,387.23,905.26,391.28Z"/><path d="M959.55,290.63v9.9h0.29a22.86,22.86,0,0,1,9.5-9.15A28.2,28.2,0,0,1,982,288.53,31.2,31.2,0,0,1,997.13,292a31.6,31.6,0,0,1,10.51,9.15,39.39,39.39,0,0,1,6.19,13.27,61.3,61.3,0,0,1,2,15.83,55.37,55.37,0,0,1-2,15,38.84,38.84,0,0,1-6.12,12.75,30.63,30.63,0,0,1-10.22,8.85,29.77,29.77,0,0,1-14.33,3.3,28,28,0,0,1-12.74-2.92,24.43,24.43,0,0,1-9.58-8.62h-0.29v36.75H940.11V290.63h19.44Zm26.57,61.5a16.73,16.73,0,0,0,5.47-5.48,23.14,23.14,0,0,0,3-7.87,48.39,48.39,0,0,0,.86-9.15,44.89,44.89,0,0,0-.94-9.15,25,25,0,0,0-3.1-8,17.64,17.64,0,0,0-5.54-5.7,15,15,0,0,0-8.28-2.17,15.29,15.29,0,0,0-8.42,2.17,17.15,17.15,0,0,0-5.47,5.63,23.94,23.94,0,0,0-3,8,49.21,49.21,0,0,0-.86,9.3,44.66,44.66,0,0,0,.94,9.15,24.18,24.18,0,0,0,3,7.88,16.47,16.47,0,0,0,5.54,5.48A17.81,17.81,0,0,0,986.12,352.13Z"/><path d="M1037.6,349.58q4.61,4.65,13.25,4.65A17.71,17.71,0,0,0,1061.5,351q4.46-3.22,5.47-6.83h18q-4.32,13.95-13.25,20t-21.6,6a41,41,0,0,1-15.84-2.92,32.87,32.87,0,0,1-12-8.33,37.73,37.73,0,0,1-7.56-12.9,49,49,0,0,1-2.66-16.5,46.91,46.91,0,0,1,2.74-16.2,38.24,38.24,0,0,1,7.78-13,36.57,36.57,0,0,1,12-8.62,37.22,37.22,0,0,1,15.48-3.15,34.24,34.24,0,0,1,16.56,3.83,33.47,33.47,0,0,1,11.59,10.28,43.08,43.08,0,0,1,6.55,14.7,57,57,0,0,1,1.44,17.25h-53.71Q1033,344.93,1037.6,349.58Zm23.11-40.8q-3.67-4.2-11.16-4.2a17.2,17.2,0,0,0-8.14,1.72,15.63,15.63,0,0,0-5.18,4.28,15.9,15.9,0,0,0-2.74,5.4,25.26,25.26,0,0,0-.94,5.1h33.26Q1064.38,313,1060.71,308.78Z"/><path d="M1109.45,345.08v23.1h-22.61v-23.1h22.61Z"/><path d="M1160.72,341.78a16.83,16.83,0,0,0,5,6.08,21.07,21.07,0,0,0,7.27,3.45,33.06,33.06,0,0,0,8.64,1.13,43.07,43.07,0,0,0,6.48-.53,21.81,21.81,0,0,0,6.48-2,14.22,14.22,0,0,0,5-4.12,10.64,10.64,0,0,0,2-6.67,9.61,9.61,0,0,0-2.66-7.05,21,21,0,0,0-7-4.5,67.72,67.72,0,0,0-9.79-3.15q-5.47-1.35-11.09-3a95.31,95.31,0,0,1-11.23-3.67,38.11,38.11,0,0,1-9.79-5.62,26.25,26.25,0,0,1-7-8.62,27.08,27.08,0,0,1-2.66-12.53,29,29,0,0,1,3.38-14.33,31.48,31.48,0,0,1,8.86-10.12,37.91,37.91,0,0,1,12.38-6,50.79,50.79,0,0,1,13.82-2,63,63,0,0,1,15.48,1.88,38,38,0,0,1,13.18,6.08,30.38,30.38,0,0,1,9.14,10.73A34,34,0,0,1,1220,293h-21.89a19.6,19.6,0,0,0-1.94-7.95,13.07,13.07,0,0,0-4.39-5,18.17,18.17,0,0,0-6.26-2.55,37.09,37.09,0,0,0-7.7-.75,25.56,25.56,0,0,0-5.47.6,14.35,14.35,0,0,0-5,2.1,12.74,12.74,0,0,0-3.67,3.75,10.39,10.39,0,0,0-1.44,5.7,9.93,9.93,0,0,0,1.15,5.1,10.34,10.34,0,0,0,4.54,3.6,56,56,0,0,0,9.36,3.3q6,1.65,15.62,4.2,2.88,0.6,8,2.17a37.69,37.69,0,0,1,10.15,5,31.41,31.41,0,0,1,8.71,9.22q3.67,5.78,3.67,14.78a33.9,33.9,0,0,1-2.74,13.65,29.52,29.52,0,0,1-8.14,10.88,38.54,38.54,0,0,1-13.39,7.13,61,61,0,0,1-18.5,2.55,62.53,62.53,0,0,1-16.49-2.18,40.69,40.69,0,0,1-14.11-6.82,33.34,33.34,0,0,1-9.72-11.85,36.6,36.6,0,0,1-3.46-17.1h21.89A20.31,20.31,0,0,0,1160.72,341.78Z"/><path d="M1242.79,261.08v40.35h0.43a24.11,24.11,0,0,1,9.94-9.83,26,26,0,0,1,11.81-3.08q8.21,0,13.46,2.33a20.09,20.09,0,0,1,8.28,6.45,25.5,25.5,0,0,1,4.25,10,65.15,65.15,0,0,1,1.22,13.13v47.7h-20.45v-43.8q0-9.6-2.88-14.33t-10.22-4.72q-8.35,0-12.1,5.17t-3.74,17v40.65h-20.45V261.08h20.45Z"/><path d="M1295.78,312.61a36.52,36.52,0,0,1,7.78-12.9,34.73,34.73,0,0,1,12.1-8.25,41,41,0,0,1,15.84-2.93,41.56,41.56,0,0,1,15.91,2.93,34.62,34.62,0,0,1,12.17,8.25,36.61,36.61,0,0,1,7.78,12.9,49.44,49.44,0,0,1,2.74,16.88,48.78,48.78,0,0,1-2.74,16.8,36.67,36.67,0,0,1-7.78,12.83,33.76,33.76,0,0,1-12.17,8.17,42.56,42.56,0,0,1-15.91,2.85,42,42,0,0,1-15.84-2.85,33.86,33.86,0,0,1-12.1-8.17,36.58,36.58,0,0,1-7.78-12.83,48.71,48.71,0,0,1-2.74-16.8A49.37,49.37,0,0,1,1295.78,312.61Zm18.58,26a24.73,24.73,0,0,0,3,8,16,16,0,0,0,5.54,5.63,16.37,16.37,0,0,0,8.64,2.1,16.76,16.76,0,0,0,8.71-2.1,15.85,15.85,0,0,0,5.62-5.62,24.8,24.8,0,0,0,3-8,47.22,47.22,0,0,0,.86-9.08,48.41,48.41,0,0,0-.86-9.15,24,24,0,0,0-3-8,16.71,16.71,0,0,0-5.62-5.62,16.33,16.33,0,0,0-8.71-2.17,16,16,0,0,0-8.64,2.17,16.9,16.9,0,0,0-5.54,5.63,23.92,23.92,0,0,0-3,8,48.41,48.41,0,0,0-.86,9.15A47.22,47.22,0,0,0,1314.36,338.56Z"/><path d="M1390.39,290.63v9.9h0.29a22.86,22.86,0,0,1,9.5-9.15,28.2,28.2,0,0,1,12.67-2.85A31.2,31.2,0,0,1,1428,292a31.6,31.6,0,0,1,10.51,9.15,39.39,39.39,0,0,1,6.19,13.27,61.3,61.3,0,0,1,2,15.83,55.37,55.37,0,0,1-2,15,38.84,38.84,0,0,1-6.12,12.75,30.63,30.63,0,0,1-10.22,8.85,29.77,29.77,0,0,1-14.33,3.3,28,28,0,0,1-12.74-2.92,24.43,24.43,0,0,1-9.58-8.62h-0.29v36.75H1371V290.63h19.44Zm26.57,61.5a16.73,16.73,0,0,0,5.47-5.48,23.14,23.14,0,0,0,3-7.87,48.39,48.39,0,0,0,.86-9.15,44.89,44.89,0,0,0-.94-9.15,25,25,0,0,0-3.1-8,17.64,17.64,0,0,0-5.54-5.7,15,15,0,0,0-8.28-2.17,15.29,15.29,0,0,0-8.42,2.17,17.15,17.15,0,0,0-5.47,5.63,23.94,23.94,0,0,0-3,8,49.21,49.21,0,0,0-.86,9.3,44.66,44.66,0,0,0,.94,9.15,24.18,24.18,0,0,0,3,7.88,16.47,16.47,0,0,0,5.54,5.48A17.81,17.81,0,0,0,1417,352.13Z"/><path d="M-12,386.93v-7.5H1438.77v7.5H-12Z"/><path d="M15.22,581.78a16.83,16.83,0,0,0,5,6.08,21.07,21.07,0,0,0,7.27,3.45,33.06,33.06,0,0,0,8.64,1.13,43.07,43.07,0,0,0,6.48-.53,21.81,21.81,0,0,0,6.48-2,14.22,14.22,0,0,0,5-4.12,10.64,10.64,0,0,0,2-6.67A9.61,9.61,0,0,0,53.45,572a21,21,0,0,0-7-4.5,67.72,67.72,0,0,0-9.79-3.15q-5.47-1.35-11.09-3a95.31,95.31,0,0,1-11.23-3.67,38.11,38.11,0,0,1-9.79-5.62,26.25,26.25,0,0,1-7-8.62,27.08,27.08,0,0,1-2.66-12.53A29,29,0,0,1-1.7,516.61a31.48,31.48,0,0,1,8.86-10.13,37.91,37.91,0,0,1,12.38-6,50.79,50.79,0,0,1,13.82-2,63,63,0,0,1,15.48,1.88A38,38,0,0,1,62,506.48a30.38,30.38,0,0,1,9.14,10.73A34,34,0,0,1,74.54,533H52.66a19.6,19.6,0,0,0-1.94-7.95,13.07,13.07,0,0,0-4.39-5,18.17,18.17,0,0,0-6.26-2.55,37.09,37.09,0,0,0-7.7-.75,25.56,25.56,0,0,0-5.47.6,14.35,14.35,0,0,0-5,2.1,12.74,12.74,0,0,0-3.67,3.75A10.39,10.39,0,0,0,16.8,529a9.93,9.93,0,0,0,1.15,5.1,10.34,10.34,0,0,0,4.54,3.6,56,56,0,0,0,9.36,3.3q6,1.65,15.62,4.2,2.88,0.6,8,2.17a37.69,37.69,0,0,1,10.15,5,31.41,31.41,0,0,1,8.71,9.22Q78,567.38,78,576.38A33.9,33.9,0,0,1,75.26,590a29.52,29.52,0,0,1-8.14,10.88A38.54,38.54,0,0,1,53.74,608a61,61,0,0,1-18.5,2.55,62.53,62.53,0,0,1-16.49-2.18,40.69,40.69,0,0,1-14.11-6.82,33.34,33.34,0,0,1-9.72-11.85,36.6,36.6,0,0,1-3.46-17.1H13.34A20.31,20.31,0,0,0,15.22,581.78Z"/><path d="M97.29,501.08v40.35h0.43a24.11,24.11,0,0,1,9.94-9.83,26,26,0,0,1,11.81-3.08q8.21,0,13.46,2.33a20.09,20.09,0,0,1,8.28,6.45,25.5,25.5,0,0,1,4.25,10,65.15,65.15,0,0,1,1.22,13.13v47.7H126.24v-43.8q0-9.6-2.88-14.33t-10.22-4.72q-8.35,0-12.1,5.17t-3.74,17v40.65H76.85V501.08H97.29Z"/><path d="M150.28,552.61a36.52,36.52,0,0,1,7.78-12.9,34.73,34.73,0,0,1,12.1-8.25A41,41,0,0,1,186,528.53a41.56,41.56,0,0,1,15.91,2.93,34.62,34.62,0,0,1,12.17,8.25,36.61,36.61,0,0,1,7.78,12.9,49.44,49.44,0,0,1,2.74,16.88,48.78,48.78,0,0,1-2.74,16.8,36.67,36.67,0,0,1-7.78,12.83,33.76,33.76,0,0,1-12.17,8.17A42.56,42.56,0,0,1,186,610.13a42,42,0,0,1-15.84-2.85,33.86,33.86,0,0,1-12.1-8.17,36.58,36.58,0,0,1-7.78-12.83,48.71,48.71,0,0,1-2.74-16.8A49.37,49.37,0,0,1,150.28,552.61Zm18.58,26a24.73,24.73,0,0,0,3,8,16,16,0,0,0,5.54,5.63,16.37,16.37,0,0,0,8.64,2.1,16.76,16.76,0,0,0,8.71-2.1,15.85,15.85,0,0,0,5.62-5.62,24.8,24.8,0,0,0,3-8,47.22,47.22,0,0,0,.86-9.08,48.41,48.41,0,0,0-.86-9.15,24,24,0,0,0-3-8,16.71,16.71,0,0,0-5.62-5.62,16.33,16.33,0,0,0-8.71-2.17,16,16,0,0,0-8.64,2.17,16.9,16.9,0,0,0-5.54,5.63,23.92,23.92,0,0,0-3,8,48.41,48.41,0,0,0-.86,9.15A47.22,47.22,0,0,0,168.86,578.56Z"/><path d="M244.89,530.63v9.9h0.29a22.86,22.86,0,0,1,9.5-9.15,28.2,28.2,0,0,1,12.67-2.85A31.2,31.2,0,0,1,282.47,532,31.6,31.6,0,0,1,293,541.13a39.39,39.39,0,0,1,6.19,13.27,61.3,61.3,0,0,1,2,15.83,55.37,55.37,0,0,1-2,15A38.84,38.84,0,0,1,293.06,598a30.63,30.63,0,0,1-10.22,8.85,29.77,29.77,0,0,1-14.33,3.3,28,28,0,0,1-12.74-2.92,24.43,24.43,0,0,1-9.58-8.62H245.9v36.75H225.45V530.63h19.44Zm26.57,61.5a16.73,16.73,0,0,0,5.47-5.48,23.14,23.14,0,0,0,3-7.87,48.39,48.39,0,0,0,.86-9.15,44.89,44.89,0,0,0-.94-9.15,25,25,0,0,0-3.1-8,17.64,17.64,0,0,0-5.54-5.7,15,15,0,0,0-8.28-2.17,15.29,15.29,0,0,0-8.42,2.17,17.15,17.15,0,0,0-5.47,5.63,23.94,23.94,0,0,0-3,8,49.21,49.21,0,0,0-.86,9.3,44.66,44.66,0,0,0,.94,9.15,24.18,24.18,0,0,0,3,7.88,16.47,16.47,0,0,0,5.54,5.48A17.81,17.81,0,0,0,271.46,592.13Z"/><path d="M349.15,501.08v39h0.29a22.06,22.06,0,0,1,10.15-8.78,33.18,33.18,0,0,1,13.32-2.78,27.4,27.4,0,0,1,11.09,2.4,28.46,28.46,0,0,1,9.86,7.35A38,38,0,0,1,401,551a63.09,63.09,0,0,1,0,36.75,38,38,0,0,1-7.13,12.67,28.44,28.44,0,0,1-9.86,7.35,27.4,27.4,0,0,1-11.09,2.4,37.89,37.89,0,0,1-14.69-2.7,18.92,18.92,0,0,1-9.79-9.15h-0.29v9.9H328.7V501.08h20.45ZM382.27,560a25.27,25.27,0,0,0-3.17-7.95,16.94,16.94,0,0,0-5.4-5.48,16.08,16.08,0,0,0-15.62,0,16.66,16.66,0,0,0-5.47,5.48,25.25,25.25,0,0,0-3.17,7.95,43.08,43.08,0,0,0-1,9.45,42.35,42.35,0,0,0,1,9.3,25.24,25.24,0,0,0,3.17,8,16.65,16.65,0,0,0,5.47,5.48,16.08,16.08,0,0,0,15.62,0,16.92,16.92,0,0,0,5.4-5.48,25.26,25.26,0,0,0,3.17-8,42.47,42.47,0,0,0,1-9.3A43.19,43.19,0,0,0,382.27,560Z"/><path d="M431.8,631.28q-5.91,4.05-16.42,4.05-3.17,0-6.26-.23t-6.26-.52V617l5.9,0.6a41,41,0,0,0,6,.15,7.87,7.87,0,0,0,6-3.3,10.94,10.94,0,0,0,1.94-6.3,13.27,13.27,0,0,0-.86-4.8L395.8,530.63h21.74l16.85,53.1h0.29L451,530.63h21.17L441,617.78Q437.7,627.23,431.8,631.28Z"/><path d="M511.5,588.91A12.29,12.29,0,0,0,515,593a14.83,14.83,0,0,0,5,2.32,22.41,22.41,0,0,0,5.83.75,20.93,20.93,0,0,0,4.54-.52,15,15,0,0,0,4.32-1.65,10,10,0,0,0,3.24-3,8.11,8.11,0,0,0,1.3-4.72q0-4.8-6.12-7.2a118.73,118.73,0,0,0-17.06-4.8q-4.46-1-8.71-2.48a29.17,29.17,0,0,1-7.56-3.75,17.9,17.9,0,0,1-5.33-5.85,17.1,17.1,0,0,1-2-8.62q0-7.5,2.81-12.3a21.13,21.13,0,0,1,7.42-7.58,31.69,31.69,0,0,1,10.37-3.9,61.45,61.45,0,0,1,11.81-1.12,56.8,56.8,0,0,1,11.74,1.2,30.4,30.4,0,0,1,10.15,4,23.84,23.84,0,0,1,7.42,7.58,26.24,26.24,0,0,1,3.53,11.92H538.22q-0.43-6.15-4.46-8.32a19.75,19.75,0,0,0-9.5-2.18,33.79,33.79,0,0,0-3.74.23,12.09,12.09,0,0,0-3.67,1,7.61,7.61,0,0,0-2.81,2.17,6.6,6.6,0,0,0,.86,8.48,15.34,15.34,0,0,0,5.26,2.92,63.66,63.66,0,0,0,7.42,2q4.17,0.9,8.5,1.95a84.41,84.41,0,0,1,8.71,2.55,28.27,28.27,0,0,1,7.56,4,19,19,0,0,1,5.33,6.15,18.67,18.67,0,0,1,2,9.07,25.58,25.58,0,0,1-3,12.83,24.19,24.19,0,0,1-7.7,8.33,30.84,30.84,0,0,1-10.87,4.42,61,61,0,0,1-12.46,1.28A59.27,59.27,0,0,1,513,608.78a32.63,32.63,0,0,1-11-4.5,25.24,25.24,0,0,1-7.92-8.32,26.88,26.88,0,0,1-3.38-13h19.44A12,12,0,0,0,511.5,588.91Z"/><path d="M600.13,530.63v14.25h-15v38.4q0,5.4,1.73,7.2t6.91,1.8q1.73,0,3.31-.15a27,27,0,0,0,3-.45v16.5a47,47,0,0,1-5.76.6q-3.17.15-6.19,0.15a57.32,57.32,0,0,1-9-.67,20.64,20.64,0,0,1-7.49-2.62,13.65,13.65,0,0,1-5.11-5.55,20.5,20.5,0,0,1-1.87-9.45V544.88H552.33V530.63h12.38V507.38h20.45v23.25h15Z"/><path d="M617,530.63V545h0.29a26.39,26.39,0,0,1,3.89-6.67,25.93,25.93,0,0,1,5.62-5.25,27,27,0,0,1,6.77-3.37,23.54,23.54,0,0,1,7.49-1.2,15.4,15.4,0,0,1,4.46.75v19.8q-1.44-.3-3.46-0.53a35,35,0,0,0-3.89-.22,21.07,21.07,0,0,0-9.5,1.95,16.63,16.63,0,0,0-6.26,5.33,21.75,21.75,0,0,0-3.38,7.88,44.53,44.53,0,0,0-1,9.75v35H597.54V530.63H617Z"/><path d="M641.75,518.63V501.08H662.2v17.55H641.75Zm20.45,12v77.55H641.75V530.63H662.2Z"/><path d="M685.38,530.63v9.9h0.29a22.86,22.86,0,0,1,9.5-9.15,28.2,28.2,0,0,1,12.67-2.85A31.2,31.2,0,0,1,723,532a31.6,31.6,0,0,1,10.51,9.15,39.39,39.39,0,0,1,6.19,13.27,61.3,61.3,0,0,1,2,15.83,55.37,55.37,0,0,1-2,15A38.84,38.84,0,0,1,733.55,598a30.63,30.63,0,0,1-10.22,8.85,29.77,29.77,0,0,1-14.33,3.3,28,28,0,0,1-12.74-2.92,24.43,24.43,0,0,1-9.58-8.62h-0.29v36.75H665.94V530.63h19.44Zm26.57,61.5a16.73,16.73,0,0,0,5.47-5.48,23.14,23.14,0,0,0,3-7.87,48.39,48.39,0,0,0,.86-9.15,44.89,44.89,0,0,0-.94-9.15,25,25,0,0,0-3.1-8,17.64,17.64,0,0,0-5.54-5.7,15,15,0,0,0-8.28-2.17,15.29,15.29,0,0,0-8.42,2.17,17.15,17.15,0,0,0-5.47,5.63,23.94,23.94,0,0,0-3,8,49.21,49.21,0,0,0-.86,9.3,44.66,44.66,0,0,0,.94,9.15,24.18,24.18,0,0,0,3,7.88,16.47,16.47,0,0,0,5.54,5.48A17.81,17.81,0,0,0,711.95,592.13Z"/><path d="M763.43,589.58q4.61,4.65,13.25,4.65A17.71,17.71,0,0,0,787.33,591q4.46-3.22,5.47-6.83h18q-4.32,13.95-13.25,20t-21.6,6a41,41,0,0,1-15.84-2.92,32.87,32.87,0,0,1-12-8.33A37.73,37.73,0,0,1,740.6,586a49,49,0,0,1-2.66-16.5,46.91,46.91,0,0,1,2.74-16.2,38.24,38.24,0,0,1,7.78-13,36.57,36.57,0,0,1,12-8.62A37.22,37.22,0,0,1,776,528.53a34.24,34.24,0,0,1,16.56,3.83,33.47,33.47,0,0,1,11.59,10.28,43.08,43.08,0,0,1,6.55,14.7,57,57,0,0,1,1.44,17.25H758.39Q758.82,584.93,763.43,589.58Zm23.11-40.8q-3.67-4.2-11.16-4.2a17.2,17.2,0,0,0-8.14,1.72,15.63,15.63,0,0,0-5.18,4.28,15.9,15.9,0,0,0-2.74,5.4,25.26,25.26,0,0,0-.94,5.1h33.26Q790.21,553,786.54,548.78Z"/><path d="M880.35,530.63v14.25h-15v38.4q0,5.4,1.73,7.2t6.91,1.8q1.73,0,3.31-.15a27,27,0,0,0,3-.45v16.5a47,47,0,0,1-5.76.6q-3.17.15-6.19,0.15a57.32,57.32,0,0,1-9-.67,20.64,20.64,0,0,1-7.49-2.62,13.65,13.65,0,0,1-5.11-5.55,20.5,20.5,0,0,1-1.87-9.45V544.88H832.54V530.63h12.38V507.38h20.45v23.25h15Z"/><path d="M905.26,631.28q-5.91,4.05-16.42,4.05-3.17,0-6.26-.23t-6.26-.52V617l5.9,0.6a41,41,0,0,0,6,.15,7.87,7.87,0,0,0,6-3.3,10.94,10.94,0,0,0,1.94-6.3,13.27,13.27,0,0,0-.86-4.8l-26.06-72.75H891l16.85,53.1h0.29l16.27-53.1h21.17l-31.1,87.15Q911.16,627.23,905.26,631.28Z"/><path d="M959.55,530.63v9.9h0.29a22.86,22.86,0,0,1,9.5-9.15A28.2,28.2,0,0,1,982,528.53,31.2,31.2,0,0,1,997.13,532a31.6,31.6,0,0,1,10.51,9.15,39.39,39.39,0,0,1,6.19,13.27,61.3,61.3,0,0,1,2,15.83,55.37,55.37,0,0,1-2,15,38.84,38.84,0,0,1-6.12,12.75,30.63,30.63,0,0,1-10.22,8.85,29.77,29.77,0,0,1-14.33,3.3,28,28,0,0,1-12.74-2.92,24.43,24.43,0,0,1-9.58-8.62h-0.29v36.75H940.11V530.63h19.44Zm26.57,61.5a16.73,16.73,0,0,0,5.47-5.48,23.14,23.14,0,0,0,3-7.87,48.39,48.39,0,0,0,.86-9.15,44.89,44.89,0,0,0-.94-9.15,25,25,0,0,0-3.1-8,17.64,17.64,0,0,0-5.54-5.7,15,15,0,0,0-8.28-2.17,15.29,15.29,0,0,0-8.42,2.17,17.15,17.15,0,0,0-5.47,5.63,23.94,23.94,0,0,0-3,8,49.21,49.21,0,0,0-.86,9.3,44.66,44.66,0,0,0,.94,9.15,24.18,24.18,0,0,0,3,7.88,16.47,16.47,0,0,0,5.54,5.48A17.81,17.81,0,0,0,986.12,592.13Z"/><path d="M1037.6,589.58q4.61,4.65,13.25,4.65A17.71,17.71,0,0,0,1061.5,591q4.46-3.22,5.47-6.83h18q-4.32,13.95-13.25,20t-21.6,6a41,41,0,0,1-15.84-2.92,32.87,32.87,0,0,1-12-8.33,37.73,37.73,0,0,1-7.56-12.9,49,49,0,0,1-2.66-16.5,46.91,46.91,0,0,1,2.74-16.2,38.24,38.24,0,0,1,7.78-13,36.57,36.57,0,0,1,12-8.62,37.22,37.22,0,0,1,15.48-3.15,34.24,34.24,0,0,1,16.56,3.83,33.47,33.47,0,0,1,11.59,10.28,43.08,43.08,0,0,1,6.55,14.7,57,57,0,0,1,1.44,17.25h-53.71Q1033,584.93,1037.6,589.58Zm23.11-40.8q-3.67-4.2-11.16-4.2a17.2,17.2,0,0,0-8.14,1.72,15.63,15.63,0,0,0-5.18,4.28,15.9,15.9,0,0,0-2.74,5.4,25.26,25.26,0,0,0-.94,5.1h33.26Q1064.38,553,1060.71,548.78Z"/><path d="M1109.45,585.08v23.1h-22.61v-23.1h22.61Z"/><path d="M1160.72,581.78a16.83,16.83,0,0,0,5,6.08,21.07,21.07,0,0,0,7.27,3.45,33.06,33.06,0,0,0,8.64,1.13,43.07,43.07,0,0,0,6.48-.53,21.81,21.81,0,0,0,6.48-2,14.22,14.22,0,0,0,5-4.12,10.64,10.64,0,0,0,2-6.67,9.61,9.61,0,0,0-2.66-7.05,21,21,0,0,0-7-4.5,67.72,67.72,0,0,0-9.79-3.15q-5.47-1.35-11.09-3a95.31,95.31,0,0,1-11.23-3.67,38.11,38.11,0,0,1-9.79-5.62,26.25,26.25,0,0,1-7-8.62,27.08,27.08,0,0,1-2.66-12.53,29,29,0,0,1,3.38-14.33,31.48,31.48,0,0,1,8.86-10.13,37.91,37.91,0,0,1,12.38-6,50.79,50.79,0,0,1,13.82-2,63,63,0,0,1,15.48,1.88,38,38,0,0,1,13.18,6.08,30.38,30.38,0,0,1,9.14,10.73A34,34,0,0,1,1220,533h-21.89a19.6,19.6,0,0,0-1.94-7.95,13.07,13.07,0,0,0-4.39-5,18.17,18.17,0,0,0-6.26-2.55,37.09,37.09,0,0,0-7.7-.75,25.56,25.56,0,0,0-5.47.6,14.35,14.35,0,0,0-5,2.1,12.74,12.74,0,0,0-3.67,3.75,10.39,10.39,0,0,0-1.44,5.7,9.93,9.93,0,0,0,1.15,5.1,10.34,10.34,0,0,0,4.54,3.6,56,56,0,0,0,9.36,3.3q6,1.65,15.62,4.2,2.88,0.6,8,2.17a37.69,37.69,0,0,1,10.15,5,31.41,31.41,0,0,1,8.71,9.22q3.67,5.78,3.67,14.78a33.9,33.9,0,0,1-2.74,13.65,29.52,29.52,0,0,1-8.14,10.88,38.54,38.54,0,0,1-13.39,7.13,61,61,0,0,1-18.5,2.55,62.53,62.53,0,0,1-16.49-2.18,40.69,40.69,0,0,1-14.11-6.82,33.34,33.34,0,0,1-9.72-11.85,36.6,36.6,0,0,1-3.46-17.1h21.89A20.31,20.31,0,0,0,1160.72,581.78Z"/><path d="M1242.79,501.08v40.35h0.43a24.11,24.11,0,0,1,9.94-9.83,26,26,0,0,1,11.81-3.08q8.21,0,13.46,2.33a20.09,20.09,0,0,1,8.28,6.45,25.5,25.5,0,0,1,4.25,10,65.15,65.15,0,0,1,1.22,13.13v47.7h-20.45v-43.8q0-9.6-2.88-14.33t-10.22-4.72q-8.35,0-12.1,5.17t-3.74,17v40.65h-20.45V501.08h20.45Z"/><path d="M1295.78,552.61a36.52,36.52,0,0,1,7.78-12.9,34.73,34.73,0,0,1,12.1-8.25,41,41,0,0,1,15.84-2.93,41.56,41.56,0,0,1,15.91,2.93,34.62,34.62,0,0,1,12.17,8.25,36.61,36.61,0,0,1,7.78,12.9,49.44,49.44,0,0,1,2.74,16.88,48.78,48.78,0,0,1-2.74,16.8,36.67,36.67,0,0,1-7.78,12.83,33.76,33.76,0,0,1-12.17,8.17,42.56,42.56,0,0,1-15.91,2.85,42,42,0,0,1-15.84-2.85,33.86,33.86,0,0,1-12.1-8.17,36.58,36.58,0,0,1-7.78-12.83,48.71,48.71,0,0,1-2.74-16.8A49.37,49.37,0,0,1,1295.78,552.61Zm18.58,26a24.73,24.73,0,0,0,3,8,16,16,0,0,0,5.54,5.63,16.37,16.37,0,0,0,8.64,2.1,16.76,16.76,0,0,0,8.71-2.1,15.85,15.85,0,0,0,5.62-5.62,24.8,24.8,0,0,0,3-8,47.22,47.22,0,0,0,.86-9.08,48.41,48.41,0,0,0-.86-9.15,24,24,0,0,0-3-8,16.71,16.71,0,0,0-5.62-5.62,16.33,16.33,0,0,0-8.71-2.17,16,16,0,0,0-8.64,2.17,16.9,16.9,0,0,0-5.54,5.63,23.92,23.92,0,0,0-3,8,48.41,48.41,0,0,0-.86,9.15A47.22,47.22,0,0,0,1314.36,578.56Z"/><path d="M1390.39,530.63v9.9h0.29a22.86,22.86,0,0,1,9.5-9.15,28.2,28.2,0,0,1,12.67-2.85A31.2,31.2,0,0,1,1428,532a31.6,31.6,0,0,1,10.51,9.15,39.39,39.39,0,0,1,6.19,13.27,61.3,61.3,0,0,1,2,15.83,55.37,55.37,0,0,1-2,15,38.84,38.84,0,0,1-6.12,12.75,30.63,30.63,0,0,1-10.22,8.85,29.77,29.77,0,0,1-14.33,3.3,28,28,0,0,1-12.74-2.92,24.43,24.43,0,0,1-9.58-8.62h-0.29v36.75H1371V530.63h19.44Zm26.57,61.5a16.73,16.73,0,0,0,5.47-5.48,23.14,23.14,0,0,0,3-7.87,48.39,48.39,0,0,0,.86-9.15,44.89,44.89,0,0,0-.94-9.15,25,25,0,0,0-3.1-8,17.64,17.64,0,0,0-5.54-5.7,15,15,0,0,0-8.28-2.17,15.29,15.29,0,0,0-8.42,2.17,17.15,17.15,0,0,0-5.47,5.63,23.94,23.94,0,0,0-3,8,49.21,49.21,0,0,0-.86,9.3,44.66,44.66,0,0,0,.94,9.15,24.18,24.18,0,0,0,3,7.88,16.47,16.47,0,0,0,5.54,5.48A17.81,17.81,0,0,0,1417,592.13Z"/><path d="M-12,626.93v-7.5H1438.77v7.5H-12Z"/><path d="M15.22,821.78a16.83,16.83,0,0,0,5,6.08,21.07,21.07,0,0,0,7.27,3.45,33.06,33.06,0,0,0,8.64,1.13,43.07,43.07,0,0,0,6.48-.53,21.81,21.81,0,0,0,6.48-2,14.22,14.22,0,0,0,5-4.12,10.64,10.64,0,0,0,2-6.67A9.61,9.61,0,0,0,53.45,812a21,21,0,0,0-7-4.5,67.72,67.72,0,0,0-9.79-3.15q-5.47-1.35-11.09-3a95.31,95.31,0,0,1-11.23-3.67,38.11,38.11,0,0,1-9.79-5.62,26.25,26.25,0,0,1-7-8.62,27.08,27.08,0,0,1-2.66-12.53A29,29,0,0,1-1.7,756.61a31.48,31.48,0,0,1,8.86-10.12,37.91,37.91,0,0,1,12.38-6,50.79,50.79,0,0,1,13.82-2,63,63,0,0,1,15.48,1.88A38,38,0,0,1,62,746.48a30.38,30.38,0,0,1,9.14,10.73A34,34,0,0,1,74.54,773H52.66a19.6,19.6,0,0,0-1.94-7.95,13.07,13.07,0,0,0-4.39-5,18.17,18.17,0,0,0-6.26-2.55,37.09,37.09,0,0,0-7.7-.75,25.56,25.56,0,0,0-5.47.6,14.35,14.35,0,0,0-5,2.1,12.74,12.74,0,0,0-3.67,3.75A10.39,10.39,0,0,0,16.8,769a9.93,9.93,0,0,0,1.15,5.1,10.34,10.34,0,0,0,4.54,3.6,56,56,0,0,0,9.36,3.3q6,1.65,15.62,4.2,2.88,0.6,8,2.17a37.69,37.69,0,0,1,10.15,5,31.41,31.41,0,0,1,8.71,9.22Q78,807.38,78,816.38A33.9,33.9,0,0,1,75.26,830a29.52,29.52,0,0,1-8.14,10.88A38.54,38.54,0,0,1,53.74,848a61,61,0,0,1-18.5,2.55,62.53,62.53,0,0,1-16.49-2.18,40.69,40.69,0,0,1-14.11-6.82,33.34,33.34,0,0,1-9.72-11.85,36.6,36.6,0,0,1-3.46-17.1H13.34A20.31,20.31,0,0,0,15.22,821.78Z"/><path d="M97.29,741.08v40.35h0.43a24.11,24.11,0,0,1,9.94-9.83,26,26,0,0,1,11.81-3.08q8.21,0,13.46,2.33a20.09,20.09,0,0,1,8.28,6.45,25.5,25.5,0,0,1,4.25,10,65.15,65.15,0,0,1,1.22,13.13v47.7H126.24v-43.8q0-9.6-2.88-14.33t-10.22-4.72q-8.35,0-12.1,5.17t-3.74,17v40.65H76.85V741.08H97.29Z"/><path d="M150.28,792.61a36.52,36.52,0,0,1,7.78-12.9,34.73,34.73,0,0,1,12.1-8.25A41,41,0,0,1,186,768.53a41.56,41.56,0,0,1,15.91,2.93,34.62,34.62,0,0,1,12.17,8.25,36.61,36.61,0,0,1,7.78,12.9,49.44,49.44,0,0,1,2.74,16.88,48.78,48.78,0,0,1-2.74,16.8,36.67,36.67,0,0,1-7.78,12.83,33.76,33.76,0,0,1-12.17,8.17A42.56,42.56,0,0,1,186,850.13a42,42,0,0,1-15.84-2.85,33.86,33.86,0,0,1-12.1-8.17,36.58,36.58,0,0,1-7.78-12.83,48.71,48.71,0,0,1-2.74-16.8A49.37,49.37,0,0,1,150.28,792.61Zm18.58,26a24.73,24.73,0,0,0,3,8,16,16,0,0,0,5.54,5.63,16.37,16.37,0,0,0,8.64,2.1,16.76,16.76,0,0,0,8.71-2.1,15.85,15.85,0,0,0,5.62-5.62,24.8,24.8,0,0,0,3-8,47.22,47.22,0,0,0,.86-9.08,48.41,48.41,0,0,0-.86-9.15,24,24,0,0,0-3-8,16.71,16.71,0,0,0-5.62-5.62,16.33,16.33,0,0,0-8.71-2.17,16,16,0,0,0-8.64,2.17,16.9,16.9,0,0,0-5.54,5.63,23.92,23.92,0,0,0-3,8,48.41,48.41,0,0,0-.86,9.15A47.22,47.22,0,0,0,168.86,818.56Z"/><path d="M244.89,770.63v9.9h0.29a22.86,22.86,0,0,1,9.5-9.15,28.2,28.2,0,0,1,12.67-2.85A31.2,31.2,0,0,1,282.47,772,31.6,31.6,0,0,1,293,781.13a39.39,39.39,0,0,1,6.19,13.27,61.3,61.3,0,0,1,2,15.83,55.37,55.37,0,0,1-2,15A38.84,38.84,0,0,1,293.06,838a30.63,30.63,0,0,1-10.22,8.85,29.77,29.77,0,0,1-14.33,3.3,28,28,0,0,1-12.74-2.92,24.43,24.43,0,0,1-9.58-8.62H245.9v36.75H225.45V770.63h19.44Zm26.57,61.5a16.73,16.73,0,0,0,5.47-5.48,23.14,23.14,0,0,0,3-7.87,48.39,48.39,0,0,0,.86-9.15,44.89,44.89,0,0,0-.94-9.15,25,25,0,0,0-3.1-8,17.64,17.64,0,0,0-5.54-5.7,15,15,0,0,0-8.28-2.17,15.29,15.29,0,0,0-8.42,2.17,17.15,17.15,0,0,0-5.47,5.63,23.94,23.94,0,0,0-3,8,49.21,49.21,0,0,0-.86,9.3,44.66,44.66,0,0,0,.94,9.15,24.18,24.18,0,0,0,3,7.88,16.47,16.47,0,0,0,5.54,5.48A17.81,17.81,0,0,0,271.46,832.13Z"/><path d="M349.15,741.08v39h0.29a22.06,22.06,0,0,1,10.15-8.78,33.18,33.18,0,0,1,13.32-2.78,27.4,27.4,0,0,1,11.09,2.4,28.46,28.46,0,0,1,9.86,7.35A38,38,0,0,1,401,791a63.09,63.09,0,0,1,0,36.75,38,38,0,0,1-7.13,12.67,28.44,28.44,0,0,1-9.86,7.35,27.4,27.4,0,0,1-11.09,2.4,37.89,37.89,0,0,1-14.69-2.7,18.92,18.92,0,0,1-9.79-9.15h-0.29v9.9H328.7V741.08h20.45ZM382.27,800a25.27,25.27,0,0,0-3.17-7.95,16.94,16.94,0,0,0-5.4-5.48,16.08,16.08,0,0,0-15.62,0,16.66,16.66,0,0,0-5.47,5.48,25.25,25.25,0,0,0-3.17,7.95,43.08,43.08,0,0,0-1,9.45,42.35,42.35,0,0,0,1,9.3,25.24,25.24,0,0,0,3.17,8,16.65,16.65,0,0,0,5.47,5.48,16.08,16.08,0,0,0,15.62,0,16.92,16.92,0,0,0,5.4-5.48,25.26,25.26,0,0,0,3.17-8,42.47,42.47,0,0,0,1-9.3A43.19,43.19,0,0,0,382.27,800Z"/><path d="M431.8,871.28q-5.91,4.05-16.42,4.05-3.17,0-6.26-.23t-6.26-.52V857l5.9,0.6a41,41,0,0,0,6,.15,7.87,7.87,0,0,0,6-3.3,10.94,10.94,0,0,0,1.94-6.3,13.27,13.27,0,0,0-.86-4.8L395.8,770.63h21.74l16.85,53.1h0.29L451,770.63h21.17L441,857.78Q437.7,867.23,431.8,871.28Z"/><path d="M511.5,828.91A12.29,12.29,0,0,0,515,833a14.83,14.83,0,0,0,5,2.32,22.41,22.41,0,0,0,5.83.75,20.93,20.93,0,0,0,4.54-.52,15,15,0,0,0,4.32-1.65,10,10,0,0,0,3.24-3,8.11,8.11,0,0,0,1.3-4.72q0-4.8-6.12-7.2a118.73,118.73,0,0,0-17.06-4.8q-4.46-1-8.71-2.48a29.17,29.17,0,0,1-7.56-3.75,17.9,17.9,0,0,1-5.33-5.85,17.1,17.1,0,0,1-2-8.62q0-7.5,2.81-12.3a21.13,21.13,0,0,1,7.42-7.58,31.69,31.69,0,0,1,10.37-3.9,61.45,61.45,0,0,1,11.81-1.12,56.8,56.8,0,0,1,11.74,1.2,30.4,30.4,0,0,1,10.15,4,23.84,23.84,0,0,1,7.42,7.58,26.24,26.24,0,0,1,3.53,11.92H538.22q-0.43-6.15-4.46-8.32a19.75,19.75,0,0,0-9.5-2.18,33.79,33.79,0,0,0-3.74.23,12.09,12.09,0,0,0-3.67,1,7.61,7.61,0,0,0-2.81,2.17,6.6,6.6,0,0,0,.86,8.48,15.34,15.34,0,0,0,5.26,2.92,63.66,63.66,0,0,0,7.42,2q4.17,0.9,8.5,1.95a84.41,84.41,0,0,1,8.71,2.55,28.27,28.27,0,0,1,7.56,4,19,19,0,0,1,5.33,6.15,18.67,18.67,0,0,1,2,9.07,25.58,25.58,0,0,1-3,12.83,24.19,24.19,0,0,1-7.7,8.33,30.84,30.84,0,0,1-10.87,4.42,61,61,0,0,1-12.46,1.28A59.27,59.27,0,0,1,513,848.78a32.63,32.63,0,0,1-11-4.5,25.24,25.24,0,0,1-7.92-8.32,26.88,26.88,0,0,1-3.38-13h19.44A12,12,0,0,0,511.5,828.91Z"/><path d="M600.13,770.63v14.25h-15v38.4q0,5.4,1.73,7.2t6.91,1.8q1.73,0,3.31-.15a27,27,0,0,0,3-.45v16.5a47,47,0,0,1-5.76.6q-3.17.15-6.19,0.15a57.32,57.32,0,0,1-9-.67,20.64,20.64,0,0,1-7.49-2.62,13.65,13.65,0,0,1-5.11-5.55,20.5,20.5,0,0,1-1.87-9.45V784.88H552.33V770.63h12.38V747.38h20.45v23.25h15Z"/><path d="M617,770.63V785h0.29a26.39,26.39,0,0,1,3.89-6.67,25.93,25.93,0,0,1,5.62-5.25,27,27,0,0,1,6.77-3.37,23.54,23.54,0,0,1,7.49-1.2,15.4,15.4,0,0,1,4.46.75v19.8q-1.44-.3-3.46-0.53a35,35,0,0,0-3.89-.22,21.07,21.07,0,0,0-9.5,1.95,16.63,16.63,0,0,0-6.26,5.33,21.75,21.75,0,0,0-3.38,7.88,44.53,44.53,0,0,0-1,9.75v35H597.54V770.63H617Z"/><path d="M641.75,758.63V741.08H662.2v17.55H641.75Zm20.45,12v77.55H641.75V770.63H662.2Z"/><path d="M685.38,770.63v9.9h0.29a22.86,22.86,0,0,1,9.5-9.15,28.2,28.2,0,0,1,12.67-2.85A31.2,31.2,0,0,1,723,772a31.6,31.6,0,0,1,10.51,9.15,39.39,39.39,0,0,1,6.19,13.27,61.3,61.3,0,0,1,2,15.83,55.37,55.37,0,0,1-2,15A38.84,38.84,0,0,1,733.55,838a30.63,30.63,0,0,1-10.22,8.85,29.77,29.77,0,0,1-14.33,3.3,28,28,0,0,1-12.74-2.92,24.43,24.43,0,0,1-9.58-8.62h-0.29v36.75H665.94V770.63h19.44Zm26.57,61.5a16.73,16.73,0,0,0,5.47-5.48,23.14,23.14,0,0,0,3-7.87,48.39,48.39,0,0,0,.86-9.15,44.89,44.89,0,0,0-.94-9.15,25,25,0,0,0-3.1-8,17.64,17.64,0,0,0-5.54-5.7,15,15,0,0,0-8.28-2.17,15.29,15.29,0,0,0-8.42,2.17,17.15,17.15,0,0,0-5.47,5.63,23.94,23.94,0,0,0-3,8,49.21,49.21,0,0,0-.86,9.3,44.66,44.66,0,0,0,.94,9.15,24.18,24.18,0,0,0,3,7.88,16.47,16.47,0,0,0,5.54,5.48A17.81,17.81,0,0,0,711.95,832.13Z"/><path d="M763.43,829.58q4.61,4.65,13.25,4.65A17.71,17.71,0,0,0,787.33,831q4.46-3.22,5.47-6.83h18q-4.32,13.95-13.25,20t-21.6,6a41,41,0,0,1-15.84-2.92,32.87,32.87,0,0,1-12-8.33A37.73,37.73,0,0,1,740.6,826a49,49,0,0,1-2.66-16.5,46.91,46.91,0,0,1,2.74-16.2,38.24,38.24,0,0,1,7.78-13,36.57,36.57,0,0,1,12-8.62A37.22,37.22,0,0,1,776,768.53a34.24,34.24,0,0,1,16.56,3.83,33.47,33.47,0,0,1,11.59,10.28,43.08,43.08,0,0,1,6.55,14.7,57,57,0,0,1,1.44,17.25H758.39Q758.82,824.93,763.43,829.58Zm23.11-40.8q-3.67-4.2-11.16-4.2a17.2,17.2,0,0,0-8.14,1.72,15.63,15.63,0,0,0-5.18,4.28,15.9,15.9,0,0,0-2.74,5.4,25.26,25.26,0,0,0-.94,5.1h33.26Q790.21,793,786.54,788.78Z"/><path d="M880.35,770.63v14.25h-15v38.4q0,5.4,1.73,7.2t6.91,1.8q1.73,0,3.31-.15a27,27,0,0,0,3-.45v16.5a47,47,0,0,1-5.76.6q-3.17.15-6.19,0.15a57.32,57.32,0,0,1-9-.67,20.64,20.64,0,0,1-7.49-2.62,13.65,13.65,0,0,1-5.11-5.55,20.5,20.5,0,0,1-1.87-9.45V784.88H832.54V770.63h12.38V747.38h20.45v23.25h15Z"/><path d="M905.26,871.28q-5.91,4.05-16.42,4.05-3.17,0-6.26-.23t-6.26-.52V857l5.9,0.6a41,41,0,0,0,6,.15,7.87,7.87,0,0,0,6-3.3,10.94,10.94,0,0,0,1.94-6.3,13.27,13.27,0,0,0-.86-4.8l-26.06-72.75H891l16.85,53.1h0.29l16.27-53.1h21.17l-31.1,87.15Q911.16,867.23,905.26,871.28Z"/><path d="M959.55,770.63v9.9h0.29a22.86,22.86,0,0,1,9.5-9.15A28.2,28.2,0,0,1,982,768.53,31.2,31.2,0,0,1,997.13,772a31.6,31.6,0,0,1,10.51,9.15,39.39,39.39,0,0,1,6.19,13.27,61.3,61.3,0,0,1,2,15.83,55.37,55.37,0,0,1-2,15,38.84,38.84,0,0,1-6.12,12.75,30.63,30.63,0,0,1-10.22,8.85,29.77,29.77,0,0,1-14.33,3.3,28,28,0,0,1-12.74-2.92,24.43,24.43,0,0,1-9.58-8.62h-0.29v36.75H940.11V770.63h19.44Zm26.57,61.5a16.73,16.73,0,0,0,5.47-5.48,23.14,23.14,0,0,0,3-7.87,48.39,48.39,0,0,0,.86-9.15,44.89,44.89,0,0,0-.94-9.15,25,25,0,0,0-3.1-8,17.64,17.64,0,0,0-5.54-5.7,15,15,0,0,0-8.28-2.17,15.29,15.29,0,0,0-8.42,2.17,17.15,17.15,0,0,0-5.47,5.63,23.94,23.94,0,0,0-3,8,49.21,49.21,0,0,0-.86,9.3,44.66,44.66,0,0,0,.94,9.15,24.18,24.18,0,0,0,3,7.88,16.47,16.47,0,0,0,5.54,5.48A17.81,17.81,0,0,0,986.12,832.13Z"/><path d="M1037.6,829.58q4.61,4.65,13.25,4.65A17.71,17.71,0,0,0,1061.5,831q4.46-3.22,5.47-6.83h18q-4.32,13.95-13.25,20t-21.6,6a41,41,0,0,1-15.84-2.92,32.87,32.87,0,0,1-12-8.33,37.73,37.73,0,0,1-7.56-12.9,49,49,0,0,1-2.66-16.5,46.91,46.91,0,0,1,2.74-16.2,38.24,38.24,0,0,1,7.78-13,36.57,36.57,0,0,1,12-8.62,37.22,37.22,0,0,1,15.48-3.15,34.24,34.24,0,0,1,16.56,3.83,33.47,33.47,0,0,1,11.59,10.28,43.08,43.08,0,0,1,6.55,14.7,57,57,0,0,1,1.44,17.25h-53.71Q1033,824.93,1037.6,829.58Zm23.11-40.8q-3.67-4.2-11.16-4.2a17.2,17.2,0,0,0-8.14,1.72,15.63,15.63,0,0,0-5.18,4.28,15.9,15.9,0,0,0-2.74,5.4,25.26,25.26,0,0,0-.94,5.1h33.26Q1064.38,793,1060.71,788.78Z"/><path d="M1109.45,825.08v23.1h-22.61v-23.1h22.61Z"/><path d="M1160.72,821.78a16.83,16.83,0,0,0,5,6.08,21.07,21.07,0,0,0,7.27,3.45,33.06,33.06,0,0,0,8.64,1.13,43.07,43.07,0,0,0,6.48-.53,21.81,21.81,0,0,0,6.48-2,14.22,14.22,0,0,0,5-4.12,10.64,10.64,0,0,0,2-6.67,9.61,9.61,0,0,0-2.66-7.05,21,21,0,0,0-7-4.5,67.72,67.72,0,0,0-9.79-3.15q-5.47-1.35-11.09-3a95.31,95.31,0,0,1-11.23-3.67,38.11,38.11,0,0,1-9.79-5.62,26.25,26.25,0,0,1-7-8.62,27.08,27.08,0,0,1-2.66-12.53,29,29,0,0,1,3.38-14.33,31.48,31.48,0,0,1,8.86-10.12,37.91,37.91,0,0,1,12.38-6,50.79,50.79,0,0,1,13.82-2,63,63,0,0,1,15.48,1.88,38,38,0,0,1,13.18,6.08,30.38,30.38,0,0,1,9.14,10.73A34,34,0,0,1,1220,773h-21.89a19.6,19.6,0,0,0-1.94-7.95,13.07,13.07,0,0,0-4.39-5,18.17,18.17,0,0,0-6.26-2.55,37.09,37.09,0,0,0-7.7-.75,25.56,25.56,0,0,0-5.47.6,14.35,14.35,0,0,0-5,2.1,12.74,12.74,0,0,0-3.67,3.75,10.39,10.39,0,0,0-1.44,5.7,9.93,9.93,0,0,0,1.15,5.1,10.34,10.34,0,0,0,4.54,3.6,56,56,0,0,0,9.36,3.3q6,1.65,15.62,4.2,2.88,0.6,8,2.17a37.69,37.69,0,0,1,10.15,5,31.41,31.41,0,0,1,8.71,9.22q3.67,5.78,3.67,14.78a33.9,33.9,0,0,1-2.74,13.65,29.52,29.52,0,0,1-8.14,10.88,38.54,38.54,0,0,1-13.39,7.13,61,61,0,0,1-18.5,2.55,62.53,62.53,0,0,1-16.49-2.18,40.69,40.69,0,0,1-14.11-6.82,33.34,33.34,0,0,1-9.72-11.85,36.6,36.6,0,0,1-3.46-17.1h21.89A20.31,20.31,0,0,0,1160.72,821.78Z"/><path d="M1242.79,741.08v40.35h0.43a24.11,24.11,0,0,1,9.94-9.83,26,26,0,0,1,11.81-3.08q8.21,0,13.46,2.33a20.09,20.09,0,0,1,8.28,6.45,25.5,25.5,0,0,1,4.25,10,65.15,65.15,0,0,1,1.22,13.13v47.7h-20.45v-43.8q0-9.6-2.88-14.33t-10.22-4.72q-8.35,0-12.1,5.17t-3.74,17v40.65h-20.45V741.08h20.45Z"/><path d="M1295.78,792.61a36.52,36.52,0,0,1,7.78-12.9,34.73,34.73,0,0,1,12.1-8.25,41,41,0,0,1,15.84-2.93,41.56,41.56,0,0,1,15.91,2.93,34.62,34.62,0,0,1,12.17,8.25,36.61,36.61,0,0,1,7.78,12.9,49.44,49.44,0,0,1,2.74,16.88,48.78,48.78,0,0,1-2.74,16.8,36.67,36.67,0,0,1-7.78,12.83,33.76,33.76,0,0,1-12.17,8.17,42.56,42.56,0,0,1-15.91,2.85,42,42,0,0,1-15.84-2.85,33.86,33.86,0,0,1-12.1-8.17,36.58,36.58,0,0,1-7.78-12.83,48.71,48.71,0,0,1-2.74-16.8A49.37,49.37,0,0,1,1295.78,792.61Zm18.58,26a24.73,24.73,0,0,0,3,8,16,16,0,0,0,5.54,5.63,16.37,16.37,0,0,0,8.64,2.1,16.76,16.76,0,0,0,8.71-2.1,15.85,15.85,0,0,0,5.62-5.62,24.8,24.8,0,0,0,3-8,47.22,47.22,0,0,0,.86-9.08,48.41,48.41,0,0,0-.86-9.15,24,24,0,0,0-3-8,16.71,16.71,0,0,0-5.62-5.62,16.33,16.33,0,0,0-8.71-2.17,16,16,0,0,0-8.64,2.17,16.9,16.9,0,0,0-5.54,5.63,23.92,23.92,0,0,0-3,8,48.41,48.41,0,0,0-.86,9.15A47.22,47.22,0,0,0,1314.36,818.56Z"/><path d="M1390.39,770.63v9.9h0.29a22.86,22.86,0,0,1,9.5-9.15,28.2,28.2,0,0,1,12.67-2.85A31.2,31.2,0,0,1,1428,772a31.6,31.6,0,0,1,10.51,9.15,39.39,39.39,0,0,1,6.19,13.27,61.3,61.3,0,0,1,2,15.83,55.37,55.37,0,0,1-2,15,38.84,38.84,0,0,1-6.12,12.75,30.63,30.63,0,0,1-10.22,8.85,29.77,29.77,0,0,1-14.33,3.3,28,28,0,0,1-12.74-2.92,24.43,24.43,0,0,1-9.58-8.62h-0.29v36.75H1371V770.63h19.44Zm26.57,61.5a16.73,16.73,0,0,0,5.47-5.48,23.14,23.14,0,0,0,3-7.87,48.39,48.39,0,0,0,.86-9.15,44.89,44.89,0,0,0-.94-9.15,25,25,0,0,0-3.1-8,17.64,17.64,0,0,0-5.54-5.7,15,15,0,0,0-8.28-2.17,15.29,15.29,0,0,0-8.42,2.17,17.15,17.15,0,0,0-5.47,5.63,23.94,23.94,0,0,0-3,8,49.21,49.21,0,0,0-.86,9.3,44.66,44.66,0,0,0,.94,9.15,24.18,24.18,0,0,0,3,7.88,16.47,16.47,0,0,0,5.54,5.48A17.81,17.81,0,0,0,1417,832.13Z"/><path d="M-12,866.93v-7.5H1438.77v7.5H-12Z"/></svg>