<svg id="text" xmlns="http://www.w3.org/2000/svg" viewBox="0 0 1425 556">
  <title>homepage_texts</title>
  <g>
    <path d="M17.82,12.1L60.73,83.95H61V12.1H82.19V119.2H59.58L16.81,47.5H16.52v71.7H-4.64V12.1H17.82Z"/>
    <path d="M109.4,100.6q4.61,4.65,13.25,4.65A17.7,17.7,0,0,0,133.31,102q4.46-3.22,5.47-6.83h18q-4.32,13.95-13.25,20t-21.6,6a41,41,0,0,1-15.84-2.93,32.87,32.87,0,0,1-12-8.32A37.73,37.73,0,0,1,86.58,97a49,49,0,0,1-2.66-16.5,46.91,46.91,0,0,1,2.74-16.2,38.25,38.25,0,0,1,7.78-13,36.59,36.59,0,0,1,12-8.62,37.22,37.22,0,0,1,15.48-3.15,34.24,34.24,0,0,1,16.56,3.82,33.48,33.48,0,0,1,11.59,10.28,43.09,43.09,0,0,1,6.55,14.7,57,57,0,0,1,1.44,17.25H104.36Q104.8,95.95,109.4,100.6Zm23.11-40.8q-3.67-4.2-11.16-4.2a17.2,17.2,0,0,0-8.14,1.73A15.64,15.64,0,0,0,108,61.6,15.89,15.89,0,0,0,105.3,67a25.21,25.21,0,0,0-.94,5.1h33.26Q136.19,64,132.51,59.8Z"/>
    <path d="M221.87,119.2l-13.25-52h-0.29l-12.67,52H174.49L150.87,41.65h21.6L186.15,94.3h0.29l12.38-52.65H218.7l12.67,52.5h0.29l13.68-52.5h21L242.89,119.2h-21Z"/>
    <path d="M286.23,96.1v23.1H263.62V96.1h22.61Zm-6.34-9H269.67L264.2,40.9V12.1h21.31V40.9Z"/>
    <path d="M337.35,92.8a16.82,16.82,0,0,0,5,6.07,21.06,21.06,0,0,0,7.27,3.45,33.06,33.06,0,0,0,8.64,1.13,43.07,43.07,0,0,0,6.48-.52,21.84,21.84,0,0,0,6.48-2,14.23,14.23,0,0,0,5-4.12,10.64,10.64,0,0,0,2-6.68,9.61,9.61,0,0,0-2.66-7,21,21,0,0,0-7-4.5,67.67,67.67,0,0,0-9.79-3.15q-5.47-1.35-11.09-3a95.11,95.11,0,0,1-11.23-3.68,38,38,0,0,1-9.79-5.62,26.23,26.23,0,0,1-7-8.62A27.07,27.07,0,0,1,317,41.95a29,29,0,0,1,3.38-14.33,31.48,31.48,0,0,1,8.86-10.12,37.93,37.93,0,0,1,12.38-6A50.77,50.77,0,0,1,355.5,9.55,63,63,0,0,1,371,11.42a37.94,37.94,0,0,1,13.18,6.07,30.39,30.39,0,0,1,9.14,10.73A34,34,0,0,1,396.68,44H374.79a19.62,19.62,0,0,0-1.94-8,13.07,13.07,0,0,0-4.39-4.95,18.18,18.18,0,0,0-6.26-2.55,37.15,37.15,0,0,0-7.7-.75,25.56,25.56,0,0,0-5.47.6,14.34,14.34,0,0,0-5,2.1,12.73,12.73,0,0,0-3.67,3.75,10.39,10.39,0,0,0-1.44,5.7,9.93,9.93,0,0,0,1.15,5.1,10.34,10.34,0,0,0,4.54,3.6A56.09,56.09,0,0,0,354,52q6,1.65,15.62,4.2,2.88,0.6,8,2.17a37.71,37.71,0,0,1,10.15,5,31.41,31.41,0,0,1,8.71,9.22q3.67,5.78,3.67,14.78A33.92,33.92,0,0,1,397.4,101a29.52,29.52,0,0,1-8.14,10.88A38.55,38.55,0,0,1,375.87,119a61,61,0,0,1-18.5,2.55,62.57,62.57,0,0,1-16.49-2.17,40.69,40.69,0,0,1-14.11-6.83A33.33,33.33,0,0,1,317,100.75a36.59,36.59,0,0,1-3.46-17.1h21.89A20.32,20.32,0,0,0,337.35,92.8Z"/>
    <path d="M399.41,63.62a36.54,36.54,0,0,1,7.78-12.9,34.77,34.77,0,0,1,12.1-8.25,41,41,0,0,1,15.84-2.92A41.57,41.57,0,0,1,451,42.47a34.65,34.65,0,0,1,12.17,8.25A36.61,36.61,0,0,1,471,63.62a49.44,49.44,0,0,1,2.74,16.88A48.79,48.79,0,0,1,471,97.3a36.67,36.67,0,0,1-7.78,12.82A33.76,33.76,0,0,1,451,118.3a42.56,42.56,0,0,1-15.91,2.85,42,42,0,0,1-15.84-2.85,33.87,33.87,0,0,1-12.1-8.18,36.61,36.61,0,0,1-7.78-12.82,48.73,48.73,0,0,1-2.74-16.8A49.38,49.38,0,0,1,399.41,63.62Zm18.58,26a24.75,24.75,0,0,0,3,8,16,16,0,0,0,5.54,5.62,16.37,16.37,0,0,0,8.64,2.1,16.76,16.76,0,0,0,8.71-2.1,15.85,15.85,0,0,0,5.62-5.62,24.8,24.8,0,0,0,3-8,47.21,47.21,0,0,0,.86-9.08,48.42,48.42,0,0,0-.86-9.15,24,24,0,0,0-3-7.95,16.72,16.72,0,0,0-5.62-5.62,16.33,16.33,0,0,0-8.71-2.18,16,16,0,0,0-8.64,2.18,16.92,16.92,0,0,0-5.54,5.63,23.93,23.93,0,0,0-3,7.95,48.44,48.44,0,0,0-.86,9.15A47.23,47.23,0,0,0,418,89.57Z"/>
    <path d="M510.15,55.6a13.94,13.94,0,0,0-8.21,2.33,18.18,18.18,0,0,0-5.4,6,26.59,26.59,0,0,0-3,8.1,45.7,45.7,0,0,0-.86,8.77,43.79,43.79,0,0,0,.86,8.55,27.1,27.1,0,0,0,2.81,7.88,16.51,16.51,0,0,0,5.26,5.77,14,14,0,0,0,8.06,2.25q7.34,0,11.3-4.27t5-11.48h19.73q-2,15.45-11.52,23.55t-24.34,8.1a39.3,39.3,0,0,1-15.34-2.93A33.88,33.88,0,0,1,482.65,110,37.4,37.4,0,0,1,475,97.52a45,45,0,0,1-2.74-16,53.62,53.62,0,0,1,2.52-16.73,38,38,0,0,1,7.42-13.35,34,34,0,0,1,12-8.77,39.18,39.18,0,0,1,16.13-3.15A45,45,0,0,1,523,41.35,33.5,33.5,0,0,1,534,46.82,29,29,0,0,1,541.83,56a30.11,30.11,0,0,1,3.46,13h-20Q523.25,55.6,510.15,55.6Z"/>
    <path d="M567.17,12.1V69.55l25.78-27.9h24.19l-28.08,28.5,31.25,49H595.54L575.09,84.55l-7.92,7.95v26.7H546.72V12.1h20.45Z"/>
    <path d="M632.33,99.92a12.28,12.28,0,0,0,3.53,4,14.82,14.82,0,0,0,5,2.33,22.44,22.44,0,0,0,5.83.75,20.94,20.94,0,0,0,4.54-.52,15,15,0,0,0,4.32-1.65,9.94,9.94,0,0,0,3.24-3,8.12,8.12,0,0,0,1.3-4.72q0-4.8-6.12-7.2a118.76,118.76,0,0,0-17.06-4.8q-4.46-1-8.71-2.48a29.19,29.19,0,0,1-7.56-3.75,17.91,17.91,0,0,1-5.33-5.85,17.11,17.11,0,0,1-2-8.62q0-7.5,2.81-12.3a21.13,21.13,0,0,1,7.42-7.58,31.7,31.7,0,0,1,10.37-3.9,61.45,61.45,0,0,1,11.81-1.12,56.8,56.8,0,0,1,11.74,1.2,30.38,30.38,0,0,1,10.15,4.05A23.82,23.82,0,0,1,675,52.37a26.22,26.22,0,0,1,3.53,11.93H659q-0.43-6.15-4.46-8.33a19.75,19.75,0,0,0-9.5-2.17,33.8,33.8,0,0,0-3.74.23,12.1,12.1,0,0,0-3.67,1,7.62,7.62,0,0,0-2.81,2.18,6.6,6.6,0,0,0,.86,8.48A15.36,15.36,0,0,0,641,68.57a63.54,63.54,0,0,0,7.42,2q4.17,0.9,8.5,2a84.37,84.37,0,0,1,8.71,2.55,28.31,28.31,0,0,1,7.56,4,19,19,0,0,1,5.33,6.15,18.67,18.67,0,0,1,2,9.08,25.57,25.57,0,0,1-3,12.82,24.2,24.2,0,0,1-7.7,8.33A30.82,30.82,0,0,1,659,119.87a61,61,0,0,1-12.46,1.28,59.31,59.31,0,0,1-12.67-1.35,32.66,32.66,0,0,1-11-4.5,25.24,25.24,0,0,1-7.92-8.33,26.87,26.87,0,0,1-3.38-13H631A12.06,12.06,0,0,0,632.33,99.92Z"/>
    <path d="M703.54,96.1v23.1H680.93V96.1h22.61Z"/>
    <path d="M760,12.1L802.9,83.95h0.29V12.1h21.17V119.2H801.74L759,47.5h-0.29v71.7H737.52V12.1H760Z"/>
    <path d="M851.57,100.6q4.61,4.65,13.25,4.65A17.7,17.7,0,0,0,875.47,102q4.46-3.22,5.47-6.83h18q-4.32,13.95-13.25,20t-21.6,6a41,41,0,0,1-15.84-2.93,32.87,32.87,0,0,1-12-8.32A37.74,37.74,0,0,1,828.74,97a49,49,0,0,1-2.66-16.5,46.9,46.9,0,0,1,2.74-16.2,38.24,38.24,0,0,1,7.78-13,36.59,36.59,0,0,1,12-8.62,37.21,37.21,0,0,1,15.48-3.15,34.24,34.24,0,0,1,16.56,3.82,33.48,33.48,0,0,1,11.59,10.28,43.09,43.09,0,0,1,6.55,14.7,57,57,0,0,1,1.44,17.25H846.53Q847,95.95,851.57,100.6Zm23.11-40.8q-3.67-4.2-11.16-4.2a17.2,17.2,0,0,0-8.14,1.73,15.63,15.63,0,0,0-5.18,4.27,15.89,15.89,0,0,0-2.74,5.4,25.19,25.19,0,0,0-.94,5.1h33.26Q878.35,64,874.68,59.8Z"/>
    <path d="M964,119.2l-13.25-52H950.5l-12.67,52H916.66L893,41.65h21.6L928.32,94.3h0.29L941,41.65h19.87l12.67,52.5h0.29l13.68-52.5h21L985.06,119.2H964Z"/>
    <path d="M1028.4,96.1v23.1h-22.61V96.1h22.61Zm-6.34-9h-10.22l-5.47-46.2V12.1h21.31V40.9Z"/>
    <path d="M1079.52,92.8a16.82,16.82,0,0,0,5,6.07,21.06,21.06,0,0,0,7.27,3.45,33.06,33.06,0,0,0,8.64,1.13,43.07,43.07,0,0,0,6.48-.52,21.85,21.85,0,0,0,6.48-2,14.24,14.24,0,0,0,5-4.12,10.64,10.64,0,0,0,2-6.68,9.61,9.61,0,0,0-2.66-7,21,21,0,0,0-7-4.5A67.68,67.68,0,0,0,1101,75.4q-5.47-1.35-11.09-3a95.13,95.13,0,0,1-11.23-3.68,38,38,0,0,1-9.79-5.62,26.23,26.23,0,0,1-7-8.62,27.07,27.07,0,0,1-2.66-12.52,29,29,0,0,1,3.38-14.33,31.48,31.48,0,0,1,8.86-10.12,37.92,37.92,0,0,1,12.38-6,50.77,50.77,0,0,1,13.82-1.95,63,63,0,0,1,15.48,1.88,37.94,37.94,0,0,1,13.18,6.07,30.39,30.39,0,0,1,9.14,10.73A34,34,0,0,1,1138.85,44H1117a19.62,19.62,0,0,0-1.94-8,13.07,13.07,0,0,0-4.39-4.95,18.18,18.18,0,0,0-6.26-2.55,37.15,37.15,0,0,0-7.7-.75,25.56,25.56,0,0,0-5.47.6,14.35,14.35,0,0,0-5,2.1,12.74,12.74,0,0,0-3.67,3.75,10.38,10.38,0,0,0-1.44,5.7,9.93,9.93,0,0,0,1.15,5.1,10.34,10.34,0,0,0,4.54,3.6,56.08,56.08,0,0,0,9.36,3.3q6,1.65,15.62,4.2,2.88,0.6,8,2.17a37.72,37.72,0,0,1,10.15,5,31.41,31.41,0,0,1,8.71,9.22q3.67,5.78,3.67,14.78a33.92,33.92,0,0,1-2.74,13.65,29.53,29.53,0,0,1-8.14,10.88A38.55,38.55,0,0,1,1118,119a61,61,0,0,1-18.5,2.55,62.57,62.57,0,0,1-16.49-2.17,40.69,40.69,0,0,1-14.11-6.83,33.33,33.33,0,0,1-9.72-11.85,36.59,36.59,0,0,1-3.46-17.1h21.89A20.31,20.31,0,0,0,1079.52,92.8Z"/>
    <path d="M1141.58,63.62a36.53,36.53,0,0,1,7.78-12.9,34.77,34.77,0,0,1,12.1-8.25,41,41,0,0,1,15.84-2.92,41.57,41.57,0,0,1,15.91,2.92,34.65,34.65,0,0,1,12.17,8.25,36.61,36.61,0,0,1,7.78,12.9,49.44,49.44,0,0,1,2.74,16.88,48.79,48.79,0,0,1-2.74,16.8,36.67,36.67,0,0,1-7.78,12.82,33.76,33.76,0,0,1-12.17,8.18,42.56,42.56,0,0,1-15.91,2.85,42,42,0,0,1-15.84-2.85,33.87,33.87,0,0,1-12.1-8.18,36.6,36.6,0,0,1-7.78-12.82,48.73,48.73,0,0,1-2.74-16.8A49.38,49.38,0,0,1,1141.58,63.62Zm18.58,26a24.76,24.76,0,0,0,3,8,16,16,0,0,0,5.54,5.62,16.37,16.37,0,0,0,8.64,2.1,16.76,16.76,0,0,0,8.71-2.1,15.85,15.85,0,0,0,5.62-5.62,24.8,24.8,0,0,0,3-8,47.21,47.21,0,0,0,.86-9.08,48.42,48.42,0,0,0-.86-9.15,24,24,0,0,0-3-7.95,16.72,16.72,0,0,0-5.62-5.62,16.33,16.33,0,0,0-8.71-2.18,16,16,0,0,0-8.64,2.18,16.92,16.92,0,0,0-5.54,5.63,23.93,23.93,0,0,0-3,7.95,48.46,48.46,0,0,0-.86,9.15A47.25,47.25,0,0,0,1160.16,89.57Z"/>
    <path d="M1252.32,55.6a13.94,13.94,0,0,0-8.21,2.33,18.18,18.18,0,0,0-5.4,6,26.6,26.6,0,0,0-3,8.1,45.74,45.74,0,0,0-.86,8.77,43.83,43.83,0,0,0,.86,8.55,27.12,27.12,0,0,0,2.81,7.88,16.51,16.51,0,0,0,5.26,5.77,14,14,0,0,0,8.06,2.25q7.34,0,11.3-4.27t5-11.48h19.73q-2,15.45-11.52,23.55t-24.34,8.1a39.3,39.3,0,0,1-15.34-2.93,33.89,33.89,0,0,1-11.88-8.17,37.4,37.4,0,0,1-7.63-12.52,45,45,0,0,1-2.74-16A53.62,53.62,0,0,1,1217,64.82a38,38,0,0,1,7.42-13.35,34,34,0,0,1,12-8.77,39.18,39.18,0,0,1,16.13-3.15,45,45,0,0,1,12.74,1.8,33.49,33.49,0,0,1,10.94,5.48A29,29,0,0,1,1284,56a30.11,30.11,0,0,1,3.46,13h-20Q1265.42,55.6,1252.32,55.6Z"/>
    <path d="M1309.34,12.1V69.55l25.78-27.9h24.19l-28.08,28.5,31.25,49h-24.77l-20.45-34.65-7.92,7.95v26.7h-20.45V12.1h20.45Z"/>
    <path d="M1374.5,99.92a12.27,12.27,0,0,0,3.53,4,14.83,14.83,0,0,0,5,2.33,22.44,22.44,0,0,0,5.83.75,20.93,20.93,0,0,0,4.54-.52,15,15,0,0,0,4.32-1.65,9.94,9.94,0,0,0,3.24-3,8.11,8.11,0,0,0,1.3-4.72q0-4.8-6.12-7.2a118.76,118.76,0,0,0-17.06-4.8q-4.47-1-8.71-2.48a29.17,29.17,0,0,1-7.56-3.75,17.91,17.91,0,0,1-5.33-5.85,17.1,17.1,0,0,1-2-8.62q0-7.5,2.81-12.3a21.13,21.13,0,0,1,7.42-7.58,31.7,31.7,0,0,1,10.37-3.9,61.44,61.44,0,0,1,11.81-1.12,56.8,56.8,0,0,1,11.74,1.2,30.39,30.39,0,0,1,10.15,4.05,23.82,23.82,0,0,1,7.42,7.57,26.23,26.23,0,0,1,3.53,11.93h-19.44q-0.43-6.15-4.46-8.33a19.76,19.76,0,0,0-9.5-2.17,33.79,33.79,0,0,0-3.74.23,12.1,12.1,0,0,0-3.67,1,7.61,7.61,0,0,0-2.81,2.18,6.6,6.6,0,0,0,.86,8.48,15.36,15.36,0,0,0,5.26,2.92,63.52,63.52,0,0,0,7.42,2q4.17,0.9,8.5,2a84.42,84.42,0,0,1,8.71,2.55,28.32,28.32,0,0,1,7.56,4,19,19,0,0,1,5.33,6.15,18.67,18.67,0,0,1,2,9.08,25.56,25.56,0,0,1-3,12.82,24.2,24.2,0,0,1-7.7,8.33,30.82,30.82,0,0,1-10.87,4.42,61,61,0,0,1-12.46,1.28A59.31,59.31,0,0,1,1376,119.8a32.66,32.66,0,0,1-11-4.5,25.23,25.23,0,0,1-7.92-8.33,26.87,26.87,0,0,1-3.38-13h19.44A12.05,12.05,0,0,0,1374.5,99.92Z"/>
    <path d="M1445.7,96.1v23.1h-22.61V96.1h22.61Z"/>
    <path d="M17.82,219.1l42.91,71.85H61V219.1H82.19V326.2H59.58L16.81,254.5H16.52v71.7H-4.64V219.1H17.82Z"/>
    <path d="M109.4,307.6q4.61,4.65,13.25,4.65A17.7,17.7,0,0,0,133.31,309q4.46-3.22,5.47-6.83h18q-4.32,13.95-13.25,20t-21.6,6a41,41,0,0,1-15.84-2.93,32.87,32.87,0,0,1-12-8.32A37.73,37.73,0,0,1,86.58,304a49,49,0,0,1-2.66-16.5,46.91,46.91,0,0,1,2.74-16.2,38.25,38.25,0,0,1,7.78-13,36.59,36.59,0,0,1,12-8.62,37.22,37.22,0,0,1,15.48-3.15,34.24,34.24,0,0,1,16.56,3.82,33.48,33.48,0,0,1,11.59,10.28,43.09,43.09,0,0,1,6.55,14.7,57,57,0,0,1,1.44,17.25H104.36Q104.8,302.95,109.4,307.6Zm23.11-40.8q-3.67-4.2-11.16-4.2a17.2,17.2,0,0,0-8.14,1.73A15.64,15.64,0,0,0,108,268.6a15.89,15.89,0,0,0-2.74,5.4,25.21,25.21,0,0,0-.94,5.1h33.26Q136.19,271,132.51,266.8Z"/>
    <path d="M221.87,326.2l-13.25-52h-0.29l-12.67,52H174.49l-23.62-77.55h21.6l13.68,52.65h0.29l12.38-52.65H218.7l12.67,52.5h0.29l13.68-52.5h21L242.89,326.2h-21Z"/>
    <path d="M286.23,303.1v23.1H263.62V303.1h22.61Zm-6.34-9H269.67l-5.47-46.2V219.1h21.31v28.8Z"/>
    <path d="M337.35,299.8a16.82,16.82,0,0,0,5,6.07,21.06,21.06,0,0,0,7.27,3.45,33.06,33.06,0,0,0,8.64,1.13,43.07,43.07,0,0,0,6.48-.52,21.84,21.84,0,0,0,6.48-2,14.23,14.23,0,0,0,5-4.12,10.64,10.64,0,0,0,2-6.68,9.61,9.61,0,0,0-2.66-7,21,21,0,0,0-7-4.5,67.67,67.67,0,0,0-9.79-3.15q-5.47-1.35-11.09-3a95.11,95.11,0,0,1-11.23-3.68,38,38,0,0,1-9.79-5.62,26.23,26.23,0,0,1-7-8.62A27.07,27.07,0,0,1,317,248.95a29,29,0,0,1,3.38-14.33,31.48,31.48,0,0,1,8.86-10.12,37.93,37.93,0,0,1,12.38-6,50.77,50.77,0,0,1,13.82-1.95A63,63,0,0,1,371,218.42a37.94,37.94,0,0,1,13.18,6.07,30.39,30.39,0,0,1,9.14,10.73A34,34,0,0,1,396.68,251H374.79a19.62,19.62,0,0,0-1.94-8,13.07,13.07,0,0,0-4.39-4.95,18.18,18.18,0,0,0-6.26-2.55,37.15,37.15,0,0,0-7.7-.75,25.56,25.56,0,0,0-5.47.6,14.34,14.34,0,0,0-5,2.1,12.73,12.73,0,0,0-3.67,3.75,10.39,10.39,0,0,0-1.44,5.7,9.93,9.93,0,0,0,1.15,5.1,10.34,10.34,0,0,0,4.54,3.6A56.09,56.09,0,0,0,354,259q6,1.65,15.62,4.2,2.88,0.6,8,2.17a37.71,37.71,0,0,1,10.15,5,31.41,31.41,0,0,1,8.71,9.22q3.67,5.78,3.67,14.78A33.92,33.92,0,0,1,397.4,308a29.52,29.52,0,0,1-8.14,10.88A38.55,38.55,0,0,1,375.87,326a61,61,0,0,1-18.5,2.55,62.57,62.57,0,0,1-16.49-2.17,40.69,40.69,0,0,1-14.11-6.83A33.33,33.33,0,0,1,317,307.75a36.59,36.59,0,0,1-3.46-17.1h21.89A20.32,20.32,0,0,0,337.35,299.8Z"/>
    <path d="M399.41,270.62a36.54,36.54,0,0,1,7.78-12.9,34.77,34.77,0,0,1,12.1-8.25,41,41,0,0,1,15.84-2.92A41.57,41.57,0,0,1,451,249.47a34.65,34.65,0,0,1,12.17,8.25,36.61,36.61,0,0,1,7.78,12.9,49.44,49.44,0,0,1,2.74,16.88A48.79,48.79,0,0,1,471,304.3a36.67,36.67,0,0,1-7.78,12.82A33.76,33.76,0,0,1,451,325.3a42.56,42.56,0,0,1-15.91,2.85,42,42,0,0,1-15.84-2.85,33.87,33.87,0,0,1-12.1-8.18,36.61,36.61,0,0,1-7.78-12.82,48.73,48.73,0,0,1-2.74-16.8A49.38,49.38,0,0,1,399.41,270.62Zm18.58,26a24.75,24.75,0,0,0,3,8,16,16,0,0,0,5.54,5.63,16.37,16.37,0,0,0,8.64,2.1,16.76,16.76,0,0,0,8.71-2.1,15.85,15.85,0,0,0,5.62-5.62,24.8,24.8,0,0,0,3-8,47.21,47.21,0,0,0,.86-9.08,48.42,48.42,0,0,0-.86-9.15,24,24,0,0,0-3-7.95,16.72,16.72,0,0,0-5.62-5.62,16.33,16.33,0,0,0-8.71-2.18,16,16,0,0,0-8.64,2.18,16.92,16.92,0,0,0-5.54,5.63,23.93,23.93,0,0,0-3,7.95,48.44,48.44,0,0,0-.86,9.15A47.23,47.23,0,0,0,418,296.57Z"/>
    <path d="M510.15,262.6a13.94,13.94,0,0,0-8.21,2.33,18.18,18.18,0,0,0-5.4,6,26.59,26.59,0,0,0-3,8.1,45.7,45.7,0,0,0-.86,8.77,43.79,43.79,0,0,0,.86,8.55,27.1,27.1,0,0,0,2.81,7.88,16.51,16.51,0,0,0,5.26,5.77,14,14,0,0,0,8.06,2.25q7.34,0,11.3-4.27t5-11.48h19.73q-2,15.45-11.52,23.55t-24.34,8.1a39.3,39.3,0,0,1-15.34-2.93A33.88,33.88,0,0,1,482.65,317,37.4,37.4,0,0,1,475,304.52a45,45,0,0,1-2.74-16,53.62,53.62,0,0,1,2.52-16.73,38,38,0,0,1,7.42-13.35,34,34,0,0,1,12-8.77,39.18,39.18,0,0,1,16.13-3.15,45,45,0,0,1,12.74,1.8A33.5,33.5,0,0,1,534,253.82a29,29,0,0,1,7.85,9.15,30.11,30.11,0,0,1,3.46,13h-20Q523.25,262.6,510.15,262.6Z"/>
    <path d="M567.17,219.1v57.45l25.78-27.9h24.19l-28.08,28.5,31.25,49H595.54l-20.45-34.65-7.92,7.95v26.7H546.72V219.1h20.45Z"/>
    <path d="M632.33,306.92a12.28,12.28,0,0,0,3.53,4,14.82,14.82,0,0,0,5,2.33,22.44,22.44,0,0,0,5.83.75,20.94,20.94,0,0,0,4.54-.52,15,15,0,0,0,4.32-1.65,9.94,9.94,0,0,0,3.24-3,8.12,8.12,0,0,0,1.3-4.72q0-4.8-6.12-7.2a118.76,118.76,0,0,0-17.06-4.8q-4.46-1-8.71-2.48a29.19,29.19,0,0,1-7.56-3.75,17.91,17.91,0,0,1-5.33-5.85,17.11,17.11,0,0,1-2-8.62q0-7.5,2.81-12.3a21.13,21.13,0,0,1,7.42-7.58,31.7,31.7,0,0,1,10.37-3.9,61.45,61.45,0,0,1,11.81-1.12,56.8,56.8,0,0,1,11.74,1.2,30.38,30.38,0,0,1,10.15,4.05,23.82,23.82,0,0,1,7.42,7.57,26.22,26.22,0,0,1,3.53,11.93H659q-0.43-6.15-4.46-8.33a19.75,19.75,0,0,0-9.5-2.17,33.8,33.8,0,0,0-3.74.23,12.1,12.1,0,0,0-3.67,1,7.62,7.62,0,0,0-2.81,2.18,6.6,6.6,0,0,0,.86,8.48,15.36,15.36,0,0,0,5.26,2.92,63.54,63.54,0,0,0,7.42,2q4.17,0.9,8.5,2a84.37,84.37,0,0,1,8.71,2.55,28.31,28.31,0,0,1,7.56,4,19,19,0,0,1,5.33,6.15,18.67,18.67,0,0,1,2,9.08,25.57,25.57,0,0,1-3,12.82,24.2,24.2,0,0,1-7.7,8.33A30.82,30.82,0,0,1,659,326.87a61,61,0,0,1-12.46,1.28,59.31,59.31,0,0,1-12.67-1.35,32.66,32.66,0,0,1-11-4.5,25.24,25.24,0,0,1-7.92-8.33,26.87,26.87,0,0,1-3.38-13H631A12.06,12.06,0,0,0,632.33,306.92Z"/>
    <path d="M703.54,303.1v23.1H680.93V303.1h22.61Z"/>
    <path d="M760,219.1l42.91,71.85h0.29V219.1h21.17V326.2H801.74L759,254.5h-0.29v71.7H737.52V219.1H760Z"/>
    <path d="M851.57,307.6q4.61,4.65,13.25,4.65A17.7,17.7,0,0,0,875.47,309q4.46-3.22,5.47-6.83h18q-4.32,13.95-13.25,20t-21.6,6a41,41,0,0,1-15.84-2.93,32.87,32.87,0,0,1-12-8.32,37.74,37.74,0,0,1-7.56-12.9,49,49,0,0,1-2.66-16.5,46.9,46.9,0,0,1,2.74-16.2,38.24,38.24,0,0,1,7.78-13,36.59,36.59,0,0,1,12-8.62,37.21,37.21,0,0,1,15.48-3.15,34.24,34.24,0,0,1,16.56,3.82,33.48,33.48,0,0,1,11.59,10.28,43.09,43.09,0,0,1,6.55,14.7,57,57,0,0,1,1.44,17.25H846.53Q847,302.95,851.57,307.6Zm23.11-40.8q-3.67-4.2-11.16-4.2a17.2,17.2,0,0,0-8.14,1.73,15.63,15.63,0,0,0-5.18,4.27,15.89,15.89,0,0,0-2.74,5.4,25.19,25.19,0,0,0-.94,5.1h33.26Q878.35,271,874.68,266.8Z"/>
    <path d="M964,326.2l-13.25-52H950.5l-12.67,52H916.66L893,248.65h21.6l13.68,52.65h0.29L941,248.65h19.87l12.67,52.5h0.29l13.68-52.5h21L985.06,326.2H964Z"/>
    <path d="M1028.4,303.1v23.1h-22.61V303.1h22.61Zm-6.34-9h-10.22l-5.47-46.2V219.1h21.31v28.8Z"/>
    <path d="M1079.52,299.8a16.82,16.82,0,0,0,5,6.07,21.06,21.06,0,0,0,7.27,3.45,33.06,33.06,0,0,0,8.64,1.13,43.07,43.07,0,0,0,6.48-.52,21.85,21.85,0,0,0,6.48-2,14.24,14.24,0,0,0,5-4.12,10.64,10.64,0,0,0,2-6.68,9.61,9.61,0,0,0-2.66-7,21,21,0,0,0-7-4.5,67.68,67.68,0,0,0-9.79-3.15q-5.47-1.35-11.09-3a95.13,95.13,0,0,1-11.23-3.68,38,38,0,0,1-9.79-5.62,26.23,26.23,0,0,1-7-8.62,27.07,27.07,0,0,1-2.66-12.52,29,29,0,0,1,3.38-14.33,31.48,31.48,0,0,1,8.86-10.12,37.92,37.92,0,0,1,12.38-6,50.77,50.77,0,0,1,13.82-1.95,63,63,0,0,1,15.48,1.88,37.94,37.94,0,0,1,13.18,6.07,30.39,30.39,0,0,1,9.14,10.73,34,34,0,0,1,3.38,15.83H1117a19.62,19.62,0,0,0-1.94-8,13.07,13.07,0,0,0-4.39-4.95,18.18,18.18,0,0,0-6.26-2.55,37.15,37.15,0,0,0-7.7-.75,25.56,25.56,0,0,0-5.47.6,14.35,14.35,0,0,0-5,2.1,12.74,12.74,0,0,0-3.67,3.75,10.38,10.38,0,0,0-1.44,5.7,9.93,9.93,0,0,0,1.15,5.1,10.34,10.34,0,0,0,4.54,3.6,56.08,56.08,0,0,0,9.36,3.3q6,1.65,15.62,4.2,2.88,0.6,8,2.17a37.72,37.72,0,0,1,10.15,5,31.41,31.41,0,0,1,8.71,9.22q3.67,5.78,3.67,14.78a33.92,33.92,0,0,1-2.74,13.65,29.53,29.53,0,0,1-8.14,10.88A38.55,38.55,0,0,1,1118,326a61,61,0,0,1-18.5,2.55,62.57,62.57,0,0,1-16.49-2.17,40.69,40.69,0,0,1-14.11-6.83,33.33,33.33,0,0,1-9.72-11.85,36.59,36.59,0,0,1-3.46-17.1h21.89A20.31,20.31,0,0,0,1079.52,299.8Z"/>
    <path d="M1141.58,270.62a36.53,36.53,0,0,1,7.78-12.9,34.77,34.77,0,0,1,12.1-8.25,41,41,0,0,1,15.84-2.92,41.57,41.57,0,0,1,15.91,2.92,34.65,34.65,0,0,1,12.17,8.25,36.61,36.61,0,0,1,7.78,12.9,49.44,49.44,0,0,1,2.74,16.88,48.79,48.79,0,0,1-2.74,16.8,36.67,36.67,0,0,1-7.78,12.82,33.76,33.76,0,0,1-12.17,8.18,42.56,42.56,0,0,1-15.91,2.85,42,42,0,0,1-15.84-2.85,33.87,33.87,0,0,1-12.1-8.18,36.6,36.6,0,0,1-7.78-12.82,48.73,48.73,0,0,1-2.74-16.8A49.38,49.38,0,0,1,1141.58,270.62Zm18.58,26a24.76,24.76,0,0,0,3,8,16,16,0,0,0,5.54,5.63,16.37,16.37,0,0,0,8.64,2.1,16.76,16.76,0,0,0,8.71-2.1,15.85,15.85,0,0,0,5.62-5.62,24.8,24.8,0,0,0,3-8,47.21,47.21,0,0,0,.86-9.08,48.42,48.42,0,0,0-.86-9.15,24,24,0,0,0-3-7.95,16.72,16.72,0,0,0-5.62-5.62,16.33,16.33,0,0,0-8.71-2.18,16,16,0,0,0-8.64,2.18,16.92,16.92,0,0,0-5.54,5.63,23.93,23.93,0,0,0-3,7.95,48.46,48.46,0,0,0-.86,9.15A47.25,47.25,0,0,0,1160.16,296.57Z"/>
    <path d="M1252.32,262.6a13.94,13.94,0,0,0-8.21,2.33,18.18,18.18,0,0,0-5.4,6,26.6,26.6,0,0,0-3,8.1,45.74,45.74,0,0,0-.86,8.77,43.83,43.83,0,0,0,.86,8.55,27.12,27.12,0,0,0,2.81,7.88,16.51,16.51,0,0,0,5.26,5.77,14,14,0,0,0,8.06,2.25q7.34,0,11.3-4.27t5-11.48h19.73q-2,15.45-11.52,23.55t-24.34,8.1a39.3,39.3,0,0,1-15.34-2.93,33.89,33.89,0,0,1-11.88-8.17,37.4,37.4,0,0,1-7.63-12.52,45,45,0,0,1-2.74-16,53.62,53.62,0,0,1,2.52-16.73,38,38,0,0,1,7.42-13.35,34,34,0,0,1,12-8.77,39.18,39.18,0,0,1,16.13-3.15,45,45,0,0,1,12.74,1.8,33.49,33.49,0,0,1,10.94,5.48A29,29,0,0,1,1284,263a30.11,30.11,0,0,1,3.46,13h-20Q1265.42,262.6,1252.32,262.6Z"/>
    <path d="M1309.34,219.1v57.45l25.78-27.9h24.19l-28.08,28.5,31.25,49h-24.77l-20.45-34.65-7.92,7.95v26.7h-20.45V219.1h20.45Z"/>
    <path d="M1374.5,306.92a12.27,12.27,0,0,0,3.53,4,14.83,14.83,0,0,0,5,2.33,22.44,22.44,0,0,0,5.83.75,20.93,20.93,0,0,0,4.54-.52,15,15,0,0,0,4.32-1.65,9.94,9.94,0,0,0,3.24-3,8.11,8.11,0,0,0,1.3-4.72q0-4.8-6.12-7.2a118.76,118.76,0,0,0-17.06-4.8q-4.47-1-8.71-2.48a29.17,29.17,0,0,1-7.56-3.75,17.91,17.91,0,0,1-5.33-5.85,17.1,17.1,0,0,1-2-8.62q0-7.5,2.81-12.3a21.13,21.13,0,0,1,7.42-7.58,31.7,31.7,0,0,1,10.37-3.9,61.44,61.44,0,0,1,11.81-1.12,56.8,56.8,0,0,1,11.74,1.2,30.39,30.39,0,0,1,10.15,4.05,23.82,23.82,0,0,1,7.42,7.57,26.23,26.23,0,0,1,3.53,11.93h-19.44q-0.43-6.15-4.46-8.33a19.76,19.76,0,0,0-9.5-2.17,33.79,33.79,0,0,0-3.74.23,12.1,12.1,0,0,0-3.67,1,7.61,7.61,0,0,0-2.81,2.18,6.6,6.6,0,0,0,.86,8.48,15.36,15.36,0,0,0,5.26,2.92,63.52,63.52,0,0,0,7.42,2q4.17,0.9,8.5,2a84.42,84.42,0,0,1,8.71,2.55,28.32,28.32,0,0,1,7.56,4,19,19,0,0,1,5.33,6.15,18.67,18.67,0,0,1,2,9.08,25.56,25.56,0,0,1-3,12.82,24.2,24.2,0,0,1-7.7,8.33,30.82,30.82,0,0,1-10.87,4.42,61,61,0,0,1-12.46,1.28A59.31,59.31,0,0,1,1376,326.8a32.66,32.66,0,0,1-11-4.5,25.23,25.23,0,0,1-7.92-8.33,26.87,26.87,0,0,1-3.38-13h19.44A12.05,12.05,0,0,0,1374.5,306.92Z"/>
    <path d="M1445.7,303.1v23.1h-22.61V303.1h22.61Z"/>
    <path d="M17.82,426.1l42.91,71.85H61V426.1H82.19V533.2H59.58L16.81,461.5H16.52v71.7H-4.64V426.1H17.82Z"/>
    <path d="M109.4,514.6q4.61,4.65,13.25,4.65A17.7,17.7,0,0,0,133.31,516q4.46-3.22,5.47-6.83h18q-4.32,13.95-13.25,20t-21.6,6a41,41,0,0,1-15.84-2.93,32.87,32.87,0,0,1-12-8.32A37.73,37.73,0,0,1,86.58,511a49,49,0,0,1-2.66-16.5,46.91,46.91,0,0,1,2.74-16.2,38.25,38.25,0,0,1,7.78-13,36.59,36.59,0,0,1,12-8.62,37.22,37.22,0,0,1,15.48-3.15,34.24,34.24,0,0,1,16.56,3.82,33.48,33.48,0,0,1,11.59,10.28,43.09,43.09,0,0,1,6.55,14.7,57,57,0,0,1,1.44,17.25H104.36Q104.8,509.95,109.4,514.6Zm23.11-40.8q-3.67-4.2-11.16-4.2a17.2,17.2,0,0,0-8.14,1.73A15.64,15.64,0,0,0,108,475.6a15.89,15.89,0,0,0-2.74,5.4,25.21,25.21,0,0,0-.94,5.1h33.26Q136.19,478,132.51,473.8Z"/>
    <path d="M221.87,533.2l-13.25-52h-0.29l-12.67,52H174.49l-23.62-77.55h21.6l13.68,52.65h0.29l12.38-52.65H218.7l12.67,52.5h0.29l13.68-52.5h21L242.89,533.2h-21Z"/>
    <path d="M286.23,510.1v23.1H263.62V510.1h22.61Zm-6.34-9H269.67l-5.47-46.2V426.1h21.31v28.8Z"/>
    <path d="M337.35,506.8a16.82,16.82,0,0,0,5,6.07,21.06,21.06,0,0,0,7.27,3.45,33.06,33.06,0,0,0,8.64,1.13,43.07,43.07,0,0,0,6.48-.52,21.84,21.84,0,0,0,6.48-2,14.23,14.23,0,0,0,5-4.12,10.64,10.64,0,0,0,2-6.68,9.61,9.61,0,0,0-2.66-7,21,21,0,0,0-7-4.5,67.67,67.67,0,0,0-9.79-3.15q-5.47-1.35-11.09-3a95.11,95.11,0,0,1-11.23-3.68,38,38,0,0,1-9.79-5.62,26.23,26.23,0,0,1-7-8.62A27.07,27.07,0,0,1,317,455.95a29,29,0,0,1,3.38-14.33,31.48,31.48,0,0,1,8.86-10.12,37.93,37.93,0,0,1,12.38-6,50.77,50.77,0,0,1,13.82-1.95A63,63,0,0,1,371,425.42a37.94,37.94,0,0,1,13.18,6.07,30.39,30.39,0,0,1,9.14,10.73A34,34,0,0,1,396.68,458H374.79a19.62,19.62,0,0,0-1.94-8,13.07,13.07,0,0,0-4.39-4.95,18.18,18.18,0,0,0-6.26-2.55,37.15,37.15,0,0,0-7.7-.75,25.56,25.56,0,0,0-5.47.6,14.34,14.34,0,0,0-5,2.1,12.73,12.73,0,0,0-3.67,3.75,10.39,10.39,0,0,0-1.44,5.7,9.93,9.93,0,0,0,1.15,5.1,10.34,10.34,0,0,0,4.54,3.6A56.09,56.09,0,0,0,354,466q6,1.65,15.62,4.2,2.88,0.6,8,2.17a37.71,37.71,0,0,1,10.15,5,31.41,31.41,0,0,1,8.71,9.22q3.67,5.78,3.67,14.78A33.92,33.92,0,0,1,397.4,515a29.52,29.52,0,0,1-8.14,10.88A38.55,38.55,0,0,1,375.87,533a61,61,0,0,1-18.5,2.55,62.57,62.57,0,0,1-16.49-2.17,40.69,40.69,0,0,1-14.11-6.83A33.33,33.33,0,0,1,317,514.75a36.59,36.59,0,0,1-3.46-17.1h21.89A20.32,20.32,0,0,0,337.35,506.8Z"/>
    <path d="M399.41,477.62a36.54,36.54,0,0,1,7.78-12.9,34.77,34.77,0,0,1,12.1-8.25,41,41,0,0,1,15.84-2.92A41.57,41.57,0,0,1,451,456.47a34.65,34.65,0,0,1,12.17,8.25,36.61,36.61,0,0,1,7.78,12.9,49.44,49.44,0,0,1,2.74,16.88A48.79,48.79,0,0,1,471,511.3a36.67,36.67,0,0,1-7.78,12.82A33.76,33.76,0,0,1,451,532.3a42.56,42.56,0,0,1-15.91,2.85,42,42,0,0,1-15.84-2.85,33.87,33.87,0,0,1-12.1-8.18,36.61,36.61,0,0,1-7.78-12.82,48.73,48.73,0,0,1-2.74-16.8A49.38,49.38,0,0,1,399.41,477.62Zm18.58,26a24.75,24.75,0,0,0,3,8,16,16,0,0,0,5.54,5.63,16.37,16.37,0,0,0,8.64,2.1,16.76,16.76,0,0,0,8.71-2.1,15.85,15.85,0,0,0,5.62-5.62,24.8,24.8,0,0,0,3-8,47.21,47.21,0,0,0,.86-9.08,48.42,48.42,0,0,0-.86-9.15,24,24,0,0,0-3-7.95,16.72,16.72,0,0,0-5.62-5.62,16.33,16.33,0,0,0-8.71-2.18,16,16,0,0,0-8.64,2.18,16.92,16.92,0,0,0-5.54,5.63,23.93,23.93,0,0,0-3,7.95,48.44,48.44,0,0,0-.86,9.15A47.23,47.23,0,0,0,418,503.57Z"/>
    <path d="M510.15,469.6a13.94,13.94,0,0,0-8.21,2.33,18.18,18.18,0,0,0-5.4,6,26.59,26.59,0,0,0-3,8.1,45.7,45.7,0,0,0-.86,8.77,43.79,43.79,0,0,0,.86,8.55,27.1,27.1,0,0,0,2.81,7.88,16.51,16.51,0,0,0,5.26,5.77,14,14,0,0,0,8.06,2.25q7.34,0,11.3-4.27t5-11.48h19.73q-2,15.45-11.52,23.55t-24.34,8.1a39.3,39.3,0,0,1-15.34-2.93A33.88,33.88,0,0,1,482.65,524,37.4,37.4,0,0,1,475,511.52a45,45,0,0,1-2.74-16,53.62,53.62,0,0,1,2.52-16.73,38,38,0,0,1,7.42-13.35,34,34,0,0,1,12-8.77,39.18,39.18,0,0,1,16.13-3.15,45,45,0,0,1,12.74,1.8A33.5,33.5,0,0,1,534,460.82a29,29,0,0,1,7.85,9.15,30.11,30.11,0,0,1,3.46,13h-20Q523.25,469.6,510.15,469.6Z"/>
    <path d="M567.17,426.1v57.45l25.78-27.9h24.19l-28.08,28.5,31.25,49H595.54l-20.45-34.65-7.92,7.95v26.7H546.72V426.1h20.45Z"/>
    <path d="M632.33,513.92a12.28,12.28,0,0,0,3.53,4,14.82,14.82,0,0,0,5,2.33,22.44,22.44,0,0,0,5.83.75,20.94,20.94,0,0,0,4.54-.52,15,15,0,0,0,4.32-1.65,9.94,9.94,0,0,0,3.24-3,8.12,8.12,0,0,0,1.3-4.72q0-4.8-6.12-7.2a118.76,118.76,0,0,0-17.06-4.8q-4.46-1-8.71-2.48a29.19,29.19,0,0,1-7.56-3.75,17.91,17.91,0,0,1-5.33-5.85,17.11,17.11,0,0,1-2-8.62q0-7.5,2.81-12.3a21.13,21.13,0,0,1,7.42-7.58,31.7,31.7,0,0,1,10.37-3.9,61.45,61.45,0,0,1,11.81-1.12,56.8,56.8,0,0,1,11.74,1.2,30.38,30.38,0,0,1,10.15,4.05,23.82,23.82,0,0,1,7.42,7.57,26.22,26.22,0,0,1,3.53,11.93H659q-0.43-6.15-4.46-8.33a19.75,19.75,0,0,0-9.5-2.17,33.8,33.8,0,0,0-3.74.23,12.1,12.1,0,0,0-3.67,1,7.62,7.62,0,0,0-2.81,2.18,6.6,6.6,0,0,0,.86,8.48,15.36,15.36,0,0,0,5.26,2.92,63.54,63.54,0,0,0,7.42,2q4.17,0.9,8.5,2a84.37,84.37,0,0,1,8.71,2.55,28.31,28.31,0,0,1,7.56,4,19,19,0,0,1,5.33,6.15,18.67,18.67,0,0,1,2,9.08,25.57,25.57,0,0,1-3,12.82,24.2,24.2,0,0,1-7.7,8.33A30.82,30.82,0,0,1,659,533.87a61,61,0,0,1-12.46,1.28,59.31,59.31,0,0,1-12.67-1.35,32.66,32.66,0,0,1-11-4.5,25.24,25.24,0,0,1-7.92-8.33,26.87,26.87,0,0,1-3.38-13H631A12.06,12.06,0,0,0,632.33,513.92Z"/>
    <path d="M703.54,510.1v23.1H680.93V510.1h22.61Z"/>
    <path d="M760,426.1l42.91,71.85h0.29V426.1h21.17V533.2H801.74L759,461.5h-0.29v71.7H737.52V426.1H760Z"/>
    <path d="M851.57,514.6q4.61,4.65,13.25,4.65A17.7,17.7,0,0,0,875.47,516q4.46-3.22,5.47-6.83h18q-4.32,13.95-13.25,20t-21.6,6a41,41,0,0,1-15.84-2.93,32.87,32.87,0,0,1-12-8.32,37.74,37.74,0,0,1-7.56-12.9,49,49,0,0,1-2.66-16.5,46.9,46.9,0,0,1,2.74-16.2,38.24,38.24,0,0,1,7.78-13,36.59,36.59,0,0,1,12-8.62,37.21,37.21,0,0,1,15.48-3.15,34.24,34.24,0,0,1,16.56,3.82,33.48,33.48,0,0,1,11.59,10.28,43.09,43.09,0,0,1,6.55,14.7,57,57,0,0,1,1.44,17.25H846.53Q847,509.95,851.57,514.6Zm23.11-40.8q-3.67-4.2-11.16-4.2a17.2,17.2,0,0,0-8.14,1.73,15.63,15.63,0,0,0-5.18,4.27,15.89,15.89,0,0,0-2.74,5.4,25.19,25.19,0,0,0-.94,5.1h33.26Q878.35,478,874.68,473.8Z"/>
    <path d="M964,533.2l-13.25-52H950.5l-12.67,52H916.66L893,455.65h21.6l13.68,52.65h0.29L941,455.65h19.87l12.67,52.5h0.29l13.68-52.5h21L985.06,533.2H964Z"/>
    <path d="M1028.4,510.1v23.1h-22.61V510.1h22.61Zm-6.34-9h-10.22l-5.47-46.2V426.1h21.31v28.8Z"/>
    <path d="M1079.52,506.8a16.82,16.82,0,0,0,5,6.07,21.06,21.06,0,0,0,7.27,3.45,33.06,33.06,0,0,0,8.64,1.13,43.07,43.07,0,0,0,6.48-.52,21.85,21.85,0,0,0,6.48-2,14.24,14.24,0,0,0,5-4.12,10.64,10.64,0,0,0,2-6.68,9.61,9.61,0,0,0-2.66-7,21,21,0,0,0-7-4.5,67.68,67.68,0,0,0-9.79-3.15q-5.47-1.35-11.09-3a95.13,95.13,0,0,1-11.23-3.68,38,38,0,0,1-9.79-5.62,26.23,26.23,0,0,1-7-8.62,27.07,27.07,0,0,1-2.66-12.52,29,29,0,0,1,3.38-14.33,31.48,31.48,0,0,1,8.86-10.12,37.92,37.92,0,0,1,12.38-6,50.77,50.77,0,0,1,13.82-1.95,63,63,0,0,1,15.48,1.88,37.94,37.94,0,0,1,13.18,6.07,30.39,30.39,0,0,1,9.14,10.73,34,34,0,0,1,3.38,15.83H1117a19.62,19.62,0,0,0-1.94-8,13.07,13.07,0,0,0-4.39-4.95,18.18,18.18,0,0,0-6.26-2.55,37.15,37.15,0,0,0-7.7-.75,25.56,25.56,0,0,0-5.47.6,14.35,14.35,0,0,0-5,2.1,12.74,12.74,0,0,0-3.67,3.75,10.38,10.38,0,0,0-1.44,5.7,9.93,9.93,0,0,0,1.15,5.1,10.34,10.34,0,0,0,4.54,3.6,56.08,56.08,0,0,0,9.36,3.3q6,1.65,15.62,4.2,2.88,0.6,8,2.17a37.72,37.72,0,0,1,10.15,5,31.41,31.41,0,0,1,8.71,9.22q3.67,5.78,3.67,14.78a33.92,33.92,0,0,1-2.74,13.65,29.53,29.53,0,0,1-8.14,10.88A38.55,38.55,0,0,1,1118,533a61,61,0,0,1-18.5,2.55,62.57,62.57,0,0,1-16.49-2.17,40.69,40.69,0,0,1-14.11-6.83,33.33,33.33,0,0,1-9.72-11.85,36.59,36.59,0,0,1-3.46-17.1h21.89A20.31,20.31,0,0,0,1079.52,506.8Z"/>
    <path d="M1141.58,477.62a36.53,36.53,0,0,1,7.78-12.9,34.77,34.77,0,0,1,12.1-8.25,41,41,0,0,1,15.84-2.92,41.57,41.57,0,0,1,15.91,2.92,34.65,34.65,0,0,1,12.17,8.25,36.61,36.61,0,0,1,7.78,12.9,49.44,49.44,0,0,1,2.74,16.88,48.79,48.79,0,0,1-2.74,16.8,36.67,36.67,0,0,1-7.78,12.82,33.76,33.76,0,0,1-12.17,8.18,42.56,42.56,0,0,1-15.91,2.85,42,42,0,0,1-15.84-2.85,33.87,33.87,0,0,1-12.1-8.18,36.6,36.6,0,0,1-7.78-12.82,48.73,48.73,0,0,1-2.74-16.8A49.38,49.38,0,0,1,1141.58,477.62Zm18.58,26a24.76,24.76,0,0,0,3,8,16,16,0,0,0,5.54,5.63,16.37,16.37,0,0,0,8.64,2.1,16.76,16.76,0,0,0,8.71-2.1,15.85,15.85,0,0,0,5.62-5.62,24.8,24.8,0,0,0,3-8,47.21,47.21,0,0,0,.86-9.08,48.42,48.42,0,0,0-.86-9.15,24,24,0,0,0-3-7.95,16.72,16.72,0,0,0-5.62-5.62,16.33,16.33,0,0,0-8.71-2.18,16,16,0,0,0-8.64,2.18,16.92,16.92,0,0,0-5.54,5.63,23.93,23.93,0,0,0-3,7.95,48.46,48.46,0,0,0-.86,9.15A47.25,47.25,0,0,0,1160.16,503.57Z"/>
    <path d="M1252.32,469.6a13.94,13.94,0,0,0-8.21,2.33,18.18,18.18,0,0,0-5.4,6,26.6,26.6,0,0,0-3,8.1,45.74,45.74,0,0,0-.86,8.77,43.83,43.83,0,0,0,.86,8.55,27.12,27.12,0,0,0,2.81,7.88,16.51,16.51,0,0,0,5.26,5.77,14,14,0,0,0,8.06,2.25q7.34,0,11.3-4.27t5-11.48h19.73q-2,15.45-11.52,23.55t-24.34,8.1a39.3,39.3,0,0,1-15.34-2.93,33.89,33.89,0,0,1-11.88-8.17,37.4,37.4,0,0,1-7.63-12.52,45,45,0,0,1-2.74-16,53.62,53.62,0,0,1,2.52-16.73,38,38,0,0,1,7.42-13.35,34,34,0,0,1,12-8.77,39.18,39.18,0,0,1,16.13-3.15,45,45,0,0,1,12.74,1.8,33.49,33.49,0,0,1,10.94,5.48A29,29,0,0,1,1284,470a30.11,30.11,0,0,1,3.46,13h-20Q1265.42,469.6,1252.32,469.6Z"/>
    <path d="M1309.34,426.1v57.45l25.78-27.9h24.19l-28.08,28.5,31.25,49h-24.77l-20.45-34.65-7.92,7.95v26.7h-20.45V426.1h20.45Z"/>
    <path d="M1374.5,513.92a12.27,12.27,0,0,0,3.53,4,14.83,14.83,0,0,0,5,2.33,22.44,22.44,0,0,0,5.83.75,20.93,20.93,0,0,0,4.54-.52,15,15,0,0,0,4.32-1.65,9.94,9.94,0,0,0,3.24-3,8.11,8.11,0,0,0,1.3-4.72q0-4.8-6.12-7.2a118.76,118.76,0,0,0-17.06-4.8q-4.47-1-8.71-2.48a29.17,29.17,0,0,1-7.56-3.75,17.91,17.91,0,0,1-5.33-5.85,17.1,17.1,0,0,1-2-8.62q0-7.5,2.81-12.3a21.13,21.13,0,0,1,7.42-7.58,31.7,31.7,0,0,1,10.37-3.9,61.44,61.44,0,0,1,11.81-1.12,56.8,56.8,0,0,1,11.74,1.2,30.39,30.39,0,0,1,10.15,4.05,23.82,23.82,0,0,1,7.42,7.57,26.23,26.23,0,0,1,3.53,11.93h-19.44q-0.43-6.15-4.46-8.33a19.76,19.76,0,0,0-9.5-2.17,33.79,33.79,0,0,0-3.74.23,12.1,12.1,0,0,0-3.67,1,7.61,7.61,0,0,0-2.81,2.18,6.6,6.6,0,0,0,.86,8.48,15.36,15.36,0,0,0,5.26,2.92,63.52,63.52,0,0,0,7.42,2q4.17,0.9,8.5,2a84.42,84.42,0,0,1,8.71,2.55,28.32,28.32,0,0,1,7.56,4,19,19,0,0,1,5.33,6.15,18.67,18.67,0,0,1,2,9.08,25.56,25.56,0,0,1-3,12.82,24.2,24.2,0,0,1-7.7,8.33,30.82,30.82,0,0,1-10.87,4.42,61,61,0,0,1-12.46,1.28A59.31,59.31,0,0,1,1376,533.8a32.66,32.66,0,0,1-11-4.5,25.23,25.23,0,0,1-7.92-8.33,26.87,26.87,0,0,1-3.38-13h19.44A12.05,12.05,0,0,0,1374.5,513.92Z"/>
    <path d="M1445.7,510.1v23.1h-22.61V510.1h22.61Z"/>
  </g>
</svg>
