<svg xmlns="http://www.w3.org/2000/svg" viewBox="0 0 1425 719.58"><title>home_text_01</title><path d="M18.22,487.8a16.83,16.83,0,0,0,5,6.08,21.07,21.07,0,0,0,7.27,3.45,33.06,33.06,0,0,0,8.64,1.13,43.07,43.07,0,0,0,6.48-.52,21.83,21.83,0,0,0,6.48-2,14.24,14.24,0,0,0,5-4.12,10.64,10.64,0,0,0,2-6.67A9.61,9.61,0,0,0,56.45,478a21,21,0,0,0-7-4.5,67.72,67.72,0,0,0-9.79-3.15q-5.47-1.35-11.09-3a95.1,95.1,0,0,1-11.23-3.67,38.07,38.07,0,0,1-9.79-5.62,26.23,26.23,0,0,1-7-8.62,27.07,27.07,0,0,1-2.66-12.53A29,29,0,0,1,1.3,422.62a31.47,31.47,0,0,1,8.86-10.12,37.92,37.92,0,0,1,12.38-6,50.77,50.77,0,0,1,13.82-2,63,63,0,0,1,15.48,1.88A37.94,37.94,0,0,1,65,412.5a30.39,30.39,0,0,1,9.14,10.73A34,34,0,0,1,77.54,439H55.66a19.61,19.61,0,0,0-1.94-7.95,13.07,13.07,0,0,0-4.39-5,18.18,18.18,0,0,0-6.26-2.55,37.12,37.12,0,0,0-7.7-.75,25.56,25.56,0,0,0-5.47.6,14.35,14.35,0,0,0-5,2.1,12.74,12.74,0,0,0-3.67,3.75A10.38,10.38,0,0,0,19.8,435,9.93,9.93,0,0,0,21,440.1a10.34,10.34,0,0,0,4.54,3.6,56.1,56.1,0,0,0,9.36,3.3q6,1.65,15.62,4.2,2.88,0.6,8,2.18a37.7,37.7,0,0,1,10.15,5,31.42,31.42,0,0,1,8.71,9.23Q81,473.4,81,482.4A33.92,33.92,0,0,1,78.26,496a29.52,29.52,0,0,1-8.14,10.88A38.55,38.55,0,0,1,56.74,514a61,61,0,0,1-18.5,2.55,62.55,62.55,0,0,1-16.49-2.18A40.69,40.69,0,0,1,7.63,507.6a33.34,33.34,0,0,1-9.72-11.85,36.59,36.59,0,0,1-3.46-17.1H16.34A20.32,20.32,0,0,0,18.22,487.8Z"/><path d="M120.74,436.65V450.9h-15v38.4q0,5.4,1.73,7.2t6.91,1.8q1.73,0,3.31-.15a26.9,26.9,0,0,0,3-.45v16.5a46.86,46.86,0,0,1-5.76.6q-3.17.15-6.19,0.15a57.31,57.31,0,0,1-9-.67,20.64,20.64,0,0,1-7.49-2.62,13.64,13.64,0,0,1-5.11-5.55,20.5,20.5,0,0,1-1.87-9.45V450.9H72.93V436.65H85.32V413.4h20.45v23.25h15Z"/><path d="M137.59,436.65V451h0.29a26.34,26.34,0,0,1,3.89-6.67,25.88,25.88,0,0,1,5.62-5.25,27,27,0,0,1,6.77-3.37,23.54,23.54,0,0,1,7.49-1.2,15.41,15.41,0,0,1,4.46.75v19.8q-1.44-.3-3.46-0.53a35.14,35.14,0,0,0-3.89-.22,21.06,21.06,0,0,0-9.5,1.95,16.63,16.63,0,0,0-6.26,5.33,21.76,21.76,0,0,0-3.38,7.88,44.53,44.53,0,0,0-1,9.75V514.2H118.15V436.65h19.44Z"/><path d="M162.36,424.65V407.1H182.8v17.55H162.36Zm20.45,12V514.2H162.36V436.65H182.8Z"/><path d="M206,436.65v9.9h0.29a22.87,22.87,0,0,1,9.5-9.15,28.19,28.19,0,0,1,12.67-2.85A31.19,31.19,0,0,1,243.57,438a31.6,31.6,0,0,1,10.51,9.15,39.4,39.4,0,0,1,6.19,13.27,61.32,61.32,0,0,1,2,15.83,55.4,55.4,0,0,1-2,15A38.83,38.83,0,0,1,254.15,504a30.63,30.63,0,0,1-10.22,8.85,29.77,29.77,0,0,1-14.33,3.3,28,28,0,0,1-12.74-2.92,24.42,24.42,0,0,1-9.58-8.62H207v36.75H186.55V436.65H206Zm26.57,61.5a16.72,16.72,0,0,0,5.47-5.48,23.14,23.14,0,0,0,3-7.87,48.4,48.4,0,0,0,.86-9.15,44.89,44.89,0,0,0-.94-9.15,25,25,0,0,0-3.1-8,17.65,17.65,0,0,0-5.54-5.7A15,15,0,0,0,224,450.6a15.29,15.29,0,0,0-8.42,2.17,17.16,17.16,0,0,0-5.47,5.63,23.93,23.93,0,0,0-3,8,49.21,49.21,0,0,0-.86,9.3,44.7,44.7,0,0,0,.94,9.15,24.19,24.19,0,0,0,3,7.88,16.46,16.46,0,0,0,5.54,5.48A17.8,17.8,0,0,0,232.56,498.15Z"/><path d="M284,495.6q4.61,4.65,13.25,4.65A17.7,17.7,0,0,0,307.94,497q4.46-3.22,5.47-6.83h18q-4.32,14-13.25,20t-21.6,6a41,41,0,0,1-15.84-2.92,32.87,32.87,0,0,1-12-8.33,37.74,37.74,0,0,1-7.56-12.9,49,49,0,0,1-2.66-16.5,46.91,46.91,0,0,1,2.74-16.2,38.26,38.26,0,0,1,7.78-13,36.6,36.6,0,0,1,12-8.62,37.22,37.22,0,0,1,15.48-3.15,34.23,34.23,0,0,1,16.56,3.83,33.48,33.48,0,0,1,11.59,10.27,43.09,43.09,0,0,1,6.55,14.7,57,57,0,0,1,1.44,17.25H279Q279.43,490.95,284,495.6Zm23.11-40.8q-3.67-4.2-11.16-4.2a17.2,17.2,0,0,0-8.14,1.72,15.63,15.63,0,0,0-5.18,4.28,15.89,15.89,0,0,0-2.74,5.4,25.19,25.19,0,0,0-.94,5.1h33.26Q310.82,459,307.15,454.8Z"/><path d="M349.62,494.92a12.28,12.28,0,0,0,3.53,4.05,14.82,14.82,0,0,0,5,2.32A22.44,22.44,0,0,0,364,502a20.94,20.94,0,0,0,4.54-.52,15,15,0,0,0,4.32-1.65,10,10,0,0,0,3.24-3,8.12,8.12,0,0,0,1.3-4.73q0-4.8-6.12-7.2a118.82,118.82,0,0,0-17.06-4.8q-4.46-1-8.71-2.48a29.16,29.16,0,0,1-7.56-3.75,17.9,17.9,0,0,1-5.33-5.85,17.11,17.11,0,0,1-2-8.62q0-7.5,2.81-12.3a21.13,21.13,0,0,1,7.42-7.58,31.7,31.7,0,0,1,10.37-3.9,61.45,61.45,0,0,1,11.81-1.12,56.76,56.76,0,0,1,11.74,1.2,30.38,30.38,0,0,1,10.15,4,23.82,23.82,0,0,1,7.42,7.58,26.22,26.22,0,0,1,3.53,11.92H376.34q-0.43-6.15-4.46-8.32a19.75,19.75,0,0,0-9.5-2.18,33.92,33.92,0,0,0-3.74.23,12.09,12.09,0,0,0-3.67,1,7.61,7.61,0,0,0-2.81,2.17,6.6,6.6,0,0,0,.86,8.48,15.34,15.34,0,0,0,5.26,2.92,63.54,63.54,0,0,0,7.42,2q4.17,0.9,8.5,1.95a84.41,84.41,0,0,1,8.71,2.55,28.3,28.3,0,0,1,7.56,4,19,19,0,0,1,5.33,6.15,18.67,18.67,0,0,1,2,9.07,25.57,25.57,0,0,1-3,12.83,24.2,24.2,0,0,1-7.7,8.32,30.83,30.83,0,0,1-10.87,4.43,61.06,61.06,0,0,1-12.46,1.27,59.31,59.31,0,0,1-12.67-1.35,32.66,32.66,0,0,1-11-4.5A25.24,25.24,0,0,1,332.2,502a26.88,26.88,0,0,1-3.38-13h19.44A12.05,12.05,0,0,0,349.62,494.92Z"/><path d="M420.83,491.1v23.1H398.22V491.1h22.61Z"/><path d="M1.89,557.9v-4H6.53v4H1.89Zm4.63,2.72V578.2H1.89V560.62H6.53Z"/><path d="M11.93,573.83a2.78,2.78,0,0,0,.8.92,3.36,3.36,0,0,0,1.13.53,5.08,5.08,0,0,0,1.32.17,4.72,4.72,0,0,0,1-.12,3.4,3.4,0,0,0,1-.37,2.26,2.26,0,0,0,.73-0.68,1.84,1.84,0,0,0,.29-1.07,1.79,1.79,0,0,0-1.39-1.63A26.93,26.93,0,0,0,13,570.48q-1-.24-2-0.56a6.62,6.62,0,0,1-1.71-.85,4.05,4.05,0,0,1-1.21-1.33,3.88,3.88,0,0,1-.46-2A5.47,5.47,0,0,1,8.24,563a4.79,4.79,0,0,1,1.68-1.72,7.19,7.19,0,0,1,2.35-.88,13.94,13.94,0,0,1,2.68-.25,12.87,12.87,0,0,1,2.66.27,6.89,6.89,0,0,1,2.3.92,5.4,5.4,0,0,1,1.68,1.72,5.94,5.94,0,0,1,.8,2.7H18a2.13,2.13,0,0,0-1-1.89,4.48,4.48,0,0,0-2.15-.49,7.64,7.64,0,0,0-.85.05,2.73,2.73,0,0,0-.83.22,1.72,1.72,0,0,0-.64.49,1.5,1.5,0,0,0,.2,1.92,3.47,3.47,0,0,0,1.19.66,14.44,14.44,0,0,0,1.68.46l1.93,0.44a19,19,0,0,1,2,.58,6.41,6.41,0,0,1,1.71.9,4.3,4.3,0,0,1,1.21,1.39,4.23,4.23,0,0,1,.46,2.06,5.79,5.79,0,0,1-.67,2.91,5.48,5.48,0,0,1-1.75,1.89,7,7,0,0,1-2.46,1,13.83,13.83,0,0,1-2.82.29,13.43,13.43,0,0,1-2.87-.31,7.41,7.41,0,0,1-2.5-1A5.72,5.72,0,0,1,8,575.43a6.09,6.09,0,0,1-.77-2.94h4.41A2.73,2.73,0,0,0,11.93,573.83Z"/><path d="M30.13,566a5.77,5.77,0,0,1,.82-2.82,5.67,5.67,0,0,1,1.83-1.8,7.77,7.77,0,0,1,2.5-1,13.67,13.67,0,0,1,2.79-.29,18.2,18.2,0,0,1,2.58.19,7.66,7.66,0,0,1,2.38.73,4.75,4.75,0,0,1,1.76,1.51,4.36,4.36,0,0,1,.69,2.57v9.15a19,19,0,0,0,.13,2.28,4.23,4.23,0,0,0,.46,1.63h-4.7a7,7,0,0,1-.21-0.83A7.51,7.51,0,0,1,41,576.5a6,6,0,0,1-2.61,1.67,10.11,10.11,0,0,1-3.07.48,8,8,0,0,1-2.25-.31,5.08,5.08,0,0,1-1.83-1A4.4,4.4,0,0,1,30,575.75a5.71,5.71,0,0,1-.44-2.35,5.3,5.3,0,0,1,.51-2.46,4.36,4.36,0,0,1,1.31-1.55,5.75,5.75,0,0,1,1.83-.87,19,19,0,0,1,2.07-.46q1-.17,2.06-0.27a11.87,11.87,0,0,0,1.79-.31,3.07,3.07,0,0,0,1.24-.59,1.33,1.33,0,0,0,.42-1.14,2.65,2.65,0,0,0-.24-1.24,1.85,1.85,0,0,0-.65-0.71,2.51,2.51,0,0,0-.95-0.34,7.52,7.52,0,0,0-1.16-.08,3.42,3.42,0,0,0-2.15.61,2.77,2.77,0,0,0-.91,2H30.13Zm10.71,3.57a2.05,2.05,0,0,1-.73.42,7.23,7.23,0,0,1-.95.25q-0.51.1-1.06,0.17t-1.11.17a8.15,8.15,0,0,0-1,.27,3,3,0,0,0-.88.46,2.16,2.16,0,0,0-.6.73,2.43,2.43,0,0,0-.23,1.12,2.35,2.35,0,0,0,.23,1.09,1.8,1.8,0,0,0,.62.7,2.56,2.56,0,0,0,.91.36,5.61,5.61,0,0,0,1.08.1A4,4,0,0,0,39.2,575a3.13,3.13,0,0,0,1.11-1.14,3.75,3.75,0,0,0,.44-1.34,9.64,9.64,0,0,0,.08-1.09v-1.8Z"/><path d="M58.46,553.92v8.84h0.07a5,5,0,0,1,2.3-2,7.53,7.53,0,0,1,3-.63,6.21,6.21,0,0,1,2.51.54,6.45,6.45,0,0,1,2.24,1.67,8.61,8.61,0,0,1,1.62,2.87,14.3,14.3,0,0,1,0,8.33,8.61,8.61,0,0,1-1.62,2.87,6.45,6.45,0,0,1-2.24,1.67,6.21,6.21,0,0,1-2.51.54,8.58,8.58,0,0,1-3.33-.61A4.29,4.29,0,0,1,58.29,576H58.23v2.24H53.82V553.92h4.63ZM66,567.28a5.73,5.73,0,0,0-.72-1.8A3.84,3.84,0,0,0,64,564.24a3.65,3.65,0,0,0-3.54,0,3.79,3.79,0,0,0-1.24,1.24,5.72,5.72,0,0,0-.72,1.8,9.74,9.74,0,0,0-.23,2.14,9.58,9.58,0,0,0,.23,2.11,5.72,5.72,0,0,0,.72,1.8,3.78,3.78,0,0,0,1.24,1.24,3.65,3.65,0,0,0,3.54,0,3.83,3.83,0,0,0,1.22-1.24,5.73,5.73,0,0,0,.72-1.8,9.64,9.64,0,0,0,.23-2.11A9.8,9.8,0,0,0,66,567.28Z"/><path d="M76,560.62v3.26h0.07a6,6,0,0,1,.88-1.51,5.85,5.85,0,0,1,1.27-1.19,6.11,6.11,0,0,1,1.53-.77,5.34,5.34,0,0,1,1.7-.27,3.49,3.49,0,0,1,1,.17v4.49q-0.33-.07-0.78-0.12a7.91,7.91,0,0,0-.88-0.05,4.78,4.78,0,0,0-2.15.44,3.77,3.77,0,0,0-1.42,1.21,4.93,4.93,0,0,0-.77,1.79,10.11,10.11,0,0,0-.23,2.21v7.92H71.61V560.62H76Z"/><path d="M82,566a5.77,5.77,0,0,1,.82-2.82,5.67,5.67,0,0,1,1.83-1.8,7.77,7.77,0,0,1,2.5-1,13.67,13.67,0,0,1,2.79-.29,18.2,18.2,0,0,1,2.58.19,7.66,7.66,0,0,1,2.38.73,4.75,4.75,0,0,1,1.76,1.51,4.36,4.36,0,0,1,.69,2.57v9.15a19,19,0,0,0,.13,2.28,4.23,4.23,0,0,0,.46,1.63h-4.7a7,7,0,0,1-.21-0.83,7.51,7.51,0,0,1-.11-0.87,6,6,0,0,1-2.61,1.67,10.11,10.11,0,0,1-3.07.48,8,8,0,0,1-2.25-.31,5.08,5.08,0,0,1-1.83-1,4.4,4.4,0,0,1-1.22-1.63,5.71,5.71,0,0,1-.44-2.35,5.3,5.3,0,0,1,.51-2.46,4.36,4.36,0,0,1,1.31-1.55,5.75,5.75,0,0,1,1.83-.87,19,19,0,0,1,2.07-.46q1-.17,2.06-0.27a11.87,11.87,0,0,0,1.79-.31,3.07,3.07,0,0,0,1.24-.59,1.33,1.33,0,0,0,.42-1.14,2.65,2.65,0,0,0-.24-1.24,1.85,1.85,0,0,0-.65-0.71,2.51,2.51,0,0,0-.95-0.34,7.52,7.52,0,0,0-1.16-.08,3.42,3.42,0,0,0-2.15.61,2.77,2.77,0,0,0-.91,2H82Zm10.71,3.57a2.05,2.05,0,0,1-.73.42,7.23,7.23,0,0,1-.95.25q-0.51.1-1.06,0.17t-1.11.17a8.15,8.15,0,0,0-1,.27,3,3,0,0,0-.88.46,2.16,2.16,0,0,0-.6.73,2.43,2.43,0,0,0-.23,1.12,2.35,2.35,0,0,0,.23,1.09,1.8,1.8,0,0,0,.62.7,2.56,2.56,0,0,0,.91.36,5.61,5.61,0,0,0,1.08.1A4,4,0,0,0,91,575a3.13,3.13,0,0,0,1.11-1.14,3.75,3.75,0,0,0,.44-1.34,9.64,9.64,0,0,0,.08-1.09v-1.8Z"/><path d="M103.14,560.62v2.45h0.1a5.41,5.41,0,0,1,2.28-2.23,6.39,6.39,0,0,1,2.87-.7,7.6,7.6,0,0,1,3.05.53,4.55,4.55,0,0,1,1.88,1.46,5.78,5.78,0,0,1,1,2.28,14.77,14.77,0,0,1,.28,3V578.2h-4.63v-9.93a6.38,6.38,0,0,0-.65-3.25A2.49,2.49,0,0,0,107,564a3.15,3.15,0,0,0-2.74,1.17,6.73,6.73,0,0,0-.85,3.86v9.21H98.73V560.62h4.41Z"/><path d="M127.91,576a4.86,4.86,0,0,1-2.14,2.06,6.87,6.87,0,0,1-3,.63,7,7,0,0,1-3.33-.77,6.76,6.76,0,0,1-2.37-2.07,9.58,9.58,0,0,1-1.4-3,13.13,13.13,0,0,1-.47-3.54,12.33,12.33,0,0,1,.47-3.42,9,9,0,0,1,1.4-2.91,7.08,7.08,0,0,1,2.33-2,6.72,6.72,0,0,1,3.26-.76,6.41,6.41,0,0,1,2.86.66,5,5,0,0,1,2.14,2h0.06v-8.84h4.63V578.2H128V576h-0.07Zm-0.2-8.69a5.24,5.24,0,0,0-.67-1.77,3.84,3.84,0,0,0-1.22-1.24,3.47,3.47,0,0,0-1.89-.48,3.5,3.5,0,0,0-3.18,1.73,5.68,5.68,0,0,0-.69,1.79,10,10,0,0,0-.21,2.09,9.31,9.31,0,0,0,.23,2,5.69,5.69,0,0,0,.73,1.82,4.15,4.15,0,0,0,1.27,1.29,3.34,3.34,0,0,0,1.84.49,3.37,3.37,0,0,0,3.13-1.75,5.86,5.86,0,0,0,.65-1.82,11.13,11.13,0,0,0,.2-2.11A10.87,10.87,0,0,0,127.72,567.27Z"/><path d="M149.91,560.62v3.23h-3.39v8.7a2.44,2.44,0,0,0,.39,1.63,2.2,2.2,0,0,0,1.57.41q0.39,0,.75,0a6.19,6.19,0,0,0,.69-0.1v3.74a10.59,10.59,0,0,1-1.31.14q-0.72,0-1.4,0a13,13,0,0,1-2-.15,4.69,4.69,0,0,1-1.7-.59,3.09,3.09,0,0,1-1.16-1.26,4.64,4.64,0,0,1-.42-2.14V563.85h-2.81v-3.23h2.81v-5.27h4.63v5.27h3.39Z"/><path d="M154.61,553.92v9.15h0.1a5.47,5.47,0,0,1,2.25-2.23,5.89,5.89,0,0,1,2.68-.7,7.6,7.6,0,0,1,3.05.53,4.55,4.55,0,0,1,1.88,1.46,5.78,5.78,0,0,1,1,2.28,14.77,14.77,0,0,1,.28,3V578.2h-4.63v-9.93a6.38,6.38,0,0,0-.65-3.25A2.49,2.49,0,0,0,158.2,564a3.15,3.15,0,0,0-2.74,1.17,6.73,6.73,0,0,0-.85,3.86v9.21H150V553.92h4.63Z"/><path d="M167,566a5.77,5.77,0,0,1,.82-2.82,5.67,5.67,0,0,1,1.83-1.8,7.77,7.77,0,0,1,2.5-1,13.67,13.67,0,0,1,2.79-.29,18.2,18.2,0,0,1,2.58.19,7.66,7.66,0,0,1,2.38.73,4.75,4.75,0,0,1,1.76,1.51,4.36,4.36,0,0,1,.69,2.57v9.15a19,19,0,0,0,.13,2.28,4.23,4.23,0,0,0,.46,1.63h-4.7a7,7,0,0,1-.21-0.83,7.51,7.51,0,0,1-.11-0.87,6,6,0,0,1-2.61,1.67,10.11,10.11,0,0,1-3.07.48,8,8,0,0,1-2.25-.31,5.08,5.08,0,0,1-1.83-1,4.4,4.4,0,0,1-1.22-1.63,5.71,5.71,0,0,1-.44-2.35,5.3,5.3,0,0,1,.51-2.46,4.36,4.36,0,0,1,1.31-1.55,5.75,5.75,0,0,1,1.83-.87,19,19,0,0,1,2.07-.46q1-.17,2.06-0.27a11.87,11.87,0,0,0,1.79-.31,3.07,3.07,0,0,0,1.24-.59,1.33,1.33,0,0,0,.42-1.14,2.65,2.65,0,0,0-.24-1.24,1.85,1.85,0,0,0-.65-0.71,2.51,2.51,0,0,0-.95-0.34,7.52,7.52,0,0,0-1.16-.08,3.42,3.42,0,0,0-2.15.61,2.77,2.77,0,0,0-.91,2H167Zm10.71,3.57a2.05,2.05,0,0,1-.73.42,7.23,7.23,0,0,1-.95.25q-0.51.1-1.06,0.17t-1.11.17a8.15,8.15,0,0,0-1,.27,3,3,0,0,0-.88.46,2.16,2.16,0,0,0-.6.73,2.43,2.43,0,0,0-.23,1.12,2.35,2.35,0,0,0,.23,1.09,1.8,1.8,0,0,0,.62.7,2.56,2.56,0,0,0,.91.36,5.61,5.61,0,0,0,1.08.1,4,4,0,0,0,2.12-.48,3.13,3.13,0,0,0,1.11-1.14,3.75,3.75,0,0,0,.44-1.34,9.64,9.64,0,0,0,.08-1.09v-1.8Z"/><path d="M193,560.62v3.23h-3.39v8.7a2.44,2.44,0,0,0,.39,1.63,2.2,2.2,0,0,0,1.57.41q0.39,0,.75,0a6.19,6.19,0,0,0,.69-0.1v3.74a10.59,10.59,0,0,1-1.31.14q-0.72,0-1.4,0a13,13,0,0,1-2-.15,4.69,4.69,0,0,1-1.7-.59,3.09,3.09,0,0,1-1.16-1.26,4.64,4.64,0,0,1-.42-2.14V563.85h-2.81v-3.23H185v-5.27h4.63v5.27H193Z"/><path d="M203.91,573.83a2.78,2.78,0,0,0,.8.92,3.36,3.36,0,0,0,1.13.53,5.08,5.08,0,0,0,1.32.17,4.72,4.72,0,0,0,1-.12,3.4,3.4,0,0,0,1-.37,2.26,2.26,0,0,0,.73-0.68,1.84,1.84,0,0,0,.29-1.07,1.79,1.79,0,0,0-1.39-1.63,26.93,26.93,0,0,0-3.87-1.09q-1-.24-2-0.56a6.62,6.62,0,0,1-1.71-.85,4.05,4.05,0,0,1-1.21-1.33,3.88,3.88,0,0,1-.46-2,5.47,5.47,0,0,1,.64-2.79,4.79,4.79,0,0,1,1.68-1.72,7.19,7.19,0,0,1,2.35-.88,13.94,13.94,0,0,1,2.68-.25,12.87,12.87,0,0,1,2.66.27,6.89,6.89,0,0,1,2.3.92,5.4,5.4,0,0,1,1.68,1.72,5.94,5.94,0,0,1,.8,2.7H210a2.13,2.13,0,0,0-1-1.89,4.48,4.48,0,0,0-2.15-.49,7.64,7.64,0,0,0-.85.05,2.73,2.73,0,0,0-.83.22,1.72,1.72,0,0,0-.64.49,1.5,1.5,0,0,0,.2,1.92,3.47,3.47,0,0,0,1.19.66,14.44,14.44,0,0,0,1.68.46l1.93,0.44a19,19,0,0,1,2,.58,6.41,6.41,0,0,1,1.71.9,4.3,4.3,0,0,1,1.21,1.39,4.23,4.23,0,0,1,.46,2.06,5.79,5.79,0,0,1-.67,2.91,5.48,5.48,0,0,1-1.75,1.89,7,7,0,0,1-2.46,1,13.83,13.83,0,0,1-2.82.29,13.43,13.43,0,0,1-2.87-.31,7.41,7.41,0,0,1-2.5-1,5.72,5.72,0,0,1-1.8-1.89,6.09,6.09,0,0,1-.77-2.94h4.41A2.73,2.73,0,0,0,203.91,573.83Z"/><path d="M220.35,574a4.6,4.6,0,0,0,5.42.32,3,3,0,0,0,1.24-1.55h4.08a8.07,8.07,0,0,1-3,4.52,8.57,8.57,0,0,1-4.9,1.36,9.3,9.3,0,0,1-3.59-.66,7.45,7.45,0,0,1-2.71-1.89,8.55,8.55,0,0,1-1.71-2.92,11.1,11.1,0,0,1-.6-3.74,10.64,10.64,0,0,1,.62-3.67,8.67,8.67,0,0,1,1.76-2.94,8.3,8.3,0,0,1,2.73-2,8.43,8.43,0,0,1,3.51-.71,7.76,7.76,0,0,1,3.75.87,7.59,7.59,0,0,1,2.63,2.33,9.77,9.77,0,0,1,1.48,3.33,12.93,12.93,0,0,1,.33,3.91H219.21A5,5,0,0,0,220.35,574Zm5.24-9.25a3.18,3.18,0,0,0-2.53-1,3.9,3.9,0,0,0-1.84.39,3.55,3.55,0,0,0-1.18,1,3.61,3.61,0,0,0-.62,1.22,5.74,5.74,0,0,0-.21,1.16h7.54A5.69,5.69,0,0,0,225.59,564.73Z"/><path d="M236.73,553.92V578.2H232.1V553.92h4.63Z"/><path d="M243,553.92V578.2h-4.63V553.92H243Z"/><path d="M248.4,573.83a2.78,2.78,0,0,0,.8.92,3.36,3.36,0,0,0,1.13.53,5.08,5.08,0,0,0,1.32.17,4.72,4.72,0,0,0,1-.12,3.4,3.4,0,0,0,1-.37,2.26,2.26,0,0,0,.73-0.68,1.84,1.84,0,0,0,.29-1.07,1.79,1.79,0,0,0-1.39-1.63,26.93,26.93,0,0,0-3.87-1.09q-1-.24-2-0.56a6.62,6.62,0,0,1-1.71-.85,4.05,4.05,0,0,1-1.21-1.33,3.88,3.88,0,0,1-.46-2,5.47,5.47,0,0,1,.64-2.79,4.79,4.79,0,0,1,1.68-1.72,7.19,7.19,0,0,1,2.35-.88,13.94,13.94,0,0,1,2.68-.25,12.87,12.87,0,0,1,2.66.27,6.89,6.89,0,0,1,2.3.92,5.4,5.4,0,0,1,1.68,1.72,5.94,5.94,0,0,1,.8,2.7h-4.41a2.13,2.13,0,0,0-1-1.89,4.48,4.48,0,0,0-2.15-.49,7.64,7.64,0,0,0-.85.05,2.73,2.73,0,0,0-.83.22,1.72,1.72,0,0,0-.64.49,1.5,1.5,0,0,0,.2,1.92,3.47,3.47,0,0,0,1.19.66,14.44,14.44,0,0,0,1.68.46l1.93,0.44a19,19,0,0,1,2,.58,6.41,6.41,0,0,1,1.71.9,4.3,4.3,0,0,1,1.21,1.39,4.23,4.23,0,0,1,.46,2.06,5.79,5.79,0,0,1-.67,2.91,5.48,5.48,0,0,1-1.75,1.89,7,7,0,0,1-2.46,1,13.83,13.83,0,0,1-2.82.29,13.43,13.43,0,0,1-2.87-.31,7.41,7.41,0,0,1-2.5-1,5.72,5.72,0,0,1-1.8-1.89,6.09,6.09,0,0,1-.77-2.94h4.41A2.73,2.73,0,0,0,248.4,573.83Z"/><path d="M266.89,565.6a8.28,8.28,0,0,1,1.76-2.92,7.87,7.87,0,0,1,2.74-1.87,9.29,9.29,0,0,1,3.59-.66,9.41,9.41,0,0,1,3.61.66,7.84,7.84,0,0,1,2.76,1.87,8.29,8.29,0,0,1,1.76,2.92,11.21,11.21,0,0,1,.62,3.83,11.06,11.06,0,0,1-.62,3.81,8.31,8.31,0,0,1-1.76,2.91,7.65,7.65,0,0,1-2.76,1.85,9.65,9.65,0,0,1-3.61.65,9.52,9.52,0,0,1-3.59-.65,7.68,7.68,0,0,1-2.74-1.85,8.3,8.3,0,0,1-1.76-2.91,11,11,0,0,1-.62-3.81A11.19,11.19,0,0,1,266.89,565.6Zm4.21,5.88a5.62,5.62,0,0,0,.67,1.8,3.63,3.63,0,0,0,1.26,1.27,3.71,3.71,0,0,0,2,.48,3.8,3.8,0,0,0,2-.48,3.59,3.59,0,0,0,1.27-1.27,5.63,5.63,0,0,0,.67-1.8,10.72,10.72,0,0,0,.2-2.06,11,11,0,0,0-.2-2.07,5.43,5.43,0,0,0-.67-1.8,3.79,3.79,0,0,0-1.27-1.28,3.7,3.7,0,0,0-2-.49,3.62,3.62,0,0,0-2,.49,3.83,3.83,0,0,0-1.26,1.28,5.42,5.42,0,0,0-.67,1.8,11,11,0,0,0-.2,2.07A10.72,10.72,0,0,0,271.1,571.48Z"/><path d="M289,560.62v2.45h0.1a5.41,5.41,0,0,1,2.28-2.23,6.39,6.39,0,0,1,2.87-.7,7.6,7.6,0,0,1,3.05.53,4.55,4.55,0,0,1,1.88,1.46,5.78,5.78,0,0,1,1,2.28,14.77,14.77,0,0,1,.28,3V578.2h-4.63v-9.93a6.38,6.38,0,0,0-.65-3.25,2.49,2.49,0,0,0-2.32-1.07,3.15,3.15,0,0,0-2.74,1.17,6.73,6.73,0,0,0-.85,3.86v9.21h-4.63V560.62H289Z"/><path d="M306.55,553.92V578.2h-4.63V553.92h4.63Z"/><path d="M314.28,583.43a6.51,6.51,0,0,1-3.72.92q-0.72,0-1.42-.05l-1.42-.12v-4l1.34,0.14a9.25,9.25,0,0,0,1.37,0,1.78,1.78,0,0,0,1.35-.75,2.48,2.48,0,0,0,.44-1.43,3,3,0,0,0-.2-1.09l-5.91-16.49h4.93l3.82,12h0.06l3.69-12h4.8l-7.05,19.75A5.94,5.94,0,0,1,314.28,583.43Z"/><path d="M333.66,573.83a2.78,2.78,0,0,0,.8.92,3.36,3.36,0,0,0,1.13.53,5.08,5.08,0,0,0,1.32.17,4.72,4.72,0,0,0,1-.12,3.4,3.4,0,0,0,1-.37,2.26,2.26,0,0,0,.73-0.68,1.84,1.84,0,0,0,.29-1.07,1.79,1.79,0,0,0-1.39-1.63,26.93,26.93,0,0,0-3.87-1.09q-1-.24-2-0.56a6.62,6.62,0,0,1-1.71-.85,4.05,4.05,0,0,1-1.21-1.33,3.88,3.88,0,0,1-.46-2A5.47,5.47,0,0,1,330,563a4.79,4.79,0,0,1,1.68-1.72,7.19,7.19,0,0,1,2.35-.88,13.94,13.94,0,0,1,2.68-.25,12.87,12.87,0,0,1,2.66.27,6.89,6.89,0,0,1,2.3.92,5.4,5.4,0,0,1,1.68,1.72,5.94,5.94,0,0,1,.8,2.7h-4.41a2.13,2.13,0,0,0-1-1.89,4.48,4.48,0,0,0-2.15-.49,7.64,7.64,0,0,0-.85.05,2.73,2.73,0,0,0-.83.22,1.72,1.72,0,0,0-.64.49,1.5,1.5,0,0,0,.2,1.92,3.47,3.47,0,0,0,1.19.66,14.44,14.44,0,0,0,1.68.46l1.93,0.44a19,19,0,0,1,2,.58,6.41,6.41,0,0,1,1.71.9,4.3,4.3,0,0,1,1.21,1.39,4.23,4.23,0,0,1,.46,2.06,5.79,5.79,0,0,1-.67,2.91,5.48,5.48,0,0,1-1.75,1.89,7,7,0,0,1-2.46,1,13.83,13.83,0,0,1-2.82.29,13.43,13.43,0,0,1-2.87-.31,7.41,7.41,0,0,1-2.5-1,5.72,5.72,0,0,1-1.8-1.89,6.09,6.09,0,0,1-.77-2.94h4.41A2.73,2.73,0,0,0,333.66,573.83Z"/><path d="M354.4,560.62v3.23H351v8.7a2.44,2.44,0,0,0,.39,1.63,2.2,2.2,0,0,0,1.57.41q0.39,0,.75,0a6.19,6.19,0,0,0,.69-0.1v3.74a10.59,10.59,0,0,1-1.31.14q-0.72,0-1.4,0a13,13,0,0,1-2-.15,4.69,4.69,0,0,1-1.7-.59,3.09,3.09,0,0,1-1.16-1.26,4.64,4.64,0,0,1-.42-2.14V563.85h-2.81v-3.23h2.81v-5.27H351v5.27h3.39Z"/><path d="M358.87,560.62v3.26h0.07a6,6,0,0,1,.88-1.51,5.85,5.85,0,0,1,1.27-1.19,6.11,6.11,0,0,1,1.53-.77,5.34,5.34,0,0,1,1.7-.27,3.49,3.49,0,0,1,1,.17v4.49q-0.33-.07-0.78-0.12a7.91,7.91,0,0,0-.88-0.05,4.78,4.78,0,0,0-2.15.44,3.77,3.77,0,0,0-1.42,1.21,4.93,4.93,0,0,0-.77,1.79,10.11,10.11,0,0,0-.23,2.21v7.92h-4.63V560.62h4.41Z"/><path d="M365.14,557.9v-4h4.63v4h-4.63Zm4.63,2.72V578.2h-4.63V560.62h4.63Z"/><path d="M375.68,560.62v2.24h0.07a5.18,5.18,0,0,1,2.15-2.07,6.39,6.39,0,0,1,2.87-.65,7.07,7.07,0,0,1,3.43.78,7.16,7.16,0,0,1,2.38,2.07,8.93,8.93,0,0,1,1.4,3,13.89,13.89,0,0,1,.46,3.59A12.55,12.55,0,0,1,388,573a8.8,8.8,0,0,1-1.39,2.89,6.94,6.94,0,0,1-2.32,2,6.75,6.75,0,0,1-3.25.75,6.35,6.35,0,0,1-2.89-.66,5.53,5.53,0,0,1-2.17-2h-0.07v8.33h-4.63V560.62h4.41Zm6,13.94a3.79,3.79,0,0,0,1.24-1.24,5.25,5.25,0,0,0,.67-1.78,11,11,0,0,0,.2-2.07,10.15,10.15,0,0,0-.21-2.07,5.66,5.66,0,0,0-.7-1.82,4,4,0,0,0-1.26-1.29,3.41,3.41,0,0,0-1.88-.49,3.47,3.47,0,0,0-1.91.49,3.89,3.89,0,0,0-1.24,1.28,5.42,5.42,0,0,0-.67,1.8,11.13,11.13,0,0,0-.2,2.11,10.15,10.15,0,0,0,.21,2.07,5.48,5.48,0,0,0,.69,1.78,3.73,3.73,0,0,0,1.26,1.24A4,4,0,0,0,381.7,574.56Z"/><path d="M394,574a4.6,4.6,0,0,0,5.42.32,3,3,0,0,0,1.24-1.55h4.08a8.07,8.07,0,0,1-3,4.52,8.57,8.57,0,0,1-4.9,1.36,9.3,9.3,0,0,1-3.59-.66,7.45,7.45,0,0,1-2.71-1.89,8.55,8.55,0,0,1-1.71-2.92,11.1,11.1,0,0,1-.6-3.74,10.64,10.64,0,0,1,.62-3.67,8.67,8.67,0,0,1,1.76-2.94,8.3,8.3,0,0,1,2.73-2,8.43,8.43,0,0,1,3.51-.71,7.76,7.76,0,0,1,3.75.87,7.59,7.59,0,0,1,2.63,2.33,9.77,9.77,0,0,1,1.48,3.33,12.93,12.93,0,0,1,.33,3.91H392.88A5,5,0,0,0,394,574Zm5.24-9.25a3.18,3.18,0,0,0-2.53-1,3.9,3.9,0,0,0-1.84.39,3.55,3.55,0,0,0-1.18,1,3.61,3.61,0,0,0-.62,1.22,5.74,5.74,0,0,0-.21,1.16h7.54A5.69,5.69,0,0,0,399.26,564.73Z"/><path d="M417.62,576a4.86,4.86,0,0,1-2.14,2.06,6.87,6.87,0,0,1-3,.63,7,7,0,0,1-3.33-.77,6.76,6.76,0,0,1-2.37-2.07,9.58,9.58,0,0,1-1.4-3,13.13,13.13,0,0,1-.47-3.54,12.33,12.33,0,0,1,.47-3.42,9,9,0,0,1,1.4-2.91,7.08,7.08,0,0,1,2.33-2,6.72,6.72,0,0,1,3.26-.76,6.41,6.41,0,0,1,2.86.66,5,5,0,0,1,2.14,2h0.06v-8.84h4.63V578.2h-4.41V576h-0.07Zm-0.2-8.69a5.24,5.24,0,0,0-.67-1.77,3.84,3.84,0,0,0-1.22-1.24,3.47,3.47,0,0,0-1.89-.48,3.5,3.5,0,0,0-3.18,1.73,5.68,5.68,0,0,0-.69,1.79,10,10,0,0,0-.21,2.09,9.31,9.31,0,0,0,.23,2,5.69,5.69,0,0,0,.73,1.82,4.15,4.15,0,0,0,1.27,1.29,3.34,3.34,0,0,0,1.84.49,3.37,3.37,0,0,0,3.13-1.75,5.86,5.86,0,0,0,.65-1.82,11.13,11.13,0,0,0,.2-2.11A10.87,10.87,0,0,0,417.42,567.27Z"/><path d="M429,558.41v-4.49h19.09v4.49h-7V578.2H436V558.41h-7Z"/><path d="M453.72,566.84V571H443.9v-4.15h9.82Z"/><path d="M459.46,572.21a3.81,3.81,0,0,0,1.13,1.38,4.77,4.77,0,0,0,1.65.78,7.5,7.5,0,0,0,2,.25,9.77,9.77,0,0,0,1.47-.12,5,5,0,0,0,1.47-.46,3.23,3.23,0,0,0,1.14-.94,2.41,2.41,0,0,0,.46-1.51,2.18,2.18,0,0,0-.6-1.6,4.77,4.77,0,0,0-1.58-1,15.37,15.37,0,0,0-2.22-.71q-1.24-.31-2.51-0.68a21.46,21.46,0,0,1-2.55-.83,8.63,8.63,0,0,1-2.22-1.27,5.94,5.94,0,0,1-1.58-2,6.14,6.14,0,0,1-.6-2.84,6.57,6.57,0,0,1,.77-3.25,7.13,7.13,0,0,1,2-2.29,8.58,8.58,0,0,1,2.81-1.36,11.51,11.51,0,0,1,3.13-.44,14.27,14.27,0,0,1,3.51.42,8.6,8.6,0,0,1,3,1.38,6.89,6.89,0,0,1,2.07,2.43,7.71,7.71,0,0,1,.77,3.59h-5a4.45,4.45,0,0,0-.44-1.8,3,3,0,0,0-1-1.12,4.13,4.13,0,0,0-1.42-.58,8.41,8.41,0,0,0-1.75-.17,5.79,5.79,0,0,0-1.24.14,3.25,3.25,0,0,0-1.13.48,2.88,2.88,0,0,0-.83.85,2.35,2.35,0,0,0-.33,1.29,2.25,2.25,0,0,0,.26,1.16,2.34,2.34,0,0,0,1,.82,12.71,12.71,0,0,0,2.12.75l3.54,1q0.65,0.14,1.81.49a8.53,8.53,0,0,1,2.3,1.14,7.12,7.12,0,0,1,2,2.09,6.14,6.14,0,0,1,.83,3.35,7.69,7.69,0,0,1-.62,3.09,6.69,6.69,0,0,1-1.84,2.46,8.74,8.74,0,0,1-3,1.62,13.82,13.82,0,0,1-4.19.58,14.19,14.19,0,0,1-3.74-.49,9.23,9.23,0,0,1-3.2-1.55,7.56,7.56,0,0,1-2.2-2.69,8.29,8.29,0,0,1-.78-3.88h5A4.6,4.6,0,0,0,459.46,572.21Z"/><path d="M478.72,553.92v9.15h0.1a5.47,5.47,0,0,1,2.25-2.23,5.89,5.89,0,0,1,2.68-.7,7.6,7.6,0,0,1,3.05.53,4.55,4.55,0,0,1,1.88,1.46,5.78,5.78,0,0,1,1,2.28,14.77,14.77,0,0,1,.28,3V578.2h-4.63v-9.93a6.38,6.38,0,0,0-.65-3.25,2.49,2.49,0,0,0-2.32-1.07,3.15,3.15,0,0,0-2.74,1.17,6.73,6.73,0,0,0-.85,3.86v9.21h-4.63V553.92h4.63Z"/><path d="M491.42,557.9v-4h4.63v4h-4.63Zm4.63,2.72V578.2h-4.63V560.62h4.63Z"/><path d="M502,560.62v3.26H502a6,6,0,0,1,.88-1.51,5.85,5.85,0,0,1,1.27-1.19,6.11,6.11,0,0,1,1.53-.77,5.34,5.34,0,0,1,1.7-.27,3.49,3.49,0,0,1,1,.17v4.49q-0.33-.07-0.78-0.12a7.91,7.91,0,0,0-.88-0.05,4.78,4.78,0,0,0-2.15.44,3.77,3.77,0,0,0-1.42,1.21,4.93,4.93,0,0,0-.77,1.79,10.11,10.11,0,0,0-.23,2.21v7.92h-4.63V560.62H502Z"/><path d="M517.37,560.62v3.23H514v8.7a2.44,2.44,0,0,0,.39,1.63,2.2,2.2,0,0,0,1.57.41q0.39,0,.75,0a6.19,6.19,0,0,0,.69-0.1v3.74a10.59,10.59,0,0,1-1.31.14q-0.72,0-1.4,0a13,13,0,0,1-2-.15,4.69,4.69,0,0,1-1.7-.59,3.09,3.09,0,0,1-1.16-1.26,4.64,4.64,0,0,1-.42-2.14V563.85h-2.81v-3.23h2.81v-5.27H514v5.27h3.39Z"/><path d="M521.33,573.83a2.78,2.78,0,0,0,.8.92,3.36,3.36,0,0,0,1.13.53,5.08,5.08,0,0,0,1.32.17,4.72,4.72,0,0,0,1-.12,3.4,3.4,0,0,0,1-.37,2.26,2.26,0,0,0,.73-0.68,1.84,1.84,0,0,0,.29-1.07,1.79,1.79,0,0,0-1.39-1.63,26.93,26.93,0,0,0-3.87-1.09q-1-.24-2-0.56a6.62,6.62,0,0,1-1.71-.85,4.05,4.05,0,0,1-1.21-1.33,3.88,3.88,0,0,1-.46-2,5.47,5.47,0,0,1,.64-2.79,4.79,4.79,0,0,1,1.68-1.72,7.19,7.19,0,0,1,2.35-.88,13.94,13.94,0,0,1,2.68-.25,12.87,12.87,0,0,1,2.66.27,6.89,6.89,0,0,1,2.3.92,5.4,5.4,0,0,1,1.68,1.72,5.94,5.94,0,0,1,.8,2.7h-4.41a2.13,2.13,0,0,0-1-1.89,4.48,4.48,0,0,0-2.15-.49,7.64,7.64,0,0,0-.85.05,2.73,2.73,0,0,0-.83.22,1.72,1.72,0,0,0-.64.49,1.5,1.5,0,0,0,.2,1.92,3.47,3.47,0,0,0,1.19.66,14.44,14.44,0,0,0,1.68.46l1.93,0.44a19,19,0,0,1,2,.58,6.41,6.41,0,0,1,1.71.9,4.3,4.3,0,0,1,1.21,1.39,4.23,4.23,0,0,1,.46,2.06,5.79,5.79,0,0,1-.67,2.91,5.48,5.48,0,0,1-1.75,1.89,7,7,0,0,1-2.46,1,13.83,13.83,0,0,1-2.82.29,13.43,13.43,0,0,1-2.87-.31,7.41,7.41,0,0,1-2.5-1,5.72,5.72,0,0,1-1.8-1.89,6.09,6.09,0,0,1-.77-2.94H521A2.73,2.73,0,0,0,521.33,573.83Z"/><path d="M545.14,560.84a37,37,0,0,0-.85,7.91,38.25,38.25,0,0,0,.83,8,31.58,31.58,0,0,0,2.69,7.62H544a32.34,32.34,0,0,1-3.18-7.38,28.14,28.14,0,0,1-1.13-7.89,30.39,30.39,0,0,1,.28-4,34.69,34.69,0,0,1,.82-4.16,30.83,30.83,0,0,1,1.34-4,21,21,0,0,1,1.88-3.57h3.88A30.38,30.38,0,0,0,545.14,560.84Z"/><path d="M547,566a5.77,5.77,0,0,1,.82-2.82,5.67,5.67,0,0,1,1.83-1.8,7.77,7.77,0,0,1,2.5-1,13.67,13.67,0,0,1,2.79-.29,18.2,18.2,0,0,1,2.58.19,7.66,7.66,0,0,1,2.38.73,4.75,4.75,0,0,1,1.76,1.51,4.36,4.36,0,0,1,.69,2.57v9.15a19,19,0,0,0,.13,2.28,4.23,4.23,0,0,0,.46,1.63h-4.7a7,7,0,0,1-.21-0.83,7.51,7.51,0,0,1-.11-0.87,6,6,0,0,1-2.61,1.67,10.11,10.11,0,0,1-3.07.48,8,8,0,0,1-2.25-.31,5.08,5.08,0,0,1-1.83-1,4.4,4.4,0,0,1-1.22-1.63,5.71,5.71,0,0,1-.44-2.35,5.3,5.3,0,0,1,.51-2.46,4.36,4.36,0,0,1,1.31-1.55,5.75,5.75,0,0,1,1.83-.87,19,19,0,0,1,2.07-.46q1-.17,2.06-0.27a11.87,11.87,0,0,0,1.79-.31,3.07,3.07,0,0,0,1.24-.59,1.33,1.33,0,0,0,.42-1.14,2.65,2.65,0,0,0-.24-1.24,1.85,1.85,0,0,0-.65-0.71,2.51,2.51,0,0,0-.95-0.34,7.52,7.52,0,0,0-1.16-.08,3.42,3.42,0,0,0-2.15.61,2.77,2.77,0,0,0-.91,2H547Zm10.71,3.57a2.05,2.05,0,0,1-.73.42,7.23,7.23,0,0,1-.95.25q-0.51.1-1.06,0.17t-1.11.17a8.15,8.15,0,0,0-1,.27,3,3,0,0,0-.88.46,2.16,2.16,0,0,0-.6.73,2.43,2.43,0,0,0-.23,1.12,2.35,2.35,0,0,0,.23,1.09,1.8,1.8,0,0,0,.62.7,2.56,2.56,0,0,0,.91.36,5.61,5.61,0,0,0,1.08.1,4,4,0,0,0,2.12-.48,3.13,3.13,0,0,0,1.11-1.14,3.75,3.75,0,0,0,.44-1.34,9.64,9.64,0,0,0,.08-1.09v-1.8Z"/><path d="M568.22,560.62v2.45h0.1a5.41,5.41,0,0,1,2.28-2.23,6.39,6.39,0,0,1,2.87-.7,7.6,7.6,0,0,1,3.05.53,4.55,4.55,0,0,1,1.88,1.46,5.78,5.78,0,0,1,1,2.28,14.77,14.77,0,0,1,.28,3V578.2H575v-9.93a6.38,6.38,0,0,0-.65-3.25A2.49,2.49,0,0,0,572,564a3.15,3.15,0,0,0-2.74,1.17,6.73,6.73,0,0,0-.85,3.86v9.21h-4.63V560.62h4.41Z"/><path d="M593,576a4.86,4.86,0,0,1-2.14,2.06,6.87,6.87,0,0,1-3,.63,7,7,0,0,1-3.33-.77,6.76,6.76,0,0,1-2.37-2.07,9.58,9.58,0,0,1-1.4-3,13.13,13.13,0,0,1-.47-3.54,12.33,12.33,0,0,1,.47-3.42,9,9,0,0,1,1.4-2.91,7.08,7.08,0,0,1,2.33-2,6.72,6.72,0,0,1,3.26-.76,6.41,6.41,0,0,1,2.86.66,5,5,0,0,1,2.14,2h0.06v-8.84h4.63V578.2h-4.41V576H593Zm-0.2-8.69a5.24,5.24,0,0,0-.67-1.77,3.84,3.84,0,0,0-1.22-1.24,3.47,3.47,0,0,0-1.89-.48,3.5,3.5,0,0,0-3.18,1.73,5.68,5.68,0,0,0-.69,1.79,10,10,0,0,0-.21,2.09,9.31,9.31,0,0,0,.23,2,5.69,5.69,0,0,0,.73,1.82,4.15,4.15,0,0,0,1.27,1.29A3.34,3.34,0,0,0,589,575a3.37,3.37,0,0,0,3.13-1.75,5.86,5.86,0,0,0,.65-1.82,11.13,11.13,0,0,0,.2-2.11A10.87,10.87,0,0,0,592.8,567.27Z"/><path d="M609.62,573.83a2.78,2.78,0,0,0,.8.92,3.36,3.36,0,0,0,1.13.53,5.08,5.08,0,0,0,1.32.17,4.72,4.72,0,0,0,1-.12,3.4,3.4,0,0,0,1-.37,2.26,2.26,0,0,0,.73-0.68,1.84,1.84,0,0,0,.29-1.07,1.79,1.79,0,0,0-1.39-1.63,26.93,26.93,0,0,0-3.87-1.09q-1-.24-2-0.56a6.62,6.62,0,0,1-1.71-.85,4.05,4.05,0,0,1-1.21-1.33,3.88,3.88,0,0,1-.46-2,5.47,5.47,0,0,1,.64-2.79,4.79,4.79,0,0,1,1.68-1.72,7.19,7.19,0,0,1,2.35-.88,13.94,13.94,0,0,1,2.68-.25,12.87,12.87,0,0,1,2.66.27,6.89,6.89,0,0,1,2.3.92,5.4,5.4,0,0,1,1.68,1.72,5.94,5.94,0,0,1,.8,2.7h-4.41a2.13,2.13,0,0,0-1-1.89,4.48,4.48,0,0,0-2.15-.49,7.64,7.64,0,0,0-.85.05,2.73,2.73,0,0,0-.83.22,1.72,1.72,0,0,0-.64.49,1.5,1.5,0,0,0,.2,1.92,3.47,3.47,0,0,0,1.19.66,14.44,14.44,0,0,0,1.68.46l1.93,0.44a19,19,0,0,1,2,.58,6.41,6.41,0,0,1,1.71.9,4.3,4.3,0,0,1,1.21,1.39,4.23,4.23,0,0,1,.46,2.06,5.79,5.79,0,0,1-.67,2.91,5.48,5.48,0,0,1-1.75,1.89,7,7,0,0,1-2.46,1,13.83,13.83,0,0,1-2.82.29,13.43,13.43,0,0,1-2.87-.31,7.41,7.41,0,0,1-2.5-1,5.72,5.72,0,0,1-1.8-1.89,6.09,6.09,0,0,1-.77-2.94h4.41A2.73,2.73,0,0,0,609.62,573.83Z"/><path d="M621.19,565.6a8.28,8.28,0,0,1,1.76-2.92,7.87,7.87,0,0,1,2.74-1.87,9.29,9.29,0,0,1,3.59-.66,9.41,9.41,0,0,1,3.61.66,7.84,7.84,0,0,1,2.76,1.87,8.29,8.29,0,0,1,1.76,2.92,11.21,11.21,0,0,1,.62,3.83,11.06,11.06,0,0,1-.62,3.81,8.31,8.31,0,0,1-1.76,2.91,7.65,7.65,0,0,1-2.76,1.85,9.65,9.65,0,0,1-3.61.65,9.52,9.52,0,0,1-3.59-.65,7.68,7.68,0,0,1-2.74-1.85,8.3,8.3,0,0,1-1.76-2.91,11,11,0,0,1-.62-3.81A11.19,11.19,0,0,1,621.19,565.6Zm4.21,5.88a5.62,5.62,0,0,0,.67,1.8,3.63,3.63,0,0,0,1.26,1.27,3.71,3.71,0,0,0,2,.48,3.8,3.8,0,0,0,2-.48,3.59,3.59,0,0,0,1.27-1.27,5.63,5.63,0,0,0,.67-1.8,10.72,10.72,0,0,0,.2-2.06,11,11,0,0,0-.2-2.07,5.43,5.43,0,0,0-.67-1.8,3.79,3.79,0,0,0-1.27-1.28,3.7,3.7,0,0,0-2-.49,3.62,3.62,0,0,0-2,.49,3.83,3.83,0,0,0-1.26,1.28,5.42,5.42,0,0,0-.67,1.8,11,11,0,0,0-.2,2.07A10.72,10.72,0,0,0,625.4,571.48Z"/><path d="M646.95,563.78a3.16,3.16,0,0,0-1.86.53,4.12,4.12,0,0,0-1.22,1.36,6,6,0,0,0-.67,1.84,10.38,10.38,0,0,0-.2,2,10,10,0,0,0,.2,1.94,6.15,6.15,0,0,0,.64,1.79,3.74,3.74,0,0,0,1.19,1.31,3.18,3.18,0,0,0,1.83.51,3.32,3.32,0,0,0,2.56-1,4.67,4.67,0,0,0,1.13-2.6H655a8.08,8.08,0,0,1-2.61,5.34,8.21,8.21,0,0,1-5.52,1.84,8.91,8.91,0,0,1-3.48-.66,7.69,7.69,0,0,1-2.69-1.85,8.48,8.48,0,0,1-1.73-2.84,10.21,10.21,0,0,1-.62-3.62,12.16,12.16,0,0,1,.57-3.79,8.6,8.6,0,0,1,1.68-3,7.7,7.7,0,0,1,2.71-2,8.88,8.88,0,0,1,3.66-.71,10.17,10.17,0,0,1,2.89.41,7.58,7.58,0,0,1,2.48,1.24,6.56,6.56,0,0,1,1.78,2.07,6.82,6.82,0,0,1,.78,2.94h-4.54A3.15,3.15,0,0,0,646.95,563.78Z"/><path d="M660.52,553.92v13l5.84-6.32h5.48l-6.36,6.46,7.08,11.12H667l-4.63-7.85-1.8,1.8v6.05h-4.63V553.92h4.63Z"/><path d="M675.95,573.83a2.78,2.78,0,0,0,.8.92,3.36,3.36,0,0,0,1.13.53,5.08,5.08,0,0,0,1.32.17,4.72,4.72,0,0,0,1-.12,3.4,3.4,0,0,0,1-.37,2.26,2.26,0,0,0,.73-0.68,1.84,1.84,0,0,0,.29-1.07,1.79,1.79,0,0,0-1.39-1.63,26.93,26.93,0,0,0-3.87-1.09q-1-.24-2-0.56a6.62,6.62,0,0,1-1.71-.85,4.05,4.05,0,0,1-1.21-1.33,3.88,3.88,0,0,1-.46-2,5.47,5.47,0,0,1,.64-2.79,4.79,4.79,0,0,1,1.68-1.72,7.19,7.19,0,0,1,2.35-.88,13.94,13.94,0,0,1,2.68-.25,12.87,12.87,0,0,1,2.66.27,6.89,6.89,0,0,1,2.3.92,5.4,5.4,0,0,1,1.68,1.72,5.94,5.94,0,0,1,.8,2.7H682a2.13,2.13,0,0,0-1-1.89,4.48,4.48,0,0,0-2.15-.49,7.64,7.64,0,0,0-.85.05,2.73,2.73,0,0,0-.83.22,1.72,1.72,0,0,0-.64.49,1.5,1.5,0,0,0,.2,1.92,3.47,3.47,0,0,0,1.19.66,14.44,14.44,0,0,0,1.68.46l1.93,0.44a19,19,0,0,1,2,.58,6.41,6.41,0,0,1,1.71.9,4.3,4.3,0,0,1,1.21,1.39,4.23,4.23,0,0,1,.46,2.06,5.79,5.79,0,0,1-.67,2.91,5.48,5.48,0,0,1-1.75,1.89,7,7,0,0,1-2.46,1,13.83,13.83,0,0,1-2.82.29,13.43,13.43,0,0,1-2.87-.31,7.41,7.41,0,0,1-2.5-1,5.72,5.72,0,0,1-1.8-1.89,6.09,6.09,0,0,1-.77-2.94h4.41A2.73,2.73,0,0,0,675.95,573.83Z"/><path d="M688.12,576.89A35.9,35.9,0,0,0,689,569a38,38,0,0,0-.85-8,33.84,33.84,0,0,0-2.64-7.65h3.82a32.16,32.16,0,0,1,3.18,7.41,28.48,28.48,0,0,1,1.13,7.92,32.88,32.88,0,0,1-1.06,8.14,29.62,29.62,0,0,1-1.35,4,20.7,20.7,0,0,1-1.89,3.54h-3.85A32.78,32.78,0,0,0,688.12,576.89Z"/><path d="M11,596.62v3.23H7.64v8.7A2.44,2.44,0,0,0,8,610.19a2.2,2.2,0,0,0,1.57.41q0.39,0,.75,0a6.19,6.19,0,0,0,.69-0.1v3.74a10.59,10.59,0,0,1-1.31.14q-0.72,0-1.4,0a13,13,0,0,1-2-.15,4.69,4.69,0,0,1-1.7-.59,3.09,3.09,0,0,1-1.16-1.26A4.64,4.64,0,0,1,3,610.22V599.85H0.2v-3.23H3v-5.27H7.64v5.27H11Z"/><path d="M15.73,589.92v9.15h0.1a5.47,5.47,0,0,1,2.25-2.23,5.89,5.89,0,0,1,2.68-.7,7.6,7.6,0,0,1,3.05.53,4.55,4.55,0,0,1,1.88,1.46,5.78,5.78,0,0,1,1,2.28,14.77,14.77,0,0,1,.28,3V614.2H22.29v-9.93a6.38,6.38,0,0,0-.65-3.25A2.49,2.49,0,0,0,19.32,600a3.15,3.15,0,0,0-2.74,1.17,6.73,6.73,0,0,0-.85,3.86v9.21H11.1V589.92h4.63Z"/><path d="M28.1,602a5.77,5.77,0,0,1,.82-2.82,5.67,5.67,0,0,1,1.83-1.8,7.77,7.77,0,0,1,2.5-1,13.67,13.67,0,0,1,2.79-.29,18.2,18.2,0,0,1,2.58.19,7.66,7.66,0,0,1,2.38.73,4.75,4.75,0,0,1,1.76,1.51,4.36,4.36,0,0,1,.69,2.57v9.15a19,19,0,0,0,.13,2.28A4.23,4.23,0,0,0,44,614.2h-4.7a7,7,0,0,1-.21-0.83A7.51,7.51,0,0,1,39,612.5a6,6,0,0,1-2.61,1.67,10.11,10.11,0,0,1-3.07.48,8,8,0,0,1-2.25-.31,5.08,5.08,0,0,1-1.83-1A4.4,4.4,0,0,1,28,611.75a5.71,5.71,0,0,1-.44-2.35,5.3,5.3,0,0,1,.51-2.46,4.36,4.36,0,0,1,1.31-1.55,5.75,5.75,0,0,1,1.83-.87,19,19,0,0,1,2.07-.46q1-.17,2.06-0.27a11.87,11.87,0,0,0,1.79-.31,3.07,3.07,0,0,0,1.24-.59,1.33,1.33,0,0,0,.42-1.14,2.65,2.65,0,0,0-.24-1.24,1.85,1.85,0,0,0-.65-0.71,2.51,2.51,0,0,0-.95-0.34,7.52,7.52,0,0,0-1.16-.08,3.42,3.42,0,0,0-2.15.61,2.77,2.77,0,0,0-.91,2H28.1Zm10.71,3.57a2.05,2.05,0,0,1-.73.42,7.23,7.23,0,0,1-.95.25q-0.51.1-1.06,0.17t-1.11.17a8.15,8.15,0,0,0-1,.27,3,3,0,0,0-.88.46,2.16,2.16,0,0,0-.6.73,2.43,2.43,0,0,0-.23,1.12,2.35,2.35,0,0,0,.23,1.09,1.8,1.8,0,0,0,.62.7,2.56,2.56,0,0,0,.91.36,5.61,5.61,0,0,0,1.08.1,4,4,0,0,0,2.12-.48,3.13,3.13,0,0,0,1.11-1.14,3.75,3.75,0,0,0,.44-1.34,9.64,9.64,0,0,0,.08-1.09v-1.8Z"/><path d="M54.15,596.62v3.23H50.75v8.7a2.44,2.44,0,0,0,.39,1.63,2.2,2.2,0,0,0,1.57.41q0.39,0,.75,0a6.19,6.19,0,0,0,.69-0.1v3.74a10.59,10.59,0,0,1-1.31.14q-0.72,0-1.4,0a13,13,0,0,1-2-.15,4.69,4.69,0,0,1-1.7-.59,3.09,3.09,0,0,1-1.16-1.26,4.64,4.64,0,0,1-.42-2.14V599.85H43.31v-3.23h2.81v-5.27h4.63v5.27h3.39Z"/><path d="M75.66,614.2l-3-11.8H72.59l-2.87,11.8h-4.8l-5.35-17.58h4.9l3.1,11.93h0.06l2.81-11.93h4.5l2.87,11.9h0.07l3.1-11.9h4.77L80.42,614.2H75.66Z"/><path d="M85.35,602a5.77,5.77,0,0,1,.82-2.82A5.67,5.67,0,0,1,88,597.4a7.77,7.77,0,0,1,2.5-1,13.67,13.67,0,0,1,2.79-.29,18.2,18.2,0,0,1,2.58.19,7.66,7.66,0,0,1,2.38.73,4.75,4.75,0,0,1,1.76,1.51,4.36,4.36,0,0,1,.69,2.57v9.15a19,19,0,0,0,.13,2.28,4.23,4.23,0,0,0,.46,1.63h-4.7a7,7,0,0,1-.21-0.83,7.51,7.51,0,0,1-.11-0.87,6,6,0,0,1-2.61,1.67,10.11,10.11,0,0,1-3.07.48,8,8,0,0,1-2.25-.31,5.08,5.08,0,0,1-1.83-1,4.4,4.4,0,0,1-1.22-1.63,5.71,5.71,0,0,1-.44-2.35,5.3,5.3,0,0,1,.51-2.46,4.36,4.36,0,0,1,1.31-1.55,5.75,5.75,0,0,1,1.83-.87,19,19,0,0,1,2.07-.46q1-.17,2.06-0.27a11.87,11.87,0,0,0,1.79-.31,3.07,3.07,0,0,0,1.24-.59,1.33,1.33,0,0,0,.42-1.14,2.65,2.65,0,0,0-.24-1.24,1.85,1.85,0,0,0-.65-0.71,2.51,2.51,0,0,0-.95-0.34,7.52,7.52,0,0,0-1.16-.08,3.42,3.42,0,0,0-2.15.61,2.77,2.77,0,0,0-.91,2H85.35Zm10.71,3.57a2.05,2.05,0,0,1-.73.42,7.23,7.23,0,0,1-.95.25q-0.51.1-1.06,0.17t-1.11.17a8.15,8.15,0,0,0-1,.27,3,3,0,0,0-.88.46,2.16,2.16,0,0,0-.6.73,2.43,2.43,0,0,0-.23,1.12,2.35,2.35,0,0,0,.23,1.09,1.8,1.8,0,0,0,.62.7,2.56,2.56,0,0,0,.91.36,5.61,5.61,0,0,0,1.08.1,4,4,0,0,0,2.12-.48,3.13,3.13,0,0,0,1.11-1.14,3.75,3.75,0,0,0,.44-1.34,9.64,9.64,0,0,0,.08-1.09v-1.8Z"/><path d="M106,609.83a2.78,2.78,0,0,0,.8.92,3.36,3.36,0,0,0,1.13.53,5.08,5.08,0,0,0,1.32.17,4.72,4.72,0,0,0,1-.12,3.4,3.4,0,0,0,1-.37,2.26,2.26,0,0,0,.73-0.68,1.84,1.84,0,0,0,.29-1.07,1.79,1.79,0,0,0-1.39-1.63,26.93,26.93,0,0,0-3.87-1.09q-1-.24-2-0.56a6.62,6.62,0,0,1-1.71-.85,4.05,4.05,0,0,1-1.21-1.33,3.88,3.88,0,0,1-.46-2,5.47,5.47,0,0,1,.64-2.79,4.79,4.79,0,0,1,1.68-1.72,7.19,7.19,0,0,1,2.35-.88,13.94,13.94,0,0,1,2.68-.25,12.87,12.87,0,0,1,2.66.27,6.89,6.89,0,0,1,2.3.92,5.4,5.4,0,0,1,1.68,1.72,5.94,5.94,0,0,1,.8,2.7h-4.41a2.13,2.13,0,0,0-1-1.89,4.48,4.48,0,0,0-2.15-.49,7.64,7.64,0,0,0-.85.05,2.73,2.73,0,0,0-.83.22,1.72,1.72,0,0,0-.64.49,1.5,1.5,0,0,0,.2,1.92,3.47,3.47,0,0,0,1.19.66,14.44,14.44,0,0,0,1.68.46l1.93,0.44a19,19,0,0,1,2,.58,6.41,6.41,0,0,1,1.71.9,4.3,4.3,0,0,1,1.21,1.39,4.23,4.23,0,0,1,.46,2.06,5.79,5.79,0,0,1-.67,2.91,5.48,5.48,0,0,1-1.75,1.89,7,7,0,0,1-2.46,1,13.83,13.83,0,0,1-2.82.29,13.43,13.43,0,0,1-2.87-.31,7.41,7.41,0,0,1-2.5-1,5.72,5.72,0,0,1-1.8-1.89,6.09,6.09,0,0,1-.77-2.94h4.41A2.73,2.73,0,0,0,106,609.83Z"/><path d="M128.93,596.62V599H129a6.71,6.71,0,0,1,2.2-2.11,5.78,5.78,0,0,1,3-.75,6.57,6.57,0,0,1,2.92.65,4.21,4.21,0,0,1,2,2.28,7.34,7.34,0,0,1,2-2,5.27,5.27,0,0,1,3.05-.88,8.68,8.68,0,0,1,2.48.34,5,5,0,0,1,2,1.09,5,5,0,0,1,1.27,2,8.23,8.23,0,0,1,.46,2.91V614.2H145.7v-10q0-.88-0.07-1.67a3.66,3.66,0,0,0-.36-1.36,2.23,2.23,0,0,0-.87-0.92,3,3,0,0,0-1.55-.34,2.87,2.87,0,0,0-1.58.39,2.79,2.79,0,0,0-.95,1,4.21,4.21,0,0,0-.46,1.43,11.32,11.32,0,0,0-.11,1.61v9.79h-4.64v-9.86q0-.78,0-1.55a4.5,4.5,0,0,0-.28-1.41,2.16,2.16,0,0,0-.82-1,3,3,0,0,0-1.68-.39,3.35,3.35,0,0,0-.87.15,2.84,2.84,0,0,0-1,.58,3.37,3.37,0,0,0-.86,1.22,5.15,5.15,0,0,0-.36,2.09v10.2h-4.63V596.62h4.37Z"/><path d="M151.64,602a5.77,5.77,0,0,1,.82-2.82,5.67,5.67,0,0,1,1.83-1.8,7.77,7.77,0,0,1,2.5-1,13.67,13.67,0,0,1,2.79-.29,18.2,18.2,0,0,1,2.58.19,7.66,7.66,0,0,1,2.38.73,4.75,4.75,0,0,1,1.76,1.51,4.36,4.36,0,0,1,.69,2.57v9.15a19,19,0,0,0,.13,2.28,4.23,4.23,0,0,0,.46,1.63h-4.7a7,7,0,0,1-.21-0.83,7.51,7.51,0,0,1-.11-0.87,6,6,0,0,1-2.61,1.67,10.11,10.11,0,0,1-3.07.48,8,8,0,0,1-2.25-.31,5.08,5.08,0,0,1-1.83-1,4.4,4.4,0,0,1-1.22-1.63,5.71,5.71,0,0,1-.44-2.35,5.3,5.3,0,0,1,.51-2.46,4.36,4.36,0,0,1,1.31-1.55,5.75,5.75,0,0,1,1.83-.87,19,19,0,0,1,2.07-.46q1-.17,2.06-0.27a11.87,11.87,0,0,0,1.79-.31,3.07,3.07,0,0,0,1.24-.59,1.33,1.33,0,0,0,.42-1.14,2.65,2.65,0,0,0-.24-1.24,1.85,1.85,0,0,0-.65-0.71,2.51,2.51,0,0,0-.95-0.34,7.52,7.52,0,0,0-1.16-.08,3.42,3.42,0,0,0-2.15.61,2.77,2.77,0,0,0-.91,2h-4.63Zm10.71,3.57a2.05,2.05,0,0,1-.73.42,7.23,7.23,0,0,1-.95.25q-0.51.1-1.06,0.17t-1.11.17a8.15,8.15,0,0,0-1,.27,3,3,0,0,0-.88.46,2.16,2.16,0,0,0-.6.73,2.43,2.43,0,0,0-.23,1.12,2.35,2.35,0,0,0,.23,1.09,1.8,1.8,0,0,0,.62.7,2.56,2.56,0,0,0,.91.36,5.61,5.61,0,0,0,1.08.1,4,4,0,0,0,2.12-.48,3.13,3.13,0,0,0,1.11-1.14,3.75,3.75,0,0,0,.44-1.34,9.64,9.64,0,0,0,.08-1.09v-1.8Z"/><path d="M180.4,612a4.86,4.86,0,0,1-2.14,2.06,6.87,6.87,0,0,1-3,.63,7,7,0,0,1-3.33-.77,6.76,6.76,0,0,1-2.37-2.07,9.58,9.58,0,0,1-1.4-3,13.13,13.13,0,0,1-.47-3.54,12.33,12.33,0,0,1,.47-3.42,9,9,0,0,1,1.4-2.91,7.08,7.08,0,0,1,2.33-2,6.72,6.72,0,0,1,3.26-.76,6.41,6.41,0,0,1,2.86.66,5,5,0,0,1,2.14,2h0.06v-8.84h4.63V614.2h-4.41V612H180.4Zm-0.2-8.69a5.24,5.24,0,0,0-.67-1.77,3.84,3.84,0,0,0-1.22-1.24,3.47,3.47,0,0,0-1.89-.48,3.5,3.5,0,0,0-3.18,1.73,5.68,5.68,0,0,0-.69,1.79,10,10,0,0,0-.21,2.09,9.31,9.31,0,0,0,.23,2,5.69,5.69,0,0,0,.73,1.82,4.15,4.15,0,0,0,1.27,1.29,3.34,3.34,0,0,0,1.84.49,3.37,3.37,0,0,0,3.13-1.75,5.86,5.86,0,0,0,.65-1.82,11.13,11.13,0,0,0,.2-2.11A10.87,10.87,0,0,0,180.2,603.27Z"/><path d="M191.17,610a4.6,4.6,0,0,0,5.42.32,3,3,0,0,0,1.24-1.55h4.08a8.07,8.07,0,0,1-3,4.52,8.57,8.57,0,0,1-4.9,1.36,9.3,9.3,0,0,1-3.59-.66,7.45,7.45,0,0,1-2.71-1.89,8.55,8.55,0,0,1-1.71-2.92,11.1,11.1,0,0,1-.6-3.74,10.64,10.64,0,0,1,.62-3.67,8.67,8.67,0,0,1,1.76-2.94,8.3,8.3,0,0,1,2.73-2,8.43,8.43,0,0,1,3.51-.71,7.76,7.76,0,0,1,3.75.87,7.59,7.59,0,0,1,2.63,2.33,9.77,9.77,0,0,1,1.48,3.33,12.93,12.93,0,0,1,.33,3.91H190A5,5,0,0,0,191.17,610Zm5.24-9.25a3.18,3.18,0,0,0-2.53-1,3.9,3.9,0,0,0-1.84.39,3.55,3.55,0,0,0-1.18,1,3.61,3.61,0,0,0-.62,1.22,5.74,5.74,0,0,0-.21,1.16h7.54A5.69,5.69,0,0,0,196.41,600.73Z"/><path d="M214.34,589.92v8.84h0.07a5,5,0,0,1,2.3-2,7.53,7.53,0,0,1,3-.63,6.21,6.21,0,0,1,2.51.54,6.45,6.45,0,0,1,2.24,1.67,8.61,8.61,0,0,1,1.62,2.87,14.3,14.3,0,0,1,0,8.33,8.61,8.61,0,0,1-1.62,2.87,6.45,6.45,0,0,1-2.24,1.67,6.21,6.21,0,0,1-2.51.54,8.58,8.58,0,0,1-3.33-.61,4.29,4.29,0,0,1-2.22-2.07h-0.07v2.24h-4.41V589.92h4.63Zm7.51,13.36a5.73,5.73,0,0,0-.72-1.8,3.84,3.84,0,0,0-1.22-1.24,3.65,3.65,0,0,0-3.54,0,3.79,3.79,0,0,0-1.24,1.24,5.72,5.72,0,0,0-.72,1.8,9.74,9.74,0,0,0-.23,2.14,9.58,9.58,0,0,0,.23,2.11,5.72,5.72,0,0,0,.72,1.8,3.78,3.78,0,0,0,1.24,1.24,3.65,3.65,0,0,0,3.54,0,3.83,3.83,0,0,0,1.22-1.24,5.73,5.73,0,0,0,.72-1.8,9.64,9.64,0,0,0,.23-2.11A9.8,9.8,0,0,0,221.85,603.28Z"/><path d="M233.73,619.43a6.51,6.51,0,0,1-3.72.92q-0.72,0-1.42-.05l-1.42-.12v-4l1.34,0.14a9.25,9.25,0,0,0,1.37,0,1.78,1.78,0,0,0,1.35-.75,2.48,2.48,0,0,0,.44-1.43,3,3,0,0,0-.2-1.09l-5.91-16.49h4.93l3.82,12h0.06l3.69-12h4.8l-7.05,19.75A5.94,5.94,0,0,1,233.73,619.43Z"/><path d="M249.3,601.6a8.28,8.28,0,0,1,1.76-2.92,7.87,7.87,0,0,1,2.74-1.87,9.29,9.29,0,0,1,3.59-.66,9.41,9.41,0,0,1,3.61.66,7.84,7.84,0,0,1,2.76,1.87,8.29,8.29,0,0,1,1.76,2.92,11.21,11.21,0,0,1,.62,3.83,11.06,11.06,0,0,1-.62,3.81,8.31,8.31,0,0,1-1.76,2.91A7.65,7.65,0,0,1,261,614a9.65,9.65,0,0,1-3.61.65,9.52,9.52,0,0,1-3.59-.65,7.68,7.68,0,0,1-2.74-1.85,8.3,8.3,0,0,1-1.76-2.91,11,11,0,0,1-.62-3.81A11.19,11.19,0,0,1,249.3,601.6Zm4.21,5.88a5.62,5.62,0,0,0,.67,1.8,3.63,3.63,0,0,0,1.26,1.27,3.71,3.71,0,0,0,2,.48,3.8,3.8,0,0,0,2-.48,3.59,3.59,0,0,0,1.27-1.27,5.63,5.63,0,0,0,.67-1.8,10.72,10.72,0,0,0,.2-2.06,11,11,0,0,0-.2-2.07,5.43,5.43,0,0,0-.67-1.8,3.79,3.79,0,0,0-1.27-1.28,3.7,3.7,0,0,0-2-.49,3.62,3.62,0,0,0-2,.49,3.83,3.83,0,0,0-1.26,1.28,5.42,5.42,0,0,0-.67,1.8,11,11,0,0,0-.2,2.07A10.72,10.72,0,0,0,253.51,607.48Z"/><path d="M276.26,596.62v3.23h-3.39v8.7a2.44,2.44,0,0,0,.39,1.63,2.2,2.2,0,0,0,1.57.41q0.39,0,.75,0a6.19,6.19,0,0,0,.69-0.1v3.74a10.59,10.59,0,0,1-1.31.14q-0.72,0-1.4,0a13,13,0,0,1-2-.15,4.69,4.69,0,0,1-1.7-.59,3.09,3.09,0,0,1-1.16-1.26,4.64,4.64,0,0,1-.42-2.14V599.85h-2.81v-3.23h2.81v-5.27h4.63v5.27h3.39Z"/><path d="M281,589.92v9.15h0.1a5.47,5.47,0,0,1,2.25-2.23,5.89,5.89,0,0,1,2.68-.7,7.6,7.6,0,0,1,3.05.53,4.55,4.55,0,0,1,1.88,1.46,5.78,5.78,0,0,1,1,2.28,14.77,14.77,0,0,1,.28,3V614.2h-4.63v-9.93a6.38,6.38,0,0,0-.65-3.25,2.49,2.49,0,0,0-2.32-1.07,3.15,3.15,0,0,0-2.74,1.17A6.73,6.73,0,0,0,281,605v9.21h-4.63V589.92H281Z"/><path d="M298.49,610a4.6,4.6,0,0,0,5.42.32,3,3,0,0,0,1.24-1.55h4.08a8.07,8.07,0,0,1-3,4.52,8.57,8.57,0,0,1-4.9,1.36,9.3,9.3,0,0,1-3.59-.66,7.45,7.45,0,0,1-2.71-1.89,8.55,8.55,0,0,1-1.71-2.92,11.1,11.1,0,0,1-.6-3.74,10.64,10.64,0,0,1,.62-3.67,8.67,8.67,0,0,1,1.76-2.94,8.3,8.3,0,0,1,2.73-2,8.43,8.43,0,0,1,3.51-.71,7.76,7.76,0,0,1,3.75.87,7.59,7.59,0,0,1,2.63,2.33,9.77,9.77,0,0,1,1.48,3.33,12.93,12.93,0,0,1,.33,3.91H297.35A5,5,0,0,0,298.49,610Zm5.24-9.25a3.18,3.18,0,0,0-2.53-1,3.9,3.9,0,0,0-1.84.39,3.55,3.55,0,0,0-1.18,1,3.61,3.61,0,0,0-.62,1.22,5.74,5.74,0,0,0-.21,1.16h7.54A5.69,5.69,0,0,0,303.73,600.73Z"/><path d="M314.51,596.62v3.26h0.07a6,6,0,0,1,.88-1.51,5.85,5.85,0,0,1,1.27-1.19,6.11,6.11,0,0,1,1.53-.77,5.34,5.34,0,0,1,1.7-.27,3.49,3.49,0,0,1,1,.17v4.49q-0.33-.07-0.78-0.12a7.91,7.91,0,0,0-.88-0.05,4.78,4.78,0,0,0-2.15.44,3.77,3.77,0,0,0-1.42,1.21,4.93,4.93,0,0,0-.77,1.79,10.11,10.11,0,0,0-.23,2.21v7.92h-4.63V596.62h4.41Z"/><path d="M324.55,609.83a2.78,2.78,0,0,0,.8.92,3.36,3.36,0,0,0,1.13.53,5.08,5.08,0,0,0,1.32.17,4.72,4.72,0,0,0,1-.12,3.4,3.4,0,0,0,1-.37,2.26,2.26,0,0,0,.73-0.68,1.84,1.84,0,0,0,.29-1.07,1.79,1.79,0,0,0-1.39-1.63,26.93,26.93,0,0,0-3.87-1.09q-1-.24-2-0.56a6.62,6.62,0,0,1-1.71-.85,4.05,4.05,0,0,1-1.21-1.33,3.88,3.88,0,0,1-.46-2,5.47,5.47,0,0,1,.64-2.79,4.79,4.79,0,0,1,1.68-1.72,7.19,7.19,0,0,1,2.35-.88,13.94,13.94,0,0,1,2.68-.25,12.87,12.87,0,0,1,2.66.27,6.89,6.89,0,0,1,2.3.92,5.4,5.4,0,0,1,1.68,1.72,5.94,5.94,0,0,1,.8,2.7H330.6a2.13,2.13,0,0,0-1-1.89,4.48,4.48,0,0,0-2.15-.49,7.64,7.64,0,0,0-.85.05,2.73,2.73,0,0,0-.83.22,1.72,1.72,0,0,0-.64.49,1.5,1.5,0,0,0,.2,1.92,3.47,3.47,0,0,0,1.19.66,14.44,14.44,0,0,0,1.68.46l1.93,0.44a19,19,0,0,1,2,.58,6.41,6.41,0,0,1,1.71.9A4.3,4.3,0,0,1,335,606.5a4.23,4.23,0,0,1,.46,2.06,5.79,5.79,0,0,1-.67,2.91,5.48,5.48,0,0,1-1.75,1.89,7,7,0,0,1-2.46,1,13.83,13.83,0,0,1-2.82.29,13.43,13.43,0,0,1-2.87-.31,7.41,7.41,0,0,1-2.5-1,5.72,5.72,0,0,1-1.8-1.89,6.09,6.09,0,0,1-.77-2.94h4.41A2.73,2.73,0,0,0,324.55,609.83Z"/><path d="M341.34,609v5.24h-5.12V609h5.12Z"/><path d="M7.34,625.92l9.73,16.29h0.07V625.92h4.8V650.2H16.81L7.12,633.94H7.05V650.2H2.25V625.92H7.34Z"/><path d="M23.89,637.6a8.28,8.28,0,0,1,1.76-2.92,7.87,7.87,0,0,1,2.74-1.87,9.29,9.29,0,0,1,3.59-.66,9.41,9.41,0,0,1,3.61.66,7.84,7.84,0,0,1,2.76,1.87,8.29,8.29,0,0,1,1.76,2.92,11.21,11.21,0,0,1,.62,3.83,11.06,11.06,0,0,1-.62,3.81,8.31,8.31,0,0,1-1.76,2.91A7.65,7.65,0,0,1,35.59,650a9.65,9.65,0,0,1-3.61.65A9.52,9.52,0,0,1,28.4,650a7.68,7.68,0,0,1-2.74-1.85,8.3,8.3,0,0,1-1.76-2.91,11,11,0,0,1-.62-3.81A11.19,11.19,0,0,1,23.89,637.6Zm4.21,5.88a5.62,5.62,0,0,0,.67,1.8A3.63,3.63,0,0,0,30,646.56a3.71,3.71,0,0,0,2,.48,3.8,3.8,0,0,0,2-.48,3.59,3.59,0,0,0,1.27-1.27,5.63,5.63,0,0,0,.67-1.8,10.72,10.72,0,0,0,.2-2.06,11,11,0,0,0-.2-2.07,5.43,5.43,0,0,0-.67-1.8A3.79,3.79,0,0,0,34,636.27a3.7,3.7,0,0,0-2-.49,3.62,3.62,0,0,0-2,.49,3.83,3.83,0,0,0-1.26,1.28,5.42,5.42,0,0,0-.67,1.8,11,11,0,0,0-.2,2.07A10.72,10.72,0,0,0,28.1,643.48Z"/><path d="M50.85,632.62v3.23H47.46v8.7a2.44,2.44,0,0,0,.39,1.63,2.2,2.2,0,0,0,1.57.41q0.39,0,.75,0a6.19,6.19,0,0,0,.69-0.1v3.74a10.59,10.59,0,0,1-1.31.14q-0.72,0-1.4,0a13,13,0,0,1-2-.15,4.69,4.69,0,0,1-1.7-.59,3.09,3.09,0,0,1-1.16-1.26,4.64,4.64,0,0,1-.42-2.14V635.85H40v-3.23h2.81v-5.27h4.63v5.27h3.39Z"/><path d="M55.55,625.92v9.15h0.1a5.47,5.47,0,0,1,2.25-2.23,5.89,5.89,0,0,1,2.68-.7,7.6,7.6,0,0,1,3.05.53,4.55,4.55,0,0,1,1.88,1.46,5.78,5.78,0,0,1,1,2.28,14.77,14.77,0,0,1,.28,3V650.2H62.11v-9.93a6.38,6.38,0,0,0-.65-3.25A2.49,2.49,0,0,0,59.14,636a3.15,3.15,0,0,0-2.74,1.17,6.73,6.73,0,0,0-.85,3.86v9.21H50.92V625.92h4.63Z"/><path d="M68.25,629.9v-4h4.63v4H68.25Zm4.63,2.72V650.2H68.25V632.62h4.63Z"/><path d="M78.79,632.62v2.45h0.1a5.41,5.41,0,0,1,2.28-2.23,6.39,6.39,0,0,1,2.87-.7,7.6,7.6,0,0,1,3.05.53A4.55,4.55,0,0,1,89,634.13a5.78,5.78,0,0,1,1,2.28,14.77,14.77,0,0,1,.28,3V650.2H85.58v-9.93a6.38,6.38,0,0,0-.65-3.25A2.49,2.49,0,0,0,82.61,636a3.15,3.15,0,0,0-2.74,1.17A6.73,6.73,0,0,0,79,641v9.21H74.39V632.62h4.41Z"/><path d="M107.53,651.49a6.06,6.06,0,0,1-1.19,2.53,7.12,7.12,0,0,1-2.64,2,11,11,0,0,1-4.63.82,10.38,10.38,0,0,1-2.53-.32,7.86,7.86,0,0,1-2.35-1,5.89,5.89,0,0,1-1.76-1.75,5.21,5.21,0,0,1-.8-2.57h4.6a2.75,2.75,0,0,0,1.27,1.89,4.42,4.42,0,0,0,2.19.53,3.3,3.3,0,0,0,2.86-1.22,5,5,0,0,0,.86-3.09V647h-0.06A4.67,4.67,0,0,1,101.2,649a6.69,6.69,0,0,1-2.92.66A7.12,7.12,0,0,1,95,649a6.24,6.24,0,0,1-2.25-1.9,8.08,8.08,0,0,1-1.29-2.82,13.88,13.88,0,0,1-.41-3.42,11.38,11.38,0,0,1,.47-3.28,8.71,8.71,0,0,1,1.39-2.79,6.78,6.78,0,0,1,2.27-1.92,6.59,6.59,0,0,1,3.12-.71,6.31,6.31,0,0,1,2.92.65,5.15,5.15,0,0,1,2.11,2.18h0.06v-2.35h4.41v16.46A12.27,12.27,0,0,1,107.53,651.49Zm-6.35-5.85a3.66,3.66,0,0,0,1.24-1.09,4.9,4.9,0,0,0,.73-1.55,6.66,6.66,0,0,0,.24-1.82,10.35,10.35,0,0,0-.2-2.06,5.26,5.26,0,0,0-.65-1.72,3.44,3.44,0,0,0-1.21-1.19,3.69,3.69,0,0,0-1.89-.44,3.29,3.29,0,0,0-1.68.41,3.58,3.58,0,0,0-1.17,1.1,4.74,4.74,0,0,0-.69,1.6,8.2,8.2,0,0,0-.21,1.89,10,10,0,0,0,.18,1.89,5.22,5.22,0,0,0,.62,1.68,3.7,3.7,0,0,0,1.16,1.22,3.18,3.18,0,0,0,1.8.48A3.57,3.57,0,0,0,101.18,645.64Z"/><path d="M116.42,629.9v-4h4.63v4h-4.63Zm4.63,2.72V650.2h-4.63V632.62h4.63Z"/><path d="M126.46,645.83a2.78,2.78,0,0,0,.8.92,3.36,3.36,0,0,0,1.13.53,5.08,5.08,0,0,0,1.32.17,4.72,4.72,0,0,0,1-.12,3.4,3.4,0,0,0,1-.37,2.26,2.26,0,0,0,.73-0.68,1.84,1.84,0,0,0,.29-1.07,1.79,1.79,0,0,0-1.39-1.63,26.93,26.93,0,0,0-3.87-1.09q-1-.24-2-0.56a6.62,6.62,0,0,1-1.71-.85,4.05,4.05,0,0,1-1.21-1.33,3.88,3.88,0,0,1-.46-2,5.47,5.47,0,0,1,.64-2.79,4.79,4.79,0,0,1,1.68-1.72,7.19,7.19,0,0,1,2.35-.88,13.94,13.94,0,0,1,2.68-.25,12.87,12.87,0,0,1,2.66.27,6.89,6.89,0,0,1,2.3.92,5.4,5.4,0,0,1,1.68,1.72,5.94,5.94,0,0,1,.8,2.7h-4.41a2.13,2.13,0,0,0-1-1.89,4.48,4.48,0,0,0-2.15-.49,7.64,7.64,0,0,0-.85.05,2.73,2.73,0,0,0-.83.22,1.72,1.72,0,0,0-.64.49,1.5,1.5,0,0,0,.2,1.92,3.47,3.47,0,0,0,1.19.66,14.44,14.44,0,0,0,1.68.46l1.93,0.44a19,19,0,0,1,2,.58,6.41,6.41,0,0,1,1.71.9,4.3,4.3,0,0,1,1.21,1.39,4.23,4.23,0,0,1,.46,2.06,5.79,5.79,0,0,1-.67,2.91,5.48,5.48,0,0,1-1.75,1.89,7,7,0,0,1-2.46,1,13.83,13.83,0,0,1-2.82.29,13.43,13.43,0,0,1-2.87-.31,7.41,7.41,0,0,1-2.5-1,5.72,5.72,0,0,1-1.8-1.89,6.09,6.09,0,0,1-.77-2.94h4.41A2.73,2.73,0,0,0,126.46,645.83Z"/><path d="M145,637.6a8.28,8.28,0,0,1,1.76-2.92,7.87,7.87,0,0,1,2.74-1.87,9.29,9.29,0,0,1,3.59-.66,9.41,9.41,0,0,1,3.61.66,7.84,7.84,0,0,1,2.76,1.87,8.29,8.29,0,0,1,1.76,2.92,11.21,11.21,0,0,1,.62,3.83,11.06,11.06,0,0,1-.62,3.81,8.31,8.31,0,0,1-1.76,2.91,7.65,7.65,0,0,1-2.76,1.85,9.65,9.65,0,0,1-3.61.65,9.52,9.52,0,0,1-3.59-.65,7.68,7.68,0,0,1-2.74-1.85,8.3,8.3,0,0,1-1.76-2.91,11,11,0,0,1-.62-3.81A11.19,11.19,0,0,1,145,637.6Zm4.21,5.88a5.62,5.62,0,0,0,.67,1.8,3.63,3.63,0,0,0,1.26,1.27,3.71,3.71,0,0,0,2,.48,3.8,3.8,0,0,0,2-.48,3.59,3.59,0,0,0,1.27-1.27,5.63,5.63,0,0,0,.67-1.8,10.72,10.72,0,0,0,.2-2.06,11,11,0,0,0-.2-2.07,5.43,5.43,0,0,0-.67-1.8,3.79,3.79,0,0,0-1.27-1.28,3.7,3.7,0,0,0-2-.49,3.62,3.62,0,0,0-2,.49,3.83,3.83,0,0,0-1.26,1.28,5.42,5.42,0,0,0-.67,1.8,11,11,0,0,0-.2,2.07A10.72,10.72,0,0,0,149.16,643.48Z"/><path d="M167,632.62v3.26h0.07a6,6,0,0,1,.88-1.51,5.85,5.85,0,0,1,1.27-1.19,6.11,6.11,0,0,1,1.53-.77,5.34,5.34,0,0,1,1.7-.27,3.49,3.49,0,0,1,1,.17v4.49q-0.33-.07-0.78-0.12a7.91,7.91,0,0,0-.88-0.05,4.78,4.78,0,0,0-2.15.44,3.77,3.77,0,0,0-1.42,1.21,4.93,4.93,0,0,0-.77,1.79,10.11,10.11,0,0,0-.23,2.21v7.92h-4.63V632.62H167Z"/><path d="M173.32,629.9v-4H178v4h-4.63Zm4.63,2.72V650.2h-4.63V632.62H178Z"/><path d="M195.4,651.49A6.06,6.06,0,0,1,194.2,654a7.12,7.12,0,0,1-2.64,2,11,11,0,0,1-4.63.82,10.38,10.38,0,0,1-2.53-.32,7.86,7.86,0,0,1-2.35-1,5.89,5.89,0,0,1-1.76-1.75,5.21,5.21,0,0,1-.8-2.57h4.6a2.75,2.75,0,0,0,1.27,1.89,4.42,4.42,0,0,0,2.19.53,3.3,3.3,0,0,0,2.86-1.22,5,5,0,0,0,.86-3.09V647H191.2a4.67,4.67,0,0,1-2.14,2.06,6.69,6.69,0,0,1-2.92.66,7.12,7.12,0,0,1-3.26-.7,6.24,6.24,0,0,1-2.25-1.9,8.08,8.08,0,0,1-1.29-2.82,13.88,13.88,0,0,1-.41-3.42,11.38,11.38,0,0,1,.47-3.28,8.71,8.71,0,0,1,1.39-2.79,6.78,6.78,0,0,1,2.27-1.92,6.59,6.59,0,0,1,3.12-.71,6.31,6.31,0,0,1,2.92.65A5.15,5.15,0,0,1,191.2,635h0.06v-2.35h4.41v16.46A12.27,12.27,0,0,1,195.4,651.49ZM189,645.64a3.66,3.66,0,0,0,1.24-1.09A4.9,4.9,0,0,0,191,643a6.66,6.66,0,0,0,.24-1.82,10.35,10.35,0,0,0-.2-2.06,5.26,5.26,0,0,0-.65-1.72,3.44,3.44,0,0,0-1.21-1.19,3.69,3.69,0,0,0-1.89-.44,3.29,3.29,0,0,0-1.68.41,3.58,3.58,0,0,0-1.17,1.1,4.74,4.74,0,0,0-.69,1.6,8.2,8.2,0,0,0-.21,1.89,10,10,0,0,0,.18,1.89,5.22,5.22,0,0,0,.62,1.68,3.7,3.7,0,0,0,1.16,1.22,3.18,3.18,0,0,0,1.8.48A3.57,3.57,0,0,0,189,645.64Z"/><path d="M197.37,629.9v-4H202v4h-4.63Zm4.63,2.72V650.2h-4.63V632.62H202Z"/><path d="M207.91,632.62v2.45H208a5.41,5.41,0,0,1,2.28-2.23,6.39,6.39,0,0,1,2.87-.7,7.6,7.6,0,0,1,3.05.53,4.55,4.55,0,0,1,1.88,1.46,5.78,5.78,0,0,1,1,2.28,14.77,14.77,0,0,1,.28,3V650.2H214.7v-9.93A6.38,6.38,0,0,0,214,637a2.49,2.49,0,0,0-2.32-1.07,3.15,3.15,0,0,0-2.74,1.17,6.73,6.73,0,0,0-.85,3.86v9.21h-4.63V632.62h4.41Z"/><path d="M220.51,638a5.77,5.77,0,0,1,.82-2.82,5.67,5.67,0,0,1,1.83-1.8,7.77,7.77,0,0,1,2.5-1,13.67,13.67,0,0,1,2.79-.29,18.2,18.2,0,0,1,2.58.19,7.66,7.66,0,0,1,2.38.73,4.75,4.75,0,0,1,1.76,1.51,4.36,4.36,0,0,1,.69,2.57v9.15a19,19,0,0,0,.13,2.28,4.23,4.23,0,0,0,.46,1.63h-4.7a7,7,0,0,1-.21-0.83,7.51,7.51,0,0,1-.11-0.87,6,6,0,0,1-2.61,1.67,10.11,10.11,0,0,1-3.07.48,8,8,0,0,1-2.25-.31,5.08,5.08,0,0,1-1.83-1,4.4,4.4,0,0,1-1.22-1.63,5.71,5.71,0,0,1-.44-2.35,5.3,5.3,0,0,1,.51-2.46,4.36,4.36,0,0,1,1.31-1.55,5.75,5.75,0,0,1,1.83-.87,19,19,0,0,1,2.07-.46q1-.17,2.06-0.27a11.87,11.87,0,0,0,1.79-.31,3.07,3.07,0,0,0,1.24-.59,1.33,1.33,0,0,0,.42-1.14,2.65,2.65,0,0,0-.24-1.24,1.85,1.85,0,0,0-.65-0.71,2.51,2.51,0,0,0-.95-0.34,7.52,7.52,0,0,0-1.16-.08,3.42,3.42,0,0,0-2.15.61,2.77,2.77,0,0,0-.91,2h-4.63Zm10.71,3.57a2.05,2.05,0,0,1-.73.42,7.23,7.23,0,0,1-.95.25q-0.51.1-1.06,0.17t-1.11.17a8.15,8.15,0,0,0-1,.27,3,3,0,0,0-.88.46,2.16,2.16,0,0,0-.6.73,2.43,2.43,0,0,0-.23,1.12,2.35,2.35,0,0,0,.23,1.09,1.8,1.8,0,0,0,.62.7,2.56,2.56,0,0,0,.91.36,5.61,5.61,0,0,0,1.08.1,4,4,0,0,0,2.12-.48,3.13,3.13,0,0,0,1.11-1.14,3.75,3.75,0,0,0,.44-1.34,9.64,9.64,0,0,0,.08-1.09v-1.8Z"/><path d="M242.05,625.92V650.2h-4.63V625.92h4.63Z"/><path d="M248.88,645v5.24h-5.12V645h5.12Z"/><path d="M275,650.2L271,633.67H271l-3.88,16.52H261.9l-6.17-24.28h5.12l3.69,16.52h0.07l4-16.52h4.8l4,16.73h0.06l3.82-16.73h5l-6.27,24.28H275Z"/><path d="M289.15,646a4.6,4.6,0,0,0,5.42.32,3,3,0,0,0,1.24-1.55h4.08a8.07,8.07,0,0,1-3,4.52,8.57,8.57,0,0,1-4.9,1.36,9.3,9.3,0,0,1-3.59-.66,7.45,7.45,0,0,1-2.71-1.89,8.55,8.55,0,0,1-1.71-2.92,11.1,11.1,0,0,1-.6-3.74,10.64,10.64,0,0,1,.62-3.67,8.67,8.67,0,0,1,1.76-2.94,8.3,8.3,0,0,1,2.73-2,8.43,8.43,0,0,1,3.51-.71,7.76,7.76,0,0,1,3.75.87,7.59,7.59,0,0,1,2.63,2.33,9.77,9.77,0,0,1,1.48,3.33,12.93,12.93,0,0,1,.33,3.91H288A5,5,0,0,0,289.15,646Zm5.24-9.25a3.18,3.18,0,0,0-2.53-1,3.9,3.9,0,0,0-1.84.39,3.55,3.55,0,0,0-1.18,1,3.61,3.61,0,0,0-.62,1.22,5.74,5.74,0,0,0-.21,1.16h7.54A5.69,5.69,0,0,0,294.39,636.73Z"/><path d="M300.58,638a5.77,5.77,0,0,1,.82-2.82,5.67,5.67,0,0,1,1.83-1.8,7.77,7.77,0,0,1,2.5-1,13.67,13.67,0,0,1,2.79-.29,18.2,18.2,0,0,1,2.58.19,7.66,7.66,0,0,1,2.38.73,4.75,4.75,0,0,1,1.76,1.51,4.36,4.36,0,0,1,.69,2.57v9.15a19,19,0,0,0,.13,2.28,4.23,4.23,0,0,0,.46,1.63h-4.7a7,7,0,0,1-.21-0.83,7.51,7.51,0,0,1-.11-0.87,6,6,0,0,1-2.61,1.67,10.11,10.11,0,0,1-3.07.48,8,8,0,0,1-2.25-.31,5.08,5.08,0,0,1-1.83-1,4.4,4.4,0,0,1-1.22-1.63,5.71,5.71,0,0,1-.44-2.35,5.3,5.3,0,0,1,.51-2.46,4.36,4.36,0,0,1,1.31-1.55,5.75,5.75,0,0,1,1.83-.87,19,19,0,0,1,2.07-.46q1-.17,2.06-0.27a11.87,11.87,0,0,0,1.79-.31,3.07,3.07,0,0,0,1.24-.59,1.33,1.33,0,0,0,.42-1.14,2.65,2.65,0,0,0-.24-1.24,1.85,1.85,0,0,0-.65-0.71,2.51,2.51,0,0,0-.95-0.34,7.52,7.52,0,0,0-1.16-.08,3.42,3.42,0,0,0-2.15.61,2.77,2.77,0,0,0-.91,2h-4.63Zm10.71,3.57a2.05,2.05,0,0,1-.73.42,7.23,7.23,0,0,1-.95.25q-0.51.1-1.06,0.17t-1.11.17a8.15,8.15,0,0,0-1,.27,3,3,0,0,0-.88.46,2.16,2.16,0,0,0-.6.73,2.43,2.43,0,0,0-.23,1.12,2.35,2.35,0,0,0,.23,1.09,1.8,1.8,0,0,0,.62.7,2.56,2.56,0,0,0,.91.36,5.61,5.61,0,0,0,1.08.1,4,4,0,0,0,2.12-.48,3.13,3.13,0,0,0,1.11-1.14,3.75,3.75,0,0,0,.44-1.34,9.64,9.64,0,0,0,.08-1.09v-1.8Z"/><path d="M321.76,632.62v3.26h0.07a6,6,0,0,1,.88-1.51,5.85,5.85,0,0,1,1.27-1.19,6.11,6.11,0,0,1,1.53-.77,5.34,5.34,0,0,1,1.7-.27,3.49,3.49,0,0,1,1,.17v4.49q-0.33-.07-0.78-0.12a7.91,7.91,0,0,0-.88-0.05,4.78,4.78,0,0,0-2.15.44,3.77,3.77,0,0,0-1.42,1.21,4.93,4.93,0,0,0-.77,1.79,10.11,10.11,0,0,0-.23,2.21v7.92h-4.63V632.62h4.41Z"/><path d="M338.72,645.83a2.78,2.78,0,0,0,.8.92,3.36,3.36,0,0,0,1.13.53,5.08,5.08,0,0,0,1.32.17,4.72,4.72,0,0,0,1-.12,3.4,3.4,0,0,0,1-.37,2.26,2.26,0,0,0,.73-0.68,1.84,1.84,0,0,0,.29-1.07,1.79,1.79,0,0,0-1.39-1.63,26.93,26.93,0,0,0-3.87-1.09q-1-.24-2-0.56a6.62,6.62,0,0,1-1.71-.85,4.05,4.05,0,0,1-1.21-1.33,3.88,3.88,0,0,1-.46-2A5.47,5.47,0,0,1,335,635a4.79,4.79,0,0,1,1.68-1.72,7.19,7.19,0,0,1,2.35-.88,13.94,13.94,0,0,1,2.68-.25,12.87,12.87,0,0,1,2.66.27,6.89,6.89,0,0,1,2.3.92,5.4,5.4,0,0,1,1.68,1.72,5.94,5.94,0,0,1,.8,2.7h-4.41a2.13,2.13,0,0,0-1-1.89,4.48,4.48,0,0,0-2.15-.49,7.64,7.64,0,0,0-.85.05,2.73,2.73,0,0,0-.83.22,1.72,1.72,0,0,0-.64.49,1.5,1.5,0,0,0,.2,1.92,3.47,3.47,0,0,0,1.19.66,14.44,14.44,0,0,0,1.68.46l1.93,0.44a19,19,0,0,1,2,.58,6.41,6.41,0,0,1,1.71.9,4.3,4.3,0,0,1,1.21,1.39,4.23,4.23,0,0,1,.46,2.06,5.79,5.79,0,0,1-.67,2.91,5.48,5.48,0,0,1-1.75,1.89,7,7,0,0,1-2.46,1,13.83,13.83,0,0,1-2.82.29,13.43,13.43,0,0,1-2.87-.31,7.41,7.41,0,0,1-2.5-1,5.72,5.72,0,0,1-1.8-1.89,6.09,6.09,0,0,1-.77-2.94h4.41A2.73,2.73,0,0,0,338.72,645.83Z"/><path d="M359.46,632.62v3.23h-3.39v8.7a2.44,2.44,0,0,0,.39,1.63,2.2,2.2,0,0,0,1.57.41q0.39,0,.75,0a6.19,6.19,0,0,0,.69-0.1v3.74a10.59,10.59,0,0,1-1.31.14q-0.72,0-1.4,0a13,13,0,0,1-2-.15,4.69,4.69,0,0,1-1.7-.59,3.09,3.09,0,0,1-1.16-1.26,4.64,4.64,0,0,1-.42-2.14V635.85h-2.81v-3.23h2.81v-5.27h4.63v5.27h3.39Z"/><path d="M363.93,632.62v3.26H364a6,6,0,0,1,.88-1.51,5.85,5.85,0,0,1,1.27-1.19,6.11,6.11,0,0,1,1.53-.77,5.34,5.34,0,0,1,1.7-.27,3.49,3.49,0,0,1,1,.17v4.49q-0.33-.07-0.78-0.12a7.91,7.91,0,0,0-.88-0.05,4.78,4.78,0,0,0-2.15.44,3.77,3.77,0,0,0-1.42,1.21,4.93,4.93,0,0,0-.77,1.79,10.11,10.11,0,0,0-.23,2.21v7.92h-4.63V632.62h4.41Z"/><path d="M370.2,629.9v-4h4.63v4H370.2Zm4.63,2.72V650.2H370.2V632.62h4.63Z"/><path d="M380.74,632.62v2.24h0.07a5.18,5.18,0,0,1,2.15-2.07,6.39,6.39,0,0,1,2.87-.65,7.07,7.07,0,0,1,3.43.78,7.16,7.16,0,0,1,2.38,2.07,8.93,8.93,0,0,1,1.4,3,13.89,13.89,0,0,1,.46,3.59A12.55,12.55,0,0,1,393,645a8.8,8.8,0,0,1-1.39,2.89,6.94,6.94,0,0,1-2.32,2,6.75,6.75,0,0,1-3.25.75,6.35,6.35,0,0,1-2.89-.66,5.53,5.53,0,0,1-2.17-2H381v8.33h-4.63V632.62h4.41Zm6,13.94a3.79,3.79,0,0,0,1.24-1.24,5.25,5.25,0,0,0,.67-1.78,11,11,0,0,0,.2-2.07,10.15,10.15,0,0,0-.21-2.07,5.66,5.66,0,0,0-.7-1.82,4,4,0,0,0-1.26-1.29,3.41,3.41,0,0,0-1.88-.49,3.47,3.47,0,0,0-1.91.49,3.89,3.89,0,0,0-1.24,1.28,5.42,5.42,0,0,0-.67,1.8,11.13,11.13,0,0,0-.2,2.11,10.15,10.15,0,0,0,.21,2.07,5.48,5.48,0,0,0,.69,1.78,3.73,3.73,0,0,0,1.26,1.24A4,4,0,0,0,386.76,646.56Z"/><path d="M399.08,646a4.6,4.6,0,0,0,5.42.32,3,3,0,0,0,1.24-1.55h4.08a8.07,8.07,0,0,1-3,4.52,8.57,8.57,0,0,1-4.9,1.36,9.3,9.3,0,0,1-3.59-.66,7.45,7.45,0,0,1-2.71-1.89,8.55,8.55,0,0,1-1.71-2.92,11.1,11.1,0,0,1-.6-3.74,10.64,10.64,0,0,1,.62-3.67,8.67,8.67,0,0,1,1.76-2.94,8.3,8.3,0,0,1,2.73-2,8.43,8.43,0,0,1,3.51-.71,7.76,7.76,0,0,1,3.75.87,7.59,7.59,0,0,1,2.63,2.33,9.77,9.77,0,0,1,1.48,3.33,12.93,12.93,0,0,1,.33,3.91H397.94A5,5,0,0,0,399.08,646Zm5.24-9.25a3.18,3.18,0,0,0-2.53-1,3.9,3.9,0,0,0-1.84.39,3.55,3.55,0,0,0-1.18,1,3.61,3.61,0,0,0-.62,1.22,5.74,5.74,0,0,0-.21,1.16h7.54A5.69,5.69,0,0,0,404.32,636.73Z"/><path d="M414.6,645.83a2.78,2.78,0,0,0,.8.92,3.36,3.36,0,0,0,1.13.53,5.08,5.08,0,0,0,1.32.17,4.72,4.72,0,0,0,1-.12,3.4,3.4,0,0,0,1-.37,2.26,2.26,0,0,0,.73-0.68,1.84,1.84,0,0,0,.29-1.07,1.79,1.79,0,0,0-1.39-1.63,26.93,26.93,0,0,0-3.87-1.09q-1-.24-2-0.56a6.62,6.62,0,0,1-1.71-.85,4.05,4.05,0,0,1-1.21-1.33,3.88,3.88,0,0,1-.46-2,5.47,5.47,0,0,1,.64-2.79,4.79,4.79,0,0,1,1.68-1.72,7.19,7.19,0,0,1,2.35-.88,13.94,13.94,0,0,1,2.68-.25,12.87,12.87,0,0,1,2.66.27,6.89,6.89,0,0,1,2.3.92,5.4,5.4,0,0,1,1.68,1.72,5.94,5.94,0,0,1,.8,2.7h-4.41a2.13,2.13,0,0,0-1-1.89,4.48,4.48,0,0,0-2.15-.49,7.64,7.64,0,0,0-.85.05,2.73,2.73,0,0,0-.83.22,1.72,1.72,0,0,0-.64.49,1.5,1.5,0,0,0,.2,1.92,3.47,3.47,0,0,0,1.19.66,14.44,14.44,0,0,0,1.68.46l1.93,0.44a19,19,0,0,1,2,.58,6.41,6.41,0,0,1,1.71.9,4.3,4.3,0,0,1,1.21,1.39,4.23,4.23,0,0,1,.46,2.06,5.79,5.79,0,0,1-.67,2.91,5.48,5.48,0,0,1-1.75,1.89,7,7,0,0,1-2.46,1,13.83,13.83,0,0,1-2.82.29,13.43,13.43,0,0,1-2.87-.31,7.41,7.41,0,0,1-2.5-1,5.72,5.72,0,0,1-1.8-1.89,6.09,6.09,0,0,1-.77-2.94h4.41A2.73,2.73,0,0,0,414.6,645.83Z"/><path d="M431.4,645v5.24h-5.12V645h5.12Z"/></svg>