<svg id="images" xmlns="http://www.w3.org/2000/svg" viewBox="0 0 1425 719"><title>welcome_endless</title><path d="M18.54-11.43V95.67H-4.07V-11.43H18.54Z"/><path d="M72.54-11.43V95.67H52.09V-11.43H72.54Z"/><path d="M76.85,6.12V-11.43H97.3V6.12H76.85Zm20.45,12V95.67H76.85V18.12H97.3Z"/><path d="M123.37-11.43V46l25.78-27.9h24.19l-28.08,28.5,31.25,49H151.73L131.29,61,123.37,69v26.7H102.92V-11.43h20.45Z"/><path d="M193.2,77.07q4.61,4.65,13.25,4.65a17.7,17.7,0,0,0,10.66-3.22q4.46-3.22,5.47-6.83h18q-4.32,13.95-13.25,20t-21.6,6a41,41,0,0,1-15.84-2.93,32.87,32.87,0,0,1-12-8.32,37.74,37.74,0,0,1-7.56-12.9A49,49,0,0,1,167.72,57a46.92,46.92,0,0,1,2.74-16.2,38.25,38.25,0,0,1,7.78-13,36.59,36.59,0,0,1,12-8.62A37.22,37.22,0,0,1,205.73,16a34.23,34.23,0,0,1,16.56,3.82,33.47,33.47,0,0,1,11.59,10.28,43.09,43.09,0,0,1,6.55,14.7,57,57,0,0,1,1.44,17.25H188.16Q188.6,72.42,193.2,77.07Zm23.11-40.8q-3.67-4.2-11.16-4.2A17.2,17.2,0,0,0,197,33.79a15.63,15.63,0,0,0-5.18,4.27,15.89,15.89,0,0,0-2.74,5.4,25.19,25.19,0,0,0-.94,5.1h33.26Q220,40.47,216.32,36.27Z"/><path d="M286.44,76.39a12.27,12.27,0,0,0,3.53,4,14.83,14.83,0,0,0,5,2.33,22.44,22.44,0,0,0,5.83.75,20.93,20.93,0,0,0,4.54-.52,15,15,0,0,0,4.32-1.65,10,10,0,0,0,3.24-3,8.12,8.12,0,0,0,1.3-4.72q0-4.8-6.12-7.2A118.77,118.77,0,0,0,291,61.62q-4.46-1-8.71-2.48a29.17,29.17,0,0,1-7.56-3.75,17.9,17.9,0,0,1-5.33-5.85,17.1,17.1,0,0,1-2-8.62q0-7.5,2.81-12.3A21.13,21.13,0,0,1,277.59,21,31.7,31.7,0,0,1,288,17.14,61.44,61.44,0,0,1,299.76,16a56.8,56.8,0,0,1,11.74,1.2,30.39,30.39,0,0,1,10.15,4.05,23.82,23.82,0,0,1,7.42,7.57,26.22,26.22,0,0,1,3.53,11.93H313.15q-0.43-6.15-4.46-8.33a19.75,19.75,0,0,0-9.5-2.17,33.81,33.81,0,0,0-3.74.23,12.11,12.11,0,0,0-3.67,1A7.61,7.61,0,0,0,289,33.64a5.9,5.9,0,0,0-1.15,3.82,5.94,5.94,0,0,0,2,4.65A15.35,15.35,0,0,0,295.08,45a63.52,63.52,0,0,0,7.42,2q4.17,0.9,8.5,2a84.41,84.41,0,0,1,8.71,2.55,28.31,28.31,0,0,1,7.56,4,19,19,0,0,1,5.33,6.15,18.67,18.67,0,0,1,2,9.08,25.57,25.57,0,0,1-3,12.82,24.2,24.2,0,0,1-7.7,8.33,30.82,30.82,0,0,1-10.87,4.42,61,61,0,0,1-12.46,1.28A59.3,59.3,0,0,1,288,96.27a32.67,32.67,0,0,1-11-4.5A25.25,25.25,0,0,1,269,83.44a26.88,26.88,0,0,1-3.38-13h19.44A12.06,12.06,0,0,0,286.44,76.39Z"/><path d="M375.07,18.12V32.37h-15v38.4q0,5.4,1.73,7.2t6.91,1.8q1.73,0,3.31-.15a26.91,26.91,0,0,0,3-.45v16.5a47.06,47.06,0,0,1-5.76.6q-3.17.15-6.19,0.15a57.37,57.37,0,0,1-9-.67,20.64,20.64,0,0,1-7.49-2.62,13.64,13.64,0,0,1-5.11-5.55,20.5,20.5,0,0,1-1.87-9.45V32.37H327.26V18.12h12.38V-5.13H360.1V18.12h15Z"/><path d="M391.92,18.12v14.4h0.29a26.33,26.33,0,0,1,3.89-6.68,25.9,25.9,0,0,1,5.62-5.25,27.06,27.06,0,0,1,6.77-3.37A23.55,23.55,0,0,1,416,16a15.38,15.38,0,0,1,4.46.75v19.8Q419,36.27,417,36a35.14,35.14,0,0,0-3.89-.23,21.06,21.06,0,0,0-9.5,2,16.63,16.63,0,0,0-6.26,5.32A21.77,21.77,0,0,0,393.94,51a44.53,44.53,0,0,0-1,9.75v35H372.48V18.12h19.44Z"/><path d="M416.69,6.12V-11.43h20.45V6.12H416.69Zm20.45,12V95.67H416.69V18.12h20.45Z"/><path d="M460.32,18.12V28h0.29a22.86,22.86,0,0,1,9.5-9.15A28.2,28.2,0,0,1,482.78,16a31.19,31.19,0,0,1,15.12,3.45,31.62,31.62,0,0,1,10.51,9.15,39.38,39.38,0,0,1,6.19,13.27,61.3,61.3,0,0,1,2,15.82,55.37,55.37,0,0,1-2,15,38.82,38.82,0,0,1-6.12,12.75,30.61,30.61,0,0,1-10.22,8.85,29.76,29.76,0,0,1-14.33,3.3,28,28,0,0,1-12.74-2.93,24.41,24.41,0,0,1-9.58-8.62h-0.29v36.75H440.88V18.12h19.44Zm26.57,61.5a16.72,16.72,0,0,0,5.47-5.48,23.14,23.14,0,0,0,3-7.87,48.4,48.4,0,0,0,.86-9.15,44.89,44.89,0,0,0-.94-9.15,25,25,0,0,0-3.1-8,17.64,17.64,0,0,0-5.54-5.7,15,15,0,0,0-8.28-2.18,15.29,15.29,0,0,0-8.42,2.18,17.15,17.15,0,0,0-5.47,5.63,23.93,23.93,0,0,0-3,7.95,49.22,49.22,0,0,0-.86,9.3,44.67,44.67,0,0,0,.94,9.15,24.18,24.18,0,0,0,3,7.88,16.46,16.46,0,0,0,5.54,5.48A17.81,17.81,0,0,0,486.89,79.62Z"/><path d="M538.37,77.07q4.61,4.65,13.25,4.65a17.7,17.7,0,0,0,10.66-3.22q4.46-3.22,5.47-6.83h18q-4.32,13.95-13.25,20t-21.6,6a41,41,0,0,1-15.84-2.93,32.88,32.88,0,0,1-12-8.32,37.73,37.73,0,0,1-7.56-12.9A49,49,0,0,1,512.88,57a46.9,46.9,0,0,1,2.74-16.2,38.25,38.25,0,0,1,7.78-13,36.59,36.59,0,0,1,12-8.62A37.21,37.21,0,0,1,550.89,16a34.24,34.24,0,0,1,16.56,3.82A33.49,33.49,0,0,1,579,30.12a43.08,43.08,0,0,1,6.55,14.7A57,57,0,0,1,587,62.07H533.33Q533.76,72.42,538.37,77.07Zm23.11-40.8q-3.67-4.2-11.16-4.2a17.21,17.21,0,0,0-8.14,1.73A15.63,15.63,0,0,0,537,38.07a15.89,15.89,0,0,0-2.74,5.4,25.19,25.19,0,0,0-.94,5.1h33.26Q565.15,40.47,561.48,36.27Z"/><path d="M604,76.39a12.27,12.27,0,0,0,3.53,4,14.83,14.83,0,0,0,5,2.33,22.44,22.44,0,0,0,5.83.75,20.93,20.93,0,0,0,4.54-.52,15,15,0,0,0,4.32-1.65,10,10,0,0,0,3.24-3,8.12,8.12,0,0,0,1.3-4.72q0-4.8-6.12-7.2a118.77,118.77,0,0,0-17.06-4.8q-4.46-1-8.71-2.48a29.17,29.17,0,0,1-7.56-3.75,17.9,17.9,0,0,1-5.33-5.85,17.1,17.1,0,0,1-2-8.62q0-7.5,2.81-12.3A21.13,21.13,0,0,1,595.1,21a31.7,31.7,0,0,1,10.37-3.9A61.44,61.44,0,0,1,617.28,16,56.8,56.8,0,0,1,629,17.22a30.39,30.39,0,0,1,10.15,4.05,23.82,23.82,0,0,1,7.42,7.57,26.22,26.22,0,0,1,3.53,11.93H630.67q-0.43-6.15-4.46-8.33a19.75,19.75,0,0,0-9.5-2.17,33.81,33.81,0,0,0-3.74.23,12.11,12.11,0,0,0-3.67,1,7.61,7.61,0,0,0-2.81,2.18,5.9,5.9,0,0,0-1.15,3.82,5.94,5.94,0,0,0,2,4.65A15.35,15.35,0,0,0,612.6,45a63.52,63.52,0,0,0,7.42,2q4.17,0.9,8.5,2a84.41,84.41,0,0,1,8.71,2.55,28.31,28.31,0,0,1,7.56,4,19,19,0,0,1,5.33,6.15,18.67,18.67,0,0,1,2,9.08,25.57,25.57,0,0,1-3,12.82,24.2,24.2,0,0,1-7.7,8.33,30.82,30.82,0,0,1-10.87,4.42,61,61,0,0,1-12.46,1.28,59.3,59.3,0,0,1-12.67-1.35,32.67,32.67,0,0,1-11-4.5,25.25,25.25,0,0,1-7.92-8.33,26.88,26.88,0,0,1-3.38-13h19.44A12.06,12.06,0,0,0,604,76.39Z"/><path d="M720.23,18.12V32.37h-15v38.4q0,5.4,1.73,7.2t6.91,1.8q1.73,0,3.31-.15a26.91,26.91,0,0,0,3-.45v16.5a47.06,47.06,0,0,1-5.76.6q-3.17.15-6.19,0.15a57.37,57.37,0,0,1-9-.67,20.64,20.64,0,0,1-7.49-2.62,13.64,13.64,0,0,1-5.11-5.55,20.5,20.5,0,0,1-1.87-9.45V32.37H672.42V18.12h12.38V-5.13h20.45V18.12h15Z"/><path d="M718.07,40.09a36.53,36.53,0,0,1,7.78-12.9,34.77,34.77,0,0,1,12.1-8.25A41,41,0,0,1,753.78,16a41.57,41.57,0,0,1,15.91,2.92,34.64,34.64,0,0,1,12.17,8.25,36.59,36.59,0,0,1,7.78,12.9A49.42,49.42,0,0,1,792.38,57a48.76,48.76,0,0,1-2.74,16.8,36.66,36.66,0,0,1-7.78,12.82,33.76,33.76,0,0,1-12.17,8.18,42.56,42.56,0,0,1-15.91,2.85,42,42,0,0,1-15.84-2.85,33.87,33.87,0,0,1-12.1-8.18,36.6,36.6,0,0,1-7.78-12.82A48.72,48.72,0,0,1,715.34,57,49.37,49.37,0,0,1,718.07,40.09Zm18.58,26a24.73,24.73,0,0,0,3,8,16,16,0,0,0,5.54,5.63,16.37,16.37,0,0,0,8.64,2.1,16.76,16.76,0,0,0,8.71-2.1A15.85,15.85,0,0,0,768.11,74a24.8,24.8,0,0,0,3-8,47.29,47.29,0,0,0,.86-9.08,48.5,48.5,0,0,0-.86-9.15,24,24,0,0,0-3-7.95,16.72,16.72,0,0,0-5.62-5.62,16.33,16.33,0,0,0-8.71-2.18,16,16,0,0,0-8.64,2.18,16.92,16.92,0,0,0-5.54,5.63,23.91,23.91,0,0,0-3,7.95,48.42,48.42,0,0,0-.86,9.15A47.21,47.21,0,0,0,736.65,66Z"/><path d="M793.67,40.09a36.53,36.53,0,0,1,7.78-12.9,34.77,34.77,0,0,1,12.1-8.25A41,41,0,0,1,829.38,16a41.57,41.57,0,0,1,15.91,2.92,34.64,34.64,0,0,1,12.17,8.25,36.61,36.61,0,0,1,7.78,12.9A49.44,49.44,0,0,1,868,57a48.79,48.79,0,0,1-2.74,16.8,36.68,36.68,0,0,1-7.78,12.82,33.76,33.76,0,0,1-12.17,8.18,42.56,42.56,0,0,1-15.91,2.85,42,42,0,0,1-15.84-2.85,33.88,33.88,0,0,1-12.1-8.18,36.6,36.6,0,0,1-7.78-12.82A48.74,48.74,0,0,1,790.94,57,49.4,49.4,0,0,1,793.67,40.09Zm18.58,26a24.76,24.76,0,0,0,3,8,16,16,0,0,0,5.54,5.63,16.37,16.37,0,0,0,8.64,2.1,16.76,16.76,0,0,0,8.71-2.1A15.85,15.85,0,0,0,843.71,74a24.8,24.8,0,0,0,3-8,47.21,47.21,0,0,0,.86-9.08,48.42,48.42,0,0,0-.86-9.15,24,24,0,0,0-3-7.95,16.72,16.72,0,0,0-5.62-5.62,16.33,16.33,0,0,0-8.71-2.18,15.94,15.94,0,0,0-8.64,2.18,16.92,16.92,0,0,0-5.54,5.63,23.93,23.93,0,0,0-3,7.95,48.42,48.42,0,0,0-.86,9.15A47.21,47.21,0,0,0,812.25,66Z"/><path d="M892.45,72.57v23.1H869.85V72.57h22.61Zm-6.34-9H875.89l-5.47-46.2v-28.8h21.31v28.8Z"/><path d="M948.9-11.43V95.67H926.29V-11.43H948.9Z"/><path d="M1002.9-11.43V95.67H982.45V-11.43h20.45Z"/><path d="M1007.22,6.12V-11.43h20.45V6.12h-20.45Zm20.45,12V95.67h-20.45V18.12h20.45Z"/><path d="M1053.73-11.43V46l25.78-27.9h24.19l-28.08,28.5,31.25,49H1082.1L1061.65,61,1053.73,69v26.7h-20.45V-11.43h20.45Z"/><path d="M1123.57,77.07q4.61,4.65,13.25,4.65a17.7,17.7,0,0,0,10.66-3.22q4.46-3.22,5.47-6.83h18q-4.32,13.95-13.25,20t-21.6,6a41,41,0,0,1-15.84-2.93,32.88,32.88,0,0,1-12-8.32,37.73,37.73,0,0,1-7.56-12.9,49,49,0,0,1-2.66-16.5,46.9,46.9,0,0,1,2.74-16.2,38.25,38.25,0,0,1,7.78-13,36.59,36.59,0,0,1,12-8.62A37.21,37.21,0,0,1,1136.1,16a34.24,34.24,0,0,1,16.56,3.82,33.49,33.49,0,0,1,11.59,10.28,43.08,43.08,0,0,1,6.55,14.7,57,57,0,0,1,1.44,17.25h-53.71Q1119,72.42,1123.57,77.07Zm23.11-40.8q-3.67-4.2-11.16-4.2a17.21,17.21,0,0,0-8.14,1.73,15.63,15.63,0,0,0-5.18,4.27,15.89,15.89,0,0,0-2.74,5.4,25.19,25.19,0,0,0-.94,5.1h33.26Q1150.35,40.47,1146.68,36.27Z"/><path d="M1216.81,76.39a12.27,12.27,0,0,0,3.53,4,14.82,14.82,0,0,0,5,2.33,22.44,22.44,0,0,0,5.83.75,20.94,20.94,0,0,0,4.54-.52,15,15,0,0,0,4.32-1.65,10,10,0,0,0,3.24-3,8.11,8.11,0,0,0,1.3-4.72q0-4.8-6.12-7.2a118.75,118.75,0,0,0-17.06-4.8q-4.46-1-8.71-2.48a29.18,29.18,0,0,1-7.56-3.75,17.92,17.92,0,0,1-5.33-5.85,17.11,17.11,0,0,1-2-8.62q0-7.5,2.81-12.3A21.13,21.13,0,0,1,1208,21a31.7,31.7,0,0,1,10.37-3.9A61.45,61.45,0,0,1,1230.13,16a56.79,56.79,0,0,1,11.74,1.2A30.39,30.39,0,0,1,1252,21.27a23.82,23.82,0,0,1,7.42,7.57A26.22,26.22,0,0,1,1263,40.77h-19.44q-0.43-6.15-4.46-8.33a19.75,19.75,0,0,0-9.5-2.17,33.79,33.79,0,0,0-3.74.23,12.1,12.1,0,0,0-3.67,1,7.61,7.61,0,0,0-2.81,2.18,5.9,5.9,0,0,0-1.15,3.82,5.94,5.94,0,0,0,2,4.65,15.36,15.36,0,0,0,5.26,2.92,63.57,63.57,0,0,0,7.42,2q4.17,0.9,8.5,2a84.41,84.41,0,0,1,8.71,2.55,28.32,28.32,0,0,1,7.56,4,19,19,0,0,1,5.33,6.15,18.68,18.68,0,0,1,2,9.08,25.56,25.56,0,0,1-3,12.82,24.2,24.2,0,0,1-7.7,8.33,30.82,30.82,0,0,1-10.87,4.42A61,61,0,0,1,1231,97.62a59.32,59.32,0,0,1-12.67-1.35,32.65,32.65,0,0,1-11-4.5,25.23,25.23,0,0,1-7.92-8.33,26.88,26.88,0,0,1-3.38-13h19.44A12,12,0,0,0,1216.81,76.39Z"/><path d="M1305.44,18.12V32.37h-15v38.4q0,5.4,1.73,7.2t6.91,1.8q1.73,0,3.31-.15a26.91,26.91,0,0,0,3-.45v16.5a47.06,47.06,0,0,1-5.76.6q-3.17.15-6.19,0.15a57.37,57.37,0,0,1-9-.67,20.64,20.64,0,0,1-7.49-2.62,13.64,13.64,0,0,1-5.11-5.55,20.5,20.5,0,0,1-1.87-9.45V32.37h-12.38V18.12H1270V-5.13h20.45V18.12h15Z"/><path d="M1322.29,18.12v14.4h0.29a26.33,26.33,0,0,1,3.89-6.68,25.9,25.9,0,0,1,5.62-5.25,27.06,27.06,0,0,1,6.77-3.37,23.55,23.55,0,0,1,7.49-1.2,15.38,15.38,0,0,1,4.46.75v19.8q-1.44-.3-3.46-0.52a35.15,35.15,0,0,0-3.89-.23,21.06,21.06,0,0,0-9.5,2,16.63,16.63,0,0,0-6.26,5.32A21.77,21.77,0,0,0,1324.3,51a44.53,44.53,0,0,0-1,9.75v35h-20.45V18.12h19.44Z"/><path d="M1347.05,6.12V-11.43h20.45V6.12h-20.45Zm20.45,12V95.67h-20.45V18.12h20.45Z"/><path d="M1390.68,18.12V28H1391a22.86,22.86,0,0,1,9.5-9.15A28.2,28.2,0,0,1,1413.15,16a31.2,31.2,0,0,1,15.12,3.45,31.6,31.6,0,0,1,10.51,9.15A39.38,39.38,0,0,1,1445,41.89a61.3,61.3,0,0,1,2,15.82,55.37,55.37,0,0,1-2,15,38.83,38.83,0,0,1-6.12,12.75,30.61,30.61,0,0,1-10.22,8.85,29.76,29.76,0,0,1-14.33,3.3,28,28,0,0,1-12.74-2.93,24.42,24.42,0,0,1-9.58-8.62h-0.29v36.75h-20.45V18.12h19.44Zm26.57,61.5a16.73,16.73,0,0,0,5.47-5.48,23.14,23.14,0,0,0,3-7.87,48.4,48.4,0,0,0,.86-9.15,44.89,44.89,0,0,0-.94-9.15,25,25,0,0,0-3.1-8,17.65,17.65,0,0,0-5.54-5.7,15,15,0,0,0-8.28-2.18,15.29,15.29,0,0,0-8.42,2.18,17.15,17.15,0,0,0-5.47,5.63,23.93,23.93,0,0,0-3,7.95,49.22,49.22,0,0,0-.86,9.3,44.67,44.67,0,0,0,.94,9.15,24.18,24.18,0,0,0,3,7.88,16.46,16.46,0,0,0,5.54,5.48A17.81,17.81,0,0,0,1417.25,79.62Z"/><path d="M18.54,238.57v107.1H-4.07V238.57H18.54Z"/><path d="M72.54,238.57v107.1H52.09V238.57H72.54Z"/><path d="M76.85,256.12V238.57H97.3v17.55H76.85Zm20.45,12v77.55H76.85V268.12H97.3Z"/><path d="M123.37,238.57V296l25.78-27.9h24.19l-28.08,28.5,31.25,49H151.73L131.29,311,123.37,319v26.7H102.92V238.57h20.45Z"/><path d="M193.2,327.07q4.61,4.65,13.25,4.65a17.7,17.7,0,0,0,10.66-3.22q4.46-3.22,5.47-6.83h18q-4.32,13.95-13.25,20t-21.6,6a41,41,0,0,1-15.84-2.93,32.87,32.87,0,0,1-12-8.32,37.74,37.74,0,0,1-7.56-12.9,49,49,0,0,1-2.66-16.5,46.92,46.92,0,0,1,2.74-16.2,38.25,38.25,0,0,1,7.78-13,36.59,36.59,0,0,1,12-8.62A37.22,37.22,0,0,1,205.73,266a34.23,34.23,0,0,1,16.56,3.82,33.47,33.47,0,0,1,11.59,10.28,43.09,43.09,0,0,1,6.55,14.7,57,57,0,0,1,1.44,17.25H188.16Q188.6,322.42,193.2,327.07Zm23.11-40.8q-3.67-4.2-11.16-4.2a17.2,17.2,0,0,0-8.14,1.73,15.63,15.63,0,0,0-5.18,4.27,15.89,15.89,0,0,0-2.74,5.4,25.19,25.19,0,0,0-.94,5.1h33.26Q220,290.47,216.32,286.27Z"/><path d="M286.44,326.39a12.27,12.27,0,0,0,3.53,4,14.83,14.83,0,0,0,5,2.33,22.44,22.44,0,0,0,5.83.75,20.93,20.93,0,0,0,4.54-.52,15,15,0,0,0,4.32-1.65,10,10,0,0,0,3.24-3,8.12,8.12,0,0,0,1.3-4.72q0-4.8-6.12-7.2a118.77,118.77,0,0,0-17.06-4.8q-4.46-1-8.71-2.48a29.17,29.17,0,0,1-7.56-3.75,17.9,17.9,0,0,1-5.33-5.85,17.1,17.1,0,0,1-2-8.62q0-7.5,2.81-12.3a21.13,21.13,0,0,1,7.42-7.58,31.7,31.7,0,0,1,10.37-3.9A61.44,61.44,0,0,1,299.76,266a56.8,56.8,0,0,1,11.74,1.2,30.39,30.39,0,0,1,10.15,4.05,23.82,23.82,0,0,1,7.42,7.57,26.22,26.22,0,0,1,3.53,11.93H313.15q-0.43-6.15-4.46-8.33a19.75,19.75,0,0,0-9.5-2.17,33.81,33.81,0,0,0-3.74.23,12.11,12.11,0,0,0-3.67,1,7.61,7.61,0,0,0-2.81,2.18,6.6,6.6,0,0,0,.86,8.48,15.35,15.35,0,0,0,5.26,2.92,63.52,63.52,0,0,0,7.42,2q4.17,0.9,8.5,2a84.41,84.41,0,0,1,8.71,2.55,28.31,28.31,0,0,1,7.56,4,19,19,0,0,1,5.33,6.15,18.67,18.67,0,0,1,2,9.08,25.57,25.57,0,0,1-3,12.82,24.2,24.2,0,0,1-7.7,8.33,30.82,30.82,0,0,1-10.87,4.42,61,61,0,0,1-12.46,1.28A59.3,59.3,0,0,1,288,346.27a32.67,32.67,0,0,1-11-4.5,25.25,25.25,0,0,1-7.92-8.33,26.88,26.88,0,0,1-3.38-13h19.44A12.06,12.06,0,0,0,286.44,326.39Z"/><path d="M375.07,268.12v14.25h-15v38.4q0,5.4,1.73,7.2t6.91,1.8q1.73,0,3.31-.15a26.91,26.91,0,0,0,3-.45v16.5a47.06,47.06,0,0,1-5.76.6q-3.17.15-6.19,0.15a57.37,57.37,0,0,1-9-.67,20.64,20.64,0,0,1-7.49-2.62,13.64,13.64,0,0,1-5.11-5.55,20.5,20.5,0,0,1-1.87-9.45V282.37H327.26V268.12h12.38V244.87H360.1v23.25h15Z"/><path d="M391.92,268.12v14.4h0.29a26.33,26.33,0,0,1,3.89-6.68,25.9,25.9,0,0,1,5.62-5.25,27.06,27.06,0,0,1,6.77-3.37A23.55,23.55,0,0,1,416,266a15.38,15.38,0,0,1,4.46.75v19.8Q419,286.27,417,286a35.14,35.14,0,0,0-3.89-.23,21.06,21.06,0,0,0-9.5,2,16.63,16.63,0,0,0-6.26,5.32,21.77,21.77,0,0,0-3.38,7.88,44.53,44.53,0,0,0-1,9.75v35H372.48V268.12h19.44Z"/><path d="M416.69,256.12V238.57h20.45v17.55H416.69Zm20.45,12v77.55H416.69V268.12h20.45Z"/><path d="M460.32,268.12V278h0.29a22.86,22.86,0,0,1,9.5-9.15A28.2,28.2,0,0,1,482.78,266a31.19,31.19,0,0,1,15.12,3.45,31.62,31.62,0,0,1,10.51,9.15,39.38,39.38,0,0,1,6.19,13.27,61.3,61.3,0,0,1,2,15.82,55.37,55.37,0,0,1-2,15,38.82,38.82,0,0,1-6.12,12.75,30.61,30.61,0,0,1-10.22,8.85,29.76,29.76,0,0,1-14.33,3.3,28,28,0,0,1-12.74-2.93,24.41,24.41,0,0,1-9.58-8.62h-0.29v36.75H440.88V268.12h19.44Zm26.57,61.5a16.72,16.72,0,0,0,5.47-5.48,23.14,23.14,0,0,0,3-7.87,48.4,48.4,0,0,0,.86-9.15,44.89,44.89,0,0,0-.94-9.15,25,25,0,0,0-3.1-8,17.64,17.64,0,0,0-5.54-5.7,15,15,0,0,0-8.28-2.18,15.29,15.29,0,0,0-8.42,2.18,17.15,17.15,0,0,0-5.47,5.63,23.93,23.93,0,0,0-3,7.95,49.22,49.22,0,0,0-.86,9.3,44.67,44.67,0,0,0,.94,9.15,24.18,24.18,0,0,0,3,7.88,16.46,16.46,0,0,0,5.54,5.48A17.81,17.81,0,0,0,486.89,329.62Z"/><path d="M538.37,327.07q4.61,4.65,13.25,4.65a17.7,17.7,0,0,0,10.66-3.22q4.46-3.22,5.47-6.83h18q-4.32,13.95-13.25,20t-21.6,6a41,41,0,0,1-15.84-2.93,32.88,32.88,0,0,1-12-8.32,37.73,37.73,0,0,1-7.56-12.9,49,49,0,0,1-2.66-16.5,46.9,46.9,0,0,1,2.74-16.2,38.25,38.25,0,0,1,7.78-13,36.59,36.59,0,0,1,12-8.62A37.21,37.21,0,0,1,550.89,266a34.24,34.24,0,0,1,16.56,3.82A33.49,33.49,0,0,1,579,280.12a43.08,43.08,0,0,1,6.55,14.7A57,57,0,0,1,587,312.07H533.33Q533.76,322.42,538.37,327.07Zm23.11-40.8q-3.67-4.2-11.16-4.2a17.21,17.21,0,0,0-8.14,1.73,15.63,15.63,0,0,0-5.18,4.27,15.89,15.89,0,0,0-2.74,5.4,25.19,25.19,0,0,0-.94,5.1h33.26Q565.15,290.47,561.48,286.27Z"/><path d="M604,326.39a12.27,12.27,0,0,0,3.53,4,14.83,14.83,0,0,0,5,2.33,22.44,22.44,0,0,0,5.83.75,20.93,20.93,0,0,0,4.54-.52,15,15,0,0,0,4.32-1.65,10,10,0,0,0,3.24-3,8.12,8.12,0,0,0,1.3-4.72q0-4.8-6.12-7.2a118.77,118.77,0,0,0-17.06-4.8q-4.46-1-8.71-2.48a29.17,29.17,0,0,1-7.56-3.75,17.9,17.9,0,0,1-5.33-5.85,17.1,17.1,0,0,1-2-8.62q0-7.5,2.81-12.3A21.13,21.13,0,0,1,595.1,271a31.7,31.7,0,0,1,10.37-3.9A61.44,61.44,0,0,1,617.28,266a56.8,56.8,0,0,1,11.74,1.2,30.39,30.39,0,0,1,10.15,4.05,23.82,23.82,0,0,1,7.42,7.57,26.22,26.22,0,0,1,3.53,11.93H630.67q-0.43-6.15-4.46-8.33a19.75,19.75,0,0,0-9.5-2.17,33.81,33.81,0,0,0-3.74.23,12.11,12.11,0,0,0-3.67,1,7.61,7.61,0,0,0-2.81,2.18,6.6,6.6,0,0,0,.86,8.48A15.35,15.35,0,0,0,612.6,295a63.52,63.52,0,0,0,7.42,2q4.17,0.9,8.5,2a84.41,84.41,0,0,1,8.71,2.55,28.31,28.31,0,0,1,7.56,4,19,19,0,0,1,5.33,6.15,18.67,18.67,0,0,1,2,9.08,25.57,25.57,0,0,1-3,12.82,24.2,24.2,0,0,1-7.7,8.33,30.82,30.82,0,0,1-10.87,4.42,61,61,0,0,1-12.46,1.28,59.3,59.3,0,0,1-12.67-1.35,32.67,32.67,0,0,1-11-4.5,25.25,25.25,0,0,1-7.92-8.33,26.88,26.88,0,0,1-3.38-13h19.44A12.06,12.06,0,0,0,604,326.39Z"/><path d="M720.23,268.12v14.25h-15v38.4q0,5.4,1.73,7.2t6.91,1.8q1.73,0,3.31-.15a26.91,26.91,0,0,0,3-.45v16.5a47.06,47.06,0,0,1-5.76.6q-3.17.15-6.19,0.15a57.37,57.37,0,0,1-9-.67,20.64,20.64,0,0,1-7.49-2.62,13.64,13.64,0,0,1-5.11-5.55,20.5,20.5,0,0,1-1.87-9.45V282.37H672.42V268.12h12.38V244.87h20.45v23.25h15Z"/><path d="M718.07,290.09a36.53,36.53,0,0,1,7.78-12.9,34.77,34.77,0,0,1,12.1-8.25A41,41,0,0,1,753.78,266a41.57,41.57,0,0,1,15.91,2.92,34.64,34.64,0,0,1,12.17,8.25,36.59,36.59,0,0,1,7.78,12.9A49.42,49.42,0,0,1,792.38,307a48.76,48.76,0,0,1-2.74,16.8,36.66,36.66,0,0,1-7.78,12.82,33.76,33.76,0,0,1-12.17,8.18,42.56,42.56,0,0,1-15.91,2.85,42,42,0,0,1-15.84-2.85,33.87,33.87,0,0,1-12.1-8.18,36.6,36.6,0,0,1-7.78-12.82,48.72,48.72,0,0,1-2.74-16.8A49.37,49.37,0,0,1,718.07,290.09Zm18.58,26a24.73,24.73,0,0,0,3,8,16,16,0,0,0,5.54,5.63,16.37,16.37,0,0,0,8.64,2.1,16.76,16.76,0,0,0,8.71-2.1,15.85,15.85,0,0,0,5.62-5.62,24.8,24.8,0,0,0,3-8,47.29,47.29,0,0,0,.86-9.08,48.5,48.5,0,0,0-.86-9.15,24,24,0,0,0-3-7.95,16.72,16.72,0,0,0-5.62-5.62,16.33,16.33,0,0,0-8.71-2.18,16,16,0,0,0-8.64,2.18,16.92,16.92,0,0,0-5.54,5.63,23.91,23.91,0,0,0-3,7.95,48.42,48.42,0,0,0-.86,9.15A47.21,47.21,0,0,0,736.65,316Z"/><path d="M793.67,290.09a36.53,36.53,0,0,1,7.78-12.9,34.77,34.77,0,0,1,12.1-8.25A41,41,0,0,1,829.38,266a41.57,41.57,0,0,1,15.91,2.92,34.64,34.64,0,0,1,12.17,8.25,36.61,36.61,0,0,1,7.78,12.9A49.44,49.44,0,0,1,868,307a48.79,48.79,0,0,1-2.74,16.8,36.68,36.68,0,0,1-7.78,12.82,33.76,33.76,0,0,1-12.17,8.18,42.56,42.56,0,0,1-15.91,2.85,42,42,0,0,1-15.84-2.85,33.88,33.88,0,0,1-12.1-8.18,36.6,36.6,0,0,1-7.78-12.82,48.74,48.74,0,0,1-2.74-16.8A49.4,49.4,0,0,1,793.67,290.09Zm18.58,26a24.76,24.76,0,0,0,3,8,16,16,0,0,0,5.54,5.63,16.37,16.37,0,0,0,8.64,2.1,16.76,16.76,0,0,0,8.71-2.1,15.85,15.85,0,0,0,5.62-5.62,24.8,24.8,0,0,0,3-8,47.21,47.21,0,0,0,.86-9.08,48.42,48.42,0,0,0-.86-9.15,24,24,0,0,0-3-7.95,16.72,16.72,0,0,0-5.62-5.62,16.33,16.33,0,0,0-8.71-2.18,15.94,15.94,0,0,0-8.64,2.18,16.92,16.92,0,0,0-5.54,5.63,23.93,23.93,0,0,0-3,7.95,48.42,48.42,0,0,0-.86,9.15A47.21,47.21,0,0,0,812.25,316Z"/><path d="M892.45,322.57v23.1H869.85v-23.1h22.61Zm-6.34-9H875.89l-5.47-46.2v-28.8h21.31v28.8Z"/><path d="M948.9,238.57v107.1H926.29V238.57H948.9Z"/><path d="M1002.9,238.57v107.1H982.45V238.57h20.45Z"/><path d="M1007.22,256.12V238.57h20.45v17.55h-20.45Zm20.45,12v77.55h-20.45V268.12h20.45Z"/><path d="M1053.73,238.57V296l25.78-27.9h24.19l-28.08,28.5,31.25,49H1082.1L1061.65,311l-7.92,7.95v26.7h-20.45V238.57h20.45Z"/><path d="M1123.57,327.07q4.61,4.65,13.25,4.65a17.7,17.7,0,0,0,10.66-3.22q4.46-3.22,5.47-6.83h18q-4.32,13.95-13.25,20t-21.6,6a41,41,0,0,1-15.84-2.93,32.88,32.88,0,0,1-12-8.32,37.73,37.73,0,0,1-7.56-12.9,49,49,0,0,1-2.66-16.5,46.9,46.9,0,0,1,2.74-16.2,38.25,38.25,0,0,1,7.78-13,36.59,36.59,0,0,1,12-8.62A37.21,37.21,0,0,1,1136.1,266a34.24,34.24,0,0,1,16.56,3.82,33.49,33.49,0,0,1,11.59,10.28,43.08,43.08,0,0,1,6.55,14.7,57,57,0,0,1,1.44,17.25h-53.71Q1119,322.42,1123.57,327.07Zm23.11-40.8q-3.67-4.2-11.16-4.2a17.21,17.21,0,0,0-8.14,1.73,15.63,15.63,0,0,0-5.18,4.27,15.89,15.89,0,0,0-2.74,5.4,25.19,25.19,0,0,0-.94,5.1h33.26Q1150.35,290.47,1146.68,286.27Z"/><path d="M1216.81,326.39a12.27,12.27,0,0,0,3.53,4,14.82,14.82,0,0,0,5,2.33,22.44,22.44,0,0,0,5.83.75,20.94,20.94,0,0,0,4.54-.52,15,15,0,0,0,4.32-1.65,10,10,0,0,0,3.24-3,8.11,8.11,0,0,0,1.3-4.72q0-4.8-6.12-7.2a118.75,118.75,0,0,0-17.06-4.8q-4.46-1-8.71-2.48a29.18,29.18,0,0,1-7.56-3.75,17.92,17.92,0,0,1-5.33-5.85,17.11,17.11,0,0,1-2-8.62q0-7.5,2.81-12.3A21.13,21.13,0,0,1,1208,271a31.7,31.7,0,0,1,10.37-3.9,61.45,61.45,0,0,1,11.81-1.12,56.79,56.79,0,0,1,11.74,1.2,30.39,30.39,0,0,1,10.15,4.05,23.82,23.82,0,0,1,7.42,7.57,26.22,26.22,0,0,1,3.53,11.93h-19.44q-0.43-6.15-4.46-8.33a19.75,19.75,0,0,0-9.5-2.17,33.79,33.79,0,0,0-3.74.23,12.1,12.1,0,0,0-3.67,1,7.61,7.61,0,0,0-2.81,2.18,6.6,6.6,0,0,0,.86,8.48,15.36,15.36,0,0,0,5.26,2.92,63.57,63.57,0,0,0,7.42,2q4.17,0.9,8.5,2a84.41,84.41,0,0,1,8.71,2.55,28.32,28.32,0,0,1,7.56,4,19,19,0,0,1,5.33,6.15,18.68,18.68,0,0,1,2,9.08,25.56,25.56,0,0,1-3,12.82,24.2,24.2,0,0,1-7.7,8.33,30.82,30.82,0,0,1-10.87,4.42,61,61,0,0,1-12.46,1.28,59.32,59.32,0,0,1-12.67-1.35,32.65,32.65,0,0,1-11-4.5,25.23,25.23,0,0,1-7.92-8.33,26.88,26.88,0,0,1-3.38-13h19.44A12,12,0,0,0,1216.81,326.39Z"/><path d="M1305.44,268.12v14.25h-15v38.4q0,5.4,1.73,7.2t6.91,1.8q1.73,0,3.31-.15a26.91,26.91,0,0,0,3-.45v16.5a47.06,47.06,0,0,1-5.76.6q-3.17.15-6.19,0.15a57.37,57.37,0,0,1-9-.67,20.64,20.64,0,0,1-7.49-2.62,13.64,13.64,0,0,1-5.11-5.55,20.5,20.5,0,0,1-1.87-9.45V282.37h-12.38V268.12H1270V244.87h20.45v23.25h15Z"/><path d="M1322.29,268.12v14.4h0.29a26.33,26.33,0,0,1,3.89-6.68,25.9,25.9,0,0,1,5.62-5.25,27.06,27.06,0,0,1,6.77-3.37,23.55,23.55,0,0,1,7.49-1.2,15.38,15.38,0,0,1,4.46.75v19.8q-1.44-.3-3.46-0.52a35.15,35.15,0,0,0-3.89-.23,21.06,21.06,0,0,0-9.5,2,16.63,16.63,0,0,0-6.26,5.32,21.77,21.77,0,0,0-3.38,7.88,44.53,44.53,0,0,0-1,9.75v35h-20.45V268.12h19.44Z"/><path d="M1347.05,256.12V238.57h20.45v17.55h-20.45Zm20.45,12v77.55h-20.45V268.12h20.45Z"/><path d="M1390.68,268.12V278H1391a22.86,22.86,0,0,1,9.5-9.15,28.2,28.2,0,0,1,12.67-2.85,31.2,31.2,0,0,1,15.12,3.45,31.6,31.6,0,0,1,10.51,9.15,39.38,39.38,0,0,1,6.19,13.27,61.3,61.3,0,0,1,2,15.82,55.37,55.37,0,0,1-2,15,38.83,38.83,0,0,1-6.12,12.75,30.61,30.61,0,0,1-10.22,8.85,29.76,29.76,0,0,1-14.33,3.3,28,28,0,0,1-12.74-2.93,24.42,24.42,0,0,1-9.58-8.62h-0.29v36.75h-20.45V268.12h19.44Zm26.57,61.5a16.73,16.73,0,0,0,5.47-5.48,23.14,23.14,0,0,0,3-7.87,48.4,48.4,0,0,0,.86-9.15,44.89,44.89,0,0,0-.94-9.15,25,25,0,0,0-3.1-8,17.65,17.65,0,0,0-5.54-5.7,15,15,0,0,0-8.28-2.18,15.29,15.29,0,0,0-8.42,2.18,17.15,17.15,0,0,0-5.47,5.63,23.93,23.93,0,0,0-3,7.95,49.22,49.22,0,0,0-.86,9.3,44.67,44.67,0,0,0,.94,9.15,24.18,24.18,0,0,0,3,7.88,16.46,16.46,0,0,0,5.54,5.48A17.81,17.81,0,0,0,1417.25,329.62Z"/><path d="M18.54,488.57v107.1H-4.07V488.57H18.54Z"/><path d="M72.54,488.57v107.1H52.09V488.57H72.54Z"/><path d="M76.85,506.12V488.57H97.3v17.55H76.85Zm20.45,12v77.55H76.85V518.12H97.3Z"/><path d="M123.37,488.57V546l25.78-27.9h24.19l-28.08,28.5,31.25,49H151.73L131.29,561,123.37,569v26.7H102.92V488.57h20.45Z"/><path d="M193.2,577.07q4.61,4.65,13.25,4.65a17.7,17.7,0,0,0,10.66-3.22q4.46-3.22,5.47-6.83h18q-4.32,13.95-13.25,20t-21.6,6a41,41,0,0,1-15.84-2.93,32.87,32.87,0,0,1-12-8.32,37.74,37.74,0,0,1-7.56-12.9,49,49,0,0,1-2.66-16.5,46.92,46.92,0,0,1,2.74-16.2,38.25,38.25,0,0,1,7.78-13,36.59,36.59,0,0,1,12-8.62A37.22,37.22,0,0,1,205.73,516a34.23,34.23,0,0,1,16.56,3.82,33.47,33.47,0,0,1,11.59,10.28,43.09,43.09,0,0,1,6.55,14.7,57,57,0,0,1,1.44,17.25H188.16Q188.6,572.42,193.2,577.07Zm23.11-40.8q-3.67-4.2-11.16-4.2a17.2,17.2,0,0,0-8.14,1.73,15.63,15.63,0,0,0-5.18,4.27,15.89,15.89,0,0,0-2.74,5.4,25.19,25.19,0,0,0-.94,5.1h33.26Q220,540.47,216.32,536.27Z"/><path d="M286.44,576.39a12.27,12.27,0,0,0,3.53,4,14.83,14.83,0,0,0,5,2.33,22.44,22.44,0,0,0,5.83.75,20.93,20.93,0,0,0,4.54-.52,15,15,0,0,0,4.32-1.65,10,10,0,0,0,3.24-3,8.12,8.12,0,0,0,1.3-4.72q0-4.8-6.12-7.2a118.77,118.77,0,0,0-17.06-4.8q-4.46-1-8.71-2.48a29.17,29.17,0,0,1-7.56-3.75,17.9,17.9,0,0,1-5.33-5.85,17.1,17.1,0,0,1-2-8.62q0-7.5,2.81-12.3a21.13,21.13,0,0,1,7.42-7.58,31.7,31.7,0,0,1,10.37-3.9A61.44,61.44,0,0,1,299.76,516a56.8,56.8,0,0,1,11.74,1.2,30.39,30.39,0,0,1,10.15,4.05,23.82,23.82,0,0,1,7.42,7.57,26.22,26.22,0,0,1,3.53,11.93H313.15q-0.43-6.15-4.46-8.33a19.75,19.75,0,0,0-9.5-2.17,33.81,33.81,0,0,0-3.74.23,12.11,12.11,0,0,0-3.67,1,7.61,7.61,0,0,0-2.81,2.18,6.6,6.6,0,0,0,.86,8.48,15.35,15.35,0,0,0,5.26,2.92,63.52,63.52,0,0,0,7.42,2q4.17,0.9,8.5,2a84.41,84.41,0,0,1,8.71,2.55,28.31,28.31,0,0,1,7.56,4,19,19,0,0,1,5.33,6.15,18.67,18.67,0,0,1,2,9.08,25.57,25.57,0,0,1-3,12.82,24.2,24.2,0,0,1-7.7,8.33,30.82,30.82,0,0,1-10.87,4.42,61,61,0,0,1-12.46,1.28A59.3,59.3,0,0,1,288,596.27a32.67,32.67,0,0,1-11-4.5,25.25,25.25,0,0,1-7.92-8.33,26.88,26.88,0,0,1-3.38-13h19.44A12.06,12.06,0,0,0,286.44,576.39Z"/><path d="M375.07,518.12v14.25h-15v38.4q0,5.4,1.73,7.2t6.91,1.8q1.73,0,3.31-.15a26.91,26.91,0,0,0,3-.45v16.5a47.06,47.06,0,0,1-5.76.6q-3.17.15-6.19,0.15a57.37,57.37,0,0,1-9-.67,20.64,20.64,0,0,1-7.49-2.62,13.64,13.64,0,0,1-5.11-5.55,20.5,20.5,0,0,1-1.87-9.45V532.37H327.26V518.12h12.38V494.87H360.1v23.25h15Z"/><path d="M391.92,518.12v14.4h0.29a26.33,26.33,0,0,1,3.89-6.68,25.9,25.9,0,0,1,5.62-5.25,27.06,27.06,0,0,1,6.77-3.37A23.55,23.55,0,0,1,416,516a15.38,15.38,0,0,1,4.46.75v19.8Q419,536.27,417,536a35.14,35.14,0,0,0-3.89-.23,21.06,21.06,0,0,0-9.5,2,16.63,16.63,0,0,0-6.26,5.32,21.77,21.77,0,0,0-3.38,7.88,44.53,44.53,0,0,0-1,9.75v35H372.48V518.12h19.44Z"/><path d="M416.69,506.12V488.57h20.45v17.55H416.69Zm20.45,12v77.55H416.69V518.12h20.45Z"/><path d="M460.32,518.12V528h0.29a22.86,22.86,0,0,1,9.5-9.15A28.2,28.2,0,0,1,482.78,516a31.19,31.19,0,0,1,15.12,3.45,31.62,31.62,0,0,1,10.51,9.15,39.38,39.38,0,0,1,6.19,13.27,61.3,61.3,0,0,1,2,15.82,55.37,55.37,0,0,1-2,15,38.82,38.82,0,0,1-6.12,12.75,30.61,30.61,0,0,1-10.22,8.85,29.76,29.76,0,0,1-14.33,3.3,28,28,0,0,1-12.74-2.93,24.41,24.41,0,0,1-9.58-8.62h-0.29v36.75H440.88V518.12h19.44Zm26.57,61.5a16.72,16.72,0,0,0,5.47-5.48,23.14,23.14,0,0,0,3-7.87,48.4,48.4,0,0,0,.86-9.15,44.89,44.89,0,0,0-.94-9.15,25,25,0,0,0-3.1-8,17.64,17.64,0,0,0-5.54-5.7,15,15,0,0,0-8.28-2.18,15.29,15.29,0,0,0-8.42,2.18,17.15,17.15,0,0,0-5.47,5.63,23.93,23.93,0,0,0-3,7.95,49.22,49.22,0,0,0-.86,9.3,44.67,44.67,0,0,0,.94,9.15,24.18,24.18,0,0,0,3,7.88,16.46,16.46,0,0,0,5.54,5.48A17.81,17.81,0,0,0,486.89,579.62Z"/><path d="M538.37,577.07q4.61,4.65,13.25,4.65a17.7,17.7,0,0,0,10.66-3.22q4.46-3.22,5.47-6.83h18q-4.32,13.95-13.25,20t-21.6,6a41,41,0,0,1-15.84-2.93,32.88,32.88,0,0,1-12-8.32,37.73,37.73,0,0,1-7.56-12.9,49,49,0,0,1-2.66-16.5,46.9,46.9,0,0,1,2.74-16.2,38.25,38.25,0,0,1,7.78-13,36.59,36.59,0,0,1,12-8.62A37.21,37.21,0,0,1,550.89,516a34.24,34.24,0,0,1,16.56,3.82A33.49,33.49,0,0,1,579,530.12a43.08,43.08,0,0,1,6.55,14.7A57,57,0,0,1,587,562.07H533.33Q533.76,572.42,538.37,577.07Zm23.11-40.8q-3.67-4.2-11.16-4.2a17.21,17.21,0,0,0-8.14,1.73,15.63,15.63,0,0,0-5.18,4.27,15.89,15.89,0,0,0-2.74,5.4,25.19,25.19,0,0,0-.94,5.1h33.26Q565.15,540.47,561.48,536.27Z"/><path d="M604,576.39a12.27,12.27,0,0,0,3.53,4,14.83,14.83,0,0,0,5,2.33,22.44,22.44,0,0,0,5.83.75,20.93,20.93,0,0,0,4.54-.52,15,15,0,0,0,4.32-1.65,10,10,0,0,0,3.24-3,8.12,8.12,0,0,0,1.3-4.72q0-4.8-6.12-7.2a118.77,118.77,0,0,0-17.06-4.8q-4.46-1-8.71-2.48a29.17,29.17,0,0,1-7.56-3.75,17.9,17.9,0,0,1-5.33-5.85,17.1,17.1,0,0,1-2-8.62q0-7.5,2.81-12.3A21.13,21.13,0,0,1,595.1,521a31.7,31.7,0,0,1,10.37-3.9A61.44,61.44,0,0,1,617.28,516a56.8,56.8,0,0,1,11.74,1.2,30.39,30.39,0,0,1,10.15,4.05,23.82,23.82,0,0,1,7.42,7.57,26.22,26.22,0,0,1,3.53,11.93H630.67q-0.43-6.15-4.46-8.33a19.75,19.75,0,0,0-9.5-2.17,33.81,33.81,0,0,0-3.74.23,12.11,12.11,0,0,0-3.67,1,7.61,7.61,0,0,0-2.81,2.18,6.6,6.6,0,0,0,.86,8.48A15.35,15.35,0,0,0,612.6,545a63.52,63.52,0,0,0,7.42,2q4.17,0.9,8.5,2a84.41,84.41,0,0,1,8.71,2.55,28.31,28.31,0,0,1,7.56,4,19,19,0,0,1,5.33,6.15,18.67,18.67,0,0,1,2,9.08,25.57,25.57,0,0,1-3,12.82,24.2,24.2,0,0,1-7.7,8.33,30.82,30.82,0,0,1-10.87,4.42,61,61,0,0,1-12.46,1.28,59.3,59.3,0,0,1-12.67-1.35,32.67,32.67,0,0,1-11-4.5,25.25,25.25,0,0,1-7.92-8.33,26.88,26.88,0,0,1-3.38-13h19.44A12.06,12.06,0,0,0,604,576.39Z"/><path d="M720.23,518.12v14.25h-15v38.4q0,5.4,1.73,7.2t6.91,1.8q1.73,0,3.31-.15a26.91,26.91,0,0,0,3-.45v16.5a47.06,47.06,0,0,1-5.76.6q-3.17.15-6.19,0.15a57.37,57.37,0,0,1-9-.67,20.64,20.64,0,0,1-7.49-2.62,13.64,13.64,0,0,1-5.11-5.55,20.5,20.5,0,0,1-1.87-9.45V532.37H672.42V518.12h12.38V494.87h20.45v23.25h15Z"/><path d="M718.07,540.09a36.53,36.53,0,0,1,7.78-12.9,34.77,34.77,0,0,1,12.1-8.25A41,41,0,0,1,753.78,516a41.57,41.57,0,0,1,15.91,2.92,34.64,34.64,0,0,1,12.17,8.25,36.59,36.59,0,0,1,7.78,12.9A49.42,49.42,0,0,1,792.38,557a48.76,48.76,0,0,1-2.74,16.8,36.66,36.66,0,0,1-7.78,12.82,33.76,33.76,0,0,1-12.17,8.18,42.56,42.56,0,0,1-15.91,2.85,42,42,0,0,1-15.84-2.85,33.87,33.87,0,0,1-12.1-8.18,36.6,36.6,0,0,1-7.78-12.82,48.72,48.72,0,0,1-2.74-16.8A49.37,49.37,0,0,1,718.07,540.09Zm18.58,26a24.73,24.73,0,0,0,3,8,16,16,0,0,0,5.54,5.63,16.37,16.37,0,0,0,8.64,2.1,16.76,16.76,0,0,0,8.71-2.1,15.85,15.85,0,0,0,5.62-5.62,24.8,24.8,0,0,0,3-8,47.29,47.29,0,0,0,.86-9.08,48.5,48.5,0,0,0-.86-9.15,24,24,0,0,0-3-7.95,16.72,16.72,0,0,0-5.62-5.62,16.33,16.33,0,0,0-8.71-2.18,16,16,0,0,0-8.64,2.18,16.92,16.92,0,0,0-5.54,5.63,23.91,23.91,0,0,0-3,7.95,48.42,48.42,0,0,0-.86,9.15A47.21,47.21,0,0,0,736.65,566Z"/><path d="M793.67,540.09a36.53,36.53,0,0,1,7.78-12.9,34.77,34.77,0,0,1,12.1-8.25A41,41,0,0,1,829.38,516a41.57,41.57,0,0,1,15.91,2.92,34.64,34.64,0,0,1,12.17,8.25,36.61,36.61,0,0,1,7.78,12.9A49.44,49.44,0,0,1,868,557a48.79,48.79,0,0,1-2.74,16.8,36.68,36.68,0,0,1-7.78,12.82,33.76,33.76,0,0,1-12.17,8.18,42.56,42.56,0,0,1-15.91,2.85,42,42,0,0,1-15.84-2.85,33.88,33.88,0,0,1-12.1-8.18,36.6,36.6,0,0,1-7.78-12.82,48.74,48.74,0,0,1-2.74-16.8A49.4,49.4,0,0,1,793.67,540.09Zm18.58,26a24.76,24.76,0,0,0,3,8,16,16,0,0,0,5.54,5.63,16.37,16.37,0,0,0,8.64,2.1,16.76,16.76,0,0,0,8.71-2.1,15.85,15.85,0,0,0,5.62-5.62,24.8,24.8,0,0,0,3-8,47.21,47.21,0,0,0,.86-9.08,48.42,48.42,0,0,0-.86-9.15,24,24,0,0,0-3-7.95,16.72,16.72,0,0,0-5.62-5.62,16.33,16.33,0,0,0-8.71-2.18,15.94,15.94,0,0,0-8.64,2.18,16.92,16.92,0,0,0-5.54,5.63,23.93,23.93,0,0,0-3,7.95,48.42,48.42,0,0,0-.86,9.15A47.21,47.21,0,0,0,812.25,566Z"/><path d="M892.45,572.57v23.1H869.85v-23.1h22.61Zm-6.34-9H875.89l-5.47-46.2v-28.8h21.31v28.8Z"/><path d="M948.9,488.57v107.1H926.29V488.57H948.9Z"/><path d="M1002.9,488.57v107.1H982.45V488.57h20.45Z"/><path d="M1007.22,506.12V488.57h20.45v17.55h-20.45Zm20.45,12v77.55h-20.45V518.12h20.45Z"/><path d="M1053.73,488.57V546l25.78-27.9h24.19l-28.08,28.5,31.25,49H1082.1L1061.65,561l-7.92,7.95v26.7h-20.45V488.57h20.45Z"/><path d="M1123.57,577.07q4.61,4.65,13.25,4.65a17.7,17.7,0,0,0,10.66-3.22q4.46-3.22,5.47-6.83h18q-4.32,13.95-13.25,20t-21.6,6a41,41,0,0,1-15.84-2.93,32.88,32.88,0,0,1-12-8.32,37.73,37.73,0,0,1-7.56-12.9,49,49,0,0,1-2.66-16.5,46.9,46.9,0,0,1,2.74-16.2,38.25,38.25,0,0,1,7.78-13,36.59,36.59,0,0,1,12-8.62A37.21,37.21,0,0,1,1136.1,516a34.24,34.24,0,0,1,16.56,3.82,33.49,33.49,0,0,1,11.59,10.28,43.08,43.08,0,0,1,6.55,14.7,57,57,0,0,1,1.44,17.25h-53.71Q1119,572.42,1123.57,577.07Zm23.11-40.8q-3.67-4.2-11.16-4.2a17.21,17.21,0,0,0-8.14,1.73,15.63,15.63,0,0,0-5.18,4.27,15.89,15.89,0,0,0-2.74,5.4,25.19,25.19,0,0,0-.94,5.1h33.26Q1150.35,540.47,1146.68,536.27Z"/><path d="M1216.81,576.39a12.27,12.27,0,0,0,3.53,4,14.82,14.82,0,0,0,5,2.33,22.44,22.44,0,0,0,5.83.75,20.94,20.94,0,0,0,4.54-.52,15,15,0,0,0,4.32-1.65,10,10,0,0,0,3.24-3,8.11,8.11,0,0,0,1.3-4.72q0-4.8-6.12-7.2a118.75,118.75,0,0,0-17.06-4.8q-4.46-1-8.71-2.48a29.18,29.18,0,0,1-7.56-3.75,17.92,17.92,0,0,1-5.33-5.85,17.11,17.11,0,0,1-2-8.62q0-7.5,2.81-12.3A21.13,21.13,0,0,1,1208,521a31.7,31.7,0,0,1,10.37-3.9,61.45,61.45,0,0,1,11.81-1.12,56.79,56.79,0,0,1,11.74,1.2,30.39,30.39,0,0,1,10.15,4.05,23.82,23.82,0,0,1,7.42,7.57,26.22,26.22,0,0,1,3.53,11.93h-19.44q-0.43-6.15-4.46-8.33a19.75,19.75,0,0,0-9.5-2.17,33.79,33.79,0,0,0-3.74.23,12.1,12.1,0,0,0-3.67,1,7.61,7.61,0,0,0-2.81,2.18,6.6,6.6,0,0,0,.86,8.48,15.36,15.36,0,0,0,5.26,2.92,63.57,63.57,0,0,0,7.42,2q4.17,0.9,8.5,2a84.41,84.41,0,0,1,8.71,2.55,28.32,28.32,0,0,1,7.56,4,19,19,0,0,1,5.33,6.15,18.68,18.68,0,0,1,2,9.08,25.56,25.56,0,0,1-3,12.82,24.2,24.2,0,0,1-7.7,8.33,30.82,30.82,0,0,1-10.87,4.42,61,61,0,0,1-12.46,1.28,59.32,59.32,0,0,1-12.67-1.35,32.65,32.65,0,0,1-11-4.5,25.23,25.23,0,0,1-7.92-8.33,26.88,26.88,0,0,1-3.38-13h19.44A12,12,0,0,0,1216.81,576.39Z"/><path d="M1305.44,518.12v14.25h-15v38.4q0,5.4,1.73,7.2t6.91,1.8q1.73,0,3.31-.15a26.91,26.91,0,0,0,3-.45v16.5a47.06,47.06,0,0,1-5.76.6q-3.17.15-6.19,0.15a57.37,57.37,0,0,1-9-.67,20.64,20.64,0,0,1-7.49-2.62,13.64,13.64,0,0,1-5.11-5.55,20.5,20.5,0,0,1-1.87-9.45V532.37h-12.38V518.12H1270V494.87h20.45v23.25h15Z"/><path d="M1322.29,518.12v14.4h0.29a26.33,26.33,0,0,1,3.89-6.68,25.9,25.9,0,0,1,5.62-5.25,27.06,27.06,0,0,1,6.77-3.37,23.55,23.55,0,0,1,7.49-1.2,15.38,15.38,0,0,1,4.46.75v19.8q-1.44-.3-3.46-0.52a35.15,35.15,0,0,0-3.89-.23,21.06,21.06,0,0,0-9.5,2,16.63,16.63,0,0,0-6.26,5.32,21.77,21.77,0,0,0-3.38,7.88,44.53,44.53,0,0,0-1,9.75v35h-20.45V518.12h19.44Z"/><path d="M1347.05,506.12V488.57h20.45v17.55h-20.45Zm20.45,12v77.55h-20.45V518.12h20.45Z"/><path d="M1390.68,518.12V528H1391a22.86,22.86,0,0,1,9.5-9.15,28.2,28.2,0,0,1,12.67-2.85,31.2,31.2,0,0,1,15.12,3.45,31.6,31.6,0,0,1,10.51,9.15,39.38,39.38,0,0,1,6.19,13.27,61.3,61.3,0,0,1,2,15.82,55.37,55.37,0,0,1-2,15,38.83,38.83,0,0,1-6.12,12.75,30.61,30.61,0,0,1-10.22,8.85,29.76,29.76,0,0,1-14.33,3.3,28,28,0,0,1-12.74-2.93,24.42,24.42,0,0,1-9.58-8.62h-0.29v36.75h-20.45V518.12h19.44Zm26.57,61.5a16.73,16.73,0,0,0,5.47-5.48,23.14,23.14,0,0,0,3-7.87,48.4,48.4,0,0,0,.86-9.15,44.89,44.89,0,0,0-.94-9.15,25,25,0,0,0-3.1-8,17.65,17.65,0,0,0-5.54-5.7,15,15,0,0,0-8.28-2.18,15.29,15.29,0,0,0-8.42,2.18,17.15,17.15,0,0,0-5.47,5.63,23.93,23.93,0,0,0-3,7.95,49.22,49.22,0,0,0-.86,9.3,44.67,44.67,0,0,0,.94,9.15,24.18,24.18,0,0,0,3,7.88,16.46,16.46,0,0,0,5.54,5.48A17.81,17.81,0,0,0,1417.25,579.62Z"/></svg>