<svg xmlns="http://www.w3.org/2000/svg" xmlns:xlink="http://www.w3.org/1999/xlink" viewBox="0 0 940 968"><defs><style>.a{fill:none;}.b{clip-path:url(#a);}.c{fill:#fff;}.d{clip-path:url(#b);}.e{opacity:0.45;}</style><clipPath id="a"><rect class="a" x="0.25" y="-1096.28" width="939.49" height="967.55"/></clipPath><clipPath id="b"><rect class="a" x="0.25" y="0.72" width="939.49" height="967.55"/></clipPath></defs><title>home_05_hover</title><g class="b"><path class="c" d="M47.32-32.69A40.38,40.38,0,0,0,59.24-18.11,50.56,50.56,0,0,0,76.7-9.83a79.35,79.35,0,0,0,20.74,2.7A103.37,103.37,0,0,0,113-8.39a52.43,52.43,0,0,0,15.55-4.86,34.14,34.14,0,0,0,12.1-9.9q4.84-6.29,4.84-16,0-10.44-6.39-16.92a50.47,50.47,0,0,0-16.76-10.8,162.41,162.41,0,0,0-23.5-7.56q-13.14-3.24-26.61-7.2a228.06,228.06,0,0,1-27-8.82A91.31,91.31,0,0,1,21.75-104,63,63,0,0,1,5-124.67q-6.4-12.42-6.39-30.06,0-19.79,8.12-34.38A75.55,75.55,0,0,1,28-213.41a91,91,0,0,1,29.72-14.4,121.84,121.84,0,0,1,33.18-4.68A151.14,151.14,0,0,1,128-228a91,91,0,0,1,31.62,14.58,72.92,72.92,0,0,1,21.95,25.74q8.12,15.66,8.12,38H137.18q-0.7-11.52-4.67-19.08A31.38,31.38,0,0,0,122-180.65a43.64,43.64,0,0,0-15-6.12,89.2,89.2,0,0,0-18.49-1.8,61.37,61.37,0,0,0-13.13,1.44,34.43,34.43,0,0,0-11.92,5,30.54,30.54,0,0,0-8.81,9q-3.46,5.4-3.46,13.68,0,7.56,2.76,12.24t10.89,8.64q8.12,4,22.46,7.92t37.5,10.08q6.91,1.44,19.18,5.22a90.49,90.49,0,0,1,24.37,12.06,75.38,75.38,0,0,1,20.91,22.14Q198-67.25,198-45.65a81.4,81.4,0,0,1-6.57,32.76,70.86,70.86,0,0,1-19.53,26.1q-13,11-32.14,17.1T95.36,36.43a150.13,150.13,0,0,1-39.57-5.22A97.67,97.67,0,0,1,21.92,14.83,80,80,0,0,1-1.41-13.61q-8.64-17.28-8.29-41H42.83Q42.83-41.69,47.32-32.69Z"/><path class="c" d="M196.27-102.71a87.67,87.67,0,0,1,18.66-31,83.41,83.41,0,0,1,29-19.8q16.93-7,38-7t38.19,7a83.13,83.13,0,0,1,29.2,19.8,87.83,87.83,0,0,1,18.66,31q6.56,18.18,6.57,40.5T368-21.89A88,88,0,0,1,349.37,8.89a81,81,0,0,1-29.2,19.62Q303.06,35.34,282,35.35t-38-6.84a81.27,81.27,0,0,1-29-19.62,87.84,87.84,0,0,1-18.66-30.78q-6.57-18-6.57-40.32T196.27-102.71Zm44.58,62.28a59.41,59.41,0,0,0,7.08,19.08,38.45,38.45,0,0,0,13.31,13.5q8.3,5,20.74,5t20.91-5a38,38,0,0,0,13.48-13.5,59.57,59.57,0,0,0,7.08-19.08,113.32,113.32,0,0,0,2.07-21.78,116.19,116.19,0,0,0-2.07-22,57.58,57.58,0,0,0-7.08-19.08,40.14,40.14,0,0,0-13.48-13.5Q294.41-122,282-122t-20.74,5.22a40.61,40.61,0,0,0-13.31,13.5,57.43,57.43,0,0,0-7.08,19.08,116.19,116.19,0,0,0-2.07,22A113.32,113.32,0,0,0,240.85-40.43Z"/><path class="c" d="M462-122q-11.75,0-19.7,5.58a43.65,43.65,0,0,0-13,14.4,63.84,63.84,0,0,0-7.08,19.44,109.68,109.68,0,0,0-2.07,21.06A105.11,105.11,0,0,0,422.29-41,65,65,0,0,0,429-22.07,39.65,39.65,0,0,0,441.64-8.21q7.95,5.4,19.35,5.4,17.63,0,27.13-10.26T500-40.61H547.4q-4.84,37.08-27.65,56.52T461.34,35.35a94.33,94.33,0,0,1-36.81-7A81.33,81.33,0,0,1,396,8.71a89.76,89.76,0,0,1-18.32-30.06,108.05,108.05,0,0,1-6.57-38.34,128.7,128.7,0,0,1,6-40.14,91.18,91.18,0,0,1,17.8-32,81.52,81.52,0,0,1,28.68-21.06q16.93-7.56,38.71-7.56A107.88,107.88,0,0,1,493-156.17,80.37,80.37,0,0,1,519.23-143a69.54,69.54,0,0,1,18.84,22q7.26,13.15,8.29,31.14h-48Q493.48-122,462-122Z"/><path class="c" d="M598.89-226.37V-88.49l61.86-67h58.06l-67.39,68.4,75,117.72H667L617.89-52.49l-19,19.08V30.67H549.81v-257h49.08Z"/><path class="c" d="M755.27-15.59a29.44,29.44,0,0,0,8.47,9.72A35.56,35.56,0,0,0,775.66-.29a53.83,53.83,0,0,0,14,1.8A50.26,50.26,0,0,0,800.54.25a36.06,36.06,0,0,0,10.37-4,23.87,23.87,0,0,0,7.78-7.2,19.48,19.48,0,0,0,3.11-11.34q0-11.52-14.69-17.28t-41-11.52Q755.44-53.57,745.24-57a70,70,0,0,1-18.14-9,43,43,0,0,1-12.79-14q-4.84-8.45-4.84-20.7,0-18,6.74-29.52A50.72,50.72,0,0,1,734-148.43a76.06,76.06,0,0,1,24.88-9.36,147.49,147.49,0,0,1,28.34-2.7,136.26,136.26,0,0,1,28.17,2.88,72.92,72.92,0,0,1,24.36,9.72,57.15,57.15,0,0,1,17.8,18.18q7.08,11.34,8.47,28.62H819.38q-1-14.76-10.71-20t-22.81-5.22a81.23,81.23,0,0,0-9,.54,29,29,0,0,0-8.81,2.34,18.27,18.27,0,0,0-6.74,5.22q-2.77,3.43-2.76,9.18a14.26,14.26,0,0,0,4.84,11.16,36.83,36.83,0,0,0,12.61,7A152.62,152.62,0,0,0,793.8-86q10,2.16,20.39,4.68a202.59,202.59,0,0,1,20.91,6.12,67.92,67.92,0,0,1,18.14,9.54A45.61,45.61,0,0,1,866-50.87q4.84,8.83,4.84,21.78,0,18.36-7.08,30.78a58.07,58.07,0,0,1-18.49,20A74,74,0,0,1,819.2,32.29a146.5,146.5,0,0,1-29.89,3.06,142.38,142.38,0,0,1-30.41-3.24,78.4,78.4,0,0,1-26.44-10.8,60.56,60.56,0,0,1-19-20Q706-11.09,705.33-29.81H752A28.93,28.93,0,0,0,755.27-15.59Z"/><path class="c" d="M926.16-24.77V30.67H871.9V-24.77h54.26Z"/><path class="c" d="M982.84-32.69a40.38,40.38,0,0,0,11.92,14.58,50.56,50.56,0,0,0,17.45,8.28A79.35,79.35,0,0,0,1033-7.13a103.36,103.36,0,0,0,15.55-1.26,52.44,52.44,0,0,0,15.55-4.86,34.16,34.16,0,0,0,12.1-9.9q4.84-6.29,4.84-16,0-10.44-6.39-16.92a50.47,50.47,0,0,0-16.76-10.8,162.39,162.39,0,0,0-23.5-7.56q-13.14-3.24-26.61-7.2a228.1,228.1,0,0,1-27-8.82,91.34,91.34,0,0,1-23.5-13.5,63,63,0,0,1-16.76-20.7q-6.4-12.42-6.39-30.06,0-19.79,8.12-34.38a75.53,75.53,0,0,1,21.25-24.3,91,91,0,0,1,29.72-14.4,121.84,121.84,0,0,1,33.18-4.68,151.13,151.13,0,0,1,37.15,4.5,91.05,91.05,0,0,1,31.62,14.58,72.93,72.93,0,0,1,21.95,25.74q8.12,15.66,8.12,38H1072.7q-0.7-11.52-4.67-19.08a31.38,31.38,0,0,0-10.54-11.88,43.64,43.64,0,0,0-15-6.12,89.19,89.19,0,0,0-18.49-1.8,61.36,61.36,0,0,0-13.13,1.44,34.43,34.43,0,0,0-11.92,5,30.56,30.56,0,0,0-8.81,9q-3.46,5.4-3.46,13.68,0,7.56,2.76,12.24t10.89,8.64q8.12,4,22.46,7.92t37.5,10.08q6.91,1.44,19.18,5.22a90.5,90.5,0,0,1,24.36,12.06,75.38,75.38,0,0,1,20.91,22.14q8.81,13.86,8.81,35.46A81.4,81.4,0,0,1,1127-12.89a70.86,70.86,0,0,1-19.53,26.1q-13,11-32.14,17.1t-44.41,6.12a150.15,150.15,0,0,1-39.57-5.22,97.67,97.67,0,0,1-33.87-16.38,80,80,0,0,1-23.33-28.44q-8.64-17.28-8.29-41h52.53Q978.35-41.69,982.84-32.69Z"/></g><g class="d"><rect class="e" x="0.25" y="0.72" width="939.49" height="967.55"/><path class="c" d="M187.94,209.67l-41.82-175h-0.69l-41.13,175h-55L-16-47.37H38.3l39.05,175H78l42.85-175h50.8l42.16,177.12h0.69L255-47.37h53.22l-66.35,257H187.94Z"/><path class="c" d="M283.33,80.79q1-18,8.64-29.88a59.89,59.89,0,0,1,19.35-19.08,82.28,82.28,0,0,1,26.44-10.26,144.68,144.68,0,0,1,29.55-3.06,192.93,192.93,0,0,1,27.3,2,81.2,81.2,0,0,1,25.23,7.74,50.25,50.25,0,0,1,18.66,16q7.26,10.26,7.26,27.18v96.84a202.15,202.15,0,0,0,1.38,24.12q1.38,11.53,4.84,17.28H402.21a74.44,74.44,0,0,1-2.25-8.82,78.41,78.41,0,0,1-1.21-9.18,63.56,63.56,0,0,1-27.65,17.64,106.93,106.93,0,0,1-32.49,5,84.48,84.48,0,0,1-23.85-3.24A53.76,53.76,0,0,1,295.42,201a46.64,46.64,0,0,1-13-17.28q-4.67-10.44-4.67-24.84,0-15.84,5.36-26.1A46.09,46.09,0,0,1,297,116.43a60.86,60.86,0,0,1,19.35-9.18,201.14,201.14,0,0,1,21.95-4.86q11.06-1.8,21.77-2.88a126.12,126.12,0,0,0,19-3.24q8.29-2.16,13.13-6.3t4.49-12.06q0-8.28-2.59-13.14a19.54,19.54,0,0,0-6.91-7.56,26.53,26.53,0,0,0-10-3.6,79.24,79.24,0,0,0-12.27-.9q-14.52,0-22.81,6.48t-9.68,21.6H283.33Zm113.36,37.8a21.74,21.74,0,0,1-7.78,4.5,76.88,76.88,0,0,1-10,2.7q-5.36,1.08-11.23,1.8t-11.75,1.8A86.15,86.15,0,0,0,345,132.27a31.82,31.82,0,0,0-9.33,4.86,22.86,22.86,0,0,0-6.39,7.74,25.76,25.76,0,0,0-2.42,11.88,24.85,24.85,0,0,0,2.42,11.52,19,19,0,0,0,6.57,7.38,27,27,0,0,0,9.68,3.78,59.26,59.26,0,0,0,11.41,1.08q14.52,0,22.46-5a33.09,33.09,0,0,0,11.75-12.06,39.71,39.71,0,0,0,4.67-14.22,102.54,102.54,0,0,0,.86-11.52V118.59Z"/><path class="c" d="M552.2,23.55v34.2H516.26v92.16q0,13,4.15,17.28T537,171.51q4.15,0,7.95-.36a64.68,64.68,0,0,0,7.26-1.08v39.6a112.82,112.82,0,0,1-13.82,1.44q-7.61.35-14.86,0.36a137.6,137.6,0,0,1-21.6-1.62,49.53,49.53,0,0,1-18-6.3,32.75,32.75,0,0,1-12.27-13.32q-4.5-8.64-4.49-22.68V57.75H437.46V23.55h29.72v-55.8h49.08v55.8H552.2Z"/><path class="c" d="M631.34,57q-11.75,0-19.7,5.58a43.65,43.65,0,0,0-13,14.4,63.84,63.84,0,0,0-7.08,19.44,109.68,109.68,0,0,0-2.07,21.06A105.11,105.11,0,0,0,591.6,138a65,65,0,0,0,6.74,18.9,39.64,39.64,0,0,0,12.61,13.86q7.95,5.4,19.35,5.4,17.63,0,27.13-10.26t11.92-27.54H716.7q-4.84,37.08-27.65,56.52t-58.41,19.44a94.34,94.34,0,0,1-36.81-7,81.33,81.33,0,0,1-28.51-19.62A89.76,89.76,0,0,1,547,157.65a108.07,108.07,0,0,1-6.57-38.34,128.7,128.7,0,0,1,6-40.14,91.19,91.19,0,0,1,17.8-32A81.53,81.53,0,0,1,593,26.07q16.93-7.56,38.71-7.56a107.88,107.88,0,0,1,30.59,4.32A80.38,80.38,0,0,1,688.54,36a69.54,69.54,0,0,1,18.83,22q7.26,13.15,8.29,31.14h-48Q662.78,57,631.34,57Z"/><path class="c" d="M763.7-47.37V49.47h1q9.33-16.2,23.85-23.58t28.34-7.38q19.7,0,32.31,5.58a48.19,48.19,0,0,1,19.87,15.48q7.26,9.91,10.2,24.12a156.32,156.32,0,0,1,2.94,31.5V209.67H833.17V104.55q0-23-6.91-34.38T801.72,58.83q-20,0-29,12.42t-9,40.86v97.56H714.63v-257H763.7Z"/><path class="c" d="M946.17,154.23v55.44H891.91V154.23h54.26Z"/><path class="c" d="M187.94,515.67l-41.82-175h-0.69l-41.13,175h-55L-16,258.63H38.3l39.05,175H78l42.85-175h50.8l42.16,177.12h0.69L255,258.63h53.22l-66.35,257H187.94Z"/><path class="c" d="M283.33,386.79q1-18,8.64-29.88a59.89,59.89,0,0,1,19.35-19.08,82.28,82.28,0,0,1,26.44-10.26,144.68,144.68,0,0,1,29.55-3.06,192.93,192.93,0,0,1,27.3,2,81.2,81.2,0,0,1,25.23,7.74,50.25,50.25,0,0,1,18.66,16q7.26,10.26,7.26,27.18v96.84a202.15,202.15,0,0,0,1.38,24.12q1.38,11.53,4.84,17.28H402.21a74.44,74.44,0,0,1-2.25-8.82,78.41,78.41,0,0,1-1.21-9.18,63.56,63.56,0,0,1-27.65,17.64,106.93,106.93,0,0,1-32.49,5,84.48,84.48,0,0,1-23.85-3.24A53.76,53.76,0,0,1,295.42,507a46.64,46.64,0,0,1-13-17.28q-4.67-10.44-4.67-24.84,0-15.84,5.36-26.1A46.09,46.09,0,0,1,297,422.43a60.86,60.86,0,0,1,19.35-9.18,201.14,201.14,0,0,1,21.95-4.86q11.06-1.8,21.77-2.88a126.12,126.12,0,0,0,19-3.24q8.29-2.16,13.13-6.3t4.49-12.06q0-8.28-2.59-13.14a19.54,19.54,0,0,0-6.91-7.56,26.53,26.53,0,0,0-10-3.6,79.24,79.24,0,0,0-12.27-.9q-14.52,0-22.81,6.48t-9.68,21.6H283.33Zm113.36,37.8a21.74,21.74,0,0,1-7.78,4.5,76.88,76.88,0,0,1-10,2.7q-5.36,1.08-11.23,1.8t-11.75,1.8A86.15,86.15,0,0,0,345,438.27a31.82,31.82,0,0,0-9.33,4.86,22.86,22.86,0,0,0-6.39,7.74,25.76,25.76,0,0,0-2.42,11.88,24.85,24.85,0,0,0,2.42,11.52,19,19,0,0,0,6.57,7.38,27,27,0,0,0,9.68,3.78,59.26,59.26,0,0,0,11.41,1.08q14.52,0,22.46-5a33.09,33.09,0,0,0,11.75-12.06,39.71,39.71,0,0,0,4.67-14.22,102.54,102.54,0,0,0,.86-11.52V424.59Z"/><path class="c" d="M552.2,329.55v34.2H516.26v92.16q0,13,4.15,17.28T537,477.51q4.15,0,7.95-.36a64.68,64.68,0,0,0,7.26-1.08v39.6a112.82,112.82,0,0,1-13.82,1.44q-7.61.35-14.86,0.36a137.6,137.6,0,0,1-21.6-1.62,49.53,49.53,0,0,1-18-6.3,32.75,32.75,0,0,1-12.27-13.32q-4.5-8.64-4.49-22.68V363.75H437.46v-34.2h29.72v-55.8h49.08v55.8H552.2Z"/><path class="c" d="M631.34,363q-11.75,0-19.7,5.58a43.65,43.65,0,0,0-13,14.4,63.84,63.84,0,0,0-7.08,19.44,109.68,109.68,0,0,0-2.07,21.06A105.11,105.11,0,0,0,591.6,444a65,65,0,0,0,6.74,18.9,39.64,39.64,0,0,0,12.61,13.86q7.95,5.4,19.35,5.4,17.63,0,27.13-10.26t11.92-27.54H716.7q-4.84,37.08-27.65,56.52t-58.41,19.44a94.34,94.34,0,0,1-36.81-7,81.33,81.33,0,0,1-28.51-19.62A89.76,89.76,0,0,1,547,463.65a108.07,108.07,0,0,1-6.57-38.34,128.7,128.7,0,0,1,6-40.14,91.19,91.19,0,0,1,17.8-32A81.53,81.53,0,0,1,593,332.07q16.93-7.56,38.71-7.56a107.88,107.88,0,0,1,30.59,4.32A80.38,80.38,0,0,1,688.54,342a69.54,69.54,0,0,1,18.83,22q7.26,13.15,8.29,31.14h-48Q662.78,363,631.34,363Z"/><path class="c" d="M763.7,258.63v96.84h1q9.33-16.2,23.85-23.58t28.34-7.38q19.7,0,32.31,5.58a48.19,48.19,0,0,1,19.87,15.48q7.26,9.91,10.2,24.12a156.32,156.32,0,0,1,2.94,31.5V515.67H833.17V410.55q0-23-6.91-34.38t-24.54-11.34q-20,0-29,12.42t-9,40.86v97.56H714.63v-257H763.7Z"/><path class="c" d="M946.17,460.23v55.44H891.91V460.23h54.26Z"/><path class="c" d="M187.94,821.67l-41.82-175h-0.69l-41.13,175h-55L-16,564.63H38.3l39.05,175H78l42.85-175h50.8l42.16,177.12h0.69L255,564.63h53.22l-66.35,257H187.94Z"/><path class="c" d="M283.33,692.79q1-18,8.64-29.88a59.89,59.89,0,0,1,19.35-19.08,82.28,82.28,0,0,1,26.44-10.26,144.68,144.68,0,0,1,29.55-3.06,192.93,192.93,0,0,1,27.3,2,81.2,81.2,0,0,1,25.23,7.74,50.25,50.25,0,0,1,18.66,16q7.26,10.26,7.26,27.18v96.84a202.15,202.15,0,0,0,1.38,24.12q1.38,11.53,4.84,17.28H402.21a74.44,74.44,0,0,1-2.25-8.82,78.41,78.41,0,0,1-1.21-9.18,63.56,63.56,0,0,1-27.65,17.64,106.93,106.93,0,0,1-32.49,5,84.48,84.48,0,0,1-23.85-3.24A53.76,53.76,0,0,1,295.42,813a46.64,46.64,0,0,1-13-17.28q-4.67-10.44-4.67-24.84,0-15.84,5.36-26.1A46.09,46.09,0,0,1,297,728.43a60.86,60.86,0,0,1,19.35-9.18,201.14,201.14,0,0,1,21.95-4.86q11.06-1.8,21.77-2.88a126.12,126.12,0,0,0,19-3.24q8.29-2.16,13.13-6.3t4.49-12.06q0-8.28-2.59-13.14a19.54,19.54,0,0,0-6.91-7.56,26.53,26.53,0,0,0-10-3.6,79.24,79.24,0,0,0-12.27-.9q-14.52,0-22.81,6.48t-9.68,21.6H283.33Zm113.36,37.8a21.74,21.74,0,0,1-7.78,4.5,76.88,76.88,0,0,1-10,2.7q-5.36,1.08-11.23,1.8t-11.75,1.8A86.15,86.15,0,0,0,345,744.27a31.82,31.82,0,0,0-9.33,4.86,22.86,22.86,0,0,0-6.39,7.74,25.76,25.76,0,0,0-2.42,11.88,24.85,24.85,0,0,0,2.42,11.52,19,19,0,0,0,6.57,7.38,27,27,0,0,0,9.68,3.78,59.26,59.26,0,0,0,11.41,1.08q14.52,0,22.46-5a33.09,33.09,0,0,0,11.75-12.06,39.71,39.71,0,0,0,4.67-14.22,102.54,102.54,0,0,0,.86-11.52V730.59Z"/><path class="c" d="M552.2,635.55v34.2H516.26v92.16q0,13,4.15,17.28T537,783.51q4.15,0,7.95-.36a64.68,64.68,0,0,0,7.26-1.08v39.6a112.82,112.82,0,0,1-13.82,1.44q-7.61.35-14.86,0.36a137.6,137.6,0,0,1-21.6-1.62,49.53,49.53,0,0,1-18-6.3,32.75,32.75,0,0,1-12.27-13.32q-4.5-8.64-4.49-22.68V669.75H437.46v-34.2h29.72v-55.8h49.08v55.8H552.2Z"/><path class="c" d="M631.34,669q-11.75,0-19.7,5.58a43.65,43.65,0,0,0-13,14.4,63.84,63.84,0,0,0-7.08,19.44,109.68,109.68,0,0,0-2.07,21.06A105.11,105.11,0,0,0,591.6,750a65,65,0,0,0,6.74,18.9,39.64,39.64,0,0,0,12.61,13.86q7.95,5.4,19.35,5.4,17.63,0,27.13-10.26t11.92-27.54H716.7q-4.84,37.08-27.65,56.52t-58.41,19.44a94.34,94.34,0,0,1-36.81-7,81.33,81.33,0,0,1-28.51-19.62A89.76,89.76,0,0,1,547,769.65a108.07,108.07,0,0,1-6.57-38.34,128.7,128.7,0,0,1,6-40.14,91.19,91.19,0,0,1,17.8-32A81.53,81.53,0,0,1,593,638.07q16.93-7.56,38.71-7.56a107.88,107.88,0,0,1,30.59,4.32A80.38,80.38,0,0,1,688.54,648a69.54,69.54,0,0,1,18.83,22q7.26,13.15,8.29,31.14h-48Q662.78,669,631.34,669Z"/><path class="c" d="M763.7,564.63v96.84h1q9.33-16.2,23.85-23.58t28.34-7.38q19.7,0,32.31,5.58a48.19,48.19,0,0,1,19.87,15.48q7.26,9.91,10.2,24.12a156.32,156.32,0,0,1,2.94,31.5V821.67H833.17V716.55q0-23-6.91-34.38t-24.54-11.34q-20,0-29,12.42t-9,40.86v97.56H714.63v-257H763.7Z"/><path class="c" d="M946.17,766.23v55.44H891.91V766.23h54.26Z"/><path class="c" d="M187.94,1127.67l-41.82-175h-0.69l-41.13,175h-55L-16,870.63H38.3l39.05,175H78l42.85-175h50.8l42.16,177.12h0.69L255,870.63h53.22l-66.35,257H187.94Z"/><path class="c" d="M283.33,998.79q1-18,8.64-29.88a59.89,59.89,0,0,1,19.35-19.08,82.28,82.28,0,0,1,26.44-10.26,144.68,144.68,0,0,1,29.55-3.06,192.93,192.93,0,0,1,27.3,2,81.2,81.2,0,0,1,25.23,7.74,50.25,50.25,0,0,1,18.66,16q7.26,10.26,7.26,27.18v96.84a202.15,202.15,0,0,0,1.38,24.12q1.38,11.53,4.84,17.28H402.21a74.44,74.44,0,0,1-2.25-8.82,78.41,78.41,0,0,1-1.21-9.18,63.56,63.56,0,0,1-27.65,17.64,106.93,106.93,0,0,1-32.49,5,84.48,84.48,0,0,1-23.85-3.24A53.76,53.76,0,0,1,295.42,1119a46.64,46.64,0,0,1-13-17.28q-4.67-10.44-4.67-24.84,0-15.84,5.36-26.1A46.09,46.09,0,0,1,297,1034.43a60.86,60.86,0,0,1,19.35-9.18,201.14,201.14,0,0,1,21.95-4.86q11.06-1.8,21.77-2.88a126.12,126.12,0,0,0,19-3.24q8.29-2.16,13.13-6.3t4.49-12.06q0-8.28-2.59-13.14a19.54,19.54,0,0,0-6.91-7.56,26.53,26.53,0,0,0-10-3.6,79.24,79.24,0,0,0-12.27-.9q-14.52,0-22.81,6.48t-9.68,21.6H283.33Zm113.36,37.8a21.74,21.74,0,0,1-7.78,4.5,76.88,76.88,0,0,1-10,2.7q-5.36,1.08-11.23,1.8t-11.75,1.8a86.15,86.15,0,0,0-10.89,2.88,31.82,31.82,0,0,0-9.33,4.86,22.86,22.86,0,0,0-6.39,7.74,25.76,25.76,0,0,0-2.42,11.88,24.85,24.85,0,0,0,2.42,11.52,19,19,0,0,0,6.57,7.38,27,27,0,0,0,9.68,3.78,59.26,59.26,0,0,0,11.41,1.08q14.52,0,22.46-5a33.09,33.09,0,0,0,11.75-12.06,39.71,39.71,0,0,0,4.67-14.22,102.54,102.54,0,0,0,.86-11.52v-19.08Z"/><path class="c" d="M552.2,941.55v34.2H516.26v92.16q0,13,4.15,17.28t16.59,4.32q4.15,0,7.95-.36a64.68,64.68,0,0,0,7.26-1.08v39.6a112.81,112.81,0,0,1-13.82,1.44q-7.61.35-14.86,0.36a137.6,137.6,0,0,1-21.6-1.62,49.53,49.53,0,0,1-18-6.3,32.75,32.75,0,0,1-12.27-13.32q-4.5-8.64-4.49-22.68V975.75H437.46v-34.2h29.72v-55.8h49.08v55.8H552.2Z"/><path class="c" d="M631.34,975q-11.75,0-19.7,5.58a43.65,43.65,0,0,0-13,14.4,63.84,63.84,0,0,0-7.08,19.44,109.68,109.68,0,0,0-2.07,21.06A105.11,105.11,0,0,0,591.6,1056a65,65,0,0,0,6.74,18.9,39.64,39.64,0,0,0,12.61,13.86q7.95,5.4,19.35,5.4,17.63,0,27.13-10.26t11.92-27.54H716.7q-4.84,37.08-27.65,56.52t-58.41,19.44a94.34,94.34,0,0,1-36.81-7,81.33,81.33,0,0,1-28.51-19.62A89.76,89.76,0,0,1,547,1075.65a108.07,108.07,0,0,1-6.57-38.34,128.7,128.7,0,0,1,6-40.14,91.19,91.19,0,0,1,17.8-32A81.53,81.53,0,0,1,593,944.07q16.93-7.56,38.71-7.56a107.88,107.88,0,0,1,30.59,4.32A80.38,80.38,0,0,1,688.54,954a69.54,69.54,0,0,1,18.83,22q7.26,13.15,8.29,31.14h-48Q662.78,975,631.34,975Z"/><path class="c" d="M763.7,870.63v96.84h1q9.33-16.2,23.85-23.58t28.34-7.38q19.7,0,32.31,5.58a48.19,48.19,0,0,1,19.87,15.48q7.26,9.91,10.2,24.12a156.32,156.32,0,0,1,2.94,31.5v114.48H833.17V1022.55q0-23-6.91-34.38t-24.54-11.34q-20,0-29,12.42t-9,40.86v97.56H714.63v-257H763.7Z"/></g></svg>