<svg xmlns="http://www.w3.org/2000/svg" xmlns:xlink="http://www.w3.org/1999/xlink" viewBox="0 0 937 967"><defs><style>.a{fill:none;}.b{clip-path:url(#a);}.c{opacity:0.45;}.d{fill:#fff;}</style><clipPath id="a"><rect class="a" x="0.25" y="-0.28" width="939.49" height="967.55"/></clipPath></defs><title>home_03_hover</title><g class="b"><rect class="c" x="0.25" y="-0.28" width="939.49" height="967.55"/><path class="d" d="M59.76-48.37l103,172.44h0.69V-48.37h50.8v257H160L57.34,36.59H56.65V208.67H5.85v-257H59.76Z"/><path class="d" d="M279.56,164q11.06,11.16,31.8,11.16,14.85,0,25.57-7.74t13.13-16.38h43.2q-10.37,33.48-31.79,47.88t-51.84,14.4q-21.08,0-38-7a78.88,78.88,0,0,1-28.69-20,90.56,90.56,0,0,1-18.14-31,117.47,117.47,0,0,1-6.39-39.6A112.6,112.6,0,0,1,225,76.91a91.82,91.82,0,0,1,18.66-31.14,87.82,87.82,0,0,1,28.86-20.7,89.32,89.32,0,0,1,37.15-7.56q22.81,0,39.74,9.18a80.35,80.35,0,0,1,27.82,24.66,103.41,103.41,0,0,1,15.72,35.28,136.84,136.84,0,0,1,3.46,41.4H267.47Q268.5,152.87,279.56,164ZM335,66.11Q326.22,56,308.25,56q-11.75,0-19.53,4.14a37.52,37.52,0,0,0-12.44,10.26,38.13,38.13,0,0,0-6.57,13,60.47,60.47,0,0,0-2.25,12.24H347.3Q343.84,76.19,335,66.11Z"/><path class="d" d="M549.47,208.67L517.68,83.75H517L486.57,208.67h-50.8L379.09,22.55h51.84l32.83,126.36h0.69L494.18,22.55h47.69l30.41,126H573l32.83-126h50.46L599.93,208.67H549.47Z"/><path class="d" d="M704,153.23v55.44H649.69V153.23H704Zm-15.21-21.6H664.21L651.08,20.75V-48.37h51.15V20.75Z"/><path class="d" d="M772.73-48.37l103,172.44h0.69V-48.37h50.8v257H873L770.31,36.59h-0.69V208.67h-50.8v-257h53.91Z"/><path class="d" d="M992.53,164q11.06,11.16,31.8,11.16,14.85,0,25.57-7.74T1063,151.07h43.2q-10.37,33.48-31.8,47.88t-51.84,14.4q-21.08,0-38-7a78.87,78.87,0,0,1-28.69-20,90.56,90.56,0,0,1-18.14-31,117.47,117.47,0,0,1-6.39-39.6,112.6,112.6,0,0,1,6.57-38.88,91.82,91.82,0,0,1,18.66-31.14,87.82,87.82,0,0,1,28.86-20.7,89.32,89.32,0,0,1,37.15-7.56q22.81,0,39.74,9.18a80.34,80.34,0,0,1,27.82,24.66,103.43,103.43,0,0,1,15.73,35.28,136.87,136.87,0,0,1,3.46,41.4H980.43Q981.47,152.87,992.53,164ZM1048,66.11Q1039.18,56,1021.21,56q-11.75,0-19.53,4.14a37.52,37.52,0,0,0-12.44,10.26,38.15,38.15,0,0,0-6.57,13,60.53,60.53,0,0,0-2.25,12.24h79.83Q1056.81,76.19,1048,66.11Z"/><path class="d" d="M47.32,451.31a40.38,40.38,0,0,0,11.92,14.58,50.56,50.56,0,0,0,17.45,8.28,79.35,79.35,0,0,0,20.74,2.7A103.37,103.37,0,0,0,113,475.61a52.43,52.43,0,0,0,15.55-4.86,34.14,34.14,0,0,0,12.1-9.9q4.84-6.29,4.84-16,0-10.44-6.39-16.92a50.47,50.47,0,0,0-16.76-10.8,162.41,162.41,0,0,0-23.5-7.56q-13.14-3.24-26.61-7.2a228.06,228.06,0,0,1-27-8.82A91.31,91.31,0,0,1,21.75,380,63,63,0,0,1,5,359.33q-6.4-12.42-6.39-30.06,0-19.79,8.12-34.38A75.55,75.55,0,0,1,28,270.59a91,91,0,0,1,29.72-14.4,121.84,121.84,0,0,1,33.18-4.68A151.14,151.14,0,0,1,128,256a91,91,0,0,1,31.62,14.58,72.92,72.92,0,0,1,21.95,25.74q8.12,15.66,8.12,38H137.18q-0.7-11.52-4.67-19.08A31.38,31.38,0,0,0,122,303.35a43.64,43.64,0,0,0-15-6.12,89.2,89.2,0,0,0-18.49-1.8,61.37,61.37,0,0,0-13.13,1.44,34.43,34.43,0,0,0-11.92,5,30.54,30.54,0,0,0-8.81,9q-3.46,5.4-3.46,13.68,0,7.56,2.76,12.24t10.89,8.64q8.12,4,22.46,7.92t37.5,10.08q6.91,1.44,19.18,5.22a90.49,90.49,0,0,1,24.37,12.06,75.38,75.38,0,0,1,20.91,22.14Q198,416.75,198,438.35a81.4,81.4,0,0,1-6.57,32.76,70.86,70.86,0,0,1-19.53,26.1q-13,11-32.14,17.1t-44.41,6.12a150.13,150.13,0,0,1-39.57-5.22,97.67,97.67,0,0,1-33.87-16.38A80,80,0,0,1-1.41,470.39q-8.64-17.28-8.29-41H42.83Q42.83,442.31,47.32,451.31Z"/><path class="d" d="M196.27,381.29a87.67,87.67,0,0,1,18.66-31,83.41,83.41,0,0,1,29-19.8q16.93-7,38-7t38.19,7a83.13,83.13,0,0,1,29.2,19.8,87.83,87.83,0,0,1,18.66,31q6.56,18.18,6.57,40.5T368,462.11a88,88,0,0,1-18.66,30.78,81,81,0,0,1-29.2,19.62q-17.11,6.83-38.19,6.84t-38-6.84a81.27,81.27,0,0,1-29-19.62,87.84,87.84,0,0,1-18.66-30.78q-6.57-18-6.57-40.32T196.27,381.29Zm44.58,62.28a59.41,59.41,0,0,0,7.08,19.08,38.45,38.45,0,0,0,13.31,13.5q8.3,5,20.74,5t20.91-5a38,38,0,0,0,13.48-13.5,59.57,59.57,0,0,0,7.08-19.08,113.32,113.32,0,0,0,2.07-21.78,116.19,116.19,0,0,0-2.07-22,57.58,57.58,0,0,0-7.08-19.08,40.14,40.14,0,0,0-13.48-13.5Q294.41,362,282,362t-20.74,5.22a40.61,40.61,0,0,0-13.31,13.5,57.43,57.43,0,0,0-7.08,19.08,116.19,116.19,0,0,0-2.07,22A113.32,113.32,0,0,0,240.85,443.57Z"/><path class="d" d="M462,362q-11.75,0-19.7,5.58a43.65,43.65,0,0,0-13,14.4,63.84,63.84,0,0,0-7.08,19.44,109.68,109.68,0,0,0-2.07,21.06A105.11,105.11,0,0,0,422.29,443a65,65,0,0,0,6.74,18.9,39.65,39.65,0,0,0,12.62,13.86q7.95,5.4,19.35,5.4,17.63,0,27.13-10.26T500,443.39H547.4q-4.84,37.08-27.65,56.52t-58.41,19.44a94.33,94.33,0,0,1-36.81-7A81.33,81.33,0,0,1,396,492.71a89.76,89.76,0,0,1-18.32-30.06,108.05,108.05,0,0,1-6.57-38.34,128.7,128.7,0,0,1,6-40.14,91.18,91.18,0,0,1,17.8-32,81.52,81.52,0,0,1,28.68-21.06q16.93-7.56,38.71-7.56A107.88,107.88,0,0,1,493,327.83,80.37,80.37,0,0,1,519.23,341a69.54,69.54,0,0,1,18.84,22q7.26,13.15,8.29,31.14h-48Q493.48,362,462,362Z"/><path class="d" d="M598.89,257.63V395.51l61.86-67h58.06l-67.39,68.4,75,117.72H667l-49.07-83.16-19,19.08v64.08H549.81v-257h49.08Z"/><path class="d" d="M755.27,468.41a29.44,29.44,0,0,0,8.47,9.72,35.56,35.56,0,0,0,11.92,5.58,53.83,53.83,0,0,0,14,1.8,50.26,50.26,0,0,0,10.89-1.26,36.06,36.06,0,0,0,10.37-4,23.87,23.87,0,0,0,7.78-7.2,19.48,19.48,0,0,0,3.11-11.34q0-11.52-14.69-17.28t-41-11.52q-10.72-2.52-20.91-5.94a70,70,0,0,1-18.14-9,43,43,0,0,1-12.79-14q-4.84-8.45-4.84-20.7,0-18,6.74-29.52A50.72,50.72,0,0,1,734,335.57a76.06,76.06,0,0,1,24.88-9.36,147.49,147.49,0,0,1,28.34-2.7,136.26,136.26,0,0,1,28.17,2.88,72.92,72.92,0,0,1,24.36,9.72,57.15,57.15,0,0,1,17.8,18.18q7.08,11.34,8.47,28.62H819.38q-1-14.76-10.71-20t-22.81-5.22a81.23,81.23,0,0,0-9,.54,29,29,0,0,0-8.81,2.34,18.27,18.27,0,0,0-6.74,5.22q-2.77,3.43-2.76,9.18a14.26,14.26,0,0,0,4.84,11.16,36.83,36.83,0,0,0,12.61,7A152.62,152.62,0,0,0,793.8,398q10,2.16,20.39,4.68a202.59,202.59,0,0,1,20.91,6.12,67.92,67.92,0,0,1,18.14,9.54A45.61,45.61,0,0,1,866,433.13q4.84,8.83,4.84,21.78,0,18.36-7.08,30.78a58.07,58.07,0,0,1-18.49,20,74,74,0,0,1-26.09,10.62,146.5,146.5,0,0,1-29.89,3.06,142.38,142.38,0,0,1-30.41-3.24,78.4,78.4,0,0,1-26.44-10.8,60.56,60.56,0,0,1-19-20q-7.44-12.42-8.12-31.14H752A28.93,28.93,0,0,0,755.27,468.41Z"/><path class="d" d="M926.16,459.23v55.44H871.9V459.23h54.26Z"/><path class="d" d="M982.84,451.31a40.38,40.38,0,0,0,11.92,14.58,50.56,50.56,0,0,0,17.45,8.28,79.35,79.35,0,0,0,20.74,2.7,103.36,103.36,0,0,0,15.55-1.26,52.44,52.44,0,0,0,15.55-4.86,34.16,34.16,0,0,0,12.1-9.9q4.84-6.29,4.84-16,0-10.44-6.39-16.92a50.47,50.47,0,0,0-16.76-10.8,162.39,162.39,0,0,0-23.5-7.56q-13.14-3.24-26.61-7.2a228.1,228.1,0,0,1-27-8.82,91.34,91.34,0,0,1-23.5-13.5,63,63,0,0,1-16.76-20.7q-6.4-12.42-6.39-30.06,0-19.79,8.12-34.38a75.53,75.53,0,0,1,21.25-24.3,91,91,0,0,1,29.72-14.4,121.84,121.84,0,0,1,33.18-4.68,151.13,151.13,0,0,1,37.15,4.5,91.05,91.05,0,0,1,31.62,14.58,72.93,72.93,0,0,1,21.95,25.74q8.12,15.66,8.12,38H1072.7q-0.7-11.52-4.67-19.08a31.38,31.38,0,0,0-10.54-11.88,43.64,43.64,0,0,0-15-6.12,89.19,89.19,0,0,0-18.49-1.8,61.36,61.36,0,0,0-13.13,1.44,34.43,34.43,0,0,0-11.92,5,30.56,30.56,0,0,0-8.81,9q-3.46,5.4-3.46,13.68,0,7.56,2.76,12.24t10.89,8.64q8.12,4,22.46,7.92t37.5,10.08q6.91,1.44,19.18,5.22a90.5,90.5,0,0,1,24.36,12.06,75.38,75.38,0,0,1,20.91,22.14q8.81,13.86,8.81,35.46a81.4,81.4,0,0,1-6.57,32.76,70.86,70.86,0,0,1-19.53,26.1q-13,11-32.14,17.1t-44.41,6.12a150.15,150.15,0,0,1-39.57-5.22,97.67,97.67,0,0,1-33.87-16.38,80,80,0,0,1-23.33-28.44q-8.64-17.28-8.29-41h52.53Q978.35,442.31,982.84,451.31Z"/><path class="d" d="M59.76,563.63l103,172.44h0.69V563.63h50.8v257H160L57.34,648.59H56.65V820.67H5.85v-257H59.76Z"/><path class="d" d="M279.56,776q11.06,11.16,31.8,11.16,14.85,0,25.57-7.74t13.13-16.38h43.2q-10.37,33.48-31.79,47.88t-51.84,14.4q-21.08,0-38-7a78.88,78.88,0,0,1-28.69-20,90.56,90.56,0,0,1-18.14-31,117.47,117.47,0,0,1-6.39-39.6A112.6,112.6,0,0,1,225,688.91a91.82,91.82,0,0,1,18.66-31.14,87.82,87.82,0,0,1,28.86-20.7,89.32,89.32,0,0,1,37.15-7.56q22.81,0,39.74,9.18a80.35,80.35,0,0,1,27.82,24.66,103.41,103.41,0,0,1,15.72,35.28,136.84,136.84,0,0,1,3.46,41.4H267.47Q268.5,764.87,279.56,776ZM335,678.11Q326.22,668,308.25,668q-11.75,0-19.53,4.14a37.52,37.52,0,0,0-12.44,10.26,38.13,38.13,0,0,0-6.57,13,60.47,60.47,0,0,0-2.25,12.24H347.3Q343.84,688.19,335,678.11Z"/><path class="d" d="M549.47,820.67l-31.8-124.92H517L486.57,820.67h-50.8L379.09,634.55h51.84l32.83,126.36h0.69l29.72-126.36h47.69l30.41,126H573l32.83-126h50.46L599.93,820.67H549.47Z"/><path class="d" d="M704,765.23v55.44H649.69V765.23H704Zm-15.21-21.6H664.21L651.08,632.75V563.63h51.15v69.12Z"/><path class="d" d="M772.73,563.63l103,172.44h0.69V563.63h50.8v257H873L770.31,648.59h-0.69V820.67h-50.8v-257h53.91Z"/><path class="d" d="M992.53,776q11.06,11.16,31.8,11.16,14.85,0,25.57-7.74T1063,763.07h43.2q-10.37,33.48-31.8,47.88t-51.84,14.4q-21.08,0-38-7a78.87,78.87,0,0,1-28.69-20,90.56,90.56,0,0,1-18.14-31,117.47,117.47,0,0,1-6.39-39.6,112.6,112.6,0,0,1,6.57-38.88,91.82,91.82,0,0,1,18.66-31.14,87.82,87.82,0,0,1,28.86-20.7,89.32,89.32,0,0,1,37.15-7.56q22.81,0,39.74,9.18a80.34,80.34,0,0,1,27.82,24.66,103.43,103.43,0,0,1,15.73,35.28,136.87,136.87,0,0,1,3.46,41.4H980.43Q981.47,764.87,992.53,776ZM1048,678.11Q1039.18,668,1021.21,668q-11.75,0-19.53,4.14a37.52,37.52,0,0,0-12.44,10.26,38.15,38.15,0,0,0-6.57,13,60.53,60.53,0,0,0-2.25,12.24h79.83Q1056.81,688.19,1048,678.11Z"/><path class="d" d="M47.32,1063.31a40.38,40.38,0,0,0,11.92,14.58,50.56,50.56,0,0,0,17.45,8.28,79.35,79.35,0,0,0,20.74,2.7,103.37,103.37,0,0,0,15.55-1.26,52.43,52.43,0,0,0,15.55-4.86,34.14,34.14,0,0,0,12.1-9.9q4.84-6.29,4.84-16,0-10.44-6.39-16.92a50.47,50.47,0,0,0-16.76-10.8,162.41,162.41,0,0,0-23.5-7.56q-13.14-3.24-26.61-7.2a228.06,228.06,0,0,1-27-8.82A91.31,91.31,0,0,1,21.75,992,63,63,0,0,1,5,971.33q-6.4-12.42-6.39-30.06,0-19.79,8.12-34.38A75.55,75.55,0,0,1,28,882.59a91,91,0,0,1,29.72-14.4,121.84,121.84,0,0,1,33.18-4.68A151.14,151.14,0,0,1,128,868a91,91,0,0,1,31.62,14.58,72.92,72.92,0,0,1,21.95,25.74q8.12,15.66,8.12,38H137.18q-0.7-11.52-4.67-19.08A31.38,31.38,0,0,0,122,915.35a43.64,43.64,0,0,0-15-6.12,89.2,89.2,0,0,0-18.49-1.8,61.37,61.37,0,0,0-13.13,1.44,34.43,34.43,0,0,0-11.92,5,30.54,30.54,0,0,0-8.81,9q-3.46,5.4-3.46,13.68,0,7.56,2.76,12.24t10.89,8.64q8.12,4,22.46,7.92t37.5,10.08q6.91,1.44,19.18,5.22a90.49,90.49,0,0,1,24.37,12.06,75.38,75.38,0,0,1,20.91,22.14q8.81,13.86,8.81,35.46a81.4,81.4,0,0,1-6.57,32.76,70.86,70.86,0,0,1-19.53,26.1q-13,11-32.14,17.1t-44.41,6.12a150.13,150.13,0,0,1-39.57-5.22,97.67,97.67,0,0,1-33.87-16.38,80,80,0,0,1-23.33-28.44q-8.64-17.28-8.29-41H42.83Q42.83,1054.31,47.32,1063.31Z"/><path class="d" d="M196.27,993.29a87.67,87.67,0,0,1,18.66-31,83.41,83.41,0,0,1,29-19.8q16.93-7,38-7t38.19,7a83.13,83.13,0,0,1,29.2,19.8,87.83,87.83,0,0,1,18.66,31q6.56,18.18,6.57,40.5T368,1074.11a88,88,0,0,1-18.66,30.78,81,81,0,0,1-29.2,19.62q-17.11,6.83-38.19,6.84t-38-6.84a81.27,81.27,0,0,1-29-19.62,87.84,87.84,0,0,1-18.66-30.78q-6.57-18-6.57-40.32T196.27,993.29Zm44.58,62.28a59.41,59.41,0,0,0,7.08,19.08,38.45,38.45,0,0,0,13.31,13.5q8.3,5,20.74,5t20.91-5a38,38,0,0,0,13.48-13.5,59.57,59.57,0,0,0,7.08-19.08,113.32,113.32,0,0,0,2.07-21.78,116.19,116.19,0,0,0-2.07-22,57.58,57.58,0,0,0-7.08-19.08,40.14,40.14,0,0,0-13.48-13.5Q294.41,974,282,974t-20.74,5.22a40.61,40.61,0,0,0-13.31,13.5,57.43,57.43,0,0,0-7.08,19.08,116.19,116.19,0,0,0-2.07,22A113.32,113.32,0,0,0,240.85,1055.57Z"/><path class="d" d="M462,974q-11.75,0-19.7,5.58a43.65,43.65,0,0,0-13,14.4,63.84,63.84,0,0,0-7.08,19.44,109.68,109.68,0,0,0-2.07,21.06,105.11,105.11,0,0,0,2.07,20.52,65,65,0,0,0,6.74,18.9,39.65,39.65,0,0,0,12.62,13.86q7.95,5.4,19.35,5.4,17.63,0,27.13-10.26T500,1055.39H547.4q-4.84,37.08-27.65,56.52t-58.41,19.44a94.33,94.33,0,0,1-36.81-7A81.33,81.33,0,0,1,396,1104.71a89.76,89.76,0,0,1-18.32-30.06,108.05,108.05,0,0,1-6.57-38.34,128.7,128.7,0,0,1,6-40.14,91.18,91.18,0,0,1,17.8-32,81.52,81.52,0,0,1,28.68-21.06q16.93-7.56,38.71-7.56A107.88,107.88,0,0,1,493,939.83,80.37,80.37,0,0,1,519.23,953a69.54,69.54,0,0,1,18.84,22q7.26,13.15,8.29,31.14h-48Q493.48,974,462,974Z"/><path class="d" d="M598.89,869.63v137.88l61.86-67h58.06l-67.39,68.4,75,117.72H667l-49.07-83.16-19,19.08v64.08H549.81v-257h49.08Z"/><path class="d" d="M755.27,1080.41a29.44,29.44,0,0,0,8.47,9.72,35.56,35.56,0,0,0,11.92,5.58,53.83,53.83,0,0,0,14,1.8,50.26,50.26,0,0,0,10.89-1.26,36.06,36.06,0,0,0,10.37-4,23.87,23.87,0,0,0,7.78-7.2,19.48,19.48,0,0,0,3.11-11.34q0-11.52-14.69-17.28t-41-11.52q-10.72-2.52-20.91-5.94a70,70,0,0,1-18.14-9,43,43,0,0,1-12.79-14q-4.84-8.45-4.84-20.7,0-18,6.74-29.52A50.72,50.72,0,0,1,734,947.57a76.06,76.06,0,0,1,24.88-9.36,147.49,147.49,0,0,1,28.34-2.7,136.26,136.26,0,0,1,28.17,2.88,72.92,72.92,0,0,1,24.36,9.72,57.15,57.15,0,0,1,17.8,18.18q7.08,11.34,8.47,28.62H819.38q-1-14.76-10.71-20t-22.81-5.22a81.23,81.23,0,0,0-9,.54,29,29,0,0,0-8.81,2.34,18.27,18.27,0,0,0-6.74,5.22q-2.77,3.43-2.76,9.18a14.26,14.26,0,0,0,4.84,11.16,36.83,36.83,0,0,0,12.61,7,152.62,152.62,0,0,0,17.8,4.86q10,2.16,20.39,4.68a202.59,202.59,0,0,1,20.91,6.12,67.92,67.92,0,0,1,18.14,9.54A45.61,45.61,0,0,1,866,1045.13q4.84,8.83,4.84,21.78,0,18.36-7.08,30.78a58.07,58.07,0,0,1-18.49,20,74,74,0,0,1-26.09,10.62,146.5,146.5,0,0,1-29.89,3.06,142.38,142.38,0,0,1-30.41-3.24,78.4,78.4,0,0,1-26.44-10.8,60.56,60.56,0,0,1-19-20q-7.44-12.42-8.12-31.14H752A28.93,28.93,0,0,0,755.27,1080.41Z"/><path class="d" d="M982.84,1063.31a40.38,40.38,0,0,0,11.92,14.58,50.56,50.56,0,0,0,17.45,8.28,79.35,79.35,0,0,0,20.74,2.7,103.36,103.36,0,0,0,15.55-1.26,52.44,52.44,0,0,0,15.55-4.86,34.16,34.16,0,0,0,12.1-9.9q4.84-6.29,4.84-16,0-10.44-6.39-16.92a50.47,50.47,0,0,0-16.76-10.8,162.39,162.39,0,0,0-23.5-7.56q-13.14-3.24-26.61-7.2a228.1,228.1,0,0,1-27-8.82,91.34,91.34,0,0,1-23.5-13.5,63,63,0,0,1-16.76-20.7q-6.4-12.42-6.39-30.06,0-19.79,8.12-34.38a75.53,75.53,0,0,1,21.25-24.3,91,91,0,0,1,29.72-14.4,121.84,121.84,0,0,1,33.18-4.68,151.13,151.13,0,0,1,37.15,4.5,91.05,91.05,0,0,1,31.62,14.58,72.93,72.93,0,0,1,21.95,25.74q8.12,15.66,8.12,38H1072.7q-0.7-11.52-4.67-19.08a31.38,31.38,0,0,0-10.54-11.88,43.64,43.64,0,0,0-15-6.12,89.19,89.19,0,0,0-18.49-1.8,61.36,61.36,0,0,0-13.13,1.44,34.43,34.43,0,0,0-11.92,5,30.56,30.56,0,0,0-8.81,9q-3.46,5.4-3.46,13.68,0,7.56,2.76,12.24t10.89,8.64q8.12,4,22.46,7.92t37.5,10.08q6.91,1.44,19.18,5.22a90.5,90.5,0,0,1,24.36,12.06,75.38,75.38,0,0,1,20.91,22.14q8.81,13.86,8.81,35.46a81.4,81.4,0,0,1-6.57,32.76,70.86,70.86,0,0,1-19.53,26.1q-13,11-32.14,17.1t-44.41,6.12a150.15,150.15,0,0,1-39.57-5.22,97.67,97.67,0,0,1-33.87-16.38,80,80,0,0,1-23.33-28.44q-8.64-17.28-8.29-41h52.53Q978.35,1054.31,982.84,1063.31Z"/></g></svg>