<svg xmlns="http://www.w3.org/2000/svg" viewBox="0 0 1425 313.47"><title>shop_heading</title><path d="M17.22,94.45a16.84,16.84,0,0,0,5,6.08A21.07,21.07,0,0,0,29.46,104a33.06,33.06,0,0,0,8.64,1.13,43.09,43.09,0,0,0,6.48-.53,21.84,21.84,0,0,0,6.48-2,14.23,14.23,0,0,0,5-4.13,10.64,10.64,0,0,0,2-6.67,9.61,9.61,0,0,0-2.66-7.05,21.05,21.05,0,0,0-7-4.5,67.72,67.72,0,0,0-9.79-3.15q-5.47-1.35-11.09-3a95.13,95.13,0,0,1-11.23-3.67,38.06,38.06,0,0,1-9.79-5.62,26.23,26.23,0,0,1-7-8.63A27.08,27.08,0,0,1-3.09,43.6,29,29,0,0,1,.3,29.28,31.47,31.47,0,0,1,9.15,19.15a37.91,37.91,0,0,1,12.38-6,50.77,50.77,0,0,1,13.82-2,63,63,0,0,1,15.48,1.88A37.93,37.93,0,0,1,64,19.15a30.39,30.39,0,0,1,9.14,10.73A34.05,34.05,0,0,1,76.55,45.7H54.66a19.61,19.61,0,0,0-1.94-7.95,13.08,13.08,0,0,0-4.39-5,18.19,18.19,0,0,0-6.26-2.55,37.13,37.13,0,0,0-7.71-.75,25.57,25.57,0,0,0-5.47.6,14.34,14.34,0,0,0-5,2.1A12.74,12.74,0,0,0,20.24,36a10.38,10.38,0,0,0-1.44,5.7A9.93,9.93,0,0,0,20,46.75a10.33,10.33,0,0,0,4.54,3.6,56.07,56.07,0,0,0,9.36,3.3q6,1.65,15.63,4.2,2.88,0.6,8,2.18a37.7,37.7,0,0,1,10.15,5,31.43,31.43,0,0,1,8.71,9.23Q80,80.05,80,89.05a33.92,33.92,0,0,1-2.74,13.65,29.51,29.51,0,0,1-8.14,10.88,38.55,38.55,0,0,1-13.39,7.13,61,61,0,0,1-18.5,2.55,62.55,62.55,0,0,1-16.49-2.18,40.69,40.69,0,0,1-14.11-6.82A33.34,33.34,0,0,1-3.09,102.4,36.6,36.6,0,0,1-6.54,85.3H15.35A20.31,20.31,0,0,0,17.22,94.45Z"/><path d="M99.3,13.75V54.1h0.43a24.12,24.12,0,0,1,9.94-9.82,26,26,0,0,1,11.81-3.08q8.21,0,13.46,2.33A20.09,20.09,0,0,1,143.22,50,25.52,25.52,0,0,1,147.46,60a65.15,65.15,0,0,1,1.22,13.13v47.7H128.24V77.05q0-9.6-2.88-14.32T115.14,58q-8.35,0-12.1,5.17t-3.74,17v40.65H78.85V13.75H99.3Z"/><path d="M152.29,65.28a36.53,36.53,0,0,1,7.78-12.9,34.75,34.75,0,0,1,12.1-8.25A41,41,0,0,1,188,41.2a41.56,41.56,0,0,1,15.91,2.93,34.63,34.63,0,0,1,12.17,8.25,36.59,36.59,0,0,1,7.78,12.9,49.42,49.42,0,0,1,2.74,16.88A48.76,48.76,0,0,1,223.85,99a36.66,36.66,0,0,1-7.78,12.83A33.76,33.76,0,0,1,203.91,120,42.56,42.56,0,0,1,188,122.8,42,42,0,0,1,172.16,120a33.87,33.87,0,0,1-12.1-8.17A36.6,36.6,0,0,1,152.29,99a48.71,48.71,0,0,1-2.74-16.8A49.37,49.37,0,0,1,152.29,65.28Zm18.58,25.95a24.73,24.73,0,0,0,3,7.95,16,16,0,0,0,5.54,5.63,16.37,16.37,0,0,0,8.64,2.1,16.76,16.76,0,0,0,8.71-2.1,15.84,15.84,0,0,0,5.62-5.63,24.8,24.8,0,0,0,3-7.95,47.3,47.3,0,0,0,.86-9.07,48.49,48.49,0,0,0-.86-9.15,24,24,0,0,0-3-8,16.72,16.72,0,0,0-5.62-5.62A16.33,16.33,0,0,0,188,57.25a16,16,0,0,0-8.64,2.17,16.93,16.93,0,0,0-5.54,5.62,23.92,23.92,0,0,0-3,8,48.41,48.41,0,0,0-.86,9.15A47.22,47.22,0,0,0,170.86,91.23Z"/><path d="M246.89,43.3v9.9h0.29a22.86,22.86,0,0,1,9.5-9.15,28.19,28.19,0,0,1,12.67-2.85,31.19,31.19,0,0,1,15.12,3.45A31.6,31.6,0,0,1,295,53.8a39.41,39.41,0,0,1,6.19,13.27,61.34,61.34,0,0,1,2,15.83,55.42,55.42,0,0,1-2,15,38.84,38.84,0,0,1-6.12,12.75,30.63,30.63,0,0,1-10.22,8.85,29.77,29.77,0,0,1-14.33,3.3,28,28,0,0,1-12.74-2.92,24.42,24.42,0,0,1-9.58-8.62H247.9V148H227.45V43.3h19.44Zm26.57,61.5a16.72,16.72,0,0,0,5.47-5.48,23.14,23.14,0,0,0,3-7.87,48.4,48.4,0,0,0,.86-9.15,44.89,44.89,0,0,0-.94-9.15,25,25,0,0,0-3.1-8,17.64,17.64,0,0,0-5.54-5.7,15,15,0,0,0-8.28-2.17,15.29,15.29,0,0,0-8.42,2.17A17.16,17.16,0,0,0,251,65.05a23.94,23.94,0,0,0-3,8,49.21,49.21,0,0,0-.86,9.3,44.74,44.74,0,0,0,.94,9.15,24.18,24.18,0,0,0,3,7.88,16.46,16.46,0,0,0,5.54,5.48A17.8,17.8,0,0,0,273.46,104.8Z"/><path d="M350.14,94.45a16.84,16.84,0,0,0,5,6.08,21.07,21.07,0,0,0,7.27,3.45A33.06,33.06,0,0,0,371,105.1a43.09,43.09,0,0,0,6.48-.53,21.84,21.84,0,0,0,6.48-2,14.23,14.23,0,0,0,5-4.13,10.64,10.64,0,0,0,2-6.67,9.61,9.61,0,0,0-2.66-7.05,21.05,21.05,0,0,0-7-4.5,67.72,67.72,0,0,0-9.79-3.15q-5.47-1.35-11.09-3a95.13,95.13,0,0,1-11.23-3.67,38.06,38.06,0,0,1-9.79-5.62,26.23,26.23,0,0,1-7-8.63,27.08,27.08,0,0,1-2.66-12.53,29,29,0,0,1,3.38-14.32,31.47,31.47,0,0,1,8.86-10.12,37.91,37.91,0,0,1,12.38-6,50.77,50.77,0,0,1,13.82-2,63,63,0,0,1,15.48,1.88,37.93,37.93,0,0,1,13.18,6.08,30.39,30.39,0,0,1,9.14,10.73,34.05,34.05,0,0,1,3.38,15.82H387.58a19.61,19.61,0,0,0-1.94-7.95,13.08,13.08,0,0,0-4.39-5A18.19,18.19,0,0,0,375,30.25a37.13,37.13,0,0,0-7.71-.75,25.57,25.57,0,0,0-5.47.6,14.34,14.34,0,0,0-5,2.1A12.74,12.74,0,0,0,353.16,36a10.38,10.38,0,0,0-1.44,5.7,9.93,9.93,0,0,0,1.15,5.1,10.33,10.33,0,0,0,4.54,3.6,56.07,56.07,0,0,0,9.36,3.3q6,1.65,15.63,4.2,2.88,0.6,8,2.18a37.7,37.7,0,0,1,10.15,5,31.43,31.43,0,0,1,8.71,9.23q3.67,5.78,3.67,14.77a33.92,33.92,0,0,1-2.74,13.65,29.51,29.51,0,0,1-8.14,10.88,38.55,38.55,0,0,1-13.39,7.13,61,61,0,0,1-18.5,2.55,62.55,62.55,0,0,1-16.49-2.18,40.69,40.69,0,0,1-14.11-6.82,33.34,33.34,0,0,1-9.72-11.85,36.6,36.6,0,0,1-3.46-17.1h21.89A20.31,20.31,0,0,0,350.14,94.45Z"/><path d="M452.67,43.3V57.55h-15V96q0,5.4,1.73,7.2t6.91,1.8c1.15,0,2.25,0,3.31-.15a26.93,26.93,0,0,0,3-.45v16.5a47,47,0,0,1-5.76.6q-3.17.15-6.19,0.15a57.3,57.3,0,0,1-9-.68,20.63,20.63,0,0,1-7.49-2.62,13.65,13.65,0,0,1-5.11-5.55,20.5,20.5,0,0,1-1.87-9.45V57.55H404.86V43.3h12.38V20.05h20.45V43.3h15Z"/><path d="M469.51,43.3V57.7h0.29A26.32,26.32,0,0,1,473.69,51a25.88,25.88,0,0,1,5.62-5.25,27,27,0,0,1,6.77-3.37,23.54,23.54,0,0,1,7.49-1.2A15.41,15.41,0,0,1,498,42v19.8q-1.44-.3-3.46-0.53a35.08,35.08,0,0,0-3.89-.22,21.07,21.07,0,0,0-9.5,1.95,16.63,16.63,0,0,0-6.26,5.33,21.77,21.77,0,0,0-3.38,7.88,44.53,44.53,0,0,0-1,9.75v35H450.07V43.3h19.44Z"/><path d="M494.28,31.3V13.75h20.45V31.3H494.28Zm20.45,12v77.55H494.28V43.3h20.45Z"/><path d="M537.91,43.3v9.9h0.29a22.86,22.86,0,0,1,9.5-9.15,28.19,28.19,0,0,1,12.67-2.85,31.19,31.19,0,0,1,15.12,3.45A31.6,31.6,0,0,1,586,53.8a39.41,39.41,0,0,1,6.19,13.27,61.34,61.34,0,0,1,2,15.83,55.42,55.42,0,0,1-2,15,38.84,38.84,0,0,1-6.12,12.75,30.63,30.63,0,0,1-10.22,8.85,29.77,29.77,0,0,1-14.33,3.3,28,28,0,0,1-12.74-2.92,24.42,24.42,0,0,1-9.58-8.62h-0.29V148H518.47V43.3h19.44Zm26.57,61.5A16.72,16.72,0,0,0,570,99.33a23.14,23.14,0,0,0,3-7.87,48.4,48.4,0,0,0,.86-9.15,44.89,44.89,0,0,0-.94-9.15,25,25,0,0,0-3.1-8,17.64,17.64,0,0,0-5.54-5.7,15,15,0,0,0-8.28-2.17,15.29,15.29,0,0,0-8.42,2.17A17.16,17.16,0,0,0,542,65.05a23.94,23.94,0,0,0-3,8,49.21,49.21,0,0,0-.86,9.3,44.74,44.74,0,0,0,.94,9.15,24.18,24.18,0,0,0,3,7.88,16.46,16.46,0,0,0,5.54,5.48A17.8,17.8,0,0,0,564.48,104.8Z"/><path d="M616,102.25q4.61,4.65,13.25,4.65a17.7,17.7,0,0,0,10.66-3.23q4.46-3.22,5.47-6.82h18q-4.32,14-13.25,19.95t-21.6,6a41,41,0,0,1-15.84-2.92,32.88,32.88,0,0,1-12-8.33,37.75,37.75,0,0,1-7.56-12.9,49,49,0,0,1-2.66-16.5A46.9,46.9,0,0,1,593.21,66,38.26,38.26,0,0,1,601,53a36.59,36.59,0,0,1,12-8.62,37.22,37.22,0,0,1,15.48-3.15A34.23,34.23,0,0,1,645,45,33.48,33.48,0,0,1,656.64,55.3,43.09,43.09,0,0,1,663.19,70a57,57,0,0,1,1.44,17.25H610.92Q611.35,97.6,616,102.25Zm23.11-40.8q-3.67-4.2-11.16-4.2A17.21,17.21,0,0,0,619.77,59a15.63,15.63,0,0,0-5.18,4.28,15.91,15.91,0,0,0-2.74,5.4,25.19,25.19,0,0,0-.94,5.1h33.26Q642.74,65.65,639.07,61.45Z"/><path d="M681.55,101.58a12.27,12.27,0,0,0,3.53,4.05,14.82,14.82,0,0,0,5,2.32,22.42,22.42,0,0,0,5.83.75,20.93,20.93,0,0,0,4.54-.52,15,15,0,0,0,4.32-1.65,10,10,0,0,0,3.24-3,8.12,8.12,0,0,0,1.3-4.73q0-4.8-6.12-7.2a118.82,118.82,0,0,0-17.06-4.8q-4.46-1-8.71-2.48a29.14,29.14,0,0,1-7.56-3.75,17.91,17.91,0,0,1-5.33-5.85,17.1,17.1,0,0,1-2-8.62q0-7.5,2.81-12.3a21.13,21.13,0,0,1,7.42-7.57,31.69,31.69,0,0,1,10.37-3.9,61.44,61.44,0,0,1,11.81-1.12,56.76,56.76,0,0,1,11.74,1.2,30.38,30.38,0,0,1,10.15,4A23.82,23.82,0,0,1,724.17,54,26.22,26.22,0,0,1,727.7,66H708.26q-0.43-6.15-4.46-8.32a19.75,19.75,0,0,0-9.5-2.18,33.91,33.91,0,0,0-3.74.23,12.08,12.08,0,0,0-3.67,1,7.6,7.6,0,0,0-2.81,2.17,6.6,6.6,0,0,0,.86,8.48,15.34,15.34,0,0,0,5.26,2.93,63.51,63.51,0,0,0,7.42,2q4.17,0.9,8.5,1.95a84.47,84.47,0,0,1,8.71,2.55,28.31,28.31,0,0,1,7.56,4,19,19,0,0,1,5.33,6.15,18.68,18.68,0,0,1,2,9.07,25.58,25.58,0,0,1-3,12.83,24.2,24.2,0,0,1-7.7,8.33,30.84,30.84,0,0,1-10.87,4.42,61,61,0,0,1-12.46,1.27,59.28,59.28,0,0,1-12.67-1.35,32.65,32.65,0,0,1-11-4.5,25.23,25.23,0,0,1-7.92-8.32,26.87,26.87,0,0,1-3.38-13h19.44A12,12,0,0,0,681.55,101.58Z"/><path d="M752.75,97.75v23.1H730.15V97.75h22.61Z"/><path d="M21.36,184.85l-3.95-16.52H17.34l-3.88,16.52H8.27L2.1,160.58H7.22l3.69,16.52H11l4-16.52h4.8l4,16.73h0.07l3.82-16.73h5l-6.27,24.28H21.36Z"/><path d="M35.52,180.64a4.6,4.6,0,0,0,5.42.32,3,3,0,0,0,1.24-1.55h4.08a8.07,8.07,0,0,1-3,4.52,8.57,8.57,0,0,1-4.9,1.36,9.29,9.29,0,0,1-3.59-.66,7.44,7.44,0,0,1-2.71-1.89,8.55,8.55,0,0,1-1.71-2.92,11.11,11.11,0,0,1-.6-3.74,10.65,10.65,0,0,1,.62-3.67,8.68,8.68,0,0,1,1.76-2.94,8.3,8.3,0,0,1,2.72-2,8.44,8.44,0,0,1,3.51-.71,7.76,7.76,0,0,1,3.75.87A7.6,7.6,0,0,1,44.74,170a9.76,9.76,0,0,1,1.48,3.33,12.91,12.91,0,0,1,.33,3.91H34.38A5,5,0,0,0,35.52,180.64Zm5.24-9.25a3.18,3.18,0,0,0-2.53-1,3.9,3.9,0,0,0-1.84.39,3.54,3.54,0,0,0-1.18,1,3.63,3.63,0,0,0-.62,1.22,5.7,5.7,0,0,0-.21,1.16h7.54A5.69,5.69,0,0,0,40.76,171.39Z"/><path d="M70,186.14a6.05,6.05,0,0,1-1.19,2.53,7.13,7.13,0,0,1-2.64,2,11,11,0,0,1-4.63.82,10.37,10.37,0,0,1-2.53-.32,7.87,7.87,0,0,1-2.35-1,5.88,5.88,0,0,1-1.76-1.75,5.2,5.2,0,0,1-.8-2.57h4.6A2.75,2.75,0,0,0,60,187.73a4.43,4.43,0,0,0,2.19.53A3.31,3.31,0,0,0,65,187a5,5,0,0,0,.86-3.09v-2.31H65.81a4.66,4.66,0,0,1-2.14,2.06,6.7,6.7,0,0,1-2.92.66,7.11,7.11,0,0,1-3.26-.7,6.25,6.25,0,0,1-2.25-1.9,8.09,8.09,0,0,1-1.29-2.82,13.88,13.88,0,0,1-.41-3.42,11.35,11.35,0,0,1,.47-3.28,8.68,8.68,0,0,1,1.39-2.79,6.77,6.77,0,0,1,2.27-1.92,6.59,6.59,0,0,1,3.12-.71,6.31,6.31,0,0,1,2.92.65,5.15,5.15,0,0,1,2.11,2.18h0.07v-2.35h4.41v16.46A12.28,12.28,0,0,1,70,186.14Zm-6.35-5.85a3.66,3.66,0,0,0,1.24-1.09,4.88,4.88,0,0,0,.73-1.55,6.63,6.63,0,0,0,.25-1.82,10.35,10.35,0,0,0-.2-2.06,5.25,5.25,0,0,0-.65-1.72,3.44,3.44,0,0,0-1.21-1.19,3.69,3.69,0,0,0-1.89-.44,3.28,3.28,0,0,0-1.68.41,3.59,3.59,0,0,0-1.18,1.1,4.77,4.77,0,0,0-.69,1.6,8.26,8.26,0,0,0-.21,1.89,9.94,9.94,0,0,0,.18,1.89A5.23,5.23,0,0,0,59,179a3.71,3.71,0,0,0,1.16,1.22,3.18,3.18,0,0,0,1.8.48A3.56,3.56,0,0,0,63.66,180.3Z"/><path d="M72,164.55v-4h4.63v4H72Zm4.63,2.72v17.58H72V167.27h4.63Z"/><path d="M82.29,184.85l-5.78-17.58h4.86l3.56,12H85l3.56-12h4.6l-5.71,17.58H82.29Z"/><path d="M97.9,180.64a4.6,4.6,0,0,0,5.42.32,3,3,0,0,0,1.24-1.55h4.08a8.07,8.07,0,0,1-3,4.52,8.57,8.57,0,0,1-4.9,1.36,9.3,9.3,0,0,1-3.59-.66,7.44,7.44,0,0,1-2.71-1.89,8.55,8.55,0,0,1-1.71-2.92,11.09,11.09,0,0,1-.6-3.74,10.62,10.62,0,0,1,.62-3.67,8.68,8.68,0,0,1,1.76-2.94,8.29,8.29,0,0,1,2.73-2,8.43,8.43,0,0,1,3.51-.71,7.76,7.76,0,0,1,3.75.87,7.59,7.59,0,0,1,2.63,2.33,9.78,9.78,0,0,1,1.49,3.33,13,13,0,0,1,.33,3.91H96.75A5,5,0,0,0,97.9,180.64Zm5.24-9.25a3.18,3.18,0,0,0-2.53-1,3.9,3.9,0,0,0-1.84.39,3.55,3.55,0,0,0-1.17,1A3.59,3.59,0,0,0,97,173a5.76,5.76,0,0,0-.21,1.16h7.54A5.7,5.7,0,0,0,103.14,171.39Z"/><path d="M122.67,190.09a6.51,6.51,0,0,1-3.72.92q-0.72,0-1.42-.05l-1.42-.12v-4l1.34,0.14a9.25,9.25,0,0,0,1.37,0,1.79,1.79,0,0,0,1.35-.75,2.48,2.48,0,0,0,.44-1.43,3,3,0,0,0-.2-1.09l-5.91-16.49h4.93l3.82,12h0.07l3.69-12h4.8L124.76,187A5.94,5.94,0,0,1,122.67,190.09Z"/><path d="M131.32,172.25a8.27,8.27,0,0,1,1.76-2.92,7.88,7.88,0,0,1,2.74-1.87,9.3,9.3,0,0,1,3.59-.66,9.42,9.42,0,0,1,3.61.66,7.85,7.85,0,0,1,2.76,1.87,8.29,8.29,0,0,1,1.76,2.92,11.21,11.21,0,0,1,.62,3.82,11.06,11.06,0,0,1-.62,3.81,8.3,8.3,0,0,1-1.76,2.91,7.66,7.66,0,0,1-2.76,1.85,9.65,9.65,0,0,1-3.61.65,9.52,9.52,0,0,1-3.59-.65,7.69,7.69,0,0,1-2.74-1.85,8.28,8.28,0,0,1-1.76-2.91,11,11,0,0,1-.62-3.81A11.18,11.18,0,0,1,131.32,172.25Zm4.21,5.88a5.62,5.62,0,0,0,.67,1.8,3.63,3.63,0,0,0,1.26,1.27,3.71,3.71,0,0,0,2,.48,3.79,3.79,0,0,0,2-.48,3.59,3.59,0,0,0,1.27-1.27,5.62,5.62,0,0,0,.67-1.8,10.76,10.76,0,0,0,.2-2.06,11,11,0,0,0-.2-2.07,5.44,5.44,0,0,0-.67-1.8,3.79,3.79,0,0,0-1.27-1.27,3.7,3.7,0,0,0-2-.49,3.62,3.62,0,0,0-2,.49,3.84,3.84,0,0,0-1.26,1.27,5.44,5.44,0,0,0-.67,1.8,11,11,0,0,0-.2,2.07A10.76,10.76,0,0,0,135.53,178.14Z"/><path d="M160.43,184.85V182.4h-0.1a5.3,5.3,0,0,1-2.29,2.21,6.52,6.52,0,0,1-2.87.68,7.82,7.82,0,0,1-3.05-.51,4.42,4.42,0,0,1-1.88-1.44,5.77,5.77,0,0,1-1-2.28,14.77,14.77,0,0,1-.28-3V167.27h4.63v9.93a6.37,6.37,0,0,0,.65,3.25,2.49,2.49,0,0,0,2.32,1.07,3.16,3.16,0,0,0,2.74-1.17,6.74,6.74,0,0,0,.85-3.86v-9.21h4.63v17.58h-4.41Z"/><path d="M173.23,172.25a8.3,8.3,0,0,1,1.76-2.92,7.87,7.87,0,0,1,2.74-1.87,9.29,9.29,0,0,1,3.59-.66,9.42,9.42,0,0,1,3.61.66,7.85,7.85,0,0,1,2.76,1.87,8.3,8.3,0,0,1,1.76,2.92,11.21,11.21,0,0,1,.62,3.82,11.06,11.06,0,0,1-.62,3.81,8.31,8.31,0,0,1-1.76,2.91,7.66,7.66,0,0,1-2.76,1.85,9.65,9.65,0,0,1-3.61.65,9.52,9.52,0,0,1-3.59-.65,7.68,7.68,0,0,1-2.74-1.85,8.32,8.32,0,0,1-1.76-2.91,11.06,11.06,0,0,1-.62-3.81A11.21,11.21,0,0,1,173.23,172.25Zm4.21,5.88a5.6,5.6,0,0,0,.67,1.8,3.63,3.63,0,0,0,1.26,1.27,3.71,3.71,0,0,0,2,.48,3.8,3.8,0,0,0,2-.48,3.59,3.59,0,0,0,1.27-1.27,5.62,5.62,0,0,0,.67-1.8,10.68,10.68,0,0,0,.2-2.06,11,11,0,0,0-.2-2.07,5.44,5.44,0,0,0-.67-1.8,3.79,3.79,0,0,0-1.27-1.27,3.7,3.7,0,0,0-2-.49,3.62,3.62,0,0,0-2,.49,3.84,3.84,0,0,0-1.26,1.27,5.42,5.42,0,0,0-.67,1.8,11,11,0,0,0-.2,2.07A10.68,10.68,0,0,0,177.44,178.14Z"/><path d="M202.34,184.85V182.4h-0.1a5.3,5.3,0,0,1-2.29,2.21,6.52,6.52,0,0,1-2.87.68,7.82,7.82,0,0,1-3.05-.51,4.42,4.42,0,0,1-1.88-1.44,5.77,5.77,0,0,1-1-2.28,14.7,14.7,0,0,1-.28-3V167.27h4.63v9.93a6.37,6.37,0,0,0,.65,3.25,2.49,2.49,0,0,0,2.32,1.07,3.15,3.15,0,0,0,2.74-1.17,6.74,6.74,0,0,0,.85-3.86v-9.21h4.63v17.58h-4.41Z"/><path d="M212.53,167.27v3.26h0.06a6,6,0,0,1,.88-1.51,5.87,5.87,0,0,1,1.27-1.19,6.13,6.13,0,0,1,1.53-.77,5.34,5.34,0,0,1,1.7-.27,3.5,3.5,0,0,1,1,.17v4.49c-0.22,0-.48-0.08-0.78-0.12a7.91,7.91,0,0,0-.88-0.05,4.77,4.77,0,0,0-2.15.44,3.76,3.76,0,0,0-1.42,1.21,4.91,4.91,0,0,0-.77,1.78,10.11,10.11,0,0,0-.23,2.21v7.92h-4.63V167.27h4.41Z"/><path d="M233.64,170.44a3.15,3.15,0,0,0-1.86.53,4.1,4.1,0,0,0-1.22,1.36,6,6,0,0,0-.67,1.84,10.42,10.42,0,0,0-.2,2,10,10,0,0,0,.2,1.94,6.17,6.17,0,0,0,.64,1.78,3.76,3.76,0,0,0,1.19,1.31,3.18,3.18,0,0,0,1.83.51,3.32,3.32,0,0,0,2.56-1,4.68,4.68,0,0,0,1.13-2.6h4.47a8.07,8.07,0,0,1-2.61,5.34,8.21,8.21,0,0,1-5.52,1.84,8.91,8.91,0,0,1-3.48-.66,7.69,7.69,0,0,1-2.69-1.85,8.49,8.49,0,0,1-1.73-2.84,10.22,10.22,0,0,1-.62-3.62,12.15,12.15,0,0,1,.57-3.79,8.6,8.6,0,0,1,1.68-3,7.71,7.71,0,0,1,2.71-2,8.88,8.88,0,0,1,3.66-.71,10.21,10.21,0,0,1,2.89.41,7.61,7.61,0,0,1,2.48,1.24,6.57,6.57,0,0,1,1.78,2.07,6.83,6.83,0,0,1,.78,2.94h-4.54A3.15,3.15,0,0,0,233.64,170.44Z"/><path d="M242,172.68a5.78,5.78,0,0,1,.82-2.82,5.66,5.66,0,0,1,1.83-1.8,7.78,7.78,0,0,1,2.5-1,13.66,13.66,0,0,1,2.79-.29,18.19,18.19,0,0,1,2.58.19,7.67,7.67,0,0,1,2.38.73,4.74,4.74,0,0,1,1.76,1.51,4.36,4.36,0,0,1,.69,2.57v9.15a18.94,18.94,0,0,0,.13,2.28,4.2,4.2,0,0,0,.46,1.63h-4.7A7.08,7.08,0,0,1,253,184a7.62,7.62,0,0,1-.11-0.87,6,6,0,0,1-2.61,1.67,10.09,10.09,0,0,1-3.07.48,8,8,0,0,1-2.25-.31,5.09,5.09,0,0,1-1.83-1,4.4,4.4,0,0,1-1.22-1.63,5.7,5.7,0,0,1-.44-2.35,5.3,5.3,0,0,1,.51-2.47,4.36,4.36,0,0,1,1.31-1.55,5.75,5.75,0,0,1,1.83-.87,19,19,0,0,1,2.07-.46q1-.17,2.06-0.27a12,12,0,0,0,1.79-.31,3.08,3.08,0,0,0,1.24-.6,1.33,1.33,0,0,0,.42-1.14,2.66,2.66,0,0,0-.25-1.24,1.84,1.84,0,0,0-.65-0.71,2.5,2.5,0,0,0-.95-0.34,7.52,7.52,0,0,0-1.16-.08,3.42,3.42,0,0,0-2.15.61,2.78,2.78,0,0,0-.91,2H242Zm10.71,3.57a2.06,2.06,0,0,1-.73.43,7.22,7.22,0,0,1-.95.25q-0.51.1-1.06,0.17t-1.11.17a8.13,8.13,0,0,0-1,.27,3,3,0,0,0-.88.46,2.17,2.17,0,0,0-.6.73,2.44,2.44,0,0,0-.23,1.12,2.35,2.35,0,0,0,.23,1.09,1.8,1.8,0,0,0,.62.7,2.54,2.54,0,0,0,.91.36,5.57,5.57,0,0,0,1.08.1,4,4,0,0,0,2.12-.48,3.12,3.12,0,0,0,1.11-1.14,3.76,3.76,0,0,0,.44-1.34,9.55,9.55,0,0,0,.08-1.09v-1.8Z"/><path d="M263.15,167.27v3.26h0.07a6,6,0,0,1,.88-1.51,5.83,5.83,0,0,1,1.27-1.19,6.09,6.09,0,0,1,1.53-.77,5.33,5.33,0,0,1,1.7-.27,3.49,3.49,0,0,1,1,.17v4.49q-0.33-.07-0.78-0.12a7.93,7.93,0,0,0-.88-0.05,4.77,4.77,0,0,0-2.15.44,3.76,3.76,0,0,0-1.42,1.21,4.93,4.93,0,0,0-.77,1.78,10.11,10.11,0,0,0-.23,2.21v7.92h-4.63V167.27h4.41Z"/><path d="M273.66,180.64a4.6,4.6,0,0,0,5.42.32,3,3,0,0,0,1.24-1.55h4.08a8.07,8.07,0,0,1-3,4.52,8.57,8.57,0,0,1-4.9,1.36,9.3,9.3,0,0,1-3.59-.66,7.44,7.44,0,0,1-2.71-1.89,8.55,8.55,0,0,1-1.71-2.92,11.09,11.09,0,0,1-.6-3.74,10.62,10.62,0,0,1,.62-3.67,8.68,8.68,0,0,1,1.76-2.94,8.29,8.29,0,0,1,2.73-2,8.43,8.43,0,0,1,3.51-.71,7.76,7.76,0,0,1,3.75.87,7.59,7.59,0,0,1,2.63,2.33,9.78,9.78,0,0,1,1.49,3.33,13,13,0,0,1,.33,3.91H272.52A5,5,0,0,0,273.66,180.64Zm5.24-9.25a3.18,3.18,0,0,0-2.53-1,3.9,3.9,0,0,0-1.84.39,3.55,3.55,0,0,0-1.17,1,3.59,3.59,0,0,0-.62,1.22,5.76,5.76,0,0,0-.21,1.16h7.54A5.7,5.7,0,0,0,278.9,171.39Z"/><path d="M283.52,170.5v-3.23h2.77v-1.36a5.39,5.39,0,0,1,1.4-3.84,5.55,5.55,0,0,1,4.24-1.5q0.62,0,1.24.05l1.21,0.08v3.6a13.62,13.62,0,0,0-1.7-.1,1.73,1.73,0,0,0-1.35.46,2.32,2.32,0,0,0-.41,1.55v1.05h3.2v3.23h-3.2v14.35h-4.63V170.5h-2.77Z"/><path d="M305.42,184.85V182.4h-0.1a5.3,5.3,0,0,1-2.29,2.21,6.52,6.52,0,0,1-2.87.68,7.82,7.82,0,0,1-3.05-.51,4.42,4.42,0,0,1-1.88-1.44,5.77,5.77,0,0,1-1-2.28,14.77,14.77,0,0,1-.28-3V167.27h4.63v9.93a6.37,6.37,0,0,0,.65,3.25,2.49,2.49,0,0,0,2.32,1.07,3.16,3.16,0,0,0,2.74-1.17,6.74,6.74,0,0,0,.85-3.86v-9.21h4.63v17.58h-4.41Z"/><path d="M316,160.58v24.28h-4.63V160.58H316Z"/><path d="M322.23,160.58v24.28h-4.63V160.58h4.63Z"/><path d="M330,190.09a6.51,6.51,0,0,1-3.72.92q-0.72,0-1.42-.05l-1.42-.12v-4l1.34,0.14a9.25,9.25,0,0,0,1.37,0,1.79,1.79,0,0,0,1.35-.75,2.48,2.48,0,0,0,.44-1.43,3,3,0,0,0-.2-1.09l-5.91-16.49h4.93l3.82,12h0.07l3.69-12h4.8L332.05,187A5.94,5.94,0,0,1,330,190.09Z"/><path d="M349.34,180.48a2.78,2.78,0,0,0,.8.92,3.36,3.36,0,0,0,1.13.53,5.07,5.07,0,0,0,1.32.17,4.75,4.75,0,0,0,1-.12,3.39,3.39,0,0,0,1-.37,2.24,2.24,0,0,0,.73-0.68,1.84,1.84,0,0,0,.29-1.07,1.79,1.79,0,0,0-1.39-1.63,26.88,26.88,0,0,0-3.87-1.09q-1-.24-2-0.56a6.57,6.57,0,0,1-1.71-.85,4,4,0,0,1-1.21-1.33,3.87,3.87,0,0,1-.46-2,5.47,5.47,0,0,1,.64-2.79,4.79,4.79,0,0,1,1.68-1.72,7.18,7.18,0,0,1,2.35-.88,14,14,0,0,1,2.68-.25,12.87,12.87,0,0,1,2.66.27,6.9,6.9,0,0,1,2.3.92A5.4,5.4,0,0,1,359,169.7a6,6,0,0,1,.8,2.7h-4.41a2.13,2.13,0,0,0-1-1.89,4.48,4.48,0,0,0-2.15-.49,7.77,7.77,0,0,0-.85.05,2.74,2.74,0,0,0-.83.22,1.73,1.73,0,0,0-.64.49,1.5,1.5,0,0,0,.2,1.92,3.48,3.48,0,0,0,1.19.66,14.46,14.46,0,0,0,1.68.46l1.93,0.44a19.1,19.1,0,0,1,2,.58,6.41,6.41,0,0,1,1.71.9,4.3,4.3,0,0,1,1.21,1.39,4.23,4.23,0,0,1,.46,2.06,5.79,5.79,0,0,1-.67,2.91,5.47,5.47,0,0,1-1.75,1.89,7,7,0,0,1-2.46,1,13.83,13.83,0,0,1-2.82.29,13.44,13.44,0,0,1-2.87-.31,7.4,7.4,0,0,1-2.5-1,5.71,5.71,0,0,1-1.8-1.89,6.09,6.09,0,0,1-.77-2.94H349A2.73,2.73,0,0,0,349.34,180.48Z"/><path d="M365.77,180.64a4.6,4.6,0,0,0,5.42.32,3,3,0,0,0,1.24-1.55h4.08a8.07,8.07,0,0,1-3,4.52,8.57,8.57,0,0,1-4.9,1.36,9.29,9.29,0,0,1-3.59-.66,7.44,7.44,0,0,1-2.71-1.89,8.55,8.55,0,0,1-1.71-2.92,11.11,11.11,0,0,1-.6-3.74,10.65,10.65,0,0,1,.62-3.67,8.68,8.68,0,0,1,1.76-2.94,8.3,8.3,0,0,1,2.72-2,8.44,8.44,0,0,1,3.51-.71,7.76,7.76,0,0,1,3.75.87A7.6,7.6,0,0,1,375,170a9.76,9.76,0,0,1,1.48,3.33,12.91,12.91,0,0,1,.33,3.91H364.63A5,5,0,0,0,365.77,180.64Zm5.24-9.25a3.18,3.18,0,0,0-2.53-1,3.9,3.9,0,0,0-1.84.39,3.54,3.54,0,0,0-1.18,1,3.63,3.63,0,0,0-.62,1.22,5.7,5.7,0,0,0-.21,1.16h7.54A5.69,5.69,0,0,0,371,171.39Z"/><path d="M382.15,160.58v24.28h-4.63V160.58h4.63Z"/><path d="M388.62,180.64A4.6,4.6,0,0,0,394,181a3,3,0,0,0,1.24-1.55h4.08a8.07,8.07,0,0,1-3,4.52,8.57,8.57,0,0,1-4.9,1.36,9.3,9.3,0,0,1-3.59-.66,7.45,7.45,0,0,1-2.71-1.89,8.54,8.54,0,0,1-1.71-2.92,11.09,11.09,0,0,1-.6-3.74,10.65,10.65,0,0,1,.62-3.67,8.69,8.69,0,0,1,1.76-2.94,8.3,8.3,0,0,1,2.73-2,8.43,8.43,0,0,1,3.51-.71,7.76,7.76,0,0,1,3.75.87,7.59,7.59,0,0,1,2.63,2.33,9.78,9.78,0,0,1,1.48,3.33,12.91,12.91,0,0,1,.33,3.91H387.47A5,5,0,0,0,388.62,180.64Zm5.24-9.25a3.18,3.18,0,0,0-2.53-1,3.9,3.9,0,0,0-1.84.39,3.54,3.54,0,0,0-1.17,1,3.61,3.61,0,0,0-.62,1.22,5.76,5.76,0,0,0-.21,1.16H395A5.7,5.7,0,0,0,393.86,171.39Z"/><path d="M408.3,170.44a3.16,3.16,0,0,0-1.86.53,4.13,4.13,0,0,0-1.22,1.36,6,6,0,0,0-.67,1.84,10.34,10.34,0,0,0-.2,2,9.91,9.91,0,0,0,.2,1.94,6.12,6.12,0,0,0,.64,1.78,3.72,3.72,0,0,0,1.19,1.31,3.17,3.17,0,0,0,1.83.51,3.32,3.32,0,0,0,2.56-1,4.67,4.67,0,0,0,1.13-2.6h4.47a8.08,8.08,0,0,1-2.61,5.34,8.21,8.21,0,0,1-5.52,1.84,8.91,8.91,0,0,1-3.48-.66,7.67,7.67,0,0,1-2.69-1.85,8.47,8.47,0,0,1-1.73-2.84,10.2,10.2,0,0,1-.62-3.62,12.15,12.15,0,0,1,.57-3.79,8.62,8.62,0,0,1,1.68-3,7.69,7.69,0,0,1,2.71-2,8.88,8.88,0,0,1,3.66-.71,10.2,10.2,0,0,1,2.89.41,7.6,7.6,0,0,1,2.48,1.24,6.56,6.56,0,0,1,1.78,2.07,6.81,6.81,0,0,1,.78,2.94h-4.54A3.15,3.15,0,0,0,408.3,170.44Z"/><path d="M426.09,167.27v3.23h-3.39v8.7a2.43,2.43,0,0,0,.39,1.63,2.2,2.2,0,0,0,1.57.41c0.26,0,.51,0,0.75,0a6,6,0,0,0,.69-0.1v3.74a10.65,10.65,0,0,1-1.3.14q-0.72,0-1.4,0a13,13,0,0,1-2-.15,4.66,4.66,0,0,1-1.7-.59,3.09,3.09,0,0,1-1.16-1.26,4.64,4.64,0,0,1-.42-2.14V170.5h-2.81v-3.23h2.81V162h4.63v5.27h3.39Z"/><path d="M431.11,180.64a4.6,4.6,0,0,0,5.42.32,3,3,0,0,0,1.24-1.55h4.08a8.07,8.07,0,0,1-3,4.52,8.57,8.57,0,0,1-4.9,1.36,9.29,9.29,0,0,1-3.59-.66,7.44,7.44,0,0,1-2.71-1.89,8.55,8.55,0,0,1-1.71-2.92,11.11,11.11,0,0,1-.6-3.74,10.65,10.65,0,0,1,.62-3.67,8.68,8.68,0,0,1,1.76-2.94,8.3,8.3,0,0,1,2.72-2,8.44,8.44,0,0,1,3.51-.71,7.76,7.76,0,0,1,3.75.87,7.6,7.6,0,0,1,2.63,2.33,9.76,9.76,0,0,1,1.48,3.33,12.91,12.91,0,0,1,.33,3.91H430A5,5,0,0,0,431.11,180.64Zm5.24-9.25a3.18,3.18,0,0,0-2.53-1,3.9,3.9,0,0,0-1.84.39,3.54,3.54,0,0,0-1.18,1,3.63,3.63,0,0,0-.62,1.22,5.7,5.7,0,0,0-.21,1.16h7.54A5.69,5.69,0,0,0,436.35,171.39Z"/><path d="M454.71,182.61a4.85,4.85,0,0,1-2.14,2.06,6.87,6.87,0,0,1-3,.63,7,7,0,0,1-3.33-.77,6.76,6.76,0,0,1-2.37-2.07,9.59,9.59,0,0,1-1.4-3,13.13,13.13,0,0,1-.47-3.54,12.33,12.33,0,0,1,.47-3.42,9,9,0,0,1,1.4-2.91,7.08,7.08,0,0,1,2.33-2,6.71,6.71,0,0,1,3.26-.77,6.42,6.42,0,0,1,2.86.66,5,5,0,0,1,2.14,2h0.07v-8.84h4.63v24.28h-4.41v-2.24h-0.07Zm-0.2-8.69a5.22,5.22,0,0,0-.67-1.77,3.84,3.84,0,0,0-1.22-1.24,3.48,3.48,0,0,0-1.89-.48,3.5,3.5,0,0,0-3.18,1.73,5.66,5.66,0,0,0-.69,1.78,10,10,0,0,0-.21,2.09,9.31,9.31,0,0,0,.23,2,5.7,5.7,0,0,0,.73,1.82,4.15,4.15,0,0,0,1.27,1.29,3.34,3.34,0,0,0,1.84.49,3.37,3.37,0,0,0,3.13-1.75,5.87,5.87,0,0,0,.65-1.82,11.12,11.12,0,0,0,.2-2.11A10.87,10.87,0,0,0,454.52,173.92Z"/><path d="M471.34,180.48a2.78,2.78,0,0,0,.8.92,3.36,3.36,0,0,0,1.13.53,5.07,5.07,0,0,0,1.32.17,4.75,4.75,0,0,0,1-.12,3.39,3.39,0,0,0,1-.37,2.24,2.24,0,0,0,.73-0.68,1.84,1.84,0,0,0,.29-1.07,1.79,1.79,0,0,0-1.39-1.63,26.88,26.88,0,0,0-3.87-1.09q-1-.24-2-0.56a6.57,6.57,0,0,1-1.71-.85,4,4,0,0,1-1.21-1.33,3.87,3.87,0,0,1-.46-2,5.47,5.47,0,0,1,.64-2.79,4.79,4.79,0,0,1,1.68-1.72,7.18,7.18,0,0,1,2.35-.88,14,14,0,0,1,2.68-.25,12.87,12.87,0,0,1,2.66.27,6.9,6.9,0,0,1,2.3.92A5.4,5.4,0,0,1,481,169.7a6,6,0,0,1,.8,2.7H477.4a2.13,2.13,0,0,0-1-1.89,4.48,4.48,0,0,0-2.15-.49,7.77,7.77,0,0,0-.85.05,2.74,2.74,0,0,0-.83.22,1.73,1.73,0,0,0-.64.49,1.5,1.5,0,0,0,.2,1.92,3.48,3.48,0,0,0,1.19.66,14.46,14.46,0,0,0,1.68.46l1.93,0.44a19.1,19.1,0,0,1,2,.58,6.41,6.41,0,0,1,1.71.9,4.3,4.3,0,0,1,1.21,1.39,4.23,4.23,0,0,1,.46,2.06,5.79,5.79,0,0,1-.67,2.91,5.47,5.47,0,0,1-1.75,1.89,7,7,0,0,1-2.46,1,13.83,13.83,0,0,1-2.82.29,13.44,13.44,0,0,1-2.87-.31,7.4,7.4,0,0,1-2.5-1,5.71,5.71,0,0,1-1.8-1.89,6.09,6.09,0,0,1-.77-2.94H471A2.73,2.73,0,0,0,471.34,180.48Z"/><path d="M492.08,167.27v3.23h-3.39v8.7a2.44,2.44,0,0,0,.39,1.63,2.21,2.21,0,0,0,1.57.41c0.26,0,.51,0,0.75,0a6.15,6.15,0,0,0,.69-0.1v3.74a10.73,10.73,0,0,1-1.31.14q-0.72,0-1.4,0a13,13,0,0,1-2-.15,4.68,4.68,0,0,1-1.7-.59,3.1,3.1,0,0,1-1.16-1.26,4.65,4.65,0,0,1-.42-2.14V170.5h-2.81v-3.23h2.81V162h4.63v5.27h3.39Z"/><path d="M496.55,167.27v3.26h0.07a6,6,0,0,1,.88-1.51,5.83,5.83,0,0,1,1.27-1.19,6.09,6.09,0,0,1,1.53-.77,5.33,5.33,0,0,1,1.7-.27,3.49,3.49,0,0,1,1,.17v4.49q-0.33-.07-0.78-0.12a7.93,7.93,0,0,0-.88-0.05,4.77,4.77,0,0,0-2.15.44,3.76,3.76,0,0,0-1.42,1.21,4.93,4.93,0,0,0-.77,1.78,10.11,10.11,0,0,0-.23,2.21v7.92h-4.63V167.27h4.41Z"/><path d="M502.82,164.55v-4h4.63v4h-4.63Zm4.63,2.72v17.58h-4.63V167.27h4.63Z"/><path d="M513.36,167.27v2.24h0.07a5.17,5.17,0,0,1,2.15-2.07,6.39,6.39,0,0,1,2.87-.65,7.07,7.07,0,0,1,3.43.78,7.16,7.16,0,0,1,2.38,2.07,8.93,8.93,0,0,1,1.4,3,13.89,13.89,0,0,1,.46,3.59,12.55,12.55,0,0,1-.46,3.4,8.78,8.78,0,0,1-1.39,2.89,6.94,6.94,0,0,1-2.32,2,6.75,6.75,0,0,1-3.25.75,6.35,6.35,0,0,1-2.89-.66,5.53,5.53,0,0,1-2.17-2h-0.07V191H509V167.27h4.41Zm6,13.94a3.79,3.79,0,0,0,1.24-1.24,5.25,5.25,0,0,0,.67-1.78,11,11,0,0,0,.2-2.07,10.22,10.22,0,0,0-.21-2.07,5.67,5.67,0,0,0-.7-1.82,4,4,0,0,0-1.26-1.29,3.41,3.41,0,0,0-1.88-.49,3.47,3.47,0,0,0-1.91.49,3.9,3.9,0,0,0-1.24,1.27,5.44,5.44,0,0,0-.67,1.8,11.13,11.13,0,0,0-.2,2.11,10.21,10.21,0,0,0,.21,2.07,5.51,5.51,0,0,0,.69,1.78,3.73,3.73,0,0,0,1.26,1.24A4,4,0,0,0,519.39,181.21Z"/><path d="M531.71,180.64a4.6,4.6,0,0,0,5.42.32,3,3,0,0,0,1.24-1.55h4.08a8.07,8.07,0,0,1-3,4.52,8.58,8.58,0,0,1-4.9,1.36,9.29,9.29,0,0,1-3.59-.66,7.43,7.43,0,0,1-2.71-1.89,8.55,8.55,0,0,1-1.71-2.92,11.11,11.11,0,0,1-.6-3.74,10.62,10.62,0,0,1,.62-3.67,8.66,8.66,0,0,1,1.76-2.94,8.3,8.3,0,0,1,2.73-2,8.44,8.44,0,0,1,3.51-.71,7.77,7.77,0,0,1,3.75.87,7.6,7.6,0,0,1,2.63,2.33,9.76,9.76,0,0,1,1.49,3.33,12.94,12.94,0,0,1,.33,3.91H530.56A5,5,0,0,0,531.71,180.64Zm5.24-9.25a3.18,3.18,0,0,0-2.53-1,3.9,3.9,0,0,0-1.84.39,3.55,3.55,0,0,0-1.18,1,3.61,3.61,0,0,0-.62,1.22,5.7,5.7,0,0,0-.21,1.16h7.54A5.69,5.69,0,0,0,536.95,171.39Z"/><path d="M555.31,182.61a4.86,4.86,0,0,1-2.14,2.06,6.86,6.86,0,0,1-3,.63,7,7,0,0,1-3.33-.77,6.75,6.75,0,0,1-2.37-2.07,9.55,9.55,0,0,1-1.4-3,13.13,13.13,0,0,1-.47-3.54,12.33,12.33,0,0,1,.47-3.42,9,9,0,0,1,1.4-2.91,7.06,7.06,0,0,1,2.33-2,6.71,6.71,0,0,1,3.26-.77,6.42,6.42,0,0,1,2.86.66,5.06,5.06,0,0,1,2.14,2h0.06v-8.84h4.63v24.28h-4.41v-2.24h-0.07Zm-0.2-8.69a5.24,5.24,0,0,0-.67-1.77,3.87,3.87,0,0,0-1.22-1.24,3.47,3.47,0,0,0-1.89-.48,3.65,3.65,0,0,0-1.93.48,3.69,3.69,0,0,0-1.26,1.26,5.71,5.71,0,0,0-.69,1.78,10.08,10.08,0,0,0-.21,2.09,9.31,9.31,0,0,0,.23,2,5.68,5.68,0,0,0,.73,1.82,4.15,4.15,0,0,0,1.27,1.29,3.33,3.33,0,0,0,1.84.49,3.37,3.37,0,0,0,3.13-1.75,5.84,5.84,0,0,0,.65-1.82,11.12,11.12,0,0,0,.2-2.11A10.87,10.87,0,0,0,555.11,173.92Z"/><path d="M568.17,164.55v-4h4.63v4h-4.63Zm4.63,2.72v17.58h-4.63V167.27h4.63Z"/><path d="M583.57,167.27v3.23h-3.39v8.7a2.44,2.44,0,0,0,.39,1.63,2.21,2.21,0,0,0,1.57.41c0.26,0,.51,0,0.75,0a6.15,6.15,0,0,0,.69-0.1v3.74a10.73,10.73,0,0,1-1.31.14q-0.72,0-1.4,0a13,13,0,0,1-2-.15,4.68,4.68,0,0,1-1.7-.59A3.1,3.1,0,0,1,576,183a4.65,4.65,0,0,1-.42-2.14V170.5h-2.81v-3.23h2.81V162h4.63v5.27h3.39Z"/><path d="M588.6,180.64A4.6,4.6,0,0,0,594,181a3,3,0,0,0,1.24-1.55h4.08a8.07,8.07,0,0,1-3,4.52,8.58,8.58,0,0,1-4.9,1.36,9.29,9.29,0,0,1-3.59-.66,7.43,7.43,0,0,1-2.71-1.89,8.55,8.55,0,0,1-1.71-2.92,11.11,11.11,0,0,1-.6-3.74,10.62,10.62,0,0,1,.62-3.67,8.66,8.66,0,0,1,1.76-2.94,8.3,8.3,0,0,1,2.73-2,8.44,8.44,0,0,1,3.51-.71,7.77,7.77,0,0,1,3.75.87,7.6,7.6,0,0,1,2.63,2.33,9.76,9.76,0,0,1,1.49,3.33,12.94,12.94,0,0,1,.33,3.91H587.46A5,5,0,0,0,588.6,180.64Zm5.24-9.25a3.18,3.18,0,0,0-2.53-1,3.9,3.9,0,0,0-1.84.39,3.55,3.55,0,0,0-1.18,1,3.61,3.61,0,0,0-.62,1.22,5.7,5.7,0,0,0-.21,1.16H595A5.69,5.69,0,0,0,593.84,171.39Z"/><path d="M604.72,167.27v2.38h0.06a6.71,6.71,0,0,1,2.2-2.11,5.78,5.78,0,0,1,3-.75,6.57,6.57,0,0,1,2.92.65,4.21,4.21,0,0,1,2,2.28,7.32,7.32,0,0,1,2-2,5.27,5.27,0,0,1,3.05-.88,8.68,8.68,0,0,1,2.48.34,5,5,0,0,1,2,1.09,5,5,0,0,1,1.27,2,8.23,8.23,0,0,1,.46,2.91v11.76H621.5v-10q0-.88-0.07-1.67a3.65,3.65,0,0,0-.36-1.36,2.22,2.22,0,0,0-.87-0.92,3,3,0,0,0-1.55-.34,2.87,2.87,0,0,0-1.58.39,2.79,2.79,0,0,0-.95,1,4.2,4.2,0,0,0-.46,1.43,11.25,11.25,0,0,0-.11,1.62v9.79h-4.63V175q0-.78,0-1.55a4.47,4.47,0,0,0-.28-1.41,2.16,2.16,0,0,0-.82-1,3,3,0,0,0-1.68-.39,3.34,3.34,0,0,0-.87.15,2.83,2.83,0,0,0-1,.58,3.38,3.38,0,0,0-.87,1.22,5.15,5.15,0,0,0-.36,2.09v10.2h-4.63V167.27h4.38Z"/><path d="M631.54,180.48a2.78,2.78,0,0,0,.8.92,3.36,3.36,0,0,0,1.13.53,5.08,5.08,0,0,0,1.32.17,4.74,4.74,0,0,0,1-.12,3.41,3.41,0,0,0,1-.37,2.26,2.26,0,0,0,.73-0.68,1.84,1.84,0,0,0,.29-1.07,1.79,1.79,0,0,0-1.39-1.63,27,27,0,0,0-3.87-1.09q-1-.24-2-0.56a6.59,6.59,0,0,1-1.71-.85,4,4,0,0,1-1.21-1.33,3.87,3.87,0,0,1-.46-2,5.46,5.46,0,0,1,.64-2.79,4.79,4.79,0,0,1,1.68-1.72,7.19,7.19,0,0,1,2.35-.88,13.94,13.94,0,0,1,2.68-.25,12.87,12.87,0,0,1,2.66.27,6.89,6.89,0,0,1,2.3.92,5.41,5.41,0,0,1,1.68,1.72,6,6,0,0,1,.8,2.7h-4.41a2.13,2.13,0,0,0-1-1.89,4.48,4.48,0,0,0-2.15-.49,7.74,7.74,0,0,0-.85.05,2.74,2.74,0,0,0-.83.22,1.72,1.72,0,0,0-.64.49,1.5,1.5,0,0,0,.2,1.92,3.47,3.47,0,0,0,1.19.66,14.39,14.39,0,0,0,1.68.46l1.93,0.44a19,19,0,0,1,2,.58,6.42,6.42,0,0,1,1.71.9,4.31,4.31,0,0,1,1.21,1.39,4.23,4.23,0,0,1,.46,2.06,5.79,5.79,0,0,1-.67,2.91A5.48,5.48,0,0,1,640,184a7,7,0,0,1-2.46,1,13.84,13.84,0,0,1-2.82.29,13.43,13.43,0,0,1-2.87-.31,7.4,7.4,0,0,1-2.5-1,5.71,5.71,0,0,1-1.79-1.89,6.08,6.08,0,0,1-.77-2.94h4.41A2.73,2.73,0,0,0,631.54,180.48Z"/><path d="M648.17,170.5v-3.23h2.77v-1.36a5.39,5.39,0,0,1,1.4-3.84,5.55,5.55,0,0,1,4.24-1.5q0.62,0,1.24.05l1.21,0.08v3.6a13.62,13.62,0,0,0-1.7-.1,1.73,1.73,0,0,0-1.35.46,2.32,2.32,0,0,0-.41,1.55v1.05h3.2v3.23h-3.2v14.35h-4.63V170.5h-2.77Z"/><path d="M663,167.27v3.26h0.06A6,6,0,0,1,664,169a5.87,5.87,0,0,1,1.27-1.19,6.13,6.13,0,0,1,1.53-.77,5.34,5.34,0,0,1,1.7-.27,3.5,3.5,0,0,1,1,.17v4.49c-0.22,0-.48-0.08-0.78-0.12a7.91,7.91,0,0,0-.88-0.05,4.77,4.77,0,0,0-2.15.44,3.76,3.76,0,0,0-1.42,1.21,4.91,4.91,0,0,0-.77,1.78,10.11,10.11,0,0,0-.23,2.21v7.92h-4.63V167.27H663Z"/><path d="M668.7,172.25a8.29,8.29,0,0,1,1.76-2.92,7.87,7.87,0,0,1,2.74-1.87,9.3,9.3,0,0,1,3.59-.66,9.42,9.42,0,0,1,3.61.66,7.84,7.84,0,0,1,2.76,1.87,8.3,8.3,0,0,1,1.76,2.92,11.23,11.23,0,0,1,.62,3.82,11.08,11.08,0,0,1-.62,3.81,8.32,8.32,0,0,1-1.76,2.91,7.65,7.65,0,0,1-2.76,1.85,9.64,9.64,0,0,1-3.61.65,9.53,9.53,0,0,1-3.59-.65,7.68,7.68,0,0,1-2.74-1.85,8.3,8.3,0,0,1-1.76-2.91,11,11,0,0,1-.62-3.81A11.18,11.18,0,0,1,668.7,172.25Zm4.21,5.88a5.62,5.62,0,0,0,.67,1.8,3.63,3.63,0,0,0,1.26,1.27,3.7,3.7,0,0,0,2,.48,3.79,3.79,0,0,0,2-.48,3.58,3.58,0,0,0,1.27-1.27,5.6,5.6,0,0,0,.67-1.8,10.68,10.68,0,0,0,.2-2.06,11,11,0,0,0-.2-2.07,5.42,5.42,0,0,0-.67-1.8,3.78,3.78,0,0,0-1.27-1.27,3.7,3.7,0,0,0-2-.49,3.61,3.61,0,0,0-2,.49,3.84,3.84,0,0,0-1.26,1.27,5.44,5.44,0,0,0-.67,1.8,11,11,0,0,0-.2,2.07A10.68,10.68,0,0,0,672.91,178.14Z"/><path d="M690.89,167.27v2.38H691a6.71,6.71,0,0,1,2.2-2.11,5.78,5.78,0,0,1,3-.75,6.57,6.57,0,0,1,2.92.65,4.21,4.21,0,0,1,2,2.28,7.34,7.34,0,0,1,2-2,5.27,5.27,0,0,1,3.05-.88,8.68,8.68,0,0,1,2.48.34,4.94,4.94,0,0,1,2,1.09,5,5,0,0,1,1.27,2,8.23,8.23,0,0,1,.46,2.91v11.76h-4.63v-10q0-.88-0.07-1.67a3.63,3.63,0,0,0-.36-1.36,2.23,2.23,0,0,0-.87-0.92,3,3,0,0,0-1.55-.34,2.88,2.88,0,0,0-1.58.39,2.79,2.79,0,0,0-.95,1,4.2,4.2,0,0,0-.46,1.43,11.25,11.25,0,0,0-.12,1.62v9.79h-4.63V175c0-.52,0-1,0-1.55a4.5,4.5,0,0,0-.28-1.41,2.16,2.16,0,0,0-.82-1,3,3,0,0,0-1.68-.39,3.35,3.35,0,0,0-.87.15,2.84,2.84,0,0,0-1,.58,3.37,3.37,0,0,0-.86,1.22,5.15,5.15,0,0,0-.36,2.09v10.2h-4.63V167.27h4.37Z"/><path d="M3.86,208.25a8.29,8.29,0,0,1,1.76-2.92,7.88,7.88,0,0,1,2.74-1.87A9.29,9.29,0,0,1,12,202.8a9.43,9.43,0,0,1,3.61.66,7.86,7.86,0,0,1,2.76,1.87,8.28,8.28,0,0,1,1.76,2.92,11.18,11.18,0,0,1,.62,3.82,11,11,0,0,1-.62,3.81,8.3,8.3,0,0,1-1.76,2.91,7.66,7.66,0,0,1-2.76,1.85,9.66,9.66,0,0,1-3.61.65,9.51,9.51,0,0,1-3.59-.65,7.69,7.69,0,0,1-2.74-1.85,8.3,8.3,0,0,1-1.76-2.91,11.06,11.06,0,0,1-.62-3.81A11.21,11.21,0,0,1,3.86,208.25Zm4.21,5.88a5.6,5.6,0,0,0,.67,1.8A3.63,3.63,0,0,0,10,217.21a3.71,3.71,0,0,0,2,.48,3.8,3.8,0,0,0,2-.48,3.6,3.6,0,0,0,1.27-1.27,5.64,5.64,0,0,0,.67-1.8,10.76,10.76,0,0,0,.2-2.06,11,11,0,0,0-.2-2.07,5.46,5.46,0,0,0-.67-1.8,3.8,3.8,0,0,0-1.27-1.27,3.7,3.7,0,0,0-2-.49,3.62,3.62,0,0,0-2,.49,3.84,3.84,0,0,0-1.26,1.27,5.42,5.42,0,0,0-.67,1.8,11,11,0,0,0-.2,2.07A10.76,10.76,0,0,0,8.07,214.14Z"/><path d="M33,220.85V218.4h-0.1a5.3,5.3,0,0,1-2.29,2.21,6.52,6.52,0,0,1-2.87.68,7.83,7.83,0,0,1-3.05-.51,4.42,4.42,0,0,1-1.88-1.44,5.78,5.78,0,0,1-1-2.28,14.77,14.77,0,0,1-.28-3V203.27h4.63v9.93a6.37,6.37,0,0,0,.65,3.25,2.49,2.49,0,0,0,2.32,1.07,3.16,3.16,0,0,0,2.74-1.17,6.75,6.75,0,0,0,.85-3.86v-9.21h4.63v17.58H33Z"/><path d="M43.16,203.27v3.26h0.07a6,6,0,0,1,.88-1.51,5.83,5.83,0,0,1,1.27-1.19,6.09,6.09,0,0,1,1.53-.77,5.33,5.33,0,0,1,1.7-.27,3.49,3.49,0,0,1,1,.17v4.49q-0.33-.07-0.78-0.12a7.93,7.93,0,0,0-.88-0.05,4.77,4.77,0,0,0-2.15.44,3.76,3.76,0,0,0-1.42,1.21,4.93,4.93,0,0,0-.77,1.78,10.11,10.11,0,0,0-.23,2.21v7.92H38.75V203.27h4.41Z"/><path d="M54.45,206.5v-3.23h2.78v-1.36a5.39,5.39,0,0,1,1.4-3.84,5.55,5.55,0,0,1,4.24-1.5q0.62,0,1.24.05l1.21,0.08v3.6a13.61,13.61,0,0,0-1.7-.1,1.73,1.73,0,0,0-1.35.46,2.31,2.31,0,0,0-.41,1.55v1.05h3.2v3.23h-3.2v14.35H57.23V206.5H54.45Z"/><path d="M64.73,208.68a5.78,5.78,0,0,1,.82-2.82,5.66,5.66,0,0,1,1.83-1.8,7.77,7.77,0,0,1,2.5-1,13.68,13.68,0,0,1,2.79-.29,18.18,18.18,0,0,1,2.58.19,7.66,7.66,0,0,1,2.38.73,4.74,4.74,0,0,1,1.76,1.51,4.36,4.36,0,0,1,.69,2.57v9.15a19.15,19.15,0,0,0,.13,2.28,4.24,4.24,0,0,0,.46,1.63H76a7.08,7.08,0,0,1-.21-0.83,7.62,7.62,0,0,1-.11-0.87A6,6,0,0,1,73,220.82a10.1,10.1,0,0,1-3.07.48,8,8,0,0,1-2.25-.31,5.07,5.07,0,0,1-1.83-1,4.41,4.41,0,0,1-1.22-1.63,5.71,5.71,0,0,1-.44-2.35,5.3,5.3,0,0,1,.51-2.47A4.35,4.35,0,0,1,66,212a5.75,5.75,0,0,1,1.83-.87,19.06,19.06,0,0,1,2.07-.46q1-.17,2.06-0.27a11.93,11.93,0,0,0,1.79-.31,3.07,3.07,0,0,0,1.24-.6,1.33,1.33,0,0,0,.42-1.14,2.64,2.64,0,0,0-.25-1.24,1.84,1.84,0,0,0-.65-0.71,2.51,2.51,0,0,0-.95-0.34,7.52,7.52,0,0,0-1.16-.08,3.42,3.42,0,0,0-2.15.61,2.78,2.78,0,0,0-.91,2H64.73Zm10.71,3.57a2,2,0,0,1-.73.43,7.25,7.25,0,0,1-.95.25q-0.51.1-1.06,0.17c-0.37,0-.74.1-1.11,0.17a8.17,8.17,0,0,0-1,.27,3,3,0,0,0-.88.46,2.17,2.17,0,0,0-.6.73,2.44,2.44,0,0,0-.23,1.12,2.35,2.35,0,0,0,.23,1.09,1.8,1.8,0,0,0,.62.7,2.55,2.55,0,0,0,.91.36,5.58,5.58,0,0,0,1.08.1,4,4,0,0,0,2.12-.48,3.12,3.12,0,0,0,1.11-1.14,3.74,3.74,0,0,0,.44-1.34,9.74,9.74,0,0,0,.08-1.09v-1.8Z"/><path d="M85.69,220.85l-5.78-17.58h4.86l3.56,12H88.4l3.56-12h4.6l-5.71,17.58H85.69Z"/><path d="M96.43,208.25a8.29,8.29,0,0,1,1.76-2.92,7.87,7.87,0,0,1,2.74-1.87,9.3,9.3,0,0,1,3.59-.66,9.42,9.42,0,0,1,3.61.66,7.84,7.84,0,0,1,2.76,1.87,8.3,8.3,0,0,1,1.76,2.92,11.23,11.23,0,0,1,.62,3.82,11.08,11.08,0,0,1-.62,3.81,8.32,8.32,0,0,1-1.76,2.91,7.65,7.65,0,0,1-2.76,1.85,9.64,9.64,0,0,1-3.61.65,9.53,9.53,0,0,1-3.59-.65,7.68,7.68,0,0,1-2.74-1.85,8.3,8.3,0,0,1-1.76-2.91,11,11,0,0,1-.62-3.81A11.18,11.18,0,0,1,96.43,208.25Zm4.21,5.88a5.62,5.62,0,0,0,.67,1.8,3.63,3.63,0,0,0,1.26,1.27,3.7,3.7,0,0,0,2,.48,3.79,3.79,0,0,0,2-.48,3.58,3.58,0,0,0,1.27-1.27,5.6,5.6,0,0,0,.67-1.8,10.68,10.68,0,0,0,.2-2.06,11,11,0,0,0-.2-2.07,5.42,5.42,0,0,0-.67-1.8,3.78,3.78,0,0,0-1.27-1.27,3.7,3.7,0,0,0-2-.49,3.61,3.61,0,0,0-2,.49,3.84,3.84,0,0,0-1.26,1.27,5.44,5.44,0,0,0-.67,1.8,11,11,0,0,0-.2,2.07A10.68,10.68,0,0,0,100.64,214.14Z"/><path d="M118.52,203.27v3.26h0.07a6,6,0,0,1,.88-1.51,5.88,5.88,0,0,1,1.27-1.19,6.14,6.14,0,0,1,1.53-.77,5.34,5.34,0,0,1,1.7-.27,3.49,3.49,0,0,1,1,.17v4.49q-0.33-.07-0.78-0.12a7.9,7.9,0,0,0-.88-0.05,4.77,4.77,0,0,0-2.15.44,3.77,3.77,0,0,0-1.42,1.21,4.91,4.91,0,0,0-.77,1.78,10.11,10.11,0,0,0-.23,2.21v7.92h-4.63V203.27h4.41Z"/><path d="M124.79,200.55v-4h4.63v4h-4.63Zm4.63,2.72v17.58h-4.63V203.27h4.63Z"/><path d="M140.2,203.27v3.23H136.8v8.7a2.44,2.44,0,0,0,.39,1.63,2.2,2.2,0,0,0,1.57.41c0.26,0,.51,0,0.75,0a6.08,6.08,0,0,0,.69-0.1v3.74a10.69,10.69,0,0,1-1.31.14q-0.72,0-1.4,0a13,13,0,0,1-2-.15,4.67,4.67,0,0,1-1.7-.59,3.1,3.1,0,0,1-1.16-1.26,4.65,4.65,0,0,1-.42-2.14V206.5h-2.81v-3.23h2.81V198h4.63v5.27h3.39Z"/><path d="M145.22,216.64a4.6,4.6,0,0,0,5.42.32,3,3,0,0,0,1.24-1.55H156a8.07,8.07,0,0,1-3,4.52,8.57,8.57,0,0,1-4.9,1.36,9.3,9.3,0,0,1-3.59-.66,7.44,7.44,0,0,1-2.71-1.89,8.55,8.55,0,0,1-1.71-2.92,11.09,11.09,0,0,1-.6-3.74,10.62,10.62,0,0,1,.62-3.67,8.68,8.68,0,0,1,1.76-2.94,8.29,8.29,0,0,1,2.73-2,8.43,8.43,0,0,1,3.51-.71,7.76,7.76,0,0,1,3.75.87,7.59,7.59,0,0,1,2.63,2.33,9.78,9.78,0,0,1,1.49,3.33,13,13,0,0,1,.33,3.91H144.08A5,5,0,0,0,145.22,216.64Zm5.24-9.25a3.18,3.18,0,0,0-2.53-1,3.9,3.9,0,0,0-1.84.39,3.55,3.55,0,0,0-1.17,1,3.59,3.59,0,0,0-.62,1.22,5.76,5.76,0,0,0-.21,1.16h7.54A5.7,5.7,0,0,0,150.46,207.39Z"/><path d="M168.4,196.58v8.84h0.07a5,5,0,0,1,2.3-2,7.53,7.53,0,0,1,3-.63,6.22,6.22,0,0,1,2.51.54,6.46,6.46,0,0,1,2.24,1.67,8.62,8.62,0,0,1,1.62,2.87,14.32,14.32,0,0,1,0,8.33,8.62,8.62,0,0,1-1.62,2.87,6.45,6.45,0,0,1-2.24,1.67,6.22,6.22,0,0,1-2.51.54,8.59,8.59,0,0,1-3.33-.61,4.29,4.29,0,0,1-2.22-2.07h-0.07v2.24h-4.41V196.58h4.63Zm7.51,13.36a5.71,5.71,0,0,0-.72-1.8A3.84,3.84,0,0,0,174,206.9a3.65,3.65,0,0,0-3.54,0,3.78,3.78,0,0,0-1.24,1.24,5.74,5.74,0,0,0-.72,1.8,9.77,9.77,0,0,0-.23,2.14,9.61,9.61,0,0,0,.23,2.11,5.73,5.73,0,0,0,.72,1.8,3.78,3.78,0,0,0,1.24,1.24,3.65,3.65,0,0,0,3.54,0,3.84,3.84,0,0,0,1.22-1.24,5.71,5.71,0,0,0,.72-1.8,9.61,9.61,0,0,0,.23-2.11A9.77,9.77,0,0,0,175.9,209.94Z"/><path d="M186,203.27v3.26H186a5.93,5.93,0,0,1,.88-1.51,5.83,5.83,0,0,1,1.27-1.19,6.1,6.1,0,0,1,1.53-.77,5.33,5.33,0,0,1,1.7-.27,3.48,3.48,0,0,1,1,.17v4.49c-0.22,0-.48-0.08-0.78-0.12a7.91,7.91,0,0,0-.88-0.05,4.77,4.77,0,0,0-2.15.44,3.77,3.77,0,0,0-1.42,1.21,4.93,4.93,0,0,0-.77,1.78,10.11,10.11,0,0,0-.23,2.21v7.92h-4.63V203.27H186Z"/><path d="M191.9,208.68a5.76,5.76,0,0,1,.82-2.82,5.66,5.66,0,0,1,1.83-1.8,7.78,7.78,0,0,1,2.5-1,13.66,13.66,0,0,1,2.79-.29,18.21,18.21,0,0,1,2.58.19,7.69,7.69,0,0,1,2.38.73,4.74,4.74,0,0,1,1.76,1.51,4.36,4.36,0,0,1,.69,2.57v9.15a18.94,18.94,0,0,0,.13,2.28,4.24,4.24,0,0,0,.46,1.63h-4.7a7.08,7.08,0,0,1-.21-0.83,7.41,7.41,0,0,1-.12-0.87,6,6,0,0,1-2.61,1.67,10.1,10.1,0,0,1-3.07.48,8,8,0,0,1-2.25-.31,5.08,5.08,0,0,1-1.83-1,4.39,4.39,0,0,1-1.22-1.63,5.71,5.71,0,0,1-.44-2.35,5.31,5.31,0,0,1,.51-2.47,4.37,4.37,0,0,1,1.31-1.55,5.75,5.75,0,0,1,1.83-.87,18.9,18.9,0,0,1,2.07-.46q1-.17,2.06-0.27a12,12,0,0,0,1.79-.31,3.08,3.08,0,0,0,1.24-.6,1.33,1.33,0,0,0,.42-1.14,2.67,2.67,0,0,0-.24-1.24,1.85,1.85,0,0,0-.65-0.71,2.5,2.5,0,0,0-.95-0.34,7.52,7.52,0,0,0-1.16-.08,3.41,3.41,0,0,0-2.15.61,2.77,2.77,0,0,0-.91,2H191.9Zm10.71,3.57a2,2,0,0,1-.73.43,7.21,7.21,0,0,1-.95.25q-0.51.1-1.06,0.17t-1.11.17a8.12,8.12,0,0,0-1,.27,3,3,0,0,0-.88.46,2.16,2.16,0,0,0-.6.73,2.44,2.44,0,0,0-.23,1.12,2.35,2.35,0,0,0,.23,1.09,1.79,1.79,0,0,0,.62.7,2.54,2.54,0,0,0,.91.36,5.57,5.57,0,0,0,1.08.1,4,4,0,0,0,2.12-.48,3.12,3.12,0,0,0,1.11-1.14,3.77,3.77,0,0,0,.44-1.34,9.55,9.55,0,0,0,.08-1.09v-1.8Z"/><path d="M213.08,203.27v2.45h0.1a5.4,5.4,0,0,1,2.28-2.23,6.4,6.4,0,0,1,2.87-.7,7.6,7.6,0,0,1,3.05.53,4.56,4.56,0,0,1,1.88,1.46,5.77,5.77,0,0,1,1,2.28,14.76,14.76,0,0,1,.28,3v10.81h-4.63v-9.93a6.37,6.37,0,0,0-.65-3.25,2.49,2.49,0,0,0-2.32-1.07,3.15,3.15,0,0,0-2.74,1.17,6.73,6.73,0,0,0-.85,3.86v9.21h-4.63V203.27h4.41Z"/><path d="M237.85,218.61a4.85,4.85,0,0,1-2.14,2.06,6.87,6.87,0,0,1-3,.63,7,7,0,0,1-3.33-.77,6.76,6.76,0,0,1-2.37-2.07,9.55,9.55,0,0,1-1.4-3,13.09,13.09,0,0,1-.47-3.54,12.3,12.3,0,0,1,.47-3.42,9,9,0,0,1,1.4-2.91,7.07,7.07,0,0,1,2.33-2,6.71,6.71,0,0,1,3.26-.77,6.42,6.42,0,0,1,2.86.66,5.05,5.05,0,0,1,2.14,2h0.07v-8.84h4.63v24.28h-4.41v-2.24h-0.07Zm-0.2-8.69a5.24,5.24,0,0,0-.67-1.77,3.85,3.85,0,0,0-1.22-1.24,3.48,3.48,0,0,0-1.89-.48,3.65,3.65,0,0,0-1.93.48,3.69,3.69,0,0,0-1.26,1.26A5.71,5.71,0,0,0,230,210a10.08,10.08,0,0,0-.21,2.09,9.31,9.31,0,0,0,.23,2,5.7,5.7,0,0,0,.73,1.82A4.15,4.15,0,0,0,232,217.2a3.34,3.34,0,0,0,1.84.49,3.37,3.37,0,0,0,3.13-1.75,5.86,5.86,0,0,0,.65-1.82,11.12,11.12,0,0,0,.2-2.11A10.87,10.87,0,0,0,237.66,209.92Z"/><path d="M247.56,216.48a2.78,2.78,0,0,0,.8.92,3.36,3.36,0,0,0,1.13.53,5.08,5.08,0,0,0,1.32.17,4.74,4.74,0,0,0,1-.12,3.41,3.41,0,0,0,1-.37,2.26,2.26,0,0,0,.73-0.68,1.84,1.84,0,0,0,.29-1.07,1.79,1.79,0,0,0-1.39-1.63,27,27,0,0,0-3.87-1.09q-1-.24-2-0.56a6.59,6.59,0,0,1-1.71-.85,4,4,0,0,1-1.21-1.33,3.87,3.87,0,0,1-.46-2,5.46,5.46,0,0,1,.64-2.79,4.79,4.79,0,0,1,1.68-1.72,7.19,7.19,0,0,1,2.35-.88,13.94,13.94,0,0,1,2.68-.25,12.87,12.87,0,0,1,2.66.27,6.89,6.89,0,0,1,2.3.92,5.41,5.41,0,0,1,1.68,1.72,6,6,0,0,1,.8,2.7h-4.41a2.13,2.13,0,0,0-1-1.89,4.48,4.48,0,0,0-2.15-.49,7.74,7.74,0,0,0-.85.05,2.74,2.74,0,0,0-.83.22,1.72,1.72,0,0,0-.64.49,1.5,1.5,0,0,0,.2,1.92,3.47,3.47,0,0,0,1.19.66,14.39,14.39,0,0,0,1.68.46l1.93,0.44a19,19,0,0,1,2,.58,6.42,6.42,0,0,1,1.71.9,4.31,4.31,0,0,1,1.21,1.39,4.23,4.23,0,0,1,.46,2.06,5.79,5.79,0,0,1-.67,2.91,5.48,5.48,0,0,1-1.75,1.89,7,7,0,0,1-2.46,1,13.84,13.84,0,0,1-2.82.29,13.43,13.43,0,0,1-2.87-.31,7.4,7.4,0,0,1-2.5-1,5.71,5.71,0,0,1-1.79-1.89,6.08,6.08,0,0,1-.77-2.94h4.41A2.73,2.73,0,0,0,247.56,216.48Z"/><path d="M264.36,215.62v5.24h-5.12v-5.24h5.13Z"/></svg>