<svg xmlns="http://www.w3.org/2000/svg" viewBox="0 0 302 64.26"><title>sort_03</title><path d="M4.64,18.53a21.63,21.63,0,0,1,4-7.17A18.23,18.23,0,0,1,15,6.56a20.07,20.07,0,0,1,8.5-1.74A20,20,0,0,1,32,6.56a18.32,18.32,0,0,1,6.34,4.8,21.63,21.63,0,0,1,4,7.17,27.78,27.78,0,0,1,1.38,8.91,26.85,26.85,0,0,1-1.38,8.73,21,21,0,0,1-4,7A18.3,18.3,0,0,1,32,47.93a20.31,20.31,0,0,1-8.53,1.71A20.35,20.35,0,0,1,15,47.93a18.21,18.21,0,0,1-6.36-4.71,21,21,0,0,1-4-7,26.85,26.85,0,0,1-1.38-8.73A27.78,27.78,0,0,1,4.64,18.53Zm8.27,14.16a14.47,14.47,0,0,0,1.93,4.59,10,10,0,0,0,3.46,3.27,10.2,10.2,0,0,0,5.18,1.23,10.22,10.22,0,0,0,5.18-1.23,10.05,10.05,0,0,0,3.46-3.27A14.47,14.47,0,0,0,34,32.69a22.67,22.67,0,0,0,.61-5.25A24.37,24.37,0,0,0,34,22a14.78,14.78,0,0,0-1.93-4.71A10,10,0,0,0,28.66,14a10.23,10.23,0,0,0-5.18-1.23A10.21,10.21,0,0,0,18.3,14a10,10,0,0,0-3.46,3.3A14.78,14.78,0,0,0,12.91,22a24.37,24.37,0,0,0-.6,5.46A22.66,22.66,0,0,0,12.91,32.69Z"/><path d="M51.82,17.66V22H52A9.54,9.54,0,0,1,56,18a11.29,11.29,0,0,1,5.07-1.23,13.4,13.4,0,0,1,5.39.93,8,8,0,0,1,3.31,2.58,10.19,10.19,0,0,1,1.7,4A26,26,0,0,1,72,29.6V48.68H63.8V31.16a11.25,11.25,0,0,0-1.15-5.73q-1.15-1.89-4.09-1.89-3.34,0-4.84,2.07t-1.5,6.81V48.68H44v-31h7.78Z"/><path d="M81.65,5.84V48.68H73.48V5.84h8.18Z"/><path d="M94.15,57.92a11.49,11.49,0,0,1-6.57,1.62q-1.27,0-2.51-.09l-2.51-.21v-7l2.36,0.24a16.4,16.4,0,0,0,2.42.06,3.15,3.15,0,0,0,2.39-1.32,4.38,4.38,0,0,0,.78-2.52,5.31,5.31,0,0,0-.35-1.92L79.75,17.66h8.7L95.19,38.9h0.12l6.51-21.24h8.47L97.84,52.52A10.49,10.49,0,0,1,94.15,57.92Z"/><path d="M116.79,13.76V5.84h33.7v7.92H138.16V48.68h-9V13.76H116.79Z"/><path d="M159.24,28.64V36H141.9V28.64h17.34Z"/><path d="M168.23,38.12a6.73,6.73,0,0,0,2,2.43,8.42,8.42,0,0,0,2.91,1.38,13.21,13.21,0,0,0,3.46.45,17.21,17.21,0,0,0,2.59-.21,8.74,8.74,0,0,0,2.59-.81,5.7,5.7,0,0,0,2-1.65,4.26,4.26,0,0,0,.81-2.67,3.84,3.84,0,0,0-1.07-2.82,8.42,8.42,0,0,0-2.79-1.8,27.08,27.08,0,0,0-3.92-1.26q-2.19-.54-4.44-1.2a38,38,0,0,1-4.49-1.47A15.24,15.24,0,0,1,164,26.24a10.48,10.48,0,0,1-2.79-3.45,10.83,10.83,0,0,1-1.07-5A11.59,11.59,0,0,1,161.46,12,12.59,12.59,0,0,1,165,8a15.17,15.17,0,0,1,5-2.4,20.32,20.32,0,0,1,5.53-.78,25.2,25.2,0,0,1,6.19.75A15.16,15.16,0,0,1,186.95,8a12.15,12.15,0,0,1,3.66,4.29A13.61,13.61,0,0,1,192,18.62H183.2a7.85,7.85,0,0,0-.78-3.18,5.24,5.24,0,0,0-1.76-2,7.28,7.28,0,0,0-2.51-1,14.85,14.85,0,0,0-3.08-.3,10.24,10.24,0,0,0-2.19.24,5.75,5.75,0,0,0-2,.84,5.1,5.1,0,0,0-1.47,1.5,4.16,4.16,0,0,0-.58,2.28,4,4,0,0,0,.46,2,4.15,4.15,0,0,0,1.81,1.44,22.46,22.46,0,0,0,3.74,1.32q2.39,0.66,6.25,1.68,1.15,0.24,3.2.87a15.07,15.07,0,0,1,4.06,2A12.58,12.58,0,0,1,191.87,30,10.84,10.84,0,0,1,193.34,36a13.56,13.56,0,0,1-1.09,5.46A11.81,11.81,0,0,1,189,45.77a15.42,15.42,0,0,1-5.36,2.85,24.39,24.39,0,0,1-7.4,1,25,25,0,0,1-6.59-.87A16.27,16.27,0,0,1,164,46a13.35,13.35,0,0,1-3.89-4.74,14.64,14.64,0,0,1-1.38-6.84h8.75A8.12,8.12,0,0,0,168.23,38.12Z"/><path d="M201.06,5.84V22h0.17a9.65,9.65,0,0,1,4-3.93,10.39,10.39,0,0,1,4.72-1.23,13.4,13.4,0,0,1,5.39.93,8,8,0,0,1,3.31,2.58,10.19,10.19,0,0,1,1.7,4,26,26,0,0,1,.49,5.25V48.68h-8.18V31.16a11.25,11.25,0,0,0-1.15-5.73q-1.15-1.89-4.09-1.89-3.34,0-4.84,2.07t-1.5,6.81V48.68h-8.18V5.84h8.18Z"/><path d="M222.31,12.86v-7h8.18v7h-8.18Zm8.18,4.8v31h-8.18v-31h8.18Z"/><path d="M239.76,17.66v5.76h0.12a10.52,10.52,0,0,1,1.55-2.67,10.35,10.35,0,0,1,2.25-2.1,10.82,10.82,0,0,1,2.71-1.35,9.41,9.41,0,0,1,3-.48,6.16,6.16,0,0,1,1.79.3V25q-0.58-.12-1.38-0.21a13.93,13.93,0,0,0-1.56-.09,8.43,8.43,0,0,0-3.8.78,6.65,6.65,0,0,0-2.5,2.13,8.71,8.71,0,0,0-1.35,3.15,17.85,17.85,0,0,0-.4,3.9v14H232v-31h7.78Z"/><path d="M265.8,17.66v5.7h-6V38.72a4.3,4.3,0,0,0,.69,2.88,3.88,3.88,0,0,0,2.76.72c0.46,0,.9,0,1.32-0.06a10.77,10.77,0,0,0,1.21-.18v6.6a18.81,18.81,0,0,1-2.3.24Q262.23,49,261,49a23,23,0,0,1-3.6-.27,8.26,8.26,0,0,1-3-1.05,5.46,5.46,0,0,1-2-2.22,8.21,8.21,0,0,1-.75-3.78V23.36h-5v-5.7h5V8.36h8.18v9.3h6Z"/><path d="M271.64,41a4.92,4.92,0,0,0,1.41,1.62,5.92,5.92,0,0,0,2,.93,9,9,0,0,0,2.33.3,8.37,8.37,0,0,0,1.81-.21,6,6,0,0,0,1.73-.66,4,4,0,0,0,1.3-1.2,3.25,3.25,0,0,0,.52-1.89q0-1.92-2.45-2.88a47.53,47.53,0,0,0-6.83-1.92q-1.79-.42-3.48-1a11.68,11.68,0,0,1-3-1.5,7.16,7.16,0,0,1-2.13-2.34,6.84,6.84,0,0,1-.81-3.45,9.65,9.65,0,0,1,1.12-4.92,8.45,8.45,0,0,1,3-3,12.68,12.68,0,0,1,4.15-1.56,24.59,24.59,0,0,1,4.72-.45,22.69,22.69,0,0,1,4.69.48,12.16,12.16,0,0,1,4.06,1.62,9.53,9.53,0,0,1,3,3,10.48,10.48,0,0,1,1.41,4.77h-7.78a3.76,3.76,0,0,0-1.79-3.33,7.9,7.9,0,0,0-3.8-.87,13.55,13.55,0,0,0-1.5.09,4.84,4.84,0,0,0-1.47.39,3,3,0,0,0-1.12.87,2.64,2.64,0,0,0,.35,3.39,6.14,6.14,0,0,0,2.1,1.17,25.32,25.32,0,0,0,3,.81q1.67,0.36,3.4.78A33.88,33.88,0,0,1,285,31a11.3,11.3,0,0,1,3,1.59,7.61,7.61,0,0,1,2.13,2.46,7.46,7.46,0,0,1,.81,3.63,10.23,10.23,0,0,1-1.18,5.13,9.67,9.67,0,0,1-3.08,3.33,12.33,12.33,0,0,1-4.35,1.77,24.42,24.42,0,0,1-5,.51,23.73,23.73,0,0,1-5.07-.54,13.07,13.07,0,0,1-4.41-1.8,10.09,10.09,0,0,1-3.17-3.33,10.76,10.76,0,0,1-1.35-5.19h7.78A4.82,4.82,0,0,0,271.64,41Z"/><path d="M300.13,39.44v9.24h-9V39.44h9Z"/></svg>