<svg xmlns="http://www.w3.org/2000/svg" viewBox="0 0 124.98 64.26"><title>sort_06_under</title><path d="M16.17,5.84L25.79,35.3h0.12L35,5.84H47.74V48.68H39.27V18.32H39.15L29.07,48.68h-7L12,18.62H11.91V48.68H3.44V5.84H16.17Z"/><path d="M50.1,12.86v-7h8.18v7H50.1Zm8.18,4.8v31H50.1v-31h8.18Z"/><path d="M66.66,41a4.92,4.92,0,0,0,1.41,1.62,5.92,5.92,0,0,0,2,.93,9,9,0,0,0,2.33.3,8.37,8.37,0,0,0,1.81-.21,6,6,0,0,0,1.73-.66,4,4,0,0,0,1.3-1.2,3.25,3.25,0,0,0,.52-1.89q0-1.92-2.45-2.88a47.53,47.53,0,0,0-6.83-1.92q-1.79-.42-3.48-1a11.68,11.68,0,0,1-3-1.5,7.16,7.16,0,0,1-2.13-2.34A6.84,6.84,0,0,1,59,26.78a9.65,9.65,0,0,1,1.12-4.92,8.45,8.45,0,0,1,3-3,12.68,12.68,0,0,1,4.15-1.56A24.59,24.59,0,0,1,72,16.82a22.69,22.69,0,0,1,4.69.48,12.16,12.16,0,0,1,4.06,1.62,9.53,9.53,0,0,1,3,3,10.48,10.48,0,0,1,1.41,4.77H77.34a3.76,3.76,0,0,0-1.79-3.33,7.9,7.9,0,0,0-3.8-.87,13.55,13.55,0,0,0-1.5.09,4.84,4.84,0,0,0-1.47.39,3,3,0,0,0-1.12.87A2.64,2.64,0,0,0,68,27.26a6.14,6.14,0,0,0,2.1,1.17,25.32,25.32,0,0,0,3,.81q1.67,0.36,3.4.78A33.88,33.88,0,0,1,80,31a11.3,11.3,0,0,1,3,1.59,7.61,7.61,0,0,1,2.13,2.46,7.46,7.46,0,0,1,.81,3.63,10.23,10.23,0,0,1-1.18,5.13,9.67,9.67,0,0,1-3.08,3.33,12.33,12.33,0,0,1-4.35,1.77,24.42,24.42,0,0,1-5,.51,23.73,23.73,0,0,1-5.07-.54,13.07,13.07,0,0,1-4.41-1.8,10.09,10.09,0,0,1-3.17-3.33,10.76,10.76,0,0,1-1.35-5.19h7.78A4.82,4.82,0,0,0,66.66,41Z"/><path d="M100,23.24a5.57,5.57,0,0,0-3.28.93,7.27,7.27,0,0,0-2.16,2.4,10.62,10.62,0,0,0-1.18,3.24A18.29,18.29,0,0,0,93,33.32a17.52,17.52,0,0,0,.35,3.42,10.84,10.84,0,0,0,1.12,3.15,6.61,6.61,0,0,0,2.1,2.31,5.6,5.6,0,0,0,3.23.9,5.86,5.86,0,0,0,4.52-1.71,8.25,8.25,0,0,0,2-4.59h7.89Q113.4,43,109.6,46.22a14.48,14.48,0,0,1-9.73,3.24,15.73,15.73,0,0,1-6.13-1.17A13.55,13.55,0,0,1,89,45a15,15,0,0,1-3.05-5,18,18,0,0,1-1.09-6.39,21.43,21.43,0,0,1,1-6.69,15.19,15.19,0,0,1,3-5.34,13.58,13.58,0,0,1,4.78-3.51A15.67,15.67,0,0,1,100,16.82a18,18,0,0,1,5.1.72,13.39,13.39,0,0,1,4.38,2.19,11.59,11.59,0,0,1,3.14,3.66A12,12,0,0,1,114,28.58h-8Q105.22,23.24,100,23.24Z"/><path d="M123.25,39.44v9.24h-9V39.44h9Z"/><path d="M-0.53,56.18v-3H121.81v3H-0.53Z"/></svg>