<svg xmlns="http://www.w3.org/2000/svg" viewBox="0 0 254 64.26"><title>sort_05_under</title><path d="M13.08,38.12a6.73,6.73,0,0,0,2,2.43A8.42,8.42,0,0,0,18,41.93a13.21,13.21,0,0,0,3.46.45A17.21,17.21,0,0,0,24,42.17a8.74,8.74,0,0,0,2.59-.81,5.7,5.7,0,0,0,2-1.65A4.26,4.26,0,0,0,29.44,37a3.84,3.84,0,0,0-1.07-2.82,8.42,8.42,0,0,0-2.79-1.8,27.08,27.08,0,0,0-3.92-1.26q-2.19-.54-4.44-1.2a38,38,0,0,1-4.49-1.47,15.24,15.24,0,0,1-3.92-2.25A10.48,10.48,0,0,1,6,22.79a10.83,10.83,0,0,1-1.07-5A11.59,11.59,0,0,1,6.31,12,12.59,12.59,0,0,1,9.85,8a15.17,15.17,0,0,1,5-2.4,20.32,20.32,0,0,1,5.53-.78,25.2,25.2,0,0,1,6.19.75A15.16,15.16,0,0,1,31.8,8a12.15,12.15,0,0,1,3.66,4.29,13.61,13.61,0,0,1,1.35,6.33H28.06a7.85,7.85,0,0,0-.78-3.18,5.24,5.24,0,0,0-1.76-2,7.28,7.28,0,0,0-2.51-1,14.85,14.85,0,0,0-3.08-.3,10.24,10.24,0,0,0-2.19.24,5.75,5.75,0,0,0-2,.84,5.1,5.1,0,0,0-1.47,1.5A4.16,4.16,0,0,0,13.71,17a4,4,0,0,0,.46,2A4.15,4.15,0,0,0,16,20.48a22.46,22.46,0,0,0,3.74,1.32q2.39,0.66,6.25,1.68,1.15,0.24,3.2.87a15.07,15.07,0,0,1,4.06,2A12.58,12.58,0,0,1,36.72,30,10.84,10.84,0,0,1,38.19,36a13.56,13.56,0,0,1-1.09,5.46,11.81,11.81,0,0,1-3.25,4.35,15.42,15.42,0,0,1-5.36,2.85,24.39,24.39,0,0,1-7.4,1,25,25,0,0,1-6.59-.87A16.27,16.27,0,0,1,8.85,46,13.35,13.35,0,0,1,5,41.3a14.64,14.64,0,0,1-1.38-6.84h8.75A8.12,8.12,0,0,0,13.08,38.12Z"/><path d="M37.39,27.2a10.19,10.19,0,0,1,1.44-5A10,10,0,0,1,42.05,19a13.7,13.7,0,0,1,4.41-1.71,24.09,24.09,0,0,1,4.92-.51,32.18,32.18,0,0,1,4.55.33,13.52,13.52,0,0,1,4.21,1.29,8.37,8.37,0,0,1,3.11,2.67,7.69,7.69,0,0,1,1.21,4.53V41.78a33.59,33.59,0,0,0,.23,4,7.44,7.44,0,0,0,.81,2.88H57.2a12.41,12.41,0,0,1-.37-1.47,13.08,13.08,0,0,1-.2-1.53A10.59,10.59,0,0,1,52,48.62a17.81,17.81,0,0,1-5.42.84,14.08,14.08,0,0,1-4-.54,9,9,0,0,1-3.23-1.68,7.77,7.77,0,0,1-2.16-2.88,10.08,10.08,0,0,1-.78-4.14,9.35,9.35,0,0,1,.89-4.35,7.68,7.68,0,0,1,2.3-2.73,10.14,10.14,0,0,1,3.23-1.53,33.53,33.53,0,0,1,3.66-.81q1.84-.3,3.63-0.48a21.05,21.05,0,0,0,3.17-.54,5.43,5.43,0,0,0,2.19-1,2.36,2.36,0,0,0,.75-2,4.68,4.68,0,0,0-.43-2.19,3.26,3.26,0,0,0-1.15-1.26,4.42,4.42,0,0,0-1.67-.6,13.19,13.19,0,0,0-2-.15,6,6,0,0,0-3.8,1.08,4.89,4.89,0,0,0-1.61,3.6H37.39Zm18.89,6.3a3.63,3.63,0,0,1-1.3.75,12.82,12.82,0,0,1-1.67.45q-0.89.18-1.87,0.3t-2,.3a14.33,14.33,0,0,0-1.81.48,5.3,5.3,0,0,0-1.56.81A3.8,3.8,0,0,0,45,37.88a4.29,4.29,0,0,0-.4,2,4.14,4.14,0,0,0,.4,1.92A3.16,3.16,0,0,0,46.14,43a4.52,4.52,0,0,0,1.61.63,9.88,9.88,0,0,0,1.9.18A7,7,0,0,0,53.4,43a5.52,5.52,0,0,0,2-2,6.63,6.63,0,0,0,.78-2.37,17,17,0,0,0,.14-1.92V33.5Z"/><path d="M74.25,5.84V48.68H66.07V5.84h8.18Z"/><path d="M84.5,41.24a8.11,8.11,0,0,0,9.56.57,5.31,5.31,0,0,0,2.19-2.73h7.2q-1.73,5.58-5.3,8a15.12,15.12,0,0,1-8.64,2.4,16.4,16.4,0,0,1-6.34-1.17A13.16,13.16,0,0,1,78.4,45a15.1,15.1,0,0,1-3-5.16,19.58,19.58,0,0,1-1.07-6.6,18.78,18.78,0,0,1,1.09-6.48,15.31,15.31,0,0,1,3.11-5.19,14.64,14.64,0,0,1,4.81-3.45,14.88,14.88,0,0,1,6.19-1.26,13.7,13.7,0,0,1,6.62,1.53,13.39,13.39,0,0,1,4.64,4.11,17.25,17.25,0,0,1,2.62,5.88,22.81,22.81,0,0,1,.58,6.9H82.49Q82.66,39.38,84.5,41.24Zm9.25-16.32a5.62,5.62,0,0,0-4.46-1.68,6.89,6.89,0,0,0-3.25.69A6.26,6.26,0,0,0,84,25.64a6.36,6.36,0,0,0-1.09,2.16,10.14,10.14,0,0,0-.37,2H95.79A10.05,10.05,0,0,0,93.75,24.92Z"/><path d="M115.14,12.86v-7h8.18v7h-8.18Zm8.18,4.8v31h-8.18v-31h8.18Z"/><path d="M141.18,17.66v5.7h-6V38.72a4.3,4.3,0,0,0,.69,2.88,3.88,3.88,0,0,0,2.76.72c0.46,0,.9,0,1.32-0.06a10.77,10.77,0,0,0,1.21-.18v6.6a18.81,18.81,0,0,1-2.3.24Q137.61,49,136.4,49a23,23,0,0,1-3.6-.27,8.26,8.26,0,0,1-3-1.05,5.46,5.46,0,0,1-2-2.22,8.21,8.21,0,0,1-.75-3.78V23.36h-5v-5.7h5V8.36h8.18v9.3h6Z"/><path d="M148.9,41.24a8.11,8.11,0,0,0,9.56.57,5.31,5.31,0,0,0,2.19-2.73h7.2q-1.73,5.58-5.3,8a15.12,15.12,0,0,1-8.64,2.4,16.4,16.4,0,0,1-6.34-1.17A13.16,13.16,0,0,1,142.79,45a15.1,15.1,0,0,1-3-5.16,19.58,19.58,0,0,1-1.07-6.6,18.78,18.78,0,0,1,1.09-6.48,15.31,15.31,0,0,1,3.11-5.19,14.64,14.64,0,0,1,4.81-3.45,14.88,14.88,0,0,1,6.19-1.26,13.7,13.7,0,0,1,6.62,1.53,13.39,13.39,0,0,1,4.64,4.11,17.25,17.25,0,0,1,2.62,5.88,22.81,22.81,0,0,1,.58,6.9H146.88Q147.05,39.38,148.9,41.24Zm9.25-16.32a5.62,5.62,0,0,0-4.46-1.68,6.89,6.89,0,0,0-3.25.69,6.26,6.26,0,0,0-2.07,1.71,6.36,6.36,0,0,0-1.09,2.16,10.14,10.14,0,0,0-.37,2h13.31A10.05,10.05,0,0,0,158.14,24.92Z"/><path d="M176.2,17.66v4.2h0.12a11.83,11.83,0,0,1,3.89-3.72,10.2,10.2,0,0,1,5.21-1.32A11.59,11.59,0,0,1,190.57,18a7.43,7.43,0,0,1,3.54,4,12.93,12.93,0,0,1,3.6-3.6,9.28,9.28,0,0,1,5.38-1.56,15.31,15.31,0,0,1,4.38.6,8.72,8.72,0,0,1,3.46,1.92,8.84,8.84,0,0,1,2.25,3.45,14.5,14.5,0,0,1,.81,5.13V48.68h-8.18V31.1q0-1.56-.12-2.94a6.47,6.47,0,0,0-.63-2.4,3.94,3.94,0,0,0-1.53-1.62,5.35,5.35,0,0,0-2.74-.6,5.07,5.07,0,0,0-2.79.69,4.91,4.91,0,0,0-1.67,1.8,7.43,7.43,0,0,0-.81,2.52,20.06,20.06,0,0,0-.2,2.85V48.68h-8.18V31.28q0-1.38-.06-2.73a7.93,7.93,0,0,0-.49-2.49,3.8,3.8,0,0,0-1.44-1.83,5.26,5.26,0,0,0-3-.69,5.91,5.91,0,0,0-1.53.27,5,5,0,0,0-1.84,1A6,6,0,0,0,177.29,27a9.08,9.08,0,0,0-.63,3.69v18h-8.18v-31h7.72Z"/><path d="M222.37,41a4.92,4.92,0,0,0,1.41,1.62,5.92,5.92,0,0,0,2,.93,9,9,0,0,0,2.33.3,8.37,8.37,0,0,0,1.81-.21,6,6,0,0,0,1.73-.66,4,4,0,0,0,1.3-1.2,3.25,3.25,0,0,0,.52-1.89q0-1.92-2.45-2.88a47.53,47.53,0,0,0-6.83-1.92q-1.79-.42-3.48-1a11.68,11.68,0,0,1-3-1.5,7.16,7.16,0,0,1-2.13-2.34,6.84,6.84,0,0,1-.81-3.45,9.65,9.65,0,0,1,1.12-4.92,8.45,8.45,0,0,1,3-3A12.68,12.68,0,0,1,223,17.27a24.59,24.59,0,0,1,4.72-.45,22.69,22.69,0,0,1,4.69.48,12.16,12.16,0,0,1,4.06,1.62,9.53,9.53,0,0,1,3,3,10.48,10.48,0,0,1,1.41,4.77h-7.78a3.76,3.76,0,0,0-1.79-3.33,7.9,7.9,0,0,0-3.8-.87,13.55,13.55,0,0,0-1.5.09,4.84,4.84,0,0,0-1.47.39,3,3,0,0,0-1.12.87,2.64,2.64,0,0,0,.35,3.39,6.14,6.14,0,0,0,2.1,1.17,25.32,25.32,0,0,0,3,.81q1.67,0.36,3.4.78a33.88,33.88,0,0,1,3.48,1,11.3,11.3,0,0,1,3,1.59,7.61,7.61,0,0,1,2.13,2.46,7.46,7.46,0,0,1,.81,3.63,10.23,10.23,0,0,1-1.18,5.13,9.67,9.67,0,0,1-3.08,3.33A12.33,12.33,0,0,1,233,48.95a24.42,24.42,0,0,1-5,.51,23.73,23.73,0,0,1-5.07-.54,13.07,13.07,0,0,1-4.41-1.8,10.09,10.09,0,0,1-3.17-3.33A10.76,10.76,0,0,1,214,38.6h7.78A4.82,4.82,0,0,0,222.37,41Z"/><path d="M250.85,39.44v9.24h-9V39.44h9Z"/><path d="M2.19,56.18v-3H249.41v3H2.19Z"/></svg>