<svg xmlns="http://www.w3.org/2000/svg" viewBox="0 0 260.08 64.26"><title>sort_02_under</title><path d="M11.22,38.12a6.73,6.73,0,0,0,2,2.43,8.42,8.42,0,0,0,2.91,1.38,13.21,13.21,0,0,0,3.46.45,17.21,17.21,0,0,0,2.59-.21,8.74,8.74,0,0,0,2.59-.81,5.7,5.7,0,0,0,2-1.65A4.26,4.26,0,0,0,27.58,37a3.84,3.84,0,0,0-1.07-2.82,8.42,8.42,0,0,0-2.79-1.8,27.08,27.08,0,0,0-3.92-1.26q-2.19-.54-4.44-1.2a38,38,0,0,1-4.49-1.47A15.24,15.24,0,0,1,7,26.24a10.48,10.48,0,0,1-2.79-3.45,10.83,10.83,0,0,1-1.07-5A11.59,11.59,0,0,1,4.45,12,12.59,12.59,0,0,1,8,8a15.17,15.17,0,0,1,5-2.4,20.32,20.32,0,0,1,5.53-.78,25.2,25.2,0,0,1,6.19.75A15.16,15.16,0,0,1,29.94,8a12.15,12.15,0,0,1,3.66,4.29,13.61,13.61,0,0,1,1.35,6.33H26.19a7.85,7.85,0,0,0-.78-3.18,5.24,5.24,0,0,0-1.76-2,7.28,7.28,0,0,0-2.51-1,14.85,14.85,0,0,0-3.08-.3,10.24,10.24,0,0,0-2.19.24,5.75,5.75,0,0,0-2,.84,5.1,5.1,0,0,0-1.47,1.5A4.16,4.16,0,0,0,11.85,17a4,4,0,0,0,.46,2,4.15,4.15,0,0,0,1.81,1.44,22.46,22.46,0,0,0,3.74,1.32q2.39,0.66,6.25,1.68,1.15,0.24,3.2.87a15.07,15.07,0,0,1,4.06,2A12.58,12.58,0,0,1,34.86,30,10.84,10.84,0,0,1,36.33,36a13.56,13.56,0,0,1-1.09,5.46A11.81,11.81,0,0,1,32,45.77a15.42,15.42,0,0,1-5.36,2.85,24.39,24.39,0,0,1-7.4,1,25,25,0,0,1-6.59-.87A16.27,16.27,0,0,1,7,46,13.35,13.35,0,0,1,3.1,41.3a14.64,14.64,0,0,1-1.38-6.84h8.75A8.12,8.12,0,0,0,11.22,38.12Z"/><path d="M52.23,17.66v5.7h-6V38.72a4.3,4.3,0,0,0,.69,2.88,3.88,3.88,0,0,0,2.76.72c0.46,0,.9,0,1.32-0.06a10.77,10.77,0,0,0,1.21-.18v6.6a18.81,18.81,0,0,1-2.3.24Q48.66,49,47.45,49a23,23,0,0,1-3.6-.27,8.26,8.26,0,0,1-3-1.05,5.46,5.46,0,0,1-2-2.22,8.21,8.21,0,0,1-.75-3.78V23.36h-5v-5.7h5V8.36h8.18v9.3h6Z"/><path d="M59,17.66v5.76h0.12a10.52,10.52,0,0,1,1.55-2.67,10.35,10.35,0,0,1,2.25-2.1,10.82,10.82,0,0,1,2.71-1.35,9.41,9.41,0,0,1,3-.48,6.16,6.16,0,0,1,1.79.3V25Q69.8,24.92,69,24.83a13.93,13.93,0,0,0-1.56-.09,8.43,8.43,0,0,0-3.8.78,6.65,6.65,0,0,0-2.5,2.13,8.71,8.71,0,0,0-1.35,3.15,17.85,17.85,0,0,0-.4,3.9v14H51.19v-31H59Z"/><path d="M68.87,12.86v-7h8.18v7H68.87Zm8.18,4.8v31H68.87v-31h8.18Z"/><path d="M86.33,17.66v4h0.12A9.14,9.14,0,0,1,90.24,18a11.28,11.28,0,0,1,5.07-1.14,12.48,12.48,0,0,1,6,1.38,12.64,12.64,0,0,1,4.21,3.66A15.75,15.75,0,0,1,108,27.17a24.53,24.53,0,0,1,.81,6.33,22.17,22.17,0,0,1-.81,6,15.52,15.52,0,0,1-2.45,5.1,12.25,12.25,0,0,1-4.09,3.54,11.91,11.91,0,0,1-5.73,1.32,11.21,11.21,0,0,1-5.1-1.17,9.77,9.77,0,0,1-3.83-3.45H86.73v14.7H78.55V17.66h7.78ZM97,42.26a6.69,6.69,0,0,0,2.19-2.19,9.25,9.25,0,0,0,1.18-3.15,19.36,19.36,0,0,0,.35-3.66,18,18,0,0,0-.37-3.66,10,10,0,0,0-1.24-3.21,7.06,7.06,0,0,0-2.22-2.28,6,6,0,0,0-3.31-.87,6.11,6.11,0,0,0-3.37.87A6.86,6.86,0,0,0,88,26.36a9.54,9.54,0,0,0-1.18,3.18,19.68,19.68,0,0,0-.35,3.72,17.9,17.9,0,0,0,.37,3.66A9.66,9.66,0,0,0,88,40.07a6.58,6.58,0,0,0,2.22,2.19A7.12,7.12,0,0,0,97,42.26Z"/><path d="M117.54,41.24a8.11,8.11,0,0,0,9.56.57,5.31,5.31,0,0,0,2.19-2.73h7.2q-1.73,5.58-5.3,8a15.12,15.12,0,0,1-8.64,2.4,16.4,16.4,0,0,1-6.34-1.17A13.16,13.16,0,0,1,111.44,45a15.1,15.1,0,0,1-3-5.16,19.58,19.58,0,0,1-1.07-6.6,18.78,18.78,0,0,1,1.09-6.48,15.31,15.31,0,0,1,3.11-5.19,14.64,14.64,0,0,1,4.81-3.45,14.88,14.88,0,0,1,6.19-1.26,13.7,13.7,0,0,1,6.62,1.53,13.39,13.39,0,0,1,4.64,4.11,17.25,17.25,0,0,1,2.62,5.88,22.81,22.81,0,0,1,.58,6.9H115.53Q115.7,39.38,117.54,41.24Zm9.25-16.32a5.62,5.62,0,0,0-4.46-1.68,6.89,6.89,0,0,0-3.25.69A6.26,6.26,0,0,0,117,25.64a6.36,6.36,0,0,0-1.09,2.16,10.14,10.14,0,0,0-.37,2h13.31A10.05,10.05,0,0,0,126.79,24.92Z"/><path d="M164.31,17.66v5.7h-6V38.72A4.3,4.3,0,0,0,159,41.6a3.88,3.88,0,0,0,2.76.72c0.46,0,.9,0,1.32-0.06a10.77,10.77,0,0,0,1.21-.18v6.6a18.81,18.81,0,0,1-2.3.24q-1.27.06-2.48,0.06a23,23,0,0,1-3.6-.27,8.26,8.26,0,0,1-3-1.05,5.46,5.46,0,0,1-2-2.22,8.21,8.21,0,0,1-.75-3.78V23.36h-5v-5.7h5V8.36h8.18v9.3h6Z"/><path d="M174.28,57.92a11.49,11.49,0,0,1-6.57,1.62q-1.27,0-2.51-.09l-2.51-.21v-7l2.36,0.24a16.4,16.4,0,0,0,2.42.06,3.15,3.15,0,0,0,2.39-1.32,4.38,4.38,0,0,0,.78-2.52,5.31,5.31,0,0,0-.35-1.92l-10.43-29.1h8.7l6.74,21.24h0.12l6.51-21.24h8.47L178,52.52A10.49,10.49,0,0,1,174.28,57.92Z"/><path d="M196,17.66v4h0.12a9.14,9.14,0,0,1,3.8-3.66A11.28,11.28,0,0,1,205,16.82a12.48,12.48,0,0,1,6,1.38,12.64,12.64,0,0,1,4.21,3.66,15.75,15.75,0,0,1,2.48,5.31,24.53,24.53,0,0,1,.81,6.33,22.17,22.17,0,0,1-.81,6,15.52,15.52,0,0,1-2.45,5.1,12.25,12.25,0,0,1-4.09,3.54,11.91,11.91,0,0,1-5.73,1.32,11.21,11.21,0,0,1-5.1-1.17,9.77,9.77,0,0,1-3.83-3.45H196.4v14.7h-8.18V17.66H196Zm10.63,24.6a6.69,6.69,0,0,0,2.19-2.19A9.25,9.25,0,0,0,210,36.92a19.36,19.36,0,0,0,.35-3.66A18,18,0,0,0,210,29.6a10,10,0,0,0-1.24-3.21,7.06,7.06,0,0,0-2.22-2.28,6,6,0,0,0-3.31-.87,6.11,6.11,0,0,0-3.37.87,6.86,6.86,0,0,0-2.19,2.25,9.54,9.54,0,0,0-1.18,3.18,19.68,19.68,0,0,0-.35,3.72,17.9,17.9,0,0,0,.37,3.66,9.66,9.66,0,0,0,1.21,3.15,6.58,6.58,0,0,0,2.22,2.19A7.12,7.12,0,0,0,206.62,42.26Z"/><path d="M227.21,41.24a8.11,8.11,0,0,0,9.56.57A5.31,5.31,0,0,0,239,39.08h7.2q-1.73,5.58-5.3,8a15.12,15.12,0,0,1-8.64,2.4,16.4,16.4,0,0,1-6.34-1.17A13.16,13.16,0,0,1,221.11,45a15.1,15.1,0,0,1-3-5.16A19.58,19.58,0,0,1,217,33.2a18.78,18.78,0,0,1,1.09-6.48,15.31,15.31,0,0,1,3.11-5.19A14.64,14.64,0,0,1,226,18.08a14.88,14.88,0,0,1,6.19-1.26,13.7,13.7,0,0,1,6.62,1.53,13.39,13.39,0,0,1,4.64,4.11,17.25,17.25,0,0,1,2.62,5.88,22.81,22.81,0,0,1,.58,6.9H225.2Q225.37,39.38,227.21,41.24Zm9.25-16.32A5.62,5.62,0,0,0,232,23.24a6.89,6.89,0,0,0-3.25.69,6.26,6.26,0,0,0-2.07,1.71,6.36,6.36,0,0,0-1.09,2.16,10.14,10.14,0,0,0-.37,2H238.5A10.05,10.05,0,0,0,236.46,24.92Z"/><path d="M256,39.44v9.24h-9V39.44h9Z"/><path d="M0.33,56.18v-3H254.51v3H0.33Z"/></svg>