<svg xmlns="http://www.w3.org/2000/svg" viewBox="0 0 188.5 64.26"><title>sort_06</title><path d="M32.36,5.84v7.92H12.48v9.9H29.71V31H12.48v17.7h-9V5.84H32.36Z"/><path d="M32,12.86v-7h8.18v7H32Zm8.18,4.8v31H32v-31h8.18Z"/><path d="M50.1,5.84V48.68H41.92V5.84H50.1Z"/><path d="M68,17.66v5.7H62V38.72a4.3,4.3,0,0,0,.69,2.88,3.88,3.88,0,0,0,2.76.72c0.46,0,.9,0,1.32-0.06A10.77,10.77,0,0,0,68,42.08v6.6a18.81,18.81,0,0,1-2.3.24Q64.38,49,63.17,49a23,23,0,0,1-3.6-.27,8.26,8.26,0,0,1-3-1.05,5.46,5.46,0,0,1-2-2.22,8.21,8.21,0,0,1-.75-3.78V23.36h-5v-5.7h5V8.36H62v9.3h6Z"/><path d="M75.67,41.24a8.11,8.11,0,0,0,9.56.57,5.31,5.31,0,0,0,2.19-2.73h7.2q-1.73,5.58-5.3,8a15.12,15.12,0,0,1-8.64,2.4,16.4,16.4,0,0,1-6.34-1.17A13.16,13.16,0,0,1,69.56,45a15.1,15.1,0,0,1-3-5.16,19.58,19.58,0,0,1-1.07-6.6,18.78,18.78,0,0,1,1.09-6.48,15.31,15.31,0,0,1,3.11-5.19,14.64,14.64,0,0,1,4.81-3.45,14.88,14.88,0,0,1,6.19-1.26,13.7,13.7,0,0,1,6.62,1.53,13.39,13.39,0,0,1,4.64,4.11,17.25,17.25,0,0,1,2.62,5.88,22.81,22.81,0,0,1,.58,6.9H73.65Q73.83,39.38,75.67,41.24Zm9.25-16.32a5.62,5.62,0,0,0-4.46-1.68,6.89,6.89,0,0,0-3.25.69,6.26,6.26,0,0,0-2.07,1.71A6.36,6.36,0,0,0,74,27.8a10.14,10.14,0,0,0-.37,2H87A10.05,10.05,0,0,0,84.92,24.92Z"/><path d="M102.8,17.66v5.76h0.12a10.52,10.52,0,0,1,1.55-2.67,10.35,10.35,0,0,1,2.25-2.1,10.82,10.82,0,0,1,2.71-1.35,9.41,9.41,0,0,1,3-.48,6.16,6.16,0,0,1,1.79.3V25q-0.58-.12-1.38-0.21a13.93,13.93,0,0,0-1.56-.09,8.43,8.43,0,0,0-3.8.78,6.65,6.65,0,0,0-2.5,2.13,8.71,8.71,0,0,0-1.35,3.15,17.85,17.85,0,0,0-.4,3.9v14H95v-31h7.78Z"/><path d="M112.88,27.44V18.2h9v9.24h-9Zm9,12v9.24h-9V39.44h9Z"/><path d="M142.37,38.12a6.73,6.73,0,0,0,2,2.43,8.42,8.42,0,0,0,2.91,1.38,13.21,13.21,0,0,0,3.46.45,17.21,17.21,0,0,0,2.59-.21,8.74,8.74,0,0,0,2.59-.81,5.7,5.7,0,0,0,2-1.65,4.26,4.26,0,0,0,.81-2.67,3.84,3.84,0,0,0-1.07-2.82,8.42,8.42,0,0,0-2.79-1.8A27.08,27.08,0,0,0,151,31.16q-2.19-.54-4.44-1.2A38,38,0,0,1,142,28.49a15.24,15.24,0,0,1-3.92-2.25,10.48,10.48,0,0,1-2.79-3.45,10.83,10.83,0,0,1-1.07-5A11.59,11.59,0,0,1,135.6,12a12.59,12.59,0,0,1,3.54-4,15.17,15.17,0,0,1,5-2.4,20.32,20.32,0,0,1,5.53-.78,25.2,25.2,0,0,1,6.19.75A15.16,15.16,0,0,1,161.09,8a12.15,12.15,0,0,1,3.66,4.29,13.61,13.61,0,0,1,1.35,6.33h-8.75a7.85,7.85,0,0,0-.78-3.18,5.24,5.24,0,0,0-1.76-2,7.28,7.28,0,0,0-2.51-1,14.85,14.85,0,0,0-3.08-.3,10.24,10.24,0,0,0-2.19.24,5.75,5.75,0,0,0-2,.84,5.1,5.1,0,0,0-1.47,1.5A4.16,4.16,0,0,0,143,17a4,4,0,0,0,.46,2,4.15,4.15,0,0,0,1.81,1.44A22.46,22.46,0,0,0,149,21.8q2.39,0.66,6.25,1.68,1.15,0.24,3.2.87a15.07,15.07,0,0,1,4.06,2A12.58,12.58,0,0,1,166,30,10.84,10.84,0,0,1,167.48,36a13.56,13.56,0,0,1-1.09,5.46,11.81,11.81,0,0,1-3.25,4.35,15.42,15.42,0,0,1-5.36,2.85,24.39,24.39,0,0,1-7.4,1,25,25,0,0,1-6.59-.87A16.27,16.27,0,0,1,138.14,46a13.35,13.35,0,0,1-3.89-4.74,14.64,14.64,0,0,1-1.38-6.84h8.75A8.12,8.12,0,0,0,142.37,38.12Z"/><path d="M183.38,17.66v5.7h-6V38.72a4.3,4.3,0,0,0,.69,2.88,3.88,3.88,0,0,0,2.76.72c0.46,0,.9,0,1.32-0.06a10.77,10.77,0,0,0,1.21-.18v6.6a18.81,18.81,0,0,1-2.3.24Q179.81,49,178.6,49a23,23,0,0,1-3.6-.27,8.26,8.26,0,0,1-3-1.05,5.46,5.46,0,0,1-2-2.22,8.21,8.21,0,0,1-.75-3.78V23.36h-5v-5.7h5V8.36h8.18v9.3h6Z"/><path d="M190.12,17.66v5.76h0.12a10.52,10.52,0,0,1,1.55-2.67,10.35,10.35,0,0,1,2.25-2.1,10.82,10.82,0,0,1,2.71-1.35,9.41,9.41,0,0,1,3-.48,6.16,6.16,0,0,1,1.79.3V25q-0.58-.12-1.38-0.21a13.93,13.93,0,0,0-1.56-.09,8.43,8.43,0,0,0-3.8.78,6.65,6.65,0,0,0-2.5,2.13,8.71,8.71,0,0,0-1.35,3.15,17.85,17.85,0,0,0-.4,3.9v14h-8.18v-31h7.78Z"/></svg>