<svg xmlns="http://www.w3.org/2000/svg" viewBox="0 0 121.67 64.26"><title>sort_01</title><path d="M28.37,5.84v7.92H8.5v9.9H25.72V31H8.5v17.7h-9V5.84H28.37Z"/><path d="M28,12.86v-7H36.2v7H28Zm8.18,4.8v31H28v-31H36.2Z"/><path d="M46.11,5.84V48.68H37.93V5.84h8.18Z"/><path d="M64,17.66v5.7H58V38.72a4.3,4.3,0,0,0,.69,2.88,3.88,3.88,0,0,0,2.76.72c0.46,0,.9,0,1.32-0.06A10.77,10.77,0,0,0,64,42.08v6.6a18.81,18.81,0,0,1-2.3.24Q60.4,49,59.19,49a23,23,0,0,1-3.6-.27,8.26,8.26,0,0,1-3-1.05,5.46,5.46,0,0,1-2-2.22,8.21,8.21,0,0,1-.75-3.78V23.36h-5v-5.7h5V8.36H58v9.3h6Z"/><path d="M71.68,41.24a8.11,8.11,0,0,0,9.56.57,5.31,5.31,0,0,0,2.19-2.73h7.2q-1.73,5.58-5.3,8a15.12,15.12,0,0,1-8.64,2.4,16.4,16.4,0,0,1-6.34-1.17A13.16,13.16,0,0,1,65.58,45a15.1,15.1,0,0,1-3-5.16,19.58,19.58,0,0,1-1.07-6.6,18.78,18.78,0,0,1,1.09-6.48,15.31,15.31,0,0,1,3.11-5.19,14.64,14.64,0,0,1,4.81-3.45,14.88,14.88,0,0,1,6.19-1.26,13.7,13.7,0,0,1,6.62,1.53A13.39,13.39,0,0,1,88,22.46a17.25,17.25,0,0,1,2.62,5.88,22.81,22.81,0,0,1,.58,6.9H69.67Q69.84,39.38,71.68,41.24Zm9.25-16.32a5.62,5.62,0,0,0-4.46-1.68,6.89,6.89,0,0,0-3.25.69,6.26,6.26,0,0,0-2.07,1.71A6.36,6.36,0,0,0,70,27.8a10.14,10.14,0,0,0-.37,2H83A10.05,10.05,0,0,0,80.93,24.92Z"/><path d="M98.81,17.66v5.76h0.12a10.52,10.52,0,0,1,1.55-2.67,10.35,10.35,0,0,1,2.25-2.1,10.82,10.82,0,0,1,2.71-1.35,9.41,9.41,0,0,1,3-.48,6.16,6.16,0,0,1,1.79.3V25q-0.58-.12-1.38-0.21a13.93,13.93,0,0,0-1.56-.09,8.43,8.43,0,0,0-3.8.78,6.65,6.65,0,0,0-2.5,2.13,8.71,8.71,0,0,0-1.35,3.15,17.85,17.85,0,0,0-.4,3.9v14H91v-31h7.78Z"/><path d="M108.89,27.44V18.2h9v9.24h-9Zm9,12v9.24h-9V39.44h9Z"/></svg>