<svg xmlns="http://www.w3.org/2000/svg" viewBox="0 0 277.5 64.26"><title>sort_04</title><path d="M5.32,18.53a21.63,21.63,0,0,1,4-7.17,18.23,18.23,0,0,1,6.36-4.8,20.07,20.07,0,0,1,8.5-1.74,20,20,0,0,1,8.53,1.74A18.32,18.32,0,0,1,39,11.36a21.63,21.63,0,0,1,4,7.17,27.78,27.78,0,0,1,1.38,8.91A26.85,26.85,0,0,1,43,36.17a21,21,0,0,1-4,7,18.3,18.3,0,0,1-6.34,4.71,20.31,20.31,0,0,1-8.53,1.71,20.35,20.35,0,0,1-8.5-1.71,18.21,18.21,0,0,1-6.36-4.71,21,21,0,0,1-4-7,26.85,26.85,0,0,1-1.38-8.73A27.78,27.78,0,0,1,5.32,18.53Zm8.27,14.16a14.47,14.47,0,0,0,1.93,4.59A10,10,0,0,0,19,40.55a10.2,10.2,0,0,0,5.18,1.23,10.22,10.22,0,0,0,5.18-1.23,10.05,10.05,0,0,0,3.46-3.27,14.47,14.47,0,0,0,1.93-4.59,22.67,22.67,0,0,0,.61-5.25A24.37,24.37,0,0,0,34.72,22a14.78,14.78,0,0,0-1.93-4.71A10,10,0,0,0,29.34,14a10.23,10.23,0,0,0-5.18-1.23A10.21,10.21,0,0,0,19,14a10,10,0,0,0-3.46,3.3A14.78,14.78,0,0,0,13.58,22a24.37,24.37,0,0,0-.6,5.46A22.66,22.66,0,0,0,13.58,32.69Z"/><path d="M52.49,17.66V22h0.17a9.54,9.54,0,0,1,4-3.93,11.29,11.29,0,0,1,5.07-1.23,13.4,13.4,0,0,1,5.39.93,8,8,0,0,1,3.31,2.58,10.19,10.19,0,0,1,1.7,4,26,26,0,0,1,.49,5.25V48.68H64.47V31.16a11.25,11.25,0,0,0-1.15-5.73q-1.15-1.89-4.09-1.89-3.34,0-4.84,2.07t-1.5,6.81V48.68H44.72v-31h7.78Z"/><path d="M82.33,5.84V48.68H74.15V5.84h8.18Z"/><path d="M94.83,57.92a11.49,11.49,0,0,1-6.57,1.62q-1.27,0-2.51-.09l-2.51-.21v-7l2.36,0.24a16.4,16.4,0,0,0,2.42.06,3.15,3.15,0,0,0,2.39-1.32,4.38,4.38,0,0,0,.78-2.52,5.31,5.31,0,0,0-.35-1.92L80.43,17.66h8.7L95.86,38.9H96l6.51-21.24H111L98.51,52.52A10.49,10.49,0,0,1,94.83,57.92Z"/><path d="M127.6,38.12a6.73,6.73,0,0,0,2,2.43,8.42,8.42,0,0,0,2.91,1.38,13.21,13.21,0,0,0,3.46.45,17.21,17.21,0,0,0,2.59-.21,8.74,8.74,0,0,0,2.59-.81,5.7,5.7,0,0,0,2-1.65A4.26,4.26,0,0,0,144,37a3.84,3.84,0,0,0-1.07-2.82,8.42,8.42,0,0,0-2.79-1.8,27.08,27.08,0,0,0-3.92-1.26q-2.19-.54-4.44-1.2a38,38,0,0,1-4.49-1.47,15.24,15.24,0,0,1-3.92-2.25,10.48,10.48,0,0,1-2.79-3.45,10.83,10.83,0,0,1-1.07-5A11.59,11.59,0,0,1,120.83,12a12.59,12.59,0,0,1,3.54-4,15.17,15.17,0,0,1,5-2.4,20.32,20.32,0,0,1,5.53-.78,25.2,25.2,0,0,1,6.19.75A15.16,15.16,0,0,1,146.32,8,12.15,12.15,0,0,1,150,12.29a13.61,13.61,0,0,1,1.35,6.33h-8.75a7.85,7.85,0,0,0-.78-3.18,5.24,5.24,0,0,0-1.76-2,7.28,7.28,0,0,0-2.51-1,14.85,14.85,0,0,0-3.08-.3,10.24,10.24,0,0,0-2.19.24,5.75,5.75,0,0,0-2,.84,5.1,5.1,0,0,0-1.47,1.5,4.16,4.16,0,0,0-.58,2.28,4,4,0,0,0,.46,2,4.15,4.15,0,0,0,1.81,1.44,22.46,22.46,0,0,0,3.74,1.32q2.39,0.66,6.25,1.68,1.15,0.24,3.2.87a15.07,15.07,0,0,1,4.06,2A12.58,12.58,0,0,1,151.25,30,10.84,10.84,0,0,1,152.71,36a13.56,13.56,0,0,1-1.09,5.46,11.81,11.81,0,0,1-3.25,4.35A15.42,15.42,0,0,1,143,48.62a24.39,24.39,0,0,1-7.4,1,25,25,0,0,1-6.59-.87A16.27,16.27,0,0,1,123.37,46a13.35,13.35,0,0,1-3.89-4.74,14.64,14.64,0,0,1-1.38-6.84h8.75A8.12,8.12,0,0,0,127.6,38.12Z"/><path d="M152.43,26.45a14.6,14.6,0,0,1,3.11-5.16,13.91,13.91,0,0,1,4.84-3.3,16.4,16.4,0,0,1,6.34-1.17A16.62,16.62,0,0,1,173.08,18a13.85,13.85,0,0,1,4.87,3.3,14.63,14.63,0,0,1,3.11,5.16,19.76,19.76,0,0,1,1.09,6.75,19.5,19.5,0,0,1-1.09,6.72A14.66,14.66,0,0,1,177.94,45a13.5,13.5,0,0,1-4.87,3.27,17,17,0,0,1-6.36,1.14,16.8,16.8,0,0,1-6.34-1.14A13.55,13.55,0,0,1,155.54,45a14.63,14.63,0,0,1-3.11-5.13,19.5,19.5,0,0,1-1.09-6.72A19.76,19.76,0,0,1,152.43,26.45Zm7.43,10.38A9.89,9.89,0,0,0,161,40a6.4,6.4,0,0,0,2.22,2.25,6.54,6.54,0,0,0,3.46.84,6.7,6.7,0,0,0,3.48-.84A6.33,6.33,0,0,0,172.44,40a9.91,9.91,0,0,0,1.18-3.18A19,19,0,0,0,174,33.2a19.44,19.44,0,0,0-.34-3.66,9.58,9.58,0,0,0-1.18-3.18,6.68,6.68,0,0,0-2.25-2.25,6.53,6.53,0,0,0-3.48-.87,6.38,6.38,0,0,0-3.46.87A6.76,6.76,0,0,0,161,26.36a9.56,9.56,0,0,0-1.18,3.18,19.36,19.36,0,0,0-.35,3.66A18.89,18.89,0,0,0,159.86,36.83Z"/><path d="M196.72,23.24a5.57,5.57,0,0,0-3.28.93,7.27,7.27,0,0,0-2.16,2.4,10.62,10.62,0,0,0-1.18,3.24,18.29,18.29,0,0,0-.35,3.51,17.52,17.52,0,0,0,.35,3.42,10.84,10.84,0,0,0,1.12,3.15,6.61,6.61,0,0,0,2.1,2.31,5.6,5.6,0,0,0,3.23.9,5.86,5.86,0,0,0,4.52-1.71,8.25,8.25,0,0,0,2-4.59h7.89q-0.81,6.18-4.61,9.42a14.48,14.48,0,0,1-9.73,3.24,15.73,15.73,0,0,1-6.13-1.17A13.55,13.55,0,0,1,185.72,45a15,15,0,0,1-3.05-5,18,18,0,0,1-1.09-6.39,21.43,21.43,0,0,1,1-6.69,15.19,15.19,0,0,1,3-5.34,13.58,13.58,0,0,1,4.78-3.51,15.67,15.67,0,0,1,6.45-1.26,18,18,0,0,1,5.1.72,13.39,13.39,0,0,1,4.38,2.19,11.59,11.59,0,0,1,3.14,3.66,12,12,0,0,1,1.38,5.19h-8Q202,23.24,196.72,23.24Z"/><path d="M219.53,5.84v23l10.31-11.16h9.68l-11.23,11.4,12.5,19.62h-9.91L222.7,34.82,219.53,38V48.68h-8.18V5.84h8.18Z"/><path d="M245.59,41A4.92,4.92,0,0,0,247,42.59a5.92,5.92,0,0,0,2,.93,9,9,0,0,0,2.33.3,8.37,8.37,0,0,0,1.81-.21,6,6,0,0,0,1.73-.66,4,4,0,0,0,1.3-1.2,3.25,3.25,0,0,0,.52-1.89q0-1.92-2.45-2.88a47.53,47.53,0,0,0-6.83-1.92q-1.79-.42-3.48-1a11.68,11.68,0,0,1-3-1.5,7.16,7.16,0,0,1-2.13-2.34,6.84,6.84,0,0,1-.81-3.45,9.65,9.65,0,0,1,1.12-4.92,8.45,8.45,0,0,1,3-3,12.68,12.68,0,0,1,4.15-1.56,24.59,24.59,0,0,1,4.72-.45,22.69,22.69,0,0,1,4.69.48,12.16,12.16,0,0,1,4.06,1.62,9.53,9.53,0,0,1,3,3,10.48,10.48,0,0,1,1.41,4.77h-7.78a3.76,3.76,0,0,0-1.79-3.33,7.9,7.9,0,0,0-3.8-.87,13.55,13.55,0,0,0-1.5.09,4.84,4.84,0,0,0-1.47.39,3,3,0,0,0-1.12.87,2.64,2.64,0,0,0,.35,3.39,6.14,6.14,0,0,0,2.1,1.17,25.32,25.32,0,0,0,3,.81q1.67,0.36,3.4.78a33.88,33.88,0,0,1,3.48,1,11.3,11.3,0,0,1,3,1.59,7.61,7.61,0,0,1,2.13,2.46,7.46,7.46,0,0,1,.81,3.63,10.23,10.23,0,0,1-1.18,5.13,9.67,9.67,0,0,1-3.08,3.33,12.33,12.33,0,0,1-4.35,1.77,24.42,24.42,0,0,1-5,.51,23.73,23.73,0,0,1-5.07-.54,13.07,13.07,0,0,1-4.41-1.8,10.09,10.09,0,0,1-3.17-3.33,10.76,10.76,0,0,1-1.35-5.19H245A4.82,4.82,0,0,0,245.59,41Z"/><path d="M274.07,39.44v9.24h-9V39.44h9Z"/></svg>