<svg xmlns="http://www.w3.org/2000/svg" viewBox="0 0 58.35 64.26"><title>sort_07</title><path d="M35.61,5.84v7.92H15.74v9.9H33V31H15.74v17.7h-9V5.84H35.61Z"/><path d="M35.26,12.86v-7h8.18v7H35.26Zm8.18,4.8v31H35.26v-31h8.18Z"/><path d="M53.35,5.84V48.68H45.17V5.84h8.18Z"/><path d="M71.2,17.66v5.7h-6V38.72a4.3,4.3,0,0,0,.69,2.88,3.88,3.88,0,0,0,2.76.72c0.46,0,.9,0,1.32-0.06a10.77,10.77,0,0,0,1.21-.18v6.6a18.81,18.81,0,0,1-2.3.24Q67.63,49,66.42,49a23,23,0,0,1-3.6-.27,8.26,8.26,0,0,1-3-1.05,5.46,5.46,0,0,1-2-2.22A8.21,8.21,0,0,1,57,41.66V23.36h-5v-5.7h5V8.36h8.18v9.3h6Z"/></svg>